<svg width="57" height="33" viewBox="0 0 57 33" fill="none" xmlns="http://www.w3.org/2000/svg">
<rect x="0.850647" y="0.325562" width="55.8177" height="32" rx="8" fill="#31465E"/>
<g clip-path="url(#clip0_12548:4404)">
<path d="M18.3101 14.7767C19.9522 14.7767 21.2875 13.4413 21.2875 11.7993V11.303C21.2875 9.66095 19.9522 8.32556 18.3101 8.32556C16.668 8.32556 15.3326 9.66095 15.3326 11.303V11.7993C15.3326 13.4413 16.668 14.7767 18.3101 14.7767Z" fill="#FADB5E"/>
<path d="M21.9428 16.2564C19.6085 15.6098 17.0106 15.6098 14.6758 16.2564C13.6015 16.5542 12.8506 17.5382 12.8506 18.6503V20.2358H23.768V18.6503C23.768 17.5382 23.0172 16.5542 21.9428 16.2564Z" fill="#FADB5E"/>
</g>
<path d="M38.8868 11.2699V12.8969H38.6954C37.8021 12.9105 37.0821 13.1429 36.5352 13.5941C35.9929 14.0453 35.6671 14.6719 35.5577 15.474C36.0863 14.9362 36.754 14.6674 37.5606 14.6674C38.4265 14.6674 39.1146 14.9773 39.6251 15.597C40.1355 16.2168 40.3907 17.0326 40.3907 18.0443C40.3907 18.6914 40.2494 19.2771 39.9669 19.8011C39.6889 20.3252 39.2924 20.7331 38.7774 21.0248C38.267 21.3164 37.6882 21.4623 37.0411 21.4623C35.9929 21.4623 35.1452 21.0977 34.4981 20.3685C33.8555 19.6394 33.5342 18.6664 33.5342 17.4496V16.7386C33.5342 15.6586 33.737 14.7061 34.1426 13.8812C34.5528 13.0518 35.1384 12.4115 35.8995 11.9603C36.6651 11.5046 37.5515 11.2745 38.5587 11.2699H38.8868ZM36.959 16.2533C36.64 16.2533 36.3506 16.3376 36.0909 16.5062C35.8311 16.6703 35.6397 16.889 35.5167 17.1625V17.764C35.5167 18.4248 35.6465 18.9421 35.9063 19.3158C36.1661 19.6849 36.5307 19.8695 37.0001 19.8695C37.4239 19.8695 37.7657 19.7032 38.0255 19.3705C38.2898 19.0332 38.4219 18.598 38.4219 18.0648C38.4219 17.5225 38.2898 17.085 38.0255 16.7523C37.7611 16.4196 37.4057 16.2533 36.959 16.2533Z" fill="#FADB5E"/>
<defs>
<clipPath id="clip0_12548:4404">
<rect width="12" height="12" fill="white" transform="translate(12.8506 8.32556)"/>
</clipPath>
</defs>
</svg>
