<svg width="101" height="137" viewBox="0 0 101 137" fill="none" xmlns="http://www.w3.org/2000/svg">
<path fill-rule="evenodd" clip-rule="evenodd" d="M7.63602 111.16L78.5315 120.02L94.0303 21.9543L23.1349 13.0941L7.63602 111.16ZM96.3679 10.0467L91.1853 9.39898L24.2075 1.03651C21.4999 0.698135 19.0081 2.32378 18.5779 5.04595L0.170908 121.512C-0.0435787 122.869 0.304389 124.164 1.0398 125.164C0.946937 124.955 0.868663 124.74 0.803805 124.521C1.43993 126.047 2.83979 127.189 4.61205 127.41L76.4011 136.382C79.1087 136.721 81.6533 134.788 82.0845 132.059L100.491 15.596C100.922 12.8695 99.0755 10.3851 96.3679 10.0467Z" fill="#FFFFFE"/>
</svg>
