<svg width="11" height="5" viewBox="0 0 11 5" fill="none" xmlns="http://www.w3.org/2000/svg">
<path fill-rule="evenodd" clip-rule="evenodd" d="M10.1213 2.07233C8.80954 2.7076 7.44585 3.13363 5.30349 2.86589C2.54342 2.52095 1.84433 1.75925 0.915442 0.924031L0.90332 0.909302L0.914217 0.985581C0.919233 1.08831 0.940996 1.18726 0.95719 1.28919C0.977919 1.4431 1.00187 1.59814 1.04185 1.74858C1.07134 1.84702 1.10963 1.94363 1.14625 2.04003C1.20263 2.18885 1.26054 2.33344 1.33398 2.47117C1.37947 2.55986 1.43182 2.64279 1.48454 2.72871C1.57265 2.87048 1.6725 3.00784 1.77705 3.13696C1.83338 3.21085 1.89395 3.27938 1.95669 3.3504C2.07912 3.4847 2.21649 3.61057 2.35845 3.72895L2.55427 3.89373C2.71752 4.01183 2.8901 4.11933 3.0748 4.22542L3.26526 4.3381C3.47481 4.44289 3.69612 4.52711 3.92407 4.60701L4.08119 4.66706C4.36415 4.75384 4.66208 4.82119 4.97302 4.86004L4.98002 4.85872L4.98552 4.86161L5.04478 4.86314C7.35725 5.12496 9.42588 4.09507 10.0668 2.23447L10.0946 2.1711L10.1413 2.06382L10.1213 2.07233Z" fill="#9B9D9C"/>
</svg>
