<svg width="19" height="5" viewBox="0 0 19 5" fill="none" xmlns="http://www.w3.org/2000/svg">
<mask id="mask0_12563:8444" style="mask-type:alpha" maskUnits="userSpaceOnUse" x="0" y="0" width="19" height="4">
<path d="M17.7624 3.05488L1.14345 0.977933C0.932547 0.951575 0.744848 0.859068 0.587891 0.722656C0.65784 1.37194 1.02456 1.87541 1.5464 1.94063L17.0775 3.88162C17.5977 3.94663 18.1096 3.55297 18.3772 2.94588C18.1841 3.03853 17.9725 3.08114 17.7624 3.05488Z" fill="white"/>
</mask>
<g mask="url(#mask0_12563:8444)">
<path fill-rule="evenodd" clip-rule="evenodd" d="M17.7624 3.05488L1.14345 0.977933C0.932547 0.951575 0.744848 0.859068 0.587891 0.722656C0.65784 1.37194 1.02456 1.87541 1.5464 1.94063L17.0775 3.88162C17.5977 3.94663 18.1096 3.55297 18.3772 2.94588C18.1841 3.03853 17.9725 3.08114 17.7624 3.05488Z" fill="url(#paint0_linear_12563:8444)"/>
</g>
<defs>
<linearGradient id="paint0_linear_12563:8444" x1="9.4828" y1="1.83275" x2="9.3467" y2="2.92178" gradientUnits="userSpaceOnUse">
<stop stop-color="#AFB0AC"/>
<stop offset="1" stop-color="#737573"/>
</linearGradient>
</defs>
</svg>
