<svg width="151" height="138" viewBox="0 0 151 138" fill="none" xmlns="http://www.w3.org/2000/svg">
<path d="M69.8151 40.7809C68.1131 39.0788 68.1131 36.3194 69.8151 34.6176L102.316 2.11675C104.018 0.414695 106.777 0.414695 108.479 2.11675C110.181 3.81881 110.181 6.57823 108.479 8.27999L75.9784 40.7809C74.2763 42.4829 71.5169 42.4829 69.8151 40.7809Z" fill="url(#paint0_linear_343_7371)"/>
<path d="M104.086 9.31291C103.778 9.0382 103.432 8.80879 103.057 8.63438C100.106 7.26497 85.813 1.11821 79.8468 7.57673C76.1309 11.5994 81.6824 18.3923 87.3289 23.6209C92.4851 28.3953 99.6515 29.2344 103.279 25.4988C107.388 21.2682 110.646 15.1561 104.086 9.31291Z" fill="url(#paint1_linear_343_7371)"/>
<path d="M104.086 9.31291C103.778 9.0382 103.432 8.80879 103.057 8.63438C100.106 7.26497 85.813 1.1182 79.8468 7.57673C76.1309 11.5994 81.6824 18.3923 87.3289 23.6209C92.4851 28.3956 110.646 15.1561 104.086 9.31291Z" fill="url(#paint2_linear_343_7371)"/>
<path d="M91.1785 16.7006L85.7588 22.1203C86.2764 22.6317 86.8023 23.1332 87.3291 23.6209C91.6932 27.6617 97.4964 28.8826 101.376 26.8979L91.1785 16.7006Z" fill="url(#paint3_linear_343_7371)"/>
<path d="M59.7855 15.7239C66.2461 18.6421 73.4558 23.706 80.1728 30.423C86.8899 37.1401 91.9537 44.3501 94.872 50.8104C96.4396 54.2807 101.735 53.8727 105.613 49.9951C108.202 47.4057 109.381 43.9883 108.513 41.5495C105.952 34.3533 100.372 25.8645 92.5517 18.0442C84.7311 10.2236 76.2423 4.64419 69.0461 2.08272C66.6073 1.21448 63.1896 2.3936 60.6005 4.98301C56.7231 8.86036 56.3149 14.1562 59.7855 15.7239Z" fill="url(#paint4_linear_343_7371)"/>
<path d="M90.9947 28.3703C90.7953 28.153 90.5832 27.9409 90.3585 27.7338C85.8117 22.7782 74.3391 20.515 68.9585 21.0015C72.7091 23.5997 76.5141 26.7635 80.1729 30.4224C86.89 37.1394 91.9538 44.3494 94.872 50.8097C96.4397 54.28 101.736 53.8721 105.613 49.9944C106.903 48.7038 107.843 47.2077 108.354 45.7294L90.9947 28.3703Z" fill="url(#paint5_linear_343_7371)"/>
<path d="M66.4814 21.6818C66.4814 21.6818 51.1505 32.2018 46.2808 43.6612C41.4111 55.1206 70.0893 64.7024 76.4323 61.6956C82.7752 58.6888 92.2731 41.5947 92.2731 32.2021C92.2731 22.8094 69.7461 19.2409 66.4814 21.6818Z" fill="url(#paint6_linear_343_7371)"/>
<path d="M66.4815 21.6819C66.4815 21.6819 52.4085 31.3401 46.9468 42.2283C54.523 46.0821 64.0959 48.0042 67.4444 46.4169C72.5662 43.9889 79.7438 32.3769 82.3183 23.0504C75.8388 20.811 68.27 20.3448 66.4815 21.6819Z" fill="url(#paint7_linear_343_7371)"/>
<g opacity="0.5">
<g opacity="0.5">
<path opacity="0.5" d="M67.0692 27.2924C67.9656 27.2924 68.6922 26.5658 68.6922 25.6695C68.6922 24.7731 67.9656 24.0465 67.0692 24.0465C66.1729 24.0465 65.4463 24.7731 65.4463 25.6695C65.4463 26.5658 66.1729 27.2924 67.0692 27.2924Z" fill="url(#paint8_linear_343_7371)"/>
<path opacity="0.5" d="M64.9228 31.6506C65.6304 31.6506 66.204 31.077 66.204 30.3694C66.204 29.6619 65.6304 29.0883 64.9228 29.0883C64.2152 29.0883 63.6416 29.6619 63.6416 30.3694C63.6416 31.077 64.2152 31.6506 64.9228 31.6506Z" fill="url(#paint9_linear_343_7371)"/>
<path opacity="0.5" d="M70.6107 31.1186C71.0373 31.1186 71.3831 30.7728 71.3831 30.3462C71.3831 29.9196 71.0373 29.5739 70.6107 29.5739C70.1842 29.5739 69.8384 29.9196 69.8384 30.3462C69.8384 30.7728 70.1842 31.1186 70.6107 31.1186Z" fill="url(#paint10_linear_343_7371)"/>
</g>
<g opacity="0.5">
<path opacity="0.5" d="M75.7258 26.4124C76.3882 26.4124 76.9252 25.8754 76.9252 25.213C76.9252 24.5505 76.3882 24.0135 75.7258 24.0135C75.0634 24.0135 74.5264 24.5505 74.5264 25.213C74.5264 25.8754 75.0634 26.4124 75.7258 26.4124Z" fill="url(#paint11_linear_343_7371)"/>
<path opacity="0.5" d="M72.0796 27.2929C72.6025 27.2929 73.0263 26.8691 73.0263 26.3462C73.0263 25.8233 72.6025 25.3994 72.0796 25.3994C71.5567 25.3994 71.1328 25.8233 71.1328 26.3462C71.1328 26.8691 71.5567 27.2929 72.0796 27.2929Z" fill="url(#paint12_linear_343_7371)"/>
<path opacity="0.5" d="M74.8946 30.038C75.2099 30.038 75.4655 29.7824 75.4655 29.4671C75.4655 29.1518 75.2099 28.8962 74.8946 28.8962C74.5793 28.8962 74.3237 29.1518 74.3237 29.4671C74.3237 29.7824 74.5793 30.038 74.8946 30.038Z" fill="url(#paint13_linear_343_7371)"/>
</g>
</g>
<path d="M64.6325 31.4236C60.4893 31.4236 56.5661 32.1898 53.062 33.5556C50.3084 36.6433 47.7911 40.1068 46.2808 43.6612C41.4111 55.1206 70.0893 64.7024 76.4323 61.6956C80.4823 59.7759 85.8175 52.1136 89.1464 44.3795C84.9537 36.7453 75.5587 31.4236 64.6325 31.4236Z" fill="url(#paint14_linear_343_7371)"/>
<path d="M86.6197 49.5464C80.8732 41.6714 70.3373 36.3903 58.2794 36.3903C55.4415 36.3903 52.6879 36.6838 50.0609 37.2338C48.5373 39.2964 47.2165 41.4611 46.2818 43.6611C41.4121 55.1206 70.0903 64.7023 76.4332 61.6956C79.5676 60.2097 83.4715 55.2832 86.6197 49.5464Z" fill="url(#paint15_linear_343_7371)"/>
<path d="M66.4138 48.6903L57.0503 58.0538C64.425 61.5388 73.2468 63.2056 76.4329 61.6953C77.0156 61.4191 77.6247 61.0238 78.2506 60.5268L66.4138 48.6903Z" fill="url(#paint16_linear_343_7371)"/>
<path d="M31.4328 44.0764C37.8934 46.9947 45.1031 52.0585 51.8202 58.7756C58.5372 65.4926 63.601 72.7026 66.5193 79.1629C68.0869 82.6332 73.3828 82.2253 77.2602 78.3476C79.8496 75.7582 81.0287 72.3409 80.1605 69.902C77.599 62.7058 72.0196 54.217 64.199 46.3967C56.3784 38.5761 47.8896 32.9967 40.6937 30.4353C38.2549 29.567 34.8372 30.7461 32.2481 33.3355C28.3705 37.2129 27.9625 42.5088 31.4328 44.0764Z" fill="url(#paint17_linear_343_7371)"/>
<path d="M77.2606 78.3477C79.85 75.7583 81.0292 72.341 80.1609 69.9021C80.1406 69.8448 80.1183 69.7868 80.0977 69.7295L65.0494 54.6812C64.6286 54.2486 64.178 53.8162 63.6939 53.3848C63.183 52.9298 62.6106 52.5498 61.9883 52.261C58.5174 50.6501 45.5721 45.0504 34.8188 45.7698C40.3538 48.7854 46.2556 53.2107 51.8206 58.7757C58.5377 65.4927 63.6015 72.7027 66.5197 79.163C68.0871 82.6333 73.383 82.2251 77.2606 78.3477Z" fill="url(#paint18_linear_343_7371)"/>
<path d="M63.6936 53.3847C63.1827 52.9297 62.6103 52.5497 61.988 52.2609C57.1003 49.9923 33.4233 39.81 23.54 50.5088C17.3844 57.1723 26.5806 68.4253 35.9341 77.0864C44.4756 84.9956 56.3471 86.3853 62.3562 80.1976C69.1627 73.1888 74.56 63.0641 63.6936 53.3847Z" fill="url(#paint19_linear_343_7371)"/>
<path d="M63.6936 53.3847C63.1827 52.9297 62.6103 52.5497 61.988 52.2609C57.1003 49.9923 33.4233 39.81 23.54 50.5088C17.3844 57.1723 26.5806 68.4253 35.9341 77.0864C44.4759 84.9956 74.56 63.0641 63.6936 53.3847Z" fill="url(#paint20_linear_343_7371)"/>
<g opacity="0.5">
<g opacity="0.5">
<path opacity="0.5" d="M53.4218 70.8926C53.8483 70.8926 54.1941 70.5468 54.1941 70.1203C54.1941 69.6937 53.8483 69.3479 53.4218 69.3479C52.9952 69.3479 52.6494 69.6937 52.6494 70.1203C52.6494 70.5468 52.9952 70.8926 53.4218 70.8926Z" fill="url(#paint21_linear_343_7371)"/>
</g>
<g opacity="0.5">
<path opacity="0.5" d="M58.5378 66.1864C59.2002 66.1864 59.7372 65.6494 59.7372 64.987C59.7372 64.3246 59.2002 63.7876 58.5378 63.7876C57.8754 63.7876 57.3384 64.3246 57.3384 64.987C57.3384 65.6494 57.8754 66.1864 58.5378 66.1864Z" fill="url(#paint22_linear_343_7371)"/>
<path opacity="0.5" d="M54.8916 67.0674C55.4145 67.0674 55.8384 66.6435 55.8384 66.1206C55.8384 65.5977 55.4145 65.1738 54.8916 65.1738C54.3687 65.1738 53.9448 65.5977 53.9448 66.1206C53.9448 66.6435 54.3687 67.0674 54.8916 67.0674Z" fill="url(#paint23_linear_343_7371)"/>
<path opacity="0.5" d="M57.7061 69.8123C58.0214 69.8123 58.277 69.5567 58.277 69.2414C58.277 68.9261 58.0214 68.6705 57.7061 68.6705C57.3908 68.6705 57.1353 68.9261 57.1353 69.2414C57.1353 69.5567 57.3908 69.8123 57.7061 69.8123Z" fill="url(#paint24_linear_343_7371)"/>
</g>
</g>
<path d="M35.9346 77.0866C41.5946 82.3274 48.7152 84.7024 54.6249 83.9101L40.6555 69.9407L34.6846 75.9116C35.0999 76.308 35.5169 76.7001 35.9346 77.0866Z" fill="url(#paint25_linear_343_7371)"/>
<path d="M5.4218 65.1541C12.5415 68.7318 20.6144 74.6582 28.2756 82.3197C35.9368 89.9812 41.8636 98.0538 45.4412 105.174C47.363 108.998 53.0024 108.934 56.88 105.056C59.4694 102.467 60.4912 98.8921 59.3906 96.2206C56.143 88.3385 49.5747 78.8609 40.6547 69.9406C31.7347 61.0206 22.2571 54.4521 14.3747 51.2047C11.7033 50.1041 8.12856 51.1259 5.53915 53.7153C1.6618 57.5927 1.59709 63.2321 5.4218 65.1541Z" fill="url(#paint26_radial_343_7371)"/>
<path d="M28.276 82.3197C35.9375 89.9812 41.864 98.0539 45.4416 105.174C47.3634 108.998 53.0028 108.934 56.8805 105.056C58.4557 103.481 59.4463 101.542 59.7363 99.6624L35.3349 75.2609C33.6328 73.5589 30.8734 73.5589 29.1716 75.2609L25.1343 79.2983C26.1866 80.2733 27.2355 81.2789 28.276 82.3197Z" fill="url(#paint27_linear_343_7371)"/>
<path d="M1.91229 108.684C0.210227 106.982 0.210227 104.222 1.91229 102.52L29.1717 75.2609C30.8738 73.5589 33.6332 73.5589 35.3349 75.2609C37.037 76.963 37.037 79.7224 35.3349 81.4242L8.07552 108.684C6.37376 110.386 3.61435 110.386 1.91229 108.684Z" fill="url(#paint28_linear_343_7371)"/>
<path d="M108.491 68.0126C106.789 66.3105 106.789 63.5511 108.491 61.8494L140.993 29.3482C142.695 27.6461 145.454 27.6461 147.156 29.3482C148.858 31.0503 148.858 33.8097 147.156 35.5114L114.655 68.0126C112.953 69.7144 110.193 69.7144 108.491 68.0126Z" fill="url(#paint29_linear_343_7371)"/>
<path d="M107.368 37.3097C113.03 40.1547 119.45 44.8679 125.542 50.9609C131.635 57.0538 136.348 63.4735 139.194 69.1356C140.722 72.177 145.207 72.1259 148.29 69.042C150.349 66.9829 151.162 64.14 150.287 62.0156C147.704 55.7473 142.481 48.21 135.387 41.1165C128.293 34.0226 120.756 28.7991 114.488 26.2165C112.363 25.3412 109.52 26.1538 107.461 28.2129C104.378 31.2967 104.326 35.7815 107.368 37.3097Z" fill="url(#paint30_radial_343_7371)"/>
<path d="M109.809 38.6285C114.837 41.5168 120.31 45.728 125.543 50.9609C131.636 57.0535 136.349 63.4735 139.194 69.1356C140.722 72.1771 145.207 72.1259 148.291 69.0421C150.35 66.983 151.163 64.14 150.287 62.0156C149.737 60.6806 149.061 59.2856 148.279 57.8521L138.168 47.7418C137.71 47.263 137.215 46.7844 136.679 46.3074C136.169 45.8524 135.596 45.4724 134.974 45.1835C131.716 43.6718 120.112 38.6462 109.809 38.6285Z" fill="url(#paint31_linear_343_7371)"/>
<path d="M136.678 46.3073C136.168 45.8523 135.595 45.4723 134.973 45.1835C130.085 42.9149 106.408 32.7326 96.5249 43.4314C90.3693 50.0949 99.5655 61.3479 108.919 70.0091C117.46 77.9182 129.332 79.3079 135.341 73.1202C142.148 66.1114 147.545 55.9867 136.678 46.3073Z" fill="url(#paint32_linear_343_7371)"/>
<path d="M136.678 46.3073C136.168 45.8523 135.595 45.4723 134.973 45.1835C130.085 42.9149 106.408 32.7326 96.5249 43.4314C90.3693 50.0949 99.5655 61.3479 108.919 70.0091C117.461 77.9182 147.545 55.9867 136.678 46.3073Z" fill="url(#paint33_linear_343_7371)"/>
<g opacity="0.5">
<g opacity="0.5">
<path opacity="0.5" d="M126.407 63.8152C126.834 63.8152 127.179 63.4694 127.179 63.0429C127.179 62.6163 126.834 62.2705 126.407 62.2705C125.981 62.2705 125.635 62.6163 125.635 63.0429C125.635 63.4694 125.981 63.8152 126.407 63.8152Z" fill="url(#paint34_linear_343_7371)"/>
</g>
<g opacity="0.5">
<path opacity="0.5" d="M131.523 59.109C132.185 59.109 132.722 58.572 132.722 57.9096C132.722 57.2472 132.185 56.7102 131.523 56.7102C130.86 56.7102 130.323 57.2472 130.323 57.9096C130.323 58.572 130.86 59.109 131.523 59.109Z" fill="url(#paint35_linear_343_7371)"/>
<path opacity="0.5" d="M127.876 59.9896C128.399 59.9896 128.823 59.5657 128.823 59.0428C128.823 58.5199 128.399 58.0961 127.876 58.0961C127.354 58.0961 126.93 58.5199 126.93 59.0428C126.93 59.5657 127.354 59.9896 127.876 59.9896Z" fill="url(#paint36_linear_343_7371)"/>
<path opacity="0.5" d="M130.691 62.7345C131.006 62.7345 131.262 62.479 131.262 62.1637C131.262 61.8484 131.006 61.5928 130.691 61.5928C130.376 61.5928 130.12 61.8484 130.12 62.1637C130.12 62.479 130.376 62.7345 130.691 62.7345Z" fill="url(#paint37_linear_343_7371)"/>
</g>
</g>
<path d="M129.13 76.5547L116.772 64.197L110.008 70.9611C115.983 75.9591 123.314 77.9358 129.13 76.5547Z" fill="url(#paint38_linear_343_7371)"/>
<path d="M81.8133 59.6039C88.2739 62.5221 95.4836 67.586 102.201 74.303C108.918 81.0201 113.982 88.2301 116.9 94.6904C118.467 98.1607 123.763 97.7527 127.641 93.8751C130.23 91.2857 131.409 87.8683 130.541 85.4295C127.979 78.2333 122.4 69.7445 114.579 61.9242C106.759 54.1036 98.2701 48.5242 91.0742 45.9627C88.6354 45.0945 85.2177 46.2736 82.6286 48.863C78.7509 52.7404 78.3427 58.0363 81.8133 59.6039Z" fill="url(#paint39_linear_343_7371)"/>
<path d="M114.117 72.0076C113.845 71.7053 113.54 71.4194 113.192 71.1565C104.492 64.5818 88.9186 63.1891 88.9186 63.1891C88.7771 63.1706 88.6156 63.1759 88.4395 63.2C92.9995 66.0656 97.7095 69.8123 102.2 74.3029C108.917 81.02 113.981 88.23 116.899 94.6903C118.467 98.1606 123.763 97.7526 127.64 93.875C129.238 92.2773 130.296 90.3647 130.67 88.5609L114.117 72.0076Z" fill="url(#paint40_linear_343_7371)"/>
<path d="M88.9192 63.1891C88.9192 63.1891 104.492 64.5818 113.192 71.1565C121.892 77.7312 106.288 97.23 100.467 97.6706C94.6463 98.1112 80.1083 89.2585 75.7657 82.1629C71.423 75.0674 85.5101 62.7412 88.9192 63.1891Z" fill="url(#paint41_linear_343_7371)"/>
<path d="M88.9189 63.1891C88.9189 63.1891 103.215 64.4686 112.064 70.3586C108.553 76.5088 102.755 82.0533 99.6815 82.2859C94.9812 82.6415 84.5989 76.9383 78.4883 70.9933C81.9795 66.5318 87.0512 62.9436 88.9189 63.1891Z" fill="url(#paint42_linear_343_7371)"/>
<g opacity="0.5">
<g opacity="0.5">
<path opacity="0.5" d="M86.161 68.6233C87.0574 68.6233 87.784 67.8967 87.784 67.0004C87.784 66.1041 87.0574 65.3774 86.161 65.3774C85.2647 65.3774 84.5381 66.1041 84.5381 67.0004C84.5381 67.8967 85.2647 68.6233 86.161 68.6233Z" fill="url(#paint43_linear_343_7371)"/>
<path opacity="0.5" d="M84.0146 72.9816C84.7221 72.9816 85.2957 72.408 85.2957 71.7004C85.2957 70.9928 84.7221 70.4192 84.0146 70.4192C83.307 70.4192 82.7334 70.9928 82.7334 71.7004C82.7334 72.408 83.307 72.9816 84.0146 72.9816Z" fill="url(#paint44_linear_343_7371)"/>
<path opacity="0.5" d="M89.702 72.4495C90.1286 72.4495 90.4744 72.1037 90.4744 71.6771C90.4744 71.2506 90.1286 70.9048 89.702 70.9048C89.2755 70.9048 88.9297 71.2506 88.9297 71.6771C88.9297 72.1037 89.2755 72.4495 89.702 72.4495Z" fill="url(#paint45_linear_343_7371)"/>
</g>
<g opacity="0.5">
<path opacity="0.5" d="M94.8176 67.7433C95.48 67.7433 96.017 67.2063 96.017 66.5439C96.017 65.8815 95.48 65.3445 94.8176 65.3445C94.1552 65.3445 93.6182 65.8815 93.6182 66.5439C93.6182 67.2063 94.1552 67.7433 94.8176 67.7433Z" fill="url(#paint46_linear_343_7371)"/>
<path opacity="0.5" d="M91.1714 68.6239C91.6943 68.6239 92.1181 68.2 92.1181 67.6771C92.1181 67.1542 91.6943 66.7303 91.1714 66.7303C90.6485 66.7303 90.2246 67.1542 90.2246 67.6771C90.2246 68.2 90.6485 68.6239 91.1714 68.6239Z" fill="url(#paint47_linear_343_7371)"/>
<path opacity="0.5" d="M93.9859 71.3688C94.3012 71.3688 94.5568 71.1132 94.5568 70.7979C94.5568 70.4826 94.3012 70.2271 93.9859 70.2271C93.6706 70.2271 93.415 70.4826 93.415 70.7979C93.415 71.1132 93.6706 71.3688 93.9859 71.3688Z" fill="url(#paint48_linear_343_7371)"/>
</g>
</g>
<path d="M94.7143 69.7577C97.6087 67.9862 100.703 66.8877 103.782 66.4215C107.134 67.5768 110.493 69.1171 113.192 71.1562C121.891 77.7309 106.287 97.2297 100.467 97.6703C96.7498 97.9515 89.4801 94.4445 83.5793 90.025C82.979 82.4659 87.0816 74.4292 94.7143 69.7577Z" fill="url(#paint49_linear_343_7371)"/>
<path d="M87.7344 92.8483C88.1076 84.4427 93.0261 75.9486 101.45 70.7936C103.432 69.5803 105.491 68.6248 107.581 67.9171C109.599 68.8239 111.522 69.8945 113.192 71.1565C121.892 77.7312 106.288 97.2301 100.467 97.6706C97.5905 97.8883 92.5858 95.8356 87.7344 92.8483Z" fill="url(#paint50_linear_343_7371)"/>
<path d="M95.4737 87.1088C95.1599 86.7859 94.8237 86.4635 94.4625 86.1418C94.0828 85.8035 93.6572 85.5209 93.1946 85.3065C90.8349 84.2115 82.5852 80.6365 75.0781 80.4418C75.2072 81.0409 75.4314 81.6177 75.7652 82.1632C80.1078 89.2588 94.6455 98.1112 100.467 97.6709C101.483 97.5941 102.798 96.9344 104.23 95.8656L95.4737 87.1088Z" fill="url(#paint51_linear_343_7371)"/>
<path d="M94.4626 86.1418C94.0829 85.8035 93.6573 85.5209 93.1947 85.3062C89.5612 83.6197 71.9591 76.05 64.6117 84.0038C60.0356 88.9576 66.872 97.3232 73.8259 103.762C80.1759 109.642 89.0012 110.675 93.4685 106.075C98.5285 100.865 102.541 93.3376 94.4626 86.1418Z" fill="url(#paint52_linear_343_7371)"/>
<path d="M94.4626 86.1418C94.0829 85.8035 93.6573 85.5209 93.1947 85.3062C89.5611 83.6197 71.9591 76.05 64.6117 84.0038C60.0356 88.9576 66.872 97.3232 73.8259 103.762C80.1759 109.642 102.541 93.3376 94.4626 86.1418Z" fill="url(#paint53_linear_343_7371)"/>
<path d="M73.8261 103.762C79.7152 109.215 87.7308 110.496 92.4273 106.984L80.9735 95.5305L73.2661 103.238C73.4526 103.414 73.6394 103.589 73.8261 103.762Z" fill="url(#paint54_linear_343_7371)"/>
<path d="M50.2175 95.2212C56.1404 97.6021 62.6469 101.962 68.594 107.909C74.541 113.857 78.9013 120.363 81.2822 126.286C82.561 129.468 87.5769 128.779 91.4543 124.902C94.0437 122.312 95.351 119.023 94.6725 116.774C92.6701 110.137 87.8969 102.454 80.9728 95.5303C74.0487 88.6062 66.3663 83.833 59.7293 81.8306C57.4798 81.1521 54.1907 82.4595 51.6013 85.0489C47.7242 88.9265 47.0357 93.9424 50.2175 95.2212Z" fill="url(#paint55_linear_343_7371)"/>
<path d="M74.0115 102.492C72.3095 100.79 69.55 100.79 67.8483 102.492L65.4136 104.927C66.4868 105.872 67.5495 106.865 68.5945 107.909C74.5415 113.856 78.9018 120.363 81.2827 126.286C82.5615 129.468 87.5774 128.779 91.4547 124.902C92.3324 124.024 93.0586 123.065 93.6142 122.095L74.0115 102.492Z" fill="url(#paint56_linear_343_7371)"/>
<path d="M40.5886 135.915C38.8865 134.213 38.8865 131.453 40.5886 129.752L67.848 102.492C69.55 100.79 72.3094 100.79 74.0112 102.492C75.7133 104.194 75.7133 106.954 74.0112 108.655L46.7518 135.915C45.0497 137.617 42.2906 137.617 40.5886 135.915Z" fill="url(#paint57_linear_343_7371)"/>
<defs>
<linearGradient id="paint0_linear_343_7371" x1="87.2835" y1="19.6477" x2="99.1363" y2="31.5005" gradientUnits="userSpaceOnUse">
<stop stop-color="#A57C52"/>
<stop offset="0.1339" stop-color="#A26C4A"/>
<stop offset="0.5155" stop-color="#994336"/>
<stop offset="0.8174" stop-color="#942A2A"/>
<stop offset="1" stop-color="#922125"/>
</linearGradient>
<linearGradient id="paint1_linear_343_7371" x1="94.3476" y1="11.2567" x2="89.1802" y2="24.2312" gradientUnits="userSpaceOnUse">
<stop stop-color="#FFDECF"/>
<stop offset="0.3791" stop-color="#FDC4B0"/>
<stop offset="0.7655" stop-color="#FBAE97"/>
<stop offset="1" stop-color="#FAA68E"/>
</linearGradient>
<linearGradient id="paint2_linear_343_7371" x1="92.0357" y1="13.1014" x2="91.0263" y2="39.2261" gradientUnits="userSpaceOnUse">
<stop stop-color="#FFDECF"/>
<stop offset="0.3791" stop-color="#FDC4B0"/>
<stop offset="0.7655" stop-color="#FBAE97"/>
<stop offset="1" stop-color="#FAA68E"/>
</linearGradient>
<linearGradient id="paint3_linear_343_7371" x1="103.02" y1="33.962" x2="88.4988" y2="19.4406" gradientUnits="userSpaceOnUse">
<stop stop-color="#F82814" stop-opacity="0"/>
<stop offset="0.2454" stop-color="#F12817" stop-opacity="0.245"/>
<stop offset="0.6052" stop-color="#DD2820" stop-opacity="0.605"/>
<stop offset="1" stop-color="#C0272D"/>
</linearGradient>
<linearGradient id="paint4_linear_343_7371" x1="91.7228" y1="18.873" x2="78.4558" y2="32.1401" gradientUnits="userSpaceOnUse">
<stop stop-color="#BADA00"/>
<stop offset="0.2269" stop-color="#B0CE00"/>
<stop offset="0.6378" stop-color="#95AE00"/>
<stop offset="1" stop-color="#798C00"/>
</linearGradient>
<linearGradient id="paint5_linear_343_7371" x1="104.232" y1="51.0662" x2="75.3141" y2="22.1486" gradientUnits="userSpaceOnUse">
<stop stop-color="#798C00" stop-opacity="0"/>
<stop offset="0.6542" stop-color="#556100" stop-opacity="0.654"/>
<stop offset="1" stop-color="#464F00"/>
</linearGradient>
<linearGradient id="paint6_linear_343_7371" x1="65.537" y1="29.1556" x2="76.5884" y2="61.5612" gradientUnits="userSpaceOnUse">
<stop stop-color="#A57C52"/>
<stop offset="0.1339" stop-color="#A26C4A"/>
<stop offset="0.5155" stop-color="#994336"/>
<stop offset="0.8174" stop-color="#942A2A"/>
<stop offset="1" stop-color="#922125"/>
</linearGradient>
<linearGradient id="paint7_linear_343_7371" x1="64.0606" y1="25.2766" x2="66.3888" y2="55.233" gradientUnits="userSpaceOnUse">
<stop stop-color="#A57C52"/>
<stop offset="0.1339" stop-color="#A26C4A"/>
<stop offset="0.5155" stop-color="#994336"/>
<stop offset="0.8174" stop-color="#942A2A"/>
<stop offset="1" stop-color="#922125"/>
</linearGradient>
<linearGradient id="paint8_linear_343_7371" x1="68.9821" y1="26.9789" x2="63.6668" y2="21.4353" gradientUnits="userSpaceOnUse">
<stop stop-color="#42210B" stop-opacity="0"/>
<stop offset="1" stop-color="#42210B"/>
</linearGradient>
<linearGradient id="paint9_linear_343_7371" x1="66.4778" y1="31.3027" x2="62.2819" y2="26.9264" gradientUnits="userSpaceOnUse">
<stop stop-color="#42210B" stop-opacity="0"/>
<stop offset="1" stop-color="#42210B"/>
</linearGradient>
<linearGradient id="paint10_linear_343_7371" x1="71.628" y1="30.7186" x2="69.0984" y2="28.0802" gradientUnits="userSpaceOnUse">
<stop stop-color="#42210B" stop-opacity="0"/>
<stop offset="1" stop-color="#42210B"/>
</linearGradient>
<linearGradient id="paint11_linear_343_7371" x1="75.5546" y1="27.5622" x2="75.9915" y2="21.8996" gradientUnits="userSpaceOnUse">
<stop stop-color="#42210B" stop-opacity="0"/>
<stop offset="1" stop-color="#42210B"/>
</linearGradient>
<linearGradient id="paint12_linear_343_7371" x1="71.9361" y1="28.3125" x2="72.2811" y2="23.8419" gradientUnits="userSpaceOnUse">
<stop stop-color="#42210B" stop-opacity="0"/>
<stop offset="1" stop-color="#42210B"/>
</linearGradient>
<linearGradient id="paint13_linear_343_7371" x1="74.7963" y1="30.8643" x2="75.0042" y2="28.1692" gradientUnits="userSpaceOnUse">
<stop stop-color="#42210B" stop-opacity="0"/>
<stop offset="1" stop-color="#42210B"/>
</linearGradient>
<linearGradient id="paint14_linear_343_7371" x1="78.4176" y1="38.7389" x2="103.769" y2="22.1827" gradientUnits="userSpaceOnUse">
<stop stop-color="#42210B" stop-opacity="0"/>
<stop offset="1" stop-color="#42210B"/>
</linearGradient>
<linearGradient id="paint15_linear_343_7371" x1="75.2709" y1="41.6532" x2="97.3382" y2="27.242" gradientUnits="userSpaceOnUse">
<stop stop-color="#42210B" stop-opacity="0"/>
<stop offset="1" stop-color="#42210B"/>
</linearGradient>
<linearGradient id="paint16_linear_343_7371" x1="79.8627" y1="71.5029" x2="63.3462" y2="54.9865" gradientUnits="userSpaceOnUse">
<stop stop-color="#42210B" stop-opacity="0"/>
<stop offset="1" stop-color="#42210B"/>
</linearGradient>
<linearGradient id="paint17_linear_343_7371" x1="63.3702" y1="47.2256" x2="50.1034" y2="60.4923" gradientUnits="userSpaceOnUse">
<stop stop-color="#FFD945"/>
<stop offset="0.3043" stop-color="#FFCD3E"/>
<stop offset="0.8558" stop-color="#FFAD2B"/>
<stop offset="1" stop-color="#FFA325"/>
</linearGradient>
<linearGradient id="paint18_linear_343_7371" x1="83.1974" y1="84.5177" x2="29.6877" y2="31.008" gradientUnits="userSpaceOnUse">
<stop stop-color="#F82814" stop-opacity="0"/>
<stop offset="1" stop-color="#C0272D"/>
</linearGradient>
<linearGradient id="paint19_linear_343_7371" x1="52.7986" y1="48.5847" x2="38.5188" y2="74.4538" gradientUnits="userSpaceOnUse">
<stop stop-color="#A57C52"/>
<stop offset="0.1339" stop-color="#A26C4A"/>
<stop offset="0.5155" stop-color="#994336"/>
<stop offset="0.8174" stop-color="#942A2A"/>
<stop offset="1" stop-color="#922125"/>
</linearGradient>
<linearGradient id="paint20_linear_343_7371" x1="44.5283" y1="50.9844" x2="39.3544" y2="92.9959" gradientUnits="userSpaceOnUse">
<stop stop-color="#A57C52"/>
<stop offset="0.1339" stop-color="#A26C4A"/>
<stop offset="0.5155" stop-color="#994336"/>
<stop offset="0.8174" stop-color="#942A2A"/>
<stop offset="1" stop-color="#922125"/>
</linearGradient>
<linearGradient id="paint21_linear_343_7371" x1="54.4577" y1="70.487" x2="51.9277" y2="67.8487" gradientUnits="userSpaceOnUse">
<stop stop-color="#42210B" stop-opacity="0"/>
<stop offset="1" stop-color="#42210B"/>
</linearGradient>
<linearGradient id="paint22_linear_343_7371" x1="58.3544" y1="67.3554" x2="58.7915" y2="61.6926" gradientUnits="userSpaceOnUse">
<stop stop-color="#42210B" stop-opacity="0"/>
<stop offset="1" stop-color="#42210B"/>
</linearGradient>
<linearGradient id="paint23_linear_343_7371" x1="54.7358" y1="68.1053" x2="55.081" y2="63.6349" gradientUnits="userSpaceOnUse">
<stop stop-color="#42210B" stop-opacity="0"/>
<stop offset="1" stop-color="#42210B"/>
</linearGradient>
<linearGradient id="paint24_linear_343_7371" x1="57.5958" y1="70.657" x2="57.8037" y2="67.9619" gradientUnits="userSpaceOnUse">
<stop stop-color="#42210B" stop-opacity="0"/>
<stop offset="1" stop-color="#42210B"/>
</linearGradient>
<linearGradient id="paint25_linear_343_7371" x1="61.1072" y1="96.3639" x2="39.1863" y2="74.4427" gradientUnits="userSpaceOnUse">
<stop stop-color="#42210B" stop-opacity="0"/>
<stop offset="1" stop-color="#42210B"/>
</linearGradient>
<radialGradient id="paint26_radial_343_7371" cx="0" cy="0" r="1" gradientUnits="userSpaceOnUse" gradientTransform="translate(23.8377 87.7091) rotate(-135) scale(43.5634 20.7034)">
<stop stop-color="#FF6359"/>
<stop offset="0.4845" stop-color="#FF6157"/>
<stop offset="0.6591" stop-color="#FE5C50"/>
<stop offset="0.7835" stop-color="#FD5145"/>
<stop offset="0.884" stop-color="#FB4334"/>
<stop offset="0.9692" stop-color="#F9311E"/>
<stop offset="1" stop-color="#F82814"/>
</radialGradient>
<linearGradient id="paint27_linear_343_7371" x1="52.7975" y1="102.811" x2="27.806" y2="77.8192" gradientUnits="userSpaceOnUse">
<stop stop-color="#F82814" stop-opacity="0"/>
<stop offset="1" stop-color="#C0272D"/>
</linearGradient>
<linearGradient id="paint28_linear_343_7371" x1="16.7706" y1="90.1604" x2="28.6235" y2="102.013" gradientUnits="userSpaceOnUse">
<stop stop-color="#A57C52"/>
<stop offset="0.1339" stop-color="#A26C4A"/>
<stop offset="0.5155" stop-color="#994336"/>
<stop offset="0.8174" stop-color="#942A2A"/>
<stop offset="1" stop-color="#922125"/>
</linearGradient>
<linearGradient id="paint29_linear_343_7371" x1="125.954" y1="46.8748" x2="137.807" y2="58.7279" gradientUnits="userSpaceOnUse">
<stop stop-color="#A57C52"/>
<stop offset="0.1339" stop-color="#A26C4A"/>
<stop offset="0.5155" stop-color="#994336"/>
<stop offset="0.8174" stop-color="#942A2A"/>
<stop offset="1" stop-color="#922125"/>
</linearGradient>
<radialGradient id="paint30_radial_343_7371" cx="0" cy="0" r="1" gradientUnits="userSpaceOnUse" gradientTransform="translate(121.968 55.2631) rotate(-135) scale(34.6442 16.4646)">
<stop stop-color="#FF6359"/>
<stop offset="0.4845" stop-color="#FF6157"/>
<stop offset="0.6591" stop-color="#FE5C50"/>
<stop offset="0.7835" stop-color="#FD5145"/>
<stop offset="0.884" stop-color="#FB4334"/>
<stop offset="0.9692" stop-color="#F9311E"/>
<stop offset="1" stop-color="#F82814"/>
</radialGradient>
<linearGradient id="paint31_linear_343_7371" x1="150.674" y1="61.2853" x2="141.051" y2="58.4915" gradientUnits="userSpaceOnUse">
<stop stop-color="#F82814" stop-opacity="0"/>
<stop offset="1" stop-color="#C0272D"/>
</linearGradient>
<linearGradient id="paint32_linear_343_7371" x1="125.783" y1="41.507" x2="111.504" y2="67.3761" gradientUnits="userSpaceOnUse">
<stop stop-color="#A57C52"/>
<stop offset="0.1339" stop-color="#A26C4A"/>
<stop offset="0.5155" stop-color="#994336"/>
<stop offset="0.8174" stop-color="#942A2A"/>
<stop offset="1" stop-color="#922125"/>
</linearGradient>
<linearGradient id="paint33_linear_343_7371" x1="117.513" y1="43.907" x2="112.339" y2="85.9185" gradientUnits="userSpaceOnUse">
<stop stop-color="#A57C52"/>
<stop offset="0.1339" stop-color="#A26C4A"/>
<stop offset="0.5155" stop-color="#994336"/>
<stop offset="0.8174" stop-color="#942A2A"/>
<stop offset="1" stop-color="#922125"/>
</linearGradient>
<linearGradient id="paint34_linear_343_7371" x1="127.419" y1="63.3872" x2="124.89" y2="60.7488" gradientUnits="userSpaceOnUse">
<stop stop-color="#42210B" stop-opacity="0"/>
<stop offset="1" stop-color="#42210B"/>
</linearGradient>
<linearGradient id="paint35_linear_343_7371" x1="131.377" y1="60.2804" x2="131.814" y2="54.6175" gradientUnits="userSpaceOnUse">
<stop stop-color="#42210B" stop-opacity="0"/>
<stop offset="1" stop-color="#42210B"/>
</linearGradient>
<linearGradient id="paint36_linear_343_7371" x1="127.758" y1="61.0302" x2="128.103" y2="56.56" gradientUnits="userSpaceOnUse">
<stop stop-color="#42210B" stop-opacity="0"/>
<stop offset="1" stop-color="#42210B"/>
</linearGradient>
<linearGradient id="paint37_linear_343_7371" x1="130.618" y1="63.5819" x2="130.826" y2="60.8868" gradientUnits="userSpaceOnUse">
<stop stop-color="#42210B" stop-opacity="0"/>
<stop offset="1" stop-color="#42210B"/>
</linearGradient>
<linearGradient id="paint38_linear_343_7371" x1="132.907" y1="87.0958" x2="113.771" y2="67.9606" gradientUnits="userSpaceOnUse">
<stop stop-color="#42210B" stop-opacity="0"/>
<stop offset="1" stop-color="#42210B"/>
</linearGradient>
<linearGradient id="paint39_linear_343_7371" x1="113.751" y1="62.753" x2="100.484" y2="76.0201" gradientUnits="userSpaceOnUse">
<stop stop-color="#BADA00"/>
<stop offset="0.2269" stop-color="#B0CE00"/>
<stop offset="0.6378" stop-color="#95AE00"/>
<stop offset="1" stop-color="#798C00"/>
</linearGradient>
<linearGradient id="paint40_linear_343_7371" x1="126.406" y1="94.4244" x2="93.5965" y2="61.6153" gradientUnits="userSpaceOnUse">
<stop stop-color="#798C00" stop-opacity="0"/>
<stop offset="0.6542" stop-color="#556100" stop-opacity="0.654"/>
<stop offset="1" stop-color="#464F00"/>
</linearGradient>
<linearGradient id="paint41_linear_343_7371" x1="93.2611" y1="68.3351" x2="99.8597" y2="97.774" gradientUnits="userSpaceOnUse">
<stop stop-color="#A57C52"/>
<stop offset="0.1339" stop-color="#A26C4A"/>
<stop offset="0.5155" stop-color="#994336"/>
<stop offset="0.8174" stop-color="#942A2A"/>
<stop offset="1" stop-color="#922125"/>
</linearGradient>
<linearGradient id="paint42_linear_343_7371" x1="92.3221" y1="64.8498" x2="104.424" y2="88.5794" gradientUnits="userSpaceOnUse">
<stop stop-color="#A57C52"/>
<stop offset="0.1339" stop-color="#A26C4A"/>
<stop offset="0.5155" stop-color="#994336"/>
<stop offset="0.8174" stop-color="#942A2A"/>
<stop offset="1" stop-color="#922125"/>
</linearGradient>
<linearGradient id="paint43_linear_343_7371" x1="88.0823" y1="68.2914" x2="82.7671" y2="62.748" gradientUnits="userSpaceOnUse">
<stop stop-color="#42210B" stop-opacity="0"/>
<stop offset="1" stop-color="#42210B"/>
</linearGradient>
<linearGradient id="paint44_linear_343_7371" x1="85.578" y1="72.6151" x2="81.3818" y2="68.239" gradientUnits="userSpaceOnUse">
<stop stop-color="#42210B" stop-opacity="0"/>
<stop offset="1" stop-color="#42210B"/>
</linearGradient>
<linearGradient id="paint45_linear_343_7371" x1="90.7278" y1="72.031" x2="88.1979" y2="69.3927" gradientUnits="userSpaceOnUse">
<stop stop-color="#42210B" stop-opacity="0"/>
<stop offset="1" stop-color="#42210B"/>
</linearGradient>
<linearGradient id="paint46_linear_343_7371" x1="94.6527" y1="68.9157" x2="95.0897" y2="63.253" gradientUnits="userSpaceOnUse">
<stop stop-color="#42210B" stop-opacity="0"/>
<stop offset="1" stop-color="#42210B"/>
</linearGradient>
<linearGradient id="paint47_linear_343_7371" x1="91.034" y1="69.6657" x2="91.3792" y2="65.1953" gradientUnits="userSpaceOnUse">
<stop stop-color="#42210B" stop-opacity="0"/>
<stop offset="1" stop-color="#42210B"/>
</linearGradient>
<linearGradient id="paint48_linear_343_7371" x1="93.8937" y1="72.2174" x2="94.1016" y2="69.5223" gradientUnits="userSpaceOnUse">
<stop stop-color="#42210B" stop-opacity="0"/>
<stop offset="1" stop-color="#42210B"/>
</linearGradient>
<linearGradient id="paint49_linear_343_7371" x1="88.6678" y1="81.6851" x2="63.6521" y2="80.9505" gradientUnits="userSpaceOnUse">
<stop stop-color="#42210B" stop-opacity="0"/>
<stop offset="1" stop-color="#42210B"/>
</linearGradient>
<linearGradient id="paint50_linear_343_7371" x1="92.3204" y1="82.4843" x2="70.7113" y2="81.8499" gradientUnits="userSpaceOnUse">
<stop stop-color="#42210B" stop-opacity="0"/>
<stop offset="1" stop-color="#42210B"/>
</linearGradient>
<linearGradient id="paint51_linear_343_7371" x1="105.789" y1="105.16" x2="88.9475" y2="88.3185" gradientUnits="userSpaceOnUse">
<stop stop-color="#42210B" stop-opacity="0"/>
<stop offset="1" stop-color="#42210B"/>
</linearGradient>
<linearGradient id="paint52_linear_343_7371" x1="82.4478" y1="88.5251" x2="76.0841" y2="104.503" gradientUnits="userSpaceOnUse">
<stop stop-color="#FFDECF"/>
<stop offset="0.3791" stop-color="#FDC4B0"/>
<stop offset="0.7655" stop-color="#FBAE97"/>
<stop offset="1" stop-color="#FAA68E"/>
</linearGradient>
<linearGradient id="paint53_linear_343_7371" x1="79.6004" y1="90.7966" x2="78.3576" y2="122.969" gradientUnits="userSpaceOnUse">
<stop stop-color="#FFDECF"/>
<stop offset="0.3791" stop-color="#FDC4B0"/>
<stop offset="0.7655" stop-color="#FBAE97"/>
<stop offset="1" stop-color="#FAA68E"/>
</linearGradient>
<linearGradient id="paint54_linear_343_7371" x1="88.5735" y1="110.838" x2="77.1196" y2="99.3843" gradientUnits="userSpaceOnUse">
<stop stop-color="#F82814" stop-opacity="0"/>
<stop offset="0.2454" stop-color="#F12817" stop-opacity="0.245"/>
<stop offset="0.6052" stop-color="#DD2820" stop-opacity="0.605"/>
<stop offset="1" stop-color="#C0272D"/>
</linearGradient>
<linearGradient id="paint55_linear_343_7371" x1="80.2127" y1="96.4282" x2="66.9456" y2="109.695" gradientUnits="userSpaceOnUse">
<stop stop-color="#FFD945"/>
<stop offset="0.3043" stop-color="#FFCD3E"/>
<stop offset="0.8558" stop-color="#FFAD2B"/>
<stop offset="1" stop-color="#FFA325"/>
</linearGradient>
<linearGradient id="paint56_linear_343_7371" x1="86.6233" y1="123.549" x2="55.3494" y2="92.2755" gradientUnits="userSpaceOnUse">
<stop stop-color="#F82814" stop-opacity="0"/>
<stop offset="1" stop-color="#C0272D"/>
</linearGradient>
<linearGradient id="paint57_linear_343_7371" x1="55.441" y1="117.387" x2="67.2941" y2="129.24" gradientUnits="userSpaceOnUse">
<stop stop-color="#A57C52"/>
<stop offset="0.1339" stop-color="#A26C4A"/>
<stop offset="0.5155" stop-color="#994336"/>
<stop offset="0.8174" stop-color="#942A2A"/>
<stop offset="1" stop-color="#922125"/>
</linearGradient>
</defs>
</svg>
