<svg width="151" height="76" viewBox="0 0 151 76" fill="none" xmlns="http://www.w3.org/2000/svg">
<path d="M150.797 37.8371C150.797 58.683 0.796875 58.683 0.796875 37.8371C0.796875 16.9912 34.3754 0.0924072 75.7969 0.0924072C117.218 0.0924072 150.797 16.9912 150.797 37.8371Z" fill="url(#paint0_linear_343_7451)"/>
<path d="M0.796875 37.837C0.796875 58.6829 150.797 58.6829 150.797 37.837C150.797 33.9903 149.65 30.2785 147.525 26.7817H4.06893C1.94364 30.2785 0.796875 33.9903 0.796875 37.837Z" fill="url(#paint1_linear_343_7451)"/>
<path d="M68.5561 0.26416C68.3473 0.41416 68.1356 0.56416 67.9238 0.71416C61.1973 5.52887 55.5856 10.67 51.765 15.2524C50.8003 16.4083 49.4414 16.973 48.0708 16.973C46.5238 16.973 44.962 16.2495 43.9444 14.8318C42.6679 13.0465 42.6532 10.6612 43.9208 8.93475C44.6064 8.00093 45.3791 7.03504 46.232 6.04563C48.2364 3.72063 51 2.16592 54.035 1.70357C58.6988 0.992983 63.5553 0.504454 68.5561 0.26416Z" fill="url(#paint2_linear_343_7451)"/>
<path d="M89.8299 0.752341C83.1299 5.55528 77.5358 10.6818 73.7241 15.2523C72.7623 16.4082 71.4035 16.9729 70.0329 16.9729C68.4829 16.9729 66.9211 16.2494 65.9064 14.8318C64.627 13.0465 64.6152 10.6612 65.8829 8.93469C67.6261 6.5594 69.9323 3.97881 72.6908 1.33058C73.5202 0.534107 74.6296 0.0905762 75.7794 0.0905762H75.7973C80.5946 0.0905762 85.2858 0.317047 89.8299 0.752341Z" fill="url(#paint3_linear_343_7451)"/>
<path d="M107.858 3.70525C102.897 7.61114 98.7231 11.6082 95.6849 15.2523C94.7202 16.4082 93.3614 16.9729 91.9908 16.9729C90.4437 16.9729 88.8819 16.2494 87.8643 14.8317C86.5878 13.0464 86.5731 10.6611 87.8408 8.93467C88.9178 7.46672 90.2099 5.92055 91.6911 4.3282C93.4958 2.3879 96.1564 1.47026 98.7722 1.89408C101.895 2.39996 104.928 3.00672 107.858 3.70525Z" fill="url(#paint4_linear_343_7451)"/>
<g opacity="0.6">
<g opacity="0.6">
<path opacity="0.6" d="M24.0598 31.4603C25.6315 31.4603 26.9056 30.1862 26.9056 28.6144C26.9056 27.0427 25.6315 25.7686 24.0598 25.7686C22.488 25.7686 21.2139 27.0427 21.2139 28.6144C21.2139 30.1862 22.488 31.4603 24.0598 31.4603Z" fill="url(#paint5_linear_343_7451)"/>
<path opacity="0.6" d="M16.2643 35.4777C17.5052 35.4777 18.5111 34.4718 18.5111 33.2309C18.5111 31.99 17.5052 30.9841 16.2643 30.9841C15.0235 30.9841 14.0176 31.99 14.0176 33.2309C14.0176 34.4718 15.0235 35.4777 16.2643 35.4777Z" fill="url(#paint6_linear_343_7451)"/>
<path opacity="0.6" d="M24.4755 40.2466C25.2235 40.2466 25.8299 39.6402 25.8299 38.8921C25.8299 38.1441 25.2235 37.5377 24.4755 37.5377C23.7275 37.5377 23.1211 38.1441 23.1211 38.8921C23.1211 39.6402 23.7275 40.2466 24.4755 40.2466Z" fill="url(#paint7_linear_343_7451)"/>
</g>
<g opacity="0.6">
<path opacity="0.6" d="M36.9789 38.7274C38.1403 38.7274 39.0819 37.7859 39.0819 36.6244C39.0819 35.463 38.1403 34.5215 36.9789 34.5215C35.8175 34.5215 34.876 35.463 34.876 36.6244C34.876 37.7859 35.8175 38.7274 36.9789 38.7274Z" fill="url(#paint8_linear_343_7451)"/>
<path opacity="0.6" d="M30.5958 36.2655C31.5128 36.2655 32.2561 35.5222 32.2561 34.6052C32.2561 33.6883 31.5128 32.9449 30.5958 32.9449C29.6789 32.9449 28.9355 33.6883 28.9355 34.6052C28.9355 35.5222 29.6789 36.2655 30.5958 36.2655Z" fill="url(#paint9_linear_343_7451)"/>
<path opacity="0.6" d="M31.5233 42.9169C32.0761 42.9169 32.5242 42.4688 32.5242 41.916C32.5242 41.3633 32.0761 40.9152 31.5233 40.9152C30.9706 40.9152 30.5225 41.3633 30.5225 41.916C30.5225 42.4688 30.9706 42.9169 31.5233 42.9169Z" fill="url(#paint10_linear_343_7451)"/>
</g>
<g opacity="0.6">
<path opacity="0.6" d="M123.561 29.4106C124.722 29.4106 125.664 28.4691 125.664 27.3076C125.664 26.1462 124.722 25.2047 123.561 25.2047C122.4 25.2047 121.458 26.1462 121.458 27.3076C121.458 28.4691 122.4 29.4106 123.561 29.4106Z" fill="url(#paint11_linear_343_7451)"/>
<path opacity="0.6" d="M117.178 26.9491C118.095 26.9491 118.838 26.2058 118.838 25.2888C118.838 24.3719 118.095 23.6285 117.178 23.6285C116.261 23.6285 115.518 24.3719 115.518 25.2888C115.518 26.2058 116.261 26.9491 117.178 26.9491Z" fill="url(#paint12_linear_343_7451)"/>
<path opacity="0.6" d="M118.105 33.6006C118.658 33.6006 119.106 33.1525 119.106 32.5998C119.106 32.047 118.658 31.5989 118.105 31.5989C117.553 31.5989 117.104 32.047 117.104 32.5998C117.104 33.1525 117.553 33.6006 118.105 33.6006Z" fill="url(#paint13_linear_343_7451)"/>
</g>
</g>
<path d="M84.7379 53.372L68.9132 37.5473C65.5238 34.0114 61.2753 31.6341 56.372 31.3809C54.472 31.4897 52.6073 31.6926 50.7897 31.9897C38.0803 34.0417 27.4991 40.4732 21.9023 49.1088C38.3368 52.4553 62.0879 53.8764 84.7379 53.372Z" fill="url(#paint14_linear_343_7451)"/>
<path d="M48.4094 75.1981C46.3682 75.4776 44.53 75.5481 42.88 75.4334C42.0182 75.3305 41.1682 75.2158 40.3329 75.0893C27.4153 73.1893 17.6006 69.2217 17.6006 63.1952C17.6006 47.8599 31.8271 35.0511 50.7888 31.9893C52.6065 31.6923 54.4712 31.4893 56.3712 31.3805C67.7653 31.9687 75.6271 44.0217 77.3771 55.4481C78.7183 64.2187 77.7653 71.1864 48.4094 75.1981Z" fill="url(#paint15_linear_343_7451)"/>
<path d="M77.3771 55.4482C76.9803 52.8579 76.2685 50.2355 75.2735 47.7217C74.0321 53.4193 67.815 57.9749 46.2035 60.9282C44.1624 61.2076 42.3241 61.2782 40.6741 61.1634C39.8124 61.0605 38.9624 60.9458 38.1271 60.8193C29.9847 59.6217 23.0785 57.6017 19.0826 54.7634C18.1174 57.4493 17.6006 60.2764 17.6006 63.1949C17.6006 69.2214 27.4153 73.189 40.3329 75.089C41.1682 75.2155 42.0182 75.3302 42.88 75.4332C44.53 75.5479 46.3682 75.4773 48.4094 75.1979C77.7653 71.1864 78.7183 64.2187 77.3771 55.4482Z" fill="url(#paint16_linear_343_7451)"/>
<path d="M77.3762 55.449C75.2036 41.2581 63.6071 26.1049 47.5215 33.134C31.4359 40.1631 19.0512 79.2087 48.4086 75.1976C77.7659 71.1864 78.7192 64.2193 77.3762 55.449Z" fill="url(#paint17_linear_343_7451)"/>
<path d="M77.3757 55.4491C76.0801 46.987 71.4331 38.1838 64.4819 33.9449C64.2963 34.387 63.9942 34.7629 63.6069 35.0402C63.5948 35.0488 63.5804 35.0576 63.5639 35.0667C61.9995 35.9126 61.2554 37.7008 61.8369 39.5982C62.3892 41.4005 62.7281 43.3929 62.0501 44.4747L62.0398 44.4911C61.1389 45.9279 60.9669 47.7864 61.5675 49.5961L61.6045 49.7079C62.5237 52.4779 61.6069 55.2402 59.3422 56.5244L59.2928 56.5523C57.7854 57.407 56.8369 58.9453 56.6951 60.765L56.6869 60.8708C56.4757 63.5808 54.4957 65.5611 51.7854 65.772L51.6795 65.7803C49.8598 65.922 48.3216 66.8705 47.4672 68.3779L47.4395 68.4264C46.1554 70.6917 43.3928 71.6088 40.6222 70.6897L40.5107 70.6526C38.7013 70.0523 36.8434 70.2241 35.4066 71.1244L35.3878 71.1361C34.961 71.4035 34.5007 71.6038 34.0195 71.7406C36.7892 74.6603 41.4107 76.1541 48.4081 75.1979C77.7657 71.187 78.7187 64.2194 77.3757 55.4491Z" fill="url(#paint18_linear_343_7451)"/>
<g opacity="0.6">
<g opacity="0.6">
<path opacity="0.6" d="M63.6079 43.8961C64.2958 43.8961 64.8535 43.3384 64.8535 42.6505C64.8535 41.9626 64.2958 41.4049 63.6079 41.4049C62.92 41.4049 62.3623 41.9626 62.3623 42.6505C62.3623 43.3384 62.92 43.8961 63.6079 43.8961Z" fill="url(#paint19_linear_343_7451)"/>
<path opacity="0.6" d="M67.0194 41.6134C67.5624 41.6134 68.0026 41.1732 68.0026 40.6302C68.0026 40.0872 67.5624 39.647 67.0194 39.647C66.4763 39.647 66.0361 40.0872 66.0361 40.6302C66.0361 41.1732 66.4763 41.6134 67.0194 41.6134Z" fill="url(#paint20_linear_343_7451)"/>
<path opacity="0.6" d="M63.4257 38.7455C63.753 38.7455 64.0183 38.4801 64.0183 38.1528C64.0183 37.8255 63.753 37.5602 63.4257 37.5602C63.0983 37.5602 62.833 37.8255 62.833 38.1528C62.833 38.4801 63.0983 38.7455 63.4257 38.7455Z" fill="url(#paint21_linear_343_7451)"/>
</g>
<g opacity="0.6">
<path opacity="0.6" d="M57.9545 40.0654C58.4627 40.0654 58.8748 39.6534 58.8748 39.1451C58.8748 38.6369 58.4627 38.2249 57.9545 38.2249C57.4462 38.2249 57.0342 38.6369 57.0342 39.1451C57.0342 39.6534 57.4462 40.0654 57.9545 40.0654Z" fill="url(#paint22_linear_343_7451)"/>
<path opacity="0.6" d="M60.747 40.7552C61.1482 40.7552 61.4734 40.4299 61.4734 40.0287C61.4734 39.6275 61.1482 39.3022 60.747 39.3022C60.3458 39.3022 60.0205 39.6275 60.0205 40.0287C60.0205 40.4299 60.3458 40.7552 60.747 40.7552Z" fill="url(#paint23_linear_343_7451)"/>
<path opacity="0.6" d="M60.3422 37.2672C60.5841 37.2672 60.7802 37.0712 60.7802 36.8293C60.7802 36.5874 60.5841 36.3914 60.3422 36.3914C60.1004 36.3914 59.9043 36.5874 59.9043 36.8293C59.9043 37.0712 60.1004 37.2672 60.3422 37.2672Z" fill="url(#paint24_linear_343_7451)"/>
</g>
<g opacity="0.6">
<path opacity="0.6" d="M37.6615 68.7661C38.1698 68.7661 38.5818 68.3541 38.5818 67.8458C38.5818 67.3376 38.1698 66.9255 37.6615 66.9255C37.1532 66.9255 36.7412 67.3376 36.7412 67.8458C36.7412 68.3541 37.1532 68.7661 37.6615 68.7661Z" fill="url(#paint25_linear_343_7451)"/>
<path opacity="0.6" d="M40.455 69.4557C40.8562 69.4557 41.1815 69.1305 41.1815 68.7293C41.1815 68.3281 40.8562 68.0028 40.455 68.0028C40.0538 68.0028 39.7285 68.3281 39.7285 68.7293C39.7285 69.1305 40.0538 69.4557 40.455 69.4557Z" fill="url(#paint26_linear_343_7451)"/>
<path opacity="0.6" d="M40.0493 65.9678C40.2911 65.9678 40.4872 65.7717 40.4872 65.5299C40.4872 65.288 40.2911 65.0919 40.0493 65.0919C39.8074 65.0919 39.6113 65.288 39.6113 65.5299C39.6113 65.7717 39.8074 65.9678 40.0493 65.9678Z" fill="url(#paint27_linear_343_7451)"/>
</g>
</g>
<path d="M94.5535 56.1212C94.2973 56.1124 94.0411 56.1382 93.7923 56.2006C91.8388 56.6903 82.5682 59.2838 82.2732 64.4794C82.0893 67.7153 87.4352 68.7159 92.2067 68.9674C96.5641 69.1971 100.324 66.8744 100.579 63.8026C100.868 60.3235 100.005 56.3082 94.5535 56.1212Z" fill="url(#paint28_linear_343_7451)"/>
<path d="M94.5535 56.1212C94.2973 56.1124 94.0411 56.1382 93.7923 56.2006C91.8388 56.6903 82.5682 59.2838 82.2732 64.4794C82.0893 67.7153 87.4352 68.7159 92.2067 68.9674C96.5638 69.1974 100.005 56.3082 94.5535 56.1212Z" fill="url(#paint29_linear_343_7451)"/>
<path d="M102.907 74.1467C102.907 76.5394 94.2432 76.5394 94.2432 74.1467C94.2432 71.7541 96.1829 69.8147 98.5752 69.8147C100.968 69.8144 102.907 71.7541 102.907 74.1467Z" fill="url(#paint30_linear_343_7451)"/>
<defs>
<linearGradient id="paint0_linear_343_7451" x1="67.9689" y1="7.30476" x2="81.9878" y2="60.2148" gradientUnits="userSpaceOnUse">
<stop stop-color="#FAA68E"/>
<stop offset="0.2061" stop-color="#FBA682"/>
<stop offset="0.5808" stop-color="#FDA861"/>
<stop offset="1" stop-color="#FFA936"/>
</linearGradient>
<linearGradient id="paint1_linear_343_7451" x1="75.7969" y1="36.87" x2="75.7969" y2="61.2511" gradientUnits="userSpaceOnUse">
<stop stop-color="#F82814" stop-opacity="0"/>
<stop offset="0.2743" stop-color="#F42816" stop-opacity="0.274"/>
<stop offset="0.536" stop-color="#E9281B" stop-opacity="0.536"/>
<stop offset="0.7918" stop-color="#D62723" stop-opacity="0.792"/>
<stop offset="1" stop-color="#C0272D"/>
</linearGradient>
<linearGradient id="paint2_linear_343_7451" x1="59.8761" y1="11.0633" x2="43.6779" y2="-4.35407" gradientUnits="userSpaceOnUse">
<stop stop-color="#F82814" stop-opacity="0"/>
<stop offset="0.4703" stop-color="#E0281F" stop-opacity="0.47"/>
<stop offset="1" stop-color="#C0272D"/>
</linearGradient>
<linearGradient id="paint3_linear_343_7451" x1="81.9538" y1="11.3882" x2="64.3067" y2="-3.70972" gradientUnits="userSpaceOnUse">
<stop stop-color="#F82814" stop-opacity="0"/>
<stop offset="0.4703" stop-color="#E0281F" stop-opacity="0.47"/>
<stop offset="1" stop-color="#C0272D"/>
</linearGradient>
<linearGradient id="paint4_linear_343_7451" x1="102.143" y1="12.0508" x2="83.5161" y2="1.07025" gradientUnits="userSpaceOnUse">
<stop stop-color="#F82814" stop-opacity="0"/>
<stop offset="0.4703" stop-color="#E0281F" stop-opacity="0.47"/>
<stop offset="1" stop-color="#C0272D"/>
</linearGradient>
<linearGradient id="paint5_linear_343_7451" x1="24.239" y1="32.9368" x2="22.1479" y2="19.6298" gradientUnits="userSpaceOnUse">
<stop stop-color="#F82814" stop-opacity="0"/>
<stop offset="0.2454" stop-color="#F12817" stop-opacity="0.245"/>
<stop offset="0.6052" stop-color="#DD2820" stop-opacity="0.605"/>
<stop offset="1" stop-color="#C0272D"/>
</linearGradient>
<linearGradient id="paint6_linear_343_7451" x1="16.3001" y1="36.6485" x2="14.6493" y2="26.143" gradientUnits="userSpaceOnUse">
<stop stop-color="#F82814" stop-opacity="0"/>
<stop offset="0.2454" stop-color="#F12817" stop-opacity="0.245"/>
<stop offset="0.6052" stop-color="#DD2820" stop-opacity="0.605"/>
<stop offset="1" stop-color="#C0272D"/>
</linearGradient>
<linearGradient id="paint7_linear_343_7451" x1="24.2978" y1="40.9714" x2="23.3025" y2="34.638" gradientUnits="userSpaceOnUse">
<stop stop-color="#F82814" stop-opacity="0"/>
<stop offset="0.2454" stop-color="#F12817" stop-opacity="0.245"/>
<stop offset="0.6052" stop-color="#DD2820" stop-opacity="0.605"/>
<stop offset="1" stop-color="#C0272D"/>
</linearGradient>
<linearGradient id="paint8_linear_343_7451" x1="34.7464" y1="38.8992" x2="41.0422" y2="31.1912" gradientUnits="userSpaceOnUse">
<stop stop-color="#F82814" stop-opacity="0"/>
<stop offset="0.2454" stop-color="#F12817" stop-opacity="0.245"/>
<stop offset="0.6052" stop-color="#DD2820" stop-opacity="0.605"/>
<stop offset="1" stop-color="#C0272D"/>
</linearGradient>
<linearGradient id="paint9_linear_343_7451" x1="28.7907" y1="36.3567" x2="33.7612" y2="30.2717" gradientUnits="userSpaceOnUse">
<stop stop-color="#F82814" stop-opacity="0"/>
<stop offset="0.2454" stop-color="#F12817" stop-opacity="0.245"/>
<stop offset="0.6052" stop-color="#DD2820" stop-opacity="0.605"/>
<stop offset="1" stop-color="#C0272D"/>
</linearGradient>
<linearGradient id="paint10_linear_343_7451" x1="30.3512" y1="42.8893" x2="33.3479" y2="39.2208" gradientUnits="userSpaceOnUse">
<stop stop-color="#F82814" stop-opacity="0"/>
<stop offset="0.2454" stop-color="#F12817" stop-opacity="0.245"/>
<stop offset="0.6052" stop-color="#DD2820" stop-opacity="0.605"/>
<stop offset="1" stop-color="#C0272D"/>
</linearGradient>
<linearGradient id="paint11_linear_343_7451" x1="121.319" y1="29.607" x2="127.615" y2="21.8992" gradientUnits="userSpaceOnUse">
<stop stop-color="#F82814" stop-opacity="0"/>
<stop offset="0.2454" stop-color="#F12817" stop-opacity="0.245"/>
<stop offset="0.6052" stop-color="#DD2820" stop-opacity="0.605"/>
<stop offset="1" stop-color="#C0272D"/>
</linearGradient>
<linearGradient id="paint12_linear_343_7451" x1="115.363" y1="27.0646" x2="120.334" y2="20.9798" gradientUnits="userSpaceOnUse">
<stop stop-color="#F82814" stop-opacity="0"/>
<stop offset="0.2454" stop-color="#F12817" stop-opacity="0.245"/>
<stop offset="0.6052" stop-color="#DD2820" stop-opacity="0.605"/>
<stop offset="1" stop-color="#C0272D"/>
</linearGradient>
<linearGradient id="paint13_linear_343_7451" x1="116.924" y1="33.5976" x2="119.92" y2="29.9291" gradientUnits="userSpaceOnUse">
<stop stop-color="#F82814" stop-opacity="0"/>
<stop offset="0.2454" stop-color="#F12817" stop-opacity="0.245"/>
<stop offset="0.6052" stop-color="#DD2820" stop-opacity="0.605"/>
<stop offset="1" stop-color="#C0272D"/>
</linearGradient>
<linearGradient id="paint14_linear_343_7451" x1="78.0891" y1="76.0055" x2="35.3459" y2="33.262" gradientUnits="userSpaceOnUse">
<stop stop-color="#F82814" stop-opacity="0"/>
<stop offset="0.3805" stop-color="#E6281C" stop-opacity="0.381"/>
<stop offset="1" stop-color="#C0272D"/>
</linearGradient>
<linearGradient id="paint15_linear_343_7451" x1="48.9118" y1="55.4196" x2="44.6471" y2="73.2137" gradientUnits="userSpaceOnUse">
<stop stop-color="#FAA68E"/>
<stop offset="0.2061" stop-color="#FBA682"/>
<stop offset="0.5808" stop-color="#FDA861"/>
<stop offset="1" stop-color="#FFA936"/>
</linearGradient>
<linearGradient id="paint16_linear_343_7451" x1="44.0668" y1="70.8029" x2="40.0962" y2="82.4205" gradientUnits="userSpaceOnUse">
<stop stop-color="#F82814" stop-opacity="0"/>
<stop offset="0.3805" stop-color="#E6281C" stop-opacity="0.381"/>
<stop offset="1" stop-color="#C0272D"/>
</linearGradient>
<linearGradient id="paint17_linear_343_7451" x1="50.6553" y1="44.9671" x2="68.4957" y2="87.5043" gradientUnits="userSpaceOnUse">
<stop stop-color="#FFDECF"/>
<stop offset="0.3791" stop-color="#FDC4B0"/>
<stop offset="0.7655" stop-color="#FBAE97"/>
<stop offset="1" stop-color="#FAA68E"/>
</linearGradient>
<linearGradient id="paint18_linear_343_7451" x1="50.6784" y1="53.9447" x2="100.972" y2="93.6505" gradientUnits="userSpaceOnUse">
<stop stop-color="#F82814" stop-opacity="0"/>
<stop offset="0.2454" stop-color="#F12817" stop-opacity="0.245"/>
<stop offset="0.6052" stop-color="#DD2820" stop-opacity="0.605"/>
<stop offset="1" stop-color="#C0272D"/>
</linearGradient>
<linearGradient id="paint19_linear_343_7451" x1="63.8401" y1="40.8484" x2="64.7551" y2="46.6719" gradientUnits="userSpaceOnUse">
<stop stop-color="#F82814" stop-opacity="0"/>
<stop offset="0.2454" stop-color="#F12817" stop-opacity="0.245"/>
<stop offset="0.6052" stop-color="#DD2820" stop-opacity="0.605"/>
<stop offset="1" stop-color="#C0272D"/>
</linearGradient>
<linearGradient id="paint20_linear_343_7451" x1="67.3145" y1="39.224" x2="68.0371" y2="43.8214" gradientUnits="userSpaceOnUse">
<stop stop-color="#F82814" stop-opacity="0"/>
<stop offset="0.2454" stop-color="#F12817" stop-opacity="0.245"/>
<stop offset="0.6052" stop-color="#DD2820" stop-opacity="0.605"/>
<stop offset="1" stop-color="#C0272D"/>
</linearGradient>
<linearGradient id="paint21_linear_343_7451" x1="63.8145" y1="37.3323" x2="64.2498" y2="40.104" gradientUnits="userSpaceOnUse">
<stop stop-color="#F82814" stop-opacity="0"/>
<stop offset="0.2454" stop-color="#F12817" stop-opacity="0.245"/>
<stop offset="0.6052" stop-color="#DD2820" stop-opacity="0.605"/>
<stop offset="1" stop-color="#C0272D"/>
</linearGradient>
<linearGradient id="paint22_linear_343_7451" x1="59.0336" y1="38.3438" x2="56.2786" y2="41.7171" gradientUnits="userSpaceOnUse">
<stop stop-color="#F82814" stop-opacity="0"/>
<stop offset="0.2454" stop-color="#F12817" stop-opacity="0.245"/>
<stop offset="0.6052" stop-color="#DD2820" stop-opacity="0.605"/>
<stop offset="1" stop-color="#C0272D"/>
</linearGradient>
<linearGradient id="paint23_linear_343_7451" x1="61.6391" y1="39.4564" x2="59.4641" y2="42.1193" gradientUnits="userSpaceOnUse">
<stop stop-color="#F82814" stop-opacity="0"/>
<stop offset="0.2454" stop-color="#F12817" stop-opacity="0.245"/>
<stop offset="0.6052" stop-color="#DD2820" stop-opacity="0.605"/>
<stop offset="1" stop-color="#C0272D"/>
</linearGradient>
<linearGradient id="paint24_linear_343_7451" x1="60.9577" y1="36.5976" x2="59.6463" y2="38.2032" gradientUnits="userSpaceOnUse">
<stop stop-color="#F82814" stop-opacity="0"/>
<stop offset="0.2454" stop-color="#F12817" stop-opacity="0.245"/>
<stop offset="0.6052" stop-color="#DD2820" stop-opacity="0.605"/>
<stop offset="1" stop-color="#C0272D"/>
</linearGradient>
<linearGradient id="paint25_linear_343_7451" x1="38.7363" y1="67.0349" x2="35.9809" y2="70.408" gradientUnits="userSpaceOnUse">
<stop stop-color="#F82814" stop-opacity="0"/>
<stop offset="0.2454" stop-color="#F12817" stop-opacity="0.245"/>
<stop offset="0.6052" stop-color="#DD2820" stop-opacity="0.605"/>
<stop offset="1" stop-color="#C0272D"/>
</linearGradient>
<linearGradient id="paint26_linear_343_7451" x1="41.3421" y1="68.1475" x2="39.1672" y2="70.8104" gradientUnits="userSpaceOnUse">
<stop stop-color="#F82814" stop-opacity="0"/>
<stop offset="0.2454" stop-color="#F12817" stop-opacity="0.245"/>
<stop offset="0.6052" stop-color="#DD2820" stop-opacity="0.605"/>
<stop offset="1" stop-color="#C0272D"/>
</linearGradient>
<linearGradient id="paint27_linear_343_7451" x1="40.6597" y1="65.2887" x2="39.3483" y2="66.8939" gradientUnits="userSpaceOnUse">
<stop stop-color="#F82814" stop-opacity="0"/>
<stop offset="0.2454" stop-color="#F12817" stop-opacity="0.245"/>
<stop offset="0.6052" stop-color="#DD2820" stop-opacity="0.605"/>
<stop offset="1" stop-color="#C0272D"/>
</linearGradient>
<linearGradient id="paint28_linear_343_7451" x1="90.682" y1="60.7059" x2="93.2379" y2="68.6059" gradientUnits="userSpaceOnUse">
<stop stop-color="#FFDECF"/>
<stop offset="0.3791" stop-color="#FDC4B0"/>
<stop offset="0.7655" stop-color="#FBAE97"/>
<stop offset="1" stop-color="#FAA68E"/>
</linearGradient>
<linearGradient id="paint29_linear_343_7451" x1="88.4452" y1="57.8765" x2="93.1511" y2="72.1903" gradientUnits="userSpaceOnUse">
<stop stop-color="#FFDECF"/>
<stop offset="0.3791" stop-color="#FDC4B0"/>
<stop offset="0.7655" stop-color="#FBAE97"/>
<stop offset="1" stop-color="#FAA68E"/>
</linearGradient>
<linearGradient id="paint30_linear_343_7451" x1="96.6105" y1="69.9603" x2="100.287" y2="77.0191" gradientUnits="userSpaceOnUse">
<stop stop-color="#FFDECF"/>
<stop offset="0.3791" stop-color="#FDC4B0"/>
<stop offset="0.7655" stop-color="#FBAE97"/>
<stop offset="1" stop-color="#FAA68E"/>
</linearGradient>
</defs>
</svg>
