<svg width="151" height="110" viewBox="0 0 151 110" fill="none" xmlns="http://www.w3.org/2000/svg">
<path d="M75.506 96.435C56.9095 96.435 39.843 93.9517 26.4751 89.812C28.3983 96.672 32.0116 101.86 36.4669 103.52C46.5222 107.267 60.3024 109.579 75.506 109.579C90.7095 109.579 104.49 107.268 114.545 103.52C119 101.86 122.614 96.672 124.537 89.812C111.169 93.9517 94.1024 96.435 75.506 96.435Z" fill="url(#paint0_linear_343_7010)"/>
<path d="M150.506 76.9814C150.506 111.805 0.506348 111.805 0.506348 76.9814C0.506348 42.1579 150.506 42.1579 150.506 76.9814Z" fill="url(#paint1_linear_343_7010)"/>
<path d="M140.212 74.4276C140.212 99.255 10.8003 99.255 10.8003 74.4276C10.8003 49.6003 140.212 49.6003 140.212 74.4276Z" fill="url(#paint2_linear_343_7010)"/>
<path d="M149.962 80.5077L133.5 64.0454C129.239 59.4348 120.555 57.6827 110.534 57.6827C103.606 57.6827 83.0587 57.0945 76.0752 57.0945C65.6946 57.0945 58.4561 60.2533 58.4561 65.6012C58.4561 67.1768 58.8925 68.6645 60.1887 69.9792C62.8228 72.6513 63.3755 76.3618 62.724 79.9557C62.5887 80.7021 62.5187 81.4663 62.5187 82.2436C62.5187 86.1457 64.2881 89.7068 67.2002 92.423L77.8631 103.086C111.938 102.755 145.358 95.2286 149.962 80.5077Z" fill="url(#paint3_linear_343_7010)"/>
<path d="M136.298 70.2527C136.298 63.0083 124.763 55.918 110.534 55.918C103.606 55.918 83.3528 55.918 76.3693 55.918C65.9887 55.918 57.5737 60.2533 57.5737 65.6012C57.5737 67.1768 58.3043 68.6644 59.6005 69.9791C62.2346 72.6512 63.3755 76.3618 62.724 79.9556C62.5887 80.7021 62.5184 81.4662 62.5184 82.2436C62.5184 90.7618 70.9334 97.6671 81.314 97.6671C84.9337 97.6671 88.314 96.8271 91.182 95.3721C94.1146 93.8841 97.5079 93.4656 100.775 94.0762C102.323 94.3653 103.934 94.5183 105.588 94.5183C115.044 94.5183 123.078 89.5321 125.995 82.5918C126.563 81.2421 127.607 80.1239 128.956 79.4212C133.498 77.0568 136.298 73.8212 136.298 70.2527Z" fill="url(#paint4_radial_343_7010)"/>
<path d="M131.697 77.7338L113.962 59.9985C112.43 58.3924 94.3375 58.9477 86.6219 58.9477C80.5796 62.0703 75.3628 64.5468 75.3628 70.8191C75.3628 71.9229 75.9196 72.9015 76.904 73.755L96.9816 93.8326C98.2425 93.7606 99.5181 93.8418 100.775 94.0765C102.323 94.3656 103.933 94.5185 105.588 94.5185C115.043 94.5185 123.078 89.5324 125.995 82.5921C126.562 81.2424 127.606 80.1241 128.955 79.4215C129.958 78.8994 130.875 78.335 131.697 77.7338Z" fill="url(#paint5_linear_343_7010)"/>
<path d="M118.508 70.8191C118.508 80.5511 75.3628 80.5511 75.3628 70.8191C75.3628 61.087 85.021 53.1979 96.9354 53.1979C108.85 53.1979 118.508 61.0873 118.508 70.8191Z" fill="url(#paint6_linear_343_7010)"/>
<path d="M90.7582 26.0987C90.4047 25.1608 91.3762 24.2835 92.2117 24.782C95.1635 26.5435 99.4967 30.1682 99.4967 36.2679C99.4967 45.5182 88.8785 46.3902 88.8785 53.2423C88.8785 56.7588 89.3223 59.187 89.7544 60.7182C90.0044 61.6038 89.1409 62.3841 88.3456 61.9891C85.7 60.6758 81.6309 57.4711 81.6309 50.1826C81.6309 39.3835 92.1609 39.544 92.1609 33.6396C92.1606 30.5561 91.4435 27.917 90.7582 26.0987Z" fill="url(#paint7_linear_343_7010)"/>
<path d="M74.1255 0.979414C73.8949 0.566473 74.512 0.190002 74.9255 0.490002C77.7302 2.5253 82.4735 6.82824 82.4735 12.6497C82.4735 20.9147 73.4964 23.2544 72.3002 29.6994C71.3326 34.9129 73.5502 39.9877 74.567 41.9588C74.7435 42.3009 74.3373 42.6477 73.9167 42.5156C70.8235 41.5435 62.502 37.9412 63.7446 27.5629C64.9485 17.5091 73.9535 17.9682 75.5514 11.4632C76.6993 6.79265 75.2849 3.05559 74.1255 0.979414Z" fill="url(#paint8_linear_343_7010)"/>
<path d="M45.2191 28.2961C44.9038 27.5223 45.5644 26.7982 46.2074 27.2096C48.4785 28.6632 51.8744 31.654 52.2376 36.6876C52.7885 44.3205 45.0479 45.0402 45.4562 50.6943C45.6656 53.5958 46.1359 55.5996 46.5441 56.8632C46.7803 57.5937 46.1932 58.2379 45.5859 57.912C43.5662 56.8284 40.3891 54.184 39.955 48.1696C39.3118 39.2584 47.0491 39.3911 46.6974 34.5187C46.5138 31.9743 45.8303 29.7964 45.2191 28.2961Z" fill="url(#paint9_linear_343_7010)"/>
<path d="M97.7242 86.3332C96.8572 85.7838 96.0384 85.1421 95.2831 84.4112L94.9689 84.1074C91.2248 80.4844 85.8904 79.0229 80.8225 80.2315L80.4007 80.3321C74.8822 81.6479 69.0895 79.7929 65.3616 75.5165L65.031 75.1374C61.6528 71.2618 56.5669 69.3224 51.466 69.9653L51.4619 69.9659C45.4901 70.7185 39.6269 67.9241 36.4504 62.8115L36.3342 62.6247C34.8807 60.285 32.9495 58.2718 30.6445 56.7641C30.5986 56.7341 30.5528 56.7041 30.5075 56.6738C29.0289 55.6862 27.3016 55.1256 25.5236 55.1518C19.7675 55.2362 15.2725 55.9935 12.5698 57.5697C13.4339 60.5835 16.7713 63.885 21.9031 67.2856C24.2745 68.8571 26.2948 70.9138 27.7904 73.3509L27.9851 73.6682C31.3269 79.1129 37.4866 82.1 43.7728 81.3241L43.7775 81.3235C49.1504 80.6603 54.4986 82.7368 58.0551 86.8665L58.3598 87.2203C62.2716 91.7626 68.3507 93.7329 74.1416 92.3353L74.5845 92.2285C79.9031 90.945 85.501 92.4977 89.4301 96.3462L89.7592 96.6685C89.7669 96.6762 89.7748 96.6838 89.7828 96.6915C90.2157 97.1138 90.7328 97.3953 91.2801 97.5435L98.1289 91.8165C99.9048 90.3309 99.6795 87.5724 97.7242 86.3332Z" fill="url(#paint10_linear_343_7010)"/>
<path d="M60.2063 102.607C28.4446 100.551 0.506348 92.0096 0.506348 76.9802C0.506348 73.3037 2.17694 70.0155 5.16811 67.1155C6.21517 68.4155 7.52399 69.7772 9.05929 71.1919C10.9181 72.9067 12.4005 74.989 13.3652 77.3272L13.4916 77.6331C15.6446 82.8537 20.6358 86.3537 26.2799 86.5949L26.2858 86.5978C31.1093 86.8037 35.5181 89.392 38.0505 93.5037L38.2681 93.8537C41.0564 98.3773 46.1211 100.977 51.4211 100.61L51.824 100.58C54.8063 100.374 57.7269 101.107 60.2063 102.607Z" fill="url(#paint11_linear_343_7010)"/>
<path d="M72.4463 93.4124L72.6627 93.6982C72.668 93.705 72.673 93.7118 72.6783 93.7185C73.5289 94.8362 75.1145 95.1279 76.3345 94.4276L85.7651 89.0156C87.4177 88.0673 87.6001 85.8262 86.1627 84.5673C85.5254 84.0091 84.9398 83.3835 84.4183 82.6953L84.2016 82.4091C81.616 78.997 77.4401 77.1003 73.1272 77.3794L72.7683 77.4026C68.0722 77.7065 63.5727 75.4323 61.0877 71.4985L60.8674 71.1497C58.6154 67.5847 54.7063 65.3391 50.4419 65.1606H50.4383C45.4457 64.9512 41.0136 61.9147 39.0913 57.3862L39.021 57.2209C38.1413 55.1485 36.8272 53.2726 35.1392 51.7512C35.1057 51.7209 35.0719 51.6906 35.0389 51.66C33.9589 50.6673 32.6183 49.9832 31.158 49.7623C23.9542 48.6723 18.9416 49.2326 17.5933 52.1135C16.348 54.7741 18.6589 58.4909 23.3663 62.7376C25.021 64.2306 26.3404 66.0438 27.203 68.0762L27.3154 68.3409C29.2424 72.8815 33.6772 75.9329 38.6822 76.1626L38.686 76.1629C42.9636 76.3591 46.8792 78.6185 49.1386 82.195L49.3322 82.5012C51.8174 86.4347 56.3166 88.7088 61.0127 88.4053L61.3719 88.3821C65.6848 88.1029 69.861 90 72.4463 93.4124Z" fill="url(#paint12_linear_343_7010)"/>
<path d="M86.1634 84.5678C85.5261 84.0096 84.9405 83.384 84.419 82.6957L84.2023 82.4096C81.6167 78.9975 77.4408 77.1007 73.1278 77.3799L72.769 77.4031C68.0728 77.7069 63.5734 75.4328 61.0884 71.499L60.8681 71.1502C58.6161 67.5852 54.707 65.3396 50.4426 65.161L50.439 65.1608C45.4464 64.9513 41.0143 61.9149 39.0923 57.3863L39.022 57.221C38.1423 55.1487 36.8281 53.2728 35.1402 51.7513C35.1067 51.721 35.0728 51.6907 35.0399 51.6602C33.9599 50.6675 32.6193 49.9834 31.159 49.7625C26.432 49.0472 22.6484 49.0428 20.2246 49.9381C20.5317 52.4705 22.8267 55.5696 26.5787 58.9925C28.3125 60.5743 29.694 62.4969 30.5952 64.6531L30.7126 64.934C32.7261 69.751 37.3752 72.9825 42.6284 73.2157L42.6323 73.216C47.1223 73.4155 51.2278 75.8066 53.5923 79.5993L53.7949 79.924C56.3955 84.0958 61.1137 86.501 66.0443 86.169L66.4214 86.1437C70.9496 85.8387 75.3293 87.8443 78.0364 91.4622L78.2631 91.7655C78.2684 91.7725 78.274 91.7799 78.2793 91.7869C78.5778 92.184 78.964 92.4802 79.3928 92.6734L85.7658 89.016C87.4181 88.0675 87.6008 85.8266 86.1634 84.5678Z" fill="url(#paint13_linear_343_7010)"/>
<path d="M86.1631 84.5676C85.5257 84.0093 84.9401 83.3837 84.4187 82.6955L84.2019 82.4093C81.6163 78.9973 77.4404 77.1005 73.1275 77.3796L72.7687 77.4029C68.0725 77.7067 63.5731 75.4326 61.0881 71.4987L60.8678 71.1499C58.6157 67.5849 54.7066 65.3393 50.4422 65.1608L50.4386 65.1605C45.446 64.9511 41.0139 61.9146 39.0919 57.3861L39.0216 57.2208C38.1419 55.1484 36.8278 53.2726 35.1398 51.7511C35.1063 51.7208 35.0725 51.6905 35.0395 51.6599C33.9595 50.6673 32.6189 49.9832 31.1586 49.7623C28.9928 49.4346 27.0266 49.2573 25.2969 49.2461C25.9983 51.579 28.1628 54.3205 31.4383 57.3087C33.1722 58.8905 34.5536 60.8131 35.4548 62.9693L35.5722 63.2502C37.5857 68.0673 42.2348 71.2987 47.4881 71.532L47.4919 71.5323C51.9819 71.7317 56.0875 74.1229 58.4519 77.9155L58.6545 78.2402C61.2551 82.412 65.9734 84.8173 70.9039 84.4852L71.281 84.4599C75.8092 84.1549 80.1889 86.1602 82.896 89.7784L83.1228 90.0817C83.1281 90.0887 83.1337 90.0961 83.1389 90.1031C83.2142 90.2031 83.2951 90.2967 83.3807 90.384L85.7651 89.0155C87.4178 88.0673 87.6004 85.8264 86.1631 84.5676Z" fill="url(#paint14_linear_343_7010)"/>
<path d="M86.1625 84.5675C85.5251 84.0093 84.9395 83.3837 84.4181 82.6954L84.2013 82.4093C81.6157 78.9972 77.4398 77.1004 73.1269 77.3796L72.7681 77.4028C68.0719 77.7066 63.5725 75.4325 61.0875 71.4987L60.8672 71.1499C58.6151 67.5849 54.706 65.3393 50.4416 65.1608L50.4381 65.1605C45.4454 64.951 41.0134 61.9146 39.0913 57.386L39.021 57.2208C38.1413 55.1484 36.8272 53.2725 35.1392 51.751C35.1057 51.7207 35.0719 51.6905 35.039 51.6599C33.959 50.6672 32.6184 49.9831 31.1581 49.7622C30.429 49.6519 29.7251 49.5607 29.0425 49.4849C30.1287 51.2634 31.8592 53.2125 34.1269 55.281C35.8607 56.8628 37.2422 58.7855 38.1434 60.9416L38.2607 61.2225C40.2742 66.0396 44.9234 69.271 50.1766 69.5043L50.1804 69.5046C54.6704 69.704 58.776 72.0952 61.1404 75.8878L61.3431 76.2125C63.9437 80.3843 68.6619 82.7896 73.5925 82.4575L73.9695 82.4322C78.4978 82.1272 82.8775 84.1325 85.5845 87.7507L85.8113 88.054C85.8166 88.061 85.8222 88.0684 85.8275 88.0754C85.9748 88.2716 86.144 88.4425 86.3287 88.5893C87.4363 87.506 87.4145 85.6643 86.1625 84.5675Z" fill="url(#paint15_linear_343_7010)"/>
<path d="M86.1631 84.5676C85.5257 84.0094 84.9402 83.3838 84.4187 82.6956L84.2019 82.4094C83.4452 81.4109 82.5493 80.5464 81.5569 79.8241L62.1069 88.3573C66.1555 88.3259 70.0084 90.1941 72.4469 93.4123L72.6637 93.6982C72.6687 93.705 72.674 93.7117 72.679 93.7185C73.5296 94.8362 75.1152 95.1279 76.3352 94.4276L85.7657 89.0156C87.4178 88.0673 87.6005 85.8264 86.1631 84.5676Z" fill="url(#paint16_linear_343_7010)"/>
<path d="M76.3349 94.4277L77.6517 93.6722L77.6031 93.6066C74.7005 89.6863 69.9975 87.5183 65.1314 87.8575L64.7264 87.8857C60.9608 88.148 57.3137 86.9089 54.5175 84.5477L50.7078 79.8157C48.1181 76.2548 44.0308 74.0475 39.5911 73.8736L39.5872 73.8733C37.5164 73.7922 35.5334 73.2689 33.7458 72.3822C33.7099 72.3404 33.6755 72.2975 33.6393 72.256L24.5278 60.8757C23.8884 60.0183 23.1755 59.2157 22.384 58.4877C22.3461 58.453 22.3084 58.4183 22.2711 58.3833C21.0637 57.2507 19.564 56.4716 17.9287 56.2186C18.8619 58.1663 20.7408 60.3698 23.3664 62.7386C25.0211 64.2316 26.3408 66.0448 27.2031 68.0772L27.3155 68.3419C29.2425 72.8824 33.6772 75.9339 38.6822 76.1636L38.6858 76.1639C42.9634 76.3601 46.879 78.6195 49.1384 82.196L49.3319 82.5022C51.8169 86.4357 56.3164 88.7098 61.0125 88.4063L61.3717 88.383C65.6846 88.1042 69.8608 90.001 72.4464 93.4133L72.6631 93.6992C72.6681 93.706 72.6734 93.7127 72.6787 93.7195C73.5293 94.8366 75.1149 95.128 76.3349 94.4277Z" fill="url(#paint17_linear_343_7010)"/>
<path d="M64.2975 106.33L64.5407 106.659C64.5466 106.667 64.5522 106.674 64.5581 106.682C65.5128 107.966 67.3004 108.296 68.6795 107.484L79.3401 101.211C81.2081 100.111 81.4231 97.5288 79.8069 96.0844C79.0901 95.4441 78.4325 94.7256 77.8469 93.935L77.6034 93.6061C74.7007 89.6859 69.9978 87.5179 65.1316 87.857L64.7266 87.8853C59.4278 88.2544 54.3619 85.6529 51.5745 81.1311L51.3275 80.7303C48.8016 76.6326 44.4013 74.0614 39.5913 73.8732L39.5875 73.8729C33.9563 73.6523 28.9695 70.1723 26.8195 64.9629L26.741 64.7726C25.7572 62.3888 24.2825 60.2332 22.3845 58.4873C22.3469 58.4526 22.3089 58.4179 22.2716 58.3829C21.0575 57.2438 19.5478 56.4611 17.9016 56.2126C9.77982 54.9864 4.12306 55.6526 2.59011 58.977C1.17453 62.047 3.766 66.3197 9.05864 71.1929C10.9189 72.9058 12.4001 74.9897 13.3648 77.3273L13.4904 77.6317C15.6454 82.8547 20.6357 86.3523 26.2804 86.5961L26.2845 86.5964C31.1092 86.805 35.5166 89.3917 38.0507 93.5026L38.2678 93.8547C41.0551 98.3761 46.121 100.978 51.4195 100.608L51.8248 100.58C56.6919 100.241 61.3948 102.41 64.2975 106.33Z" fill="url(#paint18_linear_343_7010)"/>
<path d="M79.8065 96.0846C79.0898 95.4443 78.4318 94.7258 77.8465 93.9352L77.603 93.6064C74.7003 89.6861 69.9974 87.5181 65.1312 87.8573L64.7262 87.8855C59.4274 88.2546 54.3615 85.6531 51.5742 81.1314L51.3271 80.7305C48.8012 76.6328 44.4009 74.0617 39.5909 73.8731L39.5871 73.8728C33.9559 73.6522 28.9692 70.1723 26.8192 64.9628L26.7406 64.7725C25.7568 62.3887 24.2821 60.2331 22.3842 58.4872C22.3462 58.4525 22.3086 58.4178 22.2712 58.3828C21.0571 57.2437 19.5474 56.4611 17.9012 56.2125C12.5718 55.4078 8.30357 55.4181 5.56592 56.4596C5.9018 59.3758 8.47798 62.9367 12.6965 66.8646C14.6459 68.6799 16.1965 70.889 17.2042 73.3696L17.3353 73.6925C19.5868 79.234 24.818 82.9375 30.7433 83.1846L30.7477 83.1849C35.8118 83.3964 40.4333 86.134 43.085 90.494L43.3121 90.8675C46.2286 95.6628 51.5412 98.4146 57.1042 98.012L57.5298 97.9811C62.6389 97.6111 67.5715 99.9034 70.6103 104.061L70.865 104.409C70.8709 104.417 70.8771 104.425 70.8833 104.434C71.2183 104.89 71.653 105.229 72.1356 105.45L79.3398 101.211C81.2077 100.111 81.4227 97.5287 79.8065 96.0846Z" fill="url(#paint19_linear_343_7010)"/>
<path d="M79.8068 96.0846C79.09 95.4443 78.4321 94.7258 77.8468 93.9352L77.6033 93.6064C74.7006 89.6861 69.9977 87.5182 65.1315 87.8573L64.7265 87.8855C59.4277 88.2546 54.3618 85.6531 51.5744 81.1314L51.3274 80.7305C48.8015 76.6329 44.4012 74.0617 39.5912 73.8731L39.5874 73.8728C33.9562 73.6523 28.9694 70.1723 26.8194 64.9629L26.7409 64.7726C25.7571 62.3887 24.2824 60.2331 22.3844 58.4873C22.3465 58.4526 22.3089 58.4179 22.2715 58.3829C21.0574 57.2437 19.5477 56.4611 17.9015 56.2126C15.4594 55.844 13.2427 55.6479 11.2915 55.642C12.073 58.327 14.5033 61.4761 18.1862 64.9052C20.1356 66.7205 21.6862 68.9296 22.6939 71.4102L22.825 71.7331C25.0765 77.2746 30.3077 80.9781 36.233 81.2252L36.2374 81.2255C41.3015 81.437 45.923 84.1746 48.5747 88.5346L48.8018 88.9079C51.7183 93.7032 57.0309 96.4549 62.5938 96.0523L63.0194 96.0214C68.1286 95.6514 73.0612 97.9437 76.1 102.101L76.3547 102.449C76.3609 102.458 76.3668 102.466 76.373 102.474C76.4574 102.589 76.5483 102.696 76.6444 102.797L79.34 101.211C81.208 100.111 81.423 97.5287 79.8068 96.0846Z" fill="url(#paint20_linear_343_7010)"/>
<path d="M79.807 96.0846C79.0902 95.4443 78.4323 94.7257 77.847 93.9352L77.6035 93.6063C74.7008 89.686 69.9979 87.5181 65.1317 87.8572L64.7267 87.8854C59.4279 88.2546 54.362 85.6531 51.5746 81.1313L51.3276 80.7304C48.8017 76.6328 44.4014 74.0616 39.5914 73.8731L39.5876 73.8728C33.9564 73.6522 28.9696 70.1722 26.8196 64.9628L26.7411 64.7725C25.7573 62.3887 24.2826 60.2331 22.3846 58.4872C22.3467 58.4525 22.3091 58.4178 22.2717 58.3828C21.0576 57.2437 19.5479 56.461 17.9017 56.2125C17.0796 56.0884 16.2861 55.986 15.5161 55.9016C16.7341 57.946 18.6782 60.1846 21.2279 62.5584C23.1773 64.3737 24.7279 66.5828 25.7355 69.0634L25.8667 69.3863C28.1182 74.9278 33.3494 78.6313 39.2746 78.8784L39.2791 78.8787C44.3432 79.0901 48.9646 81.8278 51.6164 86.1878L51.8435 86.561C54.7599 91.3563 60.0726 94.1081 65.6355 93.7054L66.0611 93.6746C71.1702 93.3046 76.1029 95.5969 79.1417 99.7543L79.3964 100.103C79.4023 100.111 79.4085 100.119 79.4147 100.127C79.5802 100.353 79.7702 100.549 79.9779 100.717C81.2323 99.4646 81.2152 97.3428 79.807 96.0846Z" fill="url(#paint21_linear_343_7010)"/>
<path d="M79.8066 96.0846C79.0899 95.4443 78.4319 94.7257 77.8466 93.9351L77.6031 93.6063C76.7537 92.459 75.7466 91.4669 74.6299 90.6387L52.6543 100.549C57.2211 100.496 61.5599 102.633 64.2975 106.33L64.5408 106.659C64.5467 106.667 64.5522 106.675 64.5581 106.682C65.5131 107.967 67.3005 108.296 68.6796 107.485L79.3399 101.211C81.2078 100.111 81.4228 97.5287 79.8066 96.0846Z" fill="url(#paint22_linear_343_7010)"/>
<defs>
<linearGradient id="paint0_linear_343_7010" x1="75.9154" y1="96.5655" x2="76.6701" y2="109.021" gradientUnits="userSpaceOnUse">
<stop stop-color="#F8F6FB"/>
<stop offset="1" stop-color="#EFDCFB"/>
</linearGradient>
<linearGradient id="paint1_linear_343_7010" x1="69.6799" y1="54.9914" x2="83.3431" y2="106.559" gradientUnits="userSpaceOnUse">
<stop stop-color="#F8F6FB"/>
<stop offset="1" stop-color="#EFDCFB"/>
</linearGradient>
<linearGradient id="paint2_linear_343_7010" x1="79.5959" y1="107.145" x2="72.5118" y2="50.4721" gradientUnits="userSpaceOnUse">
<stop stop-color="#F8F6FB"/>
<stop offset="1" stop-color="#EFDCFB"/>
</linearGradient>
<linearGradient id="paint3_linear_343_7010" x1="114.085" y1="101.478" x2="88.3125" y2="39.6636" gradientUnits="userSpaceOnUse">
<stop stop-color="#EFDCFB" stop-opacity="0"/>
<stop offset="0.0287" stop-color="#E9D6F7" stop-opacity="0.029"/>
<stop offset="0.2203" stop-color="#C5B5DE" stop-opacity="0.22"/>
<stop offset="0.4138" stop-color="#AA9BCB" stop-opacity="0.414"/>
<stop offset="0.6078" stop-color="#9688BD" stop-opacity="0.608"/>
<stop offset="0.8028" stop-color="#8A7DB5" stop-opacity="0.803"/>
<stop offset="1" stop-color="#8679B2"/>
</linearGradient>
<radialGradient id="paint4_radial_343_7010" cx="0" cy="0" r="1" gradientUnits="userSpaceOnUse" gradientTransform="translate(89.035 55.9929) scale(42.7223)">
<stop stop-color="#F8F6FB"/>
<stop offset="0.5047" stop-color="#F7F4FB"/>
<stop offset="0.7657" stop-color="#F5ECFB"/>
<stop offset="0.9705" stop-color="#F0DFFB"/>
<stop offset="1" stop-color="#EFDCFB"/>
</radialGradient>
<linearGradient id="paint5_linear_343_7010" x1="107.073" y1="86.9188" x2="95.3178" y2="45.7224" gradientUnits="userSpaceOnUse">
<stop stop-color="#EFDCFB" stop-opacity="0"/>
<stop offset="0.0287" stop-color="#E9D6F7" stop-opacity="0.029"/>
<stop offset="0.2203" stop-color="#C5B5DE" stop-opacity="0.22"/>
<stop offset="0.4138" stop-color="#AA9BCB" stop-opacity="0.414"/>
<stop offset="0.6078" stop-color="#9688BD" stop-opacity="0.608"/>
<stop offset="0.8028" stop-color="#8A7DB5" stop-opacity="0.803"/>
<stop offset="1" stop-color="#8679B2"/>
</linearGradient>
<linearGradient id="paint6_linear_343_7010" x1="93.5487" y1="57.2961" x2="99.2763" y2="78.9135" gradientUnits="userSpaceOnUse">
<stop stop-color="#FFD945"/>
<stop offset="0.3043" stop-color="#FFCD3E"/>
<stop offset="0.8558" stop-color="#FFAD2B"/>
<stop offset="1" stop-color="#FFA325"/>
</linearGradient>
<linearGradient id="paint7_linear_343_7010" x1="84.8906" y1="40.8188" x2="110.593" y2="53.0508" gradientUnits="userSpaceOnUse">
<stop stop-color="#E87264" stop-opacity="0"/>
<stop offset="1" stop-color="#F8DFBE"/>
</linearGradient>
<linearGradient id="paint8_linear_343_7010" x1="65.9811" y1="19.4953" x2="84.1905" y2="23.7797" gradientUnits="userSpaceOnUse">
<stop stop-color="#E87264" stop-opacity="0"/>
<stop offset="0.1575" stop-color="#E97869" stop-opacity="0.158"/>
<stop offset="0.3778" stop-color="#EC8B78" stop-opacity="0.378"/>
<stop offset="0.6353" stop-color="#F0A991" stop-opacity="0.635"/>
<stop offset="0.9188" stop-color="#F6D2B3" stop-opacity="0.919"/>
<stop offset="1" stop-color="#F8DFBE"/>
</linearGradient>
<linearGradient id="paint9_linear_343_7010" x1="40.1665" y1="40.322" x2="54.0874" y2="45.747" gradientUnits="userSpaceOnUse">
<stop stop-color="#E87264" stop-opacity="0"/>
<stop offset="1" stop-color="#F8DFBE"/>
</linearGradient>
<linearGradient id="paint10_linear_343_7010" x1="54.8642" y1="76.0509" x2="43.4995" y2="99.655" gradientUnits="userSpaceOnUse">
<stop stop-color="white" stop-opacity="0"/>
<stop offset="0.2138" stop-color="#FEF0EC" stop-opacity="0.214"/>
<stop offset="0.6452" stop-color="#FCC9BB" stop-opacity="0.645"/>
<stop offset="1" stop-color="#FAA68E"/>
</linearGradient>
<linearGradient id="paint11_linear_343_7010" x1="25.1431" y1="95.3158" x2="44.9472" y2="67.0805" gradientUnits="userSpaceOnUse">
<stop stop-color="#EFDCFB" stop-opacity="0"/>
<stop offset="0.0287" stop-color="#E9D6F7" stop-opacity="0.029"/>
<stop offset="0.2203" stop-color="#C5B5DE" stop-opacity="0.22"/>
<stop offset="0.4138" stop-color="#AA9BCB" stop-opacity="0.414"/>
<stop offset="0.6078" stop-color="#9688BD" stop-opacity="0.608"/>
<stop offset="0.8028" stop-color="#8A7DB5" stop-opacity="0.803"/>
<stop offset="1" stop-color="#8679B2"/>
</linearGradient>
<linearGradient id="paint12_linear_343_7010" x1="54.8409" y1="66.9689" x2="40.5058" y2="84.0322" gradientUnits="userSpaceOnUse">
<stop stop-color="#FAA68E"/>
<stop offset="0.3527" stop-color="#FAA38F"/>
<stop offset="0.651" stop-color="#FC9893"/>
<stop offset="0.9287" stop-color="#FE879A"/>
<stop offset="1" stop-color="#FF819C"/>
</linearGradient>
<linearGradient id="paint13_linear_343_7010" x1="52.4218" y1="70.5033" x2="40.2763" y2="88.0875" gradientUnits="userSpaceOnUse">
<stop stop-color="white" stop-opacity="0"/>
<stop offset="0.2138" stop-color="#FEF0EC" stop-opacity="0.214"/>
<stop offset="0.6452" stop-color="#FCC9BB" stop-opacity="0.645"/>
<stop offset="1" stop-color="#FAA68E"/>
</linearGradient>
<linearGradient id="paint14_linear_343_7010" x1="55.7731" y1="69.079" x2="43.4397" y2="90.2967" gradientUnits="userSpaceOnUse">
<stop stop-color="#F82814" stop-opacity="0"/>
<stop offset="1" stop-color="#C0272D"/>
</linearGradient>
<linearGradient id="paint15_linear_343_7010" x1="57.2881" y1="69.6346" x2="49.891" y2="80.344" gradientUnits="userSpaceOnUse">
<stop stop-color="white" stop-opacity="0"/>
<stop offset="0.2138" stop-color="#FEF0EC" stop-opacity="0.214"/>
<stop offset="0.6452" stop-color="#FCC9BB" stop-opacity="0.645"/>
<stop offset="1" stop-color="#FAA68E"/>
</linearGradient>
<linearGradient id="paint16_linear_343_7010" x1="74.562" y1="87.0104" x2="82.8908" y2="100.452" gradientUnits="userSpaceOnUse">
<stop stop-color="#F82814" stop-opacity="0"/>
<stop offset="0.2677" stop-color="#EE2818" stop-opacity="0.268"/>
<stop offset="0.7191" stop-color="#D42724" stop-opacity="0.719"/>
<stop offset="1" stop-color="#C0272D"/>
</linearGradient>
<linearGradient id="paint17_linear_343_7010" x1="44.5485" y1="81.4782" x2="51.674" y2="67.1662" gradientUnits="userSpaceOnUse">
<stop stop-color="#F82814" stop-opacity="0"/>
<stop offset="1" stop-color="#C0272D"/>
</linearGradient>
<linearGradient id="paint18_linear_343_7010" x1="44.5416" y1="75.9934" x2="27.9127" y2="95.3882" gradientUnits="userSpaceOnUse">
<stop stop-color="#FAA68E"/>
<stop offset="0.3527" stop-color="#FAA38F"/>
<stop offset="0.651" stop-color="#FC9893"/>
<stop offset="0.9287" stop-color="#FE879A"/>
<stop offset="1" stop-color="#FF819C"/>
</linearGradient>
<linearGradient id="paint19_linear_343_7010" x1="41.7951" y1="80.0752" x2="27.6685" y2="100.143" gradientUnits="userSpaceOnUse">
<stop stop-color="white" stop-opacity="0"/>
<stop offset="0.2138" stop-color="#FEF0EC" stop-opacity="0.214"/>
<stop offset="0.6452" stop-color="#FCC9BB" stop-opacity="0.645"/>
<stop offset="1" stop-color="#FAA68E"/>
</linearGradient>
<linearGradient id="paint20_linear_343_7010" x1="45.5848" y1="78.4222" x2="31.2155" y2="102.708" gradientUnits="userSpaceOnUse">
<stop stop-color="#F82814" stop-opacity="0"/>
<stop offset="1" stop-color="#C0272D"/>
</linearGradient>
<linearGradient id="paint21_linear_343_7010" x1="47.2935" y1="79.0571" x2="38.6895" y2="91.279" gradientUnits="userSpaceOnUse">
<stop stop-color="white" stop-opacity="0"/>
<stop offset="0.2138" stop-color="#FEF0EC" stop-opacity="0.214"/>
<stop offset="0.6452" stop-color="#FCC9BB" stop-opacity="0.645"/>
<stop offset="1" stop-color="#FAA68E"/>
</linearGradient>
<linearGradient id="paint22_linear_343_7010" x1="66.714" y1="99.0204" x2="76.3875" y2="114.272" gradientUnits="userSpaceOnUse">
<stop stop-color="#F82814" stop-opacity="0"/>
<stop offset="0.2677" stop-color="#EE2818" stop-opacity="0.268"/>
<stop offset="0.7191" stop-color="#D42724" stop-opacity="0.719"/>
<stop offset="1" stop-color="#C0272D"/>
</linearGradient>
</defs>
</svg>
