<svg width="151" height="102" viewBox="0 0 151 102" fill="none" xmlns="http://www.w3.org/2000/svg">
<path d="M75.4752 87.8865C56.8787 87.8865 39.8123 85.2666 26.4443 80.8983C28.3676 88.1366 31.9808 93.6107 36.4361 95.3624C46.4914 99.3166 60.2717 101.755 75.4752 101.755C90.6787 101.755 104.459 99.3166 114.514 95.3624C118.97 93.6104 122.583 88.1366 124.506 80.8983C111.138 85.2666 94.0717 87.8865 75.4752 87.8865V87.8865Z" fill="url(#paint0_linear_343_7309)"/>
<path d="M150.476 67.3598C150.476 104.105 0.475586 104.105 0.475586 67.3598C0.475586 30.6151 150.476 30.6151 150.476 67.3598Z" fill="url(#paint1_linear_343_7309)"/>
<path d="M140.181 64.6651C140.181 90.8622 10.7695 90.8622 10.7695 64.6651C10.7695 38.4681 140.181 38.4681 140.181 64.6651Z" fill="url(#paint2_linear_343_7309)"/>
<path d="M150.475 67.3598C150.475 37.3027 50.1116 31.8336 13.5768 50.9495C13.5586 57.5857 13.5389 64.7604 13.536 65.8736L13.5357 65.9701C13.5292 68.3601 14.6066 70.4163 16.3407 71.6913L35.8045 91.1551C80.1495 100.451 150.475 92.5201 150.475 67.3598Z" fill="url(#paint3_linear_343_7309)"/>
<path d="M56.2232 94.0927L38.6741 76.5435C37.8797 75.6171 36.7029 75.028 35.3867 75.028C32.9941 75.028 31.0547 76.9674 31.0547 79.36C31.0547 79.7518 31.29 80.078 31.6785 80.3415L43.9659 92.6288C47.9273 93.2388 52.032 93.7265 56.2232 94.0927V94.0927Z" fill="url(#paint4_linear_343_7309)"/>
<path d="M80.5234 94.8609L58.0937 72.4312C57.169 71.3201 55.689 70.5604 53.3923 70.4815C53.1361 70.4727 52.8799 70.4986 52.6311 70.5609C50.6776 71.0507 41.407 73.6442 41.112 78.8398C41.0573 79.8048 41.497 80.5698 42.264 81.1768L55.0761 93.9889C63.349 94.7586 71.9799 95.0492 80.5234 94.8609V94.8609Z" fill="url(#paint5_linear_343_7309)"/>
<path d="M137.399 45.8053L137.414 40.5494C137.489 13.0723 123.442 7.25408 117.772 6.02526C116.478 5.7432 115.102 5.78761 113.754 6.15291L19.3943 31.7953C16.0652 32.6994 13.6193 35.8053 13.6102 39.1414C13.6102 39.1414 13.5428 63.7323 13.5369 65.8741L13.5367 65.9705C13.5261 69.8332 16.3414 72.8294 20.1967 73.0526L127.996 79.3129C132.87 79.5941 137.318 75.4053 137.332 70.5194C137.331 70.5197 137.392 48.3088 137.399 45.8053V45.8053Z" fill="url(#paint6_linear_343_7309)"/>
<path d="M117.773 6.02318C116.478 5.74229 115.1 5.78818 113.754 6.15406L19.3939 31.7946C18.2065 32.1173 17.135 32.7235 16.2427 33.5164L137.413 40.6514L137.413 40.5496C137.489 13.0714 123.442 7.25259 117.773 6.02318V6.02318Z" fill="url(#paint7_linear_343_7309)"/>
<path d="M82.8832 37.441L16.2432 33.516C17.1343 32.7225 18.207 32.1169 19.3949 31.7936L70.0749 18.0225C69.4617 19.2175 69.1099 20.5533 69.1064 21.9369C69.0996 24.3736 70.1679 26.4336 71.8485 27.6889L82.8832 37.441Z" fill="url(#paint8_linear_343_7309)"/>
<path d="M137.415 40.5504L137.415 40.6513L123.912 39.8566L123.269 39.8189L123.181 39.8118L82.8832 37.4407L71.8485 27.6886C70.1679 26.4333 69.0997 24.3733 69.1065 21.9366C69.1103 20.553 69.4618 19.2171 70.075 18.0221L92.5047 11.9274L113.755 6.15243C115.1 5.78773 116.478 5.74155 117.774 6.02302C123.441 7.25155 137.49 13.0701 137.415 40.5504V40.5504Z" fill="url(#paint9_linear_343_7309)"/>
<path d="M126.465 64.6451L126.502 50.9301C126.509 48.6453 124.844 46.8733 122.565 46.7392L13.606 40.323C13.5924 45.2492 13.541 64.0145 13.536 65.8736L13.5357 65.9701C13.5342 66.473 13.5819 66.9609 13.6724 67.4303L117.129 73.4386C122.003 73.7198 126.451 69.5309 126.465 64.6451V64.6451Z" fill="url(#paint10_linear_343_7309)"/>
<path d="M126.47 62.3802L126.464 64.6449C126.459 66.5114 125.805 68.2779 124.727 69.7297L13.5415 63.2735L13.5618 55.8214L126.47 62.3802Z" fill="url(#paint11_linear_343_7309)"/>
<path d="M126.501 50.9306L126.481 58.2435L13.5732 51.6876L13.5935 44.2385L126.499 50.7947C126.501 50.8379 126.501 50.8844 126.501 50.9306V50.9306Z" fill="url(#paint12_linear_343_7309)"/>
<path d="M116.604 4.02122C115.238 3.72769 113.781 3.79034 112.361 4.17593C110.97 4.55387 110.604 6.3971 111.799 7.00652C118.095 10.2206 126.109 18.035 127.177 37.0221C127.277 38.8003 128.624 40.1336 130.412 40.2389L132.826 40.3439C135.253 40.4495 137.428 38.2871 137.291 35.8798C135.856 10.7539 122.242 5.23181 116.604 4.02122Z" fill="url(#paint13_linear_343_7309)"/>
<path d="M74.9924 9.08715C76.5945 10.5613 77.4362 12.6554 76.8727 13.7645C76.3092 14.8736 74.5536 14.578 72.9518 13.1039C71.3501 11.6298 68.1489 7.36509 68.7121 6.25568C69.2757 5.14656 73.3904 7.61303 74.9924 9.08715V9.08715Z" fill="url(#paint14_linear_343_7309)"/>
<path d="M77.4428 8.83476C77.7969 11.5418 77.0516 13.8854 75.7784 14.0695C74.5051 14.2536 73.186 12.2086 72.8319 9.50153C72.4778 6.79447 72.7016 0.464472 73.9748 0.280354C75.2481 0.0965306 77.0887 6.128 77.4428 8.83476Z" fill="url(#paint15_linear_343_7309)"/>
<path d="M90.5475 12.8022C91.0142 17.121 88.0563 20.9827 83.9407 21.4274C79.8251 21.8721 76.1104 18.7319 75.6437 14.413C75.1769 10.0942 78.1348 6.23245 82.2504 5.78774C86.366 5.34274 90.0807 8.48333 90.5475 12.8022V12.8022Z" fill="url(#paint16_linear_343_7309)"/>
<path d="M85.2282 7.75131C85.3174 8.57661 84.5594 9.33543 83.535 9.44631C82.5106 9.5569 81.608 8.97778 81.5188 8.15219C81.4297 7.3269 82.1877 6.56808 83.2121 6.4572C84.2365 6.34631 85.1391 6.92602 85.2282 7.75131Z" fill="url(#paint17_linear_343_7309)"/>
<path d="M81.2158 9.99598C81.2585 10.3895 80.9888 10.7413 80.6138 10.7819C80.2388 10.8225 79.9003 10.5363 79.8579 10.1427C79.8155 9.74921 80.085 9.39745 80.46 9.35686C80.835 9.31627 81.1735 9.60245 81.2158 9.99598Z" fill="url(#paint18_linear_343_7309)"/>
<path d="M84.4854 11.8836C84.528 12.2772 84.2583 12.6289 83.8833 12.6695C83.5083 12.7101 83.1698 12.4239 83.1274 12.0304C83.0851 11.6369 83.3545 11.2851 83.7295 11.2445C84.1042 11.2042 84.4427 11.4901 84.4854 11.8836Z" fill="url(#paint19_linear_343_7309)"/>
<path d="M82.8688 19.7386C83.3355 24.0575 80.3776 27.9192 76.262 28.3639C72.1464 28.8086 68.4317 25.6683 67.965 21.3495C67.4982 17.0307 70.4561 13.1689 74.5717 12.7242C78.6873 12.2795 82.402 15.4198 82.8688 19.7386V19.7386Z" fill="url(#paint20_linear_343_7309)"/>
<path d="M77.5495 14.6878C77.6387 15.5131 76.8807 16.2719 75.8563 16.3828C74.8319 16.4934 73.9292 15.9142 73.8401 15.0887C73.751 14.2631 74.509 13.5045 75.5334 13.3937C76.5575 13.2831 77.4601 13.8625 77.5495 14.6878Z" fill="url(#paint21_linear_343_7309)"/>
<path d="M73.5371 16.9321C73.5798 17.3257 73.3101 17.6774 72.9351 17.718C72.5601 17.7586 72.2215 17.4724 72.1792 17.0789C72.1368 16.6854 72.4062 16.3336 72.7812 16.293C73.1562 16.2524 73.4948 16.5386 73.5371 16.9321Z" fill="url(#paint22_linear_343_7309)"/>
<path d="M76.8067 18.8201C76.8493 19.2136 76.5796 19.5654 76.2046 19.606C75.8296 19.6465 75.4911 19.3604 75.4487 18.9668C75.4064 18.5733 75.6758 18.2215 76.0508 18.181C76.4258 18.1404 76.764 18.4265 76.8067 18.8201Z" fill="url(#paint23_linear_343_7309)"/>
<g opacity="0.5">
<g opacity="0.5">
<path opacity="0.5" d="M18.7786 49.6997C19.615 49.6997 20.293 49.0217 20.293 48.1853C20.293 47.3489 19.615 46.6709 18.7786 46.6709C17.9422 46.6709 17.2642 47.3489 17.2642 48.1853C17.2642 49.0217 17.9422 49.6997 18.7786 49.6997Z" fill="url(#paint24_linear_343_7309)"/>
<path opacity="0.5" d="M17.2581 53.9565C17.9184 53.9565 18.4537 53.4212 18.4537 52.7609C18.4537 52.1006 17.9184 51.5653 17.2581 51.5653C16.5978 51.5653 16.0625 52.1006 16.0625 52.7609C16.0625 53.4212 16.5978 53.9565 17.2581 53.9565Z" fill="url(#paint25_linear_343_7309)"/>
<path opacity="0.5" d="M22.5319 52.89C22.93 52.89 23.2528 52.5673 23.2528 52.1691C23.2528 51.771 22.93 51.4482 22.5319 51.4482C22.1338 51.4482 21.811 51.771 21.811 52.1691C21.811 52.5673 22.1338 52.89 22.5319 52.89Z" fill="url(#paint26_linear_343_7309)"/>
</g>
<g opacity="0.5">
<path opacity="0.5" d="M26.7632 48.013C27.3812 48.013 27.8823 47.512 27.8823 46.8939C27.8823 46.2758 27.3812 45.7748 26.7632 45.7748C26.1451 45.7748 25.644 46.2758 25.644 46.8939C25.644 47.512 26.1451 48.013 26.7632 48.013Z" fill="url(#paint27_linear_343_7309)"/>
<path opacity="0.5" d="M23.4944 49.1942C23.9823 49.1942 24.3779 48.7986 24.3779 48.3106C24.3779 47.8227 23.9823 47.4271 23.4944 47.4271C23.0064 47.4271 22.6108 47.8227 22.6108 48.3106C22.6108 48.7986 23.0064 49.1942 23.4944 49.1942Z" fill="url(#paint28_linear_343_7309)"/>
<path opacity="0.5" d="M26.4189 51.4565C26.713 51.4565 26.9515 51.218 26.9515 50.9239C26.9515 50.6297 26.713 50.3912 26.4189 50.3912C26.1247 50.3912 25.8862 50.6297 25.8862 50.9239C25.8862 51.218 26.1247 51.4565 26.4189 51.4565Z" fill="url(#paint29_linear_343_7309)"/>
</g>
<g opacity="0.5">
<path opacity="0.5" d="M120.554 62.8587C121.39 62.8587 122.068 62.1806 122.068 61.3442C122.068 60.5079 121.39 59.8298 120.554 59.8298C119.718 59.8298 119.04 60.5079 119.04 61.3442C119.04 62.1806 119.718 62.8587 120.554 62.8587Z" fill="url(#paint30_linear_343_7309)"/>
<path opacity="0.5" d="M120.954 57.735C121.614 57.735 122.149 57.1998 122.149 56.5395C122.149 55.8792 121.614 55.3439 120.954 55.3439C120.294 55.3439 119.758 55.8792 119.758 56.5395C119.758 57.1998 120.294 57.735 120.954 57.735Z" fill="url(#paint31_linear_343_7309)"/>
<path opacity="0.5" d="M115.967 59.0774C116.366 59.0774 116.688 58.7546 116.688 58.3565C116.688 57.9584 116.366 57.6356 115.967 57.6356C115.569 57.6356 115.247 57.9584 115.247 58.3565C115.247 58.7546 115.569 59.0774 115.967 59.0774Z" fill="url(#paint32_linear_343_7309)"/>
</g>
<g opacity="0.5">
<path opacity="0.5" d="M113.097 65.5987C113.715 65.5987 114.216 65.0977 114.216 64.4796C114.216 63.8615 113.715 63.3605 113.097 63.3605C112.479 63.3605 111.978 63.8615 111.978 64.4796C111.978 65.0977 112.479 65.5987 113.097 65.5987Z" fill="url(#paint33_linear_343_7309)"/>
<path opacity="0.5" d="M115.941 63.2163C116.429 63.2163 116.824 62.8207 116.824 62.3327C116.824 61.8448 116.429 61.4492 115.941 61.4492C115.453 61.4492 115.057 61.8448 115.057 62.3327C115.057 62.8207 115.453 63.2163 115.941 63.2163Z" fill="url(#paint34_linear_343_7309)"/>
<path opacity="0.5" d="M112.483 61.0145C112.777 61.0145 113.016 60.776 113.016 60.4819C113.016 60.1877 112.777 59.9492 112.483 59.9492C112.189 59.9492 111.95 60.1877 111.95 60.4819C111.95 60.776 112.189 61.0145 112.483 61.0145Z" fill="url(#paint35_linear_343_7309)"/>
</g>
<g opacity="0.5">
<path opacity="0.5" d="M45.563 62.483C46.181 62.483 46.6821 61.9819 46.6821 61.3639C46.6821 60.7458 46.181 60.2448 45.563 60.2448C44.9449 60.2448 44.4438 60.7458 44.4438 61.3639C44.4438 61.9819 44.9449 62.483 45.563 62.483Z" fill="url(#paint36_linear_343_7309)"/>
<path opacity="0.5" d="M42.2942 63.6645C42.7821 63.6645 43.1777 63.269 43.1777 62.781C43.1777 62.293 42.7821 61.8975 42.2942 61.8975C41.8062 61.8975 41.4106 62.293 41.4106 62.781C41.4106 63.269 41.8062 63.6645 42.2942 63.6645Z" fill="url(#paint37_linear_343_7309)"/>
<path opacity="0.5" d="M45.2187 65.9265C45.5129 65.9265 45.7513 65.688 45.7513 65.3939C45.7513 65.0997 45.5129 64.8612 45.2187 64.8612C44.9245 64.8612 44.686 65.0997 44.686 65.3939C44.686 65.688 44.9245 65.9265 45.2187 65.9265Z" fill="url(#paint38_linear_343_7309)"/>
</g>
</g>
<path d="M53.3923 70.4819C53.1362 70.4731 52.88 70.499 52.6312 70.5613C50.6776 71.051 41.407 73.6445 41.112 78.8401C40.9282 82.076 46.2741 83.0766 51.0456 83.3281C55.4029 83.5578 59.1626 81.2351 59.4179 78.1634C59.7067 74.6843 58.8441 70.6687 53.3923 70.4819V70.4819Z" fill="url(#paint39_linear_343_7309)"/>
<path d="M53.3923 70.4819C53.1362 70.4731 52.88 70.499 52.6312 70.5613C50.6776 71.051 41.407 73.6446 41.112 78.8401C40.9282 82.076 46.2741 83.0766 51.0456 83.3281C55.4026 83.5578 58.8441 70.6687 53.3923 70.4819V70.4819Z" fill="url(#paint40_linear_343_7309)"/>
<path d="M39.7188 79.3601C39.7188 81.7528 31.0547 81.7528 31.0547 79.3601C31.0547 76.9675 32.9944 75.0281 35.3867 75.0281C37.7791 75.0281 39.7188 76.9675 39.7188 79.3601Z" fill="url(#paint41_linear_343_7309)"/>
<defs>
<linearGradient id="paint0_linear_343_7309" x1="75.912" y1="88.1066" x2="76.7023" y2="101.144" gradientUnits="userSpaceOnUse">
<stop stop-color="#F8F6FB"/>
<stop offset="1" stop-color="#EFDCFB"/>
</linearGradient>
<linearGradient id="paint1_linear_343_7309" x1="69.4473" y1="44.6077" x2="83.5838" y2="97.9622" gradientUnits="userSpaceOnUse">
<stop stop-color="#F8F6FB"/>
<stop offset="1" stop-color="#EFDCFB"/>
</linearGradient>
<linearGradient id="paint2_linear_343_7309" x1="82.451" y1="98.0204" x2="58.1875" y2="-18.0031" gradientUnits="userSpaceOnUse">
<stop stop-color="#EFDCFB" stop-opacity="0"/>
<stop offset="0.0287" stop-color="#E9D6F7" stop-opacity="0.029"/>
<stop offset="0.2203" stop-color="#C5B5DE" stop-opacity="0.22"/>
<stop offset="0.4138" stop-color="#AA9BCB" stop-opacity="0.414"/>
<stop offset="0.6078" stop-color="#9688BD" stop-opacity="0.608"/>
<stop offset="0.8028" stop-color="#8A7DB5" stop-opacity="0.803"/>
<stop offset="1" stop-color="#8679B2"/>
</linearGradient>
<linearGradient id="paint3_linear_343_7309" x1="89.1886" y1="86.8816" x2="48.0121" y2="-31.6478" gradientUnits="userSpaceOnUse">
<stop stop-color="#EFDCFB" stop-opacity="0"/>
<stop offset="0.0287" stop-color="#E9D6F7" stop-opacity="0.029"/>
<stop offset="0.2203" stop-color="#C5B5DE" stop-opacity="0.22"/>
<stop offset="0.4138" stop-color="#AA9BCB" stop-opacity="0.414"/>
<stop offset="0.6078" stop-color="#9688BD" stop-opacity="0.608"/>
<stop offset="0.8028" stop-color="#8A7DB5" stop-opacity="0.803"/>
<stop offset="1" stop-color="#8679B2"/>
</linearGradient>
<linearGradient id="paint4_linear_343_7309" x1="48.3197" y1="91.603" x2="4.75998" y2="48.0435" gradientUnits="userSpaceOnUse">
<stop stop-color="#EFDCFB" stop-opacity="0"/>
<stop offset="0.0287" stop-color="#E9D6F7" stop-opacity="0.029"/>
<stop offset="0.2203" stop-color="#C5B5DE" stop-opacity="0.22"/>
<stop offset="0.4138" stop-color="#AA9BCB" stop-opacity="0.414"/>
<stop offset="0.6078" stop-color="#9688BD" stop-opacity="0.608"/>
<stop offset="0.8028" stop-color="#8A7DB5" stop-opacity="0.803"/>
<stop offset="1" stop-color="#8679B2"/>
</linearGradient>
<linearGradient id="paint5_linear_343_7309" x1="62.6264" y1="89.6862" x2="34.3911" y2="53.5098" gradientUnits="userSpaceOnUse">
<stop stop-color="#EFDCFB" stop-opacity="0"/>
<stop offset="0.0287" stop-color="#E9D6F7" stop-opacity="0.029"/>
<stop offset="0.2203" stop-color="#C5B5DE" stop-opacity="0.22"/>
<stop offset="0.4138" stop-color="#AA9BCB" stop-opacity="0.414"/>
<stop offset="0.6078" stop-color="#9688BD" stop-opacity="0.608"/>
<stop offset="0.8028" stop-color="#8A7DB5" stop-opacity="0.803"/>
<stop offset="1" stop-color="#8679B2"/>
</linearGradient>
<linearGradient id="paint6_linear_343_7309" x1="66.3499" y1="29.1499" x2="113.272" y2="111.401" gradientUnits="userSpaceOnUse">
<stop stop-color="#FFDECF"/>
<stop offset="0.3791" stop-color="#FDC4B0"/>
<stop offset="0.7655" stop-color="#FBAE97"/>
<stop offset="1" stop-color="#FAA68E"/>
</linearGradient>
<linearGradient id="paint7_linear_343_7309" x1="73.0119" y1="21.6504" x2="91.6737" y2="60.6148" gradientUnits="userSpaceOnUse">
<stop stop-color="#FFDECF"/>
<stop offset="0.3791" stop-color="#FDC4B0"/>
<stop offset="0.7655" stop-color="#FBAE97"/>
<stop offset="1" stop-color="#FAA68E"/>
</linearGradient>
<linearGradient id="paint8_linear_343_7309" x1="43.4976" y1="20.0924" x2="57.5807" y2="49.4969" gradientUnits="userSpaceOnUse">
<stop stop-color="#FFDECF"/>
<stop offset="0.3791" stop-color="#FDC4B0"/>
<stop offset="0.7655" stop-color="#FBAE97"/>
<stop offset="1" stop-color="#FAA68E"/>
</linearGradient>
<linearGradient id="paint9_linear_343_7309" x1="111.895" y1="29.9226" x2="72.4516" y2="-5.15127" gradientUnits="userSpaceOnUse">
<stop stop-color="#F82814" stop-opacity="0"/>
<stop offset="0.2458" stop-color="#F12817" stop-opacity="0.246"/>
<stop offset="0.608" stop-color="#DD2820" stop-opacity="0.608"/>
<stop offset="1" stop-color="#C0272D"/>
</linearGradient>
<linearGradient id="paint10_linear_343_7309" x1="65.257" y1="20.9685" x2="74.9242" y2="62.6706" gradientUnits="userSpaceOnUse">
<stop stop-color="#FAA68E"/>
<stop offset="0.3527" stop-color="#FAA38F"/>
<stop offset="0.651" stop-color="#FC9893"/>
<stop offset="0.9287" stop-color="#FE879A"/>
<stop offset="1" stop-color="#FF819C"/>
</linearGradient>
<linearGradient id="paint11_linear_343_7309" x1="66.2276" y1="48.3701" x2="79.6494" y2="85.9145" gradientUnits="userSpaceOnUse">
<stop stop-color="#A57C52"/>
<stop offset="0.1339" stop-color="#A26C4A"/>
<stop offset="0.5155" stop-color="#994336"/>
<stop offset="0.8174" stop-color="#942A2A"/>
<stop offset="1" stop-color="#922125"/>
</linearGradient>
<linearGradient id="paint12_linear_343_7309" x1="69.0201" y1="47.3718" x2="82.4416" y2="84.9163" gradientUnits="userSpaceOnUse">
<stop stop-color="#A57C52"/>
<stop offset="0.1339" stop-color="#A26C4A"/>
<stop offset="0.5155" stop-color="#994336"/>
<stop offset="0.8174" stop-color="#942A2A"/>
<stop offset="1" stop-color="#922125"/>
</linearGradient>
<linearGradient id="paint13_linear_343_7309" x1="121.681" y1="10.7614" x2="134.942" y2="38.4492" gradientUnits="userSpaceOnUse">
<stop stop-color="#FFDECF"/>
<stop offset="0.3791" stop-color="#FDC4B0"/>
<stop offset="0.7655" stop-color="#FBAE97"/>
<stop offset="1" stop-color="#FAA68E"/>
</linearGradient>
<linearGradient id="paint14_linear_343_7309" x1="73.2026" y1="9.27616" x2="71.8594" y2="11.9911" gradientUnits="userSpaceOnUse">
<stop stop-color="#BADA00"/>
<stop offset="0.2269" stop-color="#B0CE00"/>
<stop offset="0.6378" stop-color="#95AE00"/>
<stop offset="1" stop-color="#798C00"/>
</linearGradient>
<linearGradient id="paint15_linear_343_7309" x1="75.7857" y1="7.0206" x2="72.1638" y2="9.87847" gradientUnits="userSpaceOnUse">
<stop stop-color="#BADA00"/>
<stop offset="0.2269" stop-color="#B0CE00"/>
<stop offset="0.6378" stop-color="#95AE00"/>
<stop offset="1" stop-color="#798C00"/>
</linearGradient>
<linearGradient id="paint16_linear_343_7309" x1="80.9267" y1="11.8274" x2="88.4619" y2="17.8858" gradientUnits="userSpaceOnUse">
<stop stop-color="#FF6359"/>
<stop offset="0.2243" stop-color="#FE5B50"/>
<stop offset="0.5952" stop-color="#FC4637"/>
<stop offset="1" stop-color="#F82814"/>
</linearGradient>
<linearGradient id="paint17_linear_343_7309" x1="85.3464" y1="11.265" x2="81.0926" y2="4.0851" gradientUnits="userSpaceOnUse">
<stop stop-color="#FF6359"/>
<stop offset="0.2243" stop-color="#FE5B50"/>
<stop offset="0.5952" stop-color="#FC4637"/>
<stop offset="1" stop-color="#F82814"/>
</linearGradient>
<linearGradient id="paint18_linear_343_7309" x1="81.4211" y1="11.5436" x2="79.4961" y2="8.29421" gradientUnits="userSpaceOnUse">
<stop stop-color="#FF6359"/>
<stop offset="0.2243" stop-color="#FE5B50"/>
<stop offset="0.5952" stop-color="#FC4637"/>
<stop offset="1" stop-color="#F82814"/>
</linearGradient>
<linearGradient id="paint19_linear_343_7309" x1="84.6909" y1="13.4293" x2="82.7659" y2="10.1799" gradientUnits="userSpaceOnUse">
<stop stop-color="#FF6359"/>
<stop offset="0.2243" stop-color="#FE5B50"/>
<stop offset="0.5952" stop-color="#FC4637"/>
<stop offset="1" stop-color="#F82814"/>
</linearGradient>
<linearGradient id="paint20_linear_343_7309" x1="73.2531" y1="18.7671" x2="80.7882" y2="24.8256" gradientUnits="userSpaceOnUse">
<stop stop-color="#FF6359"/>
<stop offset="0.2243" stop-color="#FE5B50"/>
<stop offset="0.5952" stop-color="#FC4637"/>
<stop offset="1" stop-color="#F82814"/>
</linearGradient>
<linearGradient id="paint21_linear_343_7309" x1="77.6724" y1="18.2047" x2="73.4187" y2="11.0245" gradientUnits="userSpaceOnUse">
<stop stop-color="#FF6359"/>
<stop offset="0.2243" stop-color="#FE5B50"/>
<stop offset="0.5952" stop-color="#FC4637"/>
<stop offset="1" stop-color="#F82814"/>
</linearGradient>
<linearGradient id="paint22_linear_343_7309" x1="73.7474" y1="18.483" x2="71.8222" y2="15.2339" gradientUnits="userSpaceOnUse">
<stop stop-color="#FF6359"/>
<stop offset="0.2243" stop-color="#FE5B50"/>
<stop offset="0.5952" stop-color="#FC4637"/>
<stop offset="1" stop-color="#F82814"/>
</linearGradient>
<linearGradient id="paint23_linear_343_7309" x1="77.0173" y1="20.369" x2="75.0923" y2="17.1196" gradientUnits="userSpaceOnUse">
<stop stop-color="#FF6359"/>
<stop offset="0.2243" stop-color="#FE5B50"/>
<stop offset="0.5952" stop-color="#FC4637"/>
<stop offset="1" stop-color="#F82814"/>
</linearGradient>
<linearGradient id="paint24_linear_343_7309" x1="20.1936" y1="50.0016" x2="14.707" y2="45.3852" gradientUnits="userSpaceOnUse">
<stop stop-color="#42210B" stop-opacity="0"/>
<stop offset="1" stop-color="#42210B"/>
</linearGradient>
<linearGradient id="paint25_linear_343_7309" x1="18.2992" y1="54.265" x2="13.9679" y2="50.6204" gradientUnits="userSpaceOnUse">
<stop stop-color="#42210B" stop-opacity="0"/>
<stop offset="1" stop-color="#42210B"/>
</linearGradient>
<linearGradient id="paint26_linear_343_7309" x1="23.0213" y1="53.2096" x2="20.4101" y2="51.0123" gradientUnits="userSpaceOnUse">
<stop stop-color="#42210B" stop-opacity="0"/>
<stop offset="1" stop-color="#42210B"/>
</linearGradient>
<linearGradient id="paint27_linear_343_7309" x1="26.8179" y1="49.0006" x2="26.6549" y2="43.7037" gradientUnits="userSpaceOnUse">
<stop stop-color="#42210B" stop-opacity="0"/>
<stop offset="1" stop-color="#42210B"/>
</linearGradient>
<linearGradient id="paint28_linear_343_7309" x1="23.5371" y1="50.0596" x2="23.4082" y2="45.8781" gradientUnits="userSpaceOnUse">
<stop stop-color="#42210B" stop-opacity="0"/>
<stop offset="1" stop-color="#42210B"/>
</linearGradient>
<linearGradient id="paint29_linear_343_7309" x1="26.4465" y1="52.1395" x2="26.3687" y2="49.6185" gradientUnits="userSpaceOnUse">
<stop stop-color="#42210B" stop-opacity="0"/>
<stop offset="1" stop-color="#42210B"/>
</linearGradient>
<linearGradient id="paint30_linear_343_7309" x1="118.102" y1="60.3496" x2="124.523" y2="63.5409" gradientUnits="userSpaceOnUse">
<stop stop-color="#42210B" stop-opacity="0"/>
<stop offset="1" stop-color="#42210B"/>
</linearGradient>
<linearGradient id="paint31_linear_343_7309" x1="118.936" y1="55.7597" x2="124.005" y2="58.2792" gradientUnits="userSpaceOnUse">
<stop stop-color="#42210B" stop-opacity="0"/>
<stop offset="1" stop-color="#42210B"/>
</linearGradient>
<linearGradient id="paint32_linear_343_7309" x1="114.597" y1="57.8999" x2="117.653" y2="59.4186" gradientUnits="userSpaceOnUse">
<stop stop-color="#42210B" stop-opacity="0"/>
<stop offset="1" stop-color="#42210B"/>
</linearGradient>
<linearGradient id="paint33_linear_343_7309" x1="112.8" y1="62.8869" x2="114.204" y2="67.9939" gradientUnits="userSpaceOnUse">
<stop stop-color="#42210B" stop-opacity="0"/>
<stop offset="1" stop-color="#42210B"/>
</linearGradient>
<linearGradient id="paint34_linear_343_7309" x1="115.738" y1="61.0861" x2="116.847" y2="65.1178" gradientUnits="userSpaceOnUse">
<stop stop-color="#42210B" stop-opacity="0"/>
<stop offset="1" stop-color="#42210B"/>
</linearGradient>
<linearGradient id="paint35_linear_343_7309" x1="112.423" y1="59.75" x2="113.091" y2="62.1806" gradientUnits="userSpaceOnUse">
<stop stop-color="#42210B" stop-opacity="0"/>
<stop offset="1" stop-color="#42210B"/>
</linearGradient>
<linearGradient id="paint36_linear_343_7309" x1="45.6265" y1="63.4759" x2="45.4632" y2="58.1788" gradientUnits="userSpaceOnUse">
<stop stop-color="#42210B" stop-opacity="0"/>
<stop offset="1" stop-color="#42210B"/>
</linearGradient>
<linearGradient id="paint37_linear_343_7309" x1="42.3453" y1="64.535" x2="42.2166" y2="60.3532" gradientUnits="userSpaceOnUse">
<stop stop-color="#42210B" stop-opacity="0"/>
<stop offset="1" stop-color="#42210B"/>
</linearGradient>
<linearGradient id="paint38_linear_343_7309" x1="45.2548" y1="66.6146" x2="45.1773" y2="64.0937" gradientUnits="userSpaceOnUse">
<stop stop-color="#42210B" stop-opacity="0"/>
<stop offset="1" stop-color="#42210B"/>
</linearGradient>
<linearGradient id="paint39_linear_343_7309" x1="49.5206" y1="75.0666" x2="52.0764" y2="82.9666" gradientUnits="userSpaceOnUse">
<stop stop-color="#FAA68E"/>
<stop offset="0.3527" stop-color="#FAA38F"/>
<stop offset="0.651" stop-color="#FC9893"/>
<stop offset="0.9287" stop-color="#FE879A"/>
<stop offset="1" stop-color="#FF819C"/>
</linearGradient>
<linearGradient id="paint40_linear_343_7309" x1="48.1714" y1="75.7231" x2="53.232" y2="80.1637" gradientUnits="userSpaceOnUse">
<stop stop-color="#FAA68E"/>
<stop offset="0.3527" stop-color="#FAA38F"/>
<stop offset="0.651" stop-color="#FC9893"/>
<stop offset="0.9287" stop-color="#FE879A"/>
<stop offset="1" stop-color="#FF819C"/>
</linearGradient>
<linearGradient id="paint41_linear_343_7309" x1="33.422" y1="75.174" x2="37.0985" y2="82.2328" gradientUnits="userSpaceOnUse">
<stop stop-color="#FFDECF"/>
<stop offset="0.3791" stop-color="#FDC4B0"/>
<stop offset="0.7655" stop-color="#FBAE97"/>
<stop offset="1" stop-color="#FAA68E"/>
</linearGradient>
</defs>
</svg>
