<svg width="151" height="122" viewBox="0 0 151 122" fill="none" xmlns="http://www.w3.org/2000/svg">
<path d="M145.8 59.4548C148.462 57.9277 150.132 55.1233 150.132 52.055V45.613C150.132 11.9342 133.094 2.96093 126.221 0.711807C124.652 0.196807 122.985 0.0709248 121.353 0.342101L107.086 2.72534C105.654 2.96445 104.377 3.78681 103.599 5.01269C100.677 9.61946 95.5337 12.6783 89.674 12.6783C85.7837 12.6783 82.2105 11.3286 79.3919 9.07387C78.2519 8.16181 76.7728 7.78887 75.3328 8.02946L7.11634 19.425C3.08575 20.0974 0.132813 23.585 0.132813 27.6745V51.3386C0.132813 53.9639 1.37958 56.4006 3.42252 58.0498C7.10693 61.0236 9.46399 65.5771 9.46399 70.6842C9.46399 75.788 7.10693 80.3409 3.42252 83.3148C1.37958 84.9639 0.132812 87.4006 0.132812 90.0259V90.1445C0.132812 94.8789 3.55369 98.9209 8.22517 99.6995L138.851 121.492C144.757 122.474 150.132 117.921 150.132 111.932V95.023C150.132 91.9545 148.462 89.1503 145.8 87.6233C140.922 84.8242 137.636 79.5645 137.636 73.5389C137.636 67.5136 140.922 62.2539 145.8 59.4548Z" fill="url(#paint0_linear_343_7879)"/>
<path d="M126.223 0.709955C124.653 0.195837 122.984 0.0717199 121.354 0.344073L107.086 2.72731C105.654 2.96643 104.377 3.78849 103.599 5.01437C100.676 9.62025 95.5336 12.6785 89.6745 12.6785C85.7845 12.6785 82.2118 11.3291 79.3933 9.07466C78.2533 8.1629 76.7745 7.78996 75.3348 8.03054L7.11772 19.4247C5.68037 19.6647 4.38419 20.2676 3.30566 21.1232L150.133 45.7385V45.6135C150.133 11.9332 133.096 2.95966 126.223 0.709955Z" fill="url(#paint1_linear_343_7879)"/>
<path d="M102.208 100.808C110.219 100.808 116.714 94.3135 116.714 86.3024C116.714 78.2914 110.219 71.7971 102.208 71.7971C94.1974 71.7971 87.7031 78.2914 87.7031 86.3024C87.7031 94.3135 94.1974 100.808 102.208 100.808Z" fill="url(#paint2_linear_343_7879)"/>
<path d="M50.807 37.9987C56.0922 37.9987 60.3767 33.7142 60.3767 28.429C60.3767 23.1438 56.0922 18.8593 50.807 18.8593C45.5218 18.8593 41.2373 23.1438 41.2373 28.429C41.2373 33.7142 45.5218 37.9987 50.807 37.9987Z" fill="url(#paint3_linear_343_7879)"/>
<path d="M80.2535 74.0254C85.5982 74.0254 89.9309 69.6927 89.9309 64.348C89.9309 59.0033 85.5982 54.6707 80.2535 54.6707C74.9089 54.6707 70.5762 59.0033 70.5762 64.348C70.5762 69.6927 74.9089 74.0254 80.2535 74.0254Z" fill="url(#paint4_linear_343_7879)"/>
<path d="M122.831 67.0339C128.175 67.0339 132.508 62.7012 132.508 57.3565C132.508 52.0119 128.175 47.6792 122.831 47.6792C117.486 47.6792 113.153 52.0119 113.153 57.3565C113.153 62.7012 117.486 67.0339 122.831 67.0339Z" fill="url(#paint5_linear_343_7879)"/>
<path d="M26.6236 87.9542C31.9683 87.9542 36.301 83.6215 36.301 78.2768C36.301 72.9322 31.9683 68.5995 26.6236 68.5995C21.279 68.5995 16.9463 72.9322 16.9463 78.2768C16.9463 83.6215 21.279 87.9542 26.6236 87.9542Z" fill="url(#paint6_linear_343_7879)"/>
<path d="M122.831 23.7183C128.175 23.7183 132.508 19.3857 132.508 14.041C132.508 8.69634 128.175 4.36365 122.831 4.36365C117.486 4.36365 113.153 8.69634 113.153 14.041C113.153 19.3857 117.486 23.7183 122.831 23.7183Z" fill="url(#paint7_linear_343_7879)"/>
<path d="M73.7493 22.2607C76.7299 22.2607 79.1461 19.8445 79.1461 16.8639C79.1461 13.8834 76.7299 11.4672 73.7493 11.4672C70.7688 11.4672 68.3525 13.8834 68.3525 16.8639C68.3525 19.8445 70.7688 22.2607 73.7493 22.2607Z" fill="url(#paint8_linear_343_7879)"/>
<path d="M132.113 37.9986C135.093 37.9986 137.509 35.5824 137.509 32.6018C137.509 29.6213 135.093 27.2051 132.113 27.2051C129.132 27.2051 126.716 29.6213 126.716 32.6018C126.716 35.5824 129.132 37.9986 132.113 37.9986Z" fill="url(#paint9_linear_343_7879)"/>
<path d="M16.9466 40.9638C19.9271 40.9638 22.3433 38.5476 22.3433 35.5671C22.3433 32.5865 19.9271 30.1703 16.9466 30.1703C13.966 30.1703 11.5498 32.5865 11.5498 35.5671C11.5498 38.5476 13.966 40.9638 16.9466 40.9638Z" fill="url(#paint10_linear_343_7879)"/>
<path d="M7.99987 77.413C6.94605 79.7203 5.37311 81.7403 3.42222 83.315C1.37958 84.9638 0.132812 87.4006 0.132812 90.0259V90.1444C0.132812 94.8788 3.55369 98.9209 8.22517 99.6994L138.851 121.492C144.757 122.474 150.132 117.921 150.132 111.932V101.124L7.99987 77.413Z" fill="url(#paint11_linear_343_7879)"/>
<path d="M40.7509 94.2762C38.1897 94.9179 29.0053 97.4653 23.3809 102.228L62.0194 108.674L50.6932 97.3476C48.9194 95.5012 46.2173 94.2632 42.1959 94.1253C41.7094 94.1088 41.2229 94.1579 40.7509 94.2762Z" fill="url(#paint12_linear_343_7879)"/>
<path d="M42.1964 94.1254C41.71 94.1086 41.2235 94.158 40.7514 94.2763C37.0423 95.206 19.4411 100.13 18.8808 109.995C18.5317 116.139 28.6814 118.038 37.7405 118.516C46.0132 118.952 53.1514 114.542 53.6361 108.71C54.1853 102.104 52.5473 94.4804 42.1964 94.1254Z" fill="url(#paint13_linear_343_7879)"/>
<path d="M42.1964 94.1254C41.7099 94.1086 41.2235 94.158 40.7514 94.2763C37.0423 95.206 19.4411 100.13 18.8808 109.995C18.5317 116.139 28.6814 118.038 37.7405 118.516C46.0132 118.952 52.5473 94.4804 42.1964 94.1254Z" fill="url(#paint14_linear_343_7879)"/>
<path d="M17.4857 111.234C17.4857 114.158 6.89746 114.158 6.89746 111.234C6.89746 108.311 9.26776 105.94 12.1916 105.94C15.1154 105.94 17.4857 108.311 17.4857 111.234Z" fill="url(#paint15_linear_343_7879)"/>
<defs>
<linearGradient id="paint0_linear_343_7879" x1="0.132813" y1="60.9142" x2="150.132" y2="60.9142" gradientUnits="userSpaceOnUse">
<stop stop-color="#FFD945"/>
<stop offset="0.3043" stop-color="#FFCD3E"/>
<stop offset="0.8558" stop-color="#FFAD2B"/>
<stop offset="1" stop-color="#FFA325"/>
</linearGradient>
<linearGradient id="paint1_linear_343_7879" x1="74.5336" y1="11.9211" x2="77.9413" y2="41.2811" gradientUnits="userSpaceOnUse">
<stop stop-color="#FFD945"/>
<stop offset="0.3043" stop-color="#FFCD3E"/>
<stop offset="0.8558" stop-color="#FFAD2B"/>
<stop offset="1" stop-color="#FFA325"/>
</linearGradient>
<linearGradient id="paint2_linear_343_7879" x1="106.774" y1="93.4889" x2="85.5402" y2="60.0657" gradientUnits="userSpaceOnUse">
<stop stop-color="#FFA936"/>
<stop offset="0.4112" stop-color="#FF8548"/>
<stop offset="0.7781" stop-color="#FF6C54"/>
<stop offset="1" stop-color="#FF6359"/>
</linearGradient>
<linearGradient id="paint3_linear_343_7879" x1="52.8964" y1="38.8151" x2="45.5214" y2="2.1566" gradientUnits="userSpaceOnUse">
<stop stop-color="#F82814" stop-opacity="0"/>
<stop offset="1" stop-color="#C0272D"/>
</linearGradient>
<linearGradient id="paint4_linear_343_7879" x1="83.2994" y1="69.1424" x2="69.1335" y2="46.8439" gradientUnits="userSpaceOnUse">
<stop stop-color="#FFA936"/>
<stop offset="0.4112" stop-color="#FF8548"/>
<stop offset="0.7781" stop-color="#FF6C54"/>
<stop offset="1" stop-color="#FF6359"/>
</linearGradient>
<linearGradient id="paint5_linear_343_7879" x1="125.877" y1="62.151" x2="111.71" y2="39.8527" gradientUnits="userSpaceOnUse">
<stop stop-color="#FFA936"/>
<stop offset="0.4112" stop-color="#FF8548"/>
<stop offset="0.7781" stop-color="#FF6C54"/>
<stop offset="1" stop-color="#FF6359"/>
</linearGradient>
<linearGradient id="paint6_linear_343_7879" x1="37.3428" y1="88.996" x2="17.4845" y2="69.1377" gradientUnits="userSpaceOnUse">
<stop stop-color="#FFD945"/>
<stop offset="0.3043" stop-color="#FFCD3E"/>
<stop offset="0.8558" stop-color="#FFAD2B"/>
<stop offset="1" stop-color="#FFA325"/>
</linearGradient>
<linearGradient id="paint7_linear_343_7879" x1="133.55" y1="24.7604" x2="113.692" y2="4.90216" gradientUnits="userSpaceOnUse">
<stop stop-color="#FFD945"/>
<stop offset="0.3043" stop-color="#FFCD3E"/>
<stop offset="0.8558" stop-color="#FFAD2B"/>
<stop offset="1" stop-color="#FFA325"/>
</linearGradient>
<linearGradient id="paint8_linear_343_7879" x1="79.7272" y1="22.8419" x2="68.6525" y2="11.7672" gradientUnits="userSpaceOnUse">
<stop stop-color="#FFD945"/>
<stop offset="0.3043" stop-color="#FFCD3E"/>
<stop offset="0.8558" stop-color="#FFAD2B"/>
<stop offset="1" stop-color="#FFA325"/>
</linearGradient>
<linearGradient id="paint9_linear_343_7879" x1="138.091" y1="38.5798" x2="127.016" y2="27.5051" gradientUnits="userSpaceOnUse">
<stop stop-color="#FFD945"/>
<stop offset="0.3043" stop-color="#FFCD3E"/>
<stop offset="0.8558" stop-color="#FFAD2B"/>
<stop offset="1" stop-color="#FFA325"/>
</linearGradient>
<linearGradient id="paint10_linear_343_7879" x1="22.9245" y1="41.545" x2="11.8498" y2="30.4706" gradientUnits="userSpaceOnUse">
<stop stop-color="#FFD945"/>
<stop offset="0.3043" stop-color="#FFCD3E"/>
<stop offset="0.8558" stop-color="#FFAD2B"/>
<stop offset="1" stop-color="#FFA325"/>
</linearGradient>
<linearGradient id="paint11_linear_343_7879" x1="75.4578" y1="98.9071" x2="69.149" y2="140.265" gradientUnits="userSpaceOnUse">
<stop stop-color="#F82814" stop-opacity="0"/>
<stop offset="1" stop-color="#C0272D"/>
</linearGradient>
<linearGradient id="paint12_linear_343_7879" x1="56.207" y1="118.957" x2="22.0247" y2="84.7741" gradientUnits="userSpaceOnUse">
<stop stop-color="#F82814" stop-opacity="0"/>
<stop offset="1" stop-color="#C0272D"/>
</linearGradient>
<linearGradient id="paint13_linear_343_7879" x1="34.8458" y1="102.83" x2="39.6985" y2="117.829" gradientUnits="userSpaceOnUse">
<stop stop-color="#FFD945"/>
<stop offset="0.3043" stop-color="#FFCD3E"/>
<stop offset="0.8558" stop-color="#FFAD2B"/>
<stop offset="1" stop-color="#FFA325"/>
</linearGradient>
<linearGradient id="paint14_linear_343_7879" x1="32.2844" y1="104.076" x2="41.8923" y2="112.508" gradientUnits="userSpaceOnUse">
<stop stop-color="#FFD945"/>
<stop offset="0.3043" stop-color="#FFCD3E"/>
<stop offset="0.8558" stop-color="#FFAD2B"/>
<stop offset="1" stop-color="#FFA325"/>
</linearGradient>
<linearGradient id="paint15_linear_343_7879" x1="11.1316" y1="109.386" x2="15.0151" y2="112.794" gradientUnits="userSpaceOnUse">
<stop stop-color="#FFD945"/>
<stop offset="0.3043" stop-color="#FFCD3E"/>
<stop offset="0.8558" stop-color="#FFAD2B"/>
<stop offset="1" stop-color="#FFA325"/>
</linearGradient>
</defs>
</svg>
