<svg width="25" height="21" viewBox="0 0 25 21" fill="none" xmlns="http://www.w3.org/2000/svg">
<path d="M21.3961 2.93556C20.8582 2.42456 20.2195 2.0192 19.5165 1.74264C18.8136 1.46608 18.0602 1.32373 17.2993 1.32373C16.5384 1.32373 15.7849 1.46608 15.082 1.74264C14.379 2.0192 13.7404 2.42456 13.2024 2.93556L12.0861 3.99556L10.9697 2.93556C9.8832 1.90386 8.40953 1.32427 6.87293 1.32427C5.33633 1.32427 3.86266 1.90386 2.77612 2.93556C1.68958 3.96725 1.07916 5.36652 1.07916 6.82556C1.07916 8.28459 1.68958 9.68386 2.77612 10.7156L3.89247 11.7756L12.0861 19.5556L20.2797 11.7756L21.3961 10.7156C21.9342 10.2048 22.3611 9.59837 22.6524 8.93091C22.9437 8.26345 23.0936 7.54804 23.0936 6.82556C23.0936 6.10307 22.9437 5.38766 22.6524 4.7202C22.3611 4.05274 21.9342 3.44631 21.3961 2.93556V2.93556Z" stroke="#36a7889" stroke-width="2" stroke-linecap="round" stroke-linejoin="round"/>
</svg>
