<svg width="151" height="142" viewBox="0 0 151 142" fill="none" xmlns="http://www.w3.org/2000/svg">
<path d="M61.9639 38.2923C60.3512 36.6797 60.3512 34.0656 61.9639 32.4529L92.7571 1.65968C94.3698 0.0470335 96.9839 0.0470335 98.5965 1.65968C100.209 3.27233 100.209 5.88645 98.5965 7.49909L67.8033 38.2923C66.1909 39.905 63.5765 39.905 61.9639 38.2923Z" fill="url(#paint0_linear_343_7277)"/>
<path d="M75.8776 45.0603C87.7769 45.0603 97.4232 35.414 97.4232 23.5147C97.4232 11.6154 87.7769 1.96912 75.8776 1.96912C63.9783 1.96912 54.332 11.6154 54.332 23.5147C54.332 35.414 63.9783 45.0603 75.8776 45.0603Z" fill="url(#paint1_radial_343_7277)"/>
<path d="M88.0786 41.2697L73.1054 26.2868C68.0604 21.2418 61.136 19.2253 54.5857 20.2303C53.5807 26.7806 55.5968 33.7047 60.6421 38.75C68.1077 46.215 79.6854 47.0512 88.0786 41.2697Z" fill="url(#paint2_linear_343_7277)"/>
<path d="M57.8703 63.0674C69.7696 63.0674 79.4159 53.4211 79.4159 41.5218C79.4159 29.6225 69.7696 19.9762 57.8703 19.9762C45.971 19.9762 36.3247 29.6225 36.3247 41.5218C36.3247 53.4211 45.971 63.0674 57.8703 63.0674Z" fill="url(#paint3_radial_343_7277)"/>
<path d="M70.0718 59.2764L55.0985 44.2935C50.0535 39.2485 43.1291 37.232 36.5788 38.237C35.5738 44.7873 37.59 51.7114 42.6353 56.7567C50.1006 64.222 61.6782 65.0582 70.0718 59.2764Z" fill="url(#paint4_linear_343_7277)"/>
<path d="M39.8635 81.0743C51.7628 81.0743 61.409 71.428 61.409 59.5287C61.409 47.6294 51.7628 37.9832 39.8635 37.9832C27.9642 37.9832 18.3179 47.6294 18.3179 59.5287C18.3179 71.428 27.9642 81.0743 39.8635 81.0743Z" fill="url(#paint5_radial_343_7277)"/>
<path d="M27.3507 67.0656L22.3457 72.0706C23.0225 73.0135 23.7804 73.9162 24.6278 74.7638C30.4754 80.6115 38.8469 82.3906 46.2348 80.1103L33.1901 67.0656C31.5778 65.4532 28.9634 65.4532 27.3507 67.0656Z" fill="url(#paint6_linear_343_7277)"/>
<path d="M1.52394 98.7324C-0.0887087 97.1198 -0.0887087 94.5053 1.52394 92.893L27.351 67.0659C28.9636 65.4533 31.5778 65.4533 33.1904 67.0659C34.8031 68.6786 34.8031 71.2927 33.1904 72.9053L7.36335 98.7324C5.7507 100.345 3.13629 100.345 1.52394 98.7324Z" fill="url(#paint7_linear_343_7277)"/>
<path d="M105.736 40.2051C104.124 38.5924 104.124 35.9783 105.736 34.3656L136.53 3.5724C138.142 1.95975 140.756 1.95975 142.369 3.5724C143.982 5.18505 143.982 7.79917 142.369 9.41181L111.576 40.2051C109.963 41.8177 107.349 41.8177 105.736 40.2051Z" fill="url(#paint8_linear_343_7277)"/>
<path d="M119.65 46.9733C131.549 46.9733 141.196 37.327 141.196 25.4277C141.196 13.5284 131.549 3.88208 119.65 3.88208C107.751 3.88208 98.1045 13.5284 98.1045 25.4277C98.1045 37.327 107.751 46.9733 119.65 46.9733Z" fill="url(#paint9_radial_343_7277)"/>
<path d="M131.851 43.1823L116.878 28.1994C111.833 23.1544 104.908 21.1379 98.3581 22.1429C97.3531 28.6932 99.3693 35.6173 104.415 40.6626C111.88 48.1279 123.458 48.9638 131.851 43.1823Z" fill="url(#paint10_linear_343_7277)"/>
<path d="M101.643 64.98C113.542 64.98 123.188 55.3337 123.188 43.4344C123.188 31.5351 113.542 21.8888 101.643 21.8888C89.7435 21.8888 80.0972 31.5351 80.0972 43.4344C80.0972 55.3337 89.7435 64.98 101.643 64.98Z" fill="url(#paint11_radial_343_7277)"/>
<path d="M113.844 61.1894L98.8705 46.2064C93.8255 41.1614 86.9011 39.145 80.3508 40.15C79.3458 46.7003 81.362 53.6244 86.4073 58.6697C93.8729 66.135 105.451 66.9709 113.844 61.1894Z" fill="url(#paint12_linear_343_7277)"/>
<path d="M83.6354 82.9871C95.5347 82.9871 105.181 73.3408 105.181 61.4415C105.181 49.5422 95.5347 39.8959 83.6354 39.8959C71.7361 39.8959 62.0898 49.5422 62.0898 61.4415C62.0898 73.3408 71.7361 82.9871 83.6354 82.9871Z" fill="url(#paint13_radial_343_7277)"/>
<path d="M71.1232 68.9786L66.1182 73.9836C66.7949 74.9266 67.5529 75.8292 68.4002 76.6769C74.2479 82.5245 82.6193 84.3036 90.0073 82.0233L76.9626 68.9786C75.3499 67.366 72.7355 67.366 71.1232 68.9786Z" fill="url(#paint14_linear_343_7277)"/>
<path d="M45.2964 100.645C43.6838 99.0325 43.6838 96.4184 45.2964 94.8057L71.1235 68.9787C72.7361 67.366 75.3502 67.366 76.9629 68.9787C78.5755 70.5913 78.5755 73.2054 76.9629 74.8181L51.1358 100.645C49.5232 102.258 46.9088 102.258 45.2964 100.645Z" fill="url(#paint15_linear_343_7277)"/>
<path d="M112.473 79.9323C110.86 78.3197 110.86 75.7053 112.473 74.0929L143.266 43.2997C144.879 41.687 147.493 41.687 149.105 43.2997C150.718 44.9123 150.718 47.5265 149.105 49.1391L118.312 79.9323C116.699 81.5447 114.085 81.5447 112.473 79.9323Z" fill="url(#paint16_linear_343_7277)"/>
<path d="M126.386 86.7003C138.286 86.7003 147.932 77.054 147.932 65.1547C147.932 53.2554 138.286 43.6091 126.386 43.6091C114.487 43.6091 104.841 53.2554 104.841 65.1547C104.841 77.054 114.487 86.7003 126.386 86.7003Z" fill="url(#paint17_radial_343_7277)"/>
<path d="M138.587 82.9095L123.614 67.9265C118.569 62.8815 111.645 60.8651 105.094 61.8701C104.089 68.4204 106.106 75.3445 111.151 80.3898C118.616 87.8551 130.194 88.691 138.587 82.9095Z" fill="url(#paint18_linear_343_7277)"/>
<path d="M108.379 104.707C120.278 104.707 129.925 95.0608 129.925 83.1614C129.925 71.2621 120.278 61.6158 108.379 61.6158C96.4798 61.6158 86.8335 71.2621 86.8335 83.1614C86.8335 95.0608 96.4798 104.707 108.379 104.707Z" fill="url(#paint19_radial_343_7277)"/>
<path d="M120.58 100.916L105.607 85.9335C100.562 80.8885 93.6374 78.872 87.0871 79.877C86.0821 86.4273 88.0983 93.3514 93.1436 98.3967C100.609 105.862 112.187 106.698 120.58 100.916Z" fill="url(#paint20_linear_343_7277)"/>
<path d="M90.3718 122.714C102.271 122.714 111.917 113.068 111.917 101.169C111.917 89.2692 102.271 79.6229 90.3718 79.6229C78.4725 79.6229 68.8262 89.2692 68.8262 101.169C68.8262 113.068 78.4725 122.714 90.3718 122.714Z" fill="url(#paint21_radial_343_7277)"/>
<path d="M77.8595 108.706L72.8545 113.711C73.5313 114.654 74.2892 115.556 75.1366 116.404C80.9842 122.251 89.3557 124.031 96.7436 121.75L83.6989 108.706C82.0863 107.093 79.4718 107.093 77.8595 108.706Z" fill="url(#paint22_linear_343_7277)"/>
<path d="M52.0327 140.372C50.4201 138.759 50.4201 136.145 52.0327 134.533L77.8598 108.706C79.4724 107.093 82.0866 107.093 83.6992 108.706C85.3119 110.318 85.3119 112.932 83.6992 114.545L57.8721 140.372C56.2595 141.985 53.6451 141.985 52.0327 140.372Z" fill="url(#paint23_linear_343_7277)"/>
<defs>
<linearGradient id="paint0_linear_343_7277" x1="78.5269" y1="18.237" x2="89.757" y2="29.467" gradientUnits="userSpaceOnUse">
<stop stop-color="#A57C52"/>
<stop offset="0.1339" stop-color="#A26C4A"/>
<stop offset="0.5155" stop-color="#994336"/>
<stop offset="0.8174" stop-color="#942A2A"/>
<stop offset="1" stop-color="#922125"/>
</linearGradient>
<radialGradient id="paint1_radial_343_7277" cx="0" cy="0" r="1" gradientUnits="userSpaceOnUse" gradientTransform="translate(72.0003 12.8605) rotate(45) scale(29.7046)">
<stop stop-color="#BADA00"/>
<stop offset="0.3706" stop-color="#B8D800"/>
<stop offset="0.5625" stop-color="#B2D000"/>
<stop offset="0.7133" stop-color="#A6C300"/>
<stop offset="0.8428" stop-color="#97B000"/>
<stop offset="0.9575" stop-color="#829700"/>
<stop offset="1" stop-color="#798C00"/>
</radialGradient>
<linearGradient id="paint2_linear_343_7277" x1="81.2583" y1="46.9027" x2="52.5198" y2="18.1641" gradientUnits="userSpaceOnUse">
<stop stop-color="#798C00" stop-opacity="0"/>
<stop offset="0.6542" stop-color="#556100" stop-opacity="0.654"/>
<stop offset="1" stop-color="#464F00"/>
</linearGradient>
<radialGradient id="paint3_radial_343_7277" cx="0" cy="0" r="1" gradientUnits="userSpaceOnUse" gradientTransform="translate(50.5818 26.2787) rotate(45) scale(29.7046)">
<stop stop-color="#F8F6FB"/>
<stop offset="0.5047" stop-color="#F7F4FB"/>
<stop offset="0.7657" stop-color="#F5ECFB"/>
<stop offset="0.9705" stop-color="#F0DFFB"/>
<stop offset="1" stop-color="#EFDCFB"/>
</radialGradient>
<linearGradient id="paint4_linear_343_7277" x1="63.2515" y1="64.9097" x2="34.5127" y2="36.1708" gradientUnits="userSpaceOnUse">
<stop stop-color="#EFDCFB" stop-opacity="0"/>
<stop offset="0.0287" stop-color="#E9D6F7" stop-opacity="0.029"/>
<stop offset="0.2203" stop-color="#C5B5DE" stop-opacity="0.22"/>
<stop offset="0.4138" stop-color="#AA9BCB" stop-opacity="0.414"/>
<stop offset="0.6078" stop-color="#9688BD" stop-opacity="0.608"/>
<stop offset="0.8028" stop-color="#8A7DB5" stop-opacity="0.803"/>
<stop offset="1" stop-color="#8679B2"/>
</linearGradient>
<radialGradient id="paint5_radial_343_7277" cx="0" cy="0" r="1" gradientUnits="userSpaceOnUse" gradientTransform="translate(34.1017 45.4314) scale(31.4144)">
<stop stop-color="#FAA68E"/>
<stop offset="0.4571" stop-color="#FAA48F"/>
<stop offset="0.6937" stop-color="#FB9C92"/>
<stop offset="0.8791" stop-color="#FD8F97"/>
<stop offset="1" stop-color="#FF819C"/>
</radialGradient>
<linearGradient id="paint6_linear_343_7277" x1="38.6934" y1="80.6994" x2="22.7625" y2="64.7682" gradientUnits="userSpaceOnUse">
<stop stop-color="#F82814" stop-opacity="0"/>
<stop offset="1" stop-color="#C0272D"/>
</linearGradient>
<linearGradient id="paint7_linear_343_7277" x1="15.6133" y1="81.1505" x2="26.8433" y2="92.3805" gradientUnits="userSpaceOnUse">
<stop stop-color="#A57C52"/>
<stop offset="0.1339" stop-color="#A26C4A"/>
<stop offset="0.5155" stop-color="#994336"/>
<stop offset="0.8174" stop-color="#942A2A"/>
<stop offset="1" stop-color="#922125"/>
</linearGradient>
<linearGradient id="paint8_linear_343_7277" x1="122.292" y1="20.1495" x2="133.523" y2="31.3795" gradientUnits="userSpaceOnUse">
<stop stop-color="#A57C52"/>
<stop offset="0.1339" stop-color="#A26C4A"/>
<stop offset="0.5155" stop-color="#994336"/>
<stop offset="0.8174" stop-color="#942A2A"/>
<stop offset="1" stop-color="#922125"/>
</linearGradient>
<radialGradient id="paint9_radial_343_7277" cx="0" cy="0" r="1" gradientUnits="userSpaceOnUse" gradientTransform="translate(116.469 13.716) rotate(45) scale(29.7046)">
<stop stop-color="#F8F6FB"/>
<stop offset="0.5047" stop-color="#F7F4FB"/>
<stop offset="0.7657" stop-color="#F5ECFB"/>
<stop offset="0.9705" stop-color="#F0DFFB"/>
<stop offset="1" stop-color="#EFDCFB"/>
</radialGradient>
<linearGradient id="paint10_linear_343_7277" x1="125.031" y1="48.8155" x2="96.2922" y2="20.0767" gradientUnits="userSpaceOnUse">
<stop stop-color="#EFDCFB" stop-opacity="0"/>
<stop offset="0.0287" stop-color="#E9D6F7" stop-opacity="0.029"/>
<stop offset="0.2203" stop-color="#C5B5DE" stop-opacity="0.22"/>
<stop offset="0.4138" stop-color="#AA9BCB" stop-opacity="0.414"/>
<stop offset="0.6078" stop-color="#9688BD" stop-opacity="0.608"/>
<stop offset="0.8028" stop-color="#8A7DB5" stop-opacity="0.803"/>
<stop offset="1" stop-color="#8679B2"/>
</linearGradient>
<radialGradient id="paint11_radial_343_7277" cx="0" cy="0" r="1" gradientUnits="userSpaceOnUse" gradientTransform="translate(93.1713 26.1329) rotate(45) scale(29.7046)">
<stop stop-color="#FAA68E"/>
<stop offset="0.4571" stop-color="#FAA48F"/>
<stop offset="0.6937" stop-color="#FB9C92"/>
<stop offset="0.8791" stop-color="#FD8F97"/>
<stop offset="1" stop-color="#FF819C"/>
</radialGradient>
<linearGradient id="paint12_linear_343_7277" x1="107.023" y1="66.8223" x2="78.2849" y2="38.0838" gradientUnits="userSpaceOnUse">
<stop stop-color="#F82814" stop-opacity="0"/>
<stop offset="1" stop-color="#C0272D"/>
</linearGradient>
<radialGradient id="paint13_radial_343_7277" cx="0" cy="0" r="1" gradientUnits="userSpaceOnUse" gradientTransform="translate(82.8656 40.8491) rotate(45) scale(39.8287)">
<stop stop-color="#BADA00"/>
<stop offset="0.3706" stop-color="#B8D800"/>
<stop offset="0.5625" stop-color="#B2D000"/>
<stop offset="0.7133" stop-color="#A6C300"/>
<stop offset="0.8428" stop-color="#97B000"/>
<stop offset="0.9575" stop-color="#829700"/>
<stop offset="1" stop-color="#798C00"/>
</radialGradient>
<linearGradient id="paint14_linear_343_7277" x1="82.4658" y1="82.6122" x2="66.535" y2="66.6813" gradientUnits="userSpaceOnUse">
<stop stop-color="#798C00" stop-opacity="0"/>
<stop offset="0.6542" stop-color="#556100" stop-opacity="0.654"/>
<stop offset="1" stop-color="#464F00"/>
</linearGradient>
<linearGradient id="paint15_linear_343_7277" x1="59.3788" y1="83.063" x2="70.6089" y2="94.2931" gradientUnits="userSpaceOnUse">
<stop stop-color="#A57C52"/>
<stop offset="0.1339" stop-color="#A26C4A"/>
<stop offset="0.5155" stop-color="#994336"/>
<stop offset="0.8174" stop-color="#942A2A"/>
<stop offset="1" stop-color="#922125"/>
</linearGradient>
<linearGradient id="paint16_linear_343_7277" x1="129.028" y1="59.8705" x2="140.258" y2="71.1006" gradientUnits="userSpaceOnUse">
<stop stop-color="#A57C52"/>
<stop offset="0.1339" stop-color="#A26C4A"/>
<stop offset="0.5155" stop-color="#994336"/>
<stop offset="0.8174" stop-color="#942A2A"/>
<stop offset="1" stop-color="#922125"/>
</linearGradient>
<radialGradient id="paint17_radial_343_7277" cx="0" cy="0" r="1" gradientUnits="userSpaceOnUse" gradientTransform="translate(123.089 57.4348) rotate(45) scale(29.7046)">
<stop stop-color="#BADA00"/>
<stop offset="0.3706" stop-color="#B8D800"/>
<stop offset="0.5625" stop-color="#B2D000"/>
<stop offset="0.7133" stop-color="#A6C300"/>
<stop offset="0.8428" stop-color="#97B000"/>
<stop offset="0.9575" stop-color="#829700"/>
<stop offset="1" stop-color="#798C00"/>
</radialGradient>
<linearGradient id="paint18_linear_343_7277" x1="131.767" y1="88.5427" x2="103.028" y2="59.8039" gradientUnits="userSpaceOnUse">
<stop stop-color="#798C00" stop-opacity="0"/>
<stop offset="0.6542" stop-color="#556100" stop-opacity="0.654"/>
<stop offset="1" stop-color="#464F00"/>
</linearGradient>
<radialGradient id="paint19_radial_343_7277" cx="0" cy="0" r="1" gradientUnits="userSpaceOnUse" gradientTransform="translate(109.905 68.5005) rotate(45) scale(29.7046)">
<stop stop-color="#F8F6FB"/>
<stop offset="0.5047" stop-color="#F7F4FB"/>
<stop offset="0.7657" stop-color="#F5ECFB"/>
<stop offset="0.9705" stop-color="#F0DFFB"/>
<stop offset="1" stop-color="#EFDCFB"/>
</radialGradient>
<linearGradient id="paint20_linear_343_7277" x1="113.76" y1="106.549" x2="85.0212" y2="77.8109" gradientUnits="userSpaceOnUse">
<stop stop-color="#EFDCFB" stop-opacity="0"/>
<stop offset="0.0287" stop-color="#E9D6F7" stop-opacity="0.029"/>
<stop offset="0.2203" stop-color="#C5B5DE" stop-opacity="0.22"/>
<stop offset="0.4138" stop-color="#AA9BCB" stop-opacity="0.414"/>
<stop offset="0.6078" stop-color="#9688BD" stop-opacity="0.608"/>
<stop offset="0.8028" stop-color="#8A7DB5" stop-opacity="0.803"/>
<stop offset="1" stop-color="#8679B2"/>
</linearGradient>
<radialGradient id="paint21_radial_343_7277" cx="0" cy="0" r="1" gradientUnits="userSpaceOnUse" gradientTransform="translate(87.2573 88.5417) scale(31.4144)">
<stop stop-color="#FAA68E"/>
<stop offset="0.4571" stop-color="#FAA48F"/>
<stop offset="0.6937" stop-color="#FB9C92"/>
<stop offset="0.8791" stop-color="#FD8F97"/>
<stop offset="1" stop-color="#FF819C"/>
</radialGradient>
<linearGradient id="paint22_linear_343_7277" x1="89.2021" y1="122.339" x2="73.2713" y2="106.408" gradientUnits="userSpaceOnUse">
<stop stop-color="#F82814" stop-opacity="0"/>
<stop offset="1" stop-color="#C0272D"/>
</linearGradient>
<linearGradient id="paint23_linear_343_7277" x1="66.1142" y1="122.784" x2="77.3443" y2="134.014" gradientUnits="userSpaceOnUse">
<stop stop-color="#A57C52"/>
<stop offset="0.1339" stop-color="#A26C4A"/>
<stop offset="0.5155" stop-color="#994336"/>
<stop offset="0.8174" stop-color="#942A2A"/>
<stop offset="1" stop-color="#922125"/>
</linearGradient>
</defs>
</svg>
