<svg width="151" height="128" viewBox="0 0 151 128" fill="none" xmlns="http://www.w3.org/2000/svg">
<path d="M75.1694 1.52075C33.7497 1.52075 0.169434 29.6955 0.169434 64.454C0.169434 99.2125 33.7497 127.387 75.1694 127.387C116.589 127.387 150.169 99.2125 150.169 64.454C150.169 29.6955 116.589 1.52075 75.1694 1.52075ZM75.3891 28.6131C75.3027 28.6128 75.2171 28.6099 75.1303 28.6102C75.1433 28.6102 75.1562 28.6096 75.1691 28.6096C75.2433 28.6096 75.3156 28.6128 75.3891 28.6131ZM75.1694 60.299C65.0871 60.299 56.4365 56.3211 52.7268 50.6484C56.4247 44.9811 65.035 40.9811 75.0909 40.9314C85.2209 40.8811 93.9241 44.854 97.633 50.5514C93.94 56.2484 85.2794 60.299 75.1694 60.299Z" fill="url(#paint0_linear_343_7558)"/>
<path d="M75.1694 1.52075C33.7497 1.52075 0.169434 29.6955 0.169434 64.454C0.169434 99.2125 33.7497 127.387 75.1694 127.387C116.589 127.387 150.169 99.2125 150.169 64.454C150.169 29.6955 116.589 1.52075 75.1694 1.52075ZM75.3891 28.6131C75.3027 28.6128 75.2171 28.6099 75.1303 28.6102C75.1433 28.6102 75.1562 28.6096 75.1691 28.6096C75.2433 28.6096 75.3156 28.6128 75.3891 28.6131ZM75.1694 60.299C65.0871 60.299 56.4365 56.3211 52.7268 50.6484C56.4247 44.9811 65.035 40.9811 75.0909 40.9314C85.2209 40.8811 93.9241 44.854 97.633 50.5514C93.94 56.2484 85.2794 60.299 75.1694 60.299Z" fill="url(#paint1_linear_343_7558)"/>
<path d="M150.169 64.4542H109.303C82.2285 64.4542 60.2803 86.4028 60.2803 113.477C60.2803 115.58 61.2165 117.461 62.69 118.738L71.2547 127.302C72.5512 127.358 73.8565 127.387 75.1694 127.387C116.589 127.387 150.169 99.2125 150.169 64.4542Z" fill="url(#paint2_linear_343_7558)"/>
<path d="M150.169 64.4542H126.937C102.777 64.4542 83.1914 84.0401 83.1914 108.2C83.1914 110.352 84.1458 112.32 85.6608 113.642L96.7555 124.737C127.653 116.957 150.169 92.9151 150.169 64.4542Z" fill="url(#paint3_linear_343_7558)"/>
<path d="M150.169 64.4544C150.169 47.4764 142.155 32.0717 129.131 20.7517V85.3888C129.233 87.2711 130.084 88.952 131.389 90.1449L138.894 97.6491C146.038 88.0123 150.169 76.6391 150.169 64.4544Z" fill="url(#paint4_linear_343_7558)"/>
<path d="M150.169 49.3687C150.169 22.2087 116.589 0.193115 75.1694 0.193115C33.7497 0.193115 0.169434 22.2084 0.169434 49.3687C0.169434 54.6728 1.45237 59.7799 3.82326 64.5655C6.17296 69.3078 7.30679 74.5602 7.30679 79.8528V90.1393C7.30679 93.9808 10.3412 97.2346 14.1827 97.2811C16.138 97.3049 17.9097 96.5205 19.188 95.2422C20.4474 93.9828 21.2271 92.2408 21.2271 90.3196C21.2271 87.4199 24.3365 85.5878 26.8744 86.9902C34.1809 91.0269 42.6791 94.1655 51.9744 96.1458C56.8044 97.1749 60.2803 101.404 60.2803 106.342V113.478C60.2803 117.323 63.3965 120.439 67.2388 120.439C69.16 120.439 70.9021 119.659 72.1615 118.4C73.4209 117.141 74.2006 115.399 74.2006 113.478V106.185C74.2006 103.703 76.213 101.688 78.6977 101.688C79.9368 101.688 81.0609 102.191 81.8747 103.005C82.6886 103.822 83.1915 104.943 83.1915 106.185V108.199C83.1915 112.04 86.2262 115.294 90.0674 115.341C92.0224 115.364 93.7944 114.58 95.0727 113.302C96.3321 112.043 97.1118 110.304 97.1118 108.379V104.919C97.1118 100.094 100.299 95.8328 104.94 94.5152C113.546 92.0722 121.315 88.6025 127.889 84.3417C128.417 83.9996 129.112 84.3799 129.112 85.0087C129.112 88.8508 132.228 91.9672 136.074 91.9672C137.995 91.9672 139.734 91.1872 140.993 89.9281C142.252 88.6687 143.032 86.9299 143.032 85.009V78.1278C143.032 73.6917 144.044 69.2972 146.106 65.369C148.738 60.3531 150.169 54.9708 150.169 49.3687ZM75.0909 28.6099C88.5553 28.5431 99.5024 35.5825 99.5456 44.3337C99.5891 53.0849 88.7124 60.2322 75.248 60.299C61.7836 60.3658 50.8365 53.3264 50.7933 44.5752C50.7497 35.824 61.6265 28.6763 75.0909 28.6099Z" fill="url(#paint5_radial_343_7558)"/>
<g opacity="0.6">
<g opacity="0.6">
<path opacity="0.6" d="M32.5578 100.13C34.1295 100.13 35.4037 98.8561 35.4037 97.2844C35.4037 95.7126 34.1295 94.4385 32.5578 94.4385C30.9861 94.4385 29.7119 95.7126 29.7119 97.2844C29.7119 98.8561 30.9861 100.13 32.5578 100.13Z" fill="url(#paint6_linear_343_7558)"/>
<path opacity="0.6" d="M24.7624 104.148C26.0032 104.148 27.0092 103.142 27.0092 101.901C27.0092 100.66 26.0032 99.6541 24.7624 99.6541C23.5215 99.6541 22.5156 100.66 22.5156 101.901C22.5156 103.142 23.5215 104.148 24.7624 104.148Z" fill="url(#paint7_linear_343_7558)"/>
<path opacity="0.6" d="M32.9736 108.916C33.7216 108.916 34.328 108.31 34.328 107.562C34.328 106.814 33.7216 106.208 32.9736 106.208C32.2255 106.208 31.6191 106.814 31.6191 107.562C31.6191 108.31 32.2255 108.916 32.9736 108.916Z" fill="url(#paint8_linear_343_7558)"/>
</g>
<g opacity="0.6">
<path opacity="0.6" d="M45.476 107.397C46.6374 107.397 47.5789 106.456 47.5789 105.294C47.5789 104.133 46.6374 103.192 45.476 103.192C44.3146 103.192 43.373 104.133 43.373 105.294C43.373 106.456 44.3146 107.397 45.476 107.397Z" fill="url(#paint9_linear_343_7558)"/>
<path opacity="0.6" d="M39.0934 104.936C40.0104 104.936 40.7537 104.192 40.7537 103.275C40.7537 102.358 40.0104 101.615 39.0934 101.615C38.1764 101.615 37.4331 102.358 37.4331 103.275C37.4331 104.192 38.1764 104.936 39.0934 104.936Z" fill="url(#paint10_linear_343_7558)"/>
<path opacity="0.6" d="M40.0209 111.587C40.5737 111.587 41.0218 111.139 41.0218 110.586C41.0218 110.033 40.5737 109.585 40.0209 109.585C39.4681 109.585 39.02 110.033 39.02 110.586C39.02 111.139 39.4681 111.587 40.0209 111.587Z" fill="url(#paint11_linear_343_7558)"/>
</g>
<g opacity="0.6">
<path opacity="0.6" d="M132.059 98.0805C133.22 98.0805 134.162 97.139 134.162 95.9776C134.162 94.8162 133.22 93.8746 132.059 93.8746C130.898 93.8746 129.956 94.8162 129.956 95.9776C129.956 97.139 130.898 98.0805 132.059 98.0805Z" fill="url(#paint12_linear_343_7558)"/>
<path opacity="0.6" d="M125.676 95.619C126.593 95.619 127.336 94.8757 127.336 93.9588C127.336 93.0418 126.593 92.2985 125.676 92.2985C124.759 92.2985 124.016 93.0418 124.016 93.9588C124.016 94.8757 124.759 95.619 125.676 95.619Z" fill="url(#paint13_linear_343_7558)"/>
<path opacity="0.6" d="M126.603 102.27C127.156 102.27 127.604 101.822 127.604 101.27C127.604 100.717 127.156 100.269 126.603 100.269C126.051 100.269 125.603 100.717 125.603 101.27C125.603 101.822 126.051 102.27 126.603 102.27Z" fill="url(#paint14_linear_343_7558)"/>
</g>
</g>
<path d="M80.799 7.50847C79.3869 4.73994 75.1534 4.51406 73.6849 4.43612C70.2581 4.25435 65.5163 4.67259 59.5893 5.67788C34.4357 9.94347 14.4096 30.877 13.5693 31.7661C12.6087 32.7826 12.654 34.3852 13.6704 35.3458L21.9181 43.2917C18.3854 47.1382 15.0257 51.7864 14.1466 56.2352C13.3407 60.312 14.9025 62.8344 16.3546 64.2323L47.104 94.9814C48.7013 95.4044 50.3249 95.7941 51.9746 96.1458C56.8046 97.1749 60.2805 101.404 60.2805 106.342V108.158L71.2693 119.147C71.5863 118.921 71.8872 118.675 72.1616 118.4C73.421 117.141 74.2007 115.399 74.2007 113.478V106.185C74.2007 103.703 76.2131 101.688 78.6978 101.688C79.9369 101.688 81.061 102.191 81.8749 103.005C82.6887 103.822 83.1916 104.943 83.1916 106.185V108.199C83.1916 112.041 86.2263 115.294 90.0675 115.341C92.0228 115.364 93.7946 114.58 95.0728 113.302C96.3322 112.043 97.1119 110.304 97.1119 108.379V104.919C97.1119 100.094 100.299 95.8329 104.94 94.5152C113.546 92.0723 121.315 88.6026 127.889 84.3417C128.417 83.9997 129.112 84.38 129.112 85.0088C129.112 88.8508 132.228 91.9673 136.074 91.9673C137.995 91.9673 139.734 91.1873 140.993 89.9282C142.253 88.6688 143.033 86.93 143.033 85.0091V78.1279C143.033 75.6196 143.357 73.1246 144.01 70.7199L80.799 7.50847ZM75.2481 60.2988C61.7837 60.3655 50.8366 53.3261 50.7934 44.5749C50.7502 35.8238 61.6266 28.6764 75.091 28.6096C88.5555 28.5429 99.5025 35.5823 99.5458 44.3335C99.5893 53.0846 88.7125 60.2323 75.2481 60.2988Z" fill="url(#paint15_linear_343_7558)"/>
<path d="M22.4321 66.4605C19.9336 66.4608 17.893 65.7135 16.3548 64.2323C14.9027 62.8343 13.3409 60.3123 14.1468 56.2352C15.5759 49.0049 23.5551 41.2446 28.1842 37.2626C35.8856 30.6373 45.3745 24.8343 54.2183 21.3417C68.8021 15.5817 74.2912 11.5405 75.7718 9.81316C74.3427 9.44051 70.3668 8.98728 60.4362 10.6711C36.9356 14.6561 17.4445 35.039 17.2506 35.2446C16.2901 36.2611 14.6877 36.3064 13.6709 35.3458C12.6545 34.3852 12.6092 32.7826 13.5698 31.7661C14.4101 30.877 34.4359 9.94346 59.5898 5.67787C65.5168 4.67287 70.2586 4.25434 73.6853 4.4361C75.2777 4.52022 80.123 4.7764 81.0953 8.2614C82.0924 11.8355 77.9171 15.0093 74.6901 17.0855C70.4345 19.8235 63.9989 22.9238 56.0789 26.052C47.7403 29.3452 38.7771 34.8308 31.4874 41.102C24.5565 47.064 19.9315 53.0888 19.1156 57.2173C18.7224 59.2073 19.3565 60.092 19.868 60.584C21.3509 62.0111 24.8792 61.5655 30.0718 59.2952C36.3356 56.5567 44.2774 51.4382 50.4962 47.2849C51.6589 46.5079 53.2315 46.8214 54.0083 47.9843C54.785 49.1473 54.4718 50.7199 53.3089 51.4964C46.9162 55.7658 38.7283 61.0379 32.1 63.9355C28.7412 65.4041 25.9459 66.2143 23.5548 66.4126C23.1709 66.4446 22.7965 66.4605 22.4321 66.4605Z" fill="url(#paint16_linear_343_7558)"/>
<path d="M150.17 49.3689C150.17 54.9701 148.738 60.3518 146.105 65.3689C144.045 69.2953 143.032 73.6912 143.032 78.1277V85.0086C143.032 85.7209 142.924 86.413 142.722 87.0612L99.5326 43.8724C99.1714 36.465 90.994 30.3774 80.2002 28.9359C80.2205 28.1053 80.6425 27.2986 81.4023 26.8324C90.8152 21.0253 99.7352 16.1027 105.772 14.2727C113.649 11.8824 119.655 12.5845 123.622 16.3659L149.363 42.1503C149.893 44.5071 150.17 46.9145 150.17 49.3689Z" fill="url(#paint17_linear_343_7558)"/>
<path d="M100.676 44.1458C99.7575 44.1458 98.8713 43.6443 98.4222 42.771C97.7825 41.5275 98.2725 40.0008 99.5163 39.361C105.32 36.3763 120.738 28.4478 121.521 23.0231C121.611 22.396 121.565 21.4037 120.127 20.0322C115.224 15.3593 102.268 19.9122 84.0598 31.1419C82.8695 31.8758 81.3098 31.506 80.5754 30.3158C79.8416 29.1255 80.211 27.5652 81.4016 26.831C90.8145 21.0258 99.7331 16.1028 105.77 14.2713C113.65 11.881 119.655 12.5858 123.621 16.3669C126.51 19.1216 126.8 21.9005 126.533 23.7463C125.574 30.3949 115.965 36.5972 101.832 43.8652C101.462 44.0555 101.066 44.1458 100.676 44.1458Z" fill="url(#paint18_linear_343_7558)"/>
<path d="M149.928 53.3136L140.731 44.116C140.3 43.6101 139.769 43.1227 139.138 42.6548C129.668 35.6351 110.926 48.2769 91.0854 61.661C86.2328 64.9345 81.5466 68.0948 77.1501 70.8551C77.1278 70.8413 77.1057 70.8271 77.0831 70.8142C77.0628 70.7792 65.9513 59.6501 65.9293 59.616C65.7672 59.3648 65.5666 59.1545 65.3425 58.9825C64.7749 58.8213 64.216 58.6495 63.6722 58.4616C63.2437 58.483 62.8149 58.6116 62.4287 58.861C55.346 63.4307 46.2257 70.4566 48.7799 78.6736C49.4172 80.7239 50.436 82.0854 51.5146 82.9916L74.2269 105.704C74.4669 103.448 76.3754 101.687 78.6975 101.687C79.9366 101.687 81.0607 102.19 81.8746 103.004C82.6884 103.821 83.1913 104.942 83.1913 106.185V108.199C83.1913 112.04 86.226 115.294 90.0672 115.34C92.0225 115.364 93.7943 114.58 95.0725 113.302C96.3319 112.042 97.1116 110.303 97.1116 108.379V104.919C97.1116 100.094 100.299 95.8324 104.94 94.5148C113.545 92.0719 121.315 88.6021 127.889 84.3413C128.417 83.9992 129.112 84.3795 129.112 85.0083C129.112 88.8504 132.228 91.9669 136.074 91.9669C137.995 91.9669 139.733 91.1869 140.993 89.9277C142.252 88.6683 143.032 86.9295 143.032 85.0086V78.1274C143.032 73.6913 144.044 69.2969 146.106 65.3686C148.114 61.5422 149.42 57.5016 149.928 53.3136Z" fill="url(#paint19_linear_343_7558)"/>
<path d="M57.1535 84.8754C55.9905 84.8757 54.9135 84.7119 53.9273 84.3654C52.197 83.7574 49.8999 82.2763 48.7799 78.6736C46.2255 70.4563 55.3461 63.4307 62.4288 58.861C63.6035 58.1027 65.1711 58.4407 65.9293 59.616C66.6876 60.7913 66.3496 62.3583 65.1743 63.1166C56.3714 68.7963 52.4826 73.5245 53.6161 77.1704C54.1473 78.8795 54.9588 79.3598 55.6067 79.5874C57.2746 80.1733 60.9911 79.9439 69.222 75.5201C75.7091 72.0339 83.1779 66.9954 91.0858 61.661C110.926 48.2769 129.668 35.6351 139.138 42.6548C141.186 44.1724 142.186 45.8975 142.11 47.7819C141.958 51.5798 137.795 54.1766 130.9 58.4783C123.126 63.3274 112.48 69.9689 103.873 80.8886C103.007 81.9872 101.416 82.1757 100.317 81.3098C99.219 80.4442 99.0305 78.8519 99.8958 77.7536C109.05 66.1398 120.129 59.228 128.219 54.1816C131.785 51.9569 136.649 48.9224 137.037 47.6148C136.978 47.5074 136.769 47.203 136.122 46.7236C129.529 41.8369 109.784 55.1569 93.9179 65.8595C78.9232 75.9745 65.7282 84.8745 57.1535 84.8754Z" fill="url(#paint20_linear_343_7558)"/>
<defs>
<linearGradient id="paint0_linear_343_7558" x1="44.198" y1="53.1781" x2="113.749" y2="78.4999" gradientUnits="userSpaceOnUse">
<stop stop-color="#FAA68E"/>
<stop offset="0.2061" stop-color="#FBA682"/>
<stop offset="0.5808" stop-color="#FDA861"/>
<stop offset="1" stop-color="#FFA936"/>
</linearGradient>
<linearGradient id="paint1_linear_343_7558" x1="44.198" y1="53.1781" x2="113.749" y2="78.4999" gradientUnits="userSpaceOnUse">
<stop stop-color="#FAA68E"/>
<stop offset="0.2061" stop-color="#FBA682"/>
<stop offset="0.5808" stop-color="#FDA861"/>
<stop offset="1" stop-color="#FFA936"/>
</linearGradient>
<linearGradient id="paint2_linear_343_7558" x1="114.8" y1="94.4448" x2="-15.2983" y2="103.223" gradientUnits="userSpaceOnUse">
<stop stop-color="#F82814" stop-opacity="0"/>
<stop offset="0.2454" stop-color="#F12817" stop-opacity="0.245"/>
<stop offset="0.6052" stop-color="#DD2820" stop-opacity="0.605"/>
<stop offset="1" stop-color="#C0272D"/>
</linearGradient>
<linearGradient id="paint3_linear_343_7558" x1="118.812" y1="94.0554" x2="41.3834" y2="99.4575" gradientUnits="userSpaceOnUse">
<stop stop-color="#F82814" stop-opacity="0"/>
<stop offset="0.2454" stop-color="#F12817" stop-opacity="0.245"/>
<stop offset="0.6052" stop-color="#DD2820" stop-opacity="0.605"/>
<stop offset="1" stop-color="#C0272D"/>
</linearGradient>
<linearGradient id="paint4_linear_343_7558" x1="163.834" y1="78.7702" x2="136.824" y2="61.0449" gradientUnits="userSpaceOnUse">
<stop stop-color="#F82814" stop-opacity="0"/>
<stop offset="0.2454" stop-color="#F12817" stop-opacity="0.245"/>
<stop offset="0.6052" stop-color="#DD2820" stop-opacity="0.605"/>
<stop offset="1" stop-color="#C0272D"/>
</linearGradient>
<radialGradient id="paint5_radial_343_7558" cx="0" cy="0" r="1" gradientUnits="userSpaceOnUse" gradientTransform="translate(62.6774 30.7113) scale(100.275 69.19)">
<stop stop-color="#A57C52"/>
<stop offset="0.2601" stop-color="#A47950"/>
<stop offset="0.4581" stop-color="#A26F4C"/>
<stop offset="0.6356" stop-color="#9F5F44"/>
<stop offset="0.8011" stop-color="#9A4838"/>
<stop offset="0.9568" stop-color="#942B2A"/>
<stop offset="1" stop-color="#922125"/>
</radialGradient>
<linearGradient id="paint6_linear_343_7558" x1="32.6577" y1="101.306" x2="30.5665" y2="87.9986" gradientUnits="userSpaceOnUse">
<stop stop-color="#F82814" stop-opacity="0"/>
<stop offset="0.2454" stop-color="#F12817" stop-opacity="0.245"/>
<stop offset="0.6052" stop-color="#DD2820" stop-opacity="0.605"/>
<stop offset="1" stop-color="#C0272D"/>
</linearGradient>
<linearGradient id="paint7_linear_343_7558" x1="24.7187" y1="105.017" x2="23.0682" y2="94.5119" gradientUnits="userSpaceOnUse">
<stop stop-color="#F82814" stop-opacity="0"/>
<stop offset="0.2454" stop-color="#F12817" stop-opacity="0.245"/>
<stop offset="0.6052" stop-color="#DD2820" stop-opacity="0.605"/>
<stop offset="1" stop-color="#C0272D"/>
</linearGradient>
<linearGradient id="paint8_linear_343_7558" x1="32.7163" y1="109.34" x2="31.7211" y2="103.007" gradientUnits="userSpaceOnUse">
<stop stop-color="#F82814" stop-opacity="0"/>
<stop offset="0.2454" stop-color="#F12817" stop-opacity="0.245"/>
<stop offset="0.6052" stop-color="#DD2820" stop-opacity="0.605"/>
<stop offset="1" stop-color="#C0272D"/>
</linearGradient>
<linearGradient id="paint9_linear_343_7558" x1="43.3354" y1="107.433" x2="49.6315" y2="99.7253" gradientUnits="userSpaceOnUse">
<stop stop-color="#F82814" stop-opacity="0"/>
<stop offset="0.2454" stop-color="#F12817" stop-opacity="0.245"/>
<stop offset="0.6052" stop-color="#DD2820" stop-opacity="0.605"/>
<stop offset="1" stop-color="#C0272D"/>
</linearGradient>
<linearGradient id="paint10_linear_343_7558" x1="37.3805" y1="104.891" x2="42.3508" y2="98.806" gradientUnits="userSpaceOnUse">
<stop stop-color="#F82814" stop-opacity="0"/>
<stop offset="0.2454" stop-color="#F12817" stop-opacity="0.245"/>
<stop offset="0.6052" stop-color="#DD2820" stop-opacity="0.605"/>
<stop offset="1" stop-color="#C0272D"/>
</linearGradient>
<linearGradient id="paint11_linear_343_7558" x1="38.9408" y1="111.424" x2="41.9374" y2="107.755" gradientUnits="userSpaceOnUse">
<stop stop-color="#F82814" stop-opacity="0"/>
<stop offset="0.2454" stop-color="#F12817" stop-opacity="0.245"/>
<stop offset="0.6052" stop-color="#DD2820" stop-opacity="0.605"/>
<stop offset="1" stop-color="#C0272D"/>
</linearGradient>
<linearGradient id="paint12_linear_343_7558" x1="129.909" y1="98.1411" x2="136.205" y2="90.4333" gradientUnits="userSpaceOnUse">
<stop stop-color="#F82814" stop-opacity="0"/>
<stop offset="0.2454" stop-color="#F12817" stop-opacity="0.245"/>
<stop offset="0.6052" stop-color="#DD2820" stop-opacity="0.605"/>
<stop offset="1" stop-color="#C0272D"/>
</linearGradient>
<linearGradient id="paint13_linear_343_7558" x1="123.953" y1="95.5987" x2="128.924" y2="89.5136" gradientUnits="userSpaceOnUse">
<stop stop-color="#F82814" stop-opacity="0"/>
<stop offset="0.2454" stop-color="#F12817" stop-opacity="0.245"/>
<stop offset="0.6052" stop-color="#DD2820" stop-opacity="0.605"/>
<stop offset="1" stop-color="#C0272D"/>
</linearGradient>
<linearGradient id="paint14_linear_343_7558" x1="125.514" y1="102.132" x2="128.51" y2="98.4631" gradientUnits="userSpaceOnUse">
<stop stop-color="#F82814" stop-opacity="0"/>
<stop offset="0.2454" stop-color="#F12817" stop-opacity="0.245"/>
<stop offset="0.6052" stop-color="#DD2820" stop-opacity="0.605"/>
<stop offset="1" stop-color="#C0272D"/>
</linearGradient>
<linearGradient id="paint15_linear_343_7558" x1="73.3352" y1="58.9358" x2="-10.5648" y2="-46.403" gradientUnits="userSpaceOnUse">
<stop stop-color="#42210B" stop-opacity="0"/>
<stop offset="1" stop-color="#42210B"/>
</linearGradient>
<linearGradient id="paint16_linear_343_7558" x1="37.2809" y1="17.4711" x2="65.6415" y2="64.2885" gradientUnits="userSpaceOnUse">
<stop stop-color="#FFDECF"/>
<stop offset="0.3791" stop-color="#FDC4B0"/>
<stop offset="0.7655" stop-color="#FBAE97"/>
<stop offset="1" stop-color="#FAA68E"/>
</linearGradient>
<linearGradient id="paint17_linear_343_7558" x1="133.659" y1="54.3983" x2="44.7152" y2="-34.545" gradientUnits="userSpaceOnUse">
<stop stop-color="#42210B" stop-opacity="0"/>
<stop offset="1" stop-color="#42210B"/>
</linearGradient>
<linearGradient id="paint18_linear_343_7558" x1="102.334" y1="23.5755" x2="123.069" y2="48.8178" gradientUnits="userSpaceOnUse">
<stop stop-color="#FFDECF"/>
<stop offset="0.3791" stop-color="#FDC4B0"/>
<stop offset="0.7655" stop-color="#FBAE97"/>
<stop offset="1" stop-color="#FAA68E"/>
</linearGradient>
<linearGradient id="paint19_linear_343_7558" x1="113.43" y1="95.4336" x2="63.7987" y2="-7.87961" gradientUnits="userSpaceOnUse">
<stop stop-color="#42210B" stop-opacity="0"/>
<stop offset="1" stop-color="#42210B"/>
</linearGradient>
<linearGradient id="paint20_linear_343_7558" x1="89.7288" y1="52.5354" x2="110.661" y2="89.8992" gradientUnits="userSpaceOnUse">
<stop stop-color="#FFDECF"/>
<stop offset="0.3791" stop-color="#FDC4B0"/>
<stop offset="0.7655" stop-color="#FBAE97"/>
<stop offset="1" stop-color="#FAA68E"/>
</linearGradient>
</defs>
</svg>
