<svg width="151" height="150" viewBox="0 0 151 150" fill="none" xmlns="http://www.w3.org/2000/svg">
<path d="M0.365234 125.05C0.365234 158.317 150.365 158.317 150.365 125.05C150.365 124.91 150.365 82.8688 150.365 82.7294C150.365 49.4623 0.365234 49.4623 0.365234 82.7294V125.05Z" fill="url(#paint0_linear_343_6622)"/>
<path d="M50.9167 58.9976C23.1273 61.8605 0.365234 69.7708 0.365234 82.7296V125.05C0.365234 138.009 23.1273 145.919 50.9167 148.782V58.9976Z" fill="url(#paint1_linear_343_6622)"/>
<path d="M105.523 59.6678C61.3261 53.8352 0.365234 61.5214 0.365234 82.7296V125.05C0.365234 146.258 61.3261 153.944 105.523 148.112V59.6678Z" fill="url(#paint2_linear_343_6622)"/>
<path d="M0.365234 103.365V125.05C0.365234 158.317 150.365 158.317 150.365 125.05C150.365 124.979 150.365 114.082 150.365 103.365C150.365 136.632 0.365234 136.632 0.365234 103.365Z" fill="url(#paint3_linear_343_6622)"/>
<path d="M150.365 82.7296C150.365 115.997 0.365234 115.997 0.365234 82.7296C0.365234 49.4625 150.365 49.4625 150.365 82.7296Z" fill="url(#paint4_linear_343_6622)"/>
<path d="M150.366 82.7295C150.366 108.568 59.8744 114.338 19.4627 100.038L8.43031 89.006C5.52443 86.3472 3.89502 83.3266 3.89502 79.9472V74.4472C4.52443 73.756 5.23325 73.0883 6.01855 72.4413C6.10973 72.3677 6.20384 72.2913 6.29796 72.2177C6.40678 72.1295 6.51561 72.0413 6.62737 71.9589C31.3833 52.7883 122.198 53.056 145.095 72.7648C148.466 75.6648 150.366 78.9883 150.366 82.7295V82.7295Z" fill="url(#paint5_linear_343_6622)"/>
<path d="M142.914 66.9153C142.914 93.9786 7.81641 93.9786 7.81641 66.9153C7.81641 39.8521 142.914 39.8521 142.914 66.9153Z" fill="url(#paint6_linear_343_6622)"/>
<path d="M134.777 80.9315C134.777 107.284 15.9531 107.284 15.9531 80.9315C15.9531 54.5788 134.777 54.5788 134.777 80.9315Z" fill="url(#paint7_linear_343_6622)"/>
<path d="M92.8002 61.9441L18.1061 86.7412C16.7119 84.9735 15.9531 83.0382 15.9531 80.9324C15.9531 80.4559 15.9914 79.9912 16.0678 79.5324L71.259 61.2118C78.5031 61.0618 85.8267 61.3059 92.8002 61.9441V61.9441Z" fill="url(#paint8_linear_343_6622)"/>
<path d="M120.509 67.5324L35.0418 95.9059C30.8654 94.7059 27.1889 93.2736 24.2095 91.6177L107.43 63.9883C112.259 64.9324 116.689 66.1148 120.509 67.5324V67.5324Z" fill="url(#paint9_linear_343_6622)"/>
<path d="M134.177 77.7824L65.8324 100.471C59.5089 100.165 53.3354 99.5559 47.606 98.6383L128.827 71.6736C131.438 73.4765 133.288 75.5148 134.177 77.7824V77.7824Z" fill="url(#paint10_linear_343_6622)"/>
<path d="M91.9824 91.7894L127.66 79.9453L121.741 74.0259L91.9824 83.9053V91.7894Z" fill="url(#paint11_linear_343_6622)"/>
<path d="M133.868 84.7881C129.427 93.8469 109.338 99.0351 86.9678 100.356L133.868 84.7881Z" fill="url(#paint12_linear_343_6622)"/>
<path d="M57.1604 45.7074C56.1039 44.3247 54.0221 44.3247 52.966 45.7074C49.898 49.7227 45.9562 52.9639 41.4939 55.335C34.0342 59.2992 29.0571 66.4333 29.0571 74.5756C29.0571 87.0298 81.0695 87.0298 81.0695 74.5756C81.0695 66.4333 76.0924 59.2992 68.6327 55.335C64.1701 52.9636 60.228 49.7227 57.1604 45.7074V45.7074Z" fill="url(#paint13_linear_343_6622)"/>
<path d="M38.8564 70.1123C38.7711 70.7082 39.1849 71.2602 39.7808 71.3455C40.3766 71.4308 40.9287 71.017 41.014 70.4211C41.0993 69.8253 40.6855 69.2732 40.0896 69.1879C39.4937 69.1026 38.9416 69.5164 38.8564 70.1123Z" fill="white"/>
<path d="M40.6452 59.5067C41.1155 59.5741 41.5514 59.2473 41.6188 58.777C41.6861 58.3067 41.3594 57.8708 40.8891 57.8035C40.4188 57.7361 39.9829 58.0629 39.9155 58.5332C39.8482 59.0035 40.1749 59.4394 40.6452 59.5067Z" fill="white"/>
<path d="M43.5298 63.4994C43.8133 63.54 44.0762 63.3429 44.1168 63.0594C44.1574 62.7759 43.9604 62.5129 43.6768 62.4723C43.3933 62.4318 43.1304 62.6288 43.0898 62.9123C43.0492 63.1959 43.2462 63.4588 43.5298 63.4994Z" fill="white"/>
<path d="M32.7736 70.7397C33.3454 70.5517 33.6566 69.9361 33.4689 69.3641C33.281 68.7923 32.6654 68.4808 32.0933 68.6688C31.5215 68.8567 31.2101 69.4723 31.398 70.0444C31.586 70.6161 32.2018 70.9273 32.7736 70.7397Z" fill="white"/>
<path d="M33.3801 72.0673C33.5283 72.5188 34.0145 72.7644 34.466 72.6161C34.9175 72.4679 35.163 71.9817 35.0148 71.5302C34.8666 71.0788 34.3804 70.8332 33.9289 70.9814C33.4775 71.1297 33.2319 71.6158 33.3801 72.0673V72.0673Z" fill="white"/>
<path d="M36.8678 71.9174C37.1398 71.828 37.2881 71.535 37.1986 71.2627C37.1092 70.9906 36.816 70.8424 36.5439 70.9318C36.2719 71.0212 36.1236 71.3145 36.2131 71.5865C36.3025 71.8589 36.5954 72.0068 36.8678 71.9174Z" fill="white"/>
<path d="M38.7387 63.2425C39.1131 63.0028 39.2225 62.5046 38.9825 62.1301C38.7428 61.7557 38.2445 61.6463 37.8701 61.8863C37.4957 62.126 37.3863 62.6243 37.6263 62.9987C37.866 63.3731 38.364 63.4822 38.7387 63.2425V63.2425Z" fill="white"/>
<path d="M36.8771 69.5544C37.1727 69.3649 37.2591 68.972 37.0697 68.6761C36.8803 68.3805 36.4871 68.2941 36.1915 68.4835C35.8959 68.6729 35.8094 69.0658 35.9989 69.3617C36.1883 69.6573 36.5815 69.7438 36.8771 69.5544Z" fill="white"/>
<path d="M38.8881 67.5083C38.7099 67.6224 38.6578 67.8595 38.7719 68.0377C38.886 68.216 39.1231 68.268 39.3013 68.1539C39.4796 68.0398 39.5316 67.8027 39.4175 67.6245C39.3034 67.446 39.0663 67.3942 38.8881 67.5083Z" fill="white"/>
<path d="M81.0692 74.5749C81.0692 80.1505 70.6474 83.229 59.1327 83.8123C50.498 81.1078 44.2354 73.0461 44.2354 63.5205C44.2354 59.2337 45.5039 55.2443 47.6877 51.9052C48.3833 50.8414 49.2165 49.8764 50.1121 48.9746C50.5486 48.5352 50.9727 48.0837 51.3836 47.6199C51.9354 47.0031 52.4624 46.3652 52.9651 45.7064C53.6065 44.8664 54.6256 44.5361 55.5639 44.7187C56.1718 44.8328 56.7448 45.1617 57.1612 45.7064C60.2274 49.7214 64.1707 52.9634 68.6321 55.334C76.093 59.2978 81.0692 66.432 81.0692 74.5749Z" fill="url(#paint14_linear_343_6622)"/>
<path d="M68.6319 55.3337C64.1704 52.9634 60.2275 49.7214 57.161 45.7061C56.7445 45.1614 56.1716 44.8328 55.5637 44.7184C55.5551 44.7166 55.5466 44.7152 55.5378 44.7134C54.3101 44.4869 53.1369 45.3649 52.9643 46.6011C52.784 47.8937 52.6904 49.2143 52.6904 50.5566C52.6904 65.4052 64.0948 77.5881 78.6222 78.829C80.1746 77.6246 81.069 76.2066 81.069 74.5746C81.0693 66.4319 76.0931 59.2978 68.6319 55.3337V55.3337Z" fill="url(#paint15_linear_343_6622)"/>
<path d="M68.6322 55.3338C64.1707 52.9635 60.2278 49.7215 57.1613 45.7062C56.7448 45.1615 56.1719 44.833 55.5639 44.7185C55.5554 44.7168 55.5469 44.7153 55.538 44.7135C55.5336 44.7127 55.5292 44.7121 55.5248 44.7112C54.8995 44.6 54.4089 45.2388 54.6386 45.8309C57.8689 54.1562 65.8513 60.1106 75.2563 60.3656C73.3972 58.3818 71.1578 56.6756 68.6322 55.3338V55.3338Z" fill="url(#paint16_linear_343_6622)"/>
<path d="M68.6324 55.3341C64.1701 52.9629 60.228 49.722 57.1604 45.7064C56.1039 44.3238 54.0221 44.3238 52.966 45.7064C52.9195 45.7673 52.871 45.8261 52.8242 45.8864C53.6165 46.4791 54.4274 47.0394 55.2563 47.5638C63.0101 52.4694 68.1833 61.2982 68.1833 71.3747C68.1833 78.7758 55.7168 82.6223 42.7568 82.9152C58.1668 85.6188 81.0692 82.8388 81.0692 74.5744C81.0692 66.4323 76.0924 59.2982 68.6324 55.3341V55.3341Z" fill="url(#paint17_linear_343_6622)"/>
<path d="M97.7639 45.7074C96.7074 44.3247 94.6256 44.3247 93.5695 45.7074C90.5015 49.7227 86.5598 52.9639 82.0974 55.335C74.6377 59.2992 69.6606 66.4333 69.6606 74.5756C69.6606 87.0298 121.673 87.0298 121.673 74.5756C121.673 66.4333 116.696 59.2992 109.236 55.335C104.774 52.9636 100.832 49.7227 97.7639 45.7074V45.7074Z" fill="url(#paint18_linear_343_6622)"/>
<path d="M121.673 74.5749C121.673 80.1505 111.251 83.229 99.7362 83.8123C91.1015 81.1078 84.8389 73.0461 84.8389 63.5205C84.8389 59.2337 86.1074 55.2443 88.2912 51.9052C88.9868 50.8414 89.82 49.8764 90.7156 48.9746C91.1521 48.5352 91.5762 48.0837 91.9871 47.6199C92.5389 47.0031 93.0659 46.3652 93.5686 45.7064C94.21 44.8664 95.2292 44.5361 96.1674 44.7187C96.7753 44.8328 97.3483 45.1617 97.7648 45.7064C100.831 49.7214 104.774 52.9634 109.236 55.334C116.696 59.2978 121.673 66.432 121.673 74.5749V74.5749Z" fill="url(#paint19_linear_343_6622)"/>
<path d="M109.235 55.3337C104.774 52.9634 100.831 49.7214 97.7645 45.7061C97.3481 45.1614 96.7751 44.8328 96.1672 44.7184C96.1587 44.7166 96.1501 44.7152 96.1413 44.7134C94.9137 44.4869 93.7404 45.3649 93.5678 46.6011C93.3875 47.8937 93.2939 49.2143 93.2939 50.5566C93.2939 65.4052 104.698 77.5881 119.226 78.829C120.778 77.6246 121.672 76.2066 121.672 74.5746C121.673 66.4319 116.696 59.2978 109.235 55.3337V55.3337Z" fill="url(#paint20_linear_343_6622)"/>
<path d="M109.236 55.3338C104.774 52.9635 100.831 49.7215 97.7648 45.7062C97.3483 45.1615 96.7754 44.833 96.1674 44.7185C96.1589 44.7168 96.1504 44.7153 96.1416 44.7135C96.1371 44.7127 96.1327 44.7121 96.1283 44.7112C95.503 44.6 95.0124 45.2388 95.2422 45.8309C98.4724 54.1562 106.455 60.1106 115.86 60.3656C114.001 58.3818 111.761 56.6756 109.236 55.3338V55.3338Z" fill="url(#paint21_linear_343_6622)"/>
<path d="M98.995 63.1804C99.0803 62.5845 98.6664 62.0325 98.0705 61.9472C97.4747 61.8619 96.9226 62.2757 96.8373 62.8716C96.752 63.4675 97.1658 64.0195 97.7617 64.1048C98.3576 64.1901 98.9097 63.7763 98.995 63.1804Z" fill="white"/>
<path d="M105.669 67.5343C105.097 67.7222 104.786 68.3378 104.974 68.9099C105.162 69.4816 105.777 69.7931 106.349 69.6052C106.921 69.4172 107.233 68.8016 107.045 68.2296C106.857 67.6575 106.241 67.3463 105.669 67.5343Z" fill="white"/>
<path d="M108.394 58.3601C107.942 58.5083 107.697 58.9945 107.845 59.446C107.993 59.8974 108.479 60.143 108.931 59.9948C109.382 59.8466 109.628 59.3604 109.48 58.9089C109.331 58.4574 108.845 58.2119 108.394 58.3601Z" fill="white"/>
<path d="M100.984 61.3752C100.712 61.4646 100.564 61.7578 100.653 62.0299C100.742 62.3019 101.036 62.4502 101.308 62.3608C101.58 62.2713 101.728 61.9781 101.639 61.706C101.549 61.434 101.256 61.2858 100.984 61.3752Z" fill="white"/>
<path d="M100.887 66.1593C100.512 66.399 100.403 66.8972 100.643 67.2716C100.883 67.646 101.381 67.7555 101.755 67.5154C102.13 67.2757 102.239 66.7775 101.999 66.4031C101.759 66.0287 101.261 65.9193 100.887 66.1593Z" fill="white"/>
<path d="M100.974 63.7384C100.678 63.9278 100.592 64.3211 100.781 64.6167C100.97 64.9123 101.363 64.9987 101.659 64.8093C101.955 64.6199 102.041 64.2267 101.852 63.9311C101.663 63.6352 101.269 63.549 100.974 63.7384Z" fill="white"/>
<path d="M98.9639 65.7842C99.1422 65.6701 99.1942 65.433 99.0801 65.2548C98.966 65.0766 98.7289 65.0245 98.5507 65.1386C98.3725 65.2527 98.3204 65.4898 98.4345 65.668C98.5486 65.8463 98.7857 65.8983 98.9639 65.7842Z" fill="white"/>
<path d="M109.236 55.3341C104.774 52.9629 100.832 49.722 97.7639 45.7064C96.7074 44.3238 94.6256 44.3238 93.5695 45.7064C93.523 45.7673 93.4745 45.8261 93.4277 45.8864C94.2201 46.4791 95.0309 47.0394 95.8598 47.5638C103.614 52.4694 108.787 61.2982 108.787 71.3747C108.787 78.7758 96.3204 82.6223 83.3604 82.9152C98.7704 85.6188 121.673 82.8388 121.673 74.5744C121.673 66.4323 116.696 59.2982 109.236 55.3341V55.3341Z" fill="url(#paint22_linear_343_6622)"/>
<path d="M103.814 83.4946L96.2083 75.8893C94.3133 73.9199 92.0568 72.221 89.523 70.8749C87.6627 69.8863 85.8909 68.7505 84.2274 67.4784C84.1583 67.4028 81.8939 66.4613 80.3201 64.8952C78.5962 63.1796 77.553 60.8296 77.553 60.8296C77.1456 60.2963 76.5915 59.9613 75.9998 59.8225C72.0509 63.7769 69.6606 68.9334 69.6606 74.5749C69.6606 82.1219 88.7621 85.0949 103.814 83.4946V83.4946Z" fill="url(#paint23_linear_343_6622)"/>
<path d="M77.5534 60.8295C76.4514 59.3869 74.279 59.3869 73.1769 60.8295C69.9761 65.0193 65.8631 68.4007 61.2069 70.8748C53.4234 75.0107 48.2305 82.4545 48.2305 90.9501C48.2305 103.945 102.5 103.945 102.5 90.9501C102.5 82.4545 97.3066 75.0107 89.5231 70.8748C84.8672 68.4007 80.7543 65.019 77.5534 60.8295V60.8295Z" fill="url(#paint24_linear_343_6622)"/>
<path d="M102.499 90.951C102.499 96.7684 91.6253 99.9804 79.6109 100.589C70.6015 97.7675 64.0674 89.356 64.0674 79.4169C64.0674 74.944 65.3912 70.7816 67.6694 67.2978C68.3953 66.1878 69.2644 65.181 70.1991 64.2401C70.6544 63.7816 71.0971 63.3104 71.5256 62.8266C72.1012 62.1831 72.6512 61.5175 73.1756 60.8301C73.8447 59.9536 74.9083 59.6089 75.8874 59.7998C76.5218 59.9189 77.1194 60.2619 77.5539 60.8301C80.7533 65.0195 84.8674 68.4022 89.5224 70.8754C97.3071 75.0113 102.499 82.4551 102.499 90.951V90.951Z" fill="url(#paint25_linear_343_6622)"/>
<path d="M89.523 70.8741C84.868 68.4009 80.7539 65.0183 77.5544 60.8288C77.12 60.2606 76.5221 59.9177 75.888 59.7985C75.8792 59.7968 75.87 59.795 75.8612 59.7935C74.5803 59.5574 73.3562 60.4733 73.1762 61.7633C72.988 63.1121 72.8906 64.4897 72.8906 65.8903C72.8906 81.383 84.79 94.0944 99.9474 95.3892C101.567 94.1327 102.5 92.6533 102.5 90.95C102.5 82.4541 97.3077 75.0103 89.523 70.8741V70.8741Z" fill="url(#paint26_linear_343_6622)"/>
<path d="M89.5227 70.8743C84.8677 68.4011 80.7536 65.0184 77.5541 60.829C77.1197 60.2608 76.5218 59.9178 75.8877 59.7987C75.8789 59.797 75.8697 59.7952 75.8609 59.7937C75.8562 59.7928 75.8518 59.792 75.8471 59.7914C75.1947 59.6752 74.6827 60.342 74.9224 60.9596C78.293 69.6461 86.6215 75.859 96.4344 76.1252C94.4941 74.0546 92.1577 72.2746 89.5227 70.8743Z" fill="url(#paint27_linear_343_6622)"/>
<path d="M87.3285 78.4197C87.2432 79.0156 87.6571 79.5676 88.2529 79.6529C88.8488 79.7382 89.4009 79.3244 89.4862 78.7285C89.5715 78.1326 89.1576 77.5806 88.5618 77.4953C87.9662 77.41 87.4138 77.8241 87.3285 78.4197Z" fill="white"/>
<path d="M90.5471 76.7945C91.0174 76.8619 91.4533 76.5351 91.5206 76.0648C91.588 75.5945 91.2612 75.1587 90.7909 75.0913C90.3206 75.024 89.8847 75.3507 89.8174 75.821C89.75 76.2913 90.0768 76.7272 90.5471 76.7945Z" fill="white"/>
<path d="M88.1377 72.8942C88.4212 72.9348 88.6841 72.7377 88.7247 72.4542C88.7653 72.1706 88.5683 71.9077 88.2847 71.8671C88.0012 71.8265 87.7383 72.0236 87.6977 72.3071C87.6571 72.5909 87.8542 72.8536 88.1377 72.8942Z" fill="white"/>
<path d="M80.6545 74.0663C81.2262 73.8784 81.5377 73.2628 81.3498 72.6907C81.1618 72.119 80.5462 71.8075 79.9742 71.9954C79.4024 72.1834 79.0909 72.799 79.2789 73.371C79.4668 73.9428 80.0827 74.254 80.6545 74.0663Z" fill="white"/>
<path d="M77.9308 83.2404C78.3823 83.0922 78.6279 82.606 78.4797 82.1545C78.3314 81.703 77.8452 81.4575 77.3938 81.6057C76.9423 81.7539 76.6967 82.2401 76.845 82.6916C76.9935 83.1428 77.4797 83.3886 77.9308 83.2404Z" fill="white"/>
<path d="M85.3399 80.225C85.612 80.1356 85.7602 79.8424 85.6708 79.5703C85.5814 79.2982 85.2882 79.15 85.0161 79.2394C84.744 79.3288 84.5958 79.6221 84.6852 79.8941C84.7746 80.1662 85.0679 80.3144 85.3399 80.225Z" fill="white"/>
<path d="M85.4369 75.4412C85.8113 75.2015 85.9207 74.7033 85.6807 74.3289C85.441 73.9545 84.9428 73.8451 84.5684 74.0851C84.194 74.3248 84.0846 74.823 84.3246 75.1974C84.5643 75.5718 85.0625 75.6809 85.4369 75.4412Z" fill="white"/>
<path d="M85.3507 77.8622C85.6463 77.6728 85.7328 77.2796 85.5434 76.984C85.354 76.6884 84.9607 76.6019 84.6651 76.7913C84.3695 76.9807 84.2831 77.374 84.4725 77.6696C84.6619 77.9652 85.0551 78.0513 85.3507 77.8622Z" fill="white"/>
<path d="M87.3613 75.8159C87.183 75.93 87.131 76.1671 87.2451 76.3453C87.3592 76.5235 87.5963 76.5756 87.7745 76.4615C87.9527 76.3473 88.0048 76.1103 87.8907 75.9321C87.7765 75.7538 87.5395 75.7018 87.3613 75.8159Z" fill="white"/>
<path d="M89.5229 70.8748C84.8671 68.4007 80.7538 65.0193 77.5529 60.8295C76.4509 59.3869 74.2785 59.3869 73.1765 60.8295C73.1279 60.8928 73.0774 60.9543 73.0285 61.0175C73.8553 61.6357 74.7012 62.2204 75.5662 62.7678C83.6565 67.8863 89.0541 77.0981 89.0541 87.6119C89.0541 95.3343 76.0468 99.3475 62.5244 99.6531C78.6029 102.474 102.499 99.5731 102.499 90.9504C102.499 82.4545 97.3065 75.0107 89.5229 70.8748V70.8748Z" fill="url(#paint28_linear_343_6622)"/>
<path d="M57.1614 45.7065C57.9267 46.7083 58.7467 47.6618 59.6155 48.5659C69.9326 47.8892 80.7999 47.8892 91.117 48.5659C91.9858 47.6621 92.8055 46.7083 93.5711 45.7065C93.6593 45.5909 93.7573 45.4886 93.8584 45.3924C81.782 44.4297 68.9502 44.4297 56.874 45.3924C56.9752 45.4889 57.0728 45.5909 57.1614 45.7065V45.7065Z" fill="url(#paint29_linear_343_6622)"/>
<path d="M97.7941 45.7439C98.8086 47.0674 99.9194 48.3051 101.111 49.4565C123.398 52.0027 140.974 58.0248 140.974 67.5242C140.974 93.4798 9.75708 93.4798 9.75708 67.5242C9.75708 58.0248 27.3336 52.0027 49.62 49.4565C50.8118 48.3051 51.9227 47.0674 52.9371 45.7439C26.0624 48.3957 3.89502 55.9621 3.89502 68.446C3.89502 100.147 146.836 100.147 146.836 68.446C146.836 55.9621 124.669 48.3957 97.7941 45.7439Z" fill="url(#paint30_linear_343_6622)"/>
<path d="M57.1614 45.7065C57.9267 46.7083 58.7467 47.6618 59.6155 48.5659C69.9326 47.8892 80.7999 47.8892 91.117 48.5659C91.9858 47.6621 92.8055 46.7083 93.5711 45.7065C93.6593 45.5909 93.7573 45.4886 93.8584 45.3924C81.782 44.4297 68.9502 44.4297 56.874 45.3924C56.9752 45.4889 57.0728 45.5909 57.1614 45.7065V45.7065Z" fill="url(#paint31_linear_343_6622)"/>
<path d="M97.7941 45.7439C98.8086 47.0674 99.9194 48.3051 101.111 49.4565C123.398 52.0027 140.974 58.0248 140.974 67.5242C140.974 93.4798 9.75708 93.4798 9.75708 67.5242C9.75708 58.0248 27.3336 52.0027 49.62 49.4565C50.8118 48.3051 51.9227 47.0674 52.9371 45.7439C26.0624 48.3957 3.89502 55.9621 3.89502 68.446C3.89502 100.147 146.836 100.147 146.836 68.446C146.836 55.9621 124.669 48.3957 97.7941 45.7439Z" fill="url(#paint32_linear_343_6622)"/>
<path d="M4.00031 68.447H3.89502V79.947C3.89502 111.647 146.836 111.647 146.836 79.947V68.447H146.731C142.446 98.1858 8.28531 98.1858 4.00031 68.447V68.447Z" fill="url(#paint33_linear_343_6622)"/>
<path d="M96.4167 25.7172C96.0632 24.7792 97.0347 23.9019 97.8699 24.4004C100.822 26.1619 105.155 29.7866 105.155 35.8863C105.155 45.1366 94.5367 46.0086 94.5367 52.8607C94.5367 56.3772 94.9805 58.8054 95.4126 60.3366C95.6626 61.2222 94.7991 62.0025 94.0038 61.6075C91.3582 60.2942 87.2891 57.0895 87.2891 49.801C87.2891 39.0019 97.8191 39.1625 97.8191 33.258C97.8194 30.1745 97.102 27.5351 96.4167 25.7172V25.7172Z" fill="url(#paint34_linear_343_6622)"/>
<path d="M79.7842 0.597822C79.5536 0.184881 80.1707 -0.19159 80.5842 0.10841C83.3889 2.1437 88.1321 6.44665 88.1321 12.2681C88.1321 20.5331 79.1551 22.8728 77.9589 29.3178C76.9913 34.5314 79.2089 39.6061 80.2257 41.5772C80.4021 41.9193 79.996 42.2661 79.5754 42.134C76.4821 41.1619 68.1607 37.5596 69.4033 27.1814C70.6071 17.1275 79.6121 17.5866 81.2101 11.0816C82.358 6.41106 80.9436 2.674 79.7842 0.597822V0.597822Z" fill="url(#paint35_linear_343_6622)"/>
<path d="M50.8778 27.9145C50.5625 27.1407 51.2231 26.4166 51.8661 26.828C54.1372 28.2816 57.5331 31.2725 57.8964 36.306C58.4472 43.9389 50.7066 44.6586 51.1149 50.3127C51.3243 53.2142 51.7946 55.218 52.2028 56.4816C52.439 57.2122 51.8519 57.8563 51.2446 57.5304C49.2249 56.4469 46.0478 53.8025 45.6137 47.788C44.9705 38.8769 52.7078 39.0095 52.3561 34.1372C52.1725 31.5927 51.489 29.4148 50.8778 27.9145V27.9145Z" fill="url(#paint36_linear_343_6622)"/>
<defs>
<linearGradient id="paint0_linear_343_6622" x1="59.2958" y1="66.3941" x2="98.9997" y2="159.036" gradientUnits="userSpaceOnUse">
<stop stop-color="#FFD945"/>
<stop offset="0.3043" stop-color="#FFCD3E"/>
<stop offset="0.8558" stop-color="#FFAD2B"/>
<stop offset="1" stop-color="#FFA325"/>
</linearGradient>
<linearGradient id="paint1_linear_343_6622" x1="21.6605" y1="131.547" x2="70.2876" y2="-69.2704" gradientUnits="userSpaceOnUse">
<stop stop-color="#F82814" stop-opacity="0"/>
<stop offset="1" stop-color="#C0272D"/>
</linearGradient>
<linearGradient id="paint2_linear_343_6622" x1="87.7558" y1="121.92" x2="180.839" y2="192.946" gradientUnits="userSpaceOnUse">
<stop stop-color="#F82814" stop-opacity="0"/>
<stop offset="1" stop-color="#C0272D"/>
</linearGradient>
<linearGradient id="paint3_linear_343_6622" x1="69.0096" y1="141.102" x2="106.851" y2="-15.1762" gradientUnits="userSpaceOnUse">
<stop stop-color="#F82814" stop-opacity="0"/>
<stop offset="1" stop-color="#C0272D"/>
</linearGradient>
<linearGradient id="paint4_linear_343_6622" x1="89.3579" y1="134.884" x2="76.4167" y2="86.6487" gradientUnits="userSpaceOnUse">
<stop stop-color="#FFD945"/>
<stop offset="0.3043" stop-color="#FFCD3E"/>
<stop offset="0.8558" stop-color="#FFAD2B"/>
<stop offset="1" stop-color="#FFA325"/>
</linearGradient>
<linearGradient id="paint5_linear_343_6622" x1="84.6471" y1="121.29" x2="65.2353" y2="18.0545" gradientUnits="userSpaceOnUse">
<stop stop-color="#F82814" stop-opacity="0"/>
<stop offset="1" stop-color="#C0272D"/>
</linearGradient>
<linearGradient id="paint6_linear_343_6622" x1="75.3652" y1="97.2654" x2="75.3652" y2="55.8924" gradientUnits="userSpaceOnUse">
<stop stop-color="#FFD945"/>
<stop offset="0.3043" stop-color="#FFCD3E"/>
<stop offset="0.8558" stop-color="#FFAD2B"/>
<stop offset="1" stop-color="#FFA325"/>
</linearGradient>
<linearGradient id="paint7_linear_343_6622" x1="70.877" y1="63.9929" x2="81.4014" y2="103.715" gradientUnits="userSpaceOnUse">
<stop stop-color="#A57C52"/>
<stop offset="0.1339" stop-color="#A26C4A"/>
<stop offset="0.5155" stop-color="#994336"/>
<stop offset="0.8174" stop-color="#942A2A"/>
<stop offset="1" stop-color="#922125"/>
</linearGradient>
<linearGradient id="paint8_linear_343_6622" x1="53.2308" y1="67.6715" x2="55.5764" y2="76.5241" gradientUnits="userSpaceOnUse">
<stop stop-color="#FFD945"/>
<stop offset="0.3043" stop-color="#FFCD3E"/>
<stop offset="0.8558" stop-color="#FFAD2B"/>
<stop offset="1" stop-color="#FFA325"/>
</linearGradient>
<linearGradient id="paint9_linear_343_6622" x1="71.2648" y1="75.4433" x2="73.8751" y2="85.295" gradientUnits="userSpaceOnUse">
<stop stop-color="#FFD945"/>
<stop offset="0.3043" stop-color="#FFCD3E"/>
<stop offset="0.8558" stop-color="#FFAD2B"/>
<stop offset="1" stop-color="#FFA325"/>
</linearGradient>
<linearGradient id="paint10_linear_343_6622" x1="89.7263" y1="83.8133" x2="92.2071" y2="93.1768" gradientUnits="userSpaceOnUse">
<stop stop-color="#FFD945"/>
<stop offset="0.3043" stop-color="#FFCD3E"/>
<stop offset="0.8558" stop-color="#FFAD2B"/>
<stop offset="1" stop-color="#FFA325"/>
</linearGradient>
<linearGradient id="paint11_linear_343_6622" x1="111.313" y1="88.7076" x2="106.215" y2="79.0018" gradientUnits="userSpaceOnUse">
<stop stop-color="#F82814" stop-opacity="0"/>
<stop offset="1" stop-color="#C0272D"/>
</linearGradient>
<linearGradient id="paint12_linear_343_6622" x1="110.259" y1="91.9728" x2="111.555" y2="96.8628" gradientUnits="userSpaceOnUse">
<stop stop-color="#FFD945"/>
<stop offset="0.3043" stop-color="#FFCD3E"/>
<stop offset="0.8558" stop-color="#FFAD2B"/>
<stop offset="1" stop-color="#FFA325"/>
</linearGradient>
<linearGradient id="paint13_linear_343_6622" x1="48.7607" y1="55.6677" x2="61.9395" y2="92.3927" gradientUnits="userSpaceOnUse">
<stop stop-color="#F8F6FB"/>
<stop offset="1" stop-color="#EFDCFB"/>
</linearGradient>
<linearGradient id="paint14_linear_343_6622" x1="54.6962" y1="61.9499" x2="9.80064" y2="20.8319" gradientUnits="userSpaceOnUse">
<stop stop-color="#EFDCFB" stop-opacity="0"/>
<stop offset="0.0287" stop-color="#E9D6F7" stop-opacity="0.029"/>
<stop offset="0.2203" stop-color="#C5B5DE" stop-opacity="0.22"/>
<stop offset="0.4138" stop-color="#AA9BCB" stop-opacity="0.414"/>
<stop offset="0.6078" stop-color="#9688BD" stop-opacity="0.608"/>
<stop offset="0.8028" stop-color="#8A7DB5" stop-opacity="0.803"/>
<stop offset="1" stop-color="#8679B2"/>
</linearGradient>
<linearGradient id="paint15_linear_343_6622" x1="59.2643" y1="59.1958" x2="5.18543" y2="36.4687" gradientUnits="userSpaceOnUse">
<stop stop-color="#EFDCFB" stop-opacity="0"/>
<stop offset="0.0287" stop-color="#E9D6F7" stop-opacity="0.029"/>
<stop offset="0.2203" stop-color="#C5B5DE" stop-opacity="0.22"/>
<stop offset="0.4138" stop-color="#AA9BCB" stop-opacity="0.414"/>
<stop offset="0.6078" stop-color="#9688BD" stop-opacity="0.608"/>
<stop offset="0.8028" stop-color="#8A7DB5" stop-opacity="0.803"/>
<stop offset="1" stop-color="#8679B2"/>
</linearGradient>
<linearGradient id="paint16_linear_343_6622" x1="64.6878" y1="52.8771" x2="43.1625" y2="67.2859" gradientUnits="userSpaceOnUse">
<stop stop-color="#EFDCFB" stop-opacity="0"/>
<stop offset="0.0287" stop-color="#E9D6F7" stop-opacity="0.029"/>
<stop offset="0.2203" stop-color="#C5B5DE" stop-opacity="0.22"/>
<stop offset="0.4138" stop-color="#AA9BCB" stop-opacity="0.414"/>
<stop offset="0.6078" stop-color="#9688BD" stop-opacity="0.608"/>
<stop offset="0.8028" stop-color="#8A7DB5" stop-opacity="0.803"/>
<stop offset="1" stop-color="#8679B2"/>
</linearGradient>
<linearGradient id="paint17_linear_343_6622" x1="57.0554" y1="68.9614" x2="105.671" y2="101.411" gradientUnits="userSpaceOnUse">
<stop stop-color="#EFDCFB" stop-opacity="0"/>
<stop offset="0.0287" stop-color="#E9D6F7" stop-opacity="0.029"/>
<stop offset="0.2203" stop-color="#C5B5DE" stop-opacity="0.22"/>
<stop offset="0.4138" stop-color="#AA9BCB" stop-opacity="0.414"/>
<stop offset="0.6078" stop-color="#9688BD" stop-opacity="0.608"/>
<stop offset="0.8028" stop-color="#8A7DB5" stop-opacity="0.803"/>
<stop offset="1" stop-color="#8679B2"/>
</linearGradient>
<linearGradient id="paint18_linear_343_6622" x1="89.3642" y1="55.6677" x2="102.543" y2="92.3927" gradientUnits="userSpaceOnUse">
<stop stop-color="#F8F6FB"/>
<stop offset="1" stop-color="#EFDCFB"/>
</linearGradient>
<linearGradient id="paint19_linear_343_6622" x1="94.74" y1="61.4373" x2="49.8444" y2="20.3193" gradientUnits="userSpaceOnUse">
<stop stop-color="#EFDCFB" stop-opacity="0"/>
<stop offset="0.0287" stop-color="#E9D6F7" stop-opacity="0.029"/>
<stop offset="0.2203" stop-color="#C5B5DE" stop-opacity="0.22"/>
<stop offset="0.4138" stop-color="#AA9BCB" stop-opacity="0.414"/>
<stop offset="0.6078" stop-color="#9688BD" stop-opacity="0.608"/>
<stop offset="0.8028" stop-color="#8A7DB5" stop-opacity="0.803"/>
<stop offset="1" stop-color="#8679B2"/>
</linearGradient>
<linearGradient id="paint20_linear_343_6622" x1="99.9728" y1="59.2399" x2="45.8939" y2="36.5128" gradientUnits="userSpaceOnUse">
<stop stop-color="#EFDCFB" stop-opacity="0"/>
<stop offset="0.0287" stop-color="#E9D6F7" stop-opacity="0.029"/>
<stop offset="0.2203" stop-color="#C5B5DE" stop-opacity="0.22"/>
<stop offset="0.4138" stop-color="#AA9BCB" stop-opacity="0.414"/>
<stop offset="0.6078" stop-color="#9688BD" stop-opacity="0.608"/>
<stop offset="0.8028" stop-color="#8A7DB5" stop-opacity="0.803"/>
<stop offset="1" stop-color="#8679B2"/>
</linearGradient>
<linearGradient id="paint21_linear_343_6622" x1="105.585" y1="52.6806" x2="84.0595" y2="67.0894" gradientUnits="userSpaceOnUse">
<stop stop-color="#EFDCFB" stop-opacity="0"/>
<stop offset="0.0287" stop-color="#E9D6F7" stop-opacity="0.029"/>
<stop offset="0.2203" stop-color="#C5B5DE" stop-opacity="0.22"/>
<stop offset="0.4138" stop-color="#AA9BCB" stop-opacity="0.414"/>
<stop offset="0.6078" stop-color="#9688BD" stop-opacity="0.608"/>
<stop offset="0.8028" stop-color="#8A7DB5" stop-opacity="0.803"/>
<stop offset="1" stop-color="#8679B2"/>
</linearGradient>
<linearGradient id="paint22_linear_343_6622" x1="100.781" y1="71.0449" x2="149.396" y2="103.494" gradientUnits="userSpaceOnUse">
<stop stop-color="#EFDCFB" stop-opacity="0"/>
<stop offset="0.0287" stop-color="#E9D6F7" stop-opacity="0.029"/>
<stop offset="0.2203" stop-color="#C5B5DE" stop-opacity="0.22"/>
<stop offset="0.4138" stop-color="#AA9BCB" stop-opacity="0.414"/>
<stop offset="0.6078" stop-color="#9688BD" stop-opacity="0.608"/>
<stop offset="0.8028" stop-color="#8A7DB5" stop-opacity="0.803"/>
<stop offset="1" stop-color="#8679B2"/>
</linearGradient>
<linearGradient id="paint23_linear_343_6622" x1="107.775" y1="95.7837" x2="48.8301" y2="49.2484" gradientUnits="userSpaceOnUse">
<stop stop-color="#EFDCFB" stop-opacity="0"/>
<stop offset="0.0287" stop-color="#E9D6F7" stop-opacity="0.029"/>
<stop offset="0.2203" stop-color="#C5B5DE" stop-opacity="0.22"/>
<stop offset="0.4138" stop-color="#AA9BCB" stop-opacity="0.414"/>
<stop offset="0.6078" stop-color="#9688BD" stop-opacity="0.608"/>
<stop offset="0.8028" stop-color="#8A7DB5" stop-opacity="0.803"/>
<stop offset="1" stop-color="#8679B2"/>
</linearGradient>
<linearGradient id="paint24_linear_343_6622" x1="68.7893" y1="71.2222" x2="82.5399" y2="109.54" gradientUnits="userSpaceOnUse">
<stop stop-color="#F8F6FB"/>
<stop offset="1" stop-color="#EFDCFB"/>
</linearGradient>
<linearGradient id="paint25_linear_343_6622" x1="75.1821" y1="77.9616" x2="28.3385" y2="35.0598" gradientUnits="userSpaceOnUse">
<stop stop-color="#EFDCFB" stop-opacity="0"/>
<stop offset="0.0287" stop-color="#E9D6F7" stop-opacity="0.029"/>
<stop offset="0.2203" stop-color="#C5B5DE" stop-opacity="0.22"/>
<stop offset="0.4138" stop-color="#AA9BCB" stop-opacity="0.414"/>
<stop offset="0.6078" stop-color="#9688BD" stop-opacity="0.608"/>
<stop offset="0.8028" stop-color="#8A7DB5" stop-opacity="0.803"/>
<stop offset="1" stop-color="#8679B2"/>
</linearGradient>
<linearGradient id="paint26_linear_343_6622" x1="79.7012" y1="74.8838" x2="23.2762" y2="51.1709" gradientUnits="userSpaceOnUse">
<stop stop-color="#EFDCFB" stop-opacity="0"/>
<stop offset="0.0287" stop-color="#E9D6F7" stop-opacity="0.029"/>
<stop offset="0.2203" stop-color="#C5B5DE" stop-opacity="0.22"/>
<stop offset="0.4138" stop-color="#AA9BCB" stop-opacity="0.414"/>
<stop offset="0.6078" stop-color="#9688BD" stop-opacity="0.608"/>
<stop offset="0.8028" stop-color="#8A7DB5" stop-opacity="0.803"/>
<stop offset="1" stop-color="#8679B2"/>
</linearGradient>
<linearGradient id="paint27_linear_343_6622" x1="85.2556" y1="68.4122" x2="62.7965" y2="83.4464" gradientUnits="userSpaceOnUse">
<stop stop-color="#EFDCFB" stop-opacity="0"/>
<stop offset="0.0287" stop-color="#E9D6F7" stop-opacity="0.029"/>
<stop offset="0.2203" stop-color="#C5B5DE" stop-opacity="0.22"/>
<stop offset="0.4138" stop-color="#AA9BCB" stop-opacity="0.414"/>
<stop offset="0.6078" stop-color="#9688BD" stop-opacity="0.608"/>
<stop offset="0.8028" stop-color="#8A7DB5" stop-opacity="0.803"/>
<stop offset="1" stop-color="#8679B2"/>
</linearGradient>
<linearGradient id="paint28_linear_343_6622" x1="77.4121" y1="85.0722" x2="128.136" y2="118.929" gradientUnits="userSpaceOnUse">
<stop stop-color="#EFDCFB" stop-opacity="0"/>
<stop offset="0.0287" stop-color="#E9D6F7" stop-opacity="0.029"/>
<stop offset="0.2203" stop-color="#C5B5DE" stop-opacity="0.22"/>
<stop offset="0.4138" stop-color="#AA9BCB" stop-opacity="0.414"/>
<stop offset="0.6078" stop-color="#9688BD" stop-opacity="0.608"/>
<stop offset="0.8028" stop-color="#8A7DB5" stop-opacity="0.803"/>
<stop offset="1" stop-color="#8679B2"/>
</linearGradient>
<linearGradient id="paint29_linear_343_6622" x1="74.239" y1="41.44" x2="78.4887" y2="56.3439" gradientUnits="userSpaceOnUse">
<stop stop-color="#FFD945"/>
<stop offset="0.3043" stop-color="#FFCD3E"/>
<stop offset="0.8558" stop-color="#FFAD2B"/>
<stop offset="1" stop-color="#FFA325"/>
</linearGradient>
<linearGradient id="paint30_linear_343_6622" x1="68.2647" y1="43.543" x2="89.1868" y2="116.917" gradientUnits="userSpaceOnUse">
<stop stop-color="#FFD945"/>
<stop offset="0.3043" stop-color="#FFCD3E"/>
<stop offset="0.8558" stop-color="#FFAD2B"/>
<stop offset="1" stop-color="#FFA325"/>
</linearGradient>
<linearGradient id="paint31_linear_343_6622" x1="74.239" y1="41.44" x2="78.4887" y2="56.3439" gradientUnits="userSpaceOnUse">
<stop stop-color="#FFD945"/>
<stop offset="0.3043" stop-color="#FFCD3E"/>
<stop offset="0.8558" stop-color="#FFAD2B"/>
<stop offset="1" stop-color="#FFA325"/>
</linearGradient>
<linearGradient id="paint32_linear_343_6622" x1="68.2647" y1="43.543" x2="89.1868" y2="116.917" gradientUnits="userSpaceOnUse">
<stop stop-color="#FFD945"/>
<stop offset="0.3043" stop-color="#FFCD3E"/>
<stop offset="0.8558" stop-color="#FFAD2B"/>
<stop offset="1" stop-color="#FFA325"/>
</linearGradient>
<linearGradient id="paint33_linear_343_6622" x1="61.6009" y1="50.1194" x2="82.4833" y2="88.6488" gradientUnits="userSpaceOnUse">
<stop stop-color="#FFD945"/>
<stop offset="0.3043" stop-color="#FFCD3E"/>
<stop offset="0.8558" stop-color="#FFAD2B"/>
<stop offset="1" stop-color="#FFA325"/>
</linearGradient>
<linearGradient id="paint34_linear_343_6622" x1="90.5494" y1="40.4372" x2="116.252" y2="52.6692" gradientUnits="userSpaceOnUse">
<stop stop-color="#E87264" stop-opacity="0"/>
<stop offset="1" stop-color="#F8DFBE"/>
</linearGradient>
<linearGradient id="paint35_linear_343_6622" x1="71.6398" y1="19.1137" x2="89.8489" y2="23.3981" gradientUnits="userSpaceOnUse">
<stop stop-color="#E87264" stop-opacity="0"/>
<stop offset="0.1575" stop-color="#E97869" stop-opacity="0.158"/>
<stop offset="0.3778" stop-color="#EC8B78" stop-opacity="0.378"/>
<stop offset="0.6353" stop-color="#F0A991" stop-opacity="0.635"/>
<stop offset="0.9188" stop-color="#F6D2B3" stop-opacity="0.919"/>
<stop offset="1" stop-color="#F8DFBE"/>
</linearGradient>
<linearGradient id="paint36_linear_343_6622" x1="45.8252" y1="39.9404" x2="59.7461" y2="45.3654" gradientUnits="userSpaceOnUse">
<stop stop-color="#E87264" stop-opacity="0"/>
<stop offset="1" stop-color="#F8DFBE"/>
</linearGradient>
</defs>
</svg>
