<svg width="138" height="151" viewBox="0 0 138 151" fill="none" xmlns="http://www.w3.org/2000/svg">
<path d="M25.0352 100.356L34.8138 100.45C37.0126 100.471 38.8123 98.7054 38.8332 96.5066L39.4893 8.37537C39.5176 5.41037 36.4111 3.45566 33.7505 4.76478L25.3076 8.91831C23.1105 9.99919 21.7096 12.2257 21.6864 14.6739L21.092 96.3372C21.0711 98.5357 22.8364 100.335 25.0352 100.356Z" fill="url(#paint0_linear_343_6981)"/>
<path d="M39.06 66.2124L38.8347 96.5077C38.8115 98.7062 37.0138 100.471 34.8153 100.451L25.0347 100.355C22.8362 100.335 21.0715 98.5338 21.0915 96.3353L21.6874 14.6735C21.7038 12.7497 22.5747 10.9653 24.0082 9.77002L34.7391 63.0403C35.1465 65.0735 37.0403 66.4277 39.06 66.2124Z" fill="url(#paint1_linear_343_6981)"/>
<path d="M64.0339 100.356L54.2554 100.45C52.0565 100.471 50.2568 98.7054 50.236 96.5066L49.5798 8.37537C49.5515 5.41037 52.658 3.45566 55.3186 4.76478L63.7615 8.91831C65.9586 9.99919 67.3595 12.2257 67.3827 14.6739L67.9771 96.3372C67.9983 98.5357 66.2327 100.335 64.0339 100.356Z" fill="url(#paint2_linear_343_6981)"/>
<path d="M98.0163 96.383L88.2378 96.4766C86.039 96.4975 84.2393 94.7322 84.2184 92.5333L83.5622 4.40215C83.534 1.43686 86.6404 -0.517554 89.301 0.79127L97.744 4.9448C99.941 6.02568 101.342 8.25215 101.365 10.7004L101.96 92.3636C101.981 94.5624 100.215 96.3622 98.0163 96.383Z" fill="url(#paint3_linear_343_6981)"/>
<path d="M113.727 89.3758L103.996 90.3517C101.808 90.5711 99.8567 88.9755 99.6373 86.7872L92.782 18.4446C92.4861 15.4943 95.4035 13.2672 98.1714 14.3305L106.955 17.7046C109.241 18.5825 110.837 20.6734 111.081 23.1096L117.291 85.0167C117.511 87.2046 115.915 89.1564 113.727 89.3758Z" fill="url(#paint4_linear_343_6981)"/>
<path d="M53.9585 98.4591L44.2282 99.435C42.0403 99.6544 40.0744 97.9167 39.8373 95.5535L32.4329 21.7376C32.1132 18.5509 35.0153 16.1706 37.7938 17.3403L46.6111 21.0517C48.9056 22.0176 50.5197 24.2867 50.7835 26.9182L57.4906 93.7826C57.7279 96.1459 56.1464 98.2394 53.9585 98.4591Z" fill="url(#paint5_linear_343_6981)"/>
<path d="M107.52 98.7645L117.141 100.518C119.304 100.913 121.377 99.4786 121.772 97.3153L137.396 10.5777C137.928 7.66063 135.199 5.20651 132.354 6.04416L123.328 8.70239C120.979 9.39416 119.22 11.35 118.781 13.7589L104.317 94.1333C103.923 96.2968 105.356 98.37 107.52 98.7645Z" fill="url(#paint6_linear_343_6981)"/>
<path d="M123.327 8.70241C120.978 9.39418 119.22 11.3501 118.781 13.7589L104.317 94.1333C103.922 96.2965 105.356 98.3701 107.52 98.7645L109.309 99.0907C109.84 98.4621 110.229 97.6674 110.393 96.7656L126.446 7.78418L123.327 8.70241Z" fill="url(#paint7_linear_343_6981)"/>
<path d="M76.1028 102.268L85.8422 101.374C88.0322 101.173 89.6469 99.207 89.449 96.9828L81.3272 7.86107C81.0602 4.86195 77.7746 3.20107 75.2572 4.79283L67.2696 9.84371C65.191 11.1581 64.019 13.5493 64.2393 16.0258L71.7787 98.6058C71.9769 100.83 73.9128 102.469 76.1028 102.268Z" fill="url(#paint8_linear_343_6981)"/>
<path d="M67.2696 9.84334C65.191 11.1578 64.019 13.5489 64.2393 16.0254L71.7787 98.6054C71.9766 100.83 73.9125 102.469 76.1025 102.268L77.914 102.102C78.2578 101.343 78.4202 100.459 78.3375 99.5322L70.029 8.09863L67.2696 9.84334Z" fill="url(#paint9_linear_343_6981)"/>
<path d="M121.1 62.685C120.884 62.3861 120.624 62.1085 120.311 61.8653L88.7362 38.0867C82.2256 33.002 73.2253 36.3156 71.2435 44.3353L67.7988 55.0123L71.7788 98.6055C71.9768 100.83 73.9126 102.47 76.1026 102.268L85.8421 101.374C88.0321 101.173 89.6468 99.207 89.4488 96.9829L89.4018 96.4653L98.0165 96.3829C100.215 96.362 101.981 94.5623 101.96 92.3635L101.943 90.007C102.564 90.2926 103.266 90.425 103.996 90.3517L105.015 90.2497L104.316 94.1335C103.922 96.2967 105.356 98.3703 107.519 98.7647L117.14 100.518C119.303 100.913 121.376 99.4788 121.771 97.3156L126.954 68.5391L121.1 62.685Z" fill="url(#paint10_linear_343_6981)"/>
<path d="M56.3893 38.1075C55.5219 36.6504 38.6766 41.3548 38.1931 43.7551L26.7852 100.372L34.8143 100.449C37.0131 100.47 38.8128 98.7048 38.8337 96.506L38.9096 86.3004L39.8378 95.5534C40.0749 97.9166 42.0407 99.6542 44.2287 99.4348L50.9631 98.7592C51.6913 99.7916 52.8966 100.462 54.2554 100.449L64.034 100.356C66.2328 100.335 67.9984 98.5351 67.9772 96.3363L71.779 98.6051C71.9769 100.829 73.9128 102.469 76.1028 102.268L85.8422 101.374C88.0322 101.172 89.6469 99.2066 89.449 96.9825L89.4019 96.4648L98.0166 96.3825C100.215 96.3616 101.981 94.5619 101.96 92.3631L101.943 90.0066C102.565 90.2922 103.266 90.4245 103.996 90.3513L108.21 89.9287L56.3893 38.1075Z" fill="url(#paint11_linear_343_6981)"/>
<path d="M120.311 61.8653L88.7361 37.2044C82.2255 32.1197 72.637 35.4332 70.6552 43.4529L58.4155 92.985C57.8826 95.1206 59.1802 97.2794 61.3126 97.8124L70.8017 100.18C72.9341 100.713 75.0961 99.415 75.6291 97.2826L85.5355 57.2265L104.315 71.9006C106.249 73.4038 108.861 73.6918 111.073 72.6388L119.576 68.6062C122.255 67.335 122.652 63.6862 120.311 61.8653Z" fill="url(#paint12_linear_343_6981)"/>
<path d="M85.5361 57.2265L75.6297 97.2827C75.0967 99.415 72.9347 100.713 70.8023 100.18L61.3132 97.8124C59.1808 97.2794 57.8829 95.1206 58.4161 92.985L70.2097 45.2542L85.5361 57.2265Z" fill="url(#paint13_linear_343_6981)"/>
<path d="M28.8122 98.4388L19.2257 100.37C17.0701 100.805 14.9704 99.4091 14.536 97.2535L0.969239 29.9211C0.383651 27.0144 3.06689 24.5103 5.9263 25.2953L15.0001 27.7861C17.3613 28.4344 19.156 30.3573 19.6395 32.7576L31.9289 93.7497C32.3631 95.905 30.9678 98.0047 28.8122 98.4388Z" fill="url(#paint14_linear_343_6981)"/>
<path d="M28.8122 98.4388L19.2257 100.37C17.0701 100.805 14.9704 99.4091 14.536 97.2535L0.969239 29.9211C0.383651 27.0144 3.06689 24.5103 5.9263 25.2953L15.0001 27.7861C17.3613 28.4344 19.156 30.3573 19.6395 32.7576L31.9289 93.7497C32.3631 95.905 30.9678 98.0047 28.8122 98.4388Z" fill="url(#paint15_linear_343_6981)"/>
<path d="M29.02 109.437L38.6065 111.368C40.7621 111.803 42.8618 110.407 43.2962 108.251L56.8633 40.9187C57.4489 38.0119 54.7656 35.5078 51.9062 36.2928L42.8324 38.7837C40.4712 39.4319 38.6765 41.3549 38.193 43.7552L25.9035 104.747C25.4688 106.903 26.8644 109.003 29.02 109.437Z" fill="url(#paint16_linear_343_6981)"/>
<path d="M6.67627 58.2455L14.5363 97.2537C14.9707 99.4093 17.0701 100.805 19.226 100.37L22.8077 99.6487C23.4407 100.088 24.2072 100.348 25.0354 100.356L26.7851 100.373L25.9036 104.747C25.4692 106.903 26.8648 109.003 29.0204 109.437L38.6069 111.368C40.7625 111.803 42.8622 110.407 43.2966 108.251L45.0904 99.3481L50.9633 98.759C51.6916 99.7913 52.8969 100.462 54.2557 100.449L64.0342 100.355C65.1222 100.345 66.103 99.8984 66.8148 99.1843L70.8025 100.179C71.3072 100.305 71.8128 100.326 72.2989 100.26C73.051 101.581 74.508 102.414 76.1033 102.268L85.8428 101.373C88.0327 101.172 89.6475 99.2063 89.4495 96.9822L89.4025 96.4646L98.0172 96.3822C100.216 96.3613 101.982 94.5616 101.96 92.3628L101.943 90.0063C102.565 90.2919 103.267 90.4243 103.997 90.351L105.016 90.249L104.317 94.1328C103.922 96.2961 105.357 98.3696 107.52 98.764L117.14 100.518C119.304 100.912 121.377 99.4781 121.772 97.3149L128.809 58.2449H6.67627V58.2455Z" fill="url(#paint17_linear_343_6981)"/>
<path d="M124.639 76.8491C118.076 76.8491 111.653 78.5915 105.898 81.7485C96.8088 86.735 83.4329 89.8862 68.5179 89.8862C53.6029 89.8862 40.2273 86.735 31.1376 81.7485C25.3829 78.5915 18.9603 76.8491 12.3964 76.8491C10.3223 76.8491 8.79527 78.79 9.28262 80.8059L23.7938 140.798C25.2356 146.759 30.7812 150.805 36.8964 150.341C57.0417 148.812 79.9935 148.812 100.139 150.341C106.254 150.805 111.8 146.759 113.241 140.798L127.753 80.8059C128.241 78.7897 126.713 76.8491 124.639 76.8491Z" fill="url(#paint18_linear_343_6981)"/>
<path d="M100.741 106.973C100.246 106.189 99.4029 105.631 98.3891 105.559C79.2573 104.201 57.7788 104.201 38.6467 105.559C36.7699 105.692 35.4661 107.484 35.9091 109.312C36.7879 112.94 38.1732 118.66 39.1699 122.775C39.4997 124.135 40.267 125.291 41.2932 126.12L64.3867 149.213C76.5258 149.103 88.7788 149.479 100.139 150.341C106.255 150.805 111.8 146.759 113.242 140.797L117.395 123.627L100.741 106.973Z" fill="url(#paint19_linear_343_6981)"/>
<path d="M35.909 109.312C36.7878 112.94 38.1731 118.66 39.1699 122.775C39.869 125.66 42.521 127.641 45.4857 127.485C60.4904 126.691 76.5452 126.691 91.5499 127.485C94.5146 127.641 97.1669 125.66 97.8657 122.775C98.8625 118.66 100.248 112.94 101.127 109.312C101.57 107.484 100.266 105.692 98.389 105.559C79.2572 104.201 57.7784 104.201 38.6466 105.559C36.7699 105.692 35.4663 107.484 35.909 109.312Z" fill="url(#paint20_linear_343_6981)"/>
<path d="M21.0918 129.627L23.7936 140.798C25.2353 146.759 30.7809 150.805 36.8962 150.341C57.0415 148.812 79.9933 148.812 100.139 150.341C106.254 150.805 111.799 146.759 113.241 140.798L115.943 129.627H21.0918Z" fill="url(#paint21_linear_343_6981)"/>
<defs>
<linearGradient id="paint0_linear_343_6981" x1="21.2205" y1="48.4689" x2="53.6682" y2="62.3748" gradientUnits="userSpaceOnUse">
<stop stop-color="#FFD945"/>
<stop offset="0.3043" stop-color="#FFCD3E"/>
<stop offset="0.8558" stop-color="#FFAD2B"/>
<stop offset="1" stop-color="#FFA325"/>
</linearGradient>
<linearGradient id="paint1_linear_343_6981" x1="31.7324" y1="54.5247" x2="12.7494" y2="60.043" gradientUnits="userSpaceOnUse">
<stop stop-color="#F82814" stop-opacity="0"/>
<stop offset="1" stop-color="#C0272D"/>
</linearGradient>
<linearGradient id="paint2_linear_343_6981" x1="81.4604" y1="30.618" x2="65.5677" y2="45.8486" gradientUnits="userSpaceOnUse">
<stop stop-color="#FFD945"/>
<stop offset="0.3043" stop-color="#FFCD3E"/>
<stop offset="0.8558" stop-color="#FFAD2B"/>
<stop offset="1" stop-color="#FFA325"/>
</linearGradient>
<linearGradient id="paint3_linear_343_6981" x1="81.1081" y1="47.1819" x2="93.6898" y2="49.4998" gradientUnits="userSpaceOnUse">
<stop stop-color="#FFD945"/>
<stop offset="0.3043" stop-color="#FFCD3E"/>
<stop offset="0.8558" stop-color="#FFAD2B"/>
<stop offset="1" stop-color="#FFA325"/>
</linearGradient>
<linearGradient id="paint4_linear_343_6981" x1="97.9894" y1="52.0831" x2="108.805" y2="52.7455" gradientUnits="userSpaceOnUse">
<stop stop-color="#FFD945"/>
<stop offset="0.3043" stop-color="#FFCD3E"/>
<stop offset="0.8558" stop-color="#FFAD2B"/>
<stop offset="1" stop-color="#FFA325"/>
</linearGradient>
<linearGradient id="paint5_linear_343_6981" x1="54.7657" y1="53.0832" x2="35.2343" y2="61.3232" gradientUnits="userSpaceOnUse">
<stop stop-color="#FFD945"/>
<stop offset="0.3043" stop-color="#FFCD3E"/>
<stop offset="0.8558" stop-color="#FFAD2B"/>
<stop offset="1" stop-color="#FFA325"/>
</linearGradient>
<linearGradient id="paint6_linear_343_6981" x1="108.15" y1="44.0677" x2="137.779" y2="63.2953" gradientUnits="userSpaceOnUse">
<stop stop-color="#FFD945"/>
<stop offset="0.3043" stop-color="#FFCD3E"/>
<stop offset="0.8558" stop-color="#FFAD2B"/>
<stop offset="1" stop-color="#FFA325"/>
</linearGradient>
<linearGradient id="paint7_linear_343_6981" x1="110.515" y1="36.1136" x2="138.106" y2="124.627" gradientUnits="userSpaceOnUse">
<stop stop-color="#F82814" stop-opacity="0"/>
<stop offset="1" stop-color="#C0272D"/>
</linearGradient>
<linearGradient id="paint8_linear_343_6981" x1="67.0992" y1="50.2246" x2="101.045" y2="60.9011" gradientUnits="userSpaceOnUse">
<stop stop-color="#FFD945"/>
<stop offset="0.3043" stop-color="#FFCD3E"/>
<stop offset="0.8558" stop-color="#FFAD2B"/>
<stop offset="1" stop-color="#FFA325"/>
</linearGradient>
<linearGradient id="paint9_linear_343_6981" x1="50.5729" y1="22.2964" x2="101.529" y2="101.382" gradientUnits="userSpaceOnUse">
<stop stop-color="#F82814" stop-opacity="0"/>
<stop offset="1" stop-color="#C0272D"/>
</linearGradient>
<linearGradient id="paint10_linear_343_6981" x1="104.211" y1="97.8697" x2="79.1424" y2="24.8429" gradientUnits="userSpaceOnUse">
<stop stop-color="#F82814" stop-opacity="0"/>
<stop offset="1" stop-color="#C0272D"/>
</linearGradient>
<linearGradient id="paint11_linear_343_6981" x1="68.031" y1="80.4698" x2="6.9781" y2="54.4619" gradientUnits="userSpaceOnUse">
<stop stop-color="#F82814" stop-opacity="0"/>
<stop offset="1" stop-color="#C0272D"/>
</linearGradient>
<linearGradient id="paint12_linear_343_6981" x1="76.6699" y1="68.0309" x2="113.919" y2="83.9947" gradientUnits="userSpaceOnUse">
<stop stop-color="#FFD945"/>
<stop offset="0.3043" stop-color="#FFCD3E"/>
<stop offset="0.8558" stop-color="#FFAD2B"/>
<stop offset="1" stop-color="#FFA325"/>
</linearGradient>
<linearGradient id="paint13_linear_343_6981" x1="72.2673" y1="73.1315" x2="100.411" y2="79.7536" gradientUnits="userSpaceOnUse">
<stop stop-color="#F82814" stop-opacity="0"/>
<stop offset="1" stop-color="#C0272D"/>
</linearGradient>
<linearGradient id="paint14_linear_343_6981" x1="3.38484" y1="59.8636" x2="37.3602" y2="70.8985" gradientUnits="userSpaceOnUse">
<stop stop-color="#FFD945"/>
<stop offset="0.3043" stop-color="#FFCD3E"/>
<stop offset="0.8558" stop-color="#FFAD2B"/>
<stop offset="1" stop-color="#FFA325"/>
</linearGradient>
<linearGradient id="paint15_linear_343_6981" x1="3.38484" y1="59.8636" x2="37.3602" y2="70.8985" gradientUnits="userSpaceOnUse">
<stop stop-color="#FFD945"/>
<stop offset="0.3043" stop-color="#FFCD3E"/>
<stop offset="0.8558" stop-color="#FFAD2B"/>
<stop offset="1" stop-color="#FFA325"/>
</linearGradient>
<linearGradient id="paint16_linear_343_6981" x1="30.4659" y1="67.6511" x2="50.0006" y2="76.9217" gradientUnits="userSpaceOnUse">
<stop stop-color="#FFD945"/>
<stop offset="0.3043" stop-color="#FFCD3E"/>
<stop offset="0.8558" stop-color="#FFAD2B"/>
<stop offset="1" stop-color="#FFA325"/>
</linearGradient>
<linearGradient id="paint17_linear_343_6981" x1="67.7425" y1="67.0502" x2="67.7425" y2="104.47" gradientUnits="userSpaceOnUse">
<stop stop-color="#F82814" stop-opacity="0"/>
<stop offset="0.2662" stop-color="#EE2818" stop-opacity="0.266"/>
<stop offset="0.7123" stop-color="#D42724" stop-opacity="0.712"/>
<stop offset="1" stop-color="#C0272D"/>
</linearGradient>
<linearGradient id="paint18_linear_343_6981" x1="31.3917" y1="93.23" x2="124.099" y2="132.631" gradientUnits="userSpaceOnUse">
<stop stop-color="#FF6359"/>
<stop offset="0.2243" stop-color="#FE5B50"/>
<stop offset="0.5952" stop-color="#FC4637"/>
<stop offset="1" stop-color="#F82814"/>
</linearGradient>
<linearGradient id="paint19_linear_343_6981" x1="85.8917" y1="156.833" x2="73.3102" y2="101.871" gradientUnits="userSpaceOnUse">
<stop stop-color="#F82814" stop-opacity="0"/>
<stop offset="1" stop-color="#C0272D"/>
</linearGradient>
<linearGradient id="paint20_linear_343_6981" x1="65.041" y1="103.657" x2="78.4499" y2="134.448" gradientUnits="userSpaceOnUse">
<stop stop-color="#FFD945"/>
<stop offset="0.3043" stop-color="#FFCD3E"/>
<stop offset="0.8558" stop-color="#FFAD2B"/>
<stop offset="1" stop-color="#FFA325"/>
</linearGradient>
<linearGradient id="paint21_linear_343_6981" x1="68.5177" y1="136.911" x2="68.5177" y2="156.254" gradientUnits="userSpaceOnUse">
<stop stop-color="#F82814" stop-opacity="0"/>
<stop offset="1" stop-color="#C0272D"/>
</linearGradient>
</defs>
</svg>
