<svg width="151" height="151" viewBox="0 0 151 151" fill="none" xmlns="http://www.w3.org/2000/svg">
<path d="M146.214 44.2693C152.197 38.2237 152.377 28.4022 146.605 22.1546C143.221 18.4916 138.567 16.7822 133.994 17.0205C134.232 12.4458 132.52 7.7887 128.854 4.40428C122.605 -1.36454 112.786 -1.18101 106.742 4.80281C101.972 9.52605 100.797 16.4969 103.217 22.3272C104.735 25.9855 103.998 30.1881 101.197 32.9887L90.4785 43.7072L107.306 60.5343L118.024 49.8158C120.825 47.0152 125.027 46.2772 128.685 47.7958C134.517 50.2175 141.491 49.0416 146.214 44.2693Z" fill="url(#paint0_linear_343_7135)"/>
<path d="M106.685 27.5025C110.025 30.8416 114.475 32.3972 118.846 32.1675C119.043 28.3539 120.598 24.5998 123.511 21.6872C126.424 18.7745 130.18 17.2175 133.993 17.0204C134.223 12.6492 132.667 8.19894 129.328 4.85983C123.075 -1.3937 112.937 -1.3937 106.684 4.85983C100.432 11.1116 100.432 21.2489 106.685 27.5025Z" fill="url(#paint1_linear_343_7135)"/>
<path d="M107.306 60.5345L114.218 53.6222L105.383 44.7872C104.407 43.6539 102.868 43.0742 101.301 43.4507C100.347 43.6801 99.3697 43.5069 98.5721 43.0175L98.5529 42.9984C98.4835 42.9289 97.1747 41.6201 97.1747 41.6201C96.3482 40.7936 95.3473 40.2201 94.2785 39.9075L90.4785 43.7075L107.306 60.5345Z" fill="url(#paint2_linear_343_7135)"/>
<path d="M14.0944 70.6563L14.0659 70.838C13.575 73.9627 11.745 76.718 9.05527 78.3825L8.9691 78.4357C4.92704 80.9369 2.98292 85.7775 4.17174 90.3795L4.21969 90.5651C4.99645 93.5722 4.44822 96.768 2.71351 99.3442L2.69498 99.3719C-0.0038439 103.38 0.271156 108.689 3.36969 112.396L3.71969 112.815C5.58027 115.041 6.38821 117.963 5.93586 120.829V120.829C5.17998 125.616 7.8338 130.29 12.332 132.094L12.7276 132.253C15.4782 133.356 17.6582 135.536 18.7609 138.287L18.7844 138.346C20.6235 142.934 25.3247 145.654 30.2329 145.072C33.1988 144.72 36.1791 145.607 38.4717 147.523L38.6167 147.644C42.3229 150.742 47.6306 151.018 51.6376 148.321L51.6712 148.298C54.2464 146.565 57.4409 146.017 60.4464 146.794L60.6317 146.842C65.2344 148.031 70.075 146.087 72.5767 142.045L72.6303 141.958C74.295 139.268 77.0503 137.439 80.175 136.947L80.3567 136.919C85.0109 136.187 88.6618 132.537 89.3935 127.882L89.4221 127.701C89.9135 124.576 91.7432 121.82 94.4329 120.155L94.5212 120.101C98.5623 117.599 100.506 112.759 99.3165 108.157L99.2685 107.972C98.4918 104.965 99.0397 101.77 100.774 99.1945L100.794 99.1648C102.1 97.226 101.794 93.8722 101.099 90.8719C100.366 87.7136 101.881 84.5598 104.668 82.9016C104.697 82.8839 104.723 82.8672 104.745 82.8507C106.144 81.7969 107.016 80.1177 106.89 78.2822C106.816 77.1933 107.288 76.1378 108.106 75.4154L111.672 72.2675C113.173 70.9427 113.376 68.6104 112.014 67.1442C111.049 66.1063 110.783 64.6016 111.329 63.2972L113.072 59.1345C114.255 56.3095 112.18 53.191 109.117 53.191C108.181 53.191 107.379 52.5207 107.213 51.5992L106.352 46.8213C105.925 44.4522 103.641 42.8883 101.3 43.4507C99.7803 43.816 98.2003 43.1607 97.3844 41.8304L97.1741 41.6201C95.0632 39.5092 91.822 39.023 89.185 40.4219C88.1506 40.9704 86.8791 40.7798 86.0512 39.9519C84.0847 37.9854 81.115 38.2001 79.4515 40.4286L77.7326 42.7316C77.1226 43.5489 76.1947 44.0698 75.1791 44.1648L72.435 44.4216C70.7388 44.5801 69.1782 45.2875 67.9591 46.3892C67.9506 46.3969 67.942 46.4048 67.9332 46.413C65.8729 48.3551 63.0159 49.2322 60.2509 48.6227C57.4173 47.998 54.3738 48.5177 51.8476 50.2192L51.82 50.2377C49.245 51.9727 46.0497 52.5213 43.0435 51.7445L42.8562 51.696C38.2538 50.5069 33.4132 52.451 30.9115 56.493L30.8576 56.5798C29.1932 59.2692 26.4382 61.0989 23.3138 61.5901L23.1312 61.6189C18.4767 62.3507 14.8259 66.0019 14.0944 70.6563Z" fill="url(#paint3_radial_343_7135)"/>
<path d="M113.073 59.1346C114.256 56.3096 112.181 53.191 109.118 53.191C108.182 53.191 107.38 52.5207 107.214 51.5993L106.353 46.8213C105.926 44.4522 103.642 42.8884 101.301 43.4508C101.081 43.5037 100.859 43.5328 100.638 43.544L99.8694 45.3799C99.3233 46.6843 99.5897 48.189 100.554 49.2269C101.917 50.6931 101.713 53.0255 100.213 54.3502L96.6468 57.4981C95.8286 58.2205 95.3562 59.276 95.4306 60.3649C95.5562 62.2008 94.6844 63.8796 93.2853 64.9334C93.2635 64.9499 93.2377 64.9669 93.2083 64.9846C90.4224 66.6428 88.9074 69.7966 89.6394 72.9549C90.335 75.9552 90.6403 79.309 89.3347 81.2478L89.3147 81.2775C87.5803 83.8531 87.0321 87.0484 87.8091 90.0546L87.8571 90.2405C89.0462 94.8419 87.103 99.6819 83.0618 102.184L82.9735 102.238C80.2838 103.903 78.4541 106.659 77.9627 109.784L77.9341 109.966C77.2024 114.62 73.5518 118.27 68.8974 119.002L68.7156 119.031C65.5906 119.522 62.8356 121.352 61.1709 124.041L61.1174 124.128C58.6156 128.17 53.7747 130.114 49.1724 128.925L48.9871 128.877C45.9815 128.1 42.7871 128.648 40.2118 130.381L40.1783 130.404C36.1709 133.101 30.8633 132.825 27.1574 129.727L27.0124 129.606C24.7197 127.69 21.7394 126.804 18.7735 127.155C13.8653 127.738 9.16413 125.017 7.32502 120.43L7.30119 120.37C6.95825 119.515 6.51119 118.715 5.97531 117.986C6.09502 118.922 6.08678 119.878 5.93649 120.829V120.83C5.1806 125.617 7.83443 130.291 12.3327 132.095L12.7283 132.254C15.4788 133.357 17.6588 135.537 18.7615 138.288L18.7853 138.347C20.6244 142.935 25.3256 145.655 30.2338 145.073C33.1997 144.721 36.18 145.607 38.4727 147.523L38.6177 147.645C42.3238 150.743 47.6315 151.018 51.6385 148.321L51.6721 148.299C54.2474 146.565 57.4418 146.018 60.4474 146.794L60.6327 146.842C65.235 148.031 70.0759 146.088 72.5777 142.045L72.6312 141.959C74.2959 139.269 77.0512 137.439 80.1759 136.948L80.3577 136.92C85.0118 136.188 88.6627 132.538 89.3944 127.883L89.423 127.701C89.9144 124.576 91.7441 121.821 94.4338 120.156L94.5221 120.101C98.5633 117.6 100.506 112.76 99.3174 108.158L99.2694 107.972C98.4927 104.966 99.0406 101.771 100.775 99.1952L100.795 99.1655C102.101 97.2266 101.795 93.8728 101.1 90.8725C100.367 87.7143 101.883 84.5605 104.669 82.9022C104.698 82.8846 104.724 82.8675 104.746 82.851C106.145 81.7972 107.016 80.1181 106.891 78.2825C106.816 77.1937 107.289 76.1381 108.107 75.4158L111.673 72.2678C113.174 70.9431 113.377 68.6107 112.014 67.1446C111.05 66.1066 110.784 64.6022 111.33 63.2975L113.073 59.1346Z" fill="url(#paint4_linear_343_7135)"/>
<g opacity="0.6">
<g opacity="0.6">
<path opacity="0.6" d="M24.041 114.232C25.8192 114.232 27.2607 112.79 27.2607 111.012C27.2607 109.234 25.8192 107.792 24.041 107.792C22.2628 107.792 20.8213 109.234 20.8213 111.012C20.8213 112.79 22.2628 114.232 24.041 114.232Z" fill="url(#paint5_linear_343_7135)"/>
<path opacity="0.6" d="M15.2215 118.777C16.6252 118.777 17.7632 117.639 17.7632 116.235C17.7632 114.831 16.6252 113.693 15.2215 113.693C13.8177 113.693 12.6797 114.831 12.6797 116.235C12.6797 117.639 13.8177 118.777 15.2215 118.777Z" fill="url(#paint6_linear_343_7135)"/>
<path opacity="0.6" d="M24.5099 124.172C25.3562 124.172 26.0422 123.486 26.0422 122.639C26.0422 121.793 25.3562 121.107 24.5099 121.107C23.6636 121.107 22.9775 121.793 22.9775 122.639C22.9775 123.486 23.6636 124.172 24.5099 124.172Z" fill="url(#paint7_linear_343_7135)"/>
</g>
<g opacity="0.6">
<path opacity="0.6" d="M38.6555 122.453C39.9694 122.453 41.0346 121.388 41.0346 120.074C41.0346 118.76 39.9694 117.695 38.6555 117.695C37.3415 117.695 36.2764 118.76 36.2764 120.074C36.2764 121.388 37.3415 122.453 38.6555 122.453Z" fill="url(#paint8_linear_343_7135)"/>
<path opacity="0.6" d="M31.4339 119.668C32.4712 119.668 33.3121 118.827 33.3121 117.79C33.3121 116.753 32.4712 115.912 31.4339 115.912C30.3966 115.912 29.5557 116.753 29.5557 117.79C29.5557 118.827 30.3966 119.668 31.4339 119.668Z" fill="url(#paint9_linear_343_7135)"/>
<path opacity="0.6" d="M32.4829 127.193C33.1083 127.193 33.6153 126.686 33.6153 126.06C33.6153 125.435 33.1083 124.928 32.4829 124.928C31.8576 124.928 31.3506 125.435 31.3506 126.06C31.3506 126.686 31.8576 127.193 32.4829 127.193Z" fill="url(#paint10_linear_343_7135)"/>
</g>
<g opacity="0.6">
<path opacity="0.6" d="M89.7766 55.5346C91.0905 55.5346 92.1557 54.4694 92.1557 53.1555C92.1557 51.8415 91.0905 50.7764 89.7766 50.7764C88.4626 50.7764 87.3975 51.8415 87.3975 53.1555C87.3975 54.4694 88.4626 55.5346 89.7766 55.5346Z" fill="url(#paint11_linear_343_7135)"/>
<path opacity="0.6" d="M82.555 52.7496C83.5923 52.7496 84.4332 51.9087 84.4332 50.8714C84.4332 49.8341 83.5923 48.9932 82.555 48.9932C81.5177 48.9932 80.6768 49.8341 80.6768 50.8714C80.6768 51.9087 81.5177 52.7496 82.555 52.7496Z" fill="url(#paint12_linear_343_7135)"/>
<path opacity="0.6" d="M83.604 60.2747C84.2294 60.2747 84.7364 59.7677 84.7364 59.1424C84.7364 58.517 84.2294 58.01 83.604 58.01C82.9786 58.01 82.4717 58.517 82.4717 59.1424C82.4717 59.7677 82.9786 60.2747 83.604 60.2747Z" fill="url(#paint13_linear_343_7135)"/>
</g>
</g>
<path d="M110.136 85.1704C112.704 85.1704 112.704 94.4725 110.136 94.4725C107.567 94.4725 105.484 92.3901 105.484 89.8213C105.484 87.2525 107.567 85.1704 110.136 85.1704Z" fill="url(#paint14_linear_343_7135)"/>
<path d="M1.39258 59.3065C1.39258 56.7377 10.6946 56.7377 10.6946 59.3065C10.6946 61.8753 8.61228 63.9577 6.04346 63.9577C3.47464 63.9577 1.39258 61.875 1.39258 59.3065Z" fill="url(#paint15_linear_343_7135)"/>
<path d="M115.894 85.1263C117.12 85.1263 118.114 84.1327 118.114 82.9069C118.114 81.6812 117.12 80.6875 115.894 80.6875C114.668 80.6875 113.675 81.6812 113.675 82.9069C113.675 84.1327 114.668 85.1263 115.894 85.1263Z" fill="url(#paint16_linear_343_7135)"/>
<path d="M3.06316 131.826C4.28891 131.826 5.28257 130.833 5.28257 129.607C5.28257 128.381 4.28891 127.388 3.06316 127.388C1.83741 127.388 0.84375 128.381 0.84375 129.607C0.84375 130.833 1.83741 131.826 3.06316 131.826Z" fill="url(#paint17_linear_343_7135)"/>
<path d="M114.785 105.451C116.623 105.451 118.114 103.961 118.114 102.122C118.114 100.284 116.623 98.7933 114.785 98.7933C112.946 98.7933 111.456 100.284 111.456 102.122C111.456 103.961 112.946 105.451 114.785 105.451Z" fill="url(#paint18_linear_343_7135)"/>
<path d="M5.80734 76.2143C7.6458 76.2143 9.13616 74.7239 9.13616 72.8855C9.13616 71.047 7.6458 69.5566 5.80734 69.5566C3.96888 69.5566 2.47852 71.047 2.47852 72.8855C2.47852 74.7239 3.96888 76.2143 5.80734 76.2143Z" fill="url(#paint19_linear_343_7135)"/>
<defs>
<linearGradient id="paint0_linear_343_7135" x1="110.524" y1="29.9891" x2="137.066" y2="34.3201" gradientUnits="userSpaceOnUse">
<stop stop-color="#F8F6FB"/>
<stop offset="1" stop-color="#EFDCFB"/>
</linearGradient>
<linearGradient id="paint1_linear_343_7135" x1="116.132" y1="16.5445" x2="165.57" y2="0.7942" gradientUnits="userSpaceOnUse">
<stop stop-color="#EFDCFB" stop-opacity="0"/>
<stop offset="0.4856" stop-color="#BAAAD6" stop-opacity="0.486"/>
<stop offset="1" stop-color="#8679B2"/>
</linearGradient>
<linearGradient id="paint2_linear_343_7135" x1="118.984" y1="65.2919" x2="93.8082" y2="40.116" gradientUnits="userSpaceOnUse">
<stop stop-color="#EFDCFB" stop-opacity="0"/>
<stop offset="0.4856" stop-color="#BAAAD6" stop-opacity="0.486"/>
<stop offset="1" stop-color="#8679B2"/>
</linearGradient>
<radialGradient id="paint3_radial_343_7135" cx="0" cy="0" r="1" gradientUnits="userSpaceOnUse" gradientTransform="translate(12.85 47.3798) rotate(-45) scale(99.6153)">
<stop stop-color="#FFD945"/>
<stop offset="0.3111" stop-color="#FFD643"/>
<stop offset="0.5584" stop-color="#FFCC3D"/>
<stop offset="0.7831" stop-color="#FFBB33"/>
<stop offset="0.9944" stop-color="#FFA425"/>
<stop offset="1" stop-color="#FFA325"/>
</radialGradient>
<linearGradient id="paint4_linear_343_7135" x1="67.3244" y1="95.0075" x2="251.659" y2="147.58" gradientUnits="userSpaceOnUse">
<stop stop-color="#F82814" stop-opacity="0"/>
<stop offset="1" stop-color="#C0272D"/>
</linearGradient>
<linearGradient id="paint5_linear_343_7135" x1="24.4222" y1="115.933" x2="22.0565" y2="100.879" gradientUnits="userSpaceOnUse">
<stop stop-color="#F82814" stop-opacity="0"/>
<stop offset="0.2454" stop-color="#F12817" stop-opacity="0.245"/>
<stop offset="0.6052" stop-color="#DD2820" stop-opacity="0.605"/>
<stop offset="1" stop-color="#C0272D"/>
</linearGradient>
<linearGradient id="paint6_linear_343_7135" x1="15.44" y1="120.131" x2="13.5724" y2="108.247" gradientUnits="userSpaceOnUse">
<stop stop-color="#F82814" stop-opacity="0"/>
<stop offset="0.2454" stop-color="#F12817" stop-opacity="0.245"/>
<stop offset="0.6052" stop-color="#DD2820" stop-opacity="0.605"/>
<stop offset="1" stop-color="#C0272D"/>
</linearGradient>
<linearGradient id="paint7_linear_343_7135" x1="24.4869" y1="125.022" x2="23.3608" y2="117.857" gradientUnits="userSpaceOnUse">
<stop stop-color="#F82814" stop-opacity="0"/>
<stop offset="0.2454" stop-color="#F12817" stop-opacity="0.245"/>
<stop offset="0.6052" stop-color="#DD2820" stop-opacity="0.605"/>
<stop offset="1" stop-color="#C0272D"/>
</linearGradient>
<linearGradient id="paint8_linear_343_7135" x1="36.176" y1="122.736" x2="43.2985" y2="114.016" gradientUnits="userSpaceOnUse">
<stop stop-color="#F82814" stop-opacity="0"/>
<stop offset="0.2454" stop-color="#F12817" stop-opacity="0.245"/>
<stop offset="0.6052" stop-color="#DD2820" stop-opacity="0.605"/>
<stop offset="1" stop-color="#C0272D"/>
</linearGradient>
<linearGradient id="paint9_linear_343_7135" x1="29.4385" y1="119.86" x2="35.0614" y2="112.976" gradientUnits="userSpaceOnUse">
<stop stop-color="#F82814" stop-opacity="0"/>
<stop offset="0.2454" stop-color="#F12817" stop-opacity="0.245"/>
<stop offset="0.6052" stop-color="#DD2820" stop-opacity="0.605"/>
<stop offset="1" stop-color="#C0272D"/>
</linearGradient>
<linearGradient id="paint10_linear_343_7135" x1="31.2035" y1="127.251" x2="34.5933" y2="123.101" gradientUnits="userSpaceOnUse">
<stop stop-color="#F82814" stop-opacity="0"/>
<stop offset="0.2454" stop-color="#F12817" stop-opacity="0.245"/>
<stop offset="0.6052" stop-color="#DD2820" stop-opacity="0.605"/>
<stop offset="1" stop-color="#C0272D"/>
</linearGradient>
<linearGradient id="paint11_linear_343_7135" x1="87.308" y1="55.8413" x2="94.4309" y2="47.1213" gradientUnits="userSpaceOnUse">
<stop stop-color="#F82814" stop-opacity="0"/>
<stop offset="0.2454" stop-color="#F12817" stop-opacity="0.245"/>
<stop offset="0.6052" stop-color="#DD2820" stop-opacity="0.605"/>
<stop offset="1" stop-color="#C0272D"/>
</linearGradient>
<linearGradient id="paint12_linear_343_7135" x1="80.5705" y1="52.965" x2="86.1936" y2="46.0811" gradientUnits="userSpaceOnUse">
<stop stop-color="#F82814" stop-opacity="0"/>
<stop offset="0.2454" stop-color="#F12817" stop-opacity="0.245"/>
<stop offset="0.6052" stop-color="#DD2820" stop-opacity="0.605"/>
<stop offset="1" stop-color="#C0272D"/>
</linearGradient>
<linearGradient id="paint13_linear_343_7135" x1="82.3354" y1="60.3556" x2="85.7255" y2="56.2055" gradientUnits="userSpaceOnUse">
<stop stop-color="#F82814" stop-opacity="0"/>
<stop offset="0.2454" stop-color="#F12817" stop-opacity="0.245"/>
<stop offset="0.6052" stop-color="#DD2820" stop-opacity="0.605"/>
<stop offset="1" stop-color="#C0272D"/>
</linearGradient>
<linearGradient id="paint14_linear_343_7135" x1="104.701" y1="92.5619" x2="112.195" y2="88.4275" gradientUnits="userSpaceOnUse">
<stop stop-color="#FFD945"/>
<stop offset="0.3043" stop-color="#FFCD3E"/>
<stop offset="0.8558" stop-color="#FFAD2B"/>
<stop offset="1" stop-color="#FFA325"/>
</linearGradient>
<linearGradient id="paint15_linear_343_7135" x1="8.78434" y1="64.7406" x2="4.64992" y2="57.2471" gradientUnits="userSpaceOnUse">
<stop stop-color="#FFD945"/>
<stop offset="0.3043" stop-color="#FFCD3E"/>
<stop offset="0.8558" stop-color="#FFAD2B"/>
<stop offset="1" stop-color="#FFA325"/>
</linearGradient>
<linearGradient id="paint16_linear_343_7135" x1="114.414" y1="80.2237" x2="116.857" y2="84.6519" gradientUnits="userSpaceOnUse">
<stop stop-color="#FFD945"/>
<stop offset="0.3043" stop-color="#FFCD3E"/>
<stop offset="0.8558" stop-color="#FFAD2B"/>
<stop offset="1" stop-color="#FFA325"/>
</linearGradient>
<linearGradient id="paint17_linear_343_7135" x1="1.58257" y1="126.923" x2="4.02581" y2="131.352" gradientUnits="userSpaceOnUse">
<stop stop-color="#FFD945"/>
<stop offset="0.3043" stop-color="#FFCD3E"/>
<stop offset="0.8558" stop-color="#FFAD2B"/>
<stop offset="1" stop-color="#FFA325"/>
</linearGradient>
<linearGradient id="paint18_linear_343_7135" x1="112.564" y1="98.0969" x2="116.229" y2="104.739" gradientUnits="userSpaceOnUse">
<stop stop-color="#FFD945"/>
<stop offset="0.3043" stop-color="#FFCD3E"/>
<stop offset="0.8558" stop-color="#FFAD2B"/>
<stop offset="1" stop-color="#FFA325"/>
</linearGradient>
<linearGradient id="paint19_linear_343_7135" x1="3.58646" y1="68.8605" x2="7.25146" y2="75.5028" gradientUnits="userSpaceOnUse">
<stop stop-color="#FFD945"/>
<stop offset="0.3043" stop-color="#FFCD3E"/>
<stop offset="0.8558" stop-color="#FFAD2B"/>
<stop offset="1" stop-color="#FFA325"/>
</linearGradient>
</defs>
</svg>
