<svg width="151" height="125" viewBox="0 0 151 125" fill="none" xmlns="http://www.w3.org/2000/svg">
<path d="M150.875 28.8765C150.875 19.2415 135.823 11.4307 117.255 11.4307C106.403 11.4307 74.812 11.4307 63.9605 11.4307C45.3929 11.4307 30.3408 19.2415 30.3408 28.8765C30.3408 35.7451 37.9905 41.686 49.1096 44.5315C51.9532 45.2592 54.3535 47.138 55.8432 49.6668C60.7032 57.9162 72.9164 63.768 87.2153 63.768C100.522 63.768 112.022 58.7001 117.471 51.3483C119.739 48.2889 123.065 46.1824 126.829 45.6033C140.732 43.4642 150.875 36.7854 150.875 28.8765Z" fill="url(#paint0_radial_343_8010)"/>
<path d="M120.408 11.5077C119.37 11.4577 118.318 11.4307 117.255 11.4307C107.354 11.4307 80.1915 11.4307 67.2654 11.4307C63.1336 15.9418 60.6865 21.5424 60.6865 27.6098C60.6865 29.2898 61.5268 30.7804 63.0145 32.0824L94.2189 63.2868C104.475 61.8618 113.005 57.373 117.47 51.3486C119.738 48.2892 123.064 46.1827 126.828 45.6036C135.189 44.3171 142.185 41.388 146.438 37.5383L120.408 11.5077Z" fill="url(#paint1_linear_343_8010)"/>
<path d="M126.882 27.6098C126.882 42.5409 60.6865 42.5409 60.6865 27.6098C60.6865 12.6786 75.5048 0.574463 93.7842 0.574463C112.064 0.574463 126.882 12.6786 126.882 27.6098Z" fill="url(#paint2_linear_343_8010)"/>
<path d="M117.705 23.3009C119.074 23.3009 120.184 22.1909 120.184 20.8218C120.184 19.4526 119.074 18.3427 117.705 18.3427C116.336 18.3427 115.226 19.4526 115.226 20.8218C115.226 22.1909 116.336 23.3009 117.705 23.3009Z" fill="url(#paint3_linear_343_8010)"/>
<path d="M113.101 29.1903C114.182 29.1903 115.059 28.314 115.059 27.233C115.059 26.152 114.182 25.2756 113.101 25.2756C112.02 25.2756 111.144 26.152 111.144 27.233C111.144 28.314 112.02 29.1903 113.101 29.1903Z" fill="url(#paint4_linear_343_8010)"/>
<path d="M121.633 30.0553C122.284 30.0553 122.813 29.527 122.813 28.8753C122.813 28.2236 122.284 27.6953 121.633 27.6953C120.981 27.6953 120.453 28.2236 120.453 28.8753C120.453 29.527 120.981 30.0553 121.633 30.0553Z" fill="url(#paint5_linear_343_8010)"/>
<path d="M99.3954 7.01212C102.353 12.6548 97.3237 21.1215 88.1619 25.9236C79.0001 30.7256 69.176 30.0439 66.2187 24.4012C63.2613 18.7586 68.2904 10.2918 77.4522 5.48977C86.614 0.687708 96.4378 1.36947 99.3954 7.01212Z" fill="url(#paint6_linear_343_8010)"/>
<path d="M150.875 71.9801C150.875 58.1765 128.896 44.6671 101.784 44.6671C88.5841 44.6671 49.9941 44.6671 36.6879 44.6671C16.9091 44.6671 0.875 52.9277 0.875 63.1174C0.875 66.1198 2.26706 68.9542 4.73676 71.4592C9.75588 76.5503 11.9294 83.6203 10.6879 90.4683C10.43 91.8906 10.2965 93.3465 10.2965 94.8277C10.2965 111.058 26.3306 124.215 46.1094 124.215C53.0062 124.215 59.4471 122.615 64.9115 119.843C70.4994 117.008 76.965 116.21 83.1909 117.374C86.1394 117.925 89.2085 118.216 92.3609 118.216C110.377 118.216 125.686 108.715 131.245 95.4912C132.326 92.9195 134.315 90.7886 136.886 89.4501C145.54 84.9445 150.875 78.7801 150.875 71.9801Z" fill="url(#paint7_radial_343_8010)"/>
<path d="M142.109 86.2348L108.316 52.4424C105.397 49.3821 101.841 46.748 97.8143 44.6671C87.207 44.6671 68.6311 44.6671 53.9296 44.6671C42.4164 50.6168 34.7705 61.1083 34.7705 73.0598C34.7705 75.1633 35.8314 77.0271 37.707 78.6536L75.9626 116.909C78.3652 116.772 80.7955 116.926 83.1908 117.374C86.1393 117.925 89.2085 118.216 92.3608 118.216C110.377 118.216 125.686 108.715 131.245 95.4912C132.326 92.9195 134.315 90.7886 136.886 89.4504C138.796 88.4559 140.544 87.3801 142.109 86.2348Z" fill="url(#paint8_linear_343_8010)"/>
<path d="M116.979 73.0597C116.979 91.6029 34.7705 91.6029 34.7705 73.0597C34.7705 54.5164 53.1735 39.4844 75.8746 39.4844C98.5758 39.4844 116.979 54.5167 116.979 73.0597Z" fill="url(#paint9_linear_343_8010)"/>
<g opacity="0.6">
<g opacity="0.6">
<path opacity="0.6" d="M68.9376 75.8076C70.3068 75.8076 71.4167 74.6977 71.4167 73.3285C71.4167 71.9593 70.3068 70.8494 68.9376 70.8494C67.5684 70.8494 66.4585 71.9593 66.4585 73.3285C66.4585 74.6977 67.5684 75.8076 68.9376 75.8076Z" fill="url(#paint10_linear_343_8010)"/>
<path opacity="0.6" d="M64.3343 81.6971C65.4153 81.6971 66.2917 80.8207 66.2917 79.7397C66.2917 78.6587 65.4153 77.7823 64.3343 77.7823C63.2533 77.7823 62.377 78.6587 62.377 79.7397C62.377 80.8207 63.2533 81.6971 64.3343 81.6971Z" fill="url(#paint11_linear_343_8010)"/>
<path opacity="0.6" d="M72.8651 82.562C73.5168 82.562 74.0451 82.0337 74.0451 81.382C74.0451 80.7303 73.5168 80.202 72.8651 80.202C72.2134 80.202 71.6851 80.7303 71.6851 81.382C71.6851 82.0337 72.2134 82.562 72.8651 82.562Z" fill="url(#paint12_linear_343_8010)"/>
</g>
<g opacity="0.6">
<path opacity="0.6" d="M82.0454 77.0287C83.0573 77.0287 83.8775 76.2085 83.8775 75.1967C83.8775 74.1849 83.0573 73.3646 82.0454 73.3646C81.0336 73.3646 80.2134 74.1849 80.2134 75.1967C80.2134 76.2085 81.0336 77.0287 82.0454 77.0287Z" fill="url(#paint13_linear_343_8010)"/>
<path opacity="0.6" d="M76.2474 77.2664C77.0461 77.2664 77.6936 76.6189 77.6936 75.8202C77.6936 75.0215 77.0461 74.374 76.2474 74.374C75.4487 74.374 74.8013 75.0215 74.8013 75.8202C74.8013 76.6189 75.4487 77.2664 76.2474 77.2664Z" fill="url(#paint14_linear_343_8010)"/>
<path opacity="0.6" d="M79.5459 82.1999C80.0275 82.1999 80.4179 81.8095 80.4179 81.3279C80.4179 80.8462 80.0275 80.4558 79.5459 80.4558C79.0643 80.4558 78.6738 80.8462 78.6738 81.3279C78.6738 81.8095 79.0643 82.1999 79.5459 82.1999Z" fill="url(#paint15_linear_343_8010)"/>
</g>
</g>
<path d="M81.4655 50.595C85.2946 57.9006 80.3202 68.0573 70.3549 73.2803C60.3896 78.5032 49.2069 76.8152 45.3778 69.5097C41.5487 62.2041 46.5231 52.0473 56.4884 46.8244C66.4537 41.6014 77.6364 43.2894 81.4655 50.595Z" fill="url(#paint16_linear_343_8010)"/>
<defs>
<radialGradient id="paint0_radial_343_8010" cx="0" cy="0" r="1" gradientUnits="userSpaceOnUse" gradientTransform="translate(73.4702 23.9507) scale(69.211 46.8804)">
<stop stop-color="#F8F6FB"/>
<stop offset="0.5047" stop-color="#F7F4FB"/>
<stop offset="0.7657" stop-color="#F5ECFB"/>
<stop offset="0.9705" stop-color="#F0DFFB"/>
<stop offset="1" stop-color="#EFDCFB"/>
</radialGradient>
<linearGradient id="paint1_linear_343_8010" x1="112.998" y1="54.9801" x2="82.3807" y2="-16.0755" gradientUnits="userSpaceOnUse">
<stop stop-color="#EFDCFB" stop-opacity="0"/>
<stop offset="0.0287" stop-color="#E9D6F7" stop-opacity="0.029"/>
<stop offset="0.2203" stop-color="#C5B5DE" stop-opacity="0.22"/>
<stop offset="0.4138" stop-color="#AA9BCB" stop-opacity="0.414"/>
<stop offset="0.6078" stop-color="#9688BD" stop-opacity="0.608"/>
<stop offset="0.8028" stop-color="#8A7DB5" stop-opacity="0.803"/>
<stop offset="1" stop-color="#8679B2"/>
</linearGradient>
<linearGradient id="paint2_linear_343_8010" x1="89.4009" y1="14.8068" x2="103.519" y2="50.6892" gradientUnits="userSpaceOnUse">
<stop stop-color="#FFA936"/>
<stop offset="0.4112" stop-color="#FF8548"/>
<stop offset="0.7781" stop-color="#FF6C54"/>
<stop offset="1" stop-color="#FF6359"/>
</linearGradient>
<linearGradient id="paint3_linear_343_8010" x1="119.925" y1="24.0053" x2="113.59" y2="14.1201" gradientUnits="userSpaceOnUse">
<stop stop-color="#F82814" stop-opacity="0"/>
<stop offset="0.2454" stop-color="#F12817" stop-opacity="0.245"/>
<stop offset="0.6052" stop-color="#DD2820" stop-opacity="0.605"/>
<stop offset="1" stop-color="#C0272D"/>
</linearGradient>
<linearGradient id="paint4_linear_343_8010" x1="114.891" y1="29.751" x2="109.89" y2="21.9469" gradientUnits="userSpaceOnUse">
<stop stop-color="#F82814" stop-opacity="0"/>
<stop offset="0.2454" stop-color="#F12817" stop-opacity="0.245"/>
<stop offset="0.6052" stop-color="#DD2820" stop-opacity="0.605"/>
<stop offset="1" stop-color="#C0272D"/>
</linearGradient>
<linearGradient id="paint5_linear_343_8010" x1="122.788" y1="30.3964" x2="119.773" y2="25.6915" gradientUnits="userSpaceOnUse">
<stop stop-color="#F82814" stop-opacity="0"/>
<stop offset="0.2454" stop-color="#F12817" stop-opacity="0.245"/>
<stop offset="0.6052" stop-color="#DD2820" stop-opacity="0.605"/>
<stop offset="1" stop-color="#C0272D"/>
</linearGradient>
<linearGradient id="paint6_linear_343_8010" x1="84.0893" y1="17.6008" x2="68.4136" y2="-12.2825" gradientUnits="userSpaceOnUse">
<stop stop-color="white" stop-opacity="0"/>
<stop offset="1" stop-color="white"/>
</linearGradient>
<radialGradient id="paint7_radial_343_8010" cx="0" cy="0" r="1" gradientUnits="userSpaceOnUse" gradientTransform="translate(60.7939 44.7881) scale(81.4025)">
<stop stop-color="#F8F6FB"/>
<stop offset="0.5047" stop-color="#F7F4FB"/>
<stop offset="0.7657" stop-color="#F5ECFB"/>
<stop offset="0.9705" stop-color="#F0DFFB"/>
<stop offset="1" stop-color="#EFDCFB"/>
</radialGradient>
<linearGradient id="paint8_linear_343_8010" x1="94.8596" y1="102.573" x2="70.6632" y2="17.7783" gradientUnits="userSpaceOnUse">
<stop stop-color="#EFDCFB" stop-opacity="0"/>
<stop offset="0.0287" stop-color="#E9D6F7" stop-opacity="0.029"/>
<stop offset="0.2203" stop-color="#C5B5DE" stop-opacity="0.22"/>
<stop offset="0.4138" stop-color="#AA9BCB" stop-opacity="0.414"/>
<stop offset="0.6078" stop-color="#9688BD" stop-opacity="0.608"/>
<stop offset="0.8028" stop-color="#8A7DB5" stop-opacity="0.803"/>
<stop offset="1" stop-color="#8679B2"/>
</linearGradient>
<linearGradient id="paint9_linear_343_8010" x1="69.422" y1="47.2929" x2="80.3355" y2="88.4823" gradientUnits="userSpaceOnUse">
<stop stop-color="#FFD945"/>
<stop offset="0.3043" stop-color="#FFCD3E"/>
<stop offset="0.8558" stop-color="#FFAD2B"/>
<stop offset="1" stop-color="#FFA325"/>
</linearGradient>
<linearGradient id="paint10_linear_343_8010" x1="71.1382" y1="76.5442" x2="64.8035" y2="66.6588" gradientUnits="userSpaceOnUse">
<stop stop-color="#F82814" stop-opacity="0"/>
<stop offset="0.2454" stop-color="#F12817" stop-opacity="0.245"/>
<stop offset="0.6052" stop-color="#DD2820" stop-opacity="0.605"/>
<stop offset="1" stop-color="#C0272D"/>
</linearGradient>
<linearGradient id="paint11_linear_343_8010" x1="66.1043" y1="82.2896" x2="61.1035" y2="74.4859" gradientUnits="userSpaceOnUse">
<stop stop-color="#F82814" stop-opacity="0"/>
<stop offset="0.2454" stop-color="#F12817" stop-opacity="0.245"/>
<stop offset="0.6052" stop-color="#DD2820" stop-opacity="0.605"/>
<stop offset="1" stop-color="#C0272D"/>
</linearGradient>
<linearGradient id="paint12_linear_343_8010" x1="74.0012" y1="82.9351" x2="70.9862" y2="78.2302" gradientUnits="userSpaceOnUse">
<stop stop-color="#F82814" stop-opacity="0"/>
<stop offset="0.2454" stop-color="#F12817" stop-opacity="0.245"/>
<stop offset="0.6052" stop-color="#DD2820" stop-opacity="0.605"/>
<stop offset="1" stop-color="#C0272D"/>
</linearGradient>
<linearGradient id="paint13_linear_343_8010" x1="81.4106" y1="77.901" x2="83.7325" y2="69.5436" gradientUnits="userSpaceOnUse">
<stop stop-color="#F82814" stop-opacity="0"/>
<stop offset="0.2454" stop-color="#F12817" stop-opacity="0.245"/>
<stop offset="0.6052" stop-color="#DD2820" stop-opacity="0.605"/>
<stop offset="1" stop-color="#C0272D"/>
</linearGradient>
<linearGradient id="paint14_linear_343_8010" x1="75.7678" y1="77.9597" x2="77.6013" y2="71.3622" gradientUnits="userSpaceOnUse">
<stop stop-color="#F82814" stop-opacity="0"/>
<stop offset="0.2454" stop-color="#F12817" stop-opacity="0.245"/>
<stop offset="0.6052" stop-color="#DD2820" stop-opacity="0.605"/>
<stop offset="1" stop-color="#C0272D"/>
</linearGradient>
<linearGradient id="paint15_linear_343_8010" x1="79.3027" y1="82.6256" x2="80.4078" y2="78.6481" gradientUnits="userSpaceOnUse">
<stop stop-color="#F82814" stop-opacity="0"/>
<stop offset="0.2454" stop-color="#F12817" stop-opacity="0.245"/>
<stop offset="0.6052" stop-color="#DD2820" stop-opacity="0.605"/>
<stop offset="1" stop-color="#C0272D"/>
</linearGradient>
<linearGradient id="paint16_linear_343_8010" x1="65.2634" y1="63.6114" x2="44.9612" y2="24.9244" gradientUnits="userSpaceOnUse">
<stop stop-color="white" stop-opacity="0"/>
<stop offset="1" stop-color="white"/>
</linearGradient>
</defs>
</svg>
