<svg width="151" height="143" viewBox="0 0 151 143" fill="none" xmlns="http://www.w3.org/2000/svg">
<path d="M54.8724 123.81C25.1165 136.855 3.55593 144.019 1.26181 141.725C-1.03231 139.431 6.1324 117.87 19.1768 88.1145C32.2212 58.3589 48.465 33.9351 48.465 33.9351C51.4612 30.9389 66.4777 37.7242 85.87 57.1166C105.262 76.5089 112.048 91.5254 109.052 94.5216C109.052 94.5219 84.628 110.765 54.8724 123.81Z" fill="url(#paint0_linear_343_7539)"/>
<path d="M109.052 94.5221C109.052 94.5221 84.6281 110.767 54.8722 123.812C49.716 126.074 44.8019 128.158 40.1948 130.046L40.1972 47.3259C45.0972 38.9959 48.4648 33.9344 48.4648 33.9344C51.4607 30.9386 66.4772 37.7244 85.8698 57.1171C105.262 76.5097 112.048 91.5262 109.052 94.5221V94.5221Z" fill="url(#paint1_linear_343_7539)"/>
<path d="M109.053 94.5222C109.053 94.5222 84.6284 110.767 54.8726 123.812C46.0787 127.666 38.0002 131.009 30.9261 133.744C14.0561 140.264 2.87785 143.341 1.26226 141.725C0.0666688 140.53 1.43755 134.108 4.86755 124.031C8.0249 114.753 12.9228 102.377 19.1755 88.1149C23.134 79.0878 27.3855 70.5478 31.3899 63.0352C39.2514 64.4431 47.4128 66.3219 55.7173 68.6855C76.8434 74.6934 95.5273 82.871 109.697 91.704C109.824 93.0172 109.602 93.9728 109.053 94.5222V94.5222Z" fill="url(#paint2_linear_343_7539)"/>
<path d="M82.819 110.056C74.6414 114.494 65.072 119.341 54.8726 123.812C46.0787 127.666 38.0002 131.009 30.9261 133.744C14.0561 140.264 2.87785 143.341 1.26226 141.725C0.0666688 140.53 1.43755 134.108 4.86755 124.031C8.02491 114.753 12.9228 102.377 19.1755 88.1148C19.3993 87.6001 19.6278 87.0901 19.854 86.5778C24.5649 87.6281 29.3496 88.8398 34.1873 90.2154C52.7514 95.4939 69.4343 102.45 82.819 110.056Z" fill="url(#paint3_linear_343_7539)"/>
<path d="M50.2378 125.825C43.2305 128.839 36.7378 131.496 30.9261 133.744C14.0561 140.264 2.87785 143.341 1.26226 141.725C0.0666688 140.53 1.43755 134.108 4.86755 124.031C6.18079 120.17 7.79637 115.771 9.68696 110.921C10.6726 111.191 11.6626 111.466 12.6552 111.748C26.4067 115.658 39.1267 120.488 50.2378 125.825V125.825Z" fill="url(#paint4_linear_343_7539)"/>
<path d="M48.4656 33.9351C48.4656 33.9351 32.2212 58.3595 19.1759 88.1154C15.3215 96.9092 11.9791 104.988 9.24413 112.062C2.72383 128.932 -0.352932 140.11 1.26266 141.725C2.45824 142.921 8.87942 141.55 18.9565 138.12C28.235 134.963 40.6112 130.065 54.873 123.812C63.9 119.854 72.44 115.602 79.9527 111.598C78.5447 103.736 76.6659 95.5748 74.3024 87.2704C68.2944 66.1442 60.1168 47.4604 51.2835 33.2909C49.9706 33.1639 49.015 33.3856 48.4656 33.9351V33.9351Z" fill="url(#paint5_linear_343_7539)"/>
<path d="M32.9321 60.1689C28.4935 68.3466 23.6465 77.916 19.1759 88.1154C15.3215 96.9093 11.9791 104.988 9.24413 112.062C2.72383 128.932 -0.352932 140.11 1.26266 141.725C2.45824 142.921 8.87942 141.55 18.9565 138.12C28.235 134.963 40.6112 130.065 54.873 123.812C55.3877 123.588 55.8977 123.36 56.41 123.134C55.3597 118.423 54.148 113.638 52.7724 108.8C47.4938 90.2363 40.5374 73.5534 32.9321 60.1689V60.1689Z" fill="url(#paint6_linear_343_7539)"/>
<path d="M17.1632 92.7498C14.1488 99.7571 11.4924 106.25 9.24413 112.062C2.72383 128.932 -0.352932 140.11 1.26266 141.725C2.45824 142.921 8.87942 141.55 18.9565 138.12C22.818 136.807 27.2171 135.191 32.0665 133.301C31.7965 132.315 31.5218 131.325 31.2403 130.332C27.3303 116.581 22.4997 103.861 17.1632 92.7498V92.7498Z" fill="url(#paint7_linear_343_7539)"/>
<path d="M106.658 87.6048C97.8395 82.7172 87.6801 74.9398 77.8639 65.1237C68.0478 55.3075 60.2704 45.1481 55.3828 36.3295C52.7572 31.5925 46.0207 31.186 41.7175 35.4892C38.8437 38.3631 37.9286 42.5492 39.4734 45.8372C44.0316 55.539 52.6969 67.4328 64.1257 78.8616C75.5545 90.2904 87.4486 98.9557 97.1504 103.514C100.438 105.059 104.625 104.144 107.498 101.27C111.801 96.9669 111.395 90.2301 106.658 87.6048V87.6048Z" fill="url(#paint8_linear_343_7539)"/>
<path d="M125.284 78.5894C124.692 77.5815 125.248 76.308 126.377 76.0092C128.938 75.3312 131.354 73.9886 133.351 71.9918C139.04 66.3021 139.421 57.2094 134.239 51.053C134.238 51.0506 134.236 51.0486 134.234 51.0462C133.947 50.7047 134.045 50.1894 134.437 49.9747C135.742 49.26 136.967 48.3527 138.068 47.2515C142.9 42.4191 144.037 35.2097 141.319 29.2586C141.307 29.2318 141.292 29.2033 141.277 29.1727C139.075 24.8756 140.124 19.6247 143.957 16.6883C144.453 16.3077 144.935 15.8994 145.4 15.4636C147.964 13.0594 149.715 10.1321 150.655 7.01267C151.838 3.08679 147.015 0.186492 144.085 3.05473C144.032 3.10679 143.979 3.15855 143.925 3.21002C140.891 6.11649 137.142 7.88385 133.239 8.5059C127.587 9.40649 121.828 7.70238 117.44 4.02767L117.365 3.96473C110.997 -1.36821 101.61 -0.953802 95.7363 4.91973C94.6351 6.0209 93.7277 7.2459 93.013 8.55061C92.7986 8.94208 92.2833 9.04091 91.9416 8.75355C91.9392 8.75179 91.9371 8.74973 91.9348 8.74796C85.778 3.56708 76.6857 3.94708 70.9957 9.63679C68.9989 11.6336 67.6563 14.0491 66.9783 16.61C66.6792 17.7397 65.4057 18.295 64.398 17.7036C58.5295 14.2591 50.916 15.1174 45.9483 20.0847C40.3392 25.6938 39.9683 34.6777 45.1166 40.7127C52.5889 49.4718 62.0589 59.6959 72.6754 70.3124C83.2919 80.9289 93.5157 90.3989 102.275 97.8712C108.31 103.019 117.294 102.649 122.903 97.0394C127.87 92.0715 128.728 84.458 125.284 78.5894V78.5894Z" fill="url(#paint9_radial_343_7539)"/>
<path d="M70.9953 9.63648C65.3056 15.3262 64.9253 24.4188 70.1065 30.5753C75.7418 37.2721 82.6768 44.8182 90.4227 52.5641C98.1686 60.31 105.715 67.245 112.412 72.8803C118.568 78.0612 127.661 77.6812 133.35 71.9915C139.04 66.3018 139.42 57.2091 134.239 51.0524C128.604 44.3556 121.669 36.8094 113.923 29.0635C106.177 21.3174 98.6309 14.3827 91.9341 8.74736C85.7777 3.56648 76.685 3.94678 70.9953 9.63648V9.63648Z" fill="url(#paint10_linear_343_7539)"/>
<path d="M95.7359 4.91952C89.858 10.7975 89.4539 20.1857 94.7901 26.5592C97.8186 30.1769 101.312 33.9963 105.152 37.8357C108.991 41.6751 112.81 45.1686 116.428 48.1972C122.802 53.5333 132.19 53.1292 138.068 47.2513C143.946 41.3733 144.35 31.9851 139.014 25.6116C135.985 21.9939 132.492 18.1745 128.652 14.3354C124.813 10.4963 120.993 7.00246 117.376 3.97393C111.002 -1.36225 101.614 -0.958128 95.7359 4.91952V4.91952Z" fill="url(#paint11_linear_343_7539)"/>
<defs>
<linearGradient id="paint0_linear_343_7539" x1="28.8" y1="84.5912" x2="52.4812" y2="108.272" gradientUnits="userSpaceOnUse">
<stop stop-color="#FFD945"/>
<stop offset="0.3043" stop-color="#FFCD3E"/>
<stop offset="0.8558" stop-color="#FFAD2B"/>
<stop offset="1" stop-color="#FFA325"/>
</linearGradient>
<linearGradient id="paint1_linear_343_7539" x1="50.1769" y1="100.658" x2="95.2933" y2="43.08" gradientUnits="userSpaceOnUse">
<stop stop-color="#F82814" stop-opacity="0"/>
<stop offset="1" stop-color="#C0272D"/>
</linearGradient>
<linearGradient id="paint2_linear_343_7539" x1="56.4153" y1="82.6971" x2="59.8769" y2="-19.762" gradientUnits="userSpaceOnUse">
<stop stop-color="#F82814" stop-opacity="0"/>
<stop offset="1" stop-color="#C0272D"/>
</linearGradient>
<linearGradient id="paint3_linear_343_7539" x1="42.1474" y1="110.74" x2="45.609" y2="-45.0254" gradientUnits="userSpaceOnUse">
<stop stop-color="#F82814" stop-opacity="0"/>
<stop offset="1" stop-color="#C0272D"/>
</linearGradient>
<linearGradient id="paint4_linear_343_7539" x1="26.9147" y1="119.541" x2="31.684" y2="74.1549" gradientUnits="userSpaceOnUse">
<stop stop-color="#F82814" stop-opacity="0"/>
<stop offset="1" stop-color="#C0272D"/>
</linearGradient>
<linearGradient id="paint5_linear_343_7539" x1="60.3181" y1="86.5998" x2="162.777" y2="83.1382" gradientUnits="userSpaceOnUse">
<stop stop-color="#F82814" stop-opacity="0"/>
<stop offset="1" stop-color="#C0272D"/>
</linearGradient>
<linearGradient id="paint6_linear_343_7539" x1="32.2754" y1="100.868" x2="188.041" y2="97.4063" gradientUnits="userSpaceOnUse">
<stop stop-color="#F82814" stop-opacity="0"/>
<stop offset="1" stop-color="#C0272D"/>
</linearGradient>
<linearGradient id="paint7_linear_343_7539" x1="23.4747" y1="116.1" x2="68.8604" y2="111.331" gradientUnits="userSpaceOnUse">
<stop stop-color="#F82814" stop-opacity="0"/>
<stop offset="1" stop-color="#C0272D"/>
</linearGradient>
<linearGradient id="paint8_linear_343_7539" x1="73.6205" y1="69.3107" x2="64.3543" y2="78.5769" gradientUnits="userSpaceOnUse">
<stop stop-color="#FFD945"/>
<stop offset="0.3043" stop-color="#FFCD3E"/>
<stop offset="0.8558" stop-color="#FFAD2B"/>
<stop offset="1" stop-color="#FFA325"/>
</linearGradient>
<radialGradient id="paint9_radial_343_7539" cx="0" cy="0" r="1" gradientUnits="userSpaceOnUse" gradientTransform="translate(96.6974 9.38356) rotate(45) scale(79.8321)">
<stop stop-color="#FAA68E"/>
<stop offset="0.3527" stop-color="#FAA38F"/>
<stop offset="0.651" stop-color="#FC9893"/>
<stop offset="0.9287" stop-color="#FE879A"/>
<stop offset="1" stop-color="#FF819C"/>
</radialGradient>
<linearGradient id="paint10_linear_343_7539" x1="101.798" y1="40.8267" x2="-38.2821" y2="65.0581" gradientUnits="userSpaceOnUse">
<stop stop-color="#F82814" stop-opacity="0"/>
<stop offset="1" stop-color="#C0272D"/>
</linearGradient>
<linearGradient id="paint11_linear_343_7539" x1="115.481" y1="25.9478" x2="-2.214" y2="18.563" gradientUnits="userSpaceOnUse">
<stop stop-color="#F82814" stop-opacity="0"/>
<stop offset="1" stop-color="#C0272D"/>
</linearGradient>
</defs>
</svg>
