<svg width="140" height="151" viewBox="0 0 140 151" fill="none" xmlns="http://www.w3.org/2000/svg">
<path d="M139.702 40.9215C139.702 18.33 108.477 0.0158691 69.9587 0.0158691C31.4401 0.0158691 0.214844 18.33 0.214844 40.9215C0.214844 41.3815 0.272785 41.832 0.386314 42.2732C3.28602 53.5462 4.9269 65.1056 4.22073 76.7241L0.604549 136.236C0.381314 139.907 2.91161 143.176 6.5219 143.881C48.4175 152.061 91.4998 152.061 133.395 143.881C137.006 143.176 139.536 139.907 139.313 136.236L135.697 76.7241C134.991 65.1056 136.631 53.5462 139.531 42.2732C139.645 41.832 139.702 41.3815 139.702 40.9215Z" fill="url(#paint0_linear_343_7497)"/>
<path d="M132.204 44.5877C132.204 24.4253 104.336 8.08032 69.9593 8.08032C35.5828 8.08032 7.71484 24.4253 7.71484 44.5877C7.71484 44.9983 7.76661 45.4003 7.86779 45.7939C10.4557 55.8547 11.9201 66.1712 11.2898 76.5403L8.06249 129.653C7.86337 132.93 10.1216 135.847 13.3434 136.477C50.7343 143.777 89.1837 143.777 126.575 136.477C129.797 135.847 132.055 132.93 131.855 129.653L128.628 76.5406C127.998 66.1715 129.462 55.855 132.05 45.7941C132.152 45.4003 132.204 44.9983 132.204 44.5877Z" fill="url(#paint1_linear_343_7497)"/>
<g opacity="0.6">
<g opacity="0.6">
<path opacity="0.6" d="M24.3798 122.368C25.7491 122.368 26.8592 121.258 26.8592 119.889C26.8592 118.519 25.7491 117.409 24.3798 117.409C23.0105 117.409 21.9004 118.519 21.9004 119.889C21.9004 121.258 23.0105 122.368 24.3798 122.368Z" fill="url(#paint2_linear_343_7497)"/>
<path opacity="0.6" d="M17.4886 125.694C18.5696 125.694 19.446 124.818 19.446 123.737C19.446 122.656 18.5696 121.78 17.4886 121.78C16.4076 121.78 15.5312 122.656 15.5312 123.737C15.5312 124.818 16.4076 125.694 17.4886 125.694Z" fill="url(#paint3_linear_343_7497)"/>
<path opacity="0.6" d="M24.515 130.029C25.1667 130.029 25.695 129.5 25.695 128.849C25.695 128.197 25.1667 127.669 24.515 127.669C23.8633 127.669 23.335 128.197 23.335 128.849C23.335 129.5 23.8633 130.029 24.515 130.029Z" fill="url(#paint4_linear_343_7497)"/>
</g>
<g opacity="0.6">
<path opacity="0.6" d="M35.4532 128.981C36.465 128.981 37.2852 128.161 37.2852 127.149C37.2852 126.138 36.465 125.317 35.4532 125.317C34.4413 125.317 33.6211 126.138 33.6211 127.149C33.6211 128.161 34.4413 128.981 35.4532 128.981Z" fill="url(#paint5_linear_343_7497)"/>
<path opacity="0.6" d="M29.9387 126.697C30.7375 126.697 31.3851 126.049 31.3851 125.25C31.3851 124.451 30.7375 123.804 29.9387 123.804C29.1398 123.804 28.4922 124.451 28.4922 125.25C28.4922 126.049 29.1398 126.697 29.9387 126.697Z" fill="url(#paint6_linear_343_7497)"/>
<path opacity="0.6" d="M30.585 132.51C31.0666 132.51 31.457 132.12 31.457 131.638C31.457 131.156 31.0666 130.766 30.585 130.766C30.1033 130.766 29.7129 131.156 29.7129 131.638C29.7129 132.12 30.1033 132.51 30.585 132.51Z" fill="url(#paint7_linear_343_7497)"/>
</g>
<g opacity="0.6">
<path opacity="0.6" d="M122.554 103.915C123.566 103.915 124.386 103.094 124.386 102.083C124.386 101.071 123.566 100.251 122.554 100.251C121.542 100.251 120.722 101.071 120.722 102.083C120.722 103.094 121.542 103.915 122.554 103.915Z" fill="url(#paint8_linear_343_7497)"/>
<path opacity="0.6" d="M117.039 101.63C117.838 101.63 118.486 100.982 118.486 100.183C118.486 99.3844 117.838 98.7368 117.039 98.7368C116.24 98.7368 115.593 99.3844 115.593 100.183C115.593 100.982 116.24 101.63 117.039 101.63Z" fill="url(#paint9_linear_343_7497)"/>
<path opacity="0.6" d="M117.686 107.443C118.167 107.443 118.558 107.053 118.558 106.571C118.558 106.09 118.167 105.699 117.686 105.699C117.204 105.699 116.813 106.09 116.813 106.571C116.813 107.053 117.204 107.443 117.686 107.443Z" fill="url(#paint10_linear_343_7497)"/>
</g>
<g opacity="0.6">
<path opacity="0.6" d="M20.0157 42.1321C21.0275 42.1321 21.8477 41.3119 21.8477 40.3001C21.8477 39.2883 21.0275 38.468 20.0157 38.468C19.0038 38.468 18.1836 39.2883 18.1836 40.3001C18.1836 41.3119 19.0038 42.1321 20.0157 42.1321Z" fill="url(#paint11_linear_343_7497)"/>
<path opacity="0.6" d="M14.5012 39.8474C15.3 39.8474 15.9476 39.1998 15.9476 38.4009C15.9476 37.6021 15.3 36.9545 14.5012 36.9545C13.7023 36.9545 13.0547 37.6021 13.0547 38.4009C13.0547 39.1998 13.7023 39.8474 14.5012 39.8474Z" fill="url(#paint12_linear_343_7497)"/>
<path opacity="0.6" d="M15.1474 45.6606C15.6291 45.6606 16.0195 45.2702 16.0195 44.7886C16.0195 44.3069 15.6291 43.9165 15.1474 43.9165C14.6658 43.9165 14.2754 44.3069 14.2754 44.7886C14.2754 45.2702 14.6658 45.6606 15.1474 45.6606Z" fill="url(#paint13_linear_343_7497)"/>
</g>
</g>
<path d="M139.609 41.9173L116.061 18.3688C113.76 15.7267 19.4697 21.9541 19.4697 30.0732V105.378C19.4697 107.959 20.7383 110.243 22.6844 111.645L60.9277 149.888C85.1759 150.55 109.479 148.551 133.395 143.881C137.006 143.176 139.536 139.907 139.313 136.236L135.697 76.7241C134.991 65.1056 136.631 53.5462 139.531 42.2732C139.561 42.1553 139.587 42.0367 139.609 41.9173Z" fill="url(#paint14_linear_343_7497)"/>
<path d="M139.61 41.9147L116.035 18.3397C113.737 15.7123 110.664 15.2168 107.1 14.2926C93.3312 10.7188 79.1741 10.0482 65.0674 10.5159V131.231C65.0674 133.798 66.32 136.07 68.2459 137.474L80.6109 149.839C98.2974 149.27 115.949 147.287 133.396 143.881C137.006 143.176 139.536 139.907 139.313 136.236L135.697 76.7241C134.991 65.1056 136.632 53.5462 139.531 42.2732C139.562 42.1544 139.588 42.035 139.61 41.9147Z" fill="url(#paint15_linear_343_7497)"/>
<path d="M139.615 41.883L115.748 18.0162C113.484 15.5506 110.516 15.1788 107.1 14.2927C103.406 13.3338 99.6878 12.5221 95.9463 11.8541V119.795C95.9463 122.196 97.0431 124.341 98.7631 125.757L119.316 146.31C124.022 145.6 128.717 144.795 133.396 143.881C137.006 143.176 139.536 139.907 139.313 136.236L135.697 76.7241C134.991 65.1056 136.632 53.5462 139.531 42.2732C139.565 42.1441 139.592 42.0138 139.615 41.883Z" fill="url(#paint16_linear_343_7497)"/>
<path d="M107.101 12.8215C82.7427 6.50008 57.1744 6.50008 32.8162 12.8215C24.9571 14.861 19.4697 21.9542 19.4697 30.0736V105.378C19.4697 109.642 22.9259 113.098 27.1894 113.098C31.453 113.098 34.9091 109.642 34.9091 105.378C34.9091 97.1224 41.6015 90.4301 49.8571 90.4301H50.1183C58.3738 90.4301 65.0662 97.1224 65.0662 105.378V131.233C65.0662 135.496 68.5224 138.952 72.7859 138.952C77.0494 138.952 80.5056 135.496 80.5056 131.233V115.282C80.5056 111.019 83.9618 107.563 88.2253 107.563C92.4888 107.563 95.945 111.019 95.945 115.282V119.795C95.945 124.059 99.4012 127.515 103.665 127.515C107.928 127.515 111.384 124.059 111.384 119.795V97.9745C111.384 95.4715 113.413 93.4427 115.916 93.4427C118.419 93.4427 120.448 91.4139 120.448 88.911V30.0736C120.447 21.9542 114.96 14.861 107.101 12.8215Z" fill="url(#paint17_linear_343_7497)"/>
<path d="M89.2902 103.585C89.2902 99.321 85.8341 95.8651 81.5705 95.8651C77.307 95.8651 73.8508 99.3213 73.8508 103.585V119.535C73.8508 123.798 70.3946 127.255 66.1311 127.255C65.7696 127.255 65.4146 127.228 65.0664 127.18V131.232C65.0664 135.496 68.5226 138.952 72.7861 138.952C77.0496 138.952 80.5058 135.496 80.5058 131.232V115.282C80.5058 111.019 83.962 107.562 88.2255 107.562C88.587 107.562 88.942 107.589 89.2902 107.637V103.585Z" fill="url(#paint18_linear_343_7497)"/>
<path d="M113.642 16.063C113.741 16.8221 113.793 17.5942 113.793 18.3759V77.213C113.793 79.7159 111.764 81.7448 109.261 81.7448C106.759 81.7448 104.73 83.7736 104.73 86.2765V108.097C104.73 112.361 101.274 115.817 97.01 115.817C96.6485 115.817 96.2935 115.79 95.9453 115.742V119.795C95.9453 124.058 99.4015 127.514 103.665 127.514C107.929 127.514 111.385 124.058 111.385 119.795V97.9742C111.385 95.4712 113.414 93.4424 115.916 93.4424C118.419 93.4424 120.448 91.4136 120.448 88.9106V30.0736C120.448 24.4753 117.839 19.3653 113.642 16.063Z" fill="url(#paint19_linear_343_7497)"/>
<path d="M120.448 30.0736V88.9104C120.448 90.1604 119.939 91.2959 119.121 92.1165C118.301 92.9371 117.168 93.443 115.915 93.443C113.412 93.443 111.382 95.4727 111.382 97.9727V119.795C111.382 121.928 110.518 123.857 109.12 125.251C108.62 125.751 108.053 126.184 107.432 126.531C106.348 127.142 105.095 127.495 103.765 127.512C99.4645 127.567 95.9459 123.922 95.9459 119.621V115.283C95.9459 113.15 95.0812 111.221 93.6839 109.824C92.2568 108.397 90.2742 107.525 88.0871 107.563C83.8495 107.637 80.5062 111.216 80.5062 115.454V131.231C80.5062 133.364 79.6415 135.293 78.2442 136.69C77.7442 137.19 77.1765 137.62 76.5557 137.967C75.4409 138.596 74.1554 138.952 72.7848 138.952C68.5227 138.952 65.0665 135.496 65.0665 131.231V105.379C65.0665 103.182 64.593 101.093 63.7401 99.2136C61.3927 94.0339 56.1748 90.4306 50.1183 90.4306H49.8565C45.7268 90.4306 41.9912 92.1042 39.2851 94.8074C36.5818 97.5136 34.9083 101.249 34.9083 105.379C34.9083 107.509 34.0436 109.438 32.6462 110.835C32.1462 111.335 31.5786 111.767 30.958 112.112V38.7036C30.958 34.6445 32.3315 30.8412 34.6848 27.7998C37.038 24.7554 40.3733 22.473 44.303 21.4521C66.5527 15.6804 89.8074 15.1786 112.227 19.9515C116.967 20.9604 120.421 25.1336 120.447 29.9792C120.448 30.0106 120.448 30.0421 120.448 30.0736Z" fill="url(#paint20_linear_343_7497)"/>
<path d="M95.748 30.4041C97.1173 30.4041 98.2274 29.2941 98.2274 27.9247C98.2274 26.5554 97.1173 25.4453 95.748 25.4453C94.3786 25.4453 93.2686 26.5554 93.2686 27.9247C93.2686 29.2941 94.3786 30.4041 95.748 30.4041Z" fill="url(#paint21_linear_343_7497)"/>
<path d="M88.8568 33.7306C89.9378 33.7306 90.8141 32.8543 90.8141 31.7733C90.8141 30.6923 89.9378 29.8159 88.8568 29.8159C87.7758 29.8159 86.8994 30.6923 86.8994 31.7733C86.8994 32.8543 87.7758 33.7306 88.8568 33.7306Z" fill="url(#paint22_linear_343_7497)"/>
<path d="M95.8831 38.0651C96.5348 38.0651 97.0631 37.5368 97.0631 36.8851C97.0631 36.2334 96.5348 35.7051 95.8831 35.7051C95.2314 35.7051 94.7031 36.2334 94.7031 36.8851C94.7031 37.5368 95.2314 38.0651 95.8831 38.0651Z" fill="url(#paint23_linear_343_7497)"/>
<path d="M106.822 37.018C107.834 37.018 108.654 36.1978 108.654 35.1859C108.654 34.1741 107.834 33.3539 106.822 33.3539C105.81 33.3539 104.99 34.1741 104.99 35.1859C104.99 36.1978 105.81 37.018 106.822 37.018Z" fill="url(#paint24_linear_343_7497)"/>
<path d="M101.308 34.7333C102.107 34.7333 102.754 34.0857 102.754 33.2868C102.754 32.4879 102.107 31.8403 101.308 31.8403C100.509 31.8403 99.8613 32.4879 99.8613 33.2868C99.8613 34.0857 100.509 34.7333 101.308 34.7333Z" fill="url(#paint25_linear_343_7497)"/>
<path d="M101.954 40.5465C102.436 40.5465 102.826 40.1561 102.826 39.6744C102.826 39.1928 102.436 38.8024 101.954 38.8024C101.472 38.8024 101.082 39.1928 101.082 39.6744C101.082 40.1561 101.472 40.5465 101.954 40.5465Z" fill="url(#paint26_linear_343_7497)"/>
<path d="M61.4121 83.2291C62.4239 83.2291 63.2442 82.4088 63.2442 81.397C63.2442 80.3852 62.4239 79.5649 61.4121 79.5649C60.4003 79.5649 59.5801 80.3852 59.5801 81.397C59.5801 82.4088 60.4003 83.2291 61.4121 83.2291Z" fill="url(#paint27_linear_343_7497)"/>
<path d="M55.8976 80.9443C56.6965 80.9443 57.3441 80.2967 57.3441 79.4979C57.3441 78.699 56.6965 78.0514 55.8976 78.0514C55.0988 78.0514 54.4512 78.699 54.4512 79.4979C54.4512 80.2967 55.0988 80.9443 55.8976 80.9443Z" fill="url(#paint28_linear_343_7497)"/>
<path d="M56.5439 86.7575C57.0256 86.7575 57.416 86.3671 57.416 85.8855C57.416 85.4039 57.0256 85.0134 56.5439 85.0134C56.0623 85.0134 55.6719 85.4039 55.6719 85.8855C55.6719 86.3671 56.0623 86.7575 56.5439 86.7575Z" fill="url(#paint29_linear_343_7497)"/>
<defs>
<linearGradient id="paint0_linear_343_7497" x1="10.3134" y1="17.4741" x2="147.523" y2="172.772" gradientUnits="userSpaceOnUse">
<stop stop-color="#FAA68E"/>
<stop offset="0.2061" stop-color="#FBA682"/>
<stop offset="0.5808" stop-color="#FDA861"/>
<stop offset="1" stop-color="#FFA936"/>
</linearGradient>
<linearGradient id="paint1_linear_343_7497" x1="39.796" y1="53.38" x2="180.19" y2="193.774" gradientUnits="userSpaceOnUse">
<stop stop-color="#FFDECF"/>
<stop offset="0.3791" stop-color="#FDC4B0"/>
<stop offset="0.7655" stop-color="#FBAE97"/>
<stop offset="1" stop-color="#FAA68E"/>
</linearGradient>
<linearGradient id="paint2_linear_343_7497" x1="24.6308" y1="124.398" x2="23.0937" y2="112.758" gradientUnits="userSpaceOnUse">
<stop stop-color="#F82814" stop-opacity="0"/>
<stop offset="0.2454" stop-color="#F12817" stop-opacity="0.245"/>
<stop offset="0.6052" stop-color="#DD2820" stop-opacity="0.605"/>
<stop offset="1" stop-color="#C0272D"/>
</linearGradient>
<linearGradient id="paint3_linear_343_7497" x1="17.6337" y1="127.461" x2="16.4205" y2="118.273" gradientUnits="userSpaceOnUse">
<stop stop-color="#F82814" stop-opacity="0"/>
<stop offset="0.2454" stop-color="#F12817" stop-opacity="0.245"/>
<stop offset="0.6052" stop-color="#DD2820" stop-opacity="0.605"/>
<stop offset="1" stop-color="#C0272D"/>
</linearGradient>
<linearGradient id="paint4_linear_343_7497" x1="24.5094" y1="131.4" x2="23.7778" y2="125.86" gradientUnits="userSpaceOnUse">
<stop stop-color="#F82814" stop-opacity="0"/>
<stop offset="0.2454" stop-color="#F12817" stop-opacity="0.245"/>
<stop offset="0.6052" stop-color="#DD2820" stop-opacity="0.605"/>
<stop offset="1" stop-color="#C0272D"/>
</linearGradient>
<linearGradient id="paint5_linear_343_7497" x1="34.0625" y1="129.609" x2="39.7118" y2="123.033" gradientUnits="userSpaceOnUse">
<stop stop-color="#F82814" stop-opacity="0"/>
<stop offset="0.2454" stop-color="#F12817" stop-opacity="0.245"/>
<stop offset="0.6052" stop-color="#DD2820" stop-opacity="0.605"/>
<stop offset="1" stop-color="#C0272D"/>
</linearGradient>
<linearGradient id="paint6_linear_343_7497" x1="28.9312" y1="127.267" x2="33.3909" y2="122.075" gradientUnits="userSpaceOnUse">
<stop stop-color="#F82814" stop-opacity="0"/>
<stop offset="0.2454" stop-color="#F12817" stop-opacity="0.245"/>
<stop offset="0.6052" stop-color="#DD2820" stop-opacity="0.605"/>
<stop offset="1" stop-color="#C0272D"/>
</linearGradient>
<linearGradient id="paint7_linear_343_7497" x1="30.1491" y1="132.99" x2="32.838" y2="129.86" gradientUnits="userSpaceOnUse">
<stop stop-color="#F82814" stop-opacity="0"/>
<stop offset="0.2454" stop-color="#F12817" stop-opacity="0.245"/>
<stop offset="0.6052" stop-color="#DD2820" stop-opacity="0.605"/>
<stop offset="1" stop-color="#C0272D"/>
</linearGradient>
<linearGradient id="paint8_linear_343_7497" x1="121.135" y1="104.52" x2="126.784" y2="97.9433" gradientUnits="userSpaceOnUse">
<stop stop-color="#F82814" stop-opacity="0"/>
<stop offset="0.2454" stop-color="#F12817" stop-opacity="0.245"/>
<stop offset="0.6052" stop-color="#DD2820" stop-opacity="0.605"/>
<stop offset="1" stop-color="#C0272D"/>
</linearGradient>
<linearGradient id="paint9_linear_343_7497" x1="116.004" y1="102.178" x2="120.464" y2="96.9858" gradientUnits="userSpaceOnUse">
<stop stop-color="#F82814" stop-opacity="0"/>
<stop offset="0.2454" stop-color="#F12817" stop-opacity="0.245"/>
<stop offset="0.6052" stop-color="#DD2820" stop-opacity="0.605"/>
<stop offset="1" stop-color="#C0272D"/>
</linearGradient>
<linearGradient id="paint10_linear_343_7497" x1="117.222" y1="107.901" x2="119.911" y2="104.77" gradientUnits="userSpaceOnUse">
<stop stop-color="#F82814" stop-opacity="0"/>
<stop offset="0.2454" stop-color="#F12817" stop-opacity="0.245"/>
<stop offset="0.6052" stop-color="#DD2820" stop-opacity="0.605"/>
<stop offset="1" stop-color="#C0272D"/>
</linearGradient>
<linearGradient id="paint11_linear_343_7497" x1="18.6007" y1="42.7849" x2="24.2499" y2="36.2082" gradientUnits="userSpaceOnUse">
<stop stop-color="#F82814" stop-opacity="0"/>
<stop offset="0.2454" stop-color="#F12817" stop-opacity="0.245"/>
<stop offset="0.6052" stop-color="#DD2820" stop-opacity="0.605"/>
<stop offset="1" stop-color="#C0272D"/>
</linearGradient>
<linearGradient id="paint12_linear_343_7497" x1="13.4697" y1="40.4425" x2="17.9291" y2="35.2504" gradientUnits="userSpaceOnUse">
<stop stop-color="#F82814" stop-opacity="0"/>
<stop offset="0.2454" stop-color="#F12817" stop-opacity="0.245"/>
<stop offset="0.6052" stop-color="#DD2820" stop-opacity="0.605"/>
<stop offset="1" stop-color="#C0272D"/>
</linearGradient>
<linearGradient id="paint13_linear_343_7497" x1="14.6872" y1="46.1653" x2="17.3759" y2="43.0352" gradientUnits="userSpaceOnUse">
<stop stop-color="#F82814" stop-opacity="0"/>
<stop offset="0.2454" stop-color="#F12817" stop-opacity="0.245"/>
<stop offset="0.6052" stop-color="#DD2820" stop-opacity="0.605"/>
<stop offset="1" stop-color="#C0272D"/>
</linearGradient>
<linearGradient id="paint14_linear_343_7497" x1="94.26" y1="91.1023" x2="49.8277" y2="42.9676" gradientUnits="userSpaceOnUse">
<stop stop-color="#F82814" stop-opacity="0"/>
<stop offset="0.2458" stop-color="#F12817" stop-opacity="0.246"/>
<stop offset="0.608" stop-color="#DD2820" stop-opacity="0.608"/>
<stop offset="1" stop-color="#C0272D"/>
</linearGradient>
<linearGradient id="paint15_linear_343_7497" x1="112.057" y1="88.2803" x2="62.9815" y2="71.0456" gradientUnits="userSpaceOnUse">
<stop stop-color="#F82814" stop-opacity="0"/>
<stop offset="0.2458" stop-color="#F12817" stop-opacity="0.246"/>
<stop offset="0.608" stop-color="#DD2820" stop-opacity="0.608"/>
<stop offset="1" stop-color="#C0272D"/>
</linearGradient>
<linearGradient id="paint16_linear_343_7497" x1="130.821" y1="82.4385" x2="86.2654" y2="75.9897" gradientUnits="userSpaceOnUse">
<stop stop-color="#F82814" stop-opacity="0"/>
<stop offset="0.2458" stop-color="#F12817" stop-opacity="0.246"/>
<stop offset="0.608" stop-color="#DD2820" stop-opacity="0.608"/>
<stop offset="1" stop-color="#C0272D"/>
</linearGradient>
<linearGradient id="paint17_linear_343_7497" x1="48.2897" y1="32.8107" x2="117.707" y2="139.878" gradientUnits="userSpaceOnUse">
<stop stop-color="#FF6359"/>
<stop offset="0.2243" stop-color="#FE5B50"/>
<stop offset="0.5952" stop-color="#FC4637"/>
<stop offset="1" stop-color="#F82814"/>
</linearGradient>
<linearGradient id="paint18_linear_343_7497" x1="71.4796" y1="108.619" x2="88.6449" y2="135.094" gradientUnits="userSpaceOnUse">
<stop stop-color="#F82814" stop-opacity="0"/>
<stop offset="1" stop-color="#C0272D"/>
</linearGradient>
<linearGradient id="paint19_linear_343_7497" x1="107.114" y1="71.6368" x2="134.469" y2="93.403" gradientUnits="userSpaceOnUse">
<stop stop-color="#F82814" stop-opacity="0"/>
<stop offset="1" stop-color="#C0272D"/>
</linearGradient>
<linearGradient id="paint20_linear_343_7497" x1="65.743" y1="52.2895" x2="5.74154" y2="-52.7135" gradientUnits="userSpaceOnUse">
<stop stop-color="white" stop-opacity="0"/>
<stop offset="1" stop-color="white"/>
</linearGradient>
<linearGradient id="paint21_linear_343_7497" x1="96.0018" y1="32.3748" x2="94.4647" y2="20.7352" gradientUnits="userSpaceOnUse">
<stop stop-color="#F82814" stop-opacity="0"/>
<stop offset="0.2454" stop-color="#F12817" stop-opacity="0.245"/>
<stop offset="0.6052" stop-color="#DD2820" stop-opacity="0.605"/>
<stop offset="1" stop-color="#C0272D"/>
</linearGradient>
<linearGradient id="paint22_linear_343_7497" x1="89.0047" y1="35.4386" x2="87.7914" y2="26.2495" gradientUnits="userSpaceOnUse">
<stop stop-color="#F82814" stop-opacity="0"/>
<stop offset="0.2454" stop-color="#F12817" stop-opacity="0.245"/>
<stop offset="0.6052" stop-color="#DD2820" stop-opacity="0.605"/>
<stop offset="1" stop-color="#C0272D"/>
</linearGradient>
<linearGradient id="paint23_linear_343_7497" x1="95.8807" y1="39.3767" x2="95.1491" y2="33.8369" gradientUnits="userSpaceOnUse">
<stop stop-color="#F82814" stop-opacity="0"/>
<stop offset="0.2454" stop-color="#F12817" stop-opacity="0.245"/>
<stop offset="0.6052" stop-color="#DD2820" stop-opacity="0.605"/>
<stop offset="1" stop-color="#C0272D"/>
</linearGradient>
<linearGradient id="paint24_linear_343_7497" x1="105.386" y1="37.6438" x2="111.035" y2="31.0672" gradientUnits="userSpaceOnUse">
<stop stop-color="#F82814" stop-opacity="0"/>
<stop offset="0.2454" stop-color="#F12817" stop-opacity="0.245"/>
<stop offset="0.6052" stop-color="#DD2820" stop-opacity="0.605"/>
<stop offset="1" stop-color="#C0272D"/>
</linearGradient>
<linearGradient id="paint25_linear_343_7497" x1="100.254" y1="35.3014" x2="104.714" y2="30.1094" gradientUnits="userSpaceOnUse">
<stop stop-color="#F82814" stop-opacity="0"/>
<stop offset="0.2454" stop-color="#F12817" stop-opacity="0.245"/>
<stop offset="0.6052" stop-color="#DD2820" stop-opacity="0.605"/>
<stop offset="1" stop-color="#C0272D"/>
</linearGradient>
<linearGradient id="paint26_linear_343_7497" x1="101.472" y1="41.0243" x2="104.161" y2="37.8942" gradientUnits="userSpaceOnUse">
<stop stop-color="#F82814" stop-opacity="0"/>
<stop offset="0.2454" stop-color="#F12817" stop-opacity="0.245"/>
<stop offset="0.6052" stop-color="#DD2820" stop-opacity="0.605"/>
<stop offset="1" stop-color="#C0272D"/>
</linearGradient>
<linearGradient id="paint27_linear_343_7497" x1="60.0007" y1="83.8591" x2="65.65" y2="77.2824" gradientUnits="userSpaceOnUse">
<stop stop-color="#F82814" stop-opacity="0"/>
<stop offset="0.2454" stop-color="#F12817" stop-opacity="0.245"/>
<stop offset="0.6052" stop-color="#DD2820" stop-opacity="0.605"/>
<stop offset="1" stop-color="#C0272D"/>
</linearGradient>
<linearGradient id="paint28_linear_343_7497" x1="54.8697" y1="81.5167" x2="59.3291" y2="76.3246" gradientUnits="userSpaceOnUse">
<stop stop-color="#F82814" stop-opacity="0"/>
<stop offset="0.2454" stop-color="#F12817" stop-opacity="0.245"/>
<stop offset="0.6052" stop-color="#DD2820" stop-opacity="0.605"/>
<stop offset="1" stop-color="#C0272D"/>
</linearGradient>
<linearGradient id="paint29_linear_343_7497" x1="56.0873" y1="87.2395" x2="58.7759" y2="84.1094" gradientUnits="userSpaceOnUse">
<stop stop-color="#F82814" stop-opacity="0"/>
<stop offset="0.2454" stop-color="#F12817" stop-opacity="0.245"/>
<stop offset="0.6052" stop-color="#DD2820" stop-opacity="0.605"/>
<stop offset="1" stop-color="#C0272D"/>
</linearGradient>
</defs>
</svg>
