<svg width="151" height="120" viewBox="0 0 151 120" fill="none" xmlns="http://www.w3.org/2000/svg">
<path d="M102.514 77.7491C102.514 80.7329 86.1716 84.832 57.0981 84.832C53.1393 84.832 49.4154 84.7564 45.939 84.6161V0.586426H57.0981C60.5369 0.586426 71.3287 14.887 83.8549 36.195C96.381 57.5029 102.514 77.7491 102.514 77.7491Z" fill="url(#paint0_linear_343_6559)"/>
<path d="M72.696 36.1962C60.1695 14.8885 49.3783 0.587646 45.9389 0.587646C42.4995 0.587646 31.7086 14.8882 19.1819 36.1962C6.6554 57.5038 0.523926 77.7497 0.523926 77.7497C0.523926 80.733 16.8663 84.8309 45.9389 84.8309C75.0116 84.8309 91.3539 80.733 91.3539 77.7497C91.3539 77.7497 85.2225 57.5038 72.696 36.1962V36.1962Z" fill="url(#paint1_linear_343_6559)"/>
<path d="M0.523926 77.7496C0.523926 80.7329 16.8663 84.8308 45.9389 84.8308C47.8416 84.8308 49.6886 84.8129 51.4813 84.779C53.2972 84.8138 55.1692 84.832 57.0981 84.832C86.1716 84.832 102.514 80.7329 102.514 77.749C102.514 77.749 99.6054 68.1476 93.7036 55.2102H9.33393C3.43216 68.1479 0.523926 77.7496 0.523926 77.7496H0.523926Z" fill="url(#paint2_linear_343_6559)"/>
<path d="M51.4815 84.7793C53.2974 84.814 55.1694 84.8323 57.0983 84.8323C71.8686 84.8323 83.35 83.774 91.0753 82.342L65.0071 56.2737C64.5215 55.5687 63.6783 55.134 62.7533 55.222C57.2641 55.7437 51.3827 56.0276 45.2636 56.0276C39.1444 56.0276 33.2633 55.744 27.7739 55.222C26.3359 55.0852 25.0903 56.2085 25.0903 57.6529V82.2911C25.0903 82.9435 25.2818 83.5529 25.6109 84.0679C31.4521 84.5446 38.25 84.8314 45.9391 84.8314C47.8421 84.8308 49.6889 84.8129 51.4815 84.7793Z" fill="url(#paint3_linear_343_6559)"/>
<path d="M25.0903 82.2906C25.0903 84.0003 26.3933 85.4247 28.0956 85.5832C33.493 86.0856 39.2645 86.3579 45.2636 86.3579C51.2627 86.3579 57.0342 86.0856 62.4315 85.5832C64.1339 85.4247 65.4368 84.0003 65.4368 82.2906V57.6524C65.4368 56.208 64.1912 55.0847 62.7533 55.2215C57.2642 55.7433 51.3827 56.0271 45.2636 56.0271C39.1445 56.0271 33.2633 55.7436 27.7739 55.2215C26.3359 55.0847 25.0903 56.208 25.0903 57.6524V82.2906Z" fill="url(#paint4_linear_343_6559)"/>
<g opacity="0.6">
<g opacity="0.6">
<path opacity="0.6" d="M41.2298 26.61C42.3664 26.61 43.2878 25.6887 43.2878 24.5521C43.2878 23.4155 42.3664 22.4941 41.2298 22.4941C40.0932 22.4941 39.1719 23.4155 39.1719 24.5521C39.1719 25.6887 40.0932 26.61 41.2298 26.61Z" fill="url(#paint5_linear_343_6559)"/>
<path opacity="0.6" d="M34.6882 26.528C35.5855 26.528 36.3129 25.8006 36.3129 24.9033C36.3129 24.006 35.5855 23.2786 34.6882 23.2786C33.7909 23.2786 33.0635 24.006 33.0635 24.9033C33.0635 25.8006 33.7909 26.528 34.6882 26.528Z" fill="url(#paint6_linear_343_6559)"/>
<path opacity="0.6" d="M37.3554 19.1827C37.8963 19.1827 38.3348 18.7442 38.3348 18.2033C38.3348 17.6624 37.8963 17.2239 37.3554 17.2239C36.8145 17.2239 36.376 17.6624 36.376 18.2033C36.376 18.7442 36.8145 19.1827 37.3554 19.1827Z" fill="url(#paint7_linear_343_6559)"/>
</g>
<g opacity="0.6">
<path opacity="0.6" d="M90.4852 70.039C91.6218 70.039 92.5431 69.1176 92.5431 67.981C92.5431 66.8445 91.6218 65.9231 90.4852 65.9231C89.3486 65.9231 88.4272 66.8445 88.4272 67.981C88.4272 69.1176 89.3486 70.039 90.4852 70.039Z" fill="url(#paint8_linear_343_6559)"/>
<path opacity="0.6" d="M86.6647 74.9271C87.562 74.9271 88.2894 74.1997 88.2894 73.3024C88.2894 72.4051 87.562 71.6777 86.6647 71.6777C85.7674 71.6777 85.04 72.4051 85.04 73.3024C85.04 74.1997 85.7674 74.9271 86.6647 74.9271Z" fill="url(#paint9_linear_343_6559)"/>
<path opacity="0.6" d="M93.746 75.6453C94.2869 75.6453 94.7254 75.2069 94.7254 74.6659C94.7254 74.125 94.2869 73.6865 93.746 73.6865C93.2051 73.6865 92.7666 74.125 92.7666 74.6659C92.7666 75.2069 93.2051 75.6453 93.746 75.6453Z" fill="url(#paint10_linear_343_6559)"/>
</g>
<g opacity="0.6">
<path opacity="0.6" d="M45.7872 16.071C46.627 16.071 47.3078 15.3902 47.3078 14.5504C47.3078 13.7106 46.627 13.0298 45.7872 13.0298C44.9474 13.0298 44.2666 13.7106 44.2666 14.5504C44.2666 15.3902 44.9474 16.071 45.7872 16.071Z" fill="url(#paint11_linear_343_6559)"/>
<path opacity="0.6" d="M42.7577 19.5264C43.4208 19.5264 43.9583 18.9889 43.9583 18.3258C43.9583 17.6628 43.4208 17.1252 42.7577 17.1252C42.0947 17.1252 41.5571 17.6628 41.5571 18.3258C41.5571 18.9889 42.0947 19.5264 42.7577 19.5264Z" fill="url(#paint12_linear_343_6559)"/>
<path opacity="0.6" d="M40.382 14.2797C40.7818 14.2797 41.1059 13.9556 41.1059 13.5559C41.1059 13.1561 40.7818 12.832 40.382 12.832C39.9823 12.832 39.6582 13.1561 39.6582 13.5559C39.6582 13.9556 39.9823 14.2797 40.382 14.2797Z" fill="url(#paint13_linear_343_6559)"/>
</g>
</g>
<path d="M150.524 96.8514C150.524 99.8352 134.181 103.934 105.108 103.934C101.149 103.934 97.4252 103.859 93.9487 103.718V19.6887H105.108C108.547 19.6887 119.338 33.9893 131.865 55.2973C144.391 76.6055 150.524 96.8514 150.524 96.8514V96.8514Z" fill="url(#paint14_linear_343_6559)"/>
<path d="M120.706 55.2985C108.179 33.9908 97.3881 19.6899 93.9487 19.6899C90.5096 19.6899 79.7184 33.9905 67.1916 55.2985C54.6652 76.6061 48.5337 96.852 48.5337 96.852C48.5337 99.8352 64.876 103.933 93.9487 103.933C123.021 103.933 139.364 99.8352 139.364 96.852C139.364 96.8523 133.232 76.6064 120.706 55.2985V55.2985Z" fill="url(#paint15_linear_343_6559)"/>
<path d="M48.5337 96.8522C48.5337 99.8354 64.876 103.933 93.9487 103.933C95.8513 103.933 97.6984 103.915 99.4911 103.882C101.307 103.916 103.179 103.935 105.108 103.935C134.181 103.935 150.524 99.8354 150.524 96.8516C150.524 96.8516 147.615 87.2501 141.713 74.3127H57.3437C51.4419 87.2501 48.5337 96.8522 48.5337 96.8522V96.8522Z" fill="url(#paint16_linear_343_6559)"/>
<path d="M99.4913 103.882C101.307 103.916 103.179 103.935 105.108 103.935C119.878 103.935 131.36 102.876 139.085 101.444L113.017 75.376C112.531 74.671 111.688 74.2363 110.763 74.3243C105.274 74.846 99.3924 75.1299 93.2733 75.1299C87.1542 75.1299 81.2727 74.8463 75.7836 74.3243C74.3457 74.1875 73.1001 75.3107 73.1001 76.7552V101.393C73.1001 102.046 73.2916 102.655 73.6207 103.17C79.4619 103.647 86.2598 103.934 93.9489 103.934C95.8519 103.933 97.6986 103.915 99.4913 103.882V103.882Z" fill="url(#paint17_linear_343_6559)"/>
<path d="M99.4917 103.882C101.308 103.917 103.18 103.935 105.109 103.935C119.259 103.935 130.393 102.964 138.095 101.623L76.5873 40.1145C73.6423 44.6069 70.4773 49.7113 67.1926 55.2989C54.6661 76.6066 48.5347 96.8524 48.5347 96.8524C48.5347 99.8357 64.877 103.934 93.9497 103.934C95.8523 103.933 97.6991 103.915 99.4917 103.882V103.882Z" fill="url(#paint18_linear_343_6559)"/>
<path d="M73.1001 101.393C73.1001 103.103 74.403 104.527 76.1054 104.686C81.5028 105.188 87.2742 105.461 93.2733 105.461C99.2725 105.461 105.044 105.188 110.441 104.686C112.144 104.527 113.447 103.103 113.447 101.393V76.7549C113.447 75.3105 112.201 74.1873 110.763 74.324C105.274 74.8458 99.3925 75.1296 93.2733 75.1296C87.1542 75.1296 81.273 74.8461 75.7836 74.324C74.3457 74.1873 73.1001 75.3105 73.1001 76.7549V101.393Z" fill="url(#paint19_linear_343_6559)"/>
<g opacity="0.6">
<g opacity="0.6">
<path opacity="0.6" d="M93.2821 40.4655C94.4186 40.4655 95.34 39.5441 95.34 38.4075C95.34 37.271 94.4186 36.3496 93.2821 36.3496C92.1455 36.3496 91.2241 37.271 91.2241 38.4075C91.2241 39.5441 92.1455 40.4655 93.2821 40.4655Z" fill="url(#paint20_linear_343_6559)"/>
<path opacity="0.6" d="M91.7111 33.6723C92.6084 33.6723 93.3358 32.9449 93.3358 32.0476C93.3358 31.1503 92.6084 30.4229 91.7111 30.4229C90.8138 30.4229 90.0864 31.1503 90.0864 32.0476C90.0864 32.9449 90.8138 33.6723 91.7111 33.6723Z" fill="url(#paint21_linear_343_6559)"/>
<path opacity="0.6" d="M86.0795 37.5311C86.6204 37.5311 87.0589 37.0926 87.0589 36.5517C87.0589 36.0108 86.6204 35.5723 86.0795 35.5723C85.5386 35.5723 85.1001 36.0108 85.1001 36.5517C85.1001 37.0926 85.5386 37.5311 86.0795 37.5311Z" fill="url(#paint22_linear_343_6559)"/>
</g>
<g opacity="0.6">
<path opacity="0.6" d="M138.495 89.1413C139.632 89.1413 140.553 88.2199 140.553 87.0833C140.553 85.9468 139.632 85.0254 138.495 85.0254C137.358 85.0254 136.437 85.9468 136.437 87.0833C136.437 88.2199 137.358 89.1413 138.495 89.1413Z" fill="url(#paint23_linear_343_6559)"/>
<path opacity="0.6" d="M134.675 94.0294C135.572 94.0294 136.299 93.302 136.299 92.4047C136.299 91.5074 135.572 90.78 134.675 90.78C133.777 90.78 133.05 91.5074 133.05 92.4047C133.05 93.302 133.777 94.0294 134.675 94.0294Z" fill="url(#paint24_linear_343_6559)"/>
<path opacity="0.6" d="M141.756 94.7474C142.297 94.7474 142.735 94.3089 142.735 93.768C142.735 93.2271 142.297 92.7886 141.756 92.7886C141.215 92.7886 140.776 93.2271 140.776 93.768C140.776 94.3089 141.215 94.7474 141.756 94.7474Z" fill="url(#paint25_linear_343_6559)"/>
</g>
<g opacity="0.6">
<path opacity="0.6" d="M85.0416 47.2018C85.8814 47.2018 86.5622 46.521 86.5622 45.6812C86.5622 44.8414 85.8814 44.1606 85.0416 44.1606C84.2018 44.1606 83.521 44.8414 83.521 45.6812C83.521 46.521 84.2018 47.2018 85.0416 47.2018Z" fill="url(#paint26_linear_343_6559)"/>
<path opacity="0.6" d="M87.7709 42.8836C88.434 42.8836 88.9715 42.3461 88.9715 41.683C88.9715 41.0199 88.434 40.4824 87.7709 40.4824C87.1078 40.4824 86.5703 41.0199 86.5703 41.683C86.5703 42.3461 87.1078 42.8836 87.7709 42.8836Z" fill="url(#paint27_linear_343_6559)"/>
<path opacity="0.6" d="M82.5153 41.5246C82.9151 41.5246 83.2392 41.2005 83.2392 40.8007C83.2392 40.401 82.9151 40.0769 82.5153 40.0769C82.1156 40.0769 81.7915 40.401 81.7915 40.8007C81.7915 41.2005 82.1156 41.5246 82.5153 41.5246Z" fill="url(#paint28_linear_343_6559)"/>
</g>
</g>
<path d="M114.645 110.805C114.645 113.788 98.3025 117.887 69.2289 117.887C65.2701 117.887 61.5463 117.812 58.0698 117.672V33.6418H69.2289C72.6678 33.6418 83.4595 47.9424 95.9857 69.2504C108.512 90.5583 114.645 110.805 114.645 110.805Z" fill="url(#paint29_linear_343_6559)"/>
<path d="M84.8268 69.2516C72.3004 47.9439 61.5092 33.6431 58.0698 33.6431C54.6304 33.6431 43.8395 47.9437 31.3127 69.2516C18.7863 90.5592 12.6548 110.805 12.6548 110.805C12.6548 113.788 28.9971 117.886 58.0698 117.886C87.1424 117.886 103.485 113.789 103.485 110.805C103.485 110.805 97.3533 90.5592 84.8268 69.2516Z" fill="url(#paint30_linear_343_6559)"/>
<path d="M12.6548 110.805C12.6548 113.788 28.9971 117.886 58.0698 117.886C59.9724 117.886 61.8195 117.868 63.6121 117.834C65.428 117.869 67.3001 117.887 69.2289 117.887C98.3024 117.887 114.645 113.788 114.645 110.804C114.645 110.804 111.736 101.203 105.835 88.2656H21.4648C15.563 101.203 12.6548 110.805 12.6548 110.805V110.805Z" fill="url(#paint31_linear_343_6559)"/>
<path d="M63.6124 117.835C65.4282 117.869 67.3003 117.887 69.2291 117.887C83.9994 117.887 95.4809 116.829 103.206 115.397L77.138 89.3289C76.6524 88.6239 75.8091 88.1892 74.8841 88.2772C69.395 88.7989 63.5135 89.0827 57.3944 89.0827C51.2753 89.0827 45.3941 88.7992 39.9047 88.2772C38.4668 88.1404 37.2212 89.2636 37.2212 90.708V115.346C37.2212 115.999 37.4127 116.608 37.7418 117.123C43.583 117.6 50.3809 117.887 58.07 117.887C59.973 117.886 61.8197 117.868 63.6124 117.835V117.835Z" fill="url(#paint32_linear_343_6559)"/>
<path d="M37.2212 115.346C37.2212 117.056 38.5241 118.48 40.2265 118.639C45.6238 119.141 51.3953 119.413 57.3944 119.413C63.3935 119.413 69.165 119.141 74.5624 118.639C76.2647 118.48 77.5677 117.056 77.5677 115.346V90.7078C77.5677 89.2634 76.3218 88.1401 74.8841 88.2769C69.395 88.7987 63.5135 89.0825 57.3944 89.0825C51.2753 89.0825 45.3941 88.799 39.9047 88.2769C38.4668 88.1401 37.2212 89.2634 37.2212 90.7078V115.346Z" fill="url(#paint33_linear_343_6559)"/>
<g opacity="0.6">
<g opacity="0.6">
<path opacity="0.6" d="M49.4608 56.6476C50.5973 56.6476 51.5187 55.7263 51.5187 54.5897C51.5187 53.4531 50.5973 52.5317 49.4608 52.5317C48.3242 52.5317 47.4028 53.4531 47.4028 54.5897C47.4028 55.7263 48.3242 56.6476 49.4608 56.6476Z" fill="url(#paint34_linear_343_6559)"/>
<path opacity="0.6" d="M51.031 62.5744C51.9283 62.5744 52.6557 61.847 52.6557 60.9497C52.6557 60.0524 51.9283 59.325 51.031 59.325C50.1337 59.325 49.4062 60.0524 49.4062 60.9497C49.4062 61.847 50.1337 62.5744 51.031 62.5744Z" fill="url(#paint35_linear_343_6559)"/>
<path opacity="0.6" d="M56.6625 57.4249C57.2034 57.4249 57.6419 56.9864 57.6419 56.4455C57.6419 55.9046 57.2034 55.4661 56.6625 55.4661C56.1216 55.4661 55.6831 55.9046 55.6831 56.4455C55.6831 56.9864 56.1216 57.4249 56.6625 57.4249Z" fill="url(#paint36_linear_343_6559)"/>
</g>
<g opacity="0.6">
<path opacity="0.6" d="M102.616 103.094C103.753 103.094 104.674 102.173 104.674 101.036C104.674 99.8996 103.753 98.9783 102.616 98.9783C101.479 98.9783 100.558 99.8996 100.558 101.036C100.558 102.173 101.479 103.094 102.616 103.094Z" fill="url(#paint37_linear_343_6559)"/>
<path opacity="0.6" d="M98.7956 107.982C99.6929 107.982 100.42 107.255 100.42 106.358C100.42 105.46 99.6929 104.733 98.7956 104.733C97.8983 104.733 97.1709 105.46 97.1709 106.358C97.1709 107.255 97.8983 107.982 98.7956 107.982Z" fill="url(#paint38_linear_343_6559)"/>
<path opacity="0.6" d="M105.877 108.7C106.418 108.7 106.856 108.262 106.856 107.721C106.856 107.18 106.418 106.741 105.877 106.741C105.336 106.741 104.897 107.18 104.897 107.721C104.897 108.262 105.336 108.7 105.877 108.7Z" fill="url(#paint39_linear_343_6559)"/>
</g>
<g opacity="0.6">
<path opacity="0.6" d="M57.7008 48.8366C58.5406 48.8366 59.2214 48.1558 59.2214 47.316C59.2214 46.4762 58.5406 45.7954 57.7008 45.7954C56.861 45.7954 56.1802 46.4762 56.1802 47.316C56.1802 48.1558 56.861 48.8366 57.7008 48.8366Z" fill="url(#paint40_linear_343_6559)"/>
<path opacity="0.6" d="M54.9711 52.5149C55.6342 52.5149 56.1717 51.9774 56.1717 51.3144C56.1717 50.6513 55.6342 50.1138 54.9711 50.1138C54.308 50.1138 53.7705 50.6513 53.7705 51.3144C53.7705 51.9774 54.308 52.5149 54.9711 52.5149Z" fill="url(#paint41_linear_343_6559)"/>
<path opacity="0.6" d="M60.2263 52.9205C60.626 52.9205 60.9501 52.5965 60.9501 52.1967C60.9501 51.797 60.626 51.4729 60.2263 51.4729C59.8265 51.4729 59.5024 51.797 59.5024 52.1967C59.5024 52.5965 59.8265 52.9205 60.2263 52.9205Z" fill="url(#paint42_linear_343_6559)"/>
</g>
</g>
<defs>
<linearGradient id="paint0_linear_343_6559" x1="76.396" y1="23.9458" x2="70.246" y2="67.182" gradientUnits="userSpaceOnUse">
<stop stop-color="#F8F6FB"/>
<stop offset="1" stop-color="#EFDCFB"/>
</linearGradient>
<linearGradient id="paint1_linear_343_6559" x1="17.9366" y1="27.3144" x2="51.3016" y2="80.2103" gradientUnits="userSpaceOnUse">
<stop stop-color="#F8F6FB"/>
<stop offset="1" stop-color="#EFDCFB"/>
</linearGradient>
<linearGradient id="paint2_linear_343_6559" x1="51.5192" y1="72.5023" x2="51.5192" y2="93.9958" gradientUnits="userSpaceOnUse">
<stop stop-color="#EFDCFB" stop-opacity="0"/>
<stop offset="0.0287" stop-color="#E9D6F7" stop-opacity="0.029"/>
<stop offset="0.2203" stop-color="#C5B5DE" stop-opacity="0.22"/>
<stop offset="0.4138" stop-color="#AA9BCB" stop-opacity="0.414"/>
<stop offset="0.6078" stop-color="#9688BD" stop-opacity="0.608"/>
<stop offset="0.8028" stop-color="#8A7DB5" stop-opacity="0.803"/>
<stop offset="1" stop-color="#8679B2"/>
</linearGradient>
<linearGradient id="paint3_linear_343_6559" x1="77.9294" y1="89.5811" x2="39.7309" y2="66.6993" gradientUnits="userSpaceOnUse">
<stop stop-color="#EFDCFB" stop-opacity="0"/>
<stop offset="0.0287" stop-color="#E9D6F7" stop-opacity="0.029"/>
<stop offset="0.2203" stop-color="#C5B5DE" stop-opacity="0.22"/>
<stop offset="0.4138" stop-color="#AA9BCB" stop-opacity="0.414"/>
<stop offset="0.6078" stop-color="#9688BD" stop-opacity="0.608"/>
<stop offset="0.8028" stop-color="#8A7DB5" stop-opacity="0.803"/>
<stop offset="1" stop-color="#8679B2"/>
</linearGradient>
<linearGradient id="paint4_linear_343_6559" x1="41.698" y1="52.7356" x2="48.9827" y2="88.0388" gradientUnits="userSpaceOnUse">
<stop stop-color="#464F00"/>
<stop offset="0.2883" stop-color="#454518"/>
<stop offset="0.7468" stop-color="#443738"/>
<stop offset="1" stop-color="#433244"/>
</linearGradient>
<linearGradient id="paint5_linear_343_6559" x1="39.8347" y1="21.5571" x2="43.9118" y2="30.407" gradientUnits="userSpaceOnUse">
<stop stop-color="#EFDCFB" stop-opacity="0"/>
<stop offset="0.0287" stop-color="#E9D6F7" stop-opacity="0.029"/>
<stop offset="0.2203" stop-color="#C5B5DE" stop-opacity="0.22"/>
<stop offset="0.4138" stop-color="#AA9BCB" stop-opacity="0.414"/>
<stop offset="0.6078" stop-color="#9688BD" stop-opacity="0.608"/>
<stop offset="0.8028" stop-color="#8A7DB5" stop-opacity="0.803"/>
<stop offset="1" stop-color="#8679B2"/>
</linearGradient>
<linearGradient id="paint6_linear_343_6559" x1="33.5666" y1="22.5063" x2="36.7854" y2="29.4926" gradientUnits="userSpaceOnUse">
<stop stop-color="#EFDCFB" stop-opacity="0"/>
<stop offset="0.0287" stop-color="#E9D6F7" stop-opacity="0.029"/>
<stop offset="0.2203" stop-color="#C5B5DE" stop-opacity="0.22"/>
<stop offset="0.4138" stop-color="#AA9BCB" stop-opacity="0.414"/>
<stop offset="0.6078" stop-color="#9688BD" stop-opacity="0.608"/>
<stop offset="0.8028" stop-color="#8A7DB5" stop-opacity="0.803"/>
<stop offset="1" stop-color="#8679B2"/>
</linearGradient>
<linearGradient id="paint7_linear_343_6559" x1="36.6477" y1="16.6968" x2="38.5881" y2="20.9087" gradientUnits="userSpaceOnUse">
<stop stop-color="#EFDCFB" stop-opacity="0"/>
<stop offset="0.0287" stop-color="#E9D6F7" stop-opacity="0.029"/>
<stop offset="0.2203" stop-color="#C5B5DE" stop-opacity="0.22"/>
<stop offset="0.4138" stop-color="#AA9BCB" stop-opacity="0.414"/>
<stop offset="0.6078" stop-color="#9688BD" stop-opacity="0.608"/>
<stop offset="0.8028" stop-color="#8A7DB5" stop-opacity="0.803"/>
<stop offset="1" stop-color="#8679B2"/>
</linearGradient>
<linearGradient id="paint8_linear_343_6559" x1="92.2299" y1="70.8638" x2="86.9719" y2="62.6586" gradientUnits="userSpaceOnUse">
<stop stop-color="#EFDCFB" stop-opacity="0"/>
<stop offset="0.0287" stop-color="#E9D6F7" stop-opacity="0.029"/>
<stop offset="0.2203" stop-color="#C5B5DE" stop-opacity="0.22"/>
<stop offset="0.4138" stop-color="#AA9BCB" stop-opacity="0.414"/>
<stop offset="0.6078" stop-color="#9688BD" stop-opacity="0.608"/>
<stop offset="0.8028" stop-color="#8A7DB5" stop-opacity="0.803"/>
<stop offset="1" stop-color="#8679B2"/>
</linearGradient>
<linearGradient id="paint9_linear_343_6559" x1="88.0519" y1="75.6329" x2="83.9009" y2="69.1553" gradientUnits="userSpaceOnUse">
<stop stop-color="#EFDCFB" stop-opacity="0"/>
<stop offset="0.0287" stop-color="#E9D6F7" stop-opacity="0.029"/>
<stop offset="0.2203" stop-color="#C5B5DE" stop-opacity="0.22"/>
<stop offset="0.4138" stop-color="#AA9BCB" stop-opacity="0.414"/>
<stop offset="0.6078" stop-color="#9688BD" stop-opacity="0.608"/>
<stop offset="0.8028" stop-color="#8A7DB5" stop-opacity="0.803"/>
<stop offset="1" stop-color="#8679B2"/>
</linearGradient>
<linearGradient id="paint10_linear_343_6559" x1="94.6067" y1="76.1686" x2="92.1042" y2="72.2631" gradientUnits="userSpaceOnUse">
<stop stop-color="#EFDCFB" stop-opacity="0"/>
<stop offset="0.0287" stop-color="#E9D6F7" stop-opacity="0.029"/>
<stop offset="0.2203" stop-color="#C5B5DE" stop-opacity="0.22"/>
<stop offset="0.4138" stop-color="#AA9BCB" stop-opacity="0.414"/>
<stop offset="0.6078" stop-color="#9688BD" stop-opacity="0.608"/>
<stop offset="0.8028" stop-color="#8A7DB5" stop-opacity="0.803"/>
<stop offset="1" stop-color="#8679B2"/>
</linearGradient>
<linearGradient id="paint11_linear_343_6559" x1="43.6121" y1="13.8069" x2="50.4917" y2="15.9205" gradientUnits="userSpaceOnUse">
<stop stop-color="#EFDCFB" stop-opacity="0"/>
<stop offset="0.0287" stop-color="#E9D6F7" stop-opacity="0.029"/>
<stop offset="0.2203" stop-color="#C5B5DE" stop-opacity="0.22"/>
<stop offset="0.4138" stop-color="#AA9BCB" stop-opacity="0.414"/>
<stop offset="0.6078" stop-color="#9688BD" stop-opacity="0.608"/>
<stop offset="0.8028" stop-color="#8A7DB5" stop-opacity="0.803"/>
<stop offset="1" stop-color="#8679B2"/>
</linearGradient>
<linearGradient id="paint12_linear_343_6559" x1="41.0476" y1="17.7248" x2="46.4789" y2="19.3934" gradientUnits="userSpaceOnUse">
<stop stop-color="#EFDCFB" stop-opacity="0"/>
<stop offset="0.0287" stop-color="#E9D6F7" stop-opacity="0.029"/>
<stop offset="0.2203" stop-color="#C5B5DE" stop-opacity="0.22"/>
<stop offset="0.4138" stop-color="#AA9BCB" stop-opacity="0.414"/>
<stop offset="0.6078" stop-color="#9688BD" stop-opacity="0.608"/>
<stop offset="0.8028" stop-color="#8A7DB5" stop-opacity="0.803"/>
<stop offset="1" stop-color="#8679B2"/>
</linearGradient>
<linearGradient id="paint13_linear_343_6559" x1="39.3669" y1="13.168" x2="42.6412" y2="14.174" gradientUnits="userSpaceOnUse">
<stop stop-color="#EFDCFB" stop-opacity="0"/>
<stop offset="0.0287" stop-color="#E9D6F7" stop-opacity="0.029"/>
<stop offset="0.2203" stop-color="#C5B5DE" stop-opacity="0.22"/>
<stop offset="0.4138" stop-color="#AA9BCB" stop-opacity="0.414"/>
<stop offset="0.6078" stop-color="#9688BD" stop-opacity="0.608"/>
<stop offset="0.8028" stop-color="#8A7DB5" stop-opacity="0.803"/>
<stop offset="1" stop-color="#8679B2"/>
</linearGradient>
<linearGradient id="paint14_linear_343_6559" x1="124.406" y1="43.0481" x2="118.256" y2="86.2843" gradientUnits="userSpaceOnUse">
<stop stop-color="#F8F6FB"/>
<stop offset="1" stop-color="#EFDCFB"/>
</linearGradient>
<linearGradient id="paint15_linear_343_6559" x1="65.9463" y1="46.417" x2="99.3113" y2="99.3126" gradientUnits="userSpaceOnUse">
<stop stop-color="#F8F6FB"/>
<stop offset="1" stop-color="#EFDCFB"/>
</linearGradient>
<linearGradient id="paint16_linear_343_6559" x1="99.529" y1="91.6045" x2="99.529" y2="113.098" gradientUnits="userSpaceOnUse">
<stop stop-color="#EFDCFB" stop-opacity="0"/>
<stop offset="0.0287" stop-color="#E9D6F7" stop-opacity="0.029"/>
<stop offset="0.2203" stop-color="#C5B5DE" stop-opacity="0.22"/>
<stop offset="0.4138" stop-color="#AA9BCB" stop-opacity="0.414"/>
<stop offset="0.6078" stop-color="#9688BD" stop-opacity="0.608"/>
<stop offset="0.8028" stop-color="#8A7DB5" stop-opacity="0.803"/>
<stop offset="1" stop-color="#8679B2"/>
</linearGradient>
<linearGradient id="paint17_linear_343_6559" x1="125.939" y1="108.683" x2="87.7407" y2="85.8019" gradientUnits="userSpaceOnUse">
<stop stop-color="#EFDCFB" stop-opacity="0"/>
<stop offset="0.0287" stop-color="#E9D6F7" stop-opacity="0.029"/>
<stop offset="0.2203" stop-color="#C5B5DE" stop-opacity="0.22"/>
<stop offset="0.4138" stop-color="#AA9BCB" stop-opacity="0.414"/>
<stop offset="0.6078" stop-color="#9688BD" stop-opacity="0.608"/>
<stop offset="0.8028" stop-color="#8A7DB5" stop-opacity="0.803"/>
<stop offset="1" stop-color="#8679B2"/>
</linearGradient>
<linearGradient id="paint18_linear_343_6559" x1="120.223" y1="78.3604" x2="-32.1974" y2="56.226" gradientUnits="userSpaceOnUse">
<stop stop-color="#EFDCFB" stop-opacity="0"/>
<stop offset="0.0287" stop-color="#E9D6F7" stop-opacity="0.029"/>
<stop offset="0.2203" stop-color="#C5B5DE" stop-opacity="0.22"/>
<stop offset="0.4138" stop-color="#AA9BCB" stop-opacity="0.414"/>
<stop offset="0.6078" stop-color="#9688BD" stop-opacity="0.608"/>
<stop offset="0.8028" stop-color="#8A7DB5" stop-opacity="0.803"/>
<stop offset="1" stop-color="#8679B2"/>
</linearGradient>
<linearGradient id="paint19_linear_343_6559" x1="89.7077" y1="71.8381" x2="96.9925" y2="107.141" gradientUnits="userSpaceOnUse">
<stop stop-color="#464F00"/>
<stop offset="0.2883" stop-color="#454518"/>
<stop offset="0.7468" stop-color="#443738"/>
<stop offset="1" stop-color="#433244"/>
</linearGradient>
<linearGradient id="paint20_linear_343_6559" x1="90.2055" y1="37.8558" x2="99.8566" y2="39.1811" gradientUnits="userSpaceOnUse">
<stop stop-color="#EFDCFB" stop-opacity="0"/>
<stop offset="0.0287" stop-color="#E9D6F7" stop-opacity="0.029"/>
<stop offset="0.2203" stop-color="#C5B5DE" stop-opacity="0.22"/>
<stop offset="0.4138" stop-color="#AA9BCB" stop-opacity="0.414"/>
<stop offset="0.6078" stop-color="#9688BD" stop-opacity="0.608"/>
<stop offset="0.8028" stop-color="#8A7DB5" stop-opacity="0.803"/>
<stop offset="1" stop-color="#8679B2"/>
</linearGradient>
<linearGradient id="paint21_linear_343_6559" x1="89.2897" y1="31.5842" x2="96.9089" y2="32.6304" gradientUnits="userSpaceOnUse">
<stop stop-color="#EFDCFB" stop-opacity="0"/>
<stop offset="0.0287" stop-color="#E9D6F7" stop-opacity="0.029"/>
<stop offset="0.2203" stop-color="#C5B5DE" stop-opacity="0.22"/>
<stop offset="0.4138" stop-color="#AA9BCB" stop-opacity="0.414"/>
<stop offset="0.6078" stop-color="#9688BD" stop-opacity="0.608"/>
<stop offset="0.8028" stop-color="#8A7DB5" stop-opacity="0.803"/>
<stop offset="1" stop-color="#8679B2"/>
</linearGradient>
<linearGradient id="paint22_linear_343_6559" x1="84.6293" y1="36.2211" x2="89.2228" y2="36.852" gradientUnits="userSpaceOnUse">
<stop stop-color="#EFDCFB" stop-opacity="0"/>
<stop offset="0.0287" stop-color="#E9D6F7" stop-opacity="0.029"/>
<stop offset="0.2203" stop-color="#C5B5DE" stop-opacity="0.22"/>
<stop offset="0.4138" stop-color="#AA9BCB" stop-opacity="0.414"/>
<stop offset="0.6078" stop-color="#9688BD" stop-opacity="0.608"/>
<stop offset="0.8028" stop-color="#8A7DB5" stop-opacity="0.803"/>
<stop offset="1" stop-color="#8679B2"/>
</linearGradient>
<linearGradient id="paint23_linear_343_6559" x1="140.267" y1="89.9705" x2="135.008" y2="81.765" gradientUnits="userSpaceOnUse">
<stop stop-color="#EFDCFB" stop-opacity="0"/>
<stop offset="0.0287" stop-color="#E9D6F7" stop-opacity="0.029"/>
<stop offset="0.2203" stop-color="#C5B5DE" stop-opacity="0.22"/>
<stop offset="0.4138" stop-color="#AA9BCB" stop-opacity="0.414"/>
<stop offset="0.6078" stop-color="#9688BD" stop-opacity="0.608"/>
<stop offset="0.8028" stop-color="#8A7DB5" stop-opacity="0.803"/>
<stop offset="1" stop-color="#8679B2"/>
</linearGradient>
<linearGradient id="paint24_linear_343_6559" x1="136.089" y1="94.7394" x2="131.938" y2="88.2617" gradientUnits="userSpaceOnUse">
<stop stop-color="#EFDCFB" stop-opacity="0"/>
<stop offset="0.0287" stop-color="#E9D6F7" stop-opacity="0.029"/>
<stop offset="0.2203" stop-color="#C5B5DE" stop-opacity="0.22"/>
<stop offset="0.4138" stop-color="#AA9BCB" stop-opacity="0.414"/>
<stop offset="0.6078" stop-color="#9688BD" stop-opacity="0.608"/>
<stop offset="0.8028" stop-color="#8A7DB5" stop-opacity="0.803"/>
<stop offset="1" stop-color="#8679B2"/>
</linearGradient>
<linearGradient id="paint25_linear_343_6559" x1="142.643" y1="95.275" x2="140.141" y2="91.3699" gradientUnits="userSpaceOnUse">
<stop stop-color="#EFDCFB" stop-opacity="0"/>
<stop offset="0.0287" stop-color="#E9D6F7" stop-opacity="0.029"/>
<stop offset="0.2203" stop-color="#C5B5DE" stop-opacity="0.22"/>
<stop offset="0.4138" stop-color="#AA9BCB" stop-opacity="0.414"/>
<stop offset="0.6078" stop-color="#9688BD" stop-opacity="0.608"/>
<stop offset="0.8028" stop-color="#8A7DB5" stop-opacity="0.803"/>
<stop offset="1" stop-color="#8679B2"/>
</linearGradient>
<linearGradient id="paint26_linear_343_6559" x1="83.5479" y1="43.6682" x2="87.5775" y2="49.6361" gradientUnits="userSpaceOnUse">
<stop stop-color="#EFDCFB" stop-opacity="0"/>
<stop offset="0.0287" stop-color="#E9D6F7" stop-opacity="0.029"/>
<stop offset="0.2203" stop-color="#C5B5DE" stop-opacity="0.22"/>
<stop offset="0.4138" stop-color="#AA9BCB" stop-opacity="0.414"/>
<stop offset="0.6078" stop-color="#9688BD" stop-opacity="0.608"/>
<stop offset="0.8028" stop-color="#8A7DB5" stop-opacity="0.803"/>
<stop offset="1" stop-color="#8679B2"/>
</linearGradient>
<linearGradient id="paint27_linear_343_6559" x1="86.5503" y1="40.0713" x2="89.7315" y2="44.7826" gradientUnits="userSpaceOnUse">
<stop stop-color="#EFDCFB" stop-opacity="0"/>
<stop offset="0.0287" stop-color="#E9D6F7" stop-opacity="0.029"/>
<stop offset="0.2203" stop-color="#C5B5DE" stop-opacity="0.22"/>
<stop offset="0.4138" stop-color="#AA9BCB" stop-opacity="0.414"/>
<stop offset="0.6078" stop-color="#9688BD" stop-opacity="0.608"/>
<stop offset="0.8028" stop-color="#8A7DB5" stop-opacity="0.803"/>
<stop offset="1" stop-color="#8679B2"/>
</linearGradient>
<linearGradient id="paint28_linear_343_6559" x1="81.6984" y1="39.7917" x2="83.6161" y2="42.6321" gradientUnits="userSpaceOnUse">
<stop stop-color="#EFDCFB" stop-opacity="0"/>
<stop offset="0.0287" stop-color="#E9D6F7" stop-opacity="0.029"/>
<stop offset="0.2203" stop-color="#C5B5DE" stop-opacity="0.22"/>
<stop offset="0.4138" stop-color="#AA9BCB" stop-opacity="0.414"/>
<stop offset="0.6078" stop-color="#9688BD" stop-opacity="0.608"/>
<stop offset="0.8028" stop-color="#8A7DB5" stop-opacity="0.803"/>
<stop offset="1" stop-color="#8679B2"/>
</linearGradient>
<linearGradient id="paint29_linear_343_6559" x1="88.5269" y1="57.0013" x2="82.3769" y2="100.237" gradientUnits="userSpaceOnUse">
<stop stop-color="#F8F6FB"/>
<stop offset="1" stop-color="#EFDCFB"/>
</linearGradient>
<linearGradient id="paint30_linear_343_6559" x1="30.0674" y1="60.3698" x2="63.4324" y2="113.265" gradientUnits="userSpaceOnUse">
<stop stop-color="#F8F6FB"/>
<stop offset="1" stop-color="#EFDCFB"/>
</linearGradient>
<linearGradient id="paint31_linear_343_6559" x1="63.6501" y1="105.557" x2="63.6501" y2="127.051" gradientUnits="userSpaceOnUse">
<stop stop-color="#EFDCFB" stop-opacity="0"/>
<stop offset="0.0287" stop-color="#E9D6F7" stop-opacity="0.029"/>
<stop offset="0.2203" stop-color="#C5B5DE" stop-opacity="0.22"/>
<stop offset="0.4138" stop-color="#AA9BCB" stop-opacity="0.414"/>
<stop offset="0.6078" stop-color="#9688BD" stop-opacity="0.608"/>
<stop offset="0.8028" stop-color="#8A7DB5" stop-opacity="0.803"/>
<stop offset="1" stop-color="#8679B2"/>
</linearGradient>
<linearGradient id="paint32_linear_343_6559" x1="90.0603" y1="122.637" x2="51.8618" y2="99.7548" gradientUnits="userSpaceOnUse">
<stop stop-color="#EFDCFB" stop-opacity="0"/>
<stop offset="0.0287" stop-color="#E9D6F7" stop-opacity="0.029"/>
<stop offset="0.2203" stop-color="#C5B5DE" stop-opacity="0.22"/>
<stop offset="0.4138" stop-color="#AA9BCB" stop-opacity="0.414"/>
<stop offset="0.6078" stop-color="#9688BD" stop-opacity="0.608"/>
<stop offset="0.8028" stop-color="#8A7DB5" stop-opacity="0.803"/>
<stop offset="1" stop-color="#8679B2"/>
</linearGradient>
<linearGradient id="paint33_linear_343_6559" x1="53.8288" y1="85.791" x2="61.1135" y2="121.094" gradientUnits="userSpaceOnUse">
<stop stop-color="#464F00"/>
<stop offset="0.2883" stop-color="#454518"/>
<stop offset="0.7468" stop-color="#443738"/>
<stop offset="1" stop-color="#433244"/>
</linearGradient>
<linearGradient id="paint34_linear_343_6559" x1="52.529" y1="55.1339" x2="42.8779" y2="53.8086" gradientUnits="userSpaceOnUse">
<stop stop-color="#EFDCFB" stop-opacity="0"/>
<stop offset="0.0287" stop-color="#E9D6F7" stop-opacity="0.029"/>
<stop offset="0.2203" stop-color="#C5B5DE" stop-opacity="0.22"/>
<stop offset="0.4138" stop-color="#AA9BCB" stop-opacity="0.414"/>
<stop offset="0.6078" stop-color="#9688BD" stop-opacity="0.608"/>
<stop offset="0.8028" stop-color="#8A7DB5" stop-opacity="0.803"/>
<stop offset="1" stop-color="#8679B2"/>
</linearGradient>
<linearGradient id="paint35_linear_343_6559" x1="53.4444" y1="61.4055" x2="45.8254" y2="60.3594" gradientUnits="userSpaceOnUse">
<stop stop-color="#EFDCFB" stop-opacity="0"/>
<stop offset="0.0287" stop-color="#E9D6F7" stop-opacity="0.029"/>
<stop offset="0.2203" stop-color="#C5B5DE" stop-opacity="0.22"/>
<stop offset="0.4138" stop-color="#AA9BCB" stop-opacity="0.414"/>
<stop offset="0.6078" stop-color="#9688BD" stop-opacity="0.608"/>
<stop offset="0.8028" stop-color="#8A7DB5" stop-opacity="0.803"/>
<stop offset="1" stop-color="#8679B2"/>
</linearGradient>
<linearGradient id="paint36_linear_343_6559" x1="58.1047" y1="56.7684" x2="53.5112" y2="56.1376" gradientUnits="userSpaceOnUse">
<stop stop-color="#EFDCFB" stop-opacity="0"/>
<stop offset="0.0287" stop-color="#E9D6F7" stop-opacity="0.029"/>
<stop offset="0.2203" stop-color="#C5B5DE" stop-opacity="0.22"/>
<stop offset="0.4138" stop-color="#AA9BCB" stop-opacity="0.414"/>
<stop offset="0.6078" stop-color="#9688BD" stop-opacity="0.608"/>
<stop offset="0.8028" stop-color="#8A7DB5" stop-opacity="0.803"/>
<stop offset="1" stop-color="#8679B2"/>
</linearGradient>
<linearGradient id="paint37_linear_343_6559" x1="104.371" y1="103.934" x2="99.1126" y2="95.7292" gradientUnits="userSpaceOnUse">
<stop stop-color="#EFDCFB" stop-opacity="0"/>
<stop offset="0.0287" stop-color="#E9D6F7" stop-opacity="0.029"/>
<stop offset="0.2203" stop-color="#C5B5DE" stop-opacity="0.22"/>
<stop offset="0.4138" stop-color="#AA9BCB" stop-opacity="0.414"/>
<stop offset="0.6078" stop-color="#9688BD" stop-opacity="0.608"/>
<stop offset="0.8028" stop-color="#8A7DB5" stop-opacity="0.803"/>
<stop offset="1" stop-color="#8679B2"/>
</linearGradient>
<linearGradient id="paint38_linear_343_6559" x1="100.193" y1="108.704" x2="96.0416" y2="102.226" gradientUnits="userSpaceOnUse">
<stop stop-color="#EFDCFB" stop-opacity="0"/>
<stop offset="0.0287" stop-color="#E9D6F7" stop-opacity="0.029"/>
<stop offset="0.2203" stop-color="#C5B5DE" stop-opacity="0.22"/>
<stop offset="0.4138" stop-color="#AA9BCB" stop-opacity="0.414"/>
<stop offset="0.6078" stop-color="#9688BD" stop-opacity="0.608"/>
<stop offset="0.8028" stop-color="#8A7DB5" stop-opacity="0.803"/>
<stop offset="1" stop-color="#8679B2"/>
</linearGradient>
<linearGradient id="paint39_linear_343_6559" x1="106.747" y1="109.239" x2="104.245" y2="105.334" gradientUnits="userSpaceOnUse">
<stop stop-color="#EFDCFB" stop-opacity="0"/>
<stop offset="0.0287" stop-color="#E9D6F7" stop-opacity="0.029"/>
<stop offset="0.2203" stop-color="#C5B5DE" stop-opacity="0.22"/>
<stop offset="0.4138" stop-color="#AA9BCB" stop-opacity="0.414"/>
<stop offset="0.6078" stop-color="#9688BD" stop-opacity="0.608"/>
<stop offset="0.8028" stop-color="#8A7DB5" stop-opacity="0.803"/>
<stop offset="1" stop-color="#8679B2"/>
</linearGradient>
<linearGradient id="paint40_linear_343_6559" x1="59.1799" y1="49.3462" x2="55.1503" y2="43.3783" gradientUnits="userSpaceOnUse">
<stop stop-color="#EFDCFB" stop-opacity="0"/>
<stop offset="0.0287" stop-color="#E9D6F7" stop-opacity="0.029"/>
<stop offset="0.2203" stop-color="#C5B5DE" stop-opacity="0.22"/>
<stop offset="0.4138" stop-color="#AA9BCB" stop-opacity="0.414"/>
<stop offset="0.6078" stop-color="#9688BD" stop-opacity="0.608"/>
<stop offset="0.8028" stop-color="#8A7DB5" stop-opacity="0.803"/>
<stop offset="1" stop-color="#8679B2"/>
</linearGradient>
<linearGradient id="paint41_linear_343_6559" x1="56.1774" y1="52.9433" x2="52.9965" y2="48.232" gradientUnits="userSpaceOnUse">
<stop stop-color="#EFDCFB" stop-opacity="0"/>
<stop offset="0.0287" stop-color="#E9D6F7" stop-opacity="0.029"/>
<stop offset="0.2203" stop-color="#C5B5DE" stop-opacity="0.22"/>
<stop offset="0.4138" stop-color="#AA9BCB" stop-opacity="0.414"/>
<stop offset="0.6078" stop-color="#9688BD" stop-opacity="0.608"/>
<stop offset="0.8028" stop-color="#8A7DB5" stop-opacity="0.803"/>
<stop offset="1" stop-color="#8679B2"/>
</linearGradient>
<linearGradient id="paint42_linear_343_6559" x1="61.0292" y1="53.223" x2="59.1112" y2="50.3826" gradientUnits="userSpaceOnUse">
<stop stop-color="#EFDCFB" stop-opacity="0"/>
<stop offset="0.0287" stop-color="#E9D6F7" stop-opacity="0.029"/>
<stop offset="0.2203" stop-color="#C5B5DE" stop-opacity="0.22"/>
<stop offset="0.4138" stop-color="#AA9BCB" stop-opacity="0.414"/>
<stop offset="0.6078" stop-color="#9688BD" stop-opacity="0.608"/>
<stop offset="0.8028" stop-color="#8A7DB5" stop-opacity="0.803"/>
<stop offset="1" stop-color="#8679B2"/>
</linearGradient>
</defs>
</svg>
