<svg width="150" height="132" viewBox="0 0 150 132" fill="none" xmlns="http://www.w3.org/2000/svg">
<path d="M75.0001 121.483C56.4037 121.483 39.3372 119.649 25.9692 116.593C27.8925 121.658 31.5057 125.488 35.961 126.714C46.0163 129.481 59.7966 131.188 75.0001 131.188C90.2037 131.188 103.984 129.481 114.039 126.714C118.495 125.488 122.108 121.658 124.031 116.593C110.663 119.649 93.5966 121.483 75.0001 121.483V121.483Z" fill="url(#paint0_linear_343_6329)"/>
<path d="M150 107.119C150 132.831 0 132.831 0 107.119C0 81.4064 150 81.4064 150 107.119Z" fill="url(#paint1_linear_343_6329)"/>
<path d="M139.706 105.233C139.706 123.565 10.2939 123.565 10.2939 105.233C10.2939 86.9014 139.706 86.9014 139.706 105.233Z" fill="url(#paint2_linear_343_6329)"/>
<path d="M150 107.119C150 86.8099 56.4233 82.5423 17.0915 94.3152C17.1918 94.432 17.2927 94.5485 17.4015 94.6632C15.3412 96.2905 14.1953 98.1126 14.1953 100.131C14.1953 102.018 15.1965 103.733 17.0091 105.279L35.5288 123.798C79.885 130.258 150 124.699 150 107.119V107.119Z" fill="url(#paint3_linear_343_6329)"/>
<path d="M135.806 100.131C135.806 120.977 14.1963 120.977 14.1963 100.131C14.1963 79.2854 135.806 79.2854 135.806 100.131Z" fill="url(#paint4_linear_343_6329)"/>
<g opacity="0.6">
<g opacity="0.6">
<path opacity="0.6" d="M116.137 95.7493C117.248 95.7493 118.147 94.6393 118.147 93.2701C118.147 91.901 117.248 90.791 116.137 90.791C115.027 90.791 114.127 91.901 114.127 93.2701C114.127 94.6393 115.027 95.7493 116.137 95.7493Z" fill="url(#paint5_linear_343_6329)"/>
<path opacity="0.6" d="M112.406 101.639C113.282 101.639 113.992 100.762 113.992 99.6812C113.992 98.6002 113.282 97.7239 112.406 97.7239C111.529 97.7239 110.819 98.6002 110.819 99.6812C110.819 100.762 111.529 101.639 112.406 101.639Z" fill="url(#paint6_linear_343_6329)"/>
<path opacity="0.6" d="M119.322 102.504C119.85 102.504 120.279 101.975 120.279 101.324C120.279 100.672 119.85 100.144 119.322 100.144C118.794 100.144 118.365 100.672 118.365 101.324C118.365 101.975 118.794 102.504 119.322 102.504Z" fill="url(#paint7_linear_343_6329)"/>
</g>
<g opacity="0.6">
<path opacity="0.6" d="M126.766 96.9708C127.586 96.9708 128.251 96.1505 128.251 95.1387C128.251 94.1269 127.586 93.3066 126.766 93.3066C125.945 93.3066 125.28 94.1269 125.28 95.1387C125.28 96.1505 125.945 96.9708 126.766 96.9708Z" fill="url(#paint8_linear_343_6329)"/>
<path opacity="0.6" d="M122.064 97.208C122.712 97.208 123.237 96.5605 123.237 95.7618C123.237 94.9631 122.712 94.3157 122.064 94.3157C121.417 94.3157 120.892 94.9631 120.892 95.7618C120.892 96.5605 121.417 97.208 122.064 97.208Z" fill="url(#paint9_linear_343_6329)"/>
<path opacity="0.6" d="M124.739 102.142C125.129 102.142 125.446 101.751 125.446 101.27C125.446 100.788 125.129 100.397 124.739 100.397C124.349 100.397 124.032 100.788 124.032 101.27C124.032 101.751 124.349 102.142 124.739 102.142Z" fill="url(#paint10_linear_343_6329)"/>
</g>
</g>
<path d="M135.805 100.131C135.805 95.3486 129.401 91.6642 119.536 89.0759H30.4644C20.5994 91.6639 14.1953 95.3486 14.1953 100.131C14.1956 120.977 135.805 120.977 135.805 100.131V100.131Z" fill="url(#paint11_linear_343_6329)"/>
<path d="M135.806 89.0761C135.806 109.922 14.1963 109.922 14.1963 89.0761C14.1963 68.2302 135.806 68.2302 135.806 89.0761Z" fill="url(#paint12_linear_343_6329)"/>
<path d="M135.805 89.076C135.805 84.2934 129.401 80.609 119.536 78.0208H30.4644C20.5994 80.6087 14.1953 84.2934 14.1953 89.0758C14.1956 109.922 135.805 109.922 135.805 89.076V89.076Z" fill="url(#paint13_linear_343_6329)"/>
<g opacity="0.6">
<g opacity="0.6">
<path opacity="0.6" d="M35.427 92.9579C36.5371 92.9579 37.437 92.0958 37.437 91.0323C37.437 89.9688 36.5371 89.1067 35.427 89.1067C34.3169 89.1067 33.417 89.9688 33.417 91.0323C33.417 92.0958 34.3169 92.9579 35.427 92.9579Z" fill="url(#paint14_linear_343_6329)"/>
<path opacity="0.6" d="M31.6947 97.5317C32.571 97.5317 33.2814 96.8512 33.2814 96.0117C33.2814 95.1722 32.571 94.4917 31.6947 94.4917C30.8183 94.4917 30.1079 95.1722 30.1079 96.0117C30.1079 96.8512 30.8183 97.5317 31.6947 97.5317Z" fill="url(#paint15_linear_343_6329)"/>
<path opacity="0.6" d="M38.6116 98.2038C39.14 98.2038 39.5683 97.7935 39.5683 97.2873C39.5683 96.7812 39.14 96.3708 38.6116 96.3708C38.0831 96.3708 37.6548 96.7812 37.6548 97.2873C37.6548 97.7935 38.0831 98.2038 38.6116 98.2038Z" fill="url(#paint16_linear_343_6329)"/>
</g>
<g opacity="0.6">
<path opacity="0.6" d="M46.0546 93.9064C46.8749 93.9064 47.5399 93.2694 47.5399 92.4835C47.5399 91.6976 46.8749 91.0605 46.0546 91.0605C45.2343 91.0605 44.5693 91.6976 44.5693 92.4835C44.5693 93.2694 45.2343 93.9064 46.0546 93.9064Z" fill="url(#paint17_linear_343_6329)"/>
<path opacity="0.6" d="M41.3533 94.0907C42.0009 94.0907 42.526 93.5878 42.526 92.9675C42.526 92.3471 42.0009 91.8442 41.3533 91.8442C40.7057 91.8442 40.1807 92.3471 40.1807 92.9675C40.1807 93.5878 40.7057 94.0907 41.3533 94.0907Z" fill="url(#paint18_linear_343_6329)"/>
<path opacity="0.6" d="M44.0276 97.9222C44.4179 97.9222 44.7343 97.6191 44.7343 97.2452C44.7343 96.8712 44.4179 96.5681 44.0276 96.5681C43.6372 96.5681 43.3208 96.8712 43.3208 97.2452C43.3208 97.6191 43.6372 97.9222 44.0276 97.9222Z" fill="url(#paint19_linear_343_6329)"/>
</g>
</g>
<path d="M135.806 78.0209C135.806 98.8668 14.1963 98.8668 14.1963 78.0209C14.1963 57.175 135.806 57.175 135.806 78.0209Z" fill="url(#paint20_linear_343_6329)"/>
<path d="M135.805 78.0209C135.805 73.2382 129.401 69.5538 119.536 66.9656H30.4644C20.5994 69.5535 14.1953 73.2382 14.1953 78.0206C14.1956 98.8668 135.805 98.8668 135.805 78.0209V78.0209Z" fill="url(#paint21_linear_343_6329)"/>
<g opacity="0.6">
<g opacity="0.6">
<path opacity="0.6" d="M78.4441 85.2513C79.5542 85.2513 80.4541 84.3892 80.4541 83.3257C80.4541 82.2623 79.5542 81.4001 78.4441 81.4001C77.334 81.4001 76.4341 82.2623 76.4341 83.3257C76.4341 84.3892 77.334 85.2513 78.4441 85.2513Z" fill="url(#paint22_linear_343_6329)"/>
<path opacity="0.6" d="M74.7118 89.8249C75.5881 89.8249 76.2985 89.1444 76.2985 88.3049C76.2985 87.4654 75.5881 86.7849 74.7118 86.7849C73.8354 86.7849 73.125 87.4654 73.125 88.3049C73.125 89.1444 73.8354 89.8249 74.7118 89.8249Z" fill="url(#paint23_linear_343_6329)"/>
<path opacity="0.6" d="M81.6286 90.497C82.157 90.497 82.5854 90.0867 82.5854 89.5805C82.5854 89.0744 82.157 88.6641 81.6286 88.6641C81.1002 88.6641 80.6719 89.0744 80.6719 89.5805C80.6719 90.0867 81.1002 90.497 81.6286 90.497Z" fill="url(#paint24_linear_343_6329)"/>
</g>
</g>
<path d="M135.806 66.9657C135.806 87.8116 14.1963 87.8116 14.1963 66.9657C14.1963 46.1198 135.806 46.1198 135.806 66.9657Z" fill="url(#paint25_linear_343_6329)"/>
<path d="M135.805 66.9657C135.805 62.1831 129.401 58.4986 119.536 55.9104H30.4644C20.5994 58.4983 14.1953 62.183 14.1953 66.9654C14.1956 87.8116 135.805 87.8116 135.805 66.9657Z" fill="url(#paint26_linear_343_6329)"/>
<g opacity="0.6">
<g opacity="0.6">
<path opacity="0.6" d="M126.765 64.6758C127.585 64.6758 128.25 63.9846 128.25 63.132C128.25 62.2793 127.585 61.5881 126.765 61.5881C125.945 61.5881 125.28 62.2793 125.28 63.132C125.28 63.9846 125.945 64.6758 126.765 64.6758Z" fill="url(#paint27_linear_343_6329)"/>
<path opacity="0.6" d="M122.064 64.8758C122.711 64.8758 123.236 64.3302 123.236 63.6573C123.236 62.9843 122.711 62.4387 122.064 62.4387C121.416 62.4387 120.891 62.9843 120.891 63.6573C120.891 64.3302 121.416 64.8758 122.064 64.8758Z" fill="url(#paint28_linear_343_6329)"/>
<path opacity="0.6" d="M124.739 69.0329C125.129 69.0329 125.445 68.7039 125.445 68.2982C125.445 67.8924 125.129 67.5635 124.739 67.5635C124.348 67.5635 124.032 67.8924 124.032 68.2982C124.032 68.7039 124.348 69.0329 124.739 69.0329Z" fill="url(#paint29_linear_343_6329)"/>
</g>
</g>
<path d="M135.806 55.9105C135.806 76.7564 14.1963 76.7564 14.1963 55.9105C14.1963 35.0647 135.806 35.0647 135.806 55.9105Z" fill="url(#paint30_linear_343_6329)"/>
<path d="M135.805 55.9105C135.805 51.1279 129.401 47.4435 119.536 44.8552H30.4644C20.5994 47.4432 14.1953 51.1279 14.1953 55.9102C14.1956 76.7564 135.805 76.7564 135.805 55.9105Z" fill="url(#paint31_linear_343_6329)"/>
<path d="M135.806 44.8555C135.806 65.7014 14.1963 65.7014 14.1963 44.8555C14.1963 24.0096 135.806 24.0093 135.806 44.8555Z" fill="url(#paint32_linear_343_6329)"/>
<g opacity="0.6">
<g opacity="0.6">
<path opacity="0.6" d="M116.137 40.4731C117.248 40.4731 118.147 39.3632 118.147 37.994C118.147 36.6248 117.248 35.5149 116.137 35.5149C115.027 35.5149 114.127 36.6248 114.127 37.994C114.127 39.3632 115.027 40.4731 116.137 40.4731Z" fill="url(#paint33_linear_343_6329)"/>
<path opacity="0.6" d="M112.406 46.3625C113.282 46.3625 113.992 45.4861 113.992 44.4051C113.992 43.3241 113.282 42.4478 112.406 42.4478C111.529 42.4478 110.819 43.3241 110.819 44.4051C110.819 45.4861 111.529 46.3625 112.406 46.3625Z" fill="url(#paint34_linear_343_6329)"/>
<path opacity="0.6" d="M119.322 47.2277C119.85 47.2277 120.279 46.6994 120.279 46.0477C120.279 45.396 119.85 44.8677 119.322 44.8677C118.794 44.8677 118.365 45.396 118.365 46.0477C118.365 46.6994 118.794 47.2277 119.322 47.2277Z" fill="url(#paint35_linear_343_6329)"/>
</g>
<g opacity="0.6">
<path opacity="0.6" d="M126.766 41.6946C127.586 41.6946 128.251 40.8744 128.251 39.8626C128.251 38.8508 127.586 38.0305 126.766 38.0305C125.945 38.0305 125.28 38.8508 125.28 39.8626C125.28 40.8744 125.945 41.6946 126.766 41.6946Z" fill="url(#paint36_linear_343_6329)"/>
<path opacity="0.6" d="M122.064 41.9321C122.712 41.9321 123.237 41.2847 123.237 40.486C123.237 39.6873 122.712 39.0398 122.064 39.0398C121.417 39.0398 120.892 39.6873 120.892 40.486C120.892 41.2847 121.417 41.9321 122.064 41.9321Z" fill="url(#paint37_linear_343_6329)"/>
<path opacity="0.6" d="M124.739 46.8655C125.129 46.8655 125.446 46.475 125.446 45.9934C125.446 45.5118 125.129 45.1213 124.739 45.1213C124.349 45.1213 124.032 45.5118 124.032 45.9934C124.032 46.475 124.349 46.8655 124.739 46.8655Z" fill="url(#paint38_linear_343_6329)"/>
</g>
</g>
<path d="M135.805 44.8556C135.805 40.0729 129.401 36.3885 119.536 33.8003H30.4644C20.5994 36.3882 14.1953 40.0729 14.1953 44.8553C14.1956 65.7015 135.805 65.7015 135.805 44.8556Z" fill="url(#paint39_linear_343_6329)"/>
<path d="M135.805 100.131C135.805 98.0878 134.633 96.2461 132.525 94.6034C134.632 92.9608 135.805 91.119 135.805 89.0758C135.805 87.0325 134.633 85.1908 132.525 83.5484C134.632 81.9058 135.805 80.064 135.805 78.0208C135.805 75.9775 134.633 74.1358 132.525 72.4934C134.632 70.8508 135.805 69.009 135.805 66.9658C135.805 64.9228 134.633 63.0807 132.525 61.4384C134.632 59.7957 135.805 57.954 135.805 55.9108C135.805 53.8675 134.633 52.0258 132.525 50.3834C134.632 48.7408 135.805 46.899 135.805 44.8557C135.805 27.6678 53.1318 24.6525 24.1177 35.8087V66.9116C24.1177 68.6963 25.0036 70.2713 26.3571 71.2305L70.86 115.733C102.578 116.228 135.805 111.028 135.805 100.131V100.131Z" fill="url(#paint40_linear_343_6329)"/>
<path d="M135.805 44.8556C135.805 33.2167 97.8975 28.0773 64.4116 29.4353V94.3115C64.4116 96.0759 65.2769 97.6329 66.6019 98.5947L83.631 115.624C110.9 114.729 135.805 109.565 135.805 100.131C135.805 98.0885 134.633 96.2465 132.525 94.6041C134.632 92.9615 135.805 91.1197 135.805 89.0765C135.805 87.0332 134.633 85.1915 132.525 83.5491C134.632 81.9065 135.805 80.0647 135.805 78.0214C135.805 75.9782 134.633 74.1364 132.525 72.4941C134.632 70.8514 135.805 69.0097 135.805 66.9665C135.805 64.9235 134.633 63.0814 132.525 61.4391C134.632 59.7964 135.805 57.9547 135.805 55.9114C135.805 53.8682 134.633 52.0264 132.525 50.3841C134.632 48.7406 135.805 46.8985 135.805 44.8556V44.8556Z" fill="url(#paint41_linear_343_6329)"/>
<path d="M135.805 100.131C135.805 98.0879 134.633 96.2461 132.525 94.6035C134.632 92.9608 135.805 91.119 135.805 89.0758C135.805 87.0326 134.633 85.1908 132.525 83.5485C134.632 81.9058 135.805 80.064 135.805 78.0208C135.805 75.9776 134.633 74.1358 132.525 72.4934C134.632 70.8508 135.805 69.009 135.805 66.9658C135.805 64.9229 134.633 63.0808 132.525 61.4384C134.632 59.7958 135.805 57.954 135.805 55.9108C135.805 53.8676 134.633 52.0258 132.525 50.3834C134.632 48.7408 135.805 46.899 135.805 44.8558C135.805 35.2158 109.8 30.0346 81.8413 29.3108V63.0058C81.8413 64.704 82.6442 66.2117 83.8878 67.1805L125.885 109.178C132.059 106.804 135.805 103.789 135.805 100.131Z" fill="url(#paint42_linear_343_6329)"/>
<path d="M135.805 66.9656C135.805 64.9227 134.633 63.0806 132.525 61.4382C134.632 59.7956 135.805 57.9538 135.805 55.9106C135.805 53.8674 134.633 52.0256 132.525 50.3832C134.632 48.7406 135.805 46.8988 135.805 44.8556C135.805 39.6391 128.188 35.7291 116.77 33.1235V49.7665C116.77 51.3662 117.482 52.7968 118.604 53.7677L134.862 70.0256C135.477 69.0609 135.805 68.0415 135.805 66.9656V66.9656Z" fill="url(#paint43_linear_343_6329)"/>
<path d="M135.805 33.8002C135.805 12.9543 14.1953 12.9543 14.1953 33.8002C14.1953 36.8208 16.7512 39.4031 21.1188 41.5481C22.9444 42.4446 24.1177 44.284 24.1177 46.3181V66.9111C24.1177 69.8349 26.488 72.2052 29.4118 72.2052C32.3356 72.2052 34.7059 69.8349 34.7059 66.9111V58.7725C34.7059 52.1711 40.48 47.067 47.0338 47.8596C49.4053 48.1464 51.8494 48.394 54.3462 48.6025C60.0377 49.0778 64.4118 53.8455 64.4118 59.557V94.3126C64.4118 97.2364 66.7821 99.6067 69.7059 99.6067C72.6297 99.6067 75 97.2364 75 94.3126V61.3349C75 59.4461 76.5312 57.9146 78.4203 57.9146C80.3091 57.9146 81.8406 59.4458 81.8406 61.3349V63.004C81.8406 65.9278 84.2109 68.2981 87.1347 68.2981C90.0586 68.2981 92.4288 65.9278 92.4288 63.004V60.709C92.4288 54.1102 97.3538 48.5717 103.901 47.7449C106.969 47.3572 109.91 46.9031 112.679 46.382C114.804 45.982 116.769 47.604 116.769 49.7664C116.769 52.6902 119.14 55.0605 122.064 55.0605C124.987 55.0605 127.358 52.6902 127.358 49.7664V49.7352C127.358 45.6414 129.317 41.8358 132.543 39.3155C134.641 37.6764 135.805 35.8381 135.805 33.8002Z" fill="url(#paint44_radial_343_6329)"/>
<path d="M135.806 33.7996C135.806 35.8378 134.641 37.676 132.544 39.3172C129.317 41.8349 127.359 45.6408 127.359 49.7349V49.7672C127.359 49.9319 127.35 50.0966 127.335 50.2584C127.22 51.5231 126.656 52.6613 125.809 53.5113C124.85 54.4702 123.526 55.0613 122.064 55.0613C120.6 55.0613 119.276 54.4702 118.32 53.5113C117.362 52.5525 116.77 51.229 116.77 49.7672C116.77 47.6025 114.803 45.9819 112.679 46.3819C109.909 46.9025 106.97 47.3584 103.9 47.7437C99.8527 48.2555 96.4233 50.5672 94.3968 53.8202L63.0557 22.479C61.9439 21.5819 61.3116 20.4584 61.391 19.0466C61.3998 18.8702 61.4174 18.6937 61.4439 18.5202C72.9057 17.9143 85.0439 18.0878 96.1145 19.0378C118.053 20.9143 135.806 25.8349 135.806 33.7996V33.7996Z" fill="url(#paint45_linear_343_6329)"/>
<path d="M68.1544 11.9957C70.3208 14.1622 70.3208 17.6745 68.1544 19.8407C65.9879 22.0072 62.4755 22.0072 60.3093 19.8407C58.1429 17.6742 54.9529 10.9719 57.119 8.80541C59.2852 6.63894 65.9882 9.82953 68.1544 11.9957Z" fill="url(#paint46_linear_343_6329)"/>
<path d="M72.0831 11.9829C72.1804 15.417 70.5969 18.2482 68.546 18.3064C66.4951 18.3646 64.7534 15.6279 64.656 12.1935C64.5587 8.75905 65.9987 0.870812 68.0495 0.812577C70.1004 0.754636 71.9857 8.54846 72.0831 11.9829V11.9829Z" fill="url(#paint47_linear_343_6329)"/>
<path d="M79.6057 6.6504C79.2257 6.63746 78.8457 6.67569 78.4769 6.76834C75.5795 7.49451 61.8293 11.3416 61.3916 19.0475C61.119 23.8469 69.0478 25.331 76.1248 25.7039C82.5875 26.0445 88.164 22.5995 88.5425 18.0436C88.9713 12.8833 87.6916 6.92746 79.6057 6.6504V6.6504Z" fill="url(#paint48_linear_343_6329)"/>
<path d="M79.6057 6.6504C79.2257 6.63746 78.8457 6.67569 78.4769 6.76834C75.5796 7.49451 61.8293 11.3416 61.3916 19.0475C61.119 23.8469 69.0478 25.331 76.1249 25.7039C82.5872 26.0445 87.6916 6.92746 79.6057 6.6504V6.6504Z" fill="url(#paint49_linear_343_6329)"/>
<path d="M15.8791 29.7542C14.785 31.0021 14.1953 32.3507 14.1953 33.8001C14.1953 36.8207 16.7512 39.403 21.1185 41.548C22.9441 42.4445 24.1177 44.2839 24.1177 46.318V66.911C24.1177 69.8348 26.488 72.2051 29.4118 72.2051C32.3356 72.2051 34.7059 69.8348 34.7059 66.911V58.7724C34.7059 52.171 40.48 47.0668 47.0338 47.8595C49.4053 48.1463 51.8494 48.3939 54.3462 48.6024C60.0377 49.0777 64.4118 53.8454 64.4118 59.5569V94.3124C64.4118 97.2363 66.7821 99.6066 69.7059 99.6066C72.6297 99.6066 75 97.2363 75 94.3124V61.3348C75 59.446 76.5312 57.9145 78.4203 57.9145C80.3094 57.9145 81.8406 59.4457 81.8406 61.3348V63.0039C81.8406 65.9277 84.2109 68.298 87.1347 68.298C90.0586 68.298 92.4288 65.9277 92.4288 63.0039V60.7089C92.4288 54.1101 97.3538 48.5716 103.901 47.7448C106.969 47.3571 109.91 46.903 112.679 46.3818C114.804 45.9818 116.769 47.6039 116.769 49.7663C116.769 52.6901 119.14 55.0604 122.064 55.0604C124.987 55.0604 127.358 52.6901 127.358 49.7663V49.7351C127.358 45.6413 129.317 41.8357 132.543 39.3154C134.641 37.6763 135.805 35.8377 135.805 33.7998C135.805 32.3504 135.215 31.0018 134.121 29.7539C120.573 45.2051 29.4271 45.2051 15.8791 29.7542V29.7542Z" fill="url(#paint50_linear_343_6329)"/>
<defs>
<linearGradient id="paint0_linear_343_6329" x1="75.2795" y1="121.202" x2="75.8678" y2="130.908" gradientUnits="userSpaceOnUse">
<stop stop-color="#F8F6FB"/>
<stop offset="1" stop-color="#EFDCFB"/>
</linearGradient>
<linearGradient id="paint1_linear_343_6329" x1="70.0727" y1="88.522" x2="81.6277" y2="132.132" gradientUnits="userSpaceOnUse">
<stop stop-color="#F8F6FB"/>
<stop offset="1" stop-color="#EFDCFB"/>
</linearGradient>
<linearGradient id="paint2_linear_343_6329" x1="78.226" y1="131.042" x2="72.6378" y2="86.3361" gradientUnits="userSpaceOnUse">
<stop stop-color="#F8F6FB"/>
<stop offset="1" stop-color="#EFDCFB"/>
</linearGradient>
<linearGradient id="paint3_linear_343_6329" x1="84.4574" y1="121.358" x2="75.6338" y2="54.887" gradientUnits="userSpaceOnUse">
<stop stop-color="#EFDCFB" stop-opacity="0"/>
<stop offset="0.0287" stop-color="#E9D6F7" stop-opacity="0.029"/>
<stop offset="0.2203" stop-color="#C5B5DE" stop-opacity="0.22"/>
<stop offset="0.4138" stop-color="#AA9BCB" stop-opacity="0.414"/>
<stop offset="0.6078" stop-color="#9688BD" stop-opacity="0.608"/>
<stop offset="0.8028" stop-color="#8A7DB5" stop-opacity="0.803"/>
<stop offset="1" stop-color="#8679B2"/>
</linearGradient>
<linearGradient id="paint4_linear_343_6329" x1="71.0063" y1="85.0542" x2="80.3742" y2="120.411" gradientUnits="userSpaceOnUse">
<stop stop-color="#FFDECF"/>
<stop offset="0.3791" stop-color="#FDC4B0"/>
<stop offset="0.7655" stop-color="#FBAE97"/>
<stop offset="1" stop-color="#FAA68E"/>
</linearGradient>
<linearGradient id="paint5_linear_343_6329" x1="118.422" y1="96.2963" x2="112.411" y2="86.9162" gradientUnits="userSpaceOnUse">
<stop stop-color="#F82814" stop-opacity="0"/>
<stop offset="0.2454" stop-color="#F12817" stop-opacity="0.245"/>
<stop offset="0.6052" stop-color="#DD2820" stop-opacity="0.605"/>
<stop offset="1" stop-color="#C0272D"/>
</linearGradient>
<linearGradient id="paint6_linear_343_6329" x1="114.281" y1="102.076" x2="109.536" y2="94.6706" gradientUnits="userSpaceOnUse">
<stop stop-color="#F82814" stop-opacity="0"/>
<stop offset="0.2454" stop-color="#F12817" stop-opacity="0.245"/>
<stop offset="0.6052" stop-color="#DD2820" stop-opacity="0.605"/>
<stop offset="1" stop-color="#C0272D"/>
</linearGradient>
<linearGradient id="paint7_linear_343_6329" x1="120.596" y1="102.773" x2="117.735" y2="98.3081" gradientUnits="userSpaceOnUse">
<stop stop-color="#F82814" stop-opacity="0"/>
<stop offset="0.2454" stop-color="#F12817" stop-opacity="0.245"/>
<stop offset="0.6052" stop-color="#DD2820" stop-opacity="0.605"/>
<stop offset="1" stop-color="#C0272D"/>
</linearGradient>
<linearGradient id="paint8_linear_343_6329" x1="126.254" y1="97.7927" x2="128.547" y2="89.5394" gradientUnits="userSpaceOnUse">
<stop stop-color="#F82814" stop-opacity="0"/>
<stop offset="0.2454" stop-color="#F12817" stop-opacity="0.245"/>
<stop offset="0.6052" stop-color="#DD2820" stop-opacity="0.605"/>
<stop offset="1" stop-color="#C0272D"/>
</linearGradient>
<linearGradient id="paint9_linear_343_6329" x1="121.706" y1="97.8583" x2="123.517" y2="91.3428" gradientUnits="userSpaceOnUse">
<stop stop-color="#F82814" stop-opacity="0"/>
<stop offset="0.2454" stop-color="#F12817" stop-opacity="0.245"/>
<stop offset="0.6052" stop-color="#DD2820" stop-opacity="0.605"/>
<stop offset="1" stop-color="#C0272D"/>
</linearGradient>
<linearGradient id="paint10_linear_343_6329" x1="124.614" y1="102.535" x2="125.706" y2="98.6068" gradientUnits="userSpaceOnUse">
<stop stop-color="#F82814" stop-opacity="0"/>
<stop offset="0.2454" stop-color="#F12817" stop-opacity="0.245"/>
<stop offset="0.6052" stop-color="#DD2820" stop-opacity="0.605"/>
<stop offset="1" stop-color="#C0272D"/>
</linearGradient>
<linearGradient id="paint11_linear_343_6329" x1="75.0003" y1="109.824" x2="75.0003" y2="122.572" gradientUnits="userSpaceOnUse">
<stop stop-color="#F82814" stop-opacity="0"/>
<stop offset="0.2458" stop-color="#F32816" stop-opacity="0.246"/>
<stop offset="0.5506" stop-color="#E3281D" stop-opacity="0.551"/>
<stop offset="0.8853" stop-color="#CA2728" stop-opacity="0.885"/>
<stop offset="1" stop-color="#C0272D"/>
</linearGradient>
<linearGradient id="paint12_linear_343_6329" x1="71.0063" y1="73.999" x2="80.3742" y2="109.355" gradientUnits="userSpaceOnUse">
<stop stop-color="#FFDECF"/>
<stop offset="0.3791" stop-color="#FDC4B0"/>
<stop offset="0.7655" stop-color="#FBAE97"/>
<stop offset="1" stop-color="#FAA68E"/>
</linearGradient>
<linearGradient id="paint13_linear_343_6329" x1="75.0003" y1="99.4313" x2="75.0003" y2="110.412" gradientUnits="userSpaceOnUse">
<stop stop-color="#F82814" stop-opacity="0"/>
<stop offset="0.2458" stop-color="#F32816" stop-opacity="0.246"/>
<stop offset="0.5506" stop-color="#E3281D" stop-opacity="0.551"/>
<stop offset="0.8853" stop-color="#CA2728" stop-opacity="0.885"/>
<stop offset="1" stop-color="#C0272D"/>
</linearGradient>
<linearGradient id="paint14_linear_343_6329" x1="37.339" y1="93.5506" x2="32.3555" y2="85.7737" gradientUnits="userSpaceOnUse">
<stop stop-color="#F82814" stop-opacity="0"/>
<stop offset="0.2454" stop-color="#F12817" stop-opacity="0.245"/>
<stop offset="0.6052" stop-color="#DD2820" stop-opacity="0.605"/>
<stop offset="1" stop-color="#C0272D"/>
</linearGradient>
<linearGradient id="paint15_linear_343_6329" x1="33.268" y1="98.0062" x2="29.3336" y2="91.8668" gradientUnits="userSpaceOnUse">
<stop stop-color="#F82814" stop-opacity="0"/>
<stop offset="0.2454" stop-color="#F12817" stop-opacity="0.245"/>
<stop offset="0.6052" stop-color="#DD2820" stop-opacity="0.605"/>
<stop offset="1" stop-color="#C0272D"/>
</linearGradient>
<linearGradient id="paint16_linear_343_6329" x1="39.6859" y1="98.4975" x2="37.3139" y2="94.7962" gradientUnits="userSpaceOnUse">
<stop stop-color="#F82814" stop-opacity="0"/>
<stop offset="0.2454" stop-color="#F12817" stop-opacity="0.245"/>
<stop offset="0.6052" stop-color="#DD2820" stop-opacity="0.605"/>
<stop offset="1" stop-color="#C0272D"/>
</linearGradient>
<linearGradient id="paint17_linear_343_6329" x1="45.6747" y1="94.5922" x2="47.4837" y2="88.0805" gradientUnits="userSpaceOnUse">
<stop stop-color="#F82814" stop-opacity="0"/>
<stop offset="0.2454" stop-color="#F12817" stop-opacity="0.245"/>
<stop offset="0.6052" stop-color="#DD2820" stop-opacity="0.605"/>
<stop offset="1" stop-color="#C0272D"/>
</linearGradient>
<linearGradient id="paint18_linear_343_6329" x1="41.0943" y1="94.6362" x2="42.5228" y2="89.4958" gradientUnits="userSpaceOnUse">
<stop stop-color="#F82814" stop-opacity="0"/>
<stop offset="0.2454" stop-color="#F12817" stop-opacity="0.245"/>
<stop offset="0.6052" stop-color="#DD2820" stop-opacity="0.605"/>
<stop offset="1" stop-color="#C0272D"/>
</linearGradient>
<linearGradient id="paint19_linear_343_6329" x1="43.9525" y1="98.258" x2="44.8138" y2="95.1587" gradientUnits="userSpaceOnUse">
<stop stop-color="#F82814" stop-opacity="0"/>
<stop offset="0.2454" stop-color="#F12817" stop-opacity="0.245"/>
<stop offset="0.6052" stop-color="#DD2820" stop-opacity="0.605"/>
<stop offset="1" stop-color="#C0272D"/>
</linearGradient>
<linearGradient id="paint20_linear_343_6329" x1="71.0063" y1="62.9438" x2="80.3742" y2="98.3" gradientUnits="userSpaceOnUse">
<stop stop-color="#FFDECF"/>
<stop offset="0.3791" stop-color="#FDC4B0"/>
<stop offset="0.7655" stop-color="#FBAE97"/>
<stop offset="1" stop-color="#FAA68E"/>
</linearGradient>
<linearGradient id="paint21_linear_343_6329" x1="75.0003" y1="87.8626" x2="75.0003" y2="101.59" gradientUnits="userSpaceOnUse">
<stop stop-color="#F82814" stop-opacity="0"/>
<stop offset="0.2458" stop-color="#F32816" stop-opacity="0.246"/>
<stop offset="0.5506" stop-color="#E3281D" stop-opacity="0.551"/>
<stop offset="0.8853" stop-color="#CA2728" stop-opacity="0.885"/>
<stop offset="1" stop-color="#C0272D"/>
</linearGradient>
<linearGradient id="paint22_linear_343_6329" x1="80.3774" y1="85.8352" x2="75.394" y2="78.0582" gradientUnits="userSpaceOnUse">
<stop stop-color="#F82814" stop-opacity="0"/>
<stop offset="0.2454" stop-color="#F12817" stop-opacity="0.245"/>
<stop offset="0.6052" stop-color="#DD2820" stop-opacity="0.605"/>
<stop offset="1" stop-color="#C0272D"/>
</linearGradient>
<linearGradient id="paint23_linear_343_6329" x1="76.3064" y1="90.2909" x2="72.372" y2="84.1514" gradientUnits="userSpaceOnUse">
<stop stop-color="#F82814" stop-opacity="0"/>
<stop offset="0.2454" stop-color="#F12817" stop-opacity="0.245"/>
<stop offset="0.6052" stop-color="#DD2820" stop-opacity="0.605"/>
<stop offset="1" stop-color="#C0272D"/>
</linearGradient>
<linearGradient id="paint24_linear_343_6329" x1="82.7243" y1="90.7821" x2="80.3526" y2="87.0808" gradientUnits="userSpaceOnUse">
<stop stop-color="#F82814" stop-opacity="0"/>
<stop offset="0.2454" stop-color="#F12817" stop-opacity="0.245"/>
<stop offset="0.6052" stop-color="#DD2820" stop-opacity="0.605"/>
<stop offset="1" stop-color="#C0272D"/>
</linearGradient>
<linearGradient id="paint25_linear_343_6329" x1="71.0063" y1="51.8887" x2="80.3742" y2="87.2448" gradientUnits="userSpaceOnUse">
<stop stop-color="#FFDECF"/>
<stop offset="0.3791" stop-color="#FDC4B0"/>
<stop offset="0.7655" stop-color="#FBAE97"/>
<stop offset="1" stop-color="#FAA68E"/>
</linearGradient>
<linearGradient id="paint26_linear_343_6329" x1="75.0003" y1="75.7057" x2="75.0003" y2="89.8289" gradientUnits="userSpaceOnUse">
<stop stop-color="#F82814" stop-opacity="0"/>
<stop offset="0.2458" stop-color="#F32816" stop-opacity="0.246"/>
<stop offset="0.5506" stop-color="#E3281D" stop-opacity="0.551"/>
<stop offset="0.8853" stop-color="#CA2728" stop-opacity="0.885"/>
<stop offset="1" stop-color="#C0272D"/>
</linearGradient>
<linearGradient id="paint27_linear_343_6329" x1="126.357" y1="65.3812" x2="128.309" y2="58.3581" gradientUnits="userSpaceOnUse">
<stop stop-color="#F82814" stop-opacity="0"/>
<stop offset="0.2454" stop-color="#F12817" stop-opacity="0.245"/>
<stop offset="0.6052" stop-color="#DD2820" stop-opacity="0.605"/>
<stop offset="1" stop-color="#C0272D"/>
</linearGradient>
<linearGradient id="paint28_linear_343_6329" x1="121.787" y1="65.4317" x2="123.327" y2="59.8875" gradientUnits="userSpaceOnUse">
<stop stop-color="#F82814" stop-opacity="0"/>
<stop offset="0.2454" stop-color="#F12817" stop-opacity="0.245"/>
<stop offset="0.6052" stop-color="#DD2820" stop-opacity="0.605"/>
<stop offset="1" stop-color="#C0272D"/>
</linearGradient>
<linearGradient id="paint29_linear_343_6329" x1="124.66" y1="69.3653" x2="125.589" y2="66.0227" gradientUnits="userSpaceOnUse">
<stop stop-color="#F82814" stop-opacity="0"/>
<stop offset="0.2454" stop-color="#F12817" stop-opacity="0.245"/>
<stop offset="0.6052" stop-color="#DD2820" stop-opacity="0.605"/>
<stop offset="1" stop-color="#C0272D"/>
</linearGradient>
<linearGradient id="paint30_linear_343_6329" x1="71.0063" y1="40.8335" x2="80.3742" y2="76.1897" gradientUnits="userSpaceOnUse">
<stop stop-color="#FFDECF"/>
<stop offset="0.3791" stop-color="#FDC4B0"/>
<stop offset="0.7655" stop-color="#FBAE97"/>
<stop offset="1" stop-color="#FAA68E"/>
</linearGradient>
<linearGradient id="paint31_linear_343_6329" x1="75.0003" y1="66.0979" x2="75.0003" y2="77.8632" gradientUnits="userSpaceOnUse">
<stop stop-color="#F82814" stop-opacity="0"/>
<stop offset="0.2458" stop-color="#F32816" stop-opacity="0.246"/>
<stop offset="0.5506" stop-color="#E3281D" stop-opacity="0.551"/>
<stop offset="0.8853" stop-color="#CA2728" stop-opacity="0.885"/>
<stop offset="1" stop-color="#C0272D"/>
</linearGradient>
<linearGradient id="paint32_linear_343_6329" x1="71.0063" y1="29.7781" x2="80.3742" y2="65.1346" gradientUnits="userSpaceOnUse">
<stop stop-color="#FFDECF"/>
<stop offset="0.3791" stop-color="#FDC4B0"/>
<stop offset="0.7655" stop-color="#FBAE97"/>
<stop offset="1" stop-color="#FAA68E"/>
</linearGradient>
<linearGradient id="paint33_linear_343_6329" x1="118.416" y1="40.9921" x2="112.405" y2="31.6116" gradientUnits="userSpaceOnUse">
<stop stop-color="#F82814" stop-opacity="0"/>
<stop offset="0.2454" stop-color="#F12817" stop-opacity="0.245"/>
<stop offset="0.6052" stop-color="#DD2820" stop-opacity="0.605"/>
<stop offset="1" stop-color="#C0272D"/>
</linearGradient>
<linearGradient id="paint34_linear_343_6329" x1="114.275" y1="46.7715" x2="109.53" y2="39.3664" gradientUnits="userSpaceOnUse">
<stop stop-color="#F82814" stop-opacity="0"/>
<stop offset="0.2454" stop-color="#F12817" stop-opacity="0.245"/>
<stop offset="0.6052" stop-color="#DD2820" stop-opacity="0.605"/>
<stop offset="1" stop-color="#C0272D"/>
</linearGradient>
<linearGradient id="paint35_linear_343_6329" x1="120.589" y1="47.4683" x2="117.729" y2="43.0038" gradientUnits="userSpaceOnUse">
<stop stop-color="#F82814" stop-opacity="0"/>
<stop offset="0.2454" stop-color="#F12817" stop-opacity="0.245"/>
<stop offset="0.6052" stop-color="#DD2820" stop-opacity="0.605"/>
<stop offset="1" stop-color="#C0272D"/>
</linearGradient>
<linearGradient id="paint36_linear_343_6329" x1="126.244" y1="42.5006" x2="128.537" y2="34.247" gradientUnits="userSpaceOnUse">
<stop stop-color="#F82814" stop-opacity="0"/>
<stop offset="0.2454" stop-color="#F12817" stop-opacity="0.245"/>
<stop offset="0.6052" stop-color="#DD2820" stop-opacity="0.605"/>
<stop offset="1" stop-color="#C0272D"/>
</linearGradient>
<linearGradient id="paint37_linear_343_6329" x1="121.696" y1="42.5661" x2="123.506" y2="36.0504" gradientUnits="userSpaceOnUse">
<stop stop-color="#F82814" stop-opacity="0"/>
<stop offset="0.2454" stop-color="#F12817" stop-opacity="0.245"/>
<stop offset="0.6052" stop-color="#DD2820" stop-opacity="0.605"/>
<stop offset="1" stop-color="#C0272D"/>
</linearGradient>
<linearGradient id="paint38_linear_343_6329" x1="124.604" y1="47.2426" x2="125.695" y2="43.3144" gradientUnits="userSpaceOnUse">
<stop stop-color="#F82814" stop-opacity="0"/>
<stop offset="0.2454" stop-color="#F12817" stop-opacity="0.245"/>
<stop offset="0.6052" stop-color="#DD2820" stop-opacity="0.605"/>
<stop offset="1" stop-color="#C0272D"/>
</linearGradient>
<linearGradient id="paint39_linear_343_6329" x1="75.0003" y1="52.9609" x2="75.0003" y2="68.4512" gradientUnits="userSpaceOnUse">
<stop stop-color="#F82814" stop-opacity="0"/>
<stop offset="0.2458" stop-color="#F32816" stop-opacity="0.246"/>
<stop offset="0.5506" stop-color="#E3281D" stop-opacity="0.551"/>
<stop offset="0.8853" stop-color="#CA2728" stop-opacity="0.885"/>
<stop offset="1" stop-color="#C0272D"/>
</linearGradient>
<linearGradient id="paint40_linear_343_6329" x1="90.6974" y1="69.0725" x2="11.0006" y2="7.78544" gradientUnits="userSpaceOnUse">
<stop stop-color="#F82814" stop-opacity="0"/>
<stop offset="0.2461" stop-color="#F12817" stop-opacity="0.246"/>
<stop offset="0.6105" stop-color="#DD2820" stop-opacity="0.611"/>
<stop offset="1" stop-color="#C0272D"/>
</linearGradient>
<linearGradient id="paint41_linear_343_6329" x1="111.268" y1="78.8862" x2="51.6604" y2="48.8862" gradientUnits="userSpaceOnUse">
<stop stop-color="#F82814" stop-opacity="0"/>
<stop offset="0.2461" stop-color="#F12817" stop-opacity="0.246"/>
<stop offset="0.6105" stop-color="#DD2820" stop-opacity="0.611"/>
<stop offset="1" stop-color="#C0272D"/>
</linearGradient>
<linearGradient id="paint42_linear_343_6329" x1="115.317" y1="65.2996" x2="68.2584" y2="35.1034" gradientUnits="userSpaceOnUse">
<stop stop-color="#F82814" stop-opacity="0"/>
<stop offset="0.2461" stop-color="#F12817" stop-opacity="0.246"/>
<stop offset="0.6105" stop-color="#DD2820" stop-opacity="0.611"/>
<stop offset="1" stop-color="#C0272D"/>
</linearGradient>
<linearGradient id="paint43_linear_343_6329" x1="136.022" y1="56.803" x2="118.179" y2="40.2341" gradientUnits="userSpaceOnUse">
<stop stop-color="#F82814" stop-opacity="0"/>
<stop offset="0.2461" stop-color="#F12817" stop-opacity="0.246"/>
<stop offset="0.6105" stop-color="#DD2820" stop-opacity="0.611"/>
<stop offset="1" stop-color="#C0272D"/>
</linearGradient>
<radialGradient id="paint44_radial_343_6329" cx="0" cy="0" r="1" gradientUnits="userSpaceOnUse" gradientTransform="translate(59.4118 18.0917) scale(77.6521 54.7447)">
<stop stop-color="#FFD945"/>
<stop offset="0.3126" stop-color="#FFD643"/>
<stop offset="0.5593" stop-color="#FFCC3D"/>
<stop offset="0.7826" stop-color="#FFBB33"/>
<stop offset="0.9922" stop-color="#FFA426"/>
<stop offset="1" stop-color="#FFA325"/>
</radialGradient>
<linearGradient id="paint45_linear_343_6329" x1="103.693" y1="37.4372" x2="65.8501" y2="-44.7195" gradientUnits="userSpaceOnUse">
<stop stop-color="#F82814" stop-opacity="0"/>
<stop offset="1" stop-color="#C0272D"/>
</linearGradient>
<linearGradient id="paint46_linear_343_6329" x1="58.0637" y1="15.7419" x2="68.1645" y2="13.0838" gradientUnits="userSpaceOnUse">
<stop stop-color="#BADA00"/>
<stop offset="0.2269" stop-color="#B0CE00"/>
<stop offset="0.6378" stop-color="#95AE00"/>
<stop offset="1" stop-color="#798C00"/>
</linearGradient>
<linearGradient id="paint47_linear_343_6329" x1="65.34" y1="7.15737" x2="72.6281" y2="9.46369" gradientUnits="userSpaceOnUse">
<stop stop-color="#BADA00"/>
<stop offset="0.2269" stop-color="#B0CE00"/>
<stop offset="0.6378" stop-color="#95AE00"/>
<stop offset="1" stop-color="#798C00"/>
</linearGradient>
<linearGradient id="paint48_linear_343_6329" x1="73.8634" y1="13.4504" x2="77.6543" y2="25.1677" gradientUnits="userSpaceOnUse">
<stop stop-color="#FFA936"/>
<stop offset="0.4112" stop-color="#FF8548"/>
<stop offset="0.7781" stop-color="#FF6C54"/>
<stop offset="1" stop-color="#FF6359"/>
</linearGradient>
<linearGradient id="paint49_linear_343_6329" x1="73.1863" y1="15.9278" x2="87.4316" y2="34.5386" gradientUnits="userSpaceOnUse">
<stop stop-color="#F82814" stop-opacity="0"/>
<stop offset="1" stop-color="#C0272D"/>
</linearGradient>
<linearGradient id="paint50_linear_343_6329" x1="67.2768" y1="48.5204" x2="167.277" y2="-142.068" gradientUnits="userSpaceOnUse">
<stop stop-color="#F82814" stop-opacity="0"/>
<stop offset="1" stop-color="#C0272D"/>
</linearGradient>
</defs>
</svg>
