<svg width="151" height="132" viewBox="0 0 151 132" fill="none" xmlns="http://www.w3.org/2000/svg">
<path d="M65.9325 19.7947C65.9325 19.7947 20.3634 47.6735 3.51516 123.438C2.26133 129.076 8.70692 133.24 13.3225 129.768C33.5225 114.575 76.4649 87.4411 135.884 77.6873C142.656 76.5756 146.075 68.9338 142.391 63.1429C133.416 49.0353 112.4 27.3176 65.9325 19.7947Z" fill="url(#paint0_linear_343_6758)"/>
<path d="M142.281 62.9709C76.9926 70.9062 29.857 100.522 8.3955 116.664C7.2655 117.514 6.02608 117.905 4.81667 117.931C4.36697 119.744 3.92873 121.577 3.51285 123.447C2.2602 129.082 8.70961 133.238 13.3226 129.768C33.5261 114.572 76.4802 87.4315 135.915 77.6824C142.648 76.578 146.081 68.9565 142.424 63.1965C142.377 63.1215 142.329 63.0462 142.281 62.9709Z" fill="url(#paint1_linear_343_6758)"/>
<path d="M144.787 68.5877C144.787 68.5877 132.919 25.9838 61.8998 16.1379C61.8998 16.1379 16.5401 43.6294 0.198375 116.57C-1.0181 122 5.45043 125.877 10.0428 122.469C11.796 121.169 13.7216 119.778 15.816 118.316C18.4378 116.485 22.0375 118.364 22.0375 121.561V121.789C22.0375 125.169 24.7778 127.91 28.1584 127.91C31.539 127.91 34.2793 125.169 34.2793 121.789V115.377C34.2793 109.809 37.3178 104.686 42.2066 102.021C54.1713 95.4988 68.3428 88.8521 84.5019 83.0853C87.0778 82.1662 89.7896 84.0788 89.7896 86.8141C89.7896 90.1947 92.5298 92.935 95.9104 92.935C99.291 92.935 102.031 90.1947 102.031 86.8141V78.9359C102.031 78.0497 102.621 77.2718 103.474 77.0318L103.514 77.0206C104.782 76.6635 106.041 77.6174 106.041 78.9353V98.8806C106.041 102.261 108.782 105.001 112.162 105.001C115.543 105.001 118.283 102.261 118.283 98.8806V81.8588C118.283 76.8106 121.848 72.4485 126.804 71.4868C132.633 70.3559 138.63 69.38 144.787 68.5877Z" fill="url(#paint2_linear_343_6758)"/>
<path d="M61.8998 16.1382C61.8998 16.1382 53.2389 21.3879 42.123 33.3841L100.052 91.3126C101.266 90.1941 102.032 88.5955 102.032 86.8144V78.9361C102.032 78.0499 102.621 77.272 103.474 77.032L103.514 77.0208C104.783 76.6638 106.042 77.6176 106.042 78.9355V97.3029L113.571 104.832C116.271 104.195 118.283 101.776 118.283 98.8808V81.8588C118.283 76.8105 121.848 72.4485 126.804 71.4867C132.633 70.3555 138.629 69.3797 144.787 68.5876C144.787 68.5876 132.919 25.9838 61.8998 16.1382Z" fill="url(#paint3_linear_343_6758)"/>
<path d="M76.7026 30.4402C76.1021 29.7599 75.405 29.1134 74.6091 28.5131C68.1191 23.619 57.5965 23.619 51.1065 28.5131C44.9541 33.1525 44.6382 40.5228 50.1503 45.4467L97.4385 92.7349C100.078 92.0552 102.031 89.6658 102.031 86.814V78.9358C102.031 78.0496 102.621 77.2717 103.474 77.0317L103.514 77.0205C104.783 76.6634 106.041 77.6173 106.041 78.9352V98.8805C106.041 100.345 106.557 101.688 107.414 102.741C107.831 103.173 108.292 103.589 108.791 103.988C109.759 104.627 110.916 105.002 112.162 105.002C115.543 105.002 118.283 102.261 118.283 98.8808V81.8587C118.283 79.1549 119.306 76.6487 121.018 74.7555L76.7026 30.4402Z" fill="url(#paint4_linear_343_6758)"/>
<path d="M53.8026 50.11C51.552 47.5079 47.487 45.7703 42.8458 45.7703C35.7643 45.7703 30.0234 49.815 30.0234 54.8047C30.0234 56.9344 31.072 58.8906 32.8217 60.435L63.7011 91.4114C70.2108 88.5173 77.1481 85.7097 84.502 83.0853C85.1776 82.8441 85.8614 82.802 86.5043 82.9144L53.8026 50.11Z" fill="url(#paint5_linear_343_6758)"/>
<path d="M106.379 57.447C104.1 54.9412 100.116 53.2788 95.5784 53.2788C88.4969 53.2788 82.756 57.3235 82.756 62.3132C82.756 62.517 82.7689 62.7185 82.7878 62.9188C77.2542 59.9923 69.5707 60.3903 64.6269 64.1185C59.4222 68.0435 59.1083 74.2591 63.6839 78.4612L72.776 87.5532C76.5584 86.0197 80.4681 84.5253 84.5016 83.0859C87.0775 82.1668 89.7892 84.0794 89.7892 86.8147C89.7892 90.1953 92.5295 92.9356 95.9101 92.9356C99.2907 92.9356 102.031 90.1953 102.031 86.8147V78.9365C102.031 78.0503 102.62 77.2723 103.473 77.0323L103.513 77.0212C104.782 76.6641 106.041 77.6179 106.041 78.9359V98.8812C106.041 102.262 108.781 105.002 112.162 105.002C115.542 105.002 118.283 102.262 118.283 98.8812V81.8588C118.283 78.4879 119.874 75.4247 122.406 73.4738L106.379 57.447Z" fill="url(#paint6_linear_343_6758)"/>
<path d="M62.8058 91.8118L52.2861 81.2921C50.0073 78.7859 46.0228 77.1233 41.4846 77.1233C35.9296 77.1233 31.2008 79.6127 29.4199 83.0942C24.2305 81.3898 17.9661 82.1351 13.7217 85.3359C8.51666 89.2609 8.20313 95.4768 12.779 99.6786L34.2793 121.179V115.377C34.2793 109.809 37.3178 104.686 42.2067 102.022C48.4755 98.6036 55.3564 95.1533 62.8058 91.8118Z" fill="url(#paint7_linear_343_6758)"/>
<path d="M28.8065 66.2551C29.0886 65.7234 28.8862 65.0637 28.3547 64.7816C27.823 64.4995 27.1633 64.7019 26.8812 65.2334C26.5992 65.7651 26.8015 66.4248 27.333 66.7069C27.8644 66.9893 28.5242 66.7869 28.8065 66.2551Z" fill="#FFEAA2"/>
<path d="M25.2286 66.6945C24.8089 66.4718 24.288 66.6315 24.0653 67.0513C23.8427 67.471 24.0024 67.9918 24.4221 68.2145C24.8418 68.4371 25.3627 68.2774 25.5853 67.8577C25.808 67.4377 25.6483 66.9171 25.2286 66.6945Z" fill="#FFEAA2"/>
<path d="M26.1738 71.1799C25.9209 71.0458 25.6068 71.142 25.4726 71.3949C25.3385 71.6479 25.4347 71.962 25.6876 72.0961C25.9406 72.2305 26.2547 72.134 26.3888 71.8811C26.5232 71.6282 26.4271 71.3143 26.1738 71.1799Z" fill="#FFEAA2"/>
<path d="M33.6117 72.6125C33.0099 72.5954 32.5084 73.0696 32.4917 73.671C32.4746 74.2728 32.9487 74.7743 33.5502 74.791C34.1519 74.8081 34.6534 74.334 34.6702 73.7325C34.6872 73.1307 34.2134 72.6293 33.6117 72.6125Z" fill="#FFEAA2"/>
<path d="M39.2819 64.9034C38.8069 64.8899 38.4111 65.2643 38.3978 65.739C38.3843 66.214 38.7587 66.6099 39.2334 66.6234C39.7084 66.637 40.1043 66.2626 40.1178 65.7876C40.131 65.3126 39.7569 64.9167 39.2819 64.9034Z" fill="#FFEAA2"/>
<path d="M31.2893 65.2304C31.0028 65.2225 30.7643 65.4481 30.7561 65.7343C30.7481 66.0207 30.9737 66.2593 31.2599 66.2675C31.5464 66.2754 31.7849 66.0498 31.7931 65.7637C31.8014 65.4772 31.5758 65.2387 31.2893 65.2304Z" fill="#FFEAA2"/>
<path d="M29.5778 69.6987C29.1443 69.7975 28.8728 70.229 28.9714 70.6628C29.0702 71.0963 29.5017 71.3678 29.9355 71.2693C30.369 71.1704 30.6405 70.739 30.542 70.3051C30.4428 69.8716 30.0114 69.6001 29.5778 69.6987Z" fill="#FFEAA2"/>
<path d="M30.4792 67.4503C30.1368 67.5283 29.9224 67.8692 30.0004 68.2115C30.0783 68.5539 30.4192 68.7683 30.7616 68.6903C31.1039 68.6124 31.3183 68.2715 31.2404 67.9291C31.1621 67.5868 30.8216 67.3724 30.4792 67.4503Z" fill="#FFEAA2"/>
<path d="M27.8953 68.694C28.1017 68.647 28.2308 68.4417 28.1838 68.2352C28.1367 68.0288 27.9314 67.8996 27.725 67.9467C27.5185 67.9937 27.3894 68.199 27.4364 68.4055C27.4835 68.612 27.6888 68.7411 27.8953 68.694Z" fill="#FFEAA2"/>
<path d="M49.0106 63.0359C49.2927 62.5041 49.0903 61.8444 48.5588 61.5624C48.0271 61.2803 47.3674 61.4827 47.0853 62.0141C46.8033 62.5459 47.0056 63.2056 47.5371 63.4877C48.0688 63.7697 48.7285 63.5674 49.0106 63.0359Z" fill="#FFEAA2"/>
<path d="M43.7344 72.4084C43.3147 72.1857 42.7938 72.3454 42.5712 72.7651C42.3485 73.1848 42.5083 73.7057 42.928 73.9283C43.3477 74.151 43.8685 73.9913 44.0912 73.5716C44.3138 73.1519 44.1541 72.631 43.7344 72.4084Z" fill="#FFEAA2"/>
<path d="M42.374 67.6747C42.1211 67.5403 41.807 67.6367 41.6728 67.8897C41.5387 68.1426 41.6349 68.4567 41.8878 68.5909C42.1408 68.7253 42.4549 68.6288 42.589 68.3759C42.7231 68.1229 42.627 67.8091 42.374 67.6747Z" fill="#FFEAA2"/>
<path d="M54.9456 64.5063C54.3439 64.4892 53.8424 64.9634 53.8256 65.5648C53.8086 66.1666 54.2827 66.6681 54.8842 66.6848C55.4859 66.7019 55.9874 66.2278 56.0042 65.6263C56.0212 65.0248 55.5474 64.5234 54.9456 64.5063Z" fill="#FFEAA2"/>
<path d="M54.8258 63.0515C54.8393 62.5765 54.4649 62.1806 53.9899 62.1673C53.5149 62.1541 53.1191 62.5282 53.1058 63.0029C53.0923 63.4779 53.4667 63.8738 53.9414 63.8873C54.4164 63.9006 54.8123 63.5265 54.8258 63.0515Z" fill="#FFEAA2"/>
<path d="M51.4934 62.0109C51.2069 62.003 50.9684 62.2283 50.9602 62.5148C50.9522 62.8012 51.1778 63.0398 51.464 63.048C51.7505 63.0559 51.989 62.8304 51.9972 62.5442C52.0052 62.2577 51.7796 62.0192 51.4934 62.0109Z" fill="#FFEAA2"/>
<path d="M46.7937 69.5391C46.3601 69.6379 46.0887 70.0694 46.1872 70.5032C46.286 70.9368 46.7175 71.2082 47.1513 71.1097C47.5848 71.0109 47.8563 70.5794 47.7578 70.1456C47.659 69.7118 47.2275 69.4403 46.7937 69.5391Z" fill="#FFEAA2"/>
<path d="M50.6833 64.2308C50.3409 64.3088 50.1265 64.6497 50.2045 64.9917C50.2824 65.3341 50.6233 65.5485 50.9654 65.4706C51.3077 65.3926 51.5221 65.0517 51.4442 64.7097C51.3665 64.3673 51.0256 64.1529 50.6833 64.2308Z" fill="#FFEAA2"/>
<path d="M48.0984 65.4748C48.3048 65.4277 48.434 65.2225 48.3869 65.016C48.3398 64.8095 48.1346 64.6804 47.9281 64.7275C47.7216 64.7745 47.5925 64.9798 47.6396 65.1863C47.6863 65.3925 47.8919 65.5219 48.0984 65.4748Z" fill="#FFEAA2"/>
<path d="M60.3104 80.5208C60.5925 79.989 60.3901 79.3293 59.8586 79.0472C59.3269 78.7652 58.6672 78.9675 58.3851 79.499C58.1031 80.0308 58.3054 80.6905 58.8369 80.9725C59.3686 81.2549 60.0284 81.0525 60.3104 80.5208Z" fill="#FFEAA2"/>
<path d="M56.7325 80.9601C56.3128 80.7375 55.7919 80.8972 55.5692 81.3169C55.3466 81.7366 55.5063 82.2575 55.926 82.4801C56.3457 82.7028 56.8666 82.543 57.0892 82.1233C57.3122 81.7033 57.1522 81.1828 56.7325 80.9601Z" fill="#FFEAA2"/>
<path d="M57.6777 85.4455C57.4248 85.3114 57.1107 85.4076 56.9766 85.6606C56.8424 85.9135 56.9386 86.2276 57.1915 86.3617C57.4445 86.4958 57.7586 86.3997 57.8927 86.1467C58.0268 85.8938 57.9307 85.58 57.6777 85.4455Z" fill="#FFEAA2"/>
<path d="M65.1165 86.8784C64.5148 86.8613 64.0133 87.3354 63.9965 87.9369C63.9795 88.5387 64.4536 89.0401 65.0551 89.0569C65.6568 89.074 66.1583 88.5999 66.1751 87.9984C66.1918 87.3969 65.718 86.8951 65.1165 86.8784Z" fill="#FFEAA2"/>
<path d="M113.847 62.3134C113.644 61.884 113.131 61.7007 112.701 61.904C112.272 62.1072 112.089 62.6204 112.292 63.0498C112.495 63.4793 113.008 63.6625 113.438 63.4592C113.867 63.256 114.051 62.7428 113.847 62.3134Z" fill="#FFEAA2"/>
<path d="M62.7932 79.4961C62.5067 79.4881 62.2682 79.7137 62.26 79.9999C62.252 80.2864 62.4776 80.5249 62.7638 80.5331C63.0503 80.5411 63.2888 80.3155 63.297 80.0293C63.305 79.7428 63.0794 79.5043 62.7932 79.4961Z" fill="#FFEAA2"/>
<path d="M61.0817 83.9643C60.6482 84.0631 60.3767 84.4946 60.4753 84.9284C60.5741 85.3619 61.0056 85.6334 61.4394 85.5349C61.8729 85.4361 62.1444 85.0046 62.0459 84.5708C61.9473 84.137 61.5153 83.8658 61.0817 83.9643Z" fill="#FFEAA2"/>
<path d="M61.9831 81.7159C61.6408 81.7939 61.4263 82.1348 61.5043 82.4771C61.5822 82.8195 61.9231 83.0339 62.2652 82.9559C62.6075 82.878 62.8219 82.5371 62.744 82.1948C62.666 81.8524 62.3255 81.638 61.9831 81.7159Z" fill="#FFEAA2"/>
<path d="M59.3992 82.9599C59.6056 82.9128 59.7347 82.7076 59.6877 82.5011C59.6406 82.2946 59.4353 82.1655 59.2289 82.2126C59.0224 82.2596 58.8933 82.4649 58.9403 82.6714C58.9874 82.8778 59.193 83.007 59.3992 82.9599Z" fill="#FFEAA2"/>
<path d="M60.3866 32.978C60.6686 32.4463 60.4663 31.7866 59.9348 31.5045C59.403 31.2224 58.7433 31.4248 58.4613 31.9563C58.1792 32.488 58.3816 33.1477 58.9131 33.4298C59.4448 33.7122 60.1045 33.5098 60.3866 32.978Z" fill="#FFEAA2"/>
<path d="M109.176 69.6842C109.185 69.2092 108.806 68.8174 108.331 68.8092C107.856 68.801 107.464 69.1795 107.456 69.6545C107.448 70.1295 107.826 70.5213 108.301 70.5295C108.776 70.5377 109.168 70.1595 109.176 69.6842Z" fill="#FFEAA2"/>
<path d="M112.779 66.3253C112.784 66.0389 112.555 65.8027 112.269 65.7977C111.982 65.7927 111.746 66.0209 111.741 66.3074C111.736 66.5939 111.965 66.83 112.251 66.835C112.537 66.84 112.774 66.6118 112.779 66.3253Z" fill="#FFEAA2"/>
<path d="M66.3226 34.4484C65.7208 34.4314 65.2194 34.9055 65.2026 35.507C65.1855 36.1087 65.6597 36.6102 66.2611 36.627C66.8629 36.644 67.3644 36.1699 67.3811 35.5684C67.3982 34.967 66.9241 34.4655 66.3226 34.4484Z" fill="#FFEAA2"/>
<path d="M66.2018 32.9936C66.2153 32.5186 65.8409 32.1227 65.3659 32.1095C64.8909 32.096 64.495 32.4704 64.4818 32.9451C64.4683 33.4201 64.8427 33.816 65.3174 33.8295C65.7924 33.8427 66.1883 33.4686 66.2018 32.9936Z" fill="#FFEAA2"/>
<path d="M62.8694 31.9533C62.5829 31.9454 62.3444 32.1707 62.3361 32.4572C62.3282 32.7436 62.5538 32.9822 62.84 32.9904C63.1264 32.9983 63.365 32.7727 63.3732 32.4866C63.3814 32.2001 63.1558 31.9613 62.8694 31.9533Z" fill="#FFEAA2"/>
<path d="M113.12 71.1107C112.836 70.769 112.328 70.7228 111.986 71.0072C111.644 71.2919 111.598 71.7996 111.883 72.1413C112.167 72.4831 112.675 72.5293 113.017 72.2449C113.359 71.9601 113.405 71.4525 113.12 71.1107Z" fill="#FFEAA2"/>
<path d="M62.0593 34.1732C61.7169 34.2512 61.5025 34.5921 61.5805 34.9341C61.6584 35.2765 61.9993 35.4909 62.3416 35.4129C62.684 35.335 62.8984 34.9941 62.8204 34.6521C62.7422 34.3094 62.4016 34.0953 62.0593 34.1732Z" fill="#FFEAA2"/>
<path d="M59.4744 35.4172C59.6808 35.3701 59.8099 35.1648 59.7629 34.9584C59.7158 34.7519 59.5105 34.6228 59.3041 34.6698C59.0976 34.7169 58.9685 34.9222 59.0155 35.1287C59.0626 35.3351 59.2679 35.4642 59.4744 35.4172Z" fill="#FFEAA2"/>
<path d="M90.1207 55.561C89.801 56.071 89.9551 56.7437 90.4651 57.0634C90.9751 57.3831 91.6478 57.229 91.9675 56.719C92.2872 56.209 92.1331 55.5363 91.6231 55.2169C91.1131 54.8969 90.4404 55.051 90.1207 55.561Z" fill="#FFEAA2"/>
<path d="M93.7209 55.3809C94.1236 55.6333 94.6545 55.5115 94.9068 55.1089C95.1592 54.7062 95.0374 54.1753 94.6348 53.923C94.2321 53.6706 93.7012 53.7924 93.4489 54.1951C93.1965 54.5977 93.3183 55.1286 93.7209 55.3809Z" fill="#FFEAA2"/>
<path d="M93.1006 50.8388C93.3433 50.9908 93.6636 50.9176 93.8157 50.6746C93.9677 50.432 93.8945 50.1117 93.6518 49.9596C93.4092 49.8076 93.0889 49.8808 92.9368 50.1235C92.7845 50.3664 92.858 50.6867 93.1006 50.8388Z" fill="#FFEAA2"/>
<path d="M85.7863 48.8736C86.3851 48.9339 86.9195 48.4974 86.9798 47.8986C87.0401 47.2997 86.6036 46.7653 86.0048 46.705C85.406 46.6447 84.8716 47.0812 84.8113 47.68C84.7507 48.2791 85.1875 48.8133 85.7863 48.8736Z" fill="#FFEAA2"/>
<path d="M79.5749 56.154C80.0475 56.2016 80.4696 55.8569 80.5173 55.3843C80.5649 54.9116 80.2202 54.4895 79.7475 54.4419C79.2749 54.3943 78.8528 54.739 78.8052 55.2116C78.7575 55.6845 79.1022 56.1063 79.5749 56.154Z" fill="#FFEAA2"/>
<path d="M87.5713 56.4041C87.8563 56.4329 88.1107 56.225 88.1392 55.94C88.168 55.655 87.9601 55.4006 87.6751 55.3721C87.3901 55.3432 87.1357 55.5512 87.1072 55.8362C87.0783 56.1209 87.2863 56.3753 87.5713 56.4041Z" fill="#FFEAA2"/>
<path d="M89.5998 52.0706C90.0395 52.0033 90.3413 51.5924 90.2742 51.153C90.2069 50.7133 89.796 50.4115 89.3566 50.4786C88.9169 50.5459 88.6151 50.9568 88.6822 51.3962C88.7495 51.8362 89.1604 52.138 89.5998 52.0706Z" fill="#FFEAA2"/>
<path d="M88.5384 54.2483C88.8855 54.195 89.1237 53.8709 89.0708 53.5238C89.0178 53.1768 88.6934 52.9386 88.3464 52.9915C87.9993 53.0444 87.7611 53.3688 87.814 53.7159C87.8669 54.063 88.1914 54.3012 88.5384 54.2483Z" fill="#FFEAA2"/>
<path d="M91.2062 53.1937C90.9971 53.2257 90.8533 53.4213 90.8853 53.6304C90.9174 53.8396 91.113 53.9834 91.3221 53.9513C91.5312 53.9193 91.675 53.7237 91.643 53.5146C91.6109 53.3054 91.4153 53.1616 91.2062 53.1937Z" fill="#FFEAA2"/>
<path d="M69.7369 57.3154C69.4172 57.8254 69.5714 58.498 70.0814 58.8177C70.5914 59.1374 71.264 58.9833 71.5834 58.4733C71.9031 57.9633 71.749 57.2907 71.239 56.971C70.729 56.651 70.0566 56.8054 69.7369 57.3154Z" fill="#FFEAA2"/>
<path d="M75.675 48.3477C76.0777 48.6001 76.6086 48.4783 76.8609 48.0757C77.1133 47.673 76.9915 47.1421 76.5889 46.8898C76.1862 46.6374 75.6553 46.7592 75.403 47.1618C75.1506 47.5642 75.2724 48.0951 75.675 48.3477Z" fill="#FFEAA2"/>
<path d="M76.6904 53.1666C76.9331 53.3187 77.2534 53.2455 77.4054 53.0025C77.5575 52.7599 77.4843 52.4396 77.2413 52.2875C76.9987 52.1355 76.6784 52.2087 76.5263 52.4513C76.3746 52.6943 76.4478 53.0146 76.6904 53.1666Z" fill="#FFEAA2"/>
<path d="M63.923 55.4209C64.5218 55.4812 65.0562 55.0447 65.1165 54.4459C65.1768 53.8471 64.7403 53.3127 64.1415 53.2524C63.5427 53.1921 63.0083 53.6286 62.948 54.2274C62.8874 54.8262 63.3242 55.3606 63.923 55.4209Z" fill="#FFEAA2"/>
<path d="M63.938 56.8803C63.8903 57.353 64.235 57.775 64.7077 57.8224C65.1803 57.87 65.6024 57.5253 65.6498 57.0527C65.6974 56.58 65.3527 56.158 64.88 56.1103C64.4074 56.063 63.9856 56.4077 63.938 56.8803Z" fill="#FFEAA2"/>
<path d="M67.1875 58.1583C67.4725 58.1871 67.7269 57.9791 67.7554 57.6941C67.7842 57.4091 67.5763 57.1547 67.2913 57.1262C67.0063 57.0974 66.7519 57.3053 66.7234 57.5903C66.6945 57.8753 66.9025 58.1297 67.1875 58.1583Z" fill="#FFEAA2"/>
<path d="M72.4162 50.9886C72.8559 50.9212 73.1577 50.5104 73.0906 50.0709C73.0233 49.6312 72.6124 49.3295 72.173 49.3965C71.7333 49.4639 71.4315 49.8748 71.4986 50.3142C71.5656 50.7539 71.9765 51.0559 72.4162 50.9886Z" fill="#FFEAA2"/>
<path d="M68.1546 56.0027C68.5017 55.9494 68.7399 55.6253 68.687 55.2782C68.634 54.9312 68.3096 54.6929 67.9626 54.7459C67.6155 54.7991 67.3773 55.1232 67.4302 55.4703C67.4832 55.8174 67.8076 56.0556 68.1546 56.0027Z" fill="#FFEAA2"/>
<path d="M70.8224 54.9483C70.6133 54.9804 70.4695 55.176 70.5015 55.3851C70.5336 55.5945 70.7292 55.738 70.9383 55.706C71.1474 55.6739 71.2912 55.4783 71.2592 55.2692C71.2271 55.0601 71.0315 54.9163 70.8224 54.9483Z" fill="#FFEAA2"/>
<path d="M28.3012 107.234C28.2159 107.83 28.6297 108.382 29.2256 108.467C29.8215 108.553 30.3735 108.139 30.4588 107.543C30.5441 106.947 30.1303 106.395 29.5344 106.31C28.9385 106.225 28.3865 106.638 28.3012 107.234Z" fill="#FFEAA2"/>
<path d="M31.5188 105.609C31.9891 105.676 32.425 105.35 32.4923 104.879C32.5597 104.409 32.2329 103.973 31.7626 103.906C31.2923 103.838 30.8564 104.165 30.7891 104.635C30.7217 105.105 31.0485 105.542 31.5188 105.609Z" fill="#FFEAA2"/>
<path d="M29.1103 101.709C29.3938 101.749 29.6567 101.552 29.6973 101.269C29.7379 100.985 29.5409 100.722 29.2573 100.682C28.9738 100.641 28.7109 100.838 28.6703 101.122C28.63 101.405 28.8267 101.668 29.1103 101.709Z" fill="#FFEAA2"/>
<path d="M21.6266 102.88C22.1984 102.692 22.5099 102.077 22.3219 101.505C22.134 100.933 21.5184 100.621 20.9463 100.809C20.3746 100.997 20.0631 101.613 20.251 102.185C20.439 102.757 21.0546 103.068 21.6266 102.88Z" fill="#FFEAA2"/>
<path d="M18.9035 112.055C19.355 111.906 19.6006 111.42 19.4523 110.969C19.3041 110.517 18.8179 110.272 18.3664 110.42C17.915 110.568 17.6694 111.054 17.8176 111.506C17.9658 111.957 18.452 112.203 18.9035 112.055Z" fill="#FFEAA2"/>
<path d="M26.3126 109.039C26.5846 108.95 26.7329 108.657 26.6435 108.385C26.5541 108.112 26.2608 107.964 25.9888 108.054C25.7167 108.143 25.5685 108.436 25.6579 108.708C25.7473 108.98 26.0405 109.129 26.3126 109.039Z" fill="#FFEAA2"/>
<path d="M26.4086 104.255C26.783 104.016 26.8924 103.517 26.6524 103.143C26.4127 102.769 25.9145 102.659 25.5401 102.899C25.1656 103.139 25.0562 103.637 25.2962 104.012C25.5362 104.386 26.0342 104.495 26.4086 104.255Z" fill="#FFEAA2"/>
<path d="M26.3224 106.676C26.618 106.487 26.7045 106.094 26.515 105.798C26.3256 105.502 25.9324 105.416 25.6368 105.605C25.3412 105.795 25.2548 106.188 25.4442 106.484C25.6336 106.779 26.0268 106.865 26.3224 106.676Z" fill="#FFEAA2"/>
<path d="M28.3329 104.63C28.1547 104.744 28.1026 104.981 28.2168 105.159C28.3309 105.338 28.5679 105.39 28.7462 105.276C28.9244 105.162 28.9765 104.924 28.8623 104.746C28.7485 104.568 28.5115 104.516 28.3329 104.63Z" fill="#FFEAA2"/>
<path d="M10.3822 117.107C10.2969 117.703 10.7108 118.255 11.3066 118.34C11.9025 118.426 12.4546 118.012 12.5399 117.416C12.6252 116.82 12.2114 116.268 11.6155 116.183C11.0199 116.097 10.4678 116.511 10.3822 117.107Z" fill="#FFEAA2"/>
<path d="M12.1711 106.502C12.6414 106.569 13.0773 106.242 13.1446 105.772C13.212 105.302 12.8852 104.866 12.4149 104.798C11.9446 104.731 11.5088 105.058 11.4414 105.528C11.3741 105.998 11.7008 106.434 12.1711 106.502Z" fill="#FFEAA2"/>
<path d="M15.0547 110.494C15.3382 110.535 15.6011 110.338 15.6417 110.054C15.6823 109.771 15.4853 109.508 15.2017 109.467C14.9182 109.427 14.6553 109.624 14.6147 109.907C14.5741 110.191 14.7711 110.454 15.0547 110.494Z" fill="#FFEAA2"/>
<path d="M4.29949 117.735C4.87125 117.547 5.18243 116.931 4.99478 116.359C4.80684 115.787 4.19125 115.476 3.61919 115.664C3.04743 115.852 2.73596 116.467 2.9239 117.039C3.11184 117.611 3.72772 117.922 4.29949 117.735Z" fill="#FFEAA2"/>
<path d="M4.90547 119.062C5.0537 119.514 5.53988 119.759 5.99135 119.611C6.44282 119.463 6.68841 118.977 6.54018 118.525C6.39194 118.074 5.90576 117.828 5.45429 117.977C5.00312 118.125 4.75723 118.611 4.90547 119.062Z" fill="#FFEAA2"/>
<path d="M8.39364 118.913C8.6657 118.823 8.81393 118.53 8.72452 118.258C8.63511 117.986 8.34188 117.838 8.06982 117.927C7.79776 118.016 7.64952 118.31 7.73893 118.582C7.82835 118.854 8.12158 119.002 8.39364 118.913Z" fill="#FFEAA2"/>
<path d="M10.265 110.237C10.6394 109.998 10.7489 109.499 10.5089 109.125C10.2691 108.751 9.77091 108.641 9.3965 108.881C9.02209 109.121 8.91268 109.619 9.15268 109.994C9.39238 110.368 9.89062 110.477 10.265 110.237Z" fill="#FFEAA2"/>
<path d="M8.40346 116.549C8.69905 116.36 8.78552 115.967 8.5961 115.671C8.40669 115.375 8.01346 115.289 7.71787 115.478C7.42228 115.668 7.33581 116.061 7.52522 116.356C7.71463 116.652 8.10787 116.739 8.40346 116.549Z" fill="#FFEAA2"/>
<path d="M10.414 114.503C10.2358 114.617 10.1837 114.855 10.2978 115.033C10.4119 115.211 10.649 115.263 10.8272 115.149C11.0055 115.035 11.0575 114.798 10.9434 114.62C10.8293 114.441 10.5922 114.389 10.414 114.503Z" fill="#FFEAA2"/>
<path d="M64.0316 56.1525C67.7613 56.1525 70.7848 54.0221 70.7848 51.3942C70.7848 48.7663 67.7613 46.636 64.0316 46.636C60.3019 46.636 57.2783 48.7663 57.2783 51.3942C57.2783 54.0221 60.3019 56.1525 64.0316 56.1525Z" fill="url(#paint8_linear_343_6758)"/>
<path d="M63.3154 49.5977C63.9114 49.5977 64.3946 49.1146 64.3946 48.5186C64.3946 47.9226 63.9114 47.4395 63.3154 47.4395C62.7195 47.4395 62.2363 47.9226 62.2363 48.5186C62.2363 49.1146 62.7195 49.5977 63.3154 49.5977Z" fill="url(#paint9_linear_343_6758)"/>
<path d="M61.3117 52.1606C61.7821 52.1606 62.1635 51.7792 62.1635 51.3088C62.1635 50.8384 61.7821 50.457 61.3117 50.457C60.8413 50.457 60.46 50.8384 60.46 51.3088C60.46 51.7792 60.8413 52.1606 61.3117 52.1606Z" fill="url(#paint10_linear_343_6758)"/>
<path d="M65.0243 52.5371C65.3079 52.5371 65.5378 52.3072 65.5378 52.0235C65.5378 51.7399 65.3079 51.51 65.0243 51.51C64.7407 51.51 64.5107 51.7399 64.5107 52.0235C64.5107 52.3072 64.7407 52.5371 65.0243 52.5371Z" fill="url(#paint11_linear_343_6758)"/>
<path d="M36.0638 80.3783C39.7935 80.3783 42.817 78.248 42.817 75.6201C42.817 72.9922 39.7935 70.8618 36.0638 70.8618C32.3341 70.8618 29.3105 72.9922 29.3105 75.6201C29.3105 78.248 32.3341 80.3783 36.0638 80.3783Z" fill="url(#paint12_linear_343_6758)"/>
<path d="M35.3477 73.8235C35.9437 73.8235 36.4268 73.3404 36.4268 72.7444C36.4268 72.1484 35.9437 71.6653 35.3477 71.6653C34.7517 71.6653 34.2686 72.1484 34.2686 72.7444C34.2686 73.3404 34.7517 73.8235 35.3477 73.8235Z" fill="url(#paint13_linear_343_6758)"/>
<path d="M33.344 76.3864C33.8144 76.3864 34.1957 76.005 34.1957 75.5346C34.1957 75.0642 33.8144 74.6829 33.344 74.6829C32.8735 74.6829 32.4922 75.0642 32.4922 75.5346C32.4922 76.005 32.8735 76.3864 33.344 76.3864Z" fill="url(#paint14_linear_343_6758)"/>
<path d="M37.0575 76.7629C37.3411 76.7629 37.571 76.533 37.571 76.2494C37.571 75.9658 37.3411 75.7358 37.0575 75.7358C36.7739 75.7358 36.5439 75.9658 36.5439 76.2494C36.5439 76.533 36.7739 76.7629 37.0575 76.7629Z" fill="url(#paint15_linear_343_6758)"/>
<path d="M70.8802 87.3443C74.6099 87.3443 77.6334 85.214 77.6334 82.5861C77.6334 79.9582 74.6099 77.8279 70.8802 77.8279C67.1505 77.8279 64.127 79.9582 64.127 82.5861C64.127 85.214 67.1505 87.3443 70.8802 87.3443Z" fill="url(#paint16_linear_343_6758)"/>
<path d="M70.1641 80.7896C70.7601 80.7896 71.2432 80.3064 71.2432 79.7105C71.2432 79.1145 70.7601 78.6313 70.1641 78.6313C69.5681 78.6313 69.085 79.1145 69.085 79.7105C69.085 80.3064 69.5681 80.7896 70.1641 80.7896Z" fill="url(#paint17_linear_343_6758)"/>
<path d="M68.1604 83.3524C68.6308 83.3524 69.0121 82.9711 69.0121 82.5007C69.0121 82.0303 68.6308 81.6489 68.1604 81.6489C67.6899 81.6489 67.3086 82.0303 67.3086 82.5007C67.3086 82.9711 67.6899 83.3524 68.1604 83.3524Z" fill="url(#paint18_linear_343_6758)"/>
<path d="M71.8729 83.729C72.1565 83.729 72.3864 83.499 72.3864 83.2154C72.3864 82.9318 72.1565 82.7019 71.8729 82.7019C71.5893 82.7019 71.3594 82.9318 71.3594 83.2154C71.3594 83.499 71.5893 83.729 71.8729 83.729Z" fill="url(#paint19_linear_343_6758)"/>
<path d="M120.684 71.5931C124.414 71.5931 127.437 69.4628 127.437 66.8349C127.437 64.207 124.414 62.0767 120.684 62.0767C116.954 62.0767 113.931 64.207 113.931 66.8349C113.931 69.4628 116.954 71.5931 120.684 71.5931Z" fill="url(#paint20_linear_343_6758)"/>
<path d="M119.968 65.0388C120.564 65.0388 121.047 64.5557 121.047 63.9597C121.047 63.3638 120.564 62.8806 119.968 62.8806C119.372 62.8806 118.889 63.3638 118.889 63.9597C118.889 64.5557 119.372 65.0388 119.968 65.0388Z" fill="url(#paint21_linear_343_6758)"/>
<path d="M117.964 67.6017C118.434 67.6017 118.816 67.2204 118.816 66.75C118.816 66.2795 118.434 65.8982 117.964 65.8982C117.494 65.8982 117.112 66.2795 117.112 66.75C117.112 67.2204 117.494 67.6017 117.964 67.6017Z" fill="url(#paint22_linear_343_6758)"/>
<path d="M121.677 67.9782C121.96 67.9782 122.19 67.7483 122.19 67.4647C122.19 67.1811 121.96 66.9512 121.677 66.9512C121.393 66.9512 121.163 67.1811 121.163 67.4647C121.163 67.7483 121.393 67.9782 121.677 67.9782Z" fill="url(#paint23_linear_343_6758)"/>
<path d="M64.3939 27.8556C68.1236 27.8556 71.1471 25.7252 71.1471 23.0973C71.1471 20.4694 68.1236 18.3391 64.3939 18.3391C60.6642 18.3391 57.6406 20.4694 57.6406 23.0973C57.6406 25.7252 60.6642 27.8556 64.3939 27.8556Z" fill="url(#paint24_linear_343_6758)"/>
<path d="M63.6777 21.3008C64.2737 21.3008 64.7569 20.8177 64.7569 20.2217C64.7569 19.6257 64.2737 19.1426 63.6777 19.1426C63.0818 19.1426 62.5986 19.6257 62.5986 20.2217C62.5986 20.8177 63.0818 21.3008 63.6777 21.3008Z" fill="url(#paint25_linear_343_6758)"/>
<path d="M61.674 23.8637C62.1444 23.8637 62.5258 23.4823 62.5258 23.0119C62.5258 22.5415 62.1444 22.1602 61.674 22.1602C61.2036 22.1602 60.8223 22.5415 60.8223 23.0119C60.8223 23.4823 61.2036 23.8637 61.674 23.8637Z" fill="url(#paint26_linear_343_6758)"/>
<path d="M65.3866 24.2402C65.6702 24.2402 65.9001 24.0103 65.9001 23.7267C65.9001 23.4431 65.6702 23.2131 65.3866 23.2131C65.103 23.2131 64.873 23.4431 64.873 23.7267C64.873 24.0103 65.103 24.2402 65.3866 24.2402Z" fill="url(#paint27_linear_343_6758)"/>
<path d="M74.6094 28.5131C68.1194 23.619 57.5968 23.619 51.1068 28.5131C44.6168 33.4072 44.6168 41.3422 51.1068 46.2364C57.5968 51.1305 68.1194 51.1305 74.6094 46.2364C81.0994 41.3422 81.0994 33.4072 74.6094 28.5131ZM55.3956 40.5611C51.2747 37.8466 51.2747 33.4446 55.3956 30.7305C59.5165 28.0161 66.1979 28.0172 70.3188 30.7316C74.4397 33.4461 74.4412 37.8469 70.3206 40.5611C66.1994 43.2755 59.5162 43.2755 55.3956 40.5611Z" fill="url(#paint28_linear_343_6758)"/>
<path d="M53.0823 43.4713C58.4803 47.3951 67.2347 47.3951 72.6323 43.4713C78.0318 39.5463 78.0303 33.1839 72.6323 29.2604C67.2329 25.3354 58.4817 25.3354 53.0823 29.2604C47.6844 33.1839 47.6826 39.5463 53.0823 43.4713ZM70.3197 30.7304C74.4406 33.4448 74.4406 37.8469 70.3197 40.561C66.1988 43.2754 59.5173 43.2742 55.3964 40.5598C51.2756 37.8454 51.2741 33.4445 55.3947 30.7304C59.5159 28.0163 66.1988 28.0163 70.3197 30.7304Z" fill="url(#paint29_linear_343_6758)"/>
<path d="M9.44329 104.155C11.8745 105.093 14.9748 104.398 16.3683 102.601C16.6424 102.248 16.5209 101.832 16.1392 101.407C15.7171 100.936 15.8686 100.315 16.448 99.9365L16.5459 99.8727C17.2945 99.3833 17.123 98.5192 16.2121 98.1927L12.5871 96.8936C11.6762 96.5671 10.5812 96.9771 10.458 97.6906C10.363 98.2406 9.72299 98.6665 8.93652 98.6986C8.3074 98.7242 7.81535 98.8783 7.56446 99.2018C6.17064 100.999 7.01211 103.216 9.44329 104.155Z" fill="url(#paint30_linear_343_6758)"/>
<path d="M33.783 85.3359C28.2433 81.1585 19.2619 81.1585 13.7222 85.3359C8.18246 89.5132 8.18246 96.2862 13.7222 100.464C19.2619 104.641 28.2433 104.641 33.783 100.464C39.3225 96.2862 39.3225 89.5132 33.783 85.3359ZM17.3828 95.6194C13.8654 93.3027 13.8654 89.5453 17.3828 87.2285C20.9001 84.9118 26.603 84.9127 30.1204 87.2294C33.6378 89.5462 33.6392 93.3027 30.1219 95.6194C26.6048 97.9362 20.9001 97.9362 17.3828 95.6194Z" fill="url(#paint31_linear_343_6758)"/>
<path d="M15.4092 98.1032C20.0165 101.452 27.4889 101.452 32.0963 98.1032C36.7051 94.7532 36.7036 89.3223 32.0963 85.9732C27.4874 82.6232 20.018 82.6232 15.4092 85.9732C10.8018 89.3226 10.8004 94.7532 15.4092 98.1032ZM30.1224 87.2282C33.6398 89.545 33.6398 93.3023 30.1224 95.6191C26.6051 97.9358 20.9021 97.935 17.3848 95.6182C13.8674 93.3014 13.866 89.545 17.3833 87.2282C20.9004 84.9114 26.6051 84.9114 30.1224 87.2282Z" fill="url(#paint32_linear_343_6758)"/>
<path d="M99.9737 70.3451C97.5425 69.4066 94.4423 70.1022 93.0487 71.8987C92.7746 72.2522 92.8961 72.6675 93.2778 73.0931C93.6999 73.5637 93.5484 74.1845 92.969 74.5634L92.8711 74.6272C92.1226 75.1166 92.294 75.9807 93.2049 76.3072L96.8299 77.6063C97.7408 77.9328 98.8358 77.5228 98.959 76.8092C99.054 76.2592 99.694 75.8334 100.48 75.8013C101.11 75.7757 101.602 75.6216 101.853 75.2981C103.246 73.501 102.405 71.2837 99.9737 70.3451Z" fill="url(#paint33_linear_343_6758)"/>
<path d="M95.5782 71.3474C102.66 71.3474 108.401 67.3026 108.401 62.313C108.401 57.3234 102.66 53.2786 95.5782 53.2786C88.4966 53.2786 82.7559 57.3234 82.7559 62.313C82.7559 67.3026 88.4966 71.3474 95.5782 71.3474Z" fill="url(#paint34_linear_343_6758)"/>
<path d="M94.2175 58.902C95.3488 58.902 96.266 57.9848 96.266 56.8535C96.266 55.7221 95.3488 54.8049 94.2175 54.8049C93.0861 54.8049 92.1689 55.7221 92.1689 56.8535C92.1689 57.9848 93.0861 58.902 94.2175 58.902Z" fill="url(#paint35_linear_343_6758)"/>
<path d="M90.4133 63.7684C91.3065 63.7684 92.0306 63.0443 92.0306 62.151C92.0306 61.2578 91.3065 60.5337 90.4133 60.5337C89.52 60.5337 88.7959 61.2578 88.7959 62.151C88.7959 63.0443 89.52 63.7684 90.4133 63.7684Z" fill="url(#paint36_linear_343_6758)"/>
<path d="M97.4623 64.4832C98.0008 64.4832 98.4373 64.0467 98.4373 63.5082C98.4373 62.9697 98.0008 62.5332 97.4623 62.5332C96.9238 62.5332 96.4873 62.9697 96.4873 63.5082C96.4873 64.0467 96.9238 64.4832 97.4623 64.4832Z" fill="url(#paint37_linear_343_6758)"/>
<path d="M41.4845 95.1921C48.566 95.1921 54.3068 91.1473 54.3068 86.1577C54.3068 81.1681 48.566 77.1233 41.4845 77.1233C34.4029 77.1233 28.6621 81.1681 28.6621 86.1577C28.6621 91.1473 34.4029 95.1921 41.4845 95.1921Z" fill="url(#paint38_linear_343_6758)"/>
<path d="M40.1237 82.7467C41.2551 82.7467 42.1723 81.8296 42.1723 80.6982C42.1723 79.5668 41.2551 78.6497 40.1237 78.6497C38.9924 78.6497 38.0752 79.5668 38.0752 80.6982C38.0752 81.8296 38.9924 82.7467 40.1237 82.7467Z" fill="url(#paint39_linear_343_6758)"/>
<path d="M36.3205 87.6131C37.2137 87.6131 37.9378 86.889 37.9378 85.9958C37.9378 85.1025 37.2137 84.3784 36.3205 84.3784C35.4272 84.3784 34.7031 85.1025 34.7031 85.9958C34.7031 86.889 35.4272 87.6131 36.3205 87.6131Z" fill="url(#paint40_linear_343_6758)"/>
<path d="M43.3695 88.3279C43.908 88.3279 44.3445 87.8914 44.3445 87.3529C44.3445 86.8145 43.908 86.3779 43.3695 86.3779C42.8311 86.3779 42.3945 86.8145 42.3945 87.3529C42.3945 87.8914 42.8311 88.3279 43.3695 88.3279Z" fill="url(#paint41_linear_343_6758)"/>
<path d="M68.8019 58.8344C66.3707 57.8959 63.2704 58.5914 61.8769 60.3879C61.6027 60.7414 61.7242 61.1567 62.106 61.5823C62.528 62.0529 62.3766 62.6738 61.7971 63.0526L61.6992 63.1164C60.9507 63.6059 61.1221 64.47 62.033 64.7964L65.658 66.0956C66.5689 66.422 67.6639 66.012 67.7871 65.2985C67.8821 64.7485 68.5221 64.3226 69.3086 64.2906C69.9377 64.265 70.4298 64.1109 70.6807 63.7873C72.0742 61.9906 71.233 59.7732 68.8019 58.8344Z" fill="url(#paint42_linear_343_6758)"/>
<path d="M72.4362 87.2124C75.4144 86.7165 77.6335 84.8359 77.6335 82.5859C77.6335 79.9579 74.61 77.8276 70.8803 77.8276C68.5074 77.8276 66.4244 78.6918 65.2197 79.9959L72.4362 87.2124Z" fill="url(#paint43_linear_343_6758)"/>
<path d="M84.6883 64.1181C79.1486 59.9408 70.1671 59.9408 64.6274 64.1181C59.0877 68.2955 59.0877 75.0684 64.6274 79.2458C70.1671 83.4231 79.1486 83.4231 84.6883 79.2458C90.228 75.0684 90.228 68.2955 84.6883 64.1181ZM68.2883 74.4017C64.771 72.0849 64.771 68.3275 68.2883 66.0108C71.8057 63.694 77.5086 63.6949 81.026 66.0117C84.5433 68.3284 84.5448 72.0849 81.0274 74.4017C77.5101 76.7184 71.8057 76.7184 68.2883 74.4017Z" fill="url(#paint44_linear_343_6758)"/>
<path d="M66.3145 76.8854C70.9218 80.2346 78.3942 80.2346 83.0015 76.8854C87.6103 73.5354 87.6089 68.1045 83.0015 64.7554C78.3927 61.4054 70.9233 61.4054 66.3145 64.7554C61.7071 68.1048 61.7056 73.5354 66.3145 76.8854ZM81.0274 66.0107C84.5448 68.3275 84.5448 72.0848 81.0274 74.4016C77.51 76.7184 71.8071 76.7175 68.2898 74.4007C64.7724 72.084 64.7709 68.3275 68.2883 66.0107C71.8056 63.6937 77.51 63.6937 81.0274 66.0107Z" fill="url(#paint45_linear_343_6758)"/>
<path d="M22.4288 72.9548C19.1965 72.9548 16.5762 74.821 16.5762 77.1234C16.5762 79.4257 19.1965 81.2919 22.4288 81.2919C25.6612 81.2919 28.2815 79.4257 28.2815 77.1234C28.2815 74.821 25.6612 72.9548 22.4288 72.9548ZM22.4288 78.8928C21.0568 78.8928 19.9447 78.1007 19.9447 77.1234C19.9447 76.1463 21.0568 75.354 22.4288 75.354C23.8009 75.354 24.9129 76.146 24.9129 77.1234C24.9132 78.1007 23.8009 78.8928 22.4288 78.8928Z" fill="url(#paint46_linear_343_6758)"/>
<path d="M52.0919 64.8303C48.8596 64.8303 46.2393 66.6965 46.2393 68.9989C46.2393 71.3012 48.8596 73.1674 52.0919 73.1674C55.3243 73.1674 57.9446 71.3012 57.9446 68.9989C57.9446 66.6965 55.324 64.8303 52.0919 64.8303ZM52.0919 70.768C50.7198 70.768 49.6078 69.9759 49.6078 68.9986C49.6078 68.0215 50.7198 67.2291 52.0919 67.2291C53.464 67.2291 54.576 68.0212 54.576 68.9986C54.576 69.9759 53.4637 70.768 52.0919 70.768Z" fill="url(#paint47_linear_343_6758)"/>
<path d="M89.8673 43.8547C86.6349 43.8547 84.0146 45.7209 84.0146 48.0233C84.0146 50.3256 86.6349 52.1918 89.8673 52.1918C93.0997 52.1918 95.7199 50.3256 95.7199 48.0233C95.7199 45.7209 93.0997 43.8547 89.8673 43.8547ZM89.8673 49.7927C88.4952 49.7927 87.3832 49.0006 87.3832 48.0233C87.3832 47.0459 88.4952 46.2539 89.8673 46.2539C91.2394 46.2539 92.3514 47.0459 92.3514 48.0233C92.3514 49.0006 91.2394 49.7927 89.8673 49.7927Z" fill="url(#paint48_linear_343_6758)"/>
<path d="M10.8507 105.34C7.61834 105.34 4.99805 107.207 4.99805 109.509C4.99805 111.811 7.61834 113.677 10.8507 113.677C14.083 113.677 16.7033 111.811 16.7033 109.509C16.7033 107.207 14.083 105.34 10.8507 105.34ZM10.8507 111.278C9.47864 111.278 8.36658 110.486 8.36658 109.509C8.36658 108.532 9.47864 107.739 10.8507 107.739C12.2228 107.739 13.3348 108.531 13.3348 109.509C13.3348 110.486 12.2228 111.278 10.8507 111.278Z" fill="url(#paint49_linear_343_6758)"/>
<path d="M42.8458 63.8391C49.9274 63.8391 55.6681 59.7942 55.6681 54.8047C55.6681 49.8151 49.9274 45.7703 42.8458 45.7703C35.7642 45.7703 30.0234 49.8151 30.0234 54.8047C30.0234 59.7942 35.7642 63.8391 42.8458 63.8391Z" fill="url(#paint50_linear_343_6758)"/>
<path d="M41.4851 51.3937C42.6164 51.3937 43.5336 50.4765 43.5336 49.3452C43.5336 48.2138 42.6164 47.2966 41.4851 47.2966C40.3537 47.2966 39.4365 48.2138 39.4365 49.3452C39.4365 50.4765 40.3537 51.3937 41.4851 51.3937Z" fill="url(#paint51_linear_343_6758)"/>
<path d="M37.6808 56.2601C38.5741 56.2601 39.2982 55.536 39.2982 54.6427C39.2982 53.7495 38.5741 53.0254 37.6808 53.0254C36.7876 53.0254 36.0635 53.7495 36.0635 54.6427C36.0635 55.536 36.7876 56.2601 37.6808 56.2601Z" fill="url(#paint52_linear_343_6758)"/>
<path d="M44.7299 56.9749C45.2684 56.9749 45.7049 56.5384 45.7049 55.9999C45.7049 55.4614 45.2684 55.0249 44.7299 55.0249C44.1914 55.0249 43.7549 55.4614 43.7549 55.9999C43.7549 56.5384 44.1914 56.9749 44.7299 56.9749Z" fill="url(#paint53_linear_343_6758)"/>
<path d="M88.4054 31.5649C85.9742 30.6263 82.8739 31.3219 81.4804 33.1184C81.2063 33.4719 81.3277 33.8872 81.7095 34.3128C82.1315 34.7834 81.9801 35.4043 81.4007 35.7831L81.3027 35.8469C80.5542 36.3363 80.7257 37.2004 81.6365 37.5269L85.2615 38.826C86.1724 39.1525 87.2674 38.7425 87.3907 38.029C87.4857 37.479 88.1257 37.0531 88.9121 37.021C89.5413 36.9954 90.0333 36.8413 90.2842 36.5178C91.6777 34.7207 90.8365 32.5034 88.4054 31.5649Z" fill="url(#paint54_linear_343_6758)"/>
<path d="M63.2227 21.6835C74.2233 25.8656 84.6265 32.0735 97.953 41.8621C111.279 51.6506 121.532 66.3059 129.139 75.7915C133.225 80.8868 144.475 79.9606 148.19 74.1553C150.671 70.2785 150.679 62.4462 148.151 58.8606C140.691 48.2812 128.13 35.8529 112.614 24.4562C97.098 13.0594 81.7489 4.98706 69.8492 1.34676C65.8162 0.112938 61.3936 1.92323 58.9127 5.8C55.1977 11.6056 57.3136 19.4371 63.2227 21.6835Z" fill="url(#paint55_linear_343_6758)"/>
<defs>
<linearGradient id="paint0_linear_343_6758" x1="65.7413" y1="78.905" x2="73.656" y2="96.2565" gradientUnits="userSpaceOnUse">
<stop stop-color="#FAA68E"/>
<stop offset="0.2061" stop-color="#FBA682"/>
<stop offset="0.5808" stop-color="#FDA861"/>
<stop offset="1" stop-color="#FFA936"/>
</linearGradient>
<linearGradient id="paint1_linear_343_6758" x1="74.0205" y1="97.4074" x2="67.3399" y2="78.0842" gradientUnits="userSpaceOnUse">
<stop stop-color="#F82814" stop-opacity="0"/>
<stop offset="0.2454" stop-color="#F12817" stop-opacity="0.245"/>
<stop offset="0.6052" stop-color="#DD2820" stop-opacity="0.605"/>
<stop offset="1" stop-color="#C0272D"/>
</linearGradient>
<linearGradient id="paint2_linear_343_6758" x1="42.7151" y1="56.0515" x2="77.9631" y2="98.2647" gradientUnits="userSpaceOnUse">
<stop stop-color="#FFD945"/>
<stop offset="0.3043" stop-color="#FFCD3E"/>
<stop offset="0.8558" stop-color="#FFAD2B"/>
<stop offset="1" stop-color="#FFA325"/>
</linearGradient>
<linearGradient id="paint3_linear_343_6758" x1="91.5139" y1="53.7385" x2="104.02" y2="36.0088" gradientUnits="userSpaceOnUse">
<stop stop-color="#F82814" stop-opacity="0"/>
<stop offset="1" stop-color="#C0272D"/>
</linearGradient>
<linearGradient id="paint4_linear_343_6758" x1="85.7103" y1="60.7311" x2="29.3556" y2="-26.4393" gradientUnits="userSpaceOnUse">
<stop stop-color="#F82814" stop-opacity="0"/>
<stop offset="1" stop-color="#C0272D"/>
</linearGradient>
<linearGradient id="paint5_linear_343_6758" x1="56.8693" y1="67.0706" x2="33.1246" y2="22.5885" gradientUnits="userSpaceOnUse">
<stop stop-color="#F82814" stop-opacity="0"/>
<stop offset="1" stop-color="#C0272D"/>
</linearGradient>
<linearGradient id="paint6_linear_343_6758" x1="94.5987" y1="79.5638" x2="70.9592" y2="35.0288" gradientUnits="userSpaceOnUse">
<stop stop-color="#F82814" stop-opacity="0"/>
<stop offset="1" stop-color="#C0272D"/>
</linearGradient>
<linearGradient id="paint7_linear_343_6758" x1="42.3161" y1="103.912" x2="23.3202" y2="71.6189" gradientUnits="userSpaceOnUse">
<stop stop-color="#F82814" stop-opacity="0"/>
<stop offset="1" stop-color="#C0272D"/>
</linearGradient>
<linearGradient id="paint8_linear_343_6758" x1="62.5901" y1="47.9013" x2="65.4804" y2="54.9048" gradientUnits="userSpaceOnUse">
<stop stop-color="#BADA00"/>
<stop offset="0.2269" stop-color="#B0CE00"/>
<stop offset="0.6378" stop-color="#95AE00"/>
<stop offset="1" stop-color="#798C00"/>
</linearGradient>
<linearGradient id="paint9_linear_343_6758" x1="63.9466" y1="50.3576" x2="61.1897" y2="46.0554" gradientUnits="userSpaceOnUse">
<stop stop-color="#798C00" stop-opacity="0"/>
<stop offset="0.6542" stop-color="#556100" stop-opacity="0.654"/>
<stop offset="1" stop-color="#464F00"/>
</linearGradient>
<linearGradient id="paint10_linear_343_6758" x1="61.7554" y1="52.8581" x2="59.5788" y2="49.4617" gradientUnits="userSpaceOnUse">
<stop stop-color="#798C00" stop-opacity="0"/>
<stop offset="0.6542" stop-color="#556100" stop-opacity="0.654"/>
<stop offset="1" stop-color="#464F00"/>
</linearGradient>
<linearGradient id="paint11_linear_343_6758" x1="65.1918" y1="53.139" x2="63.8799" y2="51.0914" gradientUnits="userSpaceOnUse">
<stop stop-color="#798C00" stop-opacity="0"/>
<stop offset="0.6542" stop-color="#556100" stop-opacity="0.654"/>
<stop offset="1" stop-color="#464F00"/>
</linearGradient>
<linearGradient id="paint12_linear_343_6758" x1="34.6223" y1="72.1271" x2="37.5126" y2="79.1306" gradientUnits="userSpaceOnUse">
<stop stop-color="#BADA00"/>
<stop offset="0.2269" stop-color="#B0CE00"/>
<stop offset="0.6378" stop-color="#95AE00"/>
<stop offset="1" stop-color="#798C00"/>
</linearGradient>
<linearGradient id="paint13_linear_343_6758" x1="35.967" y1="74.599" x2="33.2102" y2="70.2968" gradientUnits="userSpaceOnUse">
<stop stop-color="#798C00" stop-opacity="0"/>
<stop offset="0.6542" stop-color="#556100" stop-opacity="0.654"/>
<stop offset="1" stop-color="#464F00"/>
</linearGradient>
<linearGradient id="paint14_linear_343_6758" x1="33.7759" y1="77.0995" x2="31.5996" y2="73.7031" gradientUnits="userSpaceOnUse">
<stop stop-color="#798C00" stop-opacity="0"/>
<stop offset="0.6542" stop-color="#556100" stop-opacity="0.654"/>
<stop offset="1" stop-color="#464F00"/>
</linearGradient>
<linearGradient id="paint15_linear_343_6758" x1="37.2133" y1="77.3804" x2="35.9011" y2="75.3327" gradientUnits="userSpaceOnUse">
<stop stop-color="#798C00" stop-opacity="0"/>
<stop offset="0.6542" stop-color="#556100" stop-opacity="0.654"/>
<stop offset="1" stop-color="#464F00"/>
</linearGradient>
<linearGradient id="paint16_linear_343_6758" x1="69.4387" y1="79.0932" x2="72.329" y2="86.0967" gradientUnits="userSpaceOnUse">
<stop stop-color="#BADA00"/>
<stop offset="0.2269" stop-color="#B0CE00"/>
<stop offset="0.6378" stop-color="#95AE00"/>
<stop offset="1" stop-color="#798C00"/>
</linearGradient>
<linearGradient id="paint17_linear_343_6758" x1="70.8021" y1="81.5649" x2="68.0452" y2="77.2627" gradientUnits="userSpaceOnUse">
<stop stop-color="#798C00" stop-opacity="0"/>
<stop offset="0.6542" stop-color="#556100" stop-opacity="0.654"/>
<stop offset="1" stop-color="#464F00"/>
</linearGradient>
<linearGradient id="paint18_linear_343_6758" x1="68.6109" y1="84.0651" x2="66.4346" y2="80.669" gradientUnits="userSpaceOnUse">
<stop stop-color="#798C00" stop-opacity="0"/>
<stop offset="0.6542" stop-color="#556100" stop-opacity="0.654"/>
<stop offset="1" stop-color="#464F00"/>
</linearGradient>
<linearGradient id="paint19_linear_343_6758" x1="72.0476" y1="84.3463" x2="70.7355" y2="82.2986" gradientUnits="userSpaceOnUse">
<stop stop-color="#798C00" stop-opacity="0"/>
<stop offset="0.6542" stop-color="#556100" stop-opacity="0.654"/>
<stop offset="1" stop-color="#464F00"/>
</linearGradient>
<linearGradient id="paint20_linear_343_6758" x1="119.242" y1="63.3422" x2="122.133" y2="70.3455" gradientUnits="userSpaceOnUse">
<stop stop-color="#BADA00"/>
<stop offset="0.2269" stop-color="#B0CE00"/>
<stop offset="0.6378" stop-color="#95AE00"/>
<stop offset="1" stop-color="#798C00"/>
</linearGradient>
<linearGradient id="paint21_linear_343_6758" x1="120.63" y1="65.8003" x2="117.873" y2="61.498" gradientUnits="userSpaceOnUse">
<stop stop-color="#798C00" stop-opacity="0"/>
<stop offset="0.6542" stop-color="#556100" stop-opacity="0.654"/>
<stop offset="1" stop-color="#464F00"/>
</linearGradient>
<linearGradient id="paint22_linear_343_6758" x1="118.438" y1="68.3008" x2="116.262" y2="64.9043" gradientUnits="userSpaceOnUse">
<stop stop-color="#798C00" stop-opacity="0"/>
<stop offset="0.6542" stop-color="#556100" stop-opacity="0.654"/>
<stop offset="1" stop-color="#464F00"/>
</linearGradient>
<linearGradient id="paint23_linear_343_6758" x1="121.875" y1="68.5817" x2="120.563" y2="66.534" gradientUnits="userSpaceOnUse">
<stop stop-color="#798C00" stop-opacity="0"/>
<stop offset="0.6542" stop-color="#556100" stop-opacity="0.654"/>
<stop offset="1" stop-color="#464F00"/>
</linearGradient>
<linearGradient id="paint24_linear_343_6758" x1="62.9524" y1="19.6044" x2="65.8427" y2="26.6079" gradientUnits="userSpaceOnUse">
<stop stop-color="#BADA00"/>
<stop offset="0.2269" stop-color="#B0CE00"/>
<stop offset="0.6378" stop-color="#95AE00"/>
<stop offset="1" stop-color="#798C00"/>
</linearGradient>
<linearGradient id="paint25_linear_343_6758" x1="64.3057" y1="22.0461" x2="61.5489" y2="17.7439" gradientUnits="userSpaceOnUse">
<stop stop-color="#798C00" stop-opacity="0"/>
<stop offset="0.6542" stop-color="#556100" stop-opacity="0.654"/>
<stop offset="1" stop-color="#464F00"/>
</linearGradient>
<linearGradient id="paint26_linear_343_6758" x1="62.1149" y1="24.5466" x2="59.9382" y2="21.1502" gradientUnits="userSpaceOnUse">
<stop stop-color="#798C00" stop-opacity="0"/>
<stop offset="0.6542" stop-color="#556100" stop-opacity="0.654"/>
<stop offset="1" stop-color="#464F00"/>
</linearGradient>
<linearGradient id="paint27_linear_343_6758" x1="65.5516" y1="24.8276" x2="64.2394" y2="22.7801" gradientUnits="userSpaceOnUse">
<stop stop-color="#798C00" stop-opacity="0"/>
<stop offset="0.6542" stop-color="#556100" stop-opacity="0.654"/>
<stop offset="1" stop-color="#464F00"/>
</linearGradient>
<linearGradient id="paint28_linear_343_6758" x1="66.6782" y1="26.115" x2="61.4918" y2="41.2506" gradientUnits="userSpaceOnUse">
<stop stop-color="#FFDECF"/>
<stop offset="0.3791" stop-color="#FDC4B0"/>
<stop offset="0.7655" stop-color="#FBAE97"/>
<stop offset="1" stop-color="#FAA68E"/>
</linearGradient>
<linearGradient id="paint29_linear_343_6758" x1="59.8427" y1="45.3639" x2="64.0283" y2="33.1488" gradientUnits="userSpaceOnUse">
<stop stop-color="#FFDECF"/>
<stop offset="0.3791" stop-color="#FDC4B0"/>
<stop offset="0.7655" stop-color="#FBAE97"/>
<stop offset="1" stop-color="#FAA68E"/>
</linearGradient>
<linearGradient id="paint30_linear_343_6758" x1="11.0942" y1="98.9503" x2="15.843" y2="106.707" gradientUnits="userSpaceOnUse">
<stop stop-color="#A57C52"/>
<stop offset="0.1339" stop-color="#A26C4A"/>
<stop offset="0.5155" stop-color="#994336"/>
<stop offset="0.8174" stop-color="#942A2A"/>
<stop offset="1" stop-color="#922125"/>
</linearGradient>
<linearGradient id="paint31_linear_343_6758" x1="27.0157" y1="83.2742" x2="22.5889" y2="96.1934" gradientUnits="userSpaceOnUse">
<stop stop-color="#FFDECF"/>
<stop offset="0.3791" stop-color="#FDC4B0"/>
<stop offset="0.7655" stop-color="#FBAE97"/>
<stop offset="1" stop-color="#FAA68E"/>
</linearGradient>
<linearGradient id="paint32_linear_343_6758" x1="21.1983" y1="99.7022" x2="24.7709" y2="89.2758" gradientUnits="userSpaceOnUse">
<stop stop-color="#FFDECF"/>
<stop offset="0.3791" stop-color="#FDC4B0"/>
<stop offset="0.7655" stop-color="#FBAE97"/>
<stop offset="1" stop-color="#FAA68E"/>
</linearGradient>
<linearGradient id="paint33_linear_343_6758" x1="95.8781" y1="71.5172" x2="102.169" y2="81.9651" gradientUnits="userSpaceOnUse">
<stop stop-color="#A57C52"/>
<stop offset="0.1339" stop-color="#A26C4A"/>
<stop offset="0.5155" stop-color="#994336"/>
<stop offset="0.8174" stop-color="#942A2A"/>
<stop offset="1" stop-color="#922125"/>
</linearGradient>
<linearGradient id="paint34_linear_343_6758" x1="92.8412" y1="55.6812" x2="98.3291" y2="68.9786" gradientUnits="userSpaceOnUse">
<stop stop-color="#FF6359"/>
<stop offset="0.2243" stop-color="#FE5B50"/>
<stop offset="0.5952" stop-color="#FC4637"/>
<stop offset="1" stop-color="#F82814"/>
</linearGradient>
<linearGradient id="paint35_linear_343_6758" x1="95.6623" y1="59.9369" x2="90.4276" y2="51.7683" gradientUnits="userSpaceOnUse">
<stop stop-color="#F82814" stop-opacity="0"/>
<stop offset="0.2454" stop-color="#F12817" stop-opacity="0.245"/>
<stop offset="0.6052" stop-color="#DD2820" stop-opacity="0.605"/>
<stop offset="1" stop-color="#C0272D"/>
</linearGradient>
<linearGradient id="paint36_linear_343_6758" x1="91.5021" y1="64.6843" x2="87.3698" y2="58.2357" gradientUnits="userSpaceOnUse">
<stop stop-color="#F82814" stop-opacity="0"/>
<stop offset="0.2454" stop-color="#F12817" stop-opacity="0.245"/>
<stop offset="0.6052" stop-color="#DD2820" stop-opacity="0.605"/>
<stop offset="1" stop-color="#C0272D"/>
</linearGradient>
<linearGradient id="paint37_linear_343_6758" x1="98.0271" y1="65.2179" x2="95.5359" y2="61.3302" gradientUnits="userSpaceOnUse">
<stop stop-color="#F82814" stop-opacity="0"/>
<stop offset="0.2454" stop-color="#F12817" stop-opacity="0.245"/>
<stop offset="0.6052" stop-color="#DD2820" stop-opacity="0.605"/>
<stop offset="1" stop-color="#C0272D"/>
</linearGradient>
<linearGradient id="paint38_linear_343_6758" x1="38.7477" y1="79.5259" x2="44.2353" y2="92.8233" gradientUnits="userSpaceOnUse">
<stop stop-color="#FF6359"/>
<stop offset="0.2243" stop-color="#FE5B50"/>
<stop offset="0.5952" stop-color="#FC4637"/>
<stop offset="1" stop-color="#F82814"/>
</linearGradient>
<linearGradient id="paint39_linear_343_6758" x1="41.5435" y1="83.7996" x2="36.3091" y2="75.6311" gradientUnits="userSpaceOnUse">
<stop stop-color="#F82814" stop-opacity="0"/>
<stop offset="0.2454" stop-color="#F12817" stop-opacity="0.245"/>
<stop offset="0.6052" stop-color="#DD2820" stop-opacity="0.605"/>
<stop offset="1" stop-color="#C0272D"/>
</linearGradient>
<linearGradient id="paint40_linear_343_6758" x1="37.3839" y1="88.5474" x2="33.2517" y2="82.0988" gradientUnits="userSpaceOnUse">
<stop stop-color="#F82814" stop-opacity="0"/>
<stop offset="0.2454" stop-color="#F12817" stop-opacity="0.245"/>
<stop offset="0.6052" stop-color="#DD2820" stop-opacity="0.605"/>
<stop offset="1" stop-color="#C0272D"/>
</linearGradient>
<linearGradient id="paint41_linear_343_6758" x1="43.9093" y1="89.0807" x2="41.4178" y2="85.193" gradientUnits="userSpaceOnUse">
<stop stop-color="#F82814" stop-opacity="0"/>
<stop offset="0.2454" stop-color="#F12817" stop-opacity="0.245"/>
<stop offset="0.6052" stop-color="#DD2820" stop-opacity="0.605"/>
<stop offset="1" stop-color="#C0272D"/>
</linearGradient>
<linearGradient id="paint42_linear_343_6758" x1="64.706" y1="60.0064" x2="70.9974" y2="70.4544" gradientUnits="userSpaceOnUse">
<stop stop-color="#A57C52"/>
<stop offset="0.1339" stop-color="#A26C4A"/>
<stop offset="0.5155" stop-color="#994336"/>
<stop offset="0.8174" stop-color="#942A2A"/>
<stop offset="1" stop-color="#922125"/>
</linearGradient>
<linearGradient id="paint43_linear_343_6758" x1="76.0068" y1="89.5206" x2="63.4482" y2="65.7756" gradientUnits="userSpaceOnUse">
<stop stop-color="#798C00" stop-opacity="0"/>
<stop offset="0.6542" stop-color="#556100" stop-opacity="0.654"/>
<stop offset="1" stop-color="#464F00"/>
</linearGradient>
<linearGradient id="paint44_linear_343_6758" x1="77.9133" y1="62.0597" x2="73.4864" y2="74.9789" gradientUnits="userSpaceOnUse">
<stop stop-color="#FFDECF"/>
<stop offset="0.3791" stop-color="#FDC4B0"/>
<stop offset="0.7655" stop-color="#FBAE97"/>
<stop offset="1" stop-color="#FAA68E"/>
</linearGradient>
<linearGradient id="paint45_linear_343_6758" x1="72.0958" y1="78.4875" x2="75.6684" y2="68.0616" gradientUnits="userSpaceOnUse">
<stop stop-color="#FFDECF"/>
<stop offset="0.3791" stop-color="#FDC4B0"/>
<stop offset="0.7655" stop-color="#FBAE97"/>
<stop offset="1" stop-color="#FAA68E"/>
</linearGradient>
<linearGradient id="paint46_linear_343_6758" x1="20.0532" y1="72.3722" x2="22.7635" y2="77.7928" gradientUnits="userSpaceOnUse">
<stop stop-color="#8A7889"/>
<stop offset="0.3344" stop-color="#867385"/>
<stop offset="0.7039" stop-color="#7B667B"/>
<stop offset="1" stop-color="#6E566E"/>
</linearGradient>
<linearGradient id="paint47_linear_343_6758" x1="49.7163" y1="64.2477" x2="52.4266" y2="69.6683" gradientUnits="userSpaceOnUse">
<stop stop-color="#8A7889"/>
<stop offset="0.3344" stop-color="#867385"/>
<stop offset="0.7039" stop-color="#7B667B"/>
<stop offset="1" stop-color="#6E566E"/>
</linearGradient>
<linearGradient id="paint48_linear_343_6758" x1="87.4917" y1="43.2721" x2="90.202" y2="48.6927" gradientUnits="userSpaceOnUse">
<stop stop-color="#8A7889"/>
<stop offset="0.3344" stop-color="#867385"/>
<stop offset="0.7039" stop-color="#7B667B"/>
<stop offset="1" stop-color="#6E566E"/>
</linearGradient>
<linearGradient id="paint49_linear_343_6758" x1="8.47511" y1="104.758" x2="11.1854" y2="110.178" gradientUnits="userSpaceOnUse">
<stop stop-color="#8A7889"/>
<stop offset="0.3344" stop-color="#867385"/>
<stop offset="0.7039" stop-color="#7B667B"/>
<stop offset="1" stop-color="#6E566E"/>
</linearGradient>
<linearGradient id="paint50_linear_343_6758" x1="40.109" y1="48.1729" x2="45.5967" y2="61.4703" gradientUnits="userSpaceOnUse">
<stop stop-color="#FF6359"/>
<stop offset="0.2243" stop-color="#FE5B50"/>
<stop offset="0.5952" stop-color="#FC4637"/>
<stop offset="1" stop-color="#F82814"/>
</linearGradient>
<linearGradient id="paint51_linear_343_6758" x1="42.902" y1="52.4307" x2="37.6676" y2="44.2619" gradientUnits="userSpaceOnUse">
<stop stop-color="#F82814" stop-opacity="0"/>
<stop offset="0.2454" stop-color="#F12817" stop-opacity="0.245"/>
<stop offset="0.6052" stop-color="#DD2820" stop-opacity="0.605"/>
<stop offset="1" stop-color="#C0272D"/>
</linearGradient>
<linearGradient id="paint52_linear_343_6758" x1="38.7418" y1="57.1782" x2="34.6095" y2="50.7295" gradientUnits="userSpaceOnUse">
<stop stop-color="#F82814" stop-opacity="0"/>
<stop offset="0.2454" stop-color="#F12817" stop-opacity="0.245"/>
<stop offset="0.6052" stop-color="#DD2820" stop-opacity="0.605"/>
<stop offset="1" stop-color="#C0272D"/>
</linearGradient>
<linearGradient id="paint53_linear_343_6758" x1="45.2668" y1="57.7117" x2="42.7757" y2="53.8237" gradientUnits="userSpaceOnUse">
<stop stop-color="#F82814" stop-opacity="0"/>
<stop offset="0.2454" stop-color="#F12817" stop-opacity="0.245"/>
<stop offset="0.6052" stop-color="#DD2820" stop-opacity="0.605"/>
<stop offset="1" stop-color="#C0272D"/>
</linearGradient>
<linearGradient id="paint54_linear_343_6758" x1="84.3095" y1="32.7366" x2="90.6007" y2="43.1846" gradientUnits="userSpaceOnUse">
<stop stop-color="#A57C52"/>
<stop offset="0.1339" stop-color="#A26C4A"/>
<stop offset="0.5155" stop-color="#994336"/>
<stop offset="0.8174" stop-color="#942A2A"/>
<stop offset="1" stop-color="#922125"/>
</linearGradient>
<linearGradient id="paint55_linear_343_6758" x1="109.696" y1="29.9326" x2="98.7206" y2="47.8732" gradientUnits="userSpaceOnUse">
<stop stop-color="#FAA68E"/>
<stop offset="0.2061" stop-color="#FBA682"/>
<stop offset="0.5808" stop-color="#FDA861"/>
<stop offset="1" stop-color="#FFA936"/>
</linearGradient>
</defs>
</svg>
