<svg width="48" height="24" viewBox="0 0 48 24" fill="none" xmlns="http://www.w3.org/2000/svg">
<path d="M47 19C47 21.4853 44.9853 23.5 42.5 23.5L24 23.5L24 0.499998L42.5 0.5C44.9853 0.5 47 2.51472 47 5L47 19Z" fill="white"/>
<path d="M35.1106 16.6561L37.9049 13.5749C38.6984 12.7 38.6984 11.3 37.9049 10.4251L35.1106 7.34394C34.5818 6.76089 33.6655 6.76089 33.1367 7.34394C32.6762 7.85177 32.6762 8.62621 33.1367 9.13405L35.4313 11.6641C35.6041 11.8547 35.6041 12.1453 35.4313 12.3359L33.1367 14.866C32.6762 15.3738 32.6762 16.1482 33.1367 16.6561C33.6655 17.2391 34.5818 17.2391 35.1106 16.6561Z" fill="#3E5067" stroke="white"/>
<path d="M47 19C47 21.4853 44.9853 23.5 42.5 23.5L24 23.5L24 0.499998L42.5 0.5C44.9853 0.5 47 2.51472 47 5L47 19Z" stroke="#DCDFE3"/>
<path d="M1 5C1 2.51472 3.01472 0.5 5.5 0.5H24V23.5H5.5C3.01472 23.5 1 21.4853 1 19V5Z" fill="white"/>
<path d="M12.8894 7.34394L10.0951 10.4251C9.30164 11.3 9.30165 12.7 10.0951 13.5749L12.8894 16.6561C13.4182 17.2391 14.3345 17.2391 14.8633 16.6561C15.3238 16.1482 15.3238 15.3738 14.8633 14.866L12.5687 12.3359C12.3959 12.1453 12.3959 11.8547 12.5687 11.6641L14.8633 9.13405C15.3238 8.62621 15.3238 7.85177 14.8633 7.34394C14.3345 6.76089 13.4182 6.76089 12.8894 7.34394Z" fill="#3E5067" stroke="white"/>
<path d="M1 5C1 2.51472 3.01472 0.5 5.5 0.5H24V23.5H5.5C3.01472 23.5 1 21.4853 1 19V5Z" stroke="#DCDFE3"/>
</svg>
