<svg width="151" height="151" viewBox="0 0 151 151" fill="none" xmlns="http://www.w3.org/2000/svg">
<path d="M8.17955 148.292L3.47308 143.586C0.121605 140.234 0.121605 134.8 3.47308 131.449L42.4934 92.4283L59.3372 109.272L20.3166 148.292C16.9651 151.644 11.531 151.644 8.17955 148.292Z" fill="url(#paint0_linear_343_7585)"/>
<path d="M32.8721 102.049V135.736L59.3362 109.272L42.4924 92.4283L32.8721 102.049Z" fill="url(#paint1_linear_343_7585)"/>
<path d="M141.849 28.1322L123.632 9.91544C111.486 -2.23044 91.7939 -2.23044 79.648 9.91544L19.1259 70.4375C14.1924 75.371 14.1924 83.3699 19.1259 88.3034L63.4612 132.638C68.3947 137.572 76.3936 137.572 81.3271 132.638L141.849 72.1163C153.995 59.9704 153.995 40.2781 141.849 28.1322Z" fill="url(#paint2_linear_343_7585)"/>
<path d="M31.254 83.5628C28.2031 80.5119 28.2031 75.5658 31.254 72.5149L90.4055 13.3631C93.4563 10.3122 98.4025 10.3122 101.453 13.3631C104.504 16.414 104.504 21.3602 101.453 24.4111L42.3019 83.5628C39.251 86.6137 34.3049 86.6137 31.254 83.5628Z" fill="url(#paint3_linear_343_7585)"/>
<path d="M49.7281 102.037C46.6772 98.9857 46.6772 94.0396 49.7281 90.9887L108.88 31.8372C111.93 28.7864 116.877 28.7864 119.928 31.8372C122.978 34.8881 122.978 39.8343 119.928 42.8852L60.776 102.037C57.7252 105.087 52.7787 105.087 49.7281 102.037Z" fill="url(#paint4_linear_343_7585)"/>
<path d="M68.2012 120.51C65.1504 117.459 65.1504 112.513 68.2012 109.462L124.055 53.6087C127.106 50.5578 132.052 50.5578 135.103 53.6087C138.154 56.6596 138.154 61.6058 135.103 64.6567L79.2492 120.51C76.1986 123.561 71.2521 123.561 68.2012 120.51Z" fill="url(#paint5_linear_343_7585)"/>
<path d="M29.4342 60.1293L19.1259 70.4375C14.1924 75.371 14.1924 83.3699 19.1259 88.3034L63.4612 132.638C68.3948 137.572 76.3936 137.572 81.3271 132.638L91.6353 122.33L29.4342 60.1293Z" fill="url(#paint6_linear_343_7585)"/>
<path d="M108.905 68.2654C103.87 68.2654 99.7876 64.1834 99.7876 59.1478V29.056H118.023V59.1478C118.023 64.1834 113.941 68.2654 108.905 68.2654Z" fill="url(#paint7_linear_343_7585)"/>
<path d="M120.177 50.2178V86.2431C120.177 89.7625 123.03 92.6157 126.55 92.6157C130.069 92.6157 132.923 89.7628 132.923 86.2431V83.8454C132.923 82.3843 134.107 81.1998 135.568 81.1998C137.029 81.1998 138.214 82.3843 138.214 83.8454V91.8613C138.214 95.3807 141.067 98.234 144.586 98.234C148.106 98.234 150.959 95.3807 150.959 91.8613V50.2178H120.177Z" fill="url(#paint8_linear_343_7585)"/>
<path d="M120.177 50.2178V86.2431C120.177 89.7625 123.03 92.6157 126.55 92.6157C130.069 92.6157 132.923 89.7628 132.923 86.2431V83.8454C132.923 82.3843 134.107 81.1998 135.568 81.1998C137.029 81.1998 138.214 82.3843 138.214 83.8454V91.8613C138.214 95.3807 141.067 98.234 144.586 98.234C148.106 98.234 150.959 95.3807 150.959 91.8613V50.2178H120.177Z" fill="url(#paint9_linear_343_7585)"/>
<path d="M150.958 50.2178V91.8619C150.958 95.3795 148.106 98.2325 144.585 98.2325C141.067 98.2325 138.214 95.3795 138.214 91.8619V50.2178H150.958Z" fill="url(#paint10_linear_343_7585)"/>
<path d="M127.217 106.366C129.916 106.366 132.103 104.179 132.103 101.48C132.103 98.7816 129.916 96.594 127.217 96.594C124.519 96.594 122.331 98.7816 122.331 101.48C122.331 104.179 124.519 106.366 127.217 106.366Z" fill="url(#paint11_linear_343_7585)"/>
<defs>
<linearGradient id="paint0_linear_343_7585" x1="27.0479" y1="116.355" x2="39.8145" y2="148.679" gradientUnits="userSpaceOnUse">
<stop stop-color="#FFD945"/>
<stop offset="0.3043" stop-color="#FFCD3E"/>
<stop offset="0.8558" stop-color="#FFAD2B"/>
<stop offset="1" stop-color="#FFA325"/>
</linearGradient>
<linearGradient id="paint1_linear_343_7585" x1="46.094" y1="126.289" x2="46.094" y2="66.7766" gradientUnits="userSpaceOnUse">
<stop stop-color="#F82814" stop-opacity="0"/>
<stop offset="1" stop-color="#C0272D"/>
</linearGradient>
<linearGradient id="paint2_linear_343_7585" x1="83.1921" y1="-18.3116" x2="83.1921" y2="138.599" gradientUnits="userSpaceOnUse">
<stop stop-color="#FAA68E"/>
<stop offset="0.3527" stop-color="#FAA38F"/>
<stop offset="0.651" stop-color="#FC9893"/>
<stop offset="0.9287" stop-color="#FE879A"/>
<stop offset="1" stop-color="#FF819C"/>
</linearGradient>
<linearGradient id="paint3_linear_343_7585" x1="79.4696" y1="61.5738" x2="55.3299" y2="37.4341" gradientUnits="userSpaceOnUse">
<stop stop-color="#FAA68E"/>
<stop offset="0.3527" stop-color="#FAA38F"/>
<stop offset="0.651" stop-color="#FC9893"/>
<stop offset="0.9287" stop-color="#FE879A"/>
<stop offset="1" stop-color="#FF819C"/>
</linearGradient>
<linearGradient id="paint4_linear_343_7585" x1="97.9409" y1="80.0448" x2="73.8012" y2="55.9051" gradientUnits="userSpaceOnUse">
<stop stop-color="#FAA68E"/>
<stop offset="0.3527" stop-color="#FAA38F"/>
<stop offset="0.651" stop-color="#FC9893"/>
<stop offset="0.9287" stop-color="#FE879A"/>
<stop offset="1" stop-color="#FF819C"/>
</linearGradient>
<linearGradient id="paint5_linear_343_7585" x1="114.762" y1="100.165" x2="90.6226" y2="76.0249" gradientUnits="userSpaceOnUse">
<stop stop-color="#FAA68E"/>
<stop offset="0.3527" stop-color="#FAA38F"/>
<stop offset="0.651" stop-color="#FC9893"/>
<stop offset="0.9287" stop-color="#FE879A"/>
<stop offset="1" stop-color="#FF819C"/>
</linearGradient>
<linearGradient id="paint6_linear_343_7585" x1="51.1457" y1="100.582" x2="28.8305" y2="122.898" gradientUnits="userSpaceOnUse">
<stop stop-color="#F82814" stop-opacity="0"/>
<stop offset="1" stop-color="#C0272D"/>
</linearGradient>
<linearGradient id="paint7_linear_343_7585" x1="111.895" y1="45.4443" x2="68.0714" y2="67.209" gradientUnits="userSpaceOnUse">
<stop stop-color="#F82814" stop-opacity="0"/>
<stop offset="0.2481" stop-color="#F32816" stop-opacity="0.248"/>
<stop offset="0.5448" stop-color="#E4281D" stop-opacity="0.545"/>
<stop offset="0.8649" stop-color="#CC2727" stop-opacity="0.865"/>
<stop offset="1" stop-color="#C0272D"/>
</linearGradient>
<linearGradient id="paint8_linear_343_7585" x1="135.568" y1="-18.3116" x2="135.568" y2="138.599" gradientUnits="userSpaceOnUse">
<stop stop-color="#FAA68E"/>
<stop offset="0.3527" stop-color="#FAA38F"/>
<stop offset="0.651" stop-color="#FC9893"/>
<stop offset="0.9287" stop-color="#FE879A"/>
<stop offset="1" stop-color="#FF819C"/>
</linearGradient>
<linearGradient id="paint9_linear_343_7585" x1="137.504" y1="69.7051" x2="101.034" y2="115.735" gradientUnits="userSpaceOnUse">
<stop stop-color="#F82814" stop-opacity="0"/>
<stop offset="0.2481" stop-color="#F32816" stop-opacity="0.248"/>
<stop offset="0.5448" stop-color="#E4281D" stop-opacity="0.545"/>
<stop offset="0.8649" stop-color="#CC2727" stop-opacity="0.865"/>
<stop offset="1" stop-color="#C0272D"/>
</linearGradient>
<linearGradient id="paint10_linear_343_7585" x1="151.697" y1="68.0204" x2="99.9323" y2="102.432" gradientUnits="userSpaceOnUse">
<stop stop-color="#F82814" stop-opacity="0"/>
<stop offset="0.2481" stop-color="#F32816" stop-opacity="0.248"/>
<stop offset="0.5448" stop-color="#E4281D" stop-opacity="0.545"/>
<stop offset="0.8649" stop-color="#CC2727" stop-opacity="0.865"/>
<stop offset="1" stop-color="#C0272D"/>
</linearGradient>
<linearGradient id="paint11_linear_343_7585" x1="125.208" y1="95.1772" x2="129.521" y2="108.707" gradientUnits="userSpaceOnUse">
<stop stop-color="#FAA68E"/>
<stop offset="0.3367" stop-color="#FB9E91"/>
<stop offset="0.8582" stop-color="#FE8899"/>
<stop offset="1" stop-color="#FF819C"/>
</linearGradient>
</defs>
</svg>
