<svg width="151" height="137" viewBox="0 0 151 137" fill="none" xmlns="http://www.w3.org/2000/svg">
<path d="M75.7701 126.89C63.3878 126.89 52.0239 125.056 43.123 122C44.4036 127.065 46.8095 130.895 49.776 132.121C56.4713 134.888 65.6469 136.595 75.7701 136.595C85.8933 136.595 95.0689 134.888 101.764 132.121C104.731 130.895 107.137 127.065 108.417 122C99.5163 125.056 88.1525 126.89 75.7701 126.89Z" fill="url(#paint0_linear_343_7809)"/>
<path d="M150.77 64.4555C150.77 43.6096 0.769531 43.6096 0.769531 64.4555C0.769531 85.3013 18.3951 130.464 75.7695 130.464C133.144 130.464 150.77 85.3013 150.77 64.4555Z" fill="url(#paint1_linear_343_7809)"/>
<path d="M150.77 64.4555C150.77 85.3013 0.769531 85.3013 0.769531 64.4555C0.769531 43.6096 150.77 43.6096 150.77 64.4555Z" fill="url(#paint2_linear_343_7809)"/>
<path d="M144.576 64.4555C144.576 79.8181 6.96289 79.8181 6.96289 64.4555C6.96289 49.0928 144.576 49.0928 144.576 64.4555Z" fill="url(#paint3_linear_343_7809)"/>
<path d="M9.72168 68.0042C16.9152 72.3412 37.2929 74.9089 60.0964 75.7068C62.3873 75.7871 64.7023 73.7904 67.0311 73.8351C69.1084 73.8748 71.1967 75.9589 73.2879 75.9704C102.714 76.1286 132.746 73.473 141.817 68.0045C124.186 57.3742 27.3532 57.3742 9.72168 68.0042Z" fill="url(#paint4_linear_343_7809)"/>
<path d="M2.08398 75.4621C2.69516 78.223 3.5331 81.1304 4.61957 84.108C25.5908 97.748 125.948 97.748 146.919 84.108C148.005 81.1304 148.843 78.223 149.455 75.4621C149.368 75.3595 149.283 75.2568 149.189 75.1556C134.218 91.2689 17.3208 91.2689 2.35016 75.1556C2.25604 75.2568 2.17016 75.3595 2.08398 75.4621Z" fill="url(#paint5_linear_343_7809)"/>
<path d="M6.96289 89.7681C7.86966 91.7204 8.88436 93.681 10.017 95.6307C36.8667 105.781 114.672 105.781 141.521 95.6307C142.654 93.681 143.669 91.7204 144.576 89.7681C120.244 101.659 31.2949 101.659 6.96289 89.7681Z" fill="url(#paint6_linear_343_7809)"/>
<path d="M123.914 72.9704C110.326 75.0675 91.713 76.0675 73.3327 75.9707C71.4325 75.9607 69.5345 73.8801 67.6448 73.8466C65.1157 73.8019 62.6013 75.7948 60.116 75.7081C48.0851 75.2878 36.7283 74.3754 27.626 72.9707C31.3554 65.3354 37.5201 58.7795 45.2907 54.0031C53.8613 48.7325 64.3907 45.6266 75.7701 45.6266C87.1495 45.6266 97.6789 48.7325 106.25 54.0031C114.02 58.7792 120.185 65.3351 123.914 72.9704Z" fill="url(#paint7_linear_343_7809)"/>
<path d="M116.339 73.9711C112.059 66.6825 105.755 60.406 98.0572 55.674C93.1419 52.6513 87.6569 50.259 81.7654 48.6349C71.2548 45.7375 60.0136 46.6099 50.1869 51.3322C48.4936 52.146 46.8592 53.0381 45.2907 54.0025C37.5201 58.779 31.3554 65.3349 27.626 72.9702C51.2224 76.6119 89.9666 76.9452 116.339 73.9711Z" fill="url(#paint8_linear_343_7809)"/>
<path d="M106.345 74.8995C102.075 67.8766 95.9201 61.8192 88.4424 57.2227C83.5651 54.2233 78.1266 51.8448 72.2869 50.2216C63.2101 47.6986 53.4548 49.013 45.4163 53.9257C45.3742 53.9513 45.3324 53.9769 45.2907 54.0027C37.5201 58.7792 31.3554 65.3351 27.626 72.9704C48.3872 76.1742 80.8748 76.8172 106.345 74.8995Z" fill="url(#paint9_linear_343_7809)"/>
<path d="M96.0483 75.5196C91.7913 68.6879 85.7398 62.7908 78.4225 58.2929C73.8907 55.5061 68.8742 53.2552 63.5016 51.6481C57.4072 49.8252 50.7989 50.6293 45.3742 53.9514C45.3463 53.9684 45.3183 53.9855 45.2907 54.0029C37.5201 58.7793 31.3554 65.3352 27.626 72.9705C36.7289 74.3752 48.086 75.2876 60.1175 75.7079C62.398 75.7876 64.703 74.3787 67.0213 74.4232C69.1348 74.4634 71.2592 75.9596 73.3869 75.9708C81.0269 76.0096 88.7069 75.8593 96.0483 75.5196Z" fill="url(#paint10_linear_343_7809)"/>
<path d="M85.151 75.8807C81.0389 70.1113 75.6036 65.1016 69.198 61.1642C64.2827 58.1416 58.7977 55.7492 52.9063 54.1251C52.6086 54.043 52.218 53.9836 51.7707 53.9418C47.6951 53.5607 43.6536 54.8539 40.4345 57.3821C34.9419 61.6963 30.5404 67.0039 27.626 72.9704C36.7245 74.3745 48.0751 75.2866 60.1004 75.7069C62.3074 75.7839 64.5374 74.0798 66.7801 74.1239C68.9692 74.1669 71.171 75.9589 73.3757 75.9701C77.3077 75.9904 81.2498 75.9607 85.151 75.8807Z" fill="url(#paint11_linear_343_7809)"/>
<path d="M75.1554 75.9758C71.4233 71.5381 66.866 67.6381 61.6698 64.444C56.7545 61.4213 51.2695 59.029 45.378 57.4049C45.3654 57.4013 45.3527 57.3978 45.3401 57.3946C42.9313 56.7328 40.3566 57.3713 38.4736 59.0125C33.8907 63.0069 30.1839 67.7331 27.626 72.9702C40.4627 74.9513 57.783 75.9528 75.1554 75.9758Z" fill="url(#paint12_linear_343_7809)"/>
<path d="M38.9084 54.5527C30.9202 57.1792 24.3496 62.9351 20.8084 70.6116C20.6525 70.9498 20.4996 71.291 20.3525 71.6322C22.377 72.0766 24.5931 72.4877 26.9667 72.8663C27.6484 70.7039 28.4667 68.586 29.422 66.5145C31.3249 62.388 34.0572 58.791 37.3955 55.888C37.9552 55.401 38.532 54.9339 39.1246 54.4866C39.0531 54.5092 38.9799 54.5292 38.9084 54.5527Z" fill="url(#paint13_linear_343_7809)"/>
<path d="M53.3082 47.1822C47.0993 48.141 41.4435 50.8057 36.9052 54.7557C33.567 57.6586 30.8346 61.2557 28.9317 65.3822C27.8287 67.7733 26.9082 70.2263 26.1699 72.7381C26.7111 72.8263 27.2582 72.9145 27.817 72.9998C29.6405 73.2792 31.5523 73.538 33.5405 73.7792C33.6999 73.2819 33.869 72.788 34.0449 72.296C34.8979 69.1325 36.0385 66.051 37.4729 63.0678C38.8287 60.2442 40.5846 57.6648 42.667 55.3795C45.9261 51.8013 49.984 48.9469 54.5535 47.016C54.1385 47.0642 53.7235 47.1181 53.3082 47.1822Z" fill="url(#paint14_linear_343_7809)"/>
<path d="M62.0174 43.9398C54.0351 45.1768 46.9204 48.9777 41.7851 54.5445C39.7027 56.8006 37.9468 59.3474 36.5909 62.135C34.788 65.8374 33.4409 69.6906 32.5586 73.6689C32.8821 73.7095 33.2115 73.7474 33.5409 73.788C35.5909 74.0318 37.7204 74.2556 39.9204 74.4559C40.6821 71.2965 41.7851 68.2301 43.2204 65.2801C44.0386 63.6 48.9045 56.2568 49.8289 55.115C54.4674 49.3668 60.8454 45.3142 68.0086 43.5062C66.0239 43.4895 64.0207 43.6298 62.0174 43.9398Z" fill="url(#paint15_linear_343_7809)"/>
<path d="M72.314 42.0528C63.0846 42.3616 54.614 46.6616 48.967 53.7498C48.1229 54.8057 47.3434 55.9263 46.6317 57.1057C43.4111 62.441 41.164 68.2616 39.9229 74.4557C42.3581 74.6851 44.8787 74.8851 47.4611 75.0616C47.9973 72.621 48.7164 70.2519 49.6134 67.9622C50.1667 66.3613 50.7899 64.7831 51.4905 63.2322C53.2081 59.4381 55.5964 56.0822 58.4934 53.2881C63.214 48.7381 69.2905 45.6792 76.0111 44.6498C79.3734 44.1331 82.7346 44.1507 85.9925 44.6578C81.7567 42.8101 77.1002 41.891 72.314 42.0528Z" fill="url(#paint16_linear_343_7809)"/>
<path d="M75.4232 43.8957C68.7026 44.9504 62.6261 48.0839 57.9055 52.7454C55.0085 55.608 52.6202 59.046 50.9026 62.933C49.1908 66.8139 47.9173 70.8548 47.0908 75.0251C47.2143 75.0342 47.3379 75.043 47.4614 75.0522C49.6235 75.2051 51.8335 75.3357 54.0767 75.451C54.8541 72.631 55.8655 69.878 57.1058 67.2013C57.2664 66.8113 57.432 66.423 57.6026 66.0366C59.4026 61.9539 62.1676 58.5139 65.577 55.9628C66.6361 55.0569 67.7526 54.213 68.9232 53.4404C73.0614 50.7154 77.8526 48.8525 83.0085 48.0654C88.1823 47.2763 93.3576 47.6095 98.2014 48.9536C91.5632 44.488 83.4952 42.6248 75.4232 43.8957Z" fill="url(#paint17_linear_343_7809)"/>
<path d="M114.114 58.1145C112.817 56.7175 111.414 55.444 109.929 54.3028C102.414 48.5087 92.7085 45.9969 83.0085 47.5057C77.8526 48.3087 73.0615 50.2087 68.9232 52.9881C63.9938 56.3057 59.9938 60.8734 57.4262 66.3234C56.035 69.2763 54.9174 72.3234 54.0732 75.4498C54.2203 75.4586 54.3674 75.4675 54.5144 75.4734C56.1415 75.5531 57.7921 75.6192 59.4512 75.6789C64.7582 61.8645 77.4906 52.1322 92.3568 52.1322C101 52.1322 108.922 55.4228 115.083 60.8916C115.158 59.906 114.84 58.8945 114.114 58.1145Z" fill="url(#paint18_linear_343_7809)"/>
<path d="M55.6329 49.6963C56.0429 48.576 55.467 47.3351 54.3467 46.9251C53.2264 46.5151 51.9855 47.091 51.5755 48.2113C51.1655 49.3316 51.7414 50.5722 52.8617 50.9825C53.9823 51.3925 55.2229 50.8166 55.6329 49.6963Z" fill="url(#paint19_linear_343_7809)"/>
<path d="M48.7256 51.5273C47.8412 51.2037 46.8618 51.6581 46.538 52.5428C46.2142 53.4273 46.6689 54.4067 47.5536 54.7305C48.4383 55.0543 49.4174 54.5996 49.7412 53.7149C50.0648 52.8305 49.6101 51.8511 48.7256 51.5273Z" fill="url(#paint20_linear_343_7809)"/>
<path d="M55.1865 55.6983C54.6532 55.5033 54.0627 55.7774 53.8677 56.3107C53.6724 56.8439 53.9465 57.4345 54.4797 57.6295C55.013 57.8245 55.6035 57.5507 55.7985 57.0174C55.9938 56.4839 55.7197 55.8936 55.1865 55.6983Z" fill="url(#paint21_linear_343_7809)"/>
<path d="M64.629 52.2513C63.4431 52.3808 62.5866 53.4472 62.7161 54.6334C62.8455 55.8193 63.9119 56.6758 65.0981 56.5463C66.284 56.4169 67.1405 55.3505 67.0111 54.1643C66.8816 52.9781 65.8152 52.1219 64.629 52.2513Z" fill="url(#paint22_linear_343_7809)"/>
<path d="M67.7246 46.5377C66.7884 46.6401 66.1122 47.4818 66.2143 48.4183C66.3166 49.3545 67.1584 50.0306 68.0949 49.9286C69.0311 49.8262 69.7072 48.9845 69.6052 48.048C69.5028 47.1115 68.6608 46.4354 67.7246 46.5377Z" fill="url(#paint23_linear_343_7809)"/>
<path d="M60.2302 47.0119C59.6658 47.0737 59.2581 47.581 59.3196 48.1457C59.3814 48.7102 59.8887 49.1178 60.4534 49.0563C61.0178 48.9946 61.4255 48.4872 61.364 47.9225C61.3025 47.3578 60.7946 46.9502 60.2302 47.0119Z" fill="url(#paint24_linear_343_7809)"/>
<path d="M58.0789 56.2496C57.2542 56.5607 56.8378 57.4819 57.1492 58.3066C57.4604 59.1313 58.3816 59.5478 59.2063 59.2363C60.031 58.9252 60.4475 58.004 60.136 57.1793C59.8245 56.3546 58.9036 55.9381 58.0789 56.2496Z" fill="url(#paint25_linear_343_7809)"/>
<path d="M59.2413 51.5904C58.5902 51.8362 58.2616 52.5633 58.5072 53.2145C58.7531 53.8656 59.4802 54.1942 60.1313 53.9486C60.7825 53.7027 61.111 52.9756 60.8655 52.3245C60.6196 51.6733 59.8925 51.3445 59.2413 51.5904Z" fill="url(#paint26_linear_343_7809)"/>
<path d="M54.5018 54.7328C54.8944 54.5845 55.0924 54.1463 54.9444 53.7537C54.7962 53.361 54.358 53.1631 53.9653 53.311C53.5727 53.4593 53.3747 53.8975 53.5227 54.2901C53.6709 54.6828 54.1094 54.881 54.5018 54.7328Z" fill="url(#paint27_linear_343_7809)"/>
<path d="M79.3584 49.001C79.7684 47.8807 79.1926 46.6398 78.0723 46.2298C76.952 45.8198 75.7111 46.3957 75.3011 47.516C74.8911 48.6363 75.467 49.8772 76.5873 50.2872C77.7076 50.6975 78.9482 50.1216 79.3584 49.001Z" fill="url(#paint28_linear_343_7809)"/>
<path d="M72.4512 50.8318C71.5668 50.5083 70.5874 50.9627 70.2636 51.8474C69.9398 52.7321 70.3945 53.7112 71.2789 54.0351C72.1633 54.3589 73.1427 53.9042 73.4665 53.0195C73.7903 52.1351 73.3356 51.1556 72.4512 50.8318Z" fill="url(#paint29_linear_343_7809)"/>
<path d="M78.9121 55.0034C78.3788 54.8081 77.7883 55.0822 77.5933 55.6158C77.398 56.149 77.6721 56.7396 78.2053 56.9346C78.7385 57.1299 79.3291 56.8558 79.5241 56.3225C79.7194 55.789 79.4453 55.1984 78.9121 55.0034Z" fill="url(#paint30_linear_343_7809)"/>
<path d="M91.4112 50.2816C90.2253 50.411 89.3689 51.4775 89.4983 52.6637C89.6277 53.8496 90.6942 54.706 91.8803 54.5766C93.0662 54.4472 93.9227 53.3807 93.7933 52.1946C93.6639 51.0087 92.5974 50.1522 91.4112 50.2816Z" fill="url(#paint31_linear_343_7809)"/>
<path d="M90.781 47.4577C90.6786 46.5216 89.8369 45.8454 88.9004 45.9477C87.9639 46.0501 87.288 46.8919 87.3901 47.828C87.4924 48.7645 88.3342 49.4404 89.2707 49.3383C90.2071 49.236 90.8833 48.3939 90.781 47.4577Z" fill="url(#paint32_linear_343_7809)"/>
<path d="M83.9558 46.3166C83.3914 46.3783 82.9837 46.8857 83.0452 47.4504C83.107 48.0148 83.6143 48.4224 84.179 48.3607C84.7434 48.2989 85.1511 47.7913 85.0896 47.2268C85.0278 46.6627 84.5202 46.2551 83.9558 46.3166Z" fill="url(#paint33_linear_343_7809)"/>
<path d="M81.8055 55.5543C80.9808 55.8654 80.5643 56.7866 80.8758 57.6113C81.187 58.436 82.1081 58.8525 82.9329 58.541C83.7576 58.2299 84.174 57.3087 83.8626 56.484C83.5511 55.6593 82.6302 55.2431 81.8055 55.5543Z" fill="url(#paint34_linear_343_7809)"/>
<path d="M82.9669 50.8952C82.3158 51.141 81.9872 51.8681 82.2328 52.519C82.4787 53.1702 83.2057 53.4987 83.8569 53.2531C84.5081 53.0072 84.8366 52.2802 84.591 51.6293C84.3452 50.9781 83.6181 50.6496 82.9669 50.8952Z" fill="url(#paint35_linear_343_7809)"/>
<path d="M78.2274 54.0375C78.62 53.8892 78.818 53.451 78.67 53.0584C78.5218 52.6657 78.0836 52.4678 77.6909 52.6157C77.2983 52.7639 77.1003 53.2022 77.2483 53.5948C77.3965 53.9878 77.8347 54.1857 78.2274 54.0375Z" fill="url(#paint36_linear_343_7809)"/>
<path d="M72.6676 45.3278C73.3979 45.5951 74.2064 45.2196 74.4738 44.4896C74.7411 43.7593 74.3658 42.9507 73.6356 42.6834C72.9053 42.416 72.0967 42.7913 71.8294 43.5216C71.562 44.2522 71.9373 45.0607 72.6676 45.3278Z" fill="url(#paint37_linear_343_7809)"/>
<path d="M65.6188 45.3311C65.7459 44.9834 65.5673 44.5987 65.2197 44.4714C64.872 44.3443 64.4873 44.5228 64.3603 44.8705C64.2332 45.2181 64.4117 45.6028 64.7594 45.7302C65.1067 45.8572 65.4915 45.6787 65.6188 45.3311Z" fill="url(#paint38_linear_343_7809)"/>
<path d="M73.7902 48.2405C73.7499 47.8725 73.4193 47.6069 73.0514 47.6469C72.6834 47.6872 72.4178 48.0178 72.4581 48.3858C72.4984 48.7537 72.829 49.0193 73.197 48.9793C73.5646 48.939 73.8305 48.6084 73.7902 48.2405Z" fill="url(#paint39_linear_343_7809)"/>
<path d="M82.1086 44.8834C82.0683 44.5155 81.7377 44.2499 81.3697 44.2899C81.0018 44.3302 80.7362 44.6608 80.7765 45.0287C80.8168 45.3966 81.1477 45.6622 81.5153 45.6222C81.883 45.5819 82.1486 45.2513 82.1086 44.8834Z" fill="url(#paint40_linear_343_7809)"/>
<path d="M65.2592 47.2163C65.0563 46.6787 64.456 46.4075 63.9183 46.6104C63.3807 46.8134 63.1095 47.4137 63.3125 47.951C63.5154 48.4887 64.1157 48.7598 64.653 48.5569C65.1907 48.3543 65.4622 47.754 65.2592 47.2163Z" fill="url(#paint41_linear_343_7809)"/>
<path d="M70.1057 44.3026C69.9454 43.8782 69.4716 43.664 69.0472 43.824C68.6228 43.9843 68.4087 44.4582 68.5687 44.8826C68.729 45.307 69.2028 45.5211 69.6272 45.3608C70.0519 45.2008 70.266 44.727 70.1057 44.3026Z" fill="url(#paint42_linear_343_7809)"/>
<path d="M77.9689 44.3026C77.8086 43.8782 77.3348 43.664 76.9103 43.824C76.4859 43.9843 76.2718 44.4582 76.4321 44.8826C76.5924 45.307 77.0662 45.5211 77.4906 45.3608C77.9147 45.2008 78.1289 44.727 77.9689 44.3026Z" fill="url(#paint43_linear_343_7809)"/>
<path d="M70.3759 46.7022C70.4724 46.9581 70.7582 47.0872 71.0141 46.9907C71.27 46.8943 71.3991 46.6084 71.3027 46.3525C71.2062 46.0966 70.9203 45.9675 70.6644 46.064C70.4082 46.1607 70.2791 46.4466 70.3759 46.7022Z" fill="url(#paint44_linear_343_7809)"/>
<path d="M72.9036 65.7028C72.4169 65.0893 71.626 64.7266 70.7666 64.8525H70.7636C70.6519 64.8701 70.5401 64.876 70.4284 64.876C69.9757 64.876 69.5351 64.741 69.1613 64.494C69.0834 64.4119 68.6731 64.0007 68.5363 63.8928C68.0754 63.3148 67.4086 63.0231 66.7401 63.0231C66.046 63.0231 65.3519 63.3319 64.8931 63.9495C64.3872 64.629 63.5489 64.976 62.7136 64.8525H62.7107C61.1842 64.629 59.8754 65.9407 60.0989 67.4643V67.4672C60.1166 67.579 60.1225 67.6907 60.1225 67.8025C60.1225 68.5201 59.7842 69.2084 59.196 69.6466C58.5784 70.1084 58.2695 70.7995 58.2695 71.4907C58.2695 72.1613 58.5607 72.8301 59.1375 73.2887C59.1901 73.3557 59.4789 73.3701 59.601 73.4951C59.7286 73.626 59.6889 73.8669 59.7292 73.9051C60.0428 74.3725 60.1839 74.9442 60.0989 75.5172V75.5201C60.0901 75.584 60.0845 75.6448 60.0816 75.706C62.2395 75.7816 64.4192 74.3707 66.6113 74.4145C68.8501 74.4593 71.1019 75.9584 73.3572 75.9698C76.6134 75.9869 79.8772 75.9693 83.1186 75.9175L72.9036 65.7028Z" fill="url(#paint45_linear_343_7809)"/>
<path d="M75.2078 71.4911C75.2078 72.1852 74.8989 72.8793 74.2813 73.3382C73.6019 73.844 73.2548 74.6823 73.3784 75.5176V75.5205C73.4019 75.6735 73.4078 75.8235 73.3989 75.9705C71.1195 75.9617 68.8431 75.9323 66.5813 75.8882C65.3313 75.8617 64.0872 75.8323 62.8489 75.797C61.9225 75.7705 60.9989 75.7411 60.0813 75.7088C60.0842 75.647 60.0901 75.5852 60.0989 75.5205V75.5176C60.2225 74.6823 59.8754 73.844 59.196 73.3382C58.5784 72.8793 58.2695 72.1852 58.2695 71.4911C58.2695 70.7999 58.5784 70.1087 59.196 69.647C59.7842 69.2087 60.1225 68.5205 60.1225 67.8029C60.1225 67.6911 60.1166 67.5793 60.0989 67.4676V67.4646C59.8754 65.9411 61.1842 64.6293 62.7107 64.8529H62.7136C63.5489 64.9764 64.3872 64.6293 64.8931 63.9499C65.3519 63.3323 66.046 63.0234 66.7401 63.0234C67.4313 63.0234 68.1225 63.3323 68.5842 63.9499C69.0225 64.5381 69.7107 64.8764 70.4284 64.8764C70.5401 64.8764 70.6519 64.8705 70.7636 64.8529H70.7666C72.2901 64.6293 73.5989 65.9411 73.3784 67.4646V67.4676C73.2548 68.3029 73.6019 69.1411 74.2813 69.647C74.8989 70.1087 75.2078 70.7999 75.2078 71.4911Z" fill="url(#paint46_linear_343_7809)"/>
<path d="M71.7259 70.8293C71.5906 71.897 71.0465 72.844 70.1994 73.5029C69.3494 74.1587 68.2965 74.447 67.2318 74.3117C66.323 74.197 65.5171 73.7352 64.9583 73.0117C64.3965 72.2882 64.1524 71.3911 64.2671 70.4852C64.3406 69.9205 64.8553 69.5234 65.42 69.594C65.9818 69.6646 66.3818 70.1823 66.3112 70.744C66.2641 71.1058 66.3612 71.4617 66.5847 71.7499C66.8082 72.0381 67.1288 72.2234 67.4906 72.2676C68.0112 72.3352 68.523 72.194 68.9377 71.8734C69.3524 71.5529 69.6171 71.0911 69.6818 70.5705C69.87 69.0911 68.82 67.7323 67.3377 67.544C66.373 67.4205 65.4171 67.6823 64.6494 68.2764C63.8788 68.8734 63.3877 69.7323 63.2641 70.697C62.97 73.0352 64.4112 75.1999 66.5818 75.8882C65.3318 75.8617 64.0877 75.8323 62.8494 75.797C62.2406 75.097 61.7759 74.2734 61.4906 73.3823C61.1965 72.4617 61.0935 71.4617 61.223 70.4381C61.62 67.3176 64.4788 65.1028 67.5965 65.4999C70.2053 65.8323 72.0553 68.2234 71.7259 70.8293Z" fill="url(#paint47_linear_343_7809)"/>
<path d="M110.054 74.5975L87.7289 52.2728C87.3083 51.6116 86.368 51.1775 85.3262 51.2948L85.3242 51.2951C84.4871 51.3895 83.65 51.1222 83.1447 50.5993C82.2241 49.6466 80.3724 49.6466 79.4518 50.5993C78.9465 51.1222 78.1094 51.3893 77.2724 51.2951L77.2703 51.2948C75.7456 51.1231 74.4365 52.1319 74.6591 53.3069L74.6594 53.3084C74.7818 53.9534 74.435 54.5984 73.7565 54.9878C72.5706 55.6684 72.5256 57.0072 73.6147 57.7416L74.3203 58.4748C74.5841 58.749 74.7294 59.131 74.6609 59.5051C74.6603 59.5078 74.66 59.5104 74.6594 59.5131L74.6591 59.5146C74.5394 60.1451 74.8636 60.7257 75.4227 61.104L90.0712 75.7525C97.0383 75.531 103.799 75.146 110.054 74.5975Z" fill="url(#paint48_linear_343_7809)"/>
<path d="M88.8395 57.8334C88.1609 58.2228 87.8142 58.8678 87.9365 59.5128L87.9368 59.5143C88.1598 60.6893 86.8506 61.6981 85.3256 61.5263L85.3236 61.526C84.4865 61.4316 83.6495 61.699 83.1442 62.2219C82.2236 63.1746 80.3718 63.1746 79.4512 62.2219C78.9459 61.699 78.1089 61.4319 77.2718 61.526L77.2698 61.5263C75.7451 61.6981 74.4359 60.6893 74.6589 59.5143L74.6592 59.5128C74.7815 58.8678 74.4348 58.2228 73.7562 57.8334C72.5201 57.124 72.5201 55.6972 73.7562 54.9878C74.4348 54.5984 74.7815 53.9534 74.6592 53.3084L74.6589 53.3069C74.4359 52.1319 75.7451 51.1231 77.2701 51.2948L77.2721 51.2951C78.1092 51.3895 78.9462 51.1222 79.4515 50.5993C80.3721 49.6466 82.2239 49.6466 83.1445 50.5993C83.6498 51.1222 84.4868 51.3893 85.3239 51.2951L85.3259 51.2948C86.8506 51.1231 88.1598 52.1319 87.9368 53.3069L87.9365 53.3084C87.8142 53.9534 88.1609 54.5984 88.8395 54.9878C90.0756 55.6972 90.0756 57.124 88.8395 57.8334Z" fill="url(#paint49_linear_343_7809)"/>
<path d="M76.0498 57.8675C75.7548 57.156 75.6519 56.3857 75.7819 55.5972C76.1784 53.1943 79.0381 51.4875 82.1563 51.7931C84.7637 52.0487 86.6152 53.891 86.284 55.9002C86.1487 56.7207 85.6066 57.4516 84.7578 57.9581C83.909 58.4646 82.8551 58.6863 81.7899 58.5819C80.8834 58.4931 80.0757 58.1375 79.5163 57.5807C78.9566 57.024 78.7119 56.3325 78.8275 55.634C78.8993 55.1993 79.4146 54.8919 79.9784 54.9472C80.5425 55.0025 80.9413 55.3996 80.8696 55.8343C80.8237 56.1125 80.921 56.3875 81.144 56.6096C81.3666 56.8313 81.6884 56.9728 82.0496 57.0081C82.569 57.059 83.0831 56.951 83.4972 56.704C83.911 56.4569 84.1754 56.1004 84.2416 55.7002C84.4301 54.5587 83.3781 53.5116 81.8969 53.3669C80.9319 53.2722 79.9766 53.4731 79.2075 53.9322C78.4384 54.3913 77.9472 55.0537 77.8246 55.7975C77.4898 57.8249 79.3587 59.6843 81.9898 59.9419C82.5537 59.9972 82.9531 60.3937 82.8813 60.829C82.8096 61.2637 82.2943 61.571 81.7301 61.5157C78.9957 61.2481 76.8381 59.769 76.0498 57.8675Z" fill="url(#paint50_linear_343_7809)"/>
<path d="M70.8782 75.032C67.2502 74.9937 63.6411 75.8305 60.0908 75.7064C56.2929 75.5734 52.5623 75.3914 48.9488 75.1587L40.4076 66.6175C39.8488 66.2411 39.5252 65.6587 39.6458 65.0293V65.0264C39.6458 65.0264 39.6458 65.0234 39.6458 65.0205C39.7164 64.647 39.5693 64.2646 39.3046 63.9881L38.5988 63.2558C38.0782 62.9028 37.8164 62.4117 37.8164 61.9234C37.8164 61.3911 38.1252 60.8558 38.7429 60.5028C39.4193 60.1117 39.7664 59.4675 39.6458 58.8234V58.8205C39.5841 58.4911 39.6399 58.1734 39.7929 57.894C40.0193 57.4646 40.4605 57.1205 41.0105 56.9381C41.387 56.8087 41.8105 56.7587 42.2546 56.8087H42.2576C43.0958 56.9028 43.9311 56.6381 44.437 56.1146C44.8988 55.6381 45.5899 55.3999 46.2841 55.3999C46.9782 55.3999 47.6693 55.6381 48.1311 56.1146C48.5664 56.5675 49.2546 56.8264 49.9752 56.8264C50.087 56.8264 50.1988 56.8205 50.3105 56.8087C51.3546 56.6911 52.2929 57.1264 52.7135 57.7881L70.8782 75.032Z" fill="url(#paint51_linear_343_7809)"/>
<path d="M53.8258 63.348C53.1473 63.7374 52.8005 64.3824 52.9229 65.0274L52.9232 65.0289C53.1461 66.2039 51.837 67.2127 50.312 67.041L50.3099 67.0407C49.4729 66.9463 48.6358 67.2136 48.1305 67.7365C47.2099 68.6892 45.3582 68.6892 44.4376 67.7365C43.9323 67.2136 43.0952 66.9465 42.2582 67.0407L42.2561 67.041C40.7314 67.2127 39.4223 66.2039 39.6452 65.0289L39.6455 65.0274C39.7679 64.3824 39.4211 63.7374 38.7426 63.348C37.5064 62.6386 37.5064 61.2118 38.7426 60.5024C39.4211 60.113 39.7679 59.468 39.6455 58.823L39.6452 58.8215C39.4223 57.6465 40.7314 56.6377 42.2564 56.8095L42.2584 56.8098C43.0955 56.9042 43.9326 56.6368 44.4379 56.1139C45.3584 55.1613 47.2102 55.1613 48.1308 56.1139C48.6361 56.6368 49.4729 56.9039 50.3102 56.8098L50.3123 56.8095C51.837 56.6377 53.1461 57.6465 52.9232 58.8215L52.9229 58.823C52.8005 59.468 53.1473 60.113 53.8258 60.5024C55.062 61.2118 55.062 62.6386 53.8258 63.348Z" fill="url(#paint52_linear_343_7809)"/>
<path d="M41.0362 63.3822C40.7412 62.6707 40.6382 61.9004 40.7682 61.1119C41.1647 58.7089 44.0244 57.0022 47.1426 57.3077C49.75 57.5633 51.6015 59.4057 51.2703 61.4148C51.135 62.2354 50.5929 62.9663 49.7441 63.4727C48.8953 63.9792 47.8415 64.201 46.7762 64.0966C45.8697 64.0077 45.0621 63.6522 44.5026 63.0954C43.9429 62.5386 43.6982 61.8472 43.8138 61.1486C43.8856 60.7139 44.4009 60.4066 44.9647 60.4619C45.5288 60.5172 45.9276 60.9142 45.8559 61.3489C45.81 61.6272 45.9073 61.9022 46.1303 62.1242C46.3529 62.346 46.6747 62.4874 47.0359 62.5227C47.5553 62.5736 48.0694 62.4657 48.4835 62.2186C48.8973 61.9716 49.1618 61.6151 49.2279 61.2148C49.4165 60.0733 48.3644 59.0263 46.8832 58.8816C45.9182 58.7869 44.9629 58.9877 44.1938 59.4469C43.4247 59.906 42.9335 60.5683 42.8109 61.3122C42.4762 63.3395 44.345 65.1989 46.9762 65.4566C47.54 65.5119 47.9394 65.9083 47.8676 66.3436C47.7959 66.7783 47.2806 67.0857 46.7165 67.0304C43.9821 66.7627 41.8244 65.2836 41.0362 63.3822Z" fill="url(#paint53_linear_343_7809)"/>
<path d="M103.705 25.0378C103.352 24.144 104.323 23.3078 105.159 23.7831C108.111 25.4616 112.444 28.9157 112.444 34.7287C112.444 43.5437 101.826 44.3749 101.826 50.9043C101.826 54.2552 102.27 56.5693 102.702 58.0281C102.952 58.8719 102.088 59.6155 101.293 59.2393C98.6472 57.9878 94.5781 54.934 94.5781 47.9884C94.5781 37.6975 105.108 37.8504 105.108 32.224C105.108 29.2854 104.391 26.7704 103.705 25.0378Z" fill="url(#paint54_linear_343_7809)"/>
<path d="M77.4575 1.10042C77.2269 0.70689 77.844 0.348066 78.2575 0.633949C81.0622 2.57336 85.8055 6.67395 85.8055 12.2213C85.8055 20.0972 76.8284 22.3269 75.6322 28.4687C74.6646 33.4366 76.8822 38.2728 77.899 40.1513C78.0755 40.4772 77.6693 40.8078 77.2487 40.6819C74.1555 39.7554 65.834 36.3228 67.0767 26.4328C68.2805 16.8519 77.2855 17.2895 78.8834 11.0907C80.0317 6.64013 78.6169 3.07895 77.4575 1.10042Z" fill="url(#paint55_linear_343_7809)"/>
<path d="M53.9613 27.1319C53.646 26.3945 54.3066 25.7045 54.9496 26.0966C57.2207 27.4816 60.6166 30.3319 60.9798 35.1283C61.5307 42.4022 53.7901 43.088 54.1984 48.476C54.4078 51.241 54.8781 53.1504 55.2863 54.3545C55.5225 55.0507 54.9354 55.6645 54.3281 55.3539C52.3084 54.3213 49.1313 51.8013 48.6972 46.0701C48.054 37.5783 55.7913 37.7045 55.4396 33.0616C55.256 30.6369 54.5725 28.5613 53.9613 27.1319Z" fill="url(#paint56_linear_343_7809)"/>
<path d="M150.77 64.4569C150.77 73.1569 124.629 78.2275 94.1729 79.6628L103.067 75.1304C126.299 73.6128 144.576 70.0539 144.576 64.4569C144.576 62.0922 141.314 60.0892 135.793 58.4539L140.493 56.0569C146.932 58.3245 150.77 61.1245 150.77 64.4569Z" fill="url(#paint57_linear_343_7809)"/>
<path d="M141.635 49.1443L79.5294 83.4705C78.7676 83.9969 79.4229 85.2555 80.7138 85.7461C81.3076 85.9717 81.8932 85.9675 82.2553 85.7349L145.75 52.5628C147.214 51.6228 145.448 49.1646 143.101 48.8755C142.511 48.8025 141.991 48.8978 141.635 49.1443Z" fill="url(#paint58_linear_343_7809)"/>
<path d="M146.12 50.389L82.8057 84.7152C82.044 85.2417 82.6993 86.5002 83.9901 86.9908C84.584 87.2164 85.1696 87.2122 85.5316 86.9796L150.236 53.8075C151.699 52.8675 149.933 50.4093 147.587 50.1202C146.996 50.0475 146.477 50.1428 146.12 50.389Z" fill="url(#paint59_linear_343_7809)"/>
<defs>
<linearGradient id="paint0_linear_343_7809" x1="76.0789" y1="127.094" x2="76.628" y2="136.154" gradientUnits="userSpaceOnUse">
<stop stop-color="#F8F6FB"/>
<stop offset="1" stop-color="#EFDCFB"/>
</linearGradient>
<linearGradient id="paint1_linear_343_7809" x1="64.3889" y1="55.6505" x2="107.624" y2="120.062" gradientUnits="userSpaceOnUse">
<stop stop-color="#F8F6FB"/>
<stop offset="1" stop-color="#EFDCFB"/>
</linearGradient>
<linearGradient id="paint2_linear_343_7809" x1="66.6584" y1="27.6731" x2="77.2466" y2="70.4181" gradientUnits="userSpaceOnUse">
<stop stop-color="#F8F6FB"/>
<stop offset="1" stop-color="#EFDCFB"/>
</linearGradient>
<linearGradient id="paint3_linear_343_7809" x1="75.7694" y1="93.8969" x2="75.7694" y2="-12.4604" gradientUnits="userSpaceOnUse">
<stop stop-color="#EFDCFB" stop-opacity="0"/>
<stop offset="0.0287" stop-color="#E9D6F7" stop-opacity="0.029"/>
<stop offset="0.2203" stop-color="#C5B5DE" stop-opacity="0.22"/>
<stop offset="0.4138" stop-color="#AA9BCB" stop-opacity="0.414"/>
<stop offset="0.6078" stop-color="#9688BD" stop-opacity="0.608"/>
<stop offset="0.8028" stop-color="#8A7DB5" stop-opacity="0.803"/>
<stop offset="1" stop-color="#8679B2"/>
</linearGradient>
<linearGradient id="paint4_linear_343_7809" x1="75.7693" y1="60.6616" x2="75.7693" y2="71.1192" gradientUnits="userSpaceOnUse">
<stop stop-color="#FFDECF"/>
<stop offset="0.3791" stop-color="#FDC4B0"/>
<stop offset="0.7655" stop-color="#FBAE97"/>
<stop offset="1" stop-color="#FAA68E"/>
</linearGradient>
<linearGradient id="paint5_linear_343_7809" x1="101.414" y1="95.9721" x2="113.767" y2="104.207" gradientUnits="userSpaceOnUse">
<stop stop-color="#FF6359"/>
<stop offset="0.2243" stop-color="#FE5B50"/>
<stop offset="0.5952" stop-color="#FC4637"/>
<stop offset="1" stop-color="#F82814"/>
</linearGradient>
<linearGradient id="paint6_linear_343_7809" x1="99.1823" y1="107.29" x2="110.54" y2="114.862" gradientUnits="userSpaceOnUse">
<stop stop-color="#FF6359"/>
<stop offset="0.2243" stop-color="#FE5B50"/>
<stop offset="0.5952" stop-color="#FC4637"/>
<stop offset="1" stop-color="#F82814"/>
</linearGradient>
<linearGradient id="paint7_linear_343_7809" x1="66.3427" y1="50.0101" x2="78.4995" y2="79.6181" gradientUnits="userSpaceOnUse">
<stop stop-color="#FFD945"/>
<stop offset="0.3043" stop-color="#FFCD3E"/>
<stop offset="0.8558" stop-color="#FFAD2B"/>
<stop offset="1" stop-color="#FFA325"/>
</linearGradient>
<linearGradient id="paint8_linear_343_7809" x1="73.0375" y1="67.0684" x2="85.9786" y2="-11.461" gradientUnits="userSpaceOnUse">
<stop stop-color="#F82814" stop-opacity="0"/>
<stop offset="1" stop-color="#C0272D"/>
</linearGradient>
<linearGradient id="paint9_linear_343_7809" x1="67.4469" y1="77.9551" x2="59.5319" y2="8.98332" gradientUnits="userSpaceOnUse">
<stop stop-color="#F82814" stop-opacity="0"/>
<stop offset="1" stop-color="#C0272D"/>
</linearGradient>
<linearGradient id="paint10_linear_343_7809" x1="62.2801" y1="71.7435" x2="73.4566" y2="8.65518" gradientUnits="userSpaceOnUse">
<stop stop-color="#F82814" stop-opacity="0"/>
<stop offset="1" stop-color="#C0272D"/>
</linearGradient>
<linearGradient id="paint11_linear_343_7809" x1="58.5577" y1="68.0754" x2="68.7048" y2="38.3695" gradientUnits="userSpaceOnUse">
<stop stop-color="#F82814" stop-opacity="0"/>
<stop offset="1" stop-color="#C0272D"/>
</linearGradient>
<linearGradient id="paint12_linear_343_7809" x1="51.4954" y1="76.1999" x2="49.9269" y2="50.3175" gradientUnits="userSpaceOnUse">
<stop stop-color="#F82814" stop-opacity="0"/>
<stop offset="1" stop-color="#C0272D"/>
</linearGradient>
<linearGradient id="paint13_linear_343_7809" x1="27.9443" y1="60.7439" x2="30.9834" y2="64.6654" gradientUnits="userSpaceOnUse">
<stop stop-color="#FFD945"/>
<stop offset="0.3043" stop-color="#FFCD3E"/>
<stop offset="0.8558" stop-color="#FFAD2B"/>
<stop offset="1" stop-color="#FFA325"/>
</linearGradient>
<linearGradient id="paint14_linear_343_7809" x1="34.2611" y1="54.2686" x2="40.3396" y2="59.8569" gradientUnits="userSpaceOnUse">
<stop stop-color="#FFD945"/>
<stop offset="0.3043" stop-color="#FFCD3E"/>
<stop offset="0.8558" stop-color="#FFAD2B"/>
<stop offset="1" stop-color="#FFA325"/>
</linearGradient>
<linearGradient id="paint15_linear_343_7809" x1="43.1321" y1="50.9321" x2="50.0927" y2="58.383" gradientUnits="userSpaceOnUse">
<stop stop-color="#FFD945"/>
<stop offset="0.3043" stop-color="#FFCD3E"/>
<stop offset="0.8558" stop-color="#FFAD2B"/>
<stop offset="1" stop-color="#FFA325"/>
</linearGradient>
<linearGradient id="paint16_linear_343_7809" x1="51.9073" y1="45.4763" x2="61.0249" y2="57.0939" gradientUnits="userSpaceOnUse">
<stop stop-color="#FFD945"/>
<stop offset="0.3043" stop-color="#FFCD3E"/>
<stop offset="0.8558" stop-color="#FFAD2B"/>
<stop offset="1" stop-color="#FFA325"/>
</linearGradient>
<linearGradient id="paint17_linear_343_7809" x1="56.8682" y1="40.4739" x2="69.8094" y2="58.121" gradientUnits="userSpaceOnUse">
<stop stop-color="#FFD945"/>
<stop offset="0.3043" stop-color="#FFCD3E"/>
<stop offset="0.8558" stop-color="#FFAD2B"/>
<stop offset="1" stop-color="#FFA325"/>
</linearGradient>
<linearGradient id="paint18_linear_343_7809" x1="71.5429" y1="45.786" x2="79.19" y2="58.5313" gradientUnits="userSpaceOnUse">
<stop stop-color="#FFD945"/>
<stop offset="0.3043" stop-color="#FFCD3E"/>
<stop offset="0.8558" stop-color="#FFAD2B"/>
<stop offset="1" stop-color="#FFA325"/>
</linearGradient>
<linearGradient id="paint19_linear_343_7809" x1="51.6802" y1="46.2866" x2="57.662" y2="54.5795" gradientUnits="userSpaceOnUse">
<stop stop-color="#BADA00"/>
<stop offset="0.2269" stop-color="#B0CE00"/>
<stop offset="0.6378" stop-color="#95AE00"/>
<stop offset="1" stop-color="#798C00"/>
</linearGradient>
<linearGradient id="paint20_linear_343_7809" x1="46.6206" y1="51.0231" x2="51.343" y2="57.5699" gradientUnits="userSpaceOnUse">
<stop stop-color="#BADA00"/>
<stop offset="0.2269" stop-color="#B0CE00"/>
<stop offset="0.6378" stop-color="#95AE00"/>
<stop offset="1" stop-color="#798C00"/>
</linearGradient>
<linearGradient id="paint21_linear_343_7809" x1="53.9174" y1="55.3945" x2="56.7644" y2="59.3415" gradientUnits="userSpaceOnUse">
<stop stop-color="#BADA00"/>
<stop offset="0.2269" stop-color="#B0CE00"/>
<stop offset="0.6378" stop-color="#95AE00"/>
<stop offset="1" stop-color="#798C00"/>
</linearGradient>
<linearGradient id="paint22_linear_343_7809" x1="62.9396" y1="51.7313" x2="68.9216" y2="60.0249" gradientUnits="userSpaceOnUse">
<stop stop-color="#BADA00"/>
<stop offset="0.2269" stop-color="#B0CE00"/>
<stop offset="0.6378" stop-color="#95AE00"/>
<stop offset="1" stop-color="#798C00"/>
</linearGradient>
<linearGradient id="paint23_linear_343_7809" x1="66.3908" y1="46.1271" x2="71.1134" y2="52.6745" gradientUnits="userSpaceOnUse">
<stop stop-color="#BADA00"/>
<stop offset="0.2269" stop-color="#B0CE00"/>
<stop offset="0.6378" stop-color="#95AE00"/>
<stop offset="1" stop-color="#798C00"/>
</linearGradient>
<linearGradient id="paint24_linear_343_7809" x1="59.4261" y1="46.7646" x2="62.2734" y2="50.7116" gradientUnits="userSpaceOnUse">
<stop stop-color="#BADA00"/>
<stop offset="0.2269" stop-color="#B0CE00"/>
<stop offset="0.6378" stop-color="#95AE00"/>
<stop offset="1" stop-color="#798C00"/>
</linearGradient>
<linearGradient id="paint25_linear_343_7809" x1="57.2207" y1="55.7716" x2="61.6416" y2="61.9005" gradientUnits="userSpaceOnUse">
<stop stop-color="#BADA00"/>
<stop offset="0.2269" stop-color="#B0CE00"/>
<stop offset="0.6378" stop-color="#95AE00"/>
<stop offset="1" stop-color="#798C00"/>
</linearGradient>
<linearGradient id="paint26_linear_343_7809" x1="58.564" y1="51.213" x2="62.054" y2="56.0515" gradientUnits="userSpaceOnUse">
<stop stop-color="#BADA00"/>
<stop offset="0.2269" stop-color="#B0CE00"/>
<stop offset="0.6378" stop-color="#95AE00"/>
<stop offset="1" stop-color="#798C00"/>
</linearGradient>
<linearGradient id="paint27_linear_343_7809" x1="53.5568" y1="53.0837" x2="55.6609" y2="56.0007" gradientUnits="userSpaceOnUse">
<stop stop-color="#BADA00"/>
<stop offset="0.2269" stop-color="#B0CE00"/>
<stop offset="0.6378" stop-color="#95AE00"/>
<stop offset="1" stop-color="#798C00"/>
</linearGradient>
<linearGradient id="paint28_linear_343_7809" x1="75.4058" y1="45.5913" x2="81.3876" y2="53.8842" gradientUnits="userSpaceOnUse">
<stop stop-color="#BADA00"/>
<stop offset="0.2269" stop-color="#B0CE00"/>
<stop offset="0.6378" stop-color="#95AE00"/>
<stop offset="1" stop-color="#798C00"/>
</linearGradient>
<linearGradient id="paint29_linear_343_7809" x1="70.3462" y1="50.3277" x2="75.0686" y2="56.8745" gradientUnits="userSpaceOnUse">
<stop stop-color="#BADA00"/>
<stop offset="0.2269" stop-color="#B0CE00"/>
<stop offset="0.6378" stop-color="#95AE00"/>
<stop offset="1" stop-color="#798C00"/>
</linearGradient>
<linearGradient id="paint30_linear_343_7809" x1="77.643" y1="54.6993" x2="80.49" y2="58.6463" gradientUnits="userSpaceOnUse">
<stop stop-color="#BADA00"/>
<stop offset="0.2269" stop-color="#B0CE00"/>
<stop offset="0.6378" stop-color="#95AE00"/>
<stop offset="1" stop-color="#798C00"/>
</linearGradient>
<linearGradient id="paint31_linear_343_7809" x1="89.7218" y1="49.7616" x2="95.7039" y2="58.0552" gradientUnits="userSpaceOnUse">
<stop stop-color="#BADA00"/>
<stop offset="0.2269" stop-color="#B0CE00"/>
<stop offset="0.6378" stop-color="#95AE00"/>
<stop offset="1" stop-color="#798C00"/>
</linearGradient>
<linearGradient id="paint32_linear_343_7809" x1="87.5668" y1="45.5372" x2="92.2895" y2="52.0842" gradientUnits="userSpaceOnUse">
<stop stop-color="#BADA00"/>
<stop offset="0.2269" stop-color="#B0CE00"/>
<stop offset="0.6378" stop-color="#95AE00"/>
<stop offset="1" stop-color="#798C00"/>
</linearGradient>
<linearGradient id="paint33_linear_343_7809" x1="83.1517" y1="46.0692" x2="85.9987" y2="50.0165" gradientUnits="userSpaceOnUse">
<stop stop-color="#BADA00"/>
<stop offset="0.2269" stop-color="#B0CE00"/>
<stop offset="0.6378" stop-color="#95AE00"/>
<stop offset="1" stop-color="#798C00"/>
</linearGradient>
<linearGradient id="paint34_linear_343_7809" x1="80.9473" y1="55.0763" x2="85.3679" y2="61.2052" gradientUnits="userSpaceOnUse">
<stop stop-color="#BADA00"/>
<stop offset="0.2269" stop-color="#B0CE00"/>
<stop offset="0.6378" stop-color="#95AE00"/>
<stop offset="1" stop-color="#798C00"/>
</linearGradient>
<linearGradient id="paint35_linear_343_7809" x1="82.2896" y1="50.5181" x2="85.7793" y2="55.3563" gradientUnits="userSpaceOnUse">
<stop stop-color="#BADA00"/>
<stop offset="0.2269" stop-color="#B0CE00"/>
<stop offset="0.6378" stop-color="#95AE00"/>
<stop offset="1" stop-color="#798C00"/>
</linearGradient>
<linearGradient id="paint36_linear_343_7809" x1="77.2824" y1="52.3886" x2="79.3865" y2="55.3054" gradientUnits="userSpaceOnUse">
<stop stop-color="#BADA00"/>
<stop offset="0.2269" stop-color="#B0CE00"/>
<stop offset="0.6378" stop-color="#95AE00"/>
<stop offset="1" stop-color="#798C00"/>
</linearGradient>
<linearGradient id="paint37_linear_343_7809" x1="74.89" y1="42.7519" x2="69.4852" y2="46.6504" gradientUnits="userSpaceOnUse">
<stop stop-color="#FF6359"/>
<stop offset="0.2243" stop-color="#FE5B50"/>
<stop offset="0.5952" stop-color="#FC4637"/>
<stop offset="1" stop-color="#F82814"/>
</linearGradient>
<linearGradient id="paint38_linear_343_7809" x1="65.817" y1="44.504" x2="63.2447" y2="46.3596" gradientUnits="userSpaceOnUse">
<stop stop-color="#FF6359"/>
<stop offset="0.2243" stop-color="#FE5B50"/>
<stop offset="0.5952" stop-color="#FC4637"/>
<stop offset="1" stop-color="#F82814"/>
</linearGradient>
<linearGradient id="paint39_linear_343_7809" x1="73.9517" y1="47.7163" x2="71.379" y2="49.5719" gradientUnits="userSpaceOnUse">
<stop stop-color="#FF6359"/>
<stop offset="0.2243" stop-color="#FE5B50"/>
<stop offset="0.5952" stop-color="#FC4637"/>
<stop offset="1" stop-color="#F82814"/>
</linearGradient>
<linearGradient id="paint40_linear_343_7809" x1="82.27" y1="44.3593" x2="79.6974" y2="46.2149" gradientUnits="userSpaceOnUse">
<stop stop-color="#FF6359"/>
<stop offset="0.2243" stop-color="#FE5B50"/>
<stop offset="0.5952" stop-color="#FC4637"/>
<stop offset="1" stop-color="#F82814"/>
</linearGradient>
<linearGradient id="paint41_linear_343_7809" x1="65.5707" y1="46.6569" x2="61.5763" y2="49.5384" gradientUnits="userSpaceOnUse">
<stop stop-color="#FF6359"/>
<stop offset="0.2243" stop-color="#FE5B50"/>
<stop offset="0.5952" stop-color="#FC4637"/>
<stop offset="1" stop-color="#F82814"/>
</linearGradient>
<linearGradient id="paint42_linear_343_7809" x1="70.3519" y1="43.8611" x2="67.1984" y2="46.1355" gradientUnits="userSpaceOnUse">
<stop stop-color="#FF6359"/>
<stop offset="0.2243" stop-color="#FE5B50"/>
<stop offset="0.5952" stop-color="#FC4637"/>
<stop offset="1" stop-color="#F82814"/>
</linearGradient>
<linearGradient id="paint43_linear_343_7809" x1="78.2148" y1="43.8611" x2="75.0615" y2="46.1355" gradientUnits="userSpaceOnUse">
<stop stop-color="#FF6359"/>
<stop offset="0.2243" stop-color="#FE5B50"/>
<stop offset="0.5952" stop-color="#FC4637"/>
<stop offset="1" stop-color="#F82814"/>
</linearGradient>
<linearGradient id="paint44_linear_343_7809" x1="71.4506" y1="46.0866" x2="69.5494" y2="47.4578" gradientUnits="userSpaceOnUse">
<stop stop-color="#FF6359"/>
<stop offset="0.2243" stop-color="#FE5B50"/>
<stop offset="0.5952" stop-color="#FC4637"/>
<stop offset="1" stop-color="#F82814"/>
</linearGradient>
<linearGradient id="paint45_linear_343_7809" x1="83.0345" y1="80.561" x2="56.1228" y2="64.3845" gradientUnits="userSpaceOnUse">
<stop stop-color="#F82814" stop-opacity="0"/>
<stop offset="1" stop-color="#C0272D"/>
</linearGradient>
<linearGradient id="paint46_linear_343_7809" x1="61.9798" y1="65.8558" x2="70.2981" y2="74.7855" gradientUnits="userSpaceOnUse">
<stop stop-color="#F8F6FB"/>
<stop offset="1" stop-color="#EFDCFB"/>
</linearGradient>
<linearGradient id="paint47_linear_343_7809" x1="61.168" y1="70.6708" x2="71.7638" y2="70.6708" gradientUnits="userSpaceOnUse">
<stop stop-color="#FAA68E"/>
<stop offset="0.3566" stop-color="#FB9D92"/>
<stop offset="0.9447" stop-color="#FF849B"/>
<stop offset="1" stop-color="#FF819C"/>
</linearGradient>
<linearGradient id="paint48_linear_343_7809" x1="93.8356" y1="69.401" x2="70.4532" y2="38.3716" gradientUnits="userSpaceOnUse">
<stop stop-color="#F82814" stop-opacity="0"/>
<stop offset="1" stop-color="#C0272D"/>
</linearGradient>
<linearGradient id="paint49_linear_343_7809" x1="76.8945" y1="51.6834" x2="84.5245" y2="59.8745" gradientUnits="userSpaceOnUse">
<stop stop-color="#F8F6FB"/>
<stop offset="1" stop-color="#EFDCFB"/>
</linearGradient>
<linearGradient id="paint50_linear_343_7809" x1="78.4313" y1="52.4272" x2="84.361" y2="60.0913" gradientUnits="userSpaceOnUse">
<stop stop-color="#FAA68E"/>
<stop offset="0.3566" stop-color="#FB9D92"/>
<stop offset="0.9447" stop-color="#FF849B"/>
<stop offset="1" stop-color="#FF819C"/>
</linearGradient>
<linearGradient id="paint51_linear_343_7809" x1="56.1708" y1="71.6193" x2="36.7111" y2="45.7955" gradientUnits="userSpaceOnUse">
<stop stop-color="#F82814" stop-opacity="0"/>
<stop offset="1" stop-color="#C0272D"/>
</linearGradient>
<linearGradient id="paint52_linear_343_7809" x1="41.8808" y1="57.198" x2="49.5108" y2="65.3892" gradientUnits="userSpaceOnUse">
<stop stop-color="#F8F6FB"/>
<stop offset="1" stop-color="#EFDCFB"/>
</linearGradient>
<linearGradient id="paint53_linear_343_7809" x1="43.4112" y1="57.9265" x2="49.3409" y2="65.5906" gradientUnits="userSpaceOnUse">
<stop stop-color="#FAA68E"/>
<stop offset="0.3566" stop-color="#FB9D92"/>
<stop offset="0.9447" stop-color="#FF849B"/>
<stop offset="1" stop-color="#FF819C"/>
</linearGradient>
<linearGradient id="paint54_linear_343_7809" x1="98.1067" y1="39.0731" x2="122.518" y2="50.6908" gradientUnits="userSpaceOnUse">
<stop stop-color="#E87264" stop-opacity="0"/>
<stop offset="1" stop-color="#F8DFBE"/>
</linearGradient>
<linearGradient id="paint55_linear_343_7809" x1="69.2696" y1="18.6422" x2="87.6202" y2="22.9598" gradientUnits="userSpaceOnUse">
<stop stop-color="#E87264" stop-opacity="0"/>
<stop offset="0.1575" stop-color="#E97869" stop-opacity="0.158"/>
<stop offset="0.3778" stop-color="#EC8B78" stop-opacity="0.378"/>
<stop offset="0.6353" stop-color="#F0A991" stop-opacity="0.635"/>
<stop offset="0.9188" stop-color="#F6D2B3" stop-opacity="0.919"/>
<stop offset="1" stop-color="#F8DFBE"/>
</linearGradient>
<linearGradient id="paint56_linear_343_7809" x1="49.1493" y1="38.581" x2="62.4825" y2="43.7769" gradientUnits="userSpaceOnUse">
<stop stop-color="#E87264" stop-opacity="0"/>
<stop offset="1" stop-color="#F8DFBE"/>
</linearGradient>
<linearGradient id="paint57_linear_343_7809" x1="124.69" y1="76.0436" x2="119.102" y2="64.7201" gradientUnits="userSpaceOnUse">
<stop stop-color="#EFDCFB" stop-opacity="0"/>
<stop offset="0.0287" stop-color="#E9D6F7" stop-opacity="0.029"/>
<stop offset="0.2203" stop-color="#C5B5DE" stop-opacity="0.22"/>
<stop offset="0.4138" stop-color="#AA9BCB" stop-opacity="0.414"/>
<stop offset="0.6078" stop-color="#9688BD" stop-opacity="0.608"/>
<stop offset="0.8028" stop-color="#8A7DB5" stop-opacity="0.803"/>
<stop offset="1" stop-color="#8679B2"/>
</linearGradient>
<linearGradient id="paint58_linear_343_7809" x1="111.736" y1="66.1502" x2="113.501" y2="68.9934" gradientUnits="userSpaceOnUse">
<stop stop-color="#FF6359"/>
<stop offset="0.2243" stop-color="#FE5B50"/>
<stop offset="0.5952" stop-color="#FC4637"/>
<stop offset="1" stop-color="#F82814"/>
</linearGradient>
<linearGradient id="paint59_linear_343_7809" x1="115.156" y1="66.6669" x2="118.097" y2="71.3728" gradientUnits="userSpaceOnUse">
<stop stop-color="#FF6359"/>
<stop offset="0.2243" stop-color="#FE5B50"/>
<stop offset="0.5952" stop-color="#FC4637"/>
<stop offset="1" stop-color="#F82814"/>
</linearGradient>
</defs>
</svg>
