<svg width="25" height="21" viewBox="0 0 25 21" fill="none" xmlns="http://www.w3.org/2000/svg">
<!-- <path d="M20.8401 4.61C20.3294 4.09901 19.7229 3.69365 19.0555 3.41709C18.388 3.14052 17.6726 2.99818 16.9501 2.99818C16.2276 2.99818 15.5122 3.14052 14.8448 3.41709C14.1773 3.69365 13.5709 4.09901 13.0601 4.61L12.0001 5.67L10.9401 4.61C9.90843 3.57831 8.50915 2.99871 7.05012 2.99871C5.59109 2.99871 4.19181 3.57831 3.16012 4.61C2.12843 5.64169 1.54883 7.04097 1.54883 8.5C1.54883 9.95903 2.12843 11.3583 3.16012 12.39L4.22012 13.45L12.0001 21.23L19.7801 13.45L20.8401 12.39C21.3511 11.8792 21.7565 11.2728 22.033 10.6054C22.3096 9.9379 22.4519 9.22249 22.4519 8.5C22.4519 7.77751 22.3096 7.06211 22.033 6.39465C21.7565 5.72719 21.3511 5.12076 20.8401 4.61Z" fill="#FF6E75" stroke="#3E5067" stroke-width="2" stroke-linecap="round" stroke-linejoin="round"/> -->
<path d="M21.3961 2.93556C20.8582 2.42456 20.2195 2.0192 19.5165 1.74264C18.8136 1.46608 18.0602 1.32373 17.2993 1.32373C16.5384 1.32373 15.7849 1.46608 15.082 1.74264C14.379 2.0192 13.7404 2.42456 13.2024 2.93556L12.0861 3.99556L10.9697 2.93556C9.8832 1.90386 8.40953 1.32427 6.87293 1.32427C5.33633 1.32427 3.86266 1.90386 2.77612 2.93556C1.68958 3.96725 1.07916 5.36652 1.07916 6.82556C1.07916 8.28459 1.68958 9.68386 2.77612 10.7156L3.89247 11.7756L12.0861 19.5556L20.2797 11.7756L21.3961 10.7156C21.9342 10.2048 22.3611 9.59837 22.6524 8.93091C22.9437 8.26345 23.0936 7.54804 23.0936 6.82556C23.0936 6.10307 22.9437 5.38766 22.6524 4.7202C22.3611 4.05274 21.9342 3.44631 21.3961 2.93556V2.93556Z" fill="#FF6E75" stroke="#3E5067" stroke-width="2" stroke-linecap="round" stroke-linejoin="round"/>
</svg>
