<svg width="48" height="48" viewBox="0 0 48 48" fill="none" xmlns="http://www.w3.org/2000/svg">
<path d="M23.7563 0H24.2427C27.3624 0 30.4515 0.614474 33.3338 1.80834C36.216 3.0022 38.8349 4.75207 41.0409 6.95805C43.2468 9.16402 44.9967 11.7829 46.1906 14.6651C47.3845 17.5474 47.9989 20.6366 47.9989 23.7563V24.2427C47.9989 30.5432 45.496 36.5857 41.0409 41.0409C36.5857 45.496 30.5432 47.9989 24.2427 47.9989H0V23.7563C0 17.4557 2.50289 11.4132 6.95805 6.95805C11.4132 2.50288 17.4557 0 23.7563 0Z" fill="white"/>
<path d="M31.9278 15.5986C31.3041 14.9684 30.456 14.6113 29.5694 14.6056C29.125 14.6015 28.6842 14.6873 28.2738 14.858C27.8634 15.0286 27.4917 15.2806 27.1812 15.5986C26.7117 16.068 26.3919 16.6661 26.2623 17.3173C26.1327 17.9685 26.1992 18.6434 26.4532 19.2569C26.7072 19.8703 27.1375 20.3946 27.6895 20.7634C28.2415 21.1323 28.8906 21.3292 29.5545 21.3292C30.2184 21.3292 30.8675 21.1323 31.4195 20.7634C31.9715 20.3946 32.4017 19.8703 32.6558 19.2569C32.9098 18.6434 32.9763 17.9685 32.8467 17.3173C32.7171 16.6661 32.3973 16.068 31.9278 15.5986ZM31.0926 19.51C30.7878 19.8177 30.3984 20.0279 29.9739 20.1139C29.5494 20.1999 29.1088 20.1579 28.7083 19.9931C28.3077 19.8283 27.9652 19.5481 27.7241 19.1883C27.483 18.8284 27.3543 18.405 27.3543 17.9719C27.3543 17.5388 27.483 17.1154 27.7241 16.7555C27.9652 16.3957 28.3077 16.1156 28.7083 15.9508C29.1088 15.7859 29.5494 15.7439 29.9739 15.8299C30.3984 15.9159 30.7878 16.1261 31.0926 16.4338C31.4993 16.8424 31.7276 17.3954 31.7276 17.9719C31.7276 18.5484 31.4993 19.1014 31.0926 19.51ZM31.9278 15.5986C31.3041 14.9684 30.456 14.6113 29.5694 14.6056C29.125 14.6015 28.6842 14.6873 28.2738 14.858C27.8634 15.0286 27.4917 15.2806 27.1812 15.5986C26.7117 16.068 26.3919 16.6661 26.2623 17.3173C26.1327 17.9685 26.1992 18.6434 26.4532 19.2569C26.7072 19.8703 27.1375 20.3946 27.6895 20.7634C28.2415 21.1323 28.8906 21.3292 29.5545 21.3292C30.2184 21.3292 30.8675 21.1323 31.4195 20.7634C31.9715 20.3946 32.4017 19.8703 32.6558 19.2569C32.9098 18.6434 32.9763 17.9685 32.8467 17.3173C32.7171 16.6661 32.3973 16.068 31.9278 15.5986ZM31.0926 19.51C30.7878 19.8177 30.3984 20.0279 29.9739 20.1139C29.5494 20.1999 29.1088 20.1579 28.7083 19.9931C28.3077 19.8283 27.9652 19.5481 27.7241 19.1883C27.483 18.8284 27.3543 18.405 27.3543 17.9719C27.3543 17.5388 27.483 17.1154 27.7241 16.7555C27.9652 16.3957 28.3077 16.1156 28.7083 15.9508C29.1088 15.7859 29.5494 15.7439 29.9739 15.8299C30.3984 15.9159 30.7878 16.1261 31.0926 16.4338C31.4993 16.8424 31.7276 17.3954 31.7276 17.9719C31.7276 18.5484 31.4993 19.1014 31.0926 19.51ZM31.9278 15.5986C31.3041 14.9684 30.456 14.6113 29.5694 14.6056C29.125 14.6015 28.6842 14.6873 28.2738 14.858C27.8634 15.0286 27.4917 15.2806 27.1812 15.5986C26.7117 16.068 26.3919 16.6661 26.2623 17.3173C26.1327 17.9685 26.1992 18.6434 26.4532 19.2569C26.7072 19.8703 27.1375 20.3946 27.6895 20.7634C28.2415 21.1323 28.8906 21.3292 29.5545 21.3292C30.2184 21.3292 30.8675 21.1323 31.4195 20.7634C31.9715 20.3946 32.4017 19.8703 32.6558 19.2569C32.9098 18.6434 32.9763 17.9685 32.8467 17.3173C32.7171 16.6661 32.3973 16.068 31.9278 15.5986ZM31.0926 19.51C30.7878 19.8177 30.3984 20.0279 29.9739 20.1139C29.5494 20.1999 29.1088 20.1579 28.7083 19.9931C28.3077 19.8283 27.9652 19.5481 27.7241 19.1883C27.483 18.8284 27.3543 18.405 27.3543 17.9719C27.3543 17.5388 27.483 17.1154 27.7241 16.7555C27.9652 16.3957 28.3077 16.1156 28.7083 15.9508C29.1088 15.7859 29.5494 15.7439 29.9739 15.8299C30.3984 15.9159 30.7878 16.1261 31.0926 16.4338C31.4993 16.8424 31.7276 17.3954 31.7276 17.9719C31.7276 18.5484 31.4993 19.1014 31.0926 19.51ZM31.9278 15.5986C31.3041 14.9684 30.456 14.6113 29.5694 14.6056C29.125 14.6015 28.6842 14.6873 28.2738 14.858C27.8634 15.0286 27.4917 15.2806 27.1812 15.5986C26.7117 16.068 26.3919 16.6661 26.2623 17.3173C26.1327 17.9685 26.1992 18.6434 26.4532 19.2569C26.7072 19.8703 27.1375 20.3946 27.6895 20.7634C28.2415 21.1323 28.8906 21.3292 29.5545 21.3292C30.2184 21.3292 30.8675 21.1323 31.4195 20.7634C31.9715 20.3946 32.4017 19.8703 32.6558 19.2569C32.9098 18.6434 32.9763 17.9685 32.8467 17.3173C32.7171 16.6661 32.3973 16.068 31.9278 15.5986ZM31.0926 19.51C30.7878 19.8177 30.3984 20.0279 29.9739 20.1139C29.5494 20.1999 29.1088 20.1579 28.7083 19.9931C28.3077 19.8283 27.9652 19.5481 27.7241 19.1883C27.483 18.8284 27.3543 18.405 27.3543 17.9719C27.3543 17.5388 27.483 17.1154 27.7241 16.7555C27.9652 16.3957 28.3077 16.1156 28.7083 15.9508C29.1088 15.7859 29.5494 15.7439 29.9739 15.8299C30.3984 15.9159 30.7878 16.1261 31.0926 16.4338C31.4993 16.8424 31.7276 17.3954 31.7276 17.9719C31.7276 18.5484 31.4993 19.1014 31.0926 19.51ZM31.9278 15.5986C31.3041 14.9684 30.456 14.6113 29.5694 14.6056C29.125 14.6015 28.6842 14.6873 28.2738 14.858C27.8634 15.0286 27.4917 15.2806 27.1812 15.5986C26.7117 16.068 26.3919 16.6661 26.2623 17.3173C26.1327 17.9685 26.1992 18.6434 26.4532 19.2569C26.7072 19.8703 27.1375 20.3946 27.6895 20.7634C28.2415 21.1323 28.8906 21.3292 29.5545 21.3292C30.2184 21.3292 30.8675 21.1323 31.4195 20.7634C31.9715 20.3946 32.4017 19.8703 32.6558 19.2569C32.9098 18.6434 32.9763 17.9685 32.8467 17.3173C32.7171 16.6661 32.3973 16.068 31.9278 15.5986ZM31.0926 19.51C30.7878 19.8177 30.3984 20.0279 29.9739 20.1139C29.5494 20.1999 29.1088 20.1579 28.7083 19.9931C28.3077 19.8283 27.9652 19.5481 27.7241 19.1883C27.483 18.8284 27.3543 18.405 27.3543 17.9719C27.3543 17.5388 27.483 17.1154 27.7241 16.7555C27.9652 16.3957 28.3077 16.1156 28.7083 15.9508C29.1088 15.7859 29.5494 15.7439 29.9739 15.8299C30.3984 15.9159 30.7878 16.1261 31.0926 16.4338C31.4993 16.8424 31.7276 17.3954 31.7276 17.9719C31.7276 18.5484 31.4993 19.1014 31.0926 19.51ZM31.9278 15.5986C31.3041 14.9684 30.456 14.6113 29.5694 14.6056C29.125 14.6015 28.6842 14.6873 28.2738 14.858C27.8634 15.0286 27.4917 15.2806 27.1812 15.5986C26.7117 16.068 26.3919 16.6661 26.2623 17.3173C26.1327 17.9685 26.1992 18.6434 26.4532 19.2569C26.7072 19.8703 27.1375 20.3946 27.6895 20.7634C28.2415 21.1323 28.8906 21.3292 29.5545 21.3292C30.2184 21.3292 30.8675 21.1323 31.4195 20.7634C31.9715 20.3946 32.4017 19.8703 32.6558 19.2569C32.9098 18.6434 32.9763 17.9685 32.8467 17.3173C32.7171 16.6661 32.3973 16.068 31.9278 15.5986ZM31.0926 19.51C30.7878 19.8177 30.3984 20.0279 29.9739 20.1139C29.5494 20.1999 29.1088 20.1579 28.7083 19.9931C28.3077 19.8283 27.9652 19.5481 27.7241 19.1883C27.483 18.8284 27.3543 18.405 27.3543 17.9719C27.3543 17.5388 27.483 17.1154 27.7241 16.7555C27.9652 16.3957 28.3077 16.1156 28.7083 15.9508C29.1088 15.7859 29.5494 15.7439 29.9739 15.8299C30.3984 15.9159 30.7878 16.1261 31.0926 16.4338C31.4993 16.8424 31.7276 17.3954 31.7276 17.9719C31.7276 18.5484 31.4993 19.1014 31.0926 19.51ZM31.9278 15.5986C31.3041 14.9684 30.456 14.6113 29.5694 14.6056C29.125 14.6015 28.6842 14.6873 28.2738 14.858C27.8634 15.0286 27.4917 15.2806 27.1812 15.5986C26.7117 16.068 26.3919 16.6661 26.2623 17.3173C26.1327 17.9685 26.1992 18.6434 26.4532 19.2569C26.7072 19.8703 27.1375 20.3946 27.6895 20.7634C28.2415 21.1323 28.8906 21.3292 29.5545 21.3292C30.2184 21.3292 30.8675 21.1323 31.4195 20.7634C31.9715 20.3946 32.4017 19.8703 32.6558 19.2569C32.9098 18.6434 32.9763 17.9685 32.8467 17.3173C32.7171 16.6661 32.3973 16.068 31.9278 15.5986ZM31.0926 19.51C30.7878 19.8177 30.3984 20.0279 29.9739 20.1139C29.5494 20.1999 29.1088 20.1579 28.7083 19.9931C28.3077 19.8283 27.9652 19.5481 27.7241 19.1883C27.483 18.8284 27.3543 18.405 27.3543 17.9719C27.3543 17.5388 27.483 17.1154 27.7241 16.7555C27.9652 16.3957 28.3077 16.1156 28.7083 15.9508C29.1088 15.7859 29.5494 15.7439 29.9739 15.8299C30.3984 15.9159 30.7878 16.1261 31.0926 16.4338C31.4993 16.8424 31.7276 17.3954 31.7276 17.9719C31.7276 18.5484 31.4993 19.1014 31.0926 19.51ZM31.9278 15.5986C31.3041 14.9684 30.456 14.6113 29.5694 14.6056C29.125 14.6015 28.6842 14.6873 28.2738 14.858C27.8634 15.0286 27.4917 15.2806 27.1812 15.5986C26.7117 16.068 26.3919 16.6661 26.2623 17.3173C26.1327 17.9685 26.1992 18.6434 26.4532 19.2569C26.7072 19.8703 27.1375 20.3946 27.6895 20.7634C28.2415 21.1323 28.8906 21.3292 29.5545 21.3292C30.2184 21.3292 30.8675 21.1323 31.4195 20.7634C31.9715 20.3946 32.4017 19.8703 32.6558 19.2569C32.9098 18.6434 32.9763 17.9685 32.8467 17.3173C32.7171 16.6661 32.3973 16.068 31.9278 15.5986ZM31.0926 19.51C30.7878 19.8177 30.3984 20.0279 29.9739 20.1139C29.5494 20.1999 29.1088 20.1579 28.7083 19.9931C28.3077 19.8283 27.9652 19.5481 27.7241 19.1883C27.483 18.8284 27.3543 18.405 27.3543 17.9719C27.3543 17.5388 27.483 17.1154 27.7241 16.7555C27.9652 16.3957 28.3077 16.1156 28.7083 15.9508C29.1088 15.7859 29.5494 15.7439 29.9739 15.8299C30.3984 15.9159 30.7878 16.1261 31.0926 16.4338C31.4993 16.8424 31.7276 17.3954 31.7276 17.9719C31.7276 18.5484 31.4993 19.1014 31.0926 19.51ZM31.9278 15.5986C31.3041 14.9684 30.456 14.6113 29.5694 14.6056C29.125 14.6015 28.6842 14.6873 28.2738 14.858C27.8634 15.0286 27.4917 15.2806 27.1812 15.5986C26.7117 16.068 26.3919 16.6661 26.2623 17.3173C26.1327 17.9685 26.1992 18.6434 26.4532 19.2569C26.7072 19.8703 27.1375 20.3946 27.6895 20.7634C28.2415 21.1323 28.8906 21.3292 29.5545 21.3292C30.2184 21.3292 30.8675 21.1323 31.4195 20.7634C31.9715 20.3946 32.4017 19.8703 32.6558 19.2569C32.9098 18.6434 32.9763 17.9685 32.8467 17.3173C32.7171 16.6661 32.3973 16.068 31.9278 15.5986ZM31.0926 19.51C30.7878 19.8177 30.3984 20.0279 29.9739 20.1139C29.5494 20.1999 29.1088 20.1579 28.7083 19.9931C28.3077 19.8283 27.9652 19.5481 27.7241 19.1883C27.483 18.8284 27.3543 18.405 27.3543 17.9719C27.3543 17.5388 27.483 17.1154 27.7241 16.7555C27.9652 16.3957 28.3077 16.1156 28.7083 15.9508C29.1088 15.7859 29.5494 15.7439 29.9739 15.8299C30.3984 15.9159 30.7878 16.1261 31.0926 16.4338C31.4993 16.8424 31.7276 17.3954 31.7276 17.9719C31.7276 18.5484 31.4993 19.1014 31.0926 19.51ZM31.9278 15.5986C31.3041 14.9684 30.456 14.6113 29.5694 14.6056C29.125 14.6015 28.6842 14.6873 28.2738 14.858C27.8634 15.0286 27.4917 15.2806 27.1812 15.5986C26.7117 16.068 26.3919 16.6661 26.2623 17.3173C26.1327 17.9685 26.1992 18.6434 26.4532 19.2569C26.7072 19.8703 27.1375 20.3946 27.6895 20.7634C28.2415 21.1323 28.8906 21.3292 29.5545 21.3292C30.2184 21.3292 30.8675 21.1323 31.4195 20.7634C31.9715 20.3946 32.4017 19.8703 32.6558 19.2569C32.9098 18.6434 32.9763 17.9685 32.8467 17.3173C32.7171 16.6661 32.3973 16.068 31.9278 15.5986ZM31.0926 19.51C30.7878 19.8177 30.3984 20.0279 29.9739 20.1139C29.5494 20.1999 29.1088 20.1579 28.7083 19.9931C28.3077 19.8283 27.9652 19.5481 27.7241 19.1883C27.483 18.8284 27.3543 18.405 27.3543 17.9719C27.3543 17.5388 27.483 17.1154 27.7241 16.7555C27.9652 16.3957 28.3077 16.1156 28.7083 15.9508C29.1088 15.7859 29.5494 15.7439 29.9739 15.8299C30.3984 15.9159 30.7878 16.1261 31.0926 16.4338C31.4993 16.8424 31.7276 17.3954 31.7276 17.9719C31.7276 18.5484 31.4993 19.1014 31.0926 19.51ZM31.9278 15.5986C31.3041 14.9684 30.456 14.6113 29.5694 14.6056C29.125 14.6015 28.6842 14.6873 28.2738 14.858C27.8634 15.0286 27.4917 15.2806 27.1812 15.5986C26.7117 16.068 26.3919 16.6661 26.2623 17.3173C26.1327 17.9685 26.1992 18.6434 26.4532 19.2569C26.7072 19.8703 27.1375 20.3946 27.6895 20.7634C28.2415 21.1323 28.8906 21.3292 29.5545 21.3292C30.2184 21.3292 30.8675 21.1323 31.4195 20.7634C31.9715 20.3946 32.4017 19.8703 32.6558 19.2569C32.9098 18.6434 32.9763 17.9685 32.8467 17.3173C32.7171 16.6661 32.3973 16.068 31.9278 15.5986ZM31.0926 19.51C30.7878 19.8177 30.3984 20.0279 29.9739 20.1139C29.5494 20.1999 29.1088 20.1579 28.7083 19.9931C28.3077 19.8283 27.9652 19.5481 27.7241 19.1883C27.483 18.8284 27.3543 18.405 27.3543 17.9719C27.3543 17.5388 27.483 17.1154 27.7241 16.7555C27.9652 16.3957 28.3077 16.1156 28.7083 15.9508C29.1088 15.7859 29.5494 15.7439 29.9739 15.8299C30.3984 15.9159 30.7878 16.1261 31.0926 16.4338C31.4993 16.8424 31.7276 17.3954 31.7276 17.9719C31.7276 18.5484 31.4993 19.1014 31.0926 19.51ZM31.9278 15.5986C31.3041 14.9684 30.456 14.6113 29.5694 14.6056C29.125 14.6015 28.6842 14.6873 28.2738 14.858C27.8634 15.0286 27.4917 15.2806 27.1812 15.5986C26.7117 16.068 26.3919 16.6661 26.2623 17.3173C26.1327 17.9685 26.1992 18.6434 26.4532 19.2569C26.7072 19.8703 27.1375 20.3946 27.6895 20.7634C28.2415 21.1323 28.8906 21.3292 29.5545 21.3292C30.2184 21.3292 30.8675 21.1323 31.4195 20.7634C31.9715 20.3946 32.4017 19.8703 32.6558 19.2569C32.9098 18.6434 32.9763 17.9685 32.8467 17.3173C32.7171 16.6661 32.3973 16.068 31.9278 15.5986ZM31.0926 19.51C30.7878 19.8177 30.3984 20.0279 29.9739 20.1139C29.5494 20.1999 29.1088 20.1579 28.7083 19.9931C28.3077 19.8283 27.9652 19.5481 27.7241 19.1883C27.483 18.8284 27.3543 18.405 27.3543 17.9719C27.3543 17.5388 27.483 17.1154 27.7241 16.7555C27.9652 16.3957 28.3077 16.1156 28.7083 15.9508C29.1088 15.7859 29.5494 15.7439 29.9739 15.8299C30.3984 15.9159 30.7878 16.1261 31.0926 16.4338C31.4993 16.8424 31.7276 17.3954 31.7276 17.9719C31.7276 18.5484 31.4993 19.1014 31.0926 19.51ZM31.9278 15.5986C31.3041 14.9684 30.456 14.6113 29.5694 14.6056C29.125 14.6015 28.6842 14.6873 28.2738 14.858C27.8634 15.0286 27.4917 15.2806 27.1812 15.5986C26.7117 16.068 26.3919 16.6661 26.2623 17.3173C26.1327 17.9685 26.1992 18.6434 26.4532 19.2569C26.7072 19.8703 27.1375 20.3946 27.6895 20.7634C28.2415 21.1323 28.8906 21.3292 29.5545 21.3292C30.2184 21.3292 30.8675 21.1323 31.4195 20.7634C31.9715 20.3946 32.4017 19.8703 32.6558 19.2569C32.9098 18.6434 32.9763 17.9685 32.8467 17.3173C32.7171 16.6661 32.3973 16.068 31.9278 15.5986ZM31.0926 19.51C30.7878 19.8177 30.3984 20.0279 29.9739 20.1139C29.5494 20.1999 29.1088 20.1579 28.7083 19.9931C28.3077 19.8283 27.9652 19.5481 27.7241 19.1883C27.483 18.8284 27.3543 18.405 27.3543 17.9719C27.3543 17.5388 27.483 17.1154 27.7241 16.7555C27.9652 16.3957 28.3077 16.1156 28.7083 15.9508C29.1088 15.7859 29.5494 15.7439 29.9739 15.8299C30.3984 15.9159 30.7878 16.1261 31.0926 16.4338C31.4993 16.8424 31.7276 17.3954 31.7276 17.9719C31.7276 18.5484 31.4993 19.1014 31.0926 19.51ZM31.9278 15.5986C31.3041 14.9684 30.456 14.6113 29.5694 14.6056C29.125 14.6015 28.6842 14.6873 28.2738 14.858C27.8634 15.0286 27.4917 15.2806 27.1812 15.5986C26.7117 16.068 26.3919 16.6661 26.2623 17.3173C26.1327 17.9685 26.1992 18.6434 26.4532 19.2569C26.7072 19.8703 27.1375 20.3946 27.6895 20.7634C28.2415 21.1323 28.8906 21.3292 29.5545 21.3292C30.2184 21.3292 30.8675 21.1323 31.4195 20.7634C31.9715 20.3946 32.4017 19.8703 32.6558 19.2569C32.9098 18.6434 32.9763 17.9685 32.8467 17.3173C32.7171 16.6661 32.3973 16.068 31.9278 15.5986ZM31.0926 19.51C30.7878 19.8177 30.3984 20.0279 29.9739 20.1139C29.5494 20.1999 29.1088 20.1579 28.7083 19.9931C28.3077 19.8283 27.9652 19.5481 27.7241 19.1883C27.483 18.8284 27.3543 18.405 27.3543 17.9719C27.3543 17.5388 27.483 17.1154 27.7241 16.7555C27.9652 16.3957 28.3077 16.1156 28.7083 15.9508C29.1088 15.7859 29.5494 15.7439 29.9739 15.8299C30.3984 15.9159 30.7878 16.1261 31.0926 16.4338C31.4993 16.8424 31.7276 17.3954 31.7276 17.9719C31.7276 18.5484 31.4993 19.1014 31.0926 19.51ZM31.9278 15.5986C31.3041 14.9684 30.456 14.6113 29.5694 14.6056C29.125 14.6015 28.6842 14.6873 28.2738 14.858C27.8634 15.0286 27.4917 15.2806 27.1812 15.5986C26.7117 16.068 26.3919 16.6661 26.2623 17.3173C26.1327 17.9685 26.1992 18.6434 26.4532 19.2569C26.7072 19.8703 27.1375 20.3946 27.6895 20.7634C28.2415 21.1323 28.8906 21.3292 29.5545 21.3292C30.2184 21.3292 30.8675 21.1323 31.4195 20.7634C31.9715 20.3946 32.4017 19.8703 32.6558 19.2569C32.9098 18.6434 32.9763 17.9685 32.8467 17.3173C32.7171 16.6661 32.3973 16.068 31.9278 15.5986ZM31.0926 19.51C30.7878 19.8177 30.3984 20.0279 29.9739 20.1139C29.5494 20.1999 29.1088 20.1579 28.7083 19.9931C28.3077 19.8283 27.9652 19.5481 27.7241 19.1883C27.483 18.8284 27.3543 18.405 27.3543 17.9719C27.3543 17.5388 27.483 17.1154 27.7241 16.7555C27.9652 16.3957 28.3077 16.1156 28.7083 15.9508C29.1088 15.7859 29.5494 15.7439 29.9739 15.8299C30.3984 15.9159 30.7878 16.1261 31.0926 16.4338C31.4993 16.8424 31.7276 17.3954 31.7276 17.9719C31.7276 18.5484 31.4993 19.1014 31.0926 19.51Z" fill="#231F20"/>
<path d="M37.6706 9.9912C37.5303 9.84987 37.3587 9.74351 37.1698 9.6807C36.9808 9.61789 36.7797 9.60039 36.5827 9.62962L35.1107 9.89414C30.9582 10.6902 27.016 12.3387 23.5329 14.7354C20.0498 17.1322 17.1015 20.2253 14.8743 23.8192C14.8541 23.8511 14.836 23.8842 14.8199 23.9184C14.7869 23.9762 14.759 24.0369 14.7367 24.0997C14.6418 24.3856 14.6578 24.7589 14.7794 25.1983C15.0013 26.0228 15.5805 27.0746 16.4338 28.1689C16.2023 27.8133 16.0227 27.4265 15.9005 27.0202C15.8265 26.8016 15.8176 26.5663 15.8748 26.3428C15.8886 26.3039 15.9053 26.2661 15.925 26.2298C15.929 26.2221 15.9344 26.2152 15.941 26.2095C15.9568 26.1841 15.9758 26.1608 15.9975 26.1402C16.182 25.9567 16.502 25.9343 16.9063 26.0495C17.6668 26.2628 18.726 26.9572 19.7254 27.9588C20.7249 28.9604 21.4139 30.0089 21.6294 30.7694C21.7489 31.1779 21.7265 31.5011 21.5451 31.6857L21.5313 31.6974C21.514 31.7137 21.4954 31.7287 21.4758 31.7422C21.405 31.7889 21.325 31.8199 21.2411 31.8329C21.0352 31.8594 20.826 31.8393 20.6289 31.7742C20.2328 31.6472 19.8554 31.4678 19.5068 31.2409C20.5819 32.0803 21.6134 32.6563 22.4347 32.8888C22.7539 32.9932 23.0924 33.0256 23.4256 32.9838C23.5599 32.9499 23.6878 32.8944 23.8043 32.8195L23.8949 32.7651C27.4532 30.5905 30.5186 27.6974 32.8952 24.2708C35.2718 20.8441 36.9073 16.9594 37.6973 12.8647L38.0248 11.1037V11.0813C38.0545 10.8846 38.038 10.6836 37.9765 10.4944C37.9151 10.3052 37.8103 10.1329 37.6706 9.9912ZM36.5421 12.6439C35.0755 20.2736 30.0719 27.3348 23.5749 31.5961C23.2251 30.3662 21.9526 28.5241 20.3409 26.9124C18.7292 25.3007 17.3543 24.4592 16.1212 24.1136C20.4667 17.575 27.6058 12.5288 35.3368 11.0568L36.7565 10.7976C36.7711 10.7971 36.7856 10.7996 36.7992 10.8049C36.8128 10.8102 36.8251 10.8182 36.8354 10.8285C36.8449 10.8389 36.8522 10.851 36.857 10.8642C36.8617 10.8773 36.8638 10.8913 36.8632 10.9053L36.5421 12.6439Z" fill="#231F20"/>
<path d="M32.8036 27.7497C32.7817 27.5825 32.7093 27.4259 32.5961 27.3009C32.4829 27.1758 32.3343 27.0883 32.17 27.05C32.0127 27.0153 31.8486 27.0278 31.6984 27.0859C31.5481 27.1439 31.4183 27.245 31.3252 27.3764C30.0234 28.917 28.5717 30.3245 26.9914 31.5779L26.9776 31.5907C26.8041 31.6648 26.6654 31.8023 26.5899 31.9752C26.5143 32.148 26.5077 32.3432 26.5712 32.5208L28.1061 36.3426C28.1676 36.5414 28.2839 36.7189 28.4416 36.8548C28.5993 36.9906 28.792 37.0792 28.9978 37.1106C29.0573 37.1209 29.1176 37.1259 29.1781 37.1255C29.3665 37.1255 29.5519 37.0787 29.7178 36.9894C29.8837 36.9 30.0248 36.7709 30.1284 36.6135L31.0095 35.34C32.5419 33.126 33.1826 30.4155 32.8036 27.7497ZM30.0367 34.668L29.1962 35.884L27.8096 32.4355C29.2125 31.3132 30.5185 30.0748 31.7135 28.7332C31.8276 30.8426 31.2378 32.9302 30.0367 34.668Z" fill="#231F20"/>
<path d="M20.614 15.5922C20.5751 15.4281 20.4871 15.2799 20.3617 15.1672C20.2362 15.0546 20.0794 14.9829 19.9121 14.9618C17.2461 14.5832 14.5353 15.2238 12.3208 16.7559L11.0889 17.6092C10.8983 17.7004 10.7391 17.846 10.6314 18.0277C10.5238 18.2095 10.4725 18.4191 10.4841 18.63C10.5002 18.8491 10.5825 19.0582 10.72 19.2296C10.8575 19.401 11.0438 19.5267 11.2542 19.59L15.044 21.1121L15.077 21.1238C15.1494 21.1471 15.225 21.159 15.301 21.159C15.5115 21.15 15.7147 21.0795 15.8856 20.9563L15.9336 20.9243L16.0402 20.8177L16.0925 20.759C17.2317 19.2657 18.6023 17.8471 20.2844 16.4359C20.4156 16.3427 20.5167 16.2132 20.5752 16.0633C20.6338 15.9134 20.6473 15.7496 20.614 15.5922ZM15.2466 19.9228L11.8152 18.5436L12.9886 17.7287C14.725 16.5271 16.8115 15.9365 18.9202 16.0498C17.572 17.2176 16.3416 18.5148 15.2466 19.9228Z" fill="#231F20"/>
<path fill-rule="evenodd" clip-rule="evenodd" d="M7.68729 42.7062C7.67769 42.7393 7.66916 42.7724 7.66062 42.8065C7.60152 43.0403 7.56931 43.2801 7.56462 43.5212C7.56292 44.0265 7.61657 44.5304 7.72462 45.0241C7.75875 45.1969 7.85581 45.4102 7.85688 45.5862C7.85688 45.5862 7.83341 43.4838 11.396 41.9713C17.0844 39.5543 18.9745 35.7848 18.4454 33.0425C18.2396 33.4798 17.8673 33.8446 17.5281 34.299C17.2026 34.7375 16.8178 35.1288 16.3847 35.4616C16.0133 35.7466 15.609 35.9858 15.1805 36.1741C14.8286 36.3301 14.4615 36.4491 14.085 36.5293C13.7245 36.605 13.316 36.684 12.9544 36.5763C12.9432 36.5745 12.9326 36.5704 12.9232 36.5641C12.9138 36.5578 12.9059 36.5496 12.9 36.54C12.8952 36.5251 12.8952 36.509 12.9 36.4941C12.9282 36.338 12.9838 36.1882 13.0642 36.0515C13.1055 35.9806 13.153 35.9134 13.2061 35.8509C13.2584 35.7912 13.3245 35.7443 13.3757 35.6845C13.332 35.6963 13.2861 35.6931 13.2424 35.7016C13.1784 35.7144 13.1144 35.7293 13.0514 35.7453C12.8616 35.7933 12.6749 35.8531 12.4925 35.9245C12.0298 36.101 11.5997 36.3533 11.22 36.6712C10.6004 37.2007 10.023 37.7777 9.49311 38.397C9.49311 38.397 10.4136 33.3657 12.7368 31.2153C13.4144 30.5659 14.1933 30.0313 15.0429 29.6324C11.1453 29.018 6.93637 35.1736 5.18281 39.9095C2.90766 46.0566 0.00105667 48 0.00105667 48C0.622909 47.7077 1.18503 47.2619 1.73008 46.8491C2.4874 46.2752 3.22339 45.6758 3.95297 45.0625C4.58727 44.5291 5.2141 43.9876 5.83346 43.438C6.01906 43.2726 6.20465 43.1062 6.38491 42.9356C6.69952 42.6242 7.08167 42.3895 7.50169 42.2497C7.63426 42.2068 7.76972 42.1733 7.90702 42.1495C7.86755 42.1569 7.78969 42.4097 7.77369 42.4503C7.74062 42.5324 7.71182 42.6177 7.68729 42.7062Z" fill="#231F20"/>
</svg>
