<svg width="151" height="96" viewBox="0 0 151 96" fill="none" xmlns="http://www.w3.org/2000/svg">
<path d="M75.9937 85.5442C63.6114 85.5442 52.2476 83.7106 43.3467 80.6542C44.6273 85.7192 47.0331 89.5498 49.9996 90.7756C56.6949 93.5427 65.8705 95.2492 75.9937 95.2492C86.117 95.2492 95.2926 93.5427 101.988 90.7756C104.954 89.5498 107.36 85.7192 108.641 80.6542C99.7399 83.7106 88.3761 85.5442 75.9937 85.5442Z" fill="url(#paint0_linear_343_7041)"/>
<path d="M150.994 37.7047C150.994 16.8588 0.993652 16.8588 0.993652 37.7047C0.993652 58.5506 18.6192 89.1188 75.9937 89.1188C133.368 89.1188 150.994 58.5509 150.994 37.7047Z" fill="url(#paint1_linear_343_7041)"/>
<path d="M150.994 37.7047C150.994 58.5506 0.993652 58.5506 0.993652 37.7047C0.993652 16.8588 150.994 16.8588 150.994 37.7047Z" fill="url(#paint2_linear_343_7041)"/>
<path d="M130.111 22.5989C130.111 44.8698 25.8804 44.8698 25.8804 22.5989C25.8804 18.7589 28.9807 15.5818 34.1098 13.0662C35.973 12.1524 37.6916 10.6692 39.1283 8.65769L39.2824 8.4421C42.4066 4.06857 46.9298 2.84122 50.866 5.29887L50.8689 5.30063C54.2316 7.40034 58.0654 6.83564 61.096 3.79446L61.3842 3.50505C64.7263 0.151517 69.0239 -0.123483 72.5416 2.79063L72.8104 3.01328C76.0413 5.68975 79.953 5.69034 83.1842 3.01446L83.4548 2.79034C86.973 -0.123189 91.2707 0.152986 94.6127 3.5071L94.9624 3.85799C97.9763 6.88269 101.793 7.42416 105.127 5.30034C109.034 2.81093 113.545 4.01005 116.655 8.36475L116.864 8.65769C118.301 10.6692 120.019 12.1527 121.882 13.0662C127.011 15.5818 130.111 18.7592 130.111 22.5989Z" fill="url(#paint3_linear_343_7041)"/>
<path d="M113.792 14.7529C110.789 14.7529 108.355 17.187 108.355 20.19C108.355 23.1929 110.789 25.627 113.792 25.627C116.795 25.627 119.229 23.1929 119.229 20.19C119.229 17.187 116.795 14.7529 113.792 14.7529ZM113.792 22.4979C112.517 22.4979 111.484 21.4647 111.484 20.19C111.484 18.9153 112.517 17.882 113.792 17.882C115.067 17.882 116.1 18.9153 116.1 20.19C116.1 21.4647 115.066 22.4979 113.792 22.4979Z" fill="url(#paint4_linear_343_7041)"/>
<path d="M71.9322 4.31531C68.9292 4.31531 66.4951 6.74943 66.4951 9.75237C66.4951 12.7553 68.9292 15.1894 71.9322 15.1894C74.9348 15.1894 77.3692 12.7553 77.3692 9.75237C77.3692 6.74943 74.9351 4.31531 71.9322 4.31531ZM71.9322 12.06C70.6575 12.06 69.6242 11.0268 69.6242 9.75207C69.6242 8.47737 70.6575 7.44413 71.9322 7.44413C73.2069 7.44413 74.2401 8.47737 74.2401 9.75207C74.2401 11.0268 73.2069 12.06 71.9322 12.06Z" fill="url(#paint5_linear_343_7041)"/>
<path d="M103.631 34.6219C109.243 34.6219 113.792 30.0729 113.792 24.4616C113.792 18.8502 109.243 14.3013 103.631 14.3013C98.0201 14.3013 93.4712 18.8502 93.4712 24.4616C93.4712 30.0729 98.0201 34.6219 103.631 34.6219Z" fill="url(#paint6_linear_343_7041)"/>
<path d="M100.771 37.7941L69.5212 6.52737C67.5653 4.57149 65.2403 3.80002 62.798 2.92737C62.3009 3.27443 61.8492 3.03855 61.3845 3.50502L61.0962 3.79443C58.0653 6.83561 54.2315 7.40031 50.8692 5.3006L50.8662 5.29884C49.623 4.52266 48.6153 4.56649 47.3177 4.50854C46.2253 5.20472 45.2412 5.86031 44.2874 6.81413C37.2239 13.8777 36.8777 25.0438 43.9412 32.1077L48.4792 36.6456C63.8006 39.7494 84.1974 40.1327 100.771 37.7941Z" fill="url(#paint7_linear_343_7041)"/>
<path d="M144.8 37.7047C144.8 53.0674 7.18701 53.0674 7.18701 37.7047C7.18701 22.3421 144.8 22.3424 144.8 37.7047Z" fill="url(#paint8_linear_343_7041)"/>
<path d="M2.87354 49.7827C3.83559 52.8924 5.19148 56.0448 6.99559 59.143C32.7959 70.4021 119.191 70.4021 144.991 59.143C146.796 56.0448 148.151 52.8924 149.113 49.7827C129.203 64.0583 22.7844 64.0583 2.87354 49.7827Z" fill="url(#paint9_linear_343_7041)"/>
<path d="M144.726 37.1062C144.582 38.1238 144.208 39.1121 143.632 40.068C141.407 42.2283 136.131 44.0065 128.883 45.4024C124.93 46.1638 120.39 45.3409 115.438 45.8747C110.948 46.3588 106.12 48.22 101.084 48.5171C93.3534 48.973 85.1334 49.2088 76.8963 49.2238C69.6022 49.2415 53.8669 46.3768 53.7199 44.9886C53.3404 41.415 55.7375 38.1709 59.9699 35.3562C60.4375 35.0474 60.8904 34.6886 61.3199 34.2827C62.3051 33.3562 63.1875 32.1856 63.9228 30.7915L64.0346 30.5768C65.1728 28.4209 66.6846 26.9503 68.3699 26.2444C69.8199 25.6385 71.3963 25.6033 72.9728 26.1915C73.264 26.3003 73.5552 26.4297 73.8434 26.5827L73.8463 26.5856C76.1728 27.8033 78.5846 27.6356 80.6316 26.2062C81.3493 25.7062 82.0228 25.0474 82.6316 24.2415L82.8551 23.9444C85.4463 20.515 89.1728 19.8621 92.5316 22.2503L92.7875 22.4327C95.8728 24.6268 99.2905 24.268 101.849 21.4797L102.064 21.2444C104.849 18.2091 108.632 18.0709 111.879 20.8856L112.22 21.1797C115.149 23.718 118.535 23.8709 121.24 21.5856C122.52 20.5062 123.943 19.9738 125.393 19.9738C127.535 19.9738 129.735 21.1297 131.611 23.3768L131.82 23.6297C133.273 25.368 134.92 26.5915 136.638 27.2709C141.364 29.1385 144.385 31.8121 144.761 35.3856C144.823 35.968 144.811 36.5444 144.726 37.1062Z" fill="url(#paint10_linear_343_7041)"/>
<path d="M69.5208 6.52738C62.4573 -0.536146 51.0047 -0.536146 43.9408 6.52738C36.877 13.5909 36.8773 25.0436 43.9408 32.1074C51.0044 39.1709 62.457 39.1709 69.5208 32.1074C76.5847 25.0439 76.5847 13.5912 69.5208 6.52738ZM48.6091 27.4394C44.1241 22.9544 44.1241 15.6806 48.6091 11.1956C53.0941 6.71062 60.3661 6.71238 64.8511 11.1974C69.3361 15.6824 69.3379 22.9544 64.8529 27.4394C60.3679 31.9244 53.0941 31.9244 48.6091 27.4394Z" fill="url(#paint11_linear_343_7041)"/>
<path d="M46.092 29.9565C51.967 35.8315 61.4949 35.8315 67.3699 29.9565C73.2467 24.0797 73.2449 14.5536 67.3699 8.67857C61.4931 2.8018 51.9687 2.8018 46.092 8.67857C40.217 14.5533 40.2152 24.0797 46.092 29.9565ZM64.8528 11.1953C69.3378 15.6803 69.3378 22.9542 64.8528 27.4392C60.3678 31.9242 53.0958 31.9224 48.6108 27.4374C44.1258 22.9524 44.124 15.6803 48.609 11.1953C53.094 6.71033 60.3678 6.71033 64.8528 11.1953Z" fill="url(#paint12_linear_343_7041)"/>
<path d="M138.628 15.0065C132.978 9.35654 123.818 9.35654 118.168 15.0065C112.518 20.6565 112.518 29.8171 118.168 35.4671C123.818 41.1171 132.978 41.1171 138.628 35.4671C144.278 29.8171 144.278 20.6565 138.628 15.0065ZM121.902 31.7333C118.314 28.146 118.314 22.3277 121.902 18.7404C125.489 15.153 131.306 15.1545 134.893 18.7418C138.48 22.3292 138.482 28.146 134.894 31.7333C131.307 35.3207 125.489 35.3207 121.902 31.7333Z" fill="url(#paint13_linear_343_7041)"/>
<path d="M119.888 33.7465C124.587 38.4456 132.208 38.4456 136.908 33.7465C141.608 29.0459 141.607 21.4262 136.908 16.7271C132.207 12.0265 124.589 12.0265 119.888 16.7271C115.189 21.4262 115.188 29.0459 119.888 33.7465ZM134.894 18.7403C138.482 22.3277 138.482 28.1459 134.894 31.7333C131.307 35.3206 125.49 35.3192 121.903 31.7318C118.316 28.1445 118.314 22.3277 121.901 18.7403C125.489 15.153 131.307 15.153 134.894 18.7403Z" fill="url(#paint14_linear_343_7041)"/>
<path d="M87.1923 9.75155C87.9694 9.72655 88.5794 9.07655 88.5544 8.2992C88.5294 7.52214 87.8794 6.91214 87.1021 6.93714C86.325 6.96214 85.715 7.61214 85.74 8.38949C85.765 9.16655 86.4153 9.77655 87.1923 9.75155Z" fill="url(#paint15_linear_343_7041)"/>
<path d="M80.6542 12.3881C80.6425 12.0181 80.333 11.7278 79.963 11.7399C79.593 11.7516 79.303 12.061 79.3148 12.431C79.3266 12.801 79.6363 13.091 80.006 13.0793C80.376 13.0672 80.6663 12.7578 80.6542 12.3881Z" fill="url(#paint16_linear_343_7041)"/>
<path d="M89.3225 12.0333C89.1478 11.7072 88.7416 11.5842 88.4154 11.7589C88.0892 11.9336 87.9663 12.3398 88.141 12.666C88.3157 12.9922 88.7219 13.1151 89.0481 12.9404C89.3742 12.766 89.4972 12.3598 89.3225 12.0333Z" fill="url(#paint17_linear_343_7041)"/>
<path d="M94.7322 9.43592C94.5574 9.10975 94.1513 8.9868 93.8251 9.16151C93.4989 9.33622 93.376 9.74239 93.5507 10.0686C93.7254 10.3947 94.1316 10.5177 94.4577 10.343C94.7839 10.1683 94.9069 9.7621 94.7322 9.43592Z" fill="url(#paint18_linear_343_7041)"/>
<path d="M81.0257 14.2709C80.6366 13.848 79.9787 13.8207 79.5557 14.2098C79.1328 14.5989 79.1054 15.2568 79.4946 15.6798C79.8837 16.1027 80.5416 16.1301 80.9646 15.7409C81.3875 15.3518 81.4149 14.6936 81.0257 14.2709Z" fill="url(#paint19_linear_343_7041)"/>
<path d="M84.4332 9.75722C84.1261 9.4234 83.6064 9.40163 83.2726 9.70898C82.9388 10.016 82.917 10.5357 83.2244 10.8696C83.5314 11.2034 84.0511 11.2252 84.385 10.9178C84.7185 10.6107 84.7403 10.091 84.4332 9.75722Z" fill="url(#paint20_linear_343_7041)"/>
<path d="M91.7262 6.82009C91.4191 6.48626 90.8994 6.4645 90.5656 6.77185C90.2317 7.07891 90.21 7.59862 90.5173 7.93244C90.8244 8.26627 91.3441 8.28803 91.6779 7.98067C92.0115 7.67362 92.0332 7.15391 91.7262 6.82009Z" fill="url(#paint21_linear_343_7041)"/>
<path d="M85.5801 11.8828C85.7651 12.0839 86.0787 12.0972 86.2798 11.9119C86.481 11.7266 86.4943 11.4133 86.309 11.2122C86.1237 11.011 85.8104 10.9978 85.6092 11.183C85.4078 11.3683 85.3948 11.6816 85.5801 11.8828Z" fill="url(#paint22_linear_343_7041)"/>
<path d="M90.6902 13.4306C84.6573 7.39765 74.8755 7.39765 68.8426 13.4306C62.8096 19.4635 62.8096 29.2453 68.8426 35.2782C74.8755 41.3112 84.6573 41.3112 90.6902 35.2782C96.7232 29.2453 96.7232 19.4635 90.6902 13.4306ZM72.8293 31.2912C68.9988 27.4606 68.9988 21.2479 72.8293 17.4174C76.6599 13.5868 82.8711 13.5882 86.7017 17.4188C90.5323 21.2494 90.5338 27.4606 86.7032 31.2912C82.8726 35.1218 76.6599 35.1218 72.8293 31.2912Z" fill="url(#paint23_linear_343_7041)"/>
<path d="M70.6799 33.4408C75.6976 38.4585 83.8355 38.4585 88.8532 33.4408C93.8723 28.4217 93.8708 20.2853 88.8532 15.2676C83.8337 10.2482 75.699 10.2482 70.6799 15.2676C65.6623 20.2853 65.6605 28.4217 70.6799 33.4408ZM86.7034 17.4173C90.534 21.2479 90.534 27.4605 86.7034 31.2911C82.8729 35.1217 76.6617 35.1203 72.8311 31.2897C69.0005 27.4591 68.999 21.2479 72.8296 17.4173C76.6602 13.5867 82.8729 13.5867 86.7034 17.4173Z" fill="url(#paint24_linear_343_7041)"/>
<path d="M63.4177 35.6615C60.7444 45.2865 25.8891 35.6056 28.5627 25.9806C31.2362 16.3556 41.2056 10.7203 50.8306 13.3935C60.4556 16.0668 66.0912 26.0365 63.4177 35.6615Z" fill="url(#paint25_linear_343_7041)"/>
<path d="M126.715 10.9762C119.652 3.91271 108.199 3.91271 101.135 10.9762C94.0713 18.0398 94.0716 29.4924 101.135 36.5562C108.199 43.6198 119.651 43.6198 126.715 36.5562C133.779 29.4927 133.779 18.0398 126.715 10.9762ZM105.803 31.888C101.318 27.403 101.318 20.1292 105.803 15.6442C110.288 11.1592 117.56 11.1609 122.045 15.6459C126.53 20.1309 126.532 27.403 122.047 31.888C117.562 36.373 110.288 36.373 105.803 31.888Z" fill="url(#paint26_linear_343_7041)"/>
<path d="M103.286 34.4051C109.161 40.2801 118.689 40.2801 124.564 34.4051C130.441 28.5284 130.439 19.0022 124.564 13.1272C118.687 7.25041 109.163 7.25041 103.286 13.1272C97.4113 19.0022 97.4095 28.5284 103.286 34.4051ZM122.047 15.6442C126.532 20.1292 126.532 27.4031 122.047 31.8881C117.562 36.3731 110.29 36.3713 105.805 31.8863C101.32 27.4013 101.318 20.1292 105.803 15.6442C110.288 11.1592 117.562 11.1592 122.047 15.6442Z" fill="url(#paint27_linear_343_7041)"/>
<path d="M36.4299 15.4974C30.4008 9.46831 20.6252 9.46831 14.5961 15.4974C8.56694 21.5265 8.56694 31.3021 14.5961 37.3312C20.6252 43.3604 30.4008 43.3604 36.4299 37.3312C42.459 31.3021 42.459 21.5265 36.4299 15.4974ZM18.5805 33.3468C14.7522 29.5186 14.7522 23.3101 18.5805 19.4818C22.4087 15.6536 28.6158 15.6551 32.444 19.4833C36.2722 23.3115 36.2737 29.5186 32.4455 33.3468C28.6172 37.1751 22.4084 37.1751 18.5805 33.3468Z" fill="url(#paint28_linear_343_7041)"/>
<path d="M16.4319 35.4954C21.4463 40.5098 29.5792 40.5098 34.5936 35.4954C39.6098 30.4793 39.6081 22.3481 34.5936 17.3337C29.5775 12.3175 21.4478 12.3175 16.4319 17.3337C11.4175 22.3481 11.4157 30.4793 16.4319 35.4954ZM32.4454 19.4819C36.2736 23.3101 36.2736 29.5187 32.4454 33.3469C28.6172 37.1751 22.4101 37.1737 18.5819 33.3454C14.7536 29.5172 14.7522 23.3101 18.5804 19.4819C22.4086 15.6537 28.6172 15.6537 32.4454 19.4819Z" fill="url(#paint29_linear_343_7041)"/>
<path d="M144.726 37.1062C144.582 38.1238 144.208 39.1121 143.632 40.068C141.405 42.2306 136.12 44.0103 128.859 45.4068C124.676 46.2115 119.837 45.1241 114.55 45.6744C110.312 46.1156 105.785 48.2397 101.077 48.5174C93.3487 48.9733 85.131 49.2085 76.8963 49.2238C69.6022 49.2415 53.8669 46.3768 53.7199 44.9886C53.3404 41.415 55.7375 38.1709 59.9699 35.3562C60.4375 35.0474 60.8904 34.6886 61.3199 34.2827C62.3051 33.3562 63.1875 32.1856 63.9228 30.7915L64.0346 30.5768C65.1728 28.4209 66.6846 26.9503 68.3699 26.2444C69.8199 25.6385 71.3963 25.6033 72.9728 26.1915C73.264 26.3003 73.5552 26.4297 73.8434 26.5827L73.8463 26.5856C76.1728 27.8033 78.5846 27.6356 80.6316 26.2062C81.3493 25.7062 82.0228 25.0474 82.6316 24.2415L82.8551 23.9444C85.4463 20.515 89.1728 19.8621 92.5316 22.2503L92.7875 22.4327C95.8728 24.6268 99.2905 24.268 101.849 21.4797L102.064 21.2444C104.849 18.2091 108.632 18.0709 111.879 20.8856L112.22 21.1797C115.149 23.718 118.535 23.8709 121.24 21.5856C122.52 20.5062 123.943 19.9738 125.393 19.9738C127.535 19.9738 129.735 21.1297 131.611 23.3768L131.82 23.6297C133.273 25.368 134.92 26.5915 136.638 27.2709C141.364 29.1385 144.385 31.8121 144.761 35.3856C144.823 35.968 144.811 36.5444 144.726 37.1062Z" fill="url(#paint30_linear_343_7041)"/>
<path d="M76.2217 48.8836C76.3417 49.0345 76.3729 49.0739 76.4929 49.2245C84.8499 49.2165 93.197 48.9815 101.041 48.5198C105.951 48.2306 110.663 46.6765 115.057 46.2098C120.148 45.6692 124.811 46.1859 128.861 45.4068C136.121 44.0104 141.405 42.2306 143.632 40.0683C144.208 39.1124 144.582 38.1242 144.726 37.1065C144.811 36.5448 144.823 35.9683 144.761 35.3859C144.747 35.2533 144.73 35.1221 144.708 34.9921C144.222 32.0112 141.665 29.8812 138.666 29.5198C137.265 29.3509 135.853 28.6933 134.533 27.5495L134.191 27.2554C130.944 24.4407 127.162 24.5789 124.377 27.6142L124.162 27.8495C121.603 30.6377 118.186 30.9965 115.1 28.8024L114.844 28.6201C111.486 26.2318 107.759 26.8848 105.168 30.3142L104.944 30.6112C104.336 31.4171 103.662 32.0759 102.944 32.5759C100.897 34.0054 98.4855 34.173 96.159 32.9554L96.1561 32.9524C95.8679 32.7995 95.5767 32.6701 95.2855 32.5612C93.709 31.973 92.1326 32.0083 90.6826 32.6142C88.9973 33.3201 87.4855 34.7906 86.3473 36.9465L86.2355 37.1612C85.5002 38.5554 84.6179 39.7259 83.6326 40.6524C83.2031 41.0583 82.7502 41.4171 82.2826 41.7259C79.0499 43.8756 76.8929 46.2768 76.2217 48.8836Z" fill="url(#paint31_linear_343_7041)"/>
<path d="M117.774 46.6895C112.538 47.3183 107.282 47.7477 101.054 48.5177C93.3325 48.9724 85.1231 49.2074 76.8963 49.2239C69.6022 49.2415 53.8669 46.3768 53.7199 44.9886C53.3404 41.415 55.7375 38.1709 59.9699 35.3562C60.4375 35.0474 60.8904 34.6886 61.3199 34.2827C62.3051 33.3562 63.1875 32.1856 63.9228 30.7915L64.0346 30.5768C65.1728 28.4209 66.6846 26.9503 68.3699 26.2445C69.8199 25.6386 71.3963 25.6033 72.9728 26.1915C73.264 26.3003 73.5552 26.4297 73.8434 26.5827L73.8463 26.5856C76.1728 27.8033 78.5846 27.6356 80.6316 26.2062C81.3493 25.7062 82.0228 25.0474 82.6316 24.2415L82.8551 23.9444C85.4463 20.515 89.1728 19.8621 92.5316 22.2503L92.7875 22.4327C93.3287 22.818 93.8787 23.1239 94.4346 23.3503L117.774 46.6895Z" fill="url(#paint32_linear_343_7041)"/>
<path d="M94.8853 31.3365C91.8824 31.3365 89.4482 33.7707 89.4482 36.7736C89.4482 39.7765 91.8824 42.2107 94.8853 42.2107C97.8879 42.2107 100.322 39.7765 100.322 36.7736C100.322 33.7707 97.8882 31.3365 94.8853 31.3365ZM94.8853 39.0815C93.6106 39.0815 92.5774 38.0483 92.5774 36.7736C92.5774 35.4989 93.6106 34.4657 94.8853 34.4657C96.16 34.4657 97.1932 35.4989 97.1932 36.7736C97.1932 38.0483 96.16 39.0815 94.8853 39.0815Z" fill="url(#paint33_linear_343_7041)"/>
<path d="M123.56 33.3741C120.557 33.3741 118.123 35.8083 118.123 38.8112C118.123 41.8141 120.557 44.2483 123.56 44.2483C126.563 44.2483 128.997 41.8141 128.997 38.8112C128.997 35.8083 126.563 33.3741 123.56 33.3741ZM123.56 41.1191C122.285 41.1191 121.252 40.0859 121.252 38.8112C121.252 37.5365 122.285 36.5033 123.56 36.5033C124.835 36.5033 125.868 37.5365 125.868 38.8112C125.868 40.0859 124.835 41.1191 123.56 41.1191Z" fill="url(#paint34_linear_343_7041)"/>
<path d="M93.5546 18.6168C94.0478 18.3535 94.2343 17.7403 93.971 17.2471C93.7078 16.7538 93.0946 16.5674 92.6013 16.8306C92.1081 17.0938 91.9216 17.7071 92.1849 18.2003C92.4481 18.6935 93.0613 18.88 93.5546 18.6168Z" fill="url(#paint35_linear_343_7041)"/>
<path d="M90.57 17.0982C90.3621 16.7088 89.878 16.5614 89.4886 16.7694C89.0992 16.9773 88.9518 17.4614 89.1598 17.8509C89.3677 18.2403 89.8518 18.3876 90.2412 18.1797C90.6306 17.9717 90.7777 17.4876 90.57 17.0982Z" fill="url(#paint36_linear_343_7041)"/>
<path d="M88.9702 21.0452C88.8449 20.8105 88.5531 20.7217 88.3181 20.847C88.0831 20.9723 87.9946 21.264 88.1199 21.499C88.2452 21.734 88.5369 21.8226 88.7719 21.6973C89.0066 21.5717 89.0954 21.2799 88.9702 21.0452Z" fill="url(#paint37_linear_343_7041)"/>
<path d="M93.9578 26.0091C93.5031 25.6838 92.8708 25.7888 92.5455 26.2435C92.2202 26.6982 92.3252 27.3306 92.7799 27.6559C93.2346 27.9812 93.8669 27.8762 94.1922 27.4215C94.5175 26.9668 94.4125 26.3344 93.9578 26.0091Z" fill="url(#paint38_linear_343_7041)"/>
<path d="M102.328 23.0123C101.969 22.7556 101.47 22.8382 101.213 23.1973C100.956 23.5564 101.039 24.0556 101.398 24.3123C101.757 24.5691 102.256 24.4864 102.513 24.1273C102.77 23.7682 102.687 23.2691 102.328 23.0123Z" fill="url(#paint39_linear_343_7041)"/>
<path d="M95.9991 19.1156C95.7827 18.9606 95.4818 19.0106 95.3268 19.2271C95.1721 19.4436 95.2218 19.7444 95.4383 19.8994C95.6547 20.0541 95.9556 20.0044 96.1106 19.788C96.2656 19.5715 96.2156 19.2706 95.9991 19.1156Z" fill="url(#paint40_linear_343_7041)"/>
<path d="M92.3615 21.6702C91.9762 21.5211 91.543 21.7129 91.3938 22.0982C91.2447 22.4834 91.4365 22.9167 91.8218 23.0658C92.2071 23.2149 92.6403 23.0232 92.7894 22.6379C92.9386 22.2523 92.7468 21.819 92.3615 21.6702Z" fill="url(#paint41_linear_343_7041)"/>
<path d="M94.2232 20.4059C93.919 20.2882 93.577 20.4397 93.4593 20.7438C93.3417 21.0479 93.4931 21.39 93.7973 21.5076C94.1014 21.6253 94.4434 21.4738 94.5611 21.1697C94.6787 20.8653 94.5273 20.5235 94.2232 20.4059Z" fill="url(#paint42_linear_343_7041)"/>
<path d="M91.5862 20.0229C91.7697 20.0938 91.9759 20.0026 92.0468 19.8191C92.1177 19.6356 92.0265 19.4294 91.843 19.3585C91.6594 19.2876 91.4533 19.3788 91.3824 19.5623C91.3115 19.7459 91.403 19.952 91.5862 20.0229Z" fill="url(#paint43_linear_343_7041)"/>
<path d="M110.792 26.6223C111.286 26.359 111.472 25.7458 111.209 25.2526C110.946 24.7593 110.332 24.5729 109.839 24.8361C109.346 25.0993 109.159 25.7126 109.423 26.2058C109.686 26.699 110.299 26.8855 110.792 26.6223Z" fill="url(#paint44_linear_343_7041)"/>
<path d="M101.863 31.1055C101.655 30.7161 101.17 30.5688 100.781 30.7767C100.392 30.9846 100.244 31.4688 100.452 31.8582C100.66 32.2476 101.144 32.3949 101.534 32.187C101.923 31.9791 102.07 31.4949 101.863 31.1055Z" fill="url(#paint45_linear_343_7041)"/>
<path d="M103.271 26.752C103.146 26.5173 102.854 26.4285 102.619 26.5538C102.384 26.6791 102.295 26.9708 102.421 27.2058C102.546 27.4405 102.838 27.5294 103.073 27.4041C103.307 27.2788 103.396 26.987 103.271 26.752Z" fill="url(#paint46_linear_343_7041)"/>
<path d="M114.602 30.8358C114.148 30.5105 113.515 30.6155 113.19 31.0702C112.865 31.5249 112.97 32.1572 113.424 32.4825C113.879 32.8078 114.511 32.7028 114.837 32.2481C115.162 31.7934 115.057 31.1611 114.602 30.8358Z" fill="url(#paint47_linear_343_7041)"/>
<path d="M115.265 29.6526C115.521 29.2935 115.439 28.7944 115.08 28.5376C114.721 28.2808 114.221 28.3635 113.965 28.7226C113.708 29.0817 113.791 29.5808 114.15 29.8376C114.509 30.0944 115.008 30.0114 115.265 29.6526Z" fill="url(#paint48_linear_343_7041)"/>
<path d="M113.237 27.1212C113.02 26.9665 112.72 27.0162 112.565 27.2327C112.41 27.4492 112.46 27.75 112.676 27.905C112.893 28.0598 113.193 28.01 113.348 27.7936C113.503 27.5771 113.453 27.2762 113.237 27.1212Z" fill="url(#paint49_linear_343_7041)"/>
<path d="M105.709 30.4826C105.324 30.3335 104.891 30.5252 104.742 30.9105C104.592 31.2958 104.784 31.7291 105.169 31.8782C105.555 32.0273 105.988 31.8355 106.137 31.4502C106.286 31.0649 106.094 30.6317 105.709 30.4826Z" fill="url(#paint50_linear_343_7041)"/>
<path d="M111.461 28.4114C111.157 28.2937 110.815 28.4449 110.697 28.7493C110.579 29.0534 110.731 29.3955 111.035 29.5131C111.339 29.6308 111.681 29.4793 111.799 29.1752C111.916 28.8711 111.765 28.529 111.461 28.4114Z" fill="url(#paint51_linear_343_7041)"/>
<path d="M108.824 28.0285C109.008 28.0994 109.214 28.0082 109.285 27.8247C109.356 27.6412 109.264 27.435 109.081 27.3641C108.897 27.2932 108.691 27.3844 108.62 27.568C108.549 27.7515 108.641 27.9577 108.824 28.0285Z" fill="url(#paint52_linear_343_7041)"/>
<path d="M87.8313 44.4112C82.1142 50.1283 72.8563 50.1392 67.1527 44.4356C61.4492 38.7321 61.4604 29.4742 67.1772 23.7571C72.8939 18.04 86.5139 13.6674 92.2175 19.3709C97.921 25.0744 93.5483 38.6942 87.8313 44.4112Z" fill="url(#paint53_linear_343_7041)"/>
<path d="M66.5879 43.8359C71.7432 48.3856 80.1055 47.7273 85.6264 42.2062C91.0629 36.7697 95.7279 24.6344 91.7914 19.0762C91.6699 18.9044 91.5199 18.7535 91.3511 18.6279C85.2364 14.0882 72.6229 18.3118 67.1776 23.7571C61.6564 29.2779 61.4585 38.1006 66.5879 43.8359Z" fill="url(#paint54_linear_343_7041)"/>
<path d="M74.7104 41.6286C79.2411 41.6286 82.9139 37.9558 82.9139 33.4251C82.9139 28.8944 79.2411 25.2216 74.7104 25.2216C70.1797 25.2216 66.5068 28.8944 66.5068 33.4251C66.5068 37.9558 70.1797 41.6286 74.7104 41.6286Z" fill="url(#paint55_linear_343_7041)"/>
<path d="M76.8963 49.2239C72.5819 49.2345 68.2631 49.183 64.0075 49.0713C62.9575 49.0436 61.9116 46.9536 60.8701 46.9186C59.6313 46.8771 58.3996 48.8892 57.176 48.8371C56.549 48.8107 55.9243 48.7827 55.3022 48.7533C30.114 47.5592 9.00219 44.1268 7.29925 38.4533C7.24925 38.1239 7.2169 37.7915 7.20219 37.4621C7.14043 36.2621 7.30219 35.0621 7.71102 33.8739C8.96102 30.2415 12.0875 27.9562 16.3669 26.768C17.9198 26.3357 19.561 25.3327 21.1875 23.7651L21.361 23.5945C24.8934 20.1827 28.3434 20.0739 30.1963 23.3121V23.3151C31.7816 26.0827 34.5493 26.4386 37.5846 24.2651L37.8728 24.0592C41.2198 21.6621 44.2081 22.4004 45.6287 25.9739L45.7375 26.2474C45.8757 26.5915 46.0287 26.9121 46.1934 27.2033C47.6051 29.6915 50.0051 30.2504 52.7346 28.6562L52.9904 28.5062C56.311 26.568 59.1199 27.8268 60.2816 31.7768L60.4022 32.1886C60.6404 33.0004 60.9493 33.7004 61.3199 34.2827C62.5699 36.2533 64.5169 36.868 66.7875 35.9151C67.4934 35.618 68.1669 35.4739 68.7963 35.4739C71.2375 35.4739 73.0228 37.6415 73.561 41.4915L73.6081 41.8151C73.9199 44.0533 74.5963 45.8533 75.5552 47.1504C76.064 47.8357 76.511 48.5298 76.8963 49.2239Z" fill="url(#paint56_linear_343_7041)"/>
<path d="M126.273 40.398C123.881 37.8971 120.278 36.6709 116.653 37.4765C111.706 38.5762 108.401 43.0868 108.657 47.9851C108.659 47.9848 108.662 47.9848 108.664 47.9845C108.713 47.9803 115.723 46.5656 119.029 46.1486C122.462 45.7153 125.967 45.9621 128.846 45.4086C129.54 45.2751 130.216 45.1383 130.873 44.9977L126.273 40.398Z" fill="url(#paint57_linear_343_7041)"/>
<path d="M128.859 45.2432C127.633 39.728 122.168 36.2506 116.653 37.4765C111.706 38.5762 108.401 43.0868 108.657 47.985C116.269 47.36 123.187 46.4988 128.885 45.4012C128.877 45.3485 128.871 45.2962 128.859 45.2432Z" fill="url(#paint58_linear_343_7041)"/>
<path d="M114.594 46.7051C114.594 42.8954 111.506 39.8069 107.696 39.8069C103.886 39.8069 100.798 42.8954 100.798 46.7051C100.798 47.3328 100.883 47.9404 101.04 48.5184C105.766 48.2401 110.303 47.8781 114.555 47.4354C114.581 47.1951 114.594 46.9519 114.594 46.7051Z" fill="url(#paint59_linear_343_7041)"/>
<path d="M59.0387 39.6554C56.3445 36.9613 52.9848 35.6907 49.546 35.0745C43.9681 34.0754 38.0778 35.4133 33.7081 39.783C31.7322 41.7589 30.061 43.9504 29.1904 46.421C29.4037 46.4521 29.6231 46.4816 29.8384 46.5121C29.8381 46.5127 29.8378 46.5133 29.8378 46.5139C37.2557 47.5657 46.0001 48.3121 55.3022 48.7533C55.9187 48.7824 56.5378 48.8101 57.159 48.8366C58.4007 48.8892 59.6513 47.466 60.909 47.508C61.9348 47.5424 62.9654 49.0436 63.9995 49.0707C65.5066 49.1101 67.0213 49.1421 68.5413 49.1665L59.0387 39.6554Z" fill="url(#paint60_linear_343_7041)"/>
<path d="M31.8033 31.3365C28.8003 31.3365 26.3662 33.7707 26.3662 36.7736C26.3662 39.7765 28.8003 42.2107 31.8033 42.2107C34.8059 42.2107 37.2403 39.7765 37.2403 36.7736C37.2403 33.7707 34.8062 31.3365 31.8033 31.3365ZM31.8033 39.0815C30.5286 39.0815 29.4953 38.0483 29.4953 36.7736C29.4953 35.4989 30.5286 34.4657 31.8033 34.4657C33.078 34.4657 34.1112 35.4989 34.1112 36.7736C34.1112 38.0483 33.078 39.0815 31.8033 39.0815Z" fill="url(#paint61_linear_343_7041)"/>
<path d="M59.039 39.6553C51.9754 32.5918 40.5228 32.5918 33.459 39.6553C31.4831 41.6312 30.061 43.9506 29.1904 46.4209C31.3463 46.735 33.6184 47.023 35.9878 47.2844C36.5248 46.2168 37.2357 45.2144 38.1269 44.3233C42.6119 39.8383 49.884 39.84 54.369 44.325C55.6801 45.6362 56.6834 46.895 57.2281 48.5433C58.4596 48.5956 59.621 48.9339 60.8678 48.9756C61.9134 49.0106 62.964 49.0421 64.0187 49.0697C63.3672 45.6209 61.7084 42.3247 59.039 39.6553Z" fill="url(#paint62_linear_343_7041)"/>
<path d="M56.8881 41.8065C51.0113 35.9297 41.4869 35.9297 35.6102 41.8065C34.1252 43.2915 33.0166 45.0103 32.2822 46.8442C33.4875 46.9986 34.7246 47.1453 35.9881 47.2847C36.5249 46.2171 37.2361 45.2147 38.1272 44.3236C42.6122 39.8386 49.8861 39.8386 54.3711 44.3236C55.6825 45.635 56.6075 47.1856 57.1519 48.8344C58.3902 48.8871 59.6355 48.9353 60.8896 48.9774C60.2696 46.3495 58.9372 43.8556 56.8881 41.8065Z" fill="url(#paint63_linear_343_7041)"/>
<path d="M49.0008 17.5901C49.1928 17.0651 48.9231 16.4836 48.3978 16.2913C47.8728 16.0992 47.2914 16.3689 47.099 16.8942C46.907 17.4192 47.1767 18.0007 47.702 18.1927C48.2273 18.3851 48.8087 18.1154 49.0008 17.5901Z" fill="url(#paint64_linear_343_7041)"/>
<path d="M45.7637 18.4483C45.3493 18.2966 44.8901 18.5098 44.7384 18.9242C44.5866 19.3386 44.7998 19.7977 45.2143 19.9495C45.6287 20.1013 46.0878 19.888 46.2395 19.4736C46.3913 19.0589 46.1781 18.5998 45.7637 18.4483Z" fill="url(#paint65_linear_343_7041)"/>
<path d="M47.2029 22.4566C46.9529 22.3651 46.6761 22.4937 46.5847 22.7437C46.4932 22.9937 46.6217 23.2704 46.8714 23.3619C47.1211 23.4534 47.3982 23.3248 47.4897 23.0751C47.5811 22.8248 47.4526 22.5481 47.2029 22.4566Z" fill="url(#paint66_linear_343_7041)"/>
<path d="M54.2292 22.8313C53.6734 22.8919 53.2719 23.3919 53.3328 23.9478C53.3934 24.5037 53.8934 24.9051 54.4492 24.8442C55.0051 24.7837 55.4066 24.2837 55.3457 23.7278C55.2848 23.1719 54.7851 22.7704 54.2292 22.8313Z" fill="url(#paint67_linear_343_7041)"/>
<path d="M58.4698 15.0171C58.0309 15.0651 57.7142 15.4595 57.7621 15.8983C57.8101 16.3371 58.2045 16.6539 58.6433 16.6059C59.0821 16.558 59.3989 16.1633 59.3509 15.7248C59.303 15.2862 58.9086 14.9692 58.4698 15.0171Z" fill="url(#paint68_linear_343_7041)"/>
<path d="M51.1552 16.3322C50.8905 16.361 50.6996 16.599 50.7285 16.8637C50.7573 17.1281 50.9952 17.3193 51.2599 17.2905C51.5244 17.2616 51.7155 17.0237 51.6867 16.759C51.6576 16.4943 51.4196 16.3034 51.1552 16.3322Z" fill="url(#paint69_linear_343_7041)"/>
<path d="M50.1477 20.6613C49.7612 20.8072 49.5659 21.2389 49.7121 21.6254C49.858 22.0119 50.2897 22.2072 50.6762 22.0613C51.0627 21.9154 51.258 21.4836 51.1121 21.0972C50.9662 20.7107 50.5342 20.5154 50.1477 20.6613Z" fill="url(#paint70_linear_343_7041)"/>
<path d="M50.6913 18.4778C50.386 18.5931 50.2322 18.9337 50.3472 19.239C50.4625 19.5443 50.8031 19.6981 51.1084 19.5831C51.4137 19.4678 51.5675 19.1272 51.4525 18.8219C51.3375 18.5167 50.9966 18.3628 50.6913 18.4778Z" fill="url(#paint71_linear_343_7041)"/>
<path d="M48.4706 19.9507C48.6548 19.8813 48.7474 19.6757 48.678 19.4919C48.6086 19.3078 48.403 19.2151 48.2192 19.2845C48.035 19.3539 47.9424 19.5595 48.0118 19.7433C48.0812 19.9272 48.2865 20.0201 48.4706 19.9507Z" fill="url(#paint72_linear_343_7041)"/>
<path d="M67.1858 12.0642C67.3779 11.5392 67.1082 10.9578 66.5829 10.7654C66.0579 10.5733 65.4764 10.843 65.2841 11.3683C65.092 11.8933 65.3617 12.4748 65.887 12.6672C66.4123 12.8592 66.9938 12.5895 67.1858 12.0642Z" fill="url(#paint73_linear_343_7041)"/>
<path d="M63.5195 21.3588C63.1051 21.2071 62.646 21.4203 62.4942 21.8347C62.3425 22.2491 62.5557 22.7083 62.9701 22.86C63.3845 23.0118 63.8436 22.7986 63.9954 22.3841C64.1469 21.9697 63.9339 21.5106 63.5195 21.3588Z" fill="url(#paint74_linear_343_7041)"/>
<path d="M61.6668 17.1757C61.4168 17.0842 61.14 17.2128 61.0485 17.4628C60.9571 17.7128 61.0856 17.9895 61.3353 18.0807C61.5853 18.1722 61.8621 18.0437 61.9535 17.7939C62.045 17.5437 61.9165 17.2669 61.6668 17.1757Z" fill="url(#paint75_linear_343_7041)"/>
<path d="M72.8347 12.6646C72.2788 12.7251 71.8774 13.2251 71.9382 13.781C71.9988 14.3369 72.4988 14.7384 73.0547 14.6775C73.6106 14.6169 74.012 14.1169 73.9512 13.561C73.8903 13.0051 73.3906 12.6037 72.8347 12.6646Z" fill="url(#paint76_linear_343_7041)"/>
<path d="M72.5394 11.341C72.4915 10.9022 72.0968 10.5854 71.6582 10.6333C71.2194 10.6813 70.9027 11.0757 70.9506 11.5145C70.9985 11.9533 71.393 12.2701 71.8318 12.2222C72.2706 12.1745 72.5874 11.7798 72.5394 11.341Z" fill="url(#paint77_linear_343_7041)"/>
<path d="M69.3408 10.8063C69.0764 10.8352 68.8852 11.0731 68.914 11.3378C68.9428 11.6022 69.1808 11.7934 69.4455 11.7646C69.7099 11.7358 69.9011 11.4978 69.8722 11.2331C69.8431 10.9684 69.6055 10.7775 69.3408 10.8063Z" fill="url(#paint78_linear_343_7041)"/>
<path d="M65.9711 18.3305C65.5846 18.4764 65.3893 18.9081 65.5352 19.2946C65.6811 19.6811 66.1128 19.8764 66.4993 19.7305C66.8858 19.5846 67.0811 19.1528 66.9349 18.7663C66.7893 18.3799 66.3575 18.1846 65.9711 18.3305Z" fill="url(#paint79_linear_343_7041)"/>
<path d="M68.8769 12.9522C68.5716 13.0675 68.4178 13.4081 68.5328 13.7134C68.6481 14.0187 68.9886 14.1725 69.2939 14.0575C69.5992 13.9422 69.7531 13.6016 69.6381 13.2963C69.5228 12.991 69.1819 12.8369 68.8769 12.9522Z" fill="url(#paint80_linear_343_7041)"/>
<path d="M66.6562 14.4248C66.8403 14.3554 66.9329 14.1498 66.8635 13.966C66.7941 13.7819 66.5885 13.6892 66.4047 13.7586C66.2206 13.8281 66.1279 14.0336 66.1974 14.2175C66.2668 14.4013 66.4724 14.4942 66.6562 14.4248Z" fill="url(#paint81_linear_343_7041)"/>
<defs>
<linearGradient id="paint0_linear_343_7041" x1="76.3026" y1="85.7489" x2="76.8517" y2="94.8083" gradientUnits="userSpaceOnUse">
<stop stop-color="#F8F6FB"/>
<stop offset="1" stop-color="#EFDCFB"/>
</linearGradient>
<linearGradient id="paint1_linear_343_7041" x1="64.5319" y1="26.2797" x2="104.618" y2="86.0006" gradientUnits="userSpaceOnUse">
<stop stop-color="#F8F6FB"/>
<stop offset="1" stop-color="#EFDCFB"/>
</linearGradient>
<linearGradient id="paint2_linear_343_7041" x1="66.8825" y1="0.922367" x2="77.4707" y2="43.6677" gradientUnits="userSpaceOnUse">
<stop stop-color="#F8F6FB"/>
<stop offset="1" stop-color="#EFDCFB"/>
</linearGradient>
<linearGradient id="paint3_linear_343_7041" x1="77.9957" y1="1.91034" x2="77.9957" y2="22.8062" gradientUnits="userSpaceOnUse">
<stop stop-color="#BADA00"/>
<stop offset="0.2269" stop-color="#B0CE00"/>
<stop offset="0.6378" stop-color="#95AE00"/>
<stop offset="1" stop-color="#798C00"/>
</linearGradient>
<linearGradient id="paint4_linear_343_7041" x1="110.956" y1="14.5185" x2="114.191" y2="20.9891" gradientUnits="userSpaceOnUse">
<stop stop-color="#8A7889"/>
<stop offset="0.3344" stop-color="#867385"/>
<stop offset="0.7039" stop-color="#7B667B"/>
<stop offset="1" stop-color="#6E566E"/>
</linearGradient>
<linearGradient id="paint5_linear_343_7041" x1="69.0966" y1="4.0809" x2="72.3319" y2="10.5515" gradientUnits="userSpaceOnUse">
<stop stop-color="#8A7889"/>
<stop offset="0.3344" stop-color="#867385"/>
<stop offset="0.7039" stop-color="#7B667B"/>
<stop offset="1" stop-color="#6E566E"/>
</linearGradient>
<linearGradient id="paint6_linear_343_7041" x1="103.631" y1="14.3824" x2="103.631" y2="25.2619" gradientUnits="userSpaceOnUse">
<stop stop-color="#F8F6FB"/>
<stop offset="1" stop-color="#EFDCFB"/>
</linearGradient>
<linearGradient id="paint7_linear_343_7041" x1="70.0442" y1="31.0138" x2="64.5212" y2="-1.44499" gradientUnits="userSpaceOnUse">
<stop stop-color="#798C00" stop-opacity="0"/>
<stop offset="0.6542" stop-color="#556100" stop-opacity="0.654"/>
<stop offset="1" stop-color="#464F00"/>
</linearGradient>
<linearGradient id="paint8_linear_343_7041" x1="75.9935" y1="67.1462" x2="75.9935" y2="-39.2109" gradientUnits="userSpaceOnUse">
<stop stop-color="#EFDCFB" stop-opacity="0"/>
<stop offset="0.0287" stop-color="#E9D6F7" stop-opacity="0.029"/>
<stop offset="0.2203" stop-color="#C5B5DE" stop-opacity="0.22"/>
<stop offset="0.4138" stop-color="#AA9BCB" stop-opacity="0.414"/>
<stop offset="0.6078" stop-color="#9688BD" stop-opacity="0.608"/>
<stop offset="0.8028" stop-color="#8A7DB5" stop-opacity="0.803"/>
<stop offset="1" stop-color="#8679B2"/>
</linearGradient>
<linearGradient id="paint9_linear_343_7041" x1="100.915" y1="69.7033" x2="113.084" y2="77.8159" gradientUnits="userSpaceOnUse">
<stop stop-color="#FF6359"/>
<stop offset="0.2243" stop-color="#FE5B50"/>
<stop offset="0.5952" stop-color="#FC4637"/>
<stop offset="1" stop-color="#F82814"/>
</linearGradient>
<linearGradient id="paint10_linear_343_7041" x1="98.0937" y1="26.7685" x2="100.047" y2="49.6244" gradientUnits="userSpaceOnUse">
<stop stop-color="#BADA00"/>
<stop offset="0.2269" stop-color="#B0CE00"/>
<stop offset="0.6378" stop-color="#95AE00"/>
<stop offset="1" stop-color="#798C00"/>
</linearGradient>
<linearGradient id="paint11_linear_343_7041" x1="62.0976" y1="3.71496" x2="54.8942" y2="24.7374" gradientUnits="userSpaceOnUse">
<stop stop-color="#FFD945"/>
<stop offset="0.3126" stop-color="#FFD643"/>
<stop offset="0.5593" stop-color="#FFCC3D"/>
<stop offset="0.7826" stop-color="#FFBB33"/>
<stop offset="0.9922" stop-color="#FFA426"/>
<stop offset="1" stop-color="#FFA325"/>
</linearGradient>
<linearGradient id="paint12_linear_343_7041" x1="52.3286" y1="32.3437" x2="58.3206" y2="14.8567" gradientUnits="userSpaceOnUse">
<stop stop-color="#FFD945"/>
<stop offset="0.3126" stop-color="#FFD643"/>
<stop offset="0.5593" stop-color="#FFCC3D"/>
<stop offset="0.7826" stop-color="#FFBB33"/>
<stop offset="0.9922" stop-color="#FFA426"/>
<stop offset="1" stop-color="#FFA325"/>
</linearGradient>
<linearGradient id="paint13_linear_343_7041" x1="122.604" y1="13.4021" x2="130.422" y2="29.3698" gradientUnits="userSpaceOnUse">
<stop stop-color="#FF6359"/>
<stop offset="0.2243" stop-color="#FE5B50"/>
<stop offset="0.5952" stop-color="#FC4637"/>
<stop offset="1" stop-color="#F82814"/>
</linearGradient>
<linearGradient id="paint14_linear_343_7041" x1="142.591" y1="39.43" x2="124.056" y2="20.895" gradientUnits="userSpaceOnUse">
<stop stop-color="#FF6359"/>
<stop offset="0.2243" stop-color="#FE5B50"/>
<stop offset="0.5952" stop-color="#FC4637"/>
<stop offset="1" stop-color="#F82814"/>
</linearGradient>
<linearGradient id="paint15_linear_343_7041" x1="88.0764" y1="6.45741" x2="84.5187" y2="12.0967" gradientUnits="userSpaceOnUse">
<stop stop-color="#FF6359"/>
<stop offset="0.2243" stop-color="#FE5B50"/>
<stop offset="0.5952" stop-color="#FC4637"/>
<stop offset="1" stop-color="#F82814"/>
</linearGradient>
<linearGradient id="paint16_linear_343_7041" x1="80.3113" y1="11.4768" x2="78.6178" y2="14.1609" gradientUnits="userSpaceOnUse">
<stop stop-color="#FF6359"/>
<stop offset="0.2243" stop-color="#FE5B50"/>
<stop offset="0.5952" stop-color="#FC4637"/>
<stop offset="1" stop-color="#F82814"/>
</linearGradient>
<linearGradient id="paint17_linear_343_7041" x1="89.0631" y1="11.415" x2="87.3697" y2="14.0991" gradientUnits="userSpaceOnUse">
<stop stop-color="#FF6359"/>
<stop offset="0.2243" stop-color="#FE5B50"/>
<stop offset="0.5952" stop-color="#FC4637"/>
<stop offset="1" stop-color="#F82814"/>
</linearGradient>
<linearGradient id="paint18_linear_343_7041" x1="94.4747" y1="8.81448" x2="92.7814" y2="11.4989" gradientUnits="userSpaceOnUse">
<stop stop-color="#FF6359"/>
<stop offset="0.2243" stop-color="#FE5B50"/>
<stop offset="0.5952" stop-color="#FC4637"/>
<stop offset="1" stop-color="#F82814"/>
</linearGradient>
<linearGradient id="paint19_linear_343_7041" x1="80.8886" y1="13.5666" x2="78.2595" y2="17.7345" gradientUnits="userSpaceOnUse">
<stop stop-color="#FF6359"/>
<stop offset="0.2243" stop-color="#FE5B50"/>
<stop offset="0.5952" stop-color="#FC4637"/>
<stop offset="1" stop-color="#F82814"/>
</linearGradient>
<linearGradient id="paint20_linear_343_7041" x1="84.2797" y1="9.18394" x2="82.2042" y2="12.4739" gradientUnits="userSpaceOnUse">
<stop stop-color="#FF6359"/>
<stop offset="0.2243" stop-color="#FE5B50"/>
<stop offset="0.5952" stop-color="#FC4637"/>
<stop offset="1" stop-color="#F82814"/>
</linearGradient>
<linearGradient id="paint21_linear_343_7041" x1="91.576" y1="6.24334" x2="89.5002" y2="9.53344" gradientUnits="userSpaceOnUse">
<stop stop-color="#FF6359"/>
<stop offset="0.2243" stop-color="#FE5B50"/>
<stop offset="0.5952" stop-color="#FC4637"/>
<stop offset="1" stop-color="#F82814"/>
</linearGradient>
<linearGradient id="paint22_linear_343_7041" x1="86.1319" y1="10.8381" x2="84.8805" y2="12.8219" gradientUnits="userSpaceOnUse">
<stop stop-color="#FF6359"/>
<stop offset="0.2243" stop-color="#FE5B50"/>
<stop offset="0.5952" stop-color="#FC4637"/>
<stop offset="1" stop-color="#F82814"/>
</linearGradient>
<linearGradient id="paint23_linear_343_7041" x1="84.3505" y1="11.0245" x2="78.198" y2="28.9798" gradientUnits="userSpaceOnUse">
<stop stop-color="#FFD945"/>
<stop offset="0.3126" stop-color="#FFD643"/>
<stop offset="0.5593" stop-color="#FFCC3D"/>
<stop offset="0.7826" stop-color="#FFBB33"/>
<stop offset="0.9922" stop-color="#FFA426"/>
<stop offset="1" stop-color="#FFA325"/>
</linearGradient>
<linearGradient id="paint24_linear_343_7041" x1="76.0089" y1="35.4887" x2="81.1265" y2="20.5534" gradientUnits="userSpaceOnUse">
<stop stop-color="#FFD945"/>
<stop offset="0.3126" stop-color="#FFD643"/>
<stop offset="0.5593" stop-color="#FFCC3D"/>
<stop offset="0.7826" stop-color="#FFBB33"/>
<stop offset="0.9922" stop-color="#FFA426"/>
<stop offset="1" stop-color="#FFA325"/>
</linearGradient>
<linearGradient id="paint25_linear_343_7041" x1="43.542" y1="14.0665" x2="46.7714" y2="31.4075" gradientUnits="userSpaceOnUse">
<stop stop-color="#FF6359"/>
<stop offset="0.2243" stop-color="#FE5B50"/>
<stop offset="0.5952" stop-color="#FC4637"/>
<stop offset="1" stop-color="#F82814"/>
</linearGradient>
<linearGradient id="paint26_linear_343_7041" x1="119.283" y1="8.16306" x2="112.08" y2="29.1855" gradientUnits="userSpaceOnUse">
<stop stop-color="#FFDECF"/>
<stop offset="0.3791" stop-color="#FDC4B0"/>
<stop offset="0.7655" stop-color="#FBAE97"/>
<stop offset="1" stop-color="#FAA68E"/>
</linearGradient>
<linearGradient id="paint27_linear_343_7041" x1="109.514" y1="36.7917" x2="115.506" y2="19.3046" gradientUnits="userSpaceOnUse">
<stop stop-color="#FFDECF"/>
<stop offset="0.3791" stop-color="#FDC4B0"/>
<stop offset="0.7655" stop-color="#FBAE97"/>
<stop offset="1" stop-color="#FAA68E"/>
</linearGradient>
<linearGradient id="paint28_linear_343_7041" x1="30.1025" y1="13.0925" x2="23.9539" y2="31.0364" gradientUnits="userSpaceOnUse">
<stop stop-color="#FFDECF"/>
<stop offset="0.3791" stop-color="#FDC4B0"/>
<stop offset="0.7655" stop-color="#FBAE97"/>
<stop offset="1" stop-color="#FAA68E"/>
</linearGradient>
<linearGradient id="paint29_linear_343_7041" x1="21.7655" y1="37.5415" x2="26.88" y2="22.6155" gradientUnits="userSpaceOnUse">
<stop stop-color="#FFDECF"/>
<stop offset="0.3791" stop-color="#FDC4B0"/>
<stop offset="0.7655" stop-color="#FBAE97"/>
<stop offset="1" stop-color="#FAA68E"/>
</linearGradient>
<linearGradient id="paint30_linear_343_7041" x1="98.0934" y1="26.768" x2="100.047" y2="49.6218" gradientUnits="userSpaceOnUse">
<stop stop-color="#BADA00"/>
<stop offset="0.2269" stop-color="#B0CE00"/>
<stop offset="0.6378" stop-color="#95AE00"/>
<stop offset="1" stop-color="#798C00"/>
</linearGradient>
<linearGradient id="paint31_linear_343_7041" x1="110.409" y1="38.2748" x2="109.527" y2="2.00036" gradientUnits="userSpaceOnUse">
<stop stop-color="#798C00" stop-opacity="0"/>
<stop offset="0.6542" stop-color="#556100" stop-opacity="0.654"/>
<stop offset="1" stop-color="#464F00"/>
</linearGradient>
<linearGradient id="paint32_linear_343_7041" x1="97.0719" y1="52.2627" x2="67.344" y2="28.9468" gradientUnits="userSpaceOnUse">
<stop stop-color="#798C00" stop-opacity="0"/>
<stop offset="0.6542" stop-color="#556100" stop-opacity="0.654"/>
<stop offset="1" stop-color="#464F00"/>
</linearGradient>
<linearGradient id="paint33_linear_343_7041" x1="92.0497" y1="31.1021" x2="95.285" y2="37.5727" gradientUnits="userSpaceOnUse">
<stop stop-color="#8A7889"/>
<stop offset="0.3344" stop-color="#867385"/>
<stop offset="0.7039" stop-color="#7B667B"/>
<stop offset="1" stop-color="#6E566E"/>
</linearGradient>
<linearGradient id="paint34_linear_343_7041" x1="120.725" y1="33.1397" x2="123.96" y2="39.6103" gradientUnits="userSpaceOnUse">
<stop stop-color="#8A7889"/>
<stop offset="0.3344" stop-color="#867385"/>
<stop offset="0.7039" stop-color="#7B667B"/>
<stop offset="1" stop-color="#6E566E"/>
</linearGradient>
<linearGradient id="paint35_linear_343_7041" x1="93.0255" y1="16.1114" x2="92.5218" y2="20.8768" gradientUnits="userSpaceOnUse">
<stop stop-color="#FFDECF"/>
<stop offset="0.3791" stop-color="#FDC4B0"/>
<stop offset="0.7655" stop-color="#FBAE97"/>
<stop offset="1" stop-color="#FAA68E"/>
</linearGradient>
<linearGradient id="paint36_linear_343_7041" x1="89.7786" y1="16.1834" x2="89.3807" y2="19.9453" gradientUnits="userSpaceOnUse">
<stop stop-color="#FFDECF"/>
<stop offset="0.3791" stop-color="#FDC4B0"/>
<stop offset="0.7655" stop-color="#FBAE97"/>
<stop offset="1" stop-color="#FAA68E"/>
</linearGradient>
<linearGradient id="paint37_linear_343_7041" x1="88.4064" y1="20.4606" x2="88.1666" y2="22.7289" gradientUnits="userSpaceOnUse">
<stop stop-color="#FFDECF"/>
<stop offset="0.3791" stop-color="#FDC4B0"/>
<stop offset="0.7655" stop-color="#FBAE97"/>
<stop offset="1" stop-color="#FAA68E"/>
</linearGradient>
<linearGradient id="paint38_linear_343_7041" x1="93.3124" y1="25.2199" x2="92.8085" y2="29.9855" gradientUnits="userSpaceOnUse">
<stop stop-color="#FFDECF"/>
<stop offset="0.3791" stop-color="#FDC4B0"/>
<stop offset="0.7655" stop-color="#FBAE97"/>
<stop offset="1" stop-color="#FAA68E"/>
</linearGradient>
<linearGradient id="paint39_linear_343_7041" x1="101.773" y1="22.376" x2="101.376" y2="26.1383" gradientUnits="userSpaceOnUse">
<stop stop-color="#FFDECF"/>
<stop offset="0.3791" stop-color="#FDC4B0"/>
<stop offset="0.7655" stop-color="#FBAE97"/>
<stop offset="1" stop-color="#FAA68E"/>
</linearGradient>
<linearGradient id="paint40_linear_343_7041" x1="95.5806" y1="18.6995" x2="95.3408" y2="20.9678" gradientUnits="userSpaceOnUse">
<stop stop-color="#FFDECF"/>
<stop offset="0.3791" stop-color="#FDC4B0"/>
<stop offset="0.7655" stop-color="#FBAE97"/>
<stop offset="1" stop-color="#FAA68E"/>
</linearGradient>
<linearGradient id="paint41_linear_343_7041" x1="91.9951" y1="21.1549" x2="91.6227" y2="24.6766" gradientUnits="userSpaceOnUse">
<stop stop-color="#FFDECF"/>
<stop offset="0.3791" stop-color="#FDC4B0"/>
<stop offset="0.7655" stop-color="#FBAE97"/>
<stop offset="1" stop-color="#FAA68E"/>
</linearGradient>
<linearGradient id="paint42_linear_343_7041" x1="93.8888" y1="19.9831" x2="93.5948" y2="22.7634" gradientUnits="userSpaceOnUse">
<stop stop-color="#FFDECF"/>
<stop offset="0.3791" stop-color="#FDC4B0"/>
<stop offset="0.7655" stop-color="#FBAE97"/>
<stop offset="1" stop-color="#FAA68E"/>
</linearGradient>
<linearGradient id="paint43_linear_343_7041" x1="91.5563" y1="19.0714" x2="91.3791" y2="20.7476" gradientUnits="userSpaceOnUse">
<stop stop-color="#FFDECF"/>
<stop offset="0.3791" stop-color="#FDC4B0"/>
<stop offset="0.7655" stop-color="#FBAE97"/>
<stop offset="1" stop-color="#FAA68E"/>
</linearGradient>
<linearGradient id="paint44_linear_343_7041" x1="110.259" y1="24.1239" x2="109.755" y2="28.8893" gradientUnits="userSpaceOnUse">
<stop stop-color="#FFDECF"/>
<stop offset="0.3791" stop-color="#FDC4B0"/>
<stop offset="0.7655" stop-color="#FBAE97"/>
<stop offset="1" stop-color="#FAA68E"/>
</linearGradient>
<linearGradient id="paint45_linear_343_7041" x1="101.065" y1="30.195" x2="100.667" y2="33.9571" gradientUnits="userSpaceOnUse">
<stop stop-color="#FFDECF"/>
<stop offset="0.3791" stop-color="#FDC4B0"/>
<stop offset="0.7655" stop-color="#FBAE97"/>
<stop offset="1" stop-color="#FAA68E"/>
</linearGradient>
<linearGradient id="paint46_linear_343_7041" x1="102.704" y1="26.1738" x2="102.464" y2="28.4417" gradientUnits="userSpaceOnUse">
<stop stop-color="#FFDECF"/>
<stop offset="0.3791" stop-color="#FDC4B0"/>
<stop offset="0.7655" stop-color="#FBAE97"/>
<stop offset="1" stop-color="#FAA68E"/>
</linearGradient>
<linearGradient id="paint47_linear_343_7041" x1="113.954" y1="30.0553" x2="113.45" y2="34.8209" gradientUnits="userSpaceOnUse">
<stop stop-color="#FFDECF"/>
<stop offset="0.3791" stop-color="#FDC4B0"/>
<stop offset="0.7655" stop-color="#FBAE97"/>
<stop offset="1" stop-color="#FAA68E"/>
</linearGradient>
<linearGradient id="paint48_linear_343_7041" x1="114.522" y1="27.9064" x2="114.124" y2="31.6688" gradientUnits="userSpaceOnUse">
<stop stop-color="#FFDECF"/>
<stop offset="0.3791" stop-color="#FDC4B0"/>
<stop offset="0.7655" stop-color="#FBAE97"/>
<stop offset="1" stop-color="#FAA68E"/>
</linearGradient>
<linearGradient id="paint49_linear_343_7041" x1="112.814" y1="26.7122" x2="112.574" y2="28.9805" gradientUnits="userSpaceOnUse">
<stop stop-color="#FFDECF"/>
<stop offset="0.3791" stop-color="#FDC4B0"/>
<stop offset="0.7655" stop-color="#FBAE97"/>
<stop offset="1" stop-color="#FAA68E"/>
</linearGradient>
<linearGradient id="paint50_linear_343_7041" x1="105.338" y1="29.9729" x2="104.966" y2="33.4946" gradientUnits="userSpaceOnUse">
<stop stop-color="#FFDECF"/>
<stop offset="0.3791" stop-color="#FDC4B0"/>
<stop offset="0.7655" stop-color="#FBAE97"/>
<stop offset="1" stop-color="#FAA68E"/>
</linearGradient>
<linearGradient id="paint51_linear_343_7041" x1="111.122" y1="27.9956" x2="110.828" y2="30.776" gradientUnits="userSpaceOnUse">
<stop stop-color="#FFDECF"/>
<stop offset="0.3791" stop-color="#FDC4B0"/>
<stop offset="0.7655" stop-color="#FBAE97"/>
<stop offset="1" stop-color="#FAA68E"/>
</linearGradient>
<linearGradient id="paint52_linear_343_7041" x1="108.79" y1="27.084" x2="108.613" y2="28.7603" gradientUnits="userSpaceOnUse">
<stop stop-color="#FFDECF"/>
<stop offset="0.3791" stop-color="#FDC4B0"/>
<stop offset="0.7655" stop-color="#FBAE97"/>
<stop offset="1" stop-color="#FAA68E"/>
</linearGradient>
<linearGradient id="paint53_linear_343_7041" x1="79.2769" y1="31.8094" x2="84.8283" y2="49.3409" gradientUnits="userSpaceOnUse">
<stop stop-color="#F8F6FB"/>
<stop offset="1" stop-color="#EFDCFB"/>
</linearGradient>
<linearGradient id="paint54_linear_343_7041" x1="78.7173" y1="32.4532" x2="94.0085" y2="104.526" gradientUnits="userSpaceOnUse">
<stop stop-color="#EFDCFB" stop-opacity="0"/>
<stop offset="0.0287" stop-color="#E9D6F7" stop-opacity="0.029"/>
<stop offset="0.2203" stop-color="#C5B5DE" stop-opacity="0.22"/>
<stop offset="0.4138" stop-color="#AA9BCB" stop-opacity="0.414"/>
<stop offset="0.6078" stop-color="#9688BD" stop-opacity="0.608"/>
<stop offset="0.8028" stop-color="#8A7DB5" stop-opacity="0.803"/>
<stop offset="1" stop-color="#8679B2"/>
</linearGradient>
<linearGradient id="paint55_linear_343_7041" x1="69.7471" y1="28.3116" x2="82.6036" y2="41.5574" gradientUnits="userSpaceOnUse">
<stop stop-color="#FFD945"/>
<stop offset="0.3126" stop-color="#FFD643"/>
<stop offset="0.5593" stop-color="#FFCC3D"/>
<stop offset="0.7826" stop-color="#FFBB33"/>
<stop offset="0.9922" stop-color="#FFA426"/>
<stop offset="1" stop-color="#FFA325"/>
</linearGradient>
<linearGradient id="paint56_linear_343_7041" x1="42.2057" y1="35.9633" x2="41.8134" y2="53.0221" gradientUnits="userSpaceOnUse">
<stop stop-color="#BADA00"/>
<stop offset="0.2269" stop-color="#B0CE00"/>
<stop offset="0.6378" stop-color="#95AE00"/>
<stop offset="1" stop-color="#798C00"/>
</linearGradient>
<linearGradient id="paint57_linear_343_7041" x1="128.776" y1="55.5003" x2="114.02" y2="40.7448" gradientUnits="userSpaceOnUse">
<stop stop-color="#798C00" stop-opacity="0"/>
<stop offset="0.6542" stop-color="#556100" stop-opacity="0.654"/>
<stop offset="1" stop-color="#464F00"/>
</linearGradient>
<linearGradient id="paint58_linear_343_7041" x1="114.997" y1="38.6044" x2="118.449" y2="45.6568" gradientUnits="userSpaceOnUse">
<stop stop-color="#FF6359"/>
<stop offset="0.2243" stop-color="#FE5B50"/>
<stop offset="0.5952" stop-color="#FC4637"/>
<stop offset="1" stop-color="#F82814"/>
</linearGradient>
<linearGradient id="paint59_linear_343_7041" x1="106.138" y1="42.3434" x2="108.673" y2="49.3839" gradientUnits="userSpaceOnUse">
<stop stop-color="#FFA936"/>
<stop offset="0.4112" stop-color="#FF8548"/>
<stop offset="0.7781" stop-color="#FF6C54"/>
<stop offset="1" stop-color="#FF6359"/>
</linearGradient>
<linearGradient id="paint60_linear_343_7041" x1="48.8566" y1="49.4121" x2="48.9281" y2="36.8986" gradientUnits="userSpaceOnUse">
<stop stop-color="#798C00" stop-opacity="0"/>
<stop offset="0.6542" stop-color="#556100" stop-opacity="0.654"/>
<stop offset="1" stop-color="#464F00"/>
</linearGradient>
<linearGradient id="paint61_linear_343_7041" x1="28.9677" y1="31.1021" x2="32.203" y2="37.5727" gradientUnits="userSpaceOnUse">
<stop stop-color="#8A7889"/>
<stop offset="0.3344" stop-color="#867385"/>
<stop offset="0.7039" stop-color="#7B667B"/>
<stop offset="1" stop-color="#6E566E"/>
</linearGradient>
<linearGradient id="paint62_linear_343_7041" x1="41.1775" y1="35.923" x2="47.3557" y2="48.5427" gradientUnits="userSpaceOnUse">
<stop stop-color="#FFDECF"/>
<stop offset="0.3791" stop-color="#FDC4B0"/>
<stop offset="0.7655" stop-color="#FBAE97"/>
<stop offset="1" stop-color="#FAA68E"/>
</linearGradient>
<linearGradient id="paint63_linear_343_7041" x1="50.9937" y1="50.7336" x2="35.456" y2="35.1962" gradientUnits="userSpaceOnUse">
<stop stop-color="#FFDECF"/>
<stop offset="0.3791" stop-color="#FDC4B0"/>
<stop offset="0.7655" stop-color="#FBAE97"/>
<stop offset="1" stop-color="#FAA68E"/>
</linearGradient>
<linearGradient id="paint64_linear_343_7041" x1="47.1484" y1="15.9922" x2="49.952" y2="19.8786" gradientUnits="userSpaceOnUse">
<stop stop-color="#FFDECF"/>
<stop offset="0.3791" stop-color="#FDC4B0"/>
<stop offset="0.7655" stop-color="#FBAE97"/>
<stop offset="1" stop-color="#FAA68E"/>
</linearGradient>
<linearGradient id="paint65_linear_343_7041" x1="44.7772" y1="18.2119" x2="46.9901" y2="21.2801" gradientUnits="userSpaceOnUse">
<stop stop-color="#FFDECF"/>
<stop offset="0.3791" stop-color="#FDC4B0"/>
<stop offset="0.7655" stop-color="#FBAE97"/>
<stop offset="1" stop-color="#FAA68E"/>
</linearGradient>
<linearGradient id="paint66_linear_343_7041" x1="46.6079" y1="22.3142" x2="47.9423" y2="24.164" gradientUnits="userSpaceOnUse">
<stop stop-color="#FFDECF"/>
<stop offset="0.3791" stop-color="#FDC4B0"/>
<stop offset="0.7655" stop-color="#FBAE97"/>
<stop offset="1" stop-color="#FAA68E"/>
</linearGradient>
<linearGradient id="paint67_linear_343_7041" x1="53.4375" y1="22.5875" x2="56.241" y2="26.4742" gradientUnits="userSpaceOnUse">
<stop stop-color="#FFDECF"/>
<stop offset="0.3791" stop-color="#FDC4B0"/>
<stop offset="0.7655" stop-color="#FBAE97"/>
<stop offset="1" stop-color="#FAA68E"/>
</linearGradient>
<linearGradient id="paint68_linear_343_7041" x1="57.8445" y1="14.8248" x2="60.058" y2="17.8933" gradientUnits="userSpaceOnUse">
<stop stop-color="#FFDECF"/>
<stop offset="0.3791" stop-color="#FDC4B0"/>
<stop offset="0.7655" stop-color="#FBAE97"/>
<stop offset="1" stop-color="#FAA68E"/>
</linearGradient>
<linearGradient id="paint69_linear_343_7041" x1="50.7785" y1="16.216" x2="52.1126" y2="18.0661" gradientUnits="userSpaceOnUse">
<stop stop-color="#FFDECF"/>
<stop offset="0.3791" stop-color="#FDC4B0"/>
<stop offset="0.7655" stop-color="#FBAE97"/>
<stop offset="1" stop-color="#FAA68E"/>
</linearGradient>
<linearGradient id="paint70_linear_343_7041" x1="49.7453" y1="20.4375" x2="51.8171" y2="23.3098" gradientUnits="userSpaceOnUse">
<stop stop-color="#FFDECF"/>
<stop offset="0.3791" stop-color="#FDC4B0"/>
<stop offset="0.7655" stop-color="#FBAE97"/>
<stop offset="1" stop-color="#FAA68E"/>
</linearGradient>
<linearGradient id="paint71_linear_343_7041" x1="50.374" y1="18.3011" x2="52.0096" y2="20.5687" gradientUnits="userSpaceOnUse">
<stop stop-color="#FFDECF"/>
<stop offset="0.3791" stop-color="#FDC4B0"/>
<stop offset="0.7655" stop-color="#FBAE97"/>
<stop offset="1" stop-color="#FAA68E"/>
</linearGradient>
<linearGradient id="paint72_linear_343_7041" x1="48.0277" y1="19.1778" x2="49.0139" y2="20.5448" gradientUnits="userSpaceOnUse">
<stop stop-color="#FFDECF"/>
<stop offset="0.3791" stop-color="#FDC4B0"/>
<stop offset="0.7655" stop-color="#FBAE97"/>
<stop offset="1" stop-color="#FAA68E"/>
</linearGradient>
<linearGradient id="paint73_linear_343_7041" x1="65.3335" y1="10.4663" x2="68.137" y2="14.3528" gradientUnits="userSpaceOnUse">
<stop stop-color="#FFDECF"/>
<stop offset="0.3791" stop-color="#FDC4B0"/>
<stop offset="0.7655" stop-color="#FBAE97"/>
<stop offset="1" stop-color="#FAA68E"/>
</linearGradient>
<linearGradient id="paint74_linear_343_7041" x1="62.5328" y1="21.1227" x2="64.746" y2="24.1909" gradientUnits="userSpaceOnUse">
<stop stop-color="#FFDECF"/>
<stop offset="0.3791" stop-color="#FDC4B0"/>
<stop offset="0.7655" stop-color="#FBAE97"/>
<stop offset="1" stop-color="#FAA68E"/>
</linearGradient>
<linearGradient id="paint75_linear_343_7041" x1="61.0721" y1="17.0331" x2="62.4062" y2="18.8828" gradientUnits="userSpaceOnUse">
<stop stop-color="#FFDECF"/>
<stop offset="0.3791" stop-color="#FDC4B0"/>
<stop offset="0.7655" stop-color="#FBAE97"/>
<stop offset="1" stop-color="#FAA68E"/>
</linearGradient>
<linearGradient id="paint76_linear_343_7041" x1="72.0429" y1="12.4207" x2="74.8465" y2="16.3075" gradientUnits="userSpaceOnUse">
<stop stop-color="#FFDECF"/>
<stop offset="0.3791" stop-color="#FDC4B0"/>
<stop offset="0.7655" stop-color="#FBAE97"/>
<stop offset="1" stop-color="#FAA68E"/>
</linearGradient>
<linearGradient id="paint77_linear_343_7041" x1="71.033" y1="10.441" x2="73.2465" y2="13.5092" gradientUnits="userSpaceOnUse">
<stop stop-color="#FFDECF"/>
<stop offset="0.3791" stop-color="#FDC4B0"/>
<stop offset="0.7655" stop-color="#FBAE97"/>
<stop offset="1" stop-color="#FAA68E"/>
</linearGradient>
<linearGradient id="paint78_linear_343_7041" x1="68.964" y1="10.6905" x2="70.2984" y2="12.5402" gradientUnits="userSpaceOnUse">
<stop stop-color="#FFDECF"/>
<stop offset="0.3791" stop-color="#FDC4B0"/>
<stop offset="0.7655" stop-color="#FBAE97"/>
<stop offset="1" stop-color="#FAA68E"/>
</linearGradient>
<linearGradient id="paint79_linear_343_7041" x1="65.5687" y1="18.1066" x2="67.6405" y2="20.979" gradientUnits="userSpaceOnUse">
<stop stop-color="#FFDECF"/>
<stop offset="0.3791" stop-color="#FDC4B0"/>
<stop offset="0.7655" stop-color="#FBAE97"/>
<stop offset="1" stop-color="#FAA68E"/>
</linearGradient>
<linearGradient id="paint80_linear_343_7041" x1="68.5592" y1="12.7754" x2="70.1948" y2="15.0428" gradientUnits="userSpaceOnUse">
<stop stop-color="#FFDECF"/>
<stop offset="0.3791" stop-color="#FDC4B0"/>
<stop offset="0.7655" stop-color="#FBAE97"/>
<stop offset="1" stop-color="#FAA68E"/>
</linearGradient>
<linearGradient id="paint81_linear_343_7041" x1="66.2132" y1="13.6519" x2="67.1994" y2="15.0189" gradientUnits="userSpaceOnUse">
<stop stop-color="#FFDECF"/>
<stop offset="0.3791" stop-color="#FDC4B0"/>
<stop offset="0.7655" stop-color="#FBAE97"/>
<stop offset="1" stop-color="#FAA68E"/>
</linearGradient>
</defs>
</svg>
