<svg width="146" height="151" viewBox="0 0 146 151" fill="none" xmlns="http://www.w3.org/2000/svg">
<path d="M143.267 97.3585C145.607 96.1435 146.39 92.9079 144.46 90.7514L65.0518 2.00051C63.5447 0.316103 61.1868 0.201985 59.5285 1.29551L40.8565 12.3764C39.8891 12.8814 23.4135 91.9455 22.3753 103.984C22.1827 106.219 23.7585 108.217 25.9771 108.551C39.1224 110.531 57.2027 110.103 76.713 110.103C94.3282 110.103 110.144 110.755 122.793 109.106C123.475 109.016 124.08 108.779 124.595 108.439L143.267 97.3585Z" fill="url(#paint0_linear_343_7162)"/>
<path d="M144.46 90.751L130.677 75.3466L113.748 92.2751L124.571 108.452C124.578 108.448 124.587 108.444 124.594 108.439L143.266 97.3583C145.606 96.1433 146.389 92.9077 144.46 90.751Z" fill="url(#paint1_linear_343_7162)"/>
<path d="M50.7694 10.6302C36.4309 23.3308 115.804 112.942 130.142 100.242C132.615 98.0522 132.299 93.5749 130.013 87.7305C129.183 85.6075 128.829 83.284 129.03 80.9017L129.051 80.6461C129.488 75.4661 126.834 70.8772 122.254 68.8946L122.251 68.8931C118.338 67.1996 115.782 63.5817 115.432 59.2414L115.399 58.8284C115.013 54.0428 111.918 50.1911 107.363 48.8284L107.015 48.7243C102.831 47.4728 99.8521 44.1102 99.1141 39.8064L99.0523 39.4458C98.2488 34.7596 94.7985 31.222 90.0941 30.2617L89.6021 30.1611C85.3597 29.2949 82.1047 26.3225 80.9335 22.2452C79.5606 17.4661 75.3541 14.2722 70.1818 14.0817L69.8338 14.0687C67.4447 13.9808 65.1809 13.349 63.1738 12.2684C57.6479 9.29401 53.2415 8.44048 50.7694 10.6302Z" fill="url(#paint2_linear_343_7162)"/>
<path d="M130.014 87.7311C129.181 85.607 128.83 83.2828 129.03 80.9017L129.051 80.6449C129.486 75.467 126.833 70.8778 122.255 68.8943H122.249C118.339 67.1999 115.782 63.5811 115.431 59.2408L115.398 58.8299C115.012 54.0437 111.917 50.1899 107.361 48.8278L107.015 48.7252C102.832 47.474 99.8507 44.1093 99.1128 39.8067L99.0507 39.4472C98.5481 36.507 97.0022 34.0205 94.7593 32.3396C96.5401 37.342 95.4296 43.1417 91.4269 47.144L76.8643 61.7067C97.2528 85.454 122.629 106.898 130.144 100.241C132.613 98.0522 132.3 93.574 130.014 87.7311Z" fill="url(#paint3_linear_343_7162)"/>
<path d="M62.8927 37.9255C70.029 37.9255 75.8141 32.1403 75.8141 25.004C75.8141 17.8677 70.029 12.0825 62.8927 12.0825C55.7563 12.0825 49.9712 17.8677 49.9712 25.004C49.9712 32.1403 55.7563 37.9255 62.8927 37.9255Z" fill="url(#paint4_linear_343_7162)"/>
<path d="M104.758 82.3302C111.895 82.3302 117.68 76.5451 117.68 69.4088C117.68 62.2724 111.895 56.4873 104.758 56.4873C97.622 56.4873 91.8369 62.2724 91.8369 69.4088C91.8369 76.5451 97.622 82.3302 104.758 82.3302Z" fill="url(#paint5_linear_343_7162)"/>
<path d="M127.711 68.7136C122.171 63.1736 113.188 63.1736 107.648 68.7136C102.108 74.2536 102.108 83.236 107.648 88.776C113.188 94.316 122.171 94.316 127.711 88.776C133.251 83.236 133.251 74.2536 127.711 68.7136ZM111.309 85.1148C107.792 81.5971 107.792 75.8924 111.309 72.3748C114.827 68.8571 120.531 68.8586 124.048 72.3762C127.566 75.8939 127.567 81.5974 124.049 85.1148C120.532 88.6324 114.827 88.6324 111.309 85.1148Z" fill="url(#paint6_linear_343_7162)"/>
<path d="M109.335 87.0889C113.943 91.6966 121.416 91.6966 126.023 87.0889C130.633 82.4798 130.631 75.0083 126.023 70.4007C121.414 65.7916 113.944 65.7916 109.335 70.4007C104.728 75.0083 104.726 82.4798 109.335 87.0889ZM124.05 72.3748C127.567 75.8925 127.567 81.5972 124.05 85.1148C120.532 88.6325 114.828 88.631 111.311 85.1133C107.793 81.5957 107.792 75.8922 111.31 72.3748C114.827 68.8572 120.532 68.8572 124.05 72.3748Z" fill="url(#paint7_linear_343_7162)"/>
<path d="M91.4278 27.0808C85.8878 21.5408 76.9055 21.5408 71.3655 27.0808C65.8254 32.6208 65.8254 41.6031 71.3655 47.1431C76.9055 52.6831 85.8878 52.6831 91.4278 47.1431C96.9678 41.6031 96.9678 32.6208 91.4278 27.0808ZM75.0263 43.482C71.5087 39.9643 71.5087 34.2596 75.0263 30.742C78.544 27.2243 84.2475 27.2258 87.7649 30.7434C91.2822 34.2611 91.284 39.9646 87.7663 43.4823C84.249 46.9996 78.544 46.9996 75.0263 43.482Z" fill="url(#paint8_linear_343_7162)"/>
<path d="M73.052 45.4561C77.6596 50.0638 85.1326 50.0638 89.7402 45.4561C94.3493 40.847 94.3479 33.3755 89.7402 28.7679C85.1311 24.1588 77.6611 24.1588 73.052 28.7679C68.4443 33.3755 68.4429 40.847 73.052 45.4561ZM87.7664 30.742C91.284 34.2596 91.284 39.9643 87.7664 43.482C84.2488 46.9996 78.5452 46.9982 75.0279 43.4805C71.5102 39.9629 71.5088 34.2593 75.0264 30.742C78.5438 27.2243 84.2488 27.2243 87.7664 30.742Z" fill="url(#paint9_linear_343_7162)"/>
<path d="M121.144 94.91L123.181 93.0515C126.128 90.3621 126.541 85.6159 124.146 81.5221C118.786 72.3603 109.304 59.8783 97.5346 46.9806C85.7652 34.083 74.2008 23.5015 65.567 17.3268C61.7088 14.5677 56.9449 14.5462 53.9976 17.2356L51.9608 19.0942C50.4996 20.4274 50.9999 23.0847 52.9638 24.3597C61.7964 30.0936 74.6358 41.5733 87.7323 55.9253C100.829 70.2774 111.088 84.1112 115.992 93.4306C117.082 95.5027 119.683 96.2436 121.144 94.91Z" fill="url(#paint10_linear_343_7162)"/>
<path d="M64.4789 32.572C67.9503 39.0614 73.2662 44.3776 79.7556 47.8488C80.8371 48.4273 82.1448 47.6438 82.1448 46.4173V34.5709C82.1448 32.1473 80.1801 30.1826 77.7565 30.1826H65.9103C64.6839 30.1829 63.9003 31.4906 64.4789 32.572Z" fill="url(#paint11_linear_343_7162)"/>
<path d="M48.4086 13.7182C41.0866 20.2038 120.459 109.815 127.782 103.33C129.044 102.211 127.728 98.6208 124.649 93.4785C123.53 91.6105 122.71 89.7008 122.277 87.88L122.23 87.6847C121.289 83.7249 118.248 79.4788 114.442 76.8102L114.44 76.8082C111.189 74.5288 108.455 71.0682 107.147 67.5767L107.022 67.2446C105.58 63.3949 102.397 59.6199 98.7607 57.4441L98.4828 57.2779C95.1425 55.2796 92.1633 51.9167 90.5828 48.3596L90.4504 48.0617C88.7292 44.1885 85.3657 40.5741 81.7181 38.6776L81.3366 38.4791C78.0472 36.7688 74.9628 33.6452 73.1222 30.1605C70.9651 26.0761 67.136 22.5476 63.336 21.1417L63.0804 21.047C61.3251 20.3976 59.5286 19.352 57.8095 18.0164C53.0766 14.3399 49.6713 12.5999 48.4086 13.7182Z" fill="url(#paint12_linear_343_7162)"/>
<path d="M134.011 102.852L124.596 108.438C124.079 108.779 123.474 109.016 122.793 109.106C110.142 110.754 94.3277 106.29 76.7124 106.29C57.2027 106.29 39.1221 110.53 25.9771 108.552C23.7583 108.217 22.1827 106.219 22.3747 103.984C23.4124 91.9447 39.89 12.8817 40.8574 12.3761L48.8271 7.64673L134.011 102.852Z" fill="url(#paint13_linear_343_7162)"/>
<path d="M134.011 102.852L124.596 108.438C124.079 108.779 123.474 109.016 122.793 109.106C110.142 110.754 93.9783 108.139 76.3633 108.139C56.8535 108.139 39.1221 110.53 25.9771 108.552C23.7583 108.217 22.1827 106.219 22.3747 103.984C23.4124 91.9447 39.89 12.8817 40.8574 12.3761L48.8271 7.64673L134.011 102.852Z" fill="url(#paint14_linear_343_7162)"/>
<path d="M38.7511 14.9597C27.3805 54.0306 47.9632 63.2727 46.9249 75.3112C46.7323 77.5465 23.7576 108.216 25.9761 108.551C39.1214 110.53 56.9634 109.864 76.4737 109.864C94.0887 109.864 110.143 110.754 122.792 109.105C126.185 108.663 127.696 104.604 125.414 102.053L46.0058 13.3027C43.777 10.8118 39.6849 11.7506 38.7511 14.9597Z" fill="url(#paint15_linear_343_7162)"/>
<path d="M22.3743 103.984C22.1817 106.219 23.7576 108.217 25.9761 108.551C39.1214 110.53 56.8526 111.744 76.3629 111.744C93.9782 111.744 110.143 110.755 122.792 109.105C126.185 108.663 127.696 104.604 125.414 102.053L104.559 78.7449H25.3067C23.6723 90.2352 22.789 99.1749 22.3743 103.984Z" fill="url(#paint16_linear_343_7162)"/>
<g opacity="0.6">
<g opacity="0.6">
<path opacity="0.6" d="M50.4779 32.2152C51.7362 32.2152 52.7562 31.1952 52.7562 29.9369C52.7562 28.6787 51.7362 27.6587 50.4779 27.6587C49.2197 27.6587 48.1997 28.6787 48.1997 29.9369C48.1997 31.1952 49.2197 32.2152 50.4779 32.2152Z" fill="url(#paint17_linear_343_7162)"/>
<path opacity="0.6" d="M43.5681 33.9379C44.5614 33.9379 45.3666 33.1326 45.3666 32.1393C45.3666 31.146 44.5614 30.3408 43.5681 30.3408C42.5748 30.3408 41.7695 31.146 41.7695 32.1393C41.7695 33.1326 42.5748 33.9379 43.5681 33.9379Z" fill="url(#paint18_linear_343_7162)"/>
<path opacity="0.6" d="M48.9577 39.1128C49.5564 39.1128 50.0418 38.6274 50.0418 38.0287C50.0418 37.43 49.5564 36.9446 48.9577 36.9446C48.3589 36.9446 47.8735 37.43 47.8735 38.0287C47.8735 38.6274 48.3589 39.1128 48.9577 39.1128Z" fill="url(#paint19_linear_343_7162)"/>
</g>
<g opacity="0.6">
<path opacity="0.6" d="M35.1025 95.8266C36.3607 95.8266 37.3807 94.8066 37.3807 93.5484C37.3807 92.2901 36.3607 91.2701 35.1025 91.2701C33.8442 91.2701 32.8242 92.2901 32.8242 93.5484C32.8242 94.8066 33.8442 95.8266 35.1025 95.8266Z" fill="url(#paint20_linear_343_7162)"/>
<path opacity="0.6" d="M35.5129 102.588C36.5062 102.588 37.3114 101.782 37.3114 100.789C37.3114 99.7957 36.5062 98.9905 35.5129 98.9905C34.5196 98.9905 33.7144 99.7957 33.7144 100.789C33.7144 101.782 34.5196 102.588 35.5129 102.588Z" fill="url(#paint21_linear_343_7162)"/>
<path opacity="0.6" d="M42.5597 98.122C43.1584 98.122 43.6438 97.6366 43.6438 97.0378C43.6438 96.4391 43.1584 95.9537 42.5597 95.9537C41.961 95.9537 41.4756 96.4391 41.4756 97.0378C41.4756 97.6366 41.961 98.122 42.5597 98.122Z" fill="url(#paint22_linear_343_7162)"/>
</g>
<g opacity="0.6">
<path opacity="0.6" d="M59.1183 40.1868C60.0479 40.1868 60.8015 39.4332 60.8015 38.5035C60.8015 37.5739 60.0479 36.8203 59.1183 36.8203C58.1887 36.8203 57.4351 37.5739 57.4351 38.5035C57.4351 39.4332 58.1887 40.1868 59.1183 40.1868Z" fill="url(#paint23_linear_343_7162)"/>
<path opacity="0.6" d="M54.5012 37.112C55.2351 37.112 55.83 36.5171 55.83 35.7832C55.83 35.0493 55.2351 34.4543 54.5012 34.4543C53.7673 34.4543 53.1724 35.0493 53.1724 35.7832C53.1724 36.5171 53.7673 37.112 54.5012 37.112Z" fill="url(#paint24_linear_343_7162)"/>
<path opacity="0.6" d="M53.913 42.4537C54.3555 42.4537 54.7142 42.095 54.7142 41.6525C54.7142 41.21 54.3555 40.8513 53.913 40.8513C53.4705 40.8513 53.1118 41.21 53.1118 41.6525C53.1118 42.095 53.4705 42.4537 53.913 42.4537Z" fill="url(#paint25_linear_343_7162)"/>
</g>
<g opacity="0.6">
<path opacity="0.6" d="M97.7438 99.9674C98.6734 99.9674 99.427 99.2138 99.427 98.2842C99.427 97.3546 98.6734 96.601 97.7438 96.601C96.8142 96.601 96.0605 97.3546 96.0605 98.2842C96.0605 99.2138 96.8142 99.9674 97.7438 99.9674Z" fill="url(#paint26_linear_343_7162)"/>
<path opacity="0.6" d="M93.1267 96.8928C93.8606 96.8928 94.4555 96.2978 94.4555 95.5639C94.4555 94.83 93.8606 94.2351 93.1267 94.2351C92.3928 94.2351 91.7979 94.83 91.7979 95.5639C91.7979 96.2978 92.3928 96.8928 93.1267 96.8928Z" fill="url(#paint27_linear_343_7162)"/>
<path opacity="0.6" d="M92.5385 102.235C92.981 102.235 93.3397 101.876 93.3397 101.434C93.3397 100.991 92.981 100.632 92.5385 100.632C92.096 100.632 91.7373 100.991 91.7373 101.434C91.7373 101.876 92.096 102.235 92.5385 102.235Z" fill="url(#paint28_linear_343_7162)"/>
</g>
</g>
<path d="M109.01 62.7347C108.441 62.9305 108.139 63.5505 108.335 64.1197C108.53 64.6888 109.15 64.9914 109.72 64.7955C110.289 64.5997 110.591 63.9797 110.395 63.4105C110.2 62.8414 109.58 62.5388 109.01 62.7347Z" fill="#FFEAA2"/>
<path d="M111.924 64.8569C112.079 65.3064 112.569 65.5452 113.018 65.3905C113.467 65.2358 113.706 64.7464 113.551 64.297C113.397 63.8475 112.907 63.6087 112.458 63.7634C112.009 63.9181 111.77 64.4075 111.924 64.8569Z" fill="#FFEAA2"/>
<path d="M114.297 60.9341C114.39 61.2049 114.685 61.3491 114.956 61.2558C115.227 61.1626 115.371 60.8676 115.278 60.5967C115.185 60.3258 114.89 60.1817 114.619 60.275C114.348 60.3682 114.204 60.6632 114.297 60.9341Z" fill="#FFEAA2"/>
<path d="M106.494 53.8119C106.922 54.2352 107.612 54.2313 108.035 53.8034C108.458 53.3754 108.454 52.6854 108.027 52.2622C107.599 51.839 106.909 51.8428 106.485 52.2707C106.062 52.6987 106.066 53.3887 106.494 53.8119Z" fill="#FFEAA2"/>
<path d="M95.3808 48.187C95.7187 48.5211 96.2634 48.5182 96.5976 48.1803C96.9317 47.8423 96.9287 47.2976 96.5908 46.9635C96.2529 46.6294 95.7081 46.6323 95.374 46.9703C95.0399 47.3082 95.0432 47.8529 95.3808 48.187Z" fill="#FFEAA2"/>
<path d="M101.443 53.4061C101.647 53.6076 101.975 53.6058 102.177 53.402C102.378 53.1982 102.377 52.87 102.173 52.6685C101.969 52.467 101.641 52.4688 101.439 52.6726C101.238 52.8761 101.24 53.2047 101.443 53.4061Z" fill="#FFEAA2"/>
<path d="M110.799 59.6923C111.183 59.9161 111.676 59.7864 111.9 59.402C112.124 59.0179 111.994 58.5246 111.609 58.3008C111.225 58.077 110.732 58.2067 110.508 58.5911C110.284 58.9752 110.414 59.4682 110.799 59.6923Z" fill="#FFEAA2"/>
<path d="M108.605 60.7193C108.908 60.896 109.298 60.7934 109.474 60.4901C109.651 60.1869 109.548 59.7975 109.245 59.6207C108.942 59.444 108.553 59.5466 108.376 59.8498C108.199 60.1531 108.301 60.5425 108.605 60.7193Z" fill="#FFEAA2"/>
<path d="M111.343 61.5753C111.16 61.4689 110.925 61.5306 110.819 61.7136C110.712 61.8965 110.774 62.1312 110.957 62.2377C111.14 62.3442 111.375 62.2824 111.481 62.0994C111.588 61.9168 111.525 61.6821 111.343 61.5753Z" fill="#FFEAA2"/>
<path d="M86.9982 42.9086C86.4291 43.1045 86.1264 43.7245 86.3223 44.2936C86.5182 44.8627 87.1382 45.1654 87.7073 44.9695C88.2764 44.7736 88.5791 44.1536 88.3832 43.5845C88.1873 43.0157 87.5673 42.713 86.9982 42.9086Z" fill="#FFEAA2"/>
<path d="M97.2526 52.2273C97.4073 52.6767 97.8968 52.9155 98.3462 52.7608C98.7956 52.6061 99.0344 52.1167 98.8797 51.6673C98.725 51.2179 98.2356 50.9791 97.7862 51.1338C97.3371 51.2885 97.0979 51.7779 97.2526 52.2273Z" fill="#FFEAA2"/>
<path d="M95.0147 44.051C95.1079 44.3219 95.4029 44.466 95.6738 44.3728C95.9447 44.2795 96.0888 43.9845 95.9956 43.7137C95.9023 43.4428 95.6073 43.2987 95.3365 43.3919C95.0656 43.4851 94.9215 43.7804 95.0147 44.051Z" fill="#FFEAA2"/>
<path d="M83.6653 37.7814C84.0932 38.2046 84.7832 38.2008 85.2064 37.7729C85.6297 37.3449 85.6259 36.6549 85.1979 36.2317C84.77 35.8085 84.08 35.8123 83.6567 36.2402C83.2335 36.6682 83.2373 37.3582 83.6653 37.7814Z" fill="#FFEAA2"/>
<path d="M82.7604 38.9264C82.4263 39.2644 82.4292 39.8091 82.7671 40.1432C83.1051 40.4773 83.6498 40.4744 83.9839 40.1364C84.318 39.7985 84.3151 39.2538 83.9771 38.9197C83.6392 38.5856 83.0945 38.5888 82.7604 38.9264Z" fill="#FFEAA2"/>
<path d="M84.4844 41.962C84.6882 42.1635 85.0164 42.1618 85.2179 41.9579C85.4194 41.7544 85.4176 41.4259 85.2138 41.2244C85.01 41.0229 84.6817 41.0247 84.4803 41.2285C84.2791 41.4323 84.2809 41.7609 84.4844 41.962Z" fill="#FFEAA2"/>
<path d="M93.0581 39.6708C93.4422 39.8946 93.9354 39.7649 94.1593 39.3805C94.3831 38.9964 94.2534 38.5031 93.869 38.2793C93.4848 38.0555 92.9916 38.1852 92.7678 38.5696C92.544 38.954 92.674 39.447 93.0581 39.6708Z" fill="#FFEAA2"/>
<path d="M86.5926 40.8931C86.8958 41.0698 87.2852 40.9672 87.462 40.664C87.6388 40.3607 87.5361 39.9713 87.2329 39.7946C86.9296 39.6178 86.5402 39.7204 86.3635 40.0237C86.1867 40.3272 86.2891 40.7163 86.5926 40.8931Z" fill="#FFEAA2"/>
<path d="M89.3297 41.7494C89.1467 41.6429 88.912 41.7047 88.8056 41.8876C88.6991 42.0706 88.7608 42.3053 88.9438 42.4118C89.1267 42.5182 89.3614 42.4565 89.4679 42.2735C89.5744 42.0906 89.5126 41.8559 89.3297 41.7494Z" fill="#FFEAA2"/>
<path d="M38.7511 14.9597C27.3805 54.0306 23.4126 91.945 22.3743 103.983C22.1817 106.219 23.7576 108.216 25.9761 108.55C39.1214 110.53 56.8526 111.744 76.3629 111.744C93.9779 111.744 110.143 110.754 122.792 109.105C126.185 108.663 127.696 104.603 125.414 102.053L46.0058 13.3027C43.777 10.8118 39.6849 11.7506 38.7511 14.9597Z" fill="url(#paint29_linear_343_7162)"/>
<path d="M121.046 136.198C123.386 134.983 124.17 131.747 122.24 129.59L42.8314 40.8399C41.3243 39.1555 38.9664 39.0413 37.3081 40.1349L18.6361 51.2158C17.6687 51.7208 16.8802 52.6019 16.5314 53.7996C5.16077 92.8705 1.19283 130.785 0.154598 142.823C-0.0380495 145.058 1.53783 147.056 3.75636 147.39C16.9017 149.37 34.6331 150.583 54.1431 150.583C71.7584 150.583 87.9231 149.594 100.572 147.945C101.255 147.856 101.86 147.619 102.374 147.278L121.046 136.198Z" fill="url(#paint30_linear_343_7162)"/>
<path d="M122.24 129.59L108.457 114.186L91.5288 131.115L102.352 147.292C102.359 147.287 102.368 147.283 102.375 147.278L121.047 136.198C123.387 134.983 124.17 131.747 122.24 129.59Z" fill="url(#paint31_linear_343_7162)"/>
<path d="M28.5497 49.4695C14.2109 62.1701 93.5839 151.782 107.922 139.081C110.395 136.892 110.079 132.414 107.793 126.57C106.963 124.447 106.609 122.123 106.81 119.741L106.832 119.485C107.268 114.305 104.614 109.717 100.034 107.734L100.031 107.732C96.118 106.039 93.5621 102.421 93.2124 98.0807L93.1792 97.6678C92.7933 92.8822 89.6977 89.0304 85.1427 87.6678L84.7947 87.5637C80.6112 86.3122 77.6321 82.9495 76.8942 78.6457L76.8324 78.2851C76.0289 73.599 72.5786 70.0613 67.8741 69.101L67.3821 69.0004C63.1397 68.1343 59.8847 65.1619 58.7136 61.0845C57.3406 56.3054 53.1341 53.1116 47.9618 52.921L47.6139 52.9081C45.2247 52.8201 42.9609 52.1884 40.9539 51.1078C35.428 48.1334 31.0218 47.2798 28.5497 49.4695Z" fill="url(#paint32_linear_343_7162)"/>
<path d="M107.794 126.57C106.962 124.446 106.611 122.122 106.811 119.741L106.832 119.484C107.267 114.306 104.613 109.717 100.035 107.734H100.03C96.1194 106.039 93.563 102.42 93.2115 98.0801L93.1791 97.6693C92.7927 92.8831 89.6983 89.0292 85.1418 87.6672L84.7959 87.5645C80.6124 86.3134 77.6315 82.9487 76.8936 78.646L76.8315 78.2866C76.3288 75.3463 74.783 72.8598 72.54 71.179C74.3209 76.1813 73.2103 81.981 69.2077 85.9834L54.645 100.546C75.0336 124.293 100.409 145.737 107.924 139.08C110.394 136.892 110.081 132.413 107.794 126.57Z" fill="url(#paint33_linear_343_7162)"/>
<path d="M40.6729 76.7648C47.8093 76.7648 53.5944 70.9797 53.5944 63.8433C53.5944 56.707 47.8093 50.9219 40.6729 50.9219C33.5366 50.9219 27.7515 56.707 27.7515 63.8433C27.7515 70.9797 33.5366 76.7648 40.6729 76.7648Z" fill="url(#paint34_linear_343_7162)"/>
<path d="M82.5387 121.17C89.675 121.17 95.4601 115.384 95.4601 108.248C95.4601 101.112 89.675 95.3267 82.5387 95.3267C75.4023 95.3267 69.6172 101.112 69.6172 108.248C69.6172 115.384 75.4023 121.17 82.5387 121.17Z" fill="url(#paint35_linear_343_7162)"/>
<path d="M105.491 107.553C99.9508 102.013 90.9684 102.013 85.4284 107.553C79.8884 113.093 79.8884 122.075 85.4284 127.615C90.9684 133.155 99.9508 133.155 105.491 127.615C111.031 122.075 111.031 113.093 105.491 107.553ZM89.0896 123.954C85.572 120.437 85.572 114.732 89.0896 111.214C92.6073 107.697 98.3108 107.698 101.828 111.216C105.346 114.733 105.347 120.437 101.83 123.954C98.312 127.472 92.6073 127.472 89.0896 123.954Z" fill="url(#paint36_linear_343_7162)"/>
<path d="M87.1155 125.928C91.7231 130.536 99.196 130.536 103.804 125.928C108.413 121.319 108.411 113.848 103.804 109.24C99.1946 104.631 91.7246 104.631 87.1155 109.24C82.5078 113.848 82.5063 121.319 87.1155 125.928ZM101.83 111.214C105.347 114.732 105.347 120.437 101.83 123.954C98.3119 127.472 92.6084 127.47 89.091 123.953C85.5737 120.435 85.5719 114.732 89.0896 111.214C92.6072 107.697 98.3119 107.697 101.83 111.214Z" fill="url(#paint37_linear_343_7162)"/>
<path d="M69.2081 65.9201C63.6681 60.3801 54.6857 60.3801 49.1457 65.9201C43.6057 71.4601 43.6057 80.4425 49.1457 85.9825C54.6857 91.5225 63.6681 91.5225 69.2081 85.9825C74.7481 80.4425 74.7481 71.4601 69.2081 65.9201ZM52.8069 82.3213C49.2893 78.8037 49.2893 73.099 52.8069 69.5813C56.3245 66.0637 62.0281 66.0651 65.5454 69.5828C69.0631 73.1004 69.0646 78.804 65.5469 82.3216C62.0293 85.839 56.3245 85.839 52.8069 82.3213Z" fill="url(#paint38_linear_343_7162)"/>
<path d="M50.8328 84.2955C55.4404 88.9031 62.9133 88.9031 67.521 84.2955C72.1301 79.6864 72.1286 72.2149 67.521 67.6072C62.9119 62.9981 55.4419 62.9981 50.8328 67.6072C46.2251 72.2149 46.2236 79.6864 50.8328 84.2955ZM65.5469 69.5813C69.0645 73.099 69.0645 78.8037 65.5469 82.3214C62.0292 85.839 56.3257 85.8375 52.8083 82.3199C49.2907 78.8022 49.2892 73.0987 52.8069 69.5813C56.3245 66.0637 62.0295 66.0637 65.5469 69.5813Z" fill="url(#paint39_linear_343_7162)"/>
<path d="M98.9245 133.75L100.961 131.891C103.909 129.202 104.322 124.455 101.927 120.362C96.5663 111.2 87.0848 98.7178 75.3154 85.8202C63.546 72.9225 51.9816 62.3411 43.3478 56.1664C39.4895 53.4072 34.7257 53.3858 31.7783 56.0755L29.7416 57.934C28.2804 59.2672 28.7807 61.9246 30.7445 63.1996C39.5772 68.9334 52.4166 80.4131 65.5131 94.7652C78.6095 109.117 88.8692 122.951 93.7728 132.27C94.8628 134.342 97.4633 135.083 98.9245 133.75Z" fill="url(#paint40_linear_343_7162)"/>
<path d="M67.0486 77.4041C67.6177 77.2082 67.9204 76.5882 67.7245 76.0191C67.5286 75.4499 66.9086 75.1473 66.3395 75.3432C65.7704 75.5391 65.4677 76.1591 65.6636 76.7282C65.8592 77.2973 66.4795 77.6 67.0486 77.4041Z" fill="#FFEAA2"/>
<path d="M64.1346 75.2817C63.9799 74.8323 63.4905 74.5935 63.0411 74.7482C62.5917 74.9029 62.3529 75.3923 62.5076 75.8417C62.6623 76.2911 63.1517 76.5299 63.6011 76.3752C64.0505 76.2205 64.2893 75.7311 64.1346 75.2817Z" fill="#FFEAA2"/>
<path d="M61.7627 79.2046C61.6694 78.9338 61.3744 78.7896 61.1036 78.8829C60.8327 78.9761 60.6886 79.2711 60.7818 79.542C60.875 79.8129 61.17 79.957 61.4409 79.8638C61.7118 79.7708 61.8559 79.4755 61.7627 79.2046Z" fill="#FFEAA2"/>
<path d="M69.5656 86.3267C69.1377 85.9034 68.4477 85.9072 68.0244 86.3352C67.6012 86.7631 67.605 87.4531 68.0329 87.8764C68.4609 88.2996 69.1509 88.2958 69.5741 87.8678C69.9977 87.4399 69.9938 86.7499 69.5656 86.3267Z" fill="#FFEAA2"/>
<path d="M80.6788 91.9517C80.3409 91.6175 79.7962 91.6205 79.462 91.9584C79.1279 92.2964 79.1309 92.8411 79.4688 93.1752C79.8067 93.5093 80.3514 93.5064 80.6856 93.1684C81.0197 92.8305 81.0167 92.2858 80.6788 91.9517Z" fill="#FFEAA2"/>
<path d="M74.6159 86.7328C74.4121 86.5313 74.0838 86.5331 73.8824 86.7369C73.6809 86.9408 73.6826 87.269 73.8865 87.4705C74.0903 87.6719 74.4185 87.6702 74.62 87.4664C74.8215 87.2625 74.8197 86.9343 74.6159 86.7328Z" fill="#FFEAA2"/>
<path d="M65.2606 80.4464C64.8765 80.2226 64.3833 80.3523 64.1594 80.7367C63.9356 81.1208 64.0653 81.6141 64.4497 81.8379C64.8339 82.0617 65.3271 81.932 65.5509 81.5476C65.7747 81.1635 65.6447 80.6706 65.2606 80.4464Z" fill="#FFEAA2"/>
<path d="M67.455 79.4193C67.1517 79.2425 66.7623 79.3452 66.5856 79.6484C66.4088 79.9517 66.5115 80.3411 66.8147 80.5178C67.1179 80.6946 67.5073 80.5919 67.6841 80.2887C67.8609 79.9855 67.7582 79.5964 67.455 79.4193Z" fill="#FFEAA2"/>
<path d="M64.7167 78.5635C64.8997 78.67 65.1344 78.6082 65.2409 78.4252C65.3473 78.2423 65.2856 78.0076 65.1026 77.9011C64.9197 77.7947 64.685 77.8564 64.5785 78.0394C64.472 78.2223 64.5338 78.457 64.7167 78.5635Z" fill="#FFEAA2"/>
<path d="M89.0608 97.2302C89.63 97.0344 89.9326 96.4144 89.7367 95.8452C89.5408 95.2761 88.9208 94.9735 88.3517 95.1694C87.7826 95.3652 87.4799 95.9852 87.6758 96.5544C87.8717 97.1235 88.4917 97.4261 89.0608 97.2302Z" fill="#FFEAA2"/>
<path d="M78.8075 87.9114C78.6528 87.462 78.1634 87.2232 77.7139 87.3779C77.2645 87.5326 77.0257 88.022 77.1804 88.4714C77.3351 88.9209 77.8245 89.1597 78.2739 89.005C78.7231 88.8503 78.9619 88.3609 78.8075 87.9114Z" fill="#FFEAA2"/>
<path d="M81.0449 96.0876C80.9517 95.8167 80.6567 95.6726 80.3858 95.7658C80.1149 95.859 79.9708 96.154 80.064 96.4249C80.1572 96.6958 80.4523 96.8399 80.7231 96.7467C80.994 96.6534 81.1381 96.3584 81.0449 96.0876Z" fill="#FFEAA2"/>
<path d="M92.3937 102.357C91.9658 101.934 91.2758 101.938 90.8525 102.366C90.4293 102.794 90.4331 103.484 90.8611 103.907C91.289 104.33 91.979 104.326 92.4023 103.898C92.8255 103.471 92.8217 102.781 92.3937 102.357Z" fill="#FFEAA2"/>
<path d="M93.2988 101.212C93.633 100.874 93.63 100.33 93.2921 99.9955C92.9541 99.6614 92.4094 99.6643 92.0753 100.002C91.7412 100.34 91.7441 100.885 92.0821 101.219C92.42 101.553 92.9647 101.55 93.2988 101.212Z" fill="#FFEAA2"/>
<path d="M91.5749 98.1767C91.371 97.9752 91.0428 97.977 90.8413 98.1808C90.6399 98.3843 90.6416 98.7129 90.8455 98.9143C91.0493 99.1158 91.3775 99.114 91.579 98.9102C91.7805 98.7064 91.7787 98.3781 91.5749 98.1767Z" fill="#FFEAA2"/>
<path d="M83.0009 100.468C82.6167 100.244 82.1235 100.374 81.8997 100.758C81.6759 101.142 81.8056 101.636 82.19 101.859C82.5741 102.083 83.0673 101.954 83.2912 101.569C83.515 101.185 83.3853 100.692 83.0009 100.468Z" fill="#FFEAA2"/>
<path d="M89.4677 99.2455C89.1644 99.0687 88.775 99.1714 88.5983 99.4746C88.4215 99.7778 88.5241 100.167 88.8274 100.344C89.1306 100.521 89.52 100.418 89.6968 100.115C89.8736 99.8117 89.7709 99.4222 89.4677 99.2455Z" fill="#FFEAA2"/>
<path d="M86.7296 98.3896C86.9125 98.4961 87.1472 98.4344 87.2537 98.2514C87.3601 98.0685 87.2984 97.8338 87.1154 97.7273C86.9325 97.6208 86.6978 97.6826 86.5913 97.8655C86.4846 98.0482 86.5466 98.2829 86.7296 98.3896Z" fill="#FFEAA2"/>
<path d="M42.2601 71.4114C45.7316 77.9008 51.0475 83.2167 57.5369 86.6881C58.6184 87.2667 59.926 86.4831 59.926 85.2567V73.4102C59.926 70.9867 57.9613 69.022 55.5378 69.022H43.6913C42.4651 69.0223 41.6816 70.3299 42.2601 71.4114Z" fill="url(#paint41_linear_343_7162)"/>
<path d="M26.1894 52.5575C18.8673 59.0431 98.24 148.655 105.562 142.169C106.825 141.051 105.509 137.46 102.43 132.318C101.311 130.45 100.49 128.54 100.057 126.719L100.011 126.524C99.0697 122.565 96.0288 118.318 92.2232 115.65L92.2203 115.648C88.9694 113.368 86.2356 109.908 84.9273 106.416L84.8029 106.084C83.3606 102.235 80.1782 98.4596 76.5415 96.2837L76.2635 96.1175C72.9232 94.1193 69.9441 90.7563 68.3635 87.1993L68.2312 86.9013C66.51 83.0281 63.1465 79.4137 59.4988 77.5172L59.1173 77.3187C55.8279 75.6084 52.7435 72.4849 50.9029 69.0002C48.7459 64.9158 44.9168 61.3872 41.1168 59.9814L40.8612 59.8866C39.1059 59.2372 37.3094 58.1916 35.5903 56.8561C30.8571 53.1793 27.4518 51.4393 26.1894 52.5575Z" fill="url(#paint42_linear_343_7162)"/>
<path d="M111.792 141.691L102.377 147.278C101.861 147.618 101.255 147.856 100.574 147.945C87.9236 149.594 71.7598 150.583 54.1445 150.583C34.6348 150.583 16.9033 149.369 3.75833 147.391C1.5395 147.056 -0.0360863 145.059 0.155973 142.824C1.19362 130.784 5.16391 92.8699 16.5333 53.7993C16.8819 52.6019 17.671 51.721 18.6386 51.2157L26.6083 46.4863L111.792 141.691Z" fill="url(#paint43_linear_343_7162)"/>
<path d="M111.792 141.691L102.377 147.278C101.861 147.618 101.255 147.856 100.574 147.945C87.9236 149.594 71.7598 150.583 54.1445 150.583C34.6348 150.583 16.9033 149.369 3.75833 147.391C1.5395 147.056 -0.0360863 145.059 0.155973 142.824C1.19362 130.784 6.04627 94.0463 17.4157 54.9757C17.7642 53.7784 18.5533 52.8975 19.521 52.3922L26.6083 46.4863L111.792 141.691Z" fill="url(#paint44_linear_343_7162)"/>
<path d="M16.5323 53.7993C5.16175 92.8702 1.19381 130.785 0.155574 142.823C-0.0370729 145.058 1.53881 147.056 3.75734 147.39C16.9023 149.37 34.6338 150.583 54.1438 150.583C71.7588 150.583 87.9238 149.594 100.573 147.945C103.966 147.503 105.477 143.443 103.195 140.893L23.7868 52.1423C21.5582 49.6514 17.4662 50.5902 16.5323 53.7993Z" fill="url(#paint45_linear_343_7162)"/>
<path d="M0.155574 142.823C-0.0370729 145.058 1.53881 147.056 3.75734 147.39C16.9023 149.37 34.6338 150.583 54.1438 150.583C71.7591 150.583 87.9238 149.594 100.573 147.945C103.966 147.503 105.477 143.443 103.195 140.893L82.34 117.584L4.51175 117.73C2.87704 129.22 0.57028 138.014 0.155574 142.823Z" fill="url(#paint46_linear_343_7162)"/>
<g opacity="0.6">
<g opacity="0.6">
<path opacity="0.6" d="M28.2587 71.0545C29.5169 71.0545 30.5369 70.0345 30.5369 68.7763C30.5369 67.5181 29.5169 66.498 28.2587 66.498C27.0005 66.498 25.9805 67.5181 25.9805 68.7763C25.9805 70.0345 27.0005 71.0545 28.2587 71.0545Z" fill="url(#paint47_linear_343_7162)"/>
<path opacity="0.6" d="M21.3488 72.7772C22.3421 72.7772 23.1474 71.972 23.1474 70.9787C23.1474 69.9854 22.3421 69.1802 21.3488 69.1802C20.3555 69.1802 19.5503 69.9854 19.5503 70.9787C19.5503 71.972 20.3555 72.7772 21.3488 72.7772Z" fill="url(#paint48_linear_343_7162)"/>
<path opacity="0.6" d="M26.7384 77.9522C27.3372 77.9522 27.8225 77.4668 27.8225 76.8681C27.8225 76.2693 27.3372 75.7839 26.7384 75.7839C26.1397 75.7839 25.6543 76.2693 25.6543 76.8681C25.6543 77.4668 26.1397 77.9522 26.7384 77.9522Z" fill="url(#paint49_linear_343_7162)"/>
</g>
<g opacity="0.6">
<path opacity="0.6" d="M12.8832 134.666C14.1415 134.666 15.1615 133.646 15.1615 132.388C15.1615 131.129 14.1415 130.109 12.8832 130.109C11.625 130.109 10.605 131.129 10.605 132.388C10.605 133.646 11.625 134.666 12.8832 134.666Z" fill="url(#paint50_linear_343_7162)"/>
<path opacity="0.6" d="M13.2932 141.427C14.2865 141.427 15.0917 140.622 15.0917 139.628C15.0917 138.635 14.2865 137.83 13.2932 137.83C12.2999 137.83 11.4946 138.635 11.4946 139.628C11.4946 140.622 12.2999 141.427 13.2932 141.427Z" fill="url(#paint51_linear_343_7162)"/>
<path opacity="0.6" d="M20.3405 136.961C20.9392 136.961 21.4246 136.476 21.4246 135.877C21.4246 135.278 20.9392 134.793 20.3405 134.793C19.7417 134.793 19.2563 135.278 19.2563 135.877C19.2563 136.476 19.7417 136.961 20.3405 136.961Z" fill="url(#paint52_linear_343_7162)"/>
</g>
<g opacity="0.6">
<path opacity="0.6" d="M36.8986 79.0257C37.8282 79.0257 38.5818 78.272 38.5818 77.3424C38.5818 76.4128 37.8282 75.6592 36.8986 75.6592C35.9689 75.6592 35.2153 76.4128 35.2153 77.3424C35.2153 78.272 35.9689 79.0257 36.8986 79.0257Z" fill="url(#paint53_linear_343_7162)"/>
<path opacity="0.6" d="M32.2815 75.951C33.0153 75.951 33.6103 75.3561 33.6103 74.6222C33.6103 73.8883 33.0153 73.2933 32.2815 73.2933C31.5476 73.2933 30.9526 73.8883 30.9526 74.6222C30.9526 75.3561 31.5476 75.951 32.2815 75.951Z" fill="url(#paint54_linear_343_7162)"/>
<path opacity="0.6" d="M31.6933 81.293C32.1357 81.293 32.4944 80.9343 32.4944 80.4919C32.4944 80.0494 32.1357 79.6907 31.6933 79.6907C31.2508 79.6907 30.8921 80.0494 30.8921 80.4919C30.8921 80.9343 31.2508 81.293 31.6933 81.293Z" fill="url(#paint55_linear_343_7162)"/>
</g>
<g opacity="0.6">
<path opacity="0.6" d="M75.5241 138.807C76.4537 138.807 77.2073 138.053 77.2073 137.124C77.2073 136.194 76.4537 135.44 75.5241 135.44C74.5944 135.44 73.8408 136.194 73.8408 137.124C73.8408 138.053 74.5944 138.807 75.5241 138.807Z" fill="url(#paint56_linear_343_7162)"/>
<path opacity="0.6" d="M70.907 135.732C71.6408 135.732 72.2358 135.137 72.2358 134.403C72.2358 133.67 71.6408 133.075 70.907 133.075C70.1731 133.075 69.5781 133.67 69.5781 134.403C69.5781 135.137 70.1731 135.732 70.907 135.732Z" fill="url(#paint57_linear_343_7162)"/>
<path opacity="0.6" d="M70.3188 141.074C70.7612 141.074 71.1199 140.715 71.1199 140.273C71.1199 139.83 70.7612 139.472 70.3188 139.472C69.8763 139.472 69.5176 139.83 69.5176 140.273C69.5176 140.715 69.8763 141.074 70.3188 141.074Z" fill="url(#paint58_linear_343_7162)"/>
</g>
</g>
<defs>
<linearGradient id="paint0_linear_343_7162" x1="105.044" y1="31.3117" x2="83.6938" y2="71.3093" gradientUnits="userSpaceOnUse">
<stop stop-color="#FFD945"/>
<stop offset="0.3043" stop-color="#FFCD3E"/>
<stop offset="0.8558" stop-color="#FFAD2B"/>
<stop offset="1" stop-color="#FFA325"/>
</linearGradient>
<linearGradient id="paint1_linear_343_7162" x1="137.28" y1="94.3136" x2="124.848" y2="91.2057" gradientUnits="userSpaceOnUse">
<stop stop-color="#F82814" stop-opacity="0"/>
<stop offset="0.2454" stop-color="#F12817" stop-opacity="0.245"/>
<stop offset="0.6052" stop-color="#DD2820" stop-opacity="0.605"/>
<stop offset="1" stop-color="#C0272D"/>
</linearGradient>
<linearGradient id="paint2_linear_343_7162" x1="103.614" y1="42.2781" x2="97.19" y2="48.7019" gradientUnits="userSpaceOnUse">
<stop stop-color="#BADA00"/>
<stop offset="0.2269" stop-color="#B0CE00"/>
<stop offset="0.6378" stop-color="#95AE00"/>
<stop offset="1" stop-color="#798C00"/>
</linearGradient>
<linearGradient id="paint3_linear_343_7162" x1="109.075" y1="66.7855" x2="84.3919" y2="64.6234" gradientUnits="userSpaceOnUse">
<stop stop-color="#798C00" stop-opacity="0"/>
<stop offset="0.6542" stop-color="#556100" stop-opacity="0.654"/>
<stop offset="1" stop-color="#464F00"/>
</linearGradient>
<linearGradient id="paint4_linear_343_7162" x1="65.2668" y1="14.6763" x2="61.6635" y2="30.351" gradientUnits="userSpaceOnUse">
<stop stop-color="#FF6359"/>
<stop offset="0.2243" stop-color="#FE5B50"/>
<stop offset="0.5952" stop-color="#FC4637"/>
<stop offset="1" stop-color="#F82814"/>
</linearGradient>
<linearGradient id="paint5_linear_343_7162" x1="107.133" y1="59.0808" x2="103.529" y2="74.7558" gradientUnits="userSpaceOnUse">
<stop stop-color="#FF6359"/>
<stop offset="0.2243" stop-color="#FE5B50"/>
<stop offset="0.5952" stop-color="#FC4637"/>
<stop offset="1" stop-color="#F82814"/>
</linearGradient>
<linearGradient id="paint6_linear_343_7162" x1="121.818" y1="66.4708" x2="116.168" y2="82.9589" gradientUnits="userSpaceOnUse">
<stop stop-color="#FFDECF"/>
<stop offset="0.3791" stop-color="#FDC4B0"/>
<stop offset="0.7655" stop-color="#FBAE97"/>
<stop offset="1" stop-color="#FAA68E"/>
</linearGradient>
<linearGradient id="paint7_linear_343_7162" x1="114.292" y1="88.8092" x2="118.992" y2="75.0941" gradientUnits="userSpaceOnUse">
<stop stop-color="#FFDECF"/>
<stop offset="0.3791" stop-color="#FDC4B0"/>
<stop offset="0.7655" stop-color="#FBAE97"/>
<stop offset="1" stop-color="#FAA68E"/>
</linearGradient>
<linearGradient id="paint8_linear_343_7162" x1="85.5402" y1="24.8442" x2="79.8907" y2="41.3321" gradientUnits="userSpaceOnUse">
<stop stop-color="#FFDECF"/>
<stop offset="0.3791" stop-color="#FDC4B0"/>
<stop offset="0.7655" stop-color="#FBAE97"/>
<stop offset="1" stop-color="#FAA68E"/>
</linearGradient>
<linearGradient id="paint9_linear_343_7162" x1="78.0144" y1="47.1827" x2="82.714" y2="33.4675" gradientUnits="userSpaceOnUse">
<stop stop-color="#FFDECF"/>
<stop offset="0.3791" stop-color="#FDC4B0"/>
<stop offset="0.7655" stop-color="#FBAE97"/>
<stop offset="1" stop-color="#FAA68E"/>
</linearGradient>
<linearGradient id="paint10_linear_343_7162" x1="97.1436" y1="47.342" x2="84.1661" y2="59.1814" gradientUnits="userSpaceOnUse">
<stop stop-color="#A57C52"/>
<stop offset="0.1339" stop-color="#A26C4A"/>
<stop offset="0.5155" stop-color="#994336"/>
<stop offset="0.8174" stop-color="#942A2A"/>
<stop offset="1" stop-color="#922125"/>
</linearGradient>
<linearGradient id="paint11_linear_343_7162" x1="73.2148" y1="31.1785" x2="73.2148" y2="48.6679" gradientUnits="userSpaceOnUse">
<stop stop-color="#FFD945"/>
<stop offset="0.3043" stop-color="#FFCD3E"/>
<stop offset="0.8558" stop-color="#FFAD2B"/>
<stop offset="1" stop-color="#FFA325"/>
</linearGradient>
<linearGradient id="paint12_linear_343_7162" x1="95.1551" y1="52.1341" x2="90.3466" y2="56.4861" gradientUnits="userSpaceOnUse">
<stop stop-color="#BADA00"/>
<stop offset="0.2269" stop-color="#B0CE00"/>
<stop offset="0.6378" stop-color="#95AE00"/>
<stop offset="1" stop-color="#798C00"/>
</linearGradient>
<linearGradient id="paint13_linear_343_7162" x1="96.5839" y1="40.46" x2="77.6703" y2="75.8926" gradientUnits="userSpaceOnUse">
<stop stop-color="#FFD945"/>
<stop offset="0.3043" stop-color="#FFCD3E"/>
<stop offset="0.8558" stop-color="#FFAD2B"/>
<stop offset="1" stop-color="#FFA325"/>
</linearGradient>
<linearGradient id="paint14_linear_343_7162" x1="88.8003" y1="56.2467" x2="78.7965" y2="66.2506" gradientUnits="userSpaceOnUse">
<stop stop-color="#F82814" stop-opacity="0"/>
<stop offset="0.2918" stop-color="#EC2819" stop-opacity="0.292"/>
<stop offset="0.8165" stop-color="#CD2727" stop-opacity="0.817"/>
<stop offset="1" stop-color="#C0272D"/>
</linearGradient>
<linearGradient id="paint15_linear_343_7162" x1="41.1855" y1="38.2827" x2="86.0476" y2="125.305" gradientUnits="userSpaceOnUse">
<stop stop-color="#FAA68E"/>
<stop offset="0.2061" stop-color="#FBA682"/>
<stop offset="0.5808" stop-color="#FDA861"/>
<stop offset="1" stop-color="#FFA936"/>
</linearGradient>
<linearGradient id="paint16_linear_343_7162" x1="74.4305" y1="98.6711" x2="74.4305" y2="125.718" gradientUnits="userSpaceOnUse">
<stop stop-color="#F82814" stop-opacity="0"/>
<stop offset="0.2454" stop-color="#F12817" stop-opacity="0.245"/>
<stop offset="0.6052" stop-color="#DD2820" stop-opacity="0.605"/>
<stop offset="1" stop-color="#C0272D"/>
</linearGradient>
<linearGradient id="paint17_linear_343_7162" x1="50.5605" y1="33.1158" x2="51.3128" y2="22.3625" gradientUnits="userSpaceOnUse">
<stop stop-color="#F82814" stop-opacity="0"/>
<stop offset="0.2454" stop-color="#F12817" stop-opacity="0.245"/>
<stop offset="0.6052" stop-color="#DD2820" stop-opacity="0.605"/>
<stop offset="1" stop-color="#C0272D"/>
</linearGradient>
<linearGradient id="paint18_linear_343_7162" x1="43.7034" y1="34.5889" x2="44.2974" y2="26.0997" gradientUnits="userSpaceOnUse">
<stop stop-color="#F82814" stop-opacity="0"/>
<stop offset="0.2454" stop-color="#F12817" stop-opacity="0.245"/>
<stop offset="0.6052" stop-color="#DD2820" stop-opacity="0.605"/>
<stop offset="1" stop-color="#C0272D"/>
</linearGradient>
<linearGradient id="paint19_linear_343_7162" x1="49.1668" y1="39.3926" x2="49.5248" y2="34.2747" gradientUnits="userSpaceOnUse">
<stop stop-color="#F82814" stop-opacity="0"/>
<stop offset="0.2454" stop-color="#F12817" stop-opacity="0.245"/>
<stop offset="0.6052" stop-color="#DD2820" stop-opacity="0.605"/>
<stop offset="1" stop-color="#C0272D"/>
</linearGradient>
<linearGradient id="paint20_linear_343_7162" x1="39.0642" y1="94.4911" x2="28.8327" y2="91.0891" gradientUnits="userSpaceOnUse">
<stop stop-color="#F82814" stop-opacity="0"/>
<stop offset="0.2454" stop-color="#F12817" stop-opacity="0.245"/>
<stop offset="0.6052" stop-color="#DD2820" stop-opacity="0.605"/>
<stop offset="1" stop-color="#C0272D"/>
</linearGradient>
<linearGradient id="paint21_linear_343_7162" x1="38.7865" y1="101.501" x2="30.7092" y2="98.8152" gradientUnits="userSpaceOnUse">
<stop stop-color="#F82814" stop-opacity="0"/>
<stop offset="0.2454" stop-color="#F12817" stop-opacity="0.245"/>
<stop offset="0.6052" stop-color="#DD2820" stop-opacity="0.605"/>
<stop offset="1" stop-color="#C0272D"/>
</linearGradient>
<linearGradient id="paint22_linear_343_7162" x1="44.7991" y1="97.4023" x2="39.9295" y2="95.7828" gradientUnits="userSpaceOnUse">
<stop stop-color="#F82814" stop-opacity="0"/>
<stop offset="0.2454" stop-color="#F12817" stop-opacity="0.245"/>
<stop offset="0.6052" stop-color="#DD2820" stop-opacity="0.605"/>
<stop offset="1" stop-color="#C0272D"/>
</linearGradient>
<linearGradient id="paint23_linear_343_7162" x1="57.5562" y1="39.8637" x2="63.8486" y2="34.981" gradientUnits="userSpaceOnUse">
<stop stop-color="#F82814" stop-opacity="0"/>
<stop offset="0.2454" stop-color="#F12817" stop-opacity="0.245"/>
<stop offset="0.6052" stop-color="#DD2820" stop-opacity="0.605"/>
<stop offset="1" stop-color="#C0272D"/>
</linearGradient>
<linearGradient id="paint24_linear_343_7162" x1="53.3674" y1="36.8132" x2="58.335" y2="32.9586" gradientUnits="userSpaceOnUse">
<stop stop-color="#F82814" stop-opacity="0"/>
<stop offset="0.2454" stop-color="#F12817" stop-opacity="0.245"/>
<stop offset="0.6052" stop-color="#DD2820" stop-opacity="0.605"/>
<stop offset="1" stop-color="#C0272D"/>
</linearGradient>
<linearGradient id="paint25_linear_343_7162" x1="53.4128" y1="42.188" x2="56.4077" y2="39.8641" gradientUnits="userSpaceOnUse">
<stop stop-color="#F82814" stop-opacity="0"/>
<stop offset="0.2454" stop-color="#F12817" stop-opacity="0.245"/>
<stop offset="0.6052" stop-color="#DD2820" stop-opacity="0.605"/>
<stop offset="1" stop-color="#C0272D"/>
</linearGradient>
<linearGradient id="paint26_linear_343_7162" x1="96.1576" y1="99.6275" x2="102.45" y2="94.7448" gradientUnits="userSpaceOnUse">
<stop stop-color="#F82814" stop-opacity="0"/>
<stop offset="0.2454" stop-color="#F12817" stop-opacity="0.245"/>
<stop offset="0.6052" stop-color="#DD2820" stop-opacity="0.605"/>
<stop offset="1" stop-color="#C0272D"/>
</linearGradient>
<linearGradient id="paint27_linear_343_7162" x1="91.9685" y1="96.5768" x2="96.9361" y2="92.7222" gradientUnits="userSpaceOnUse">
<stop stop-color="#F82814" stop-opacity="0"/>
<stop offset="0.2454" stop-color="#F12817" stop-opacity="0.245"/>
<stop offset="0.6052" stop-color="#DD2820" stop-opacity="0.605"/>
<stop offset="1" stop-color="#C0272D"/>
</linearGradient>
<linearGradient id="paint28_linear_343_7162" x1="92.0142" y1="101.952" x2="95.0091" y2="99.6278" gradientUnits="userSpaceOnUse">
<stop stop-color="#F82814" stop-opacity="0"/>
<stop offset="0.2454" stop-color="#F12817" stop-opacity="0.245"/>
<stop offset="0.6052" stop-color="#DD2820" stop-opacity="0.605"/>
<stop offset="1" stop-color="#C0272D"/>
</linearGradient>
<linearGradient id="paint29_linear_343_7162" x1="81.0437" y1="62.2912" x2="63.7473" y2="82.8306" gradientUnits="userSpaceOnUse">
<stop stop-color="#FFD945"/>
<stop offset="0.3043" stop-color="#FFCD3E"/>
<stop offset="0.8558" stop-color="#FFAD2B"/>
<stop offset="1" stop-color="#FFA325"/>
</linearGradient>
<linearGradient id="paint30_linear_343_7162" x1="82.5049" y1="69.9808" x2="61.1549" y2="109.978" gradientUnits="userSpaceOnUse">
<stop stop-color="#FFD945"/>
<stop offset="0.3043" stop-color="#FFCD3E"/>
<stop offset="0.8558" stop-color="#FFAD2B"/>
<stop offset="1" stop-color="#FFA325"/>
</linearGradient>
<linearGradient id="paint31_linear_343_7162" x1="115.061" y1="133.153" x2="102.629" y2="130.045" gradientUnits="userSpaceOnUse">
<stop stop-color="#F82814" stop-opacity="0"/>
<stop offset="0.2454" stop-color="#F12817" stop-opacity="0.245"/>
<stop offset="0.6052" stop-color="#DD2820" stop-opacity="0.605"/>
<stop offset="1" stop-color="#C0272D"/>
</linearGradient>
<linearGradient id="paint32_linear_343_7162" x1="81.3939" y1="81.1175" x2="74.97" y2="87.5413" gradientUnits="userSpaceOnUse">
<stop stop-color="#BADA00"/>
<stop offset="0.2269" stop-color="#B0CE00"/>
<stop offset="0.6378" stop-color="#95AE00"/>
<stop offset="1" stop-color="#798C00"/>
</linearGradient>
<linearGradient id="paint33_linear_343_7162" x1="86.8556" y1="105.625" x2="62.1724" y2="103.463" gradientUnits="userSpaceOnUse">
<stop stop-color="#798C00" stop-opacity="0"/>
<stop offset="0.6542" stop-color="#556100" stop-opacity="0.654"/>
<stop offset="1" stop-color="#464F00"/>
</linearGradient>
<linearGradient id="paint34_linear_343_7162" x1="43.0474" y1="53.5157" x2="39.4438" y2="69.1904" gradientUnits="userSpaceOnUse">
<stop stop-color="#FF6359"/>
<stop offset="0.2243" stop-color="#FE5B50"/>
<stop offset="0.5952" stop-color="#FC4637"/>
<stop offset="1" stop-color="#F82814"/>
</linearGradient>
<linearGradient id="paint35_linear_343_7162" x1="84.9131" y1="97.9202" x2="81.3095" y2="113.595" gradientUnits="userSpaceOnUse">
<stop stop-color="#FF6359"/>
<stop offset="0.2243" stop-color="#FE5B50"/>
<stop offset="0.5952" stop-color="#FC4637"/>
<stop offset="1" stop-color="#F82814"/>
</linearGradient>
<linearGradient id="paint36_linear_343_7162" x1="99.6013" y1="105.304" x2="93.9515" y2="121.792" gradientUnits="userSpaceOnUse">
<stop stop-color="#FFDECF"/>
<stop offset="0.3791" stop-color="#FDC4B0"/>
<stop offset="0.7655" stop-color="#FBAE97"/>
<stop offset="1" stop-color="#FAA68E"/>
</linearGradient>
<linearGradient id="paint37_linear_343_7162" x1="92.0756" y1="127.643" x2="96.7751" y2="113.928" gradientUnits="userSpaceOnUse">
<stop stop-color="#FFDECF"/>
<stop offset="0.3791" stop-color="#FDC4B0"/>
<stop offset="0.7655" stop-color="#FBAE97"/>
<stop offset="1" stop-color="#FAA68E"/>
</linearGradient>
<linearGradient id="paint38_linear_343_7162" x1="63.3241" y1="63.6776" x2="57.6743" y2="80.1657" gradientUnits="userSpaceOnUse">
<stop stop-color="#FFDECF"/>
<stop offset="0.3791" stop-color="#FDC4B0"/>
<stop offset="0.7655" stop-color="#FBAE97"/>
<stop offset="1" stop-color="#FAA68E"/>
</linearGradient>
<linearGradient id="paint39_linear_343_7162" x1="55.7984" y1="86.016" x2="60.4981" y2="72.3009" gradientUnits="userSpaceOnUse">
<stop stop-color="#FFDECF"/>
<stop offset="0.3791" stop-color="#FDC4B0"/>
<stop offset="0.7655" stop-color="#FBAE97"/>
<stop offset="1" stop-color="#FAA68E"/>
</linearGradient>
<linearGradient id="paint40_linear_343_7162" x1="74.9434" y1="86.2059" x2="61.9657" y2="98.0453" gradientUnits="userSpaceOnUse">
<stop stop-color="#A57C52"/>
<stop offset="0.1339" stop-color="#A26C4A"/>
<stop offset="0.5155" stop-color="#994336"/>
<stop offset="0.8174" stop-color="#942A2A"/>
<stop offset="1" stop-color="#922125"/>
</linearGradient>
<linearGradient id="paint41_linear_343_7162" x1="50.9963" y1="70.0179" x2="50.9963" y2="87.5073" gradientUnits="userSpaceOnUse">
<stop stop-color="#FFD945"/>
<stop offset="0.3043" stop-color="#FFCD3E"/>
<stop offset="0.8558" stop-color="#FFAD2B"/>
<stop offset="1" stop-color="#FFA325"/>
</linearGradient>
<linearGradient id="paint42_linear_343_7162" x1="72.9356" y1="90.9734" x2="68.1273" y2="95.3255" gradientUnits="userSpaceOnUse">
<stop stop-color="#BADA00"/>
<stop offset="0.2269" stop-color="#B0CE00"/>
<stop offset="0.6378" stop-color="#95AE00"/>
<stop offset="1" stop-color="#798C00"/>
</linearGradient>
<linearGradient id="paint43_linear_343_7162" x1="74.0463" y1="79.129" x2="55.1327" y2="114.562" gradientUnits="userSpaceOnUse">
<stop stop-color="#FFD945"/>
<stop offset="0.3043" stop-color="#FFCD3E"/>
<stop offset="0.8558" stop-color="#FFAD2B"/>
<stop offset="1" stop-color="#FFA325"/>
</linearGradient>
<linearGradient id="paint44_linear_343_7162" x1="67.0277" y1="95.5322" x2="57.0239" y2="105.536" gradientUnits="userSpaceOnUse">
<stop stop-color="#F82814" stop-opacity="0"/>
<stop offset="0.2918" stop-color="#EC2819" stop-opacity="0.292"/>
<stop offset="0.8165" stop-color="#CD2727" stop-opacity="0.817"/>
<stop offset="1" stop-color="#C0272D"/>
</linearGradient>
<linearGradient id="paint45_linear_343_7162" x1="18.2141" y1="77.5102" x2="63.0762" y2="164.532" gradientUnits="userSpaceOnUse">
<stop stop-color="#FFD945"/>
<stop offset="0.3043" stop-color="#FFCD3E"/>
<stop offset="0.8558" stop-color="#FFAD2B"/>
<stop offset="1" stop-color="#FFA325"/>
</linearGradient>
<linearGradient id="paint46_linear_343_7162" x1="52.2118" y1="137.511" x2="52.2118" y2="164.558" gradientUnits="userSpaceOnUse">
<stop stop-color="#F82814" stop-opacity="0"/>
<stop offset="0.2454" stop-color="#F12817" stop-opacity="0.245"/>
<stop offset="0.6052" stop-color="#DD2820" stop-opacity="0.605"/>
<stop offset="1" stop-color="#C0272D"/>
</linearGradient>
<linearGradient id="paint47_linear_343_7162" x1="28.3439" y1="71.942" x2="29.0964" y2="61.1885" gradientUnits="userSpaceOnUse">
<stop stop-color="#F82814" stop-opacity="0"/>
<stop offset="0.2454" stop-color="#F12817" stop-opacity="0.245"/>
<stop offset="0.6052" stop-color="#DD2820" stop-opacity="0.605"/>
<stop offset="1" stop-color="#C0272D"/>
</linearGradient>
<linearGradient id="paint48_linear_343_7162" x1="21.4867" y1="73.4147" x2="22.0808" y2="64.9256" gradientUnits="userSpaceOnUse">
<stop stop-color="#F82814" stop-opacity="0"/>
<stop offset="0.2454" stop-color="#F12817" stop-opacity="0.245"/>
<stop offset="0.6052" stop-color="#DD2820" stop-opacity="0.605"/>
<stop offset="1" stop-color="#C0272D"/>
</linearGradient>
<linearGradient id="paint49_linear_343_7162" x1="26.9503" y1="78.2187" x2="27.3082" y2="73.1007" gradientUnits="userSpaceOnUse">
<stop stop-color="#F82814" stop-opacity="0"/>
<stop offset="0.2454" stop-color="#F12817" stop-opacity="0.245"/>
<stop offset="0.6052" stop-color="#DD2820" stop-opacity="0.605"/>
<stop offset="1" stop-color="#C0272D"/>
</linearGradient>
<linearGradient id="paint50_linear_343_7162" x1="16.8717" y1="133.345" x2="6.64011" y2="129.942" gradientUnits="userSpaceOnUse">
<stop stop-color="#F82814" stop-opacity="0"/>
<stop offset="0.2454" stop-color="#F12817" stop-opacity="0.245"/>
<stop offset="0.6052" stop-color="#DD2820" stop-opacity="0.605"/>
<stop offset="1" stop-color="#C0272D"/>
</linearGradient>
<linearGradient id="paint51_linear_343_7162" x1="16.594" y1="140.354" x2="8.51644" y2="137.669" gradientUnits="userSpaceOnUse">
<stop stop-color="#F82814" stop-opacity="0"/>
<stop offset="0.2454" stop-color="#F12817" stop-opacity="0.245"/>
<stop offset="0.6052" stop-color="#DD2820" stop-opacity="0.605"/>
<stop offset="1" stop-color="#C0272D"/>
</linearGradient>
<linearGradient id="paint52_linear_343_7162" x1="22.6064" y1="136.255" x2="17.7369" y2="134.636" gradientUnits="userSpaceOnUse">
<stop stop-color="#F82814" stop-opacity="0"/>
<stop offset="0.2454" stop-color="#F12817" stop-opacity="0.245"/>
<stop offset="0.6052" stop-color="#DD2820" stop-opacity="0.605"/>
<stop offset="1" stop-color="#C0272D"/>
</linearGradient>
<linearGradient id="paint53_linear_343_7162" x1="35.3388" y1="78.6846" x2="41.6313" y2="73.8019" gradientUnits="userSpaceOnUse">
<stop stop-color="#F82814" stop-opacity="0"/>
<stop offset="0.2454" stop-color="#F12817" stop-opacity="0.245"/>
<stop offset="0.6052" stop-color="#DD2820" stop-opacity="0.605"/>
<stop offset="1" stop-color="#C0272D"/>
</linearGradient>
<linearGradient id="paint54_linear_343_7162" x1="31.1504" y1="75.6339" x2="36.118" y2="71.7793" gradientUnits="userSpaceOnUse">
<stop stop-color="#F82814" stop-opacity="0"/>
<stop offset="0.2454" stop-color="#F12817" stop-opacity="0.245"/>
<stop offset="0.6052" stop-color="#DD2820" stop-opacity="0.605"/>
<stop offset="1" stop-color="#C0272D"/>
</linearGradient>
<linearGradient id="paint55_linear_343_7162" x1="31.1958" y1="81.0088" x2="34.1906" y2="78.6848" gradientUnits="userSpaceOnUse">
<stop stop-color="#F82814" stop-opacity="0"/>
<stop offset="0.2454" stop-color="#F12817" stop-opacity="0.245"/>
<stop offset="0.6052" stop-color="#DD2820" stop-opacity="0.605"/>
<stop offset="1" stop-color="#C0272D"/>
</linearGradient>
<linearGradient id="paint56_linear_343_7162" x1="73.9402" y1="138.448" x2="80.2327" y2="133.566" gradientUnits="userSpaceOnUse">
<stop stop-color="#F82814" stop-opacity="0"/>
<stop offset="0.2454" stop-color="#F12817" stop-opacity="0.245"/>
<stop offset="0.6052" stop-color="#DD2820" stop-opacity="0.605"/>
<stop offset="1" stop-color="#C0272D"/>
</linearGradient>
<linearGradient id="paint57_linear_343_7162" x1="69.7515" y1="135.398" x2="74.7188" y2="131.543" gradientUnits="userSpaceOnUse">
<stop stop-color="#F82814" stop-opacity="0"/>
<stop offset="0.2454" stop-color="#F12817" stop-opacity="0.245"/>
<stop offset="0.6052" stop-color="#DD2820" stop-opacity="0.605"/>
<stop offset="1" stop-color="#C0272D"/>
</linearGradient>
<linearGradient id="paint58_linear_343_7162" x1="69.7972" y1="140.773" x2="72.792" y2="138.449" gradientUnits="userSpaceOnUse">
<stop stop-color="#F82814" stop-opacity="0"/>
<stop offset="0.2454" stop-color="#F12817" stop-opacity="0.245"/>
<stop offset="0.6052" stop-color="#DD2820" stop-opacity="0.605"/>
<stop offset="1" stop-color="#C0272D"/>
</linearGradient>
</defs>
</svg>
