<svg width="151" height="150" viewBox="0 0 151 150" fill="none" xmlns="http://www.w3.org/2000/svg">
<path d="M109.024 82.3427L106.218 65.8062C103.622 66.2086 100.958 66.5603 98.234 66.8591L100.376 84.2197C100.674 86.638 98.9558 88.84 96.5375 89.1386C96.3543 89.1612 96.1719 89.1721 95.992 89.1721C93.7961 89.1721 91.8946 87.535 91.619 85.3L89.4378 67.6212C86.4799 67.8112 83.4681 67.9412 80.409 68.0044V87.5727C80.409 89.9483 78.5834 91.9924 76.2105 92.1041C73.677 92.2236 71.5855 90.2047 71.5855 87.6974V68.0044C68.5264 67.9412 65.5146 67.8112 62.5567 67.6212L60.3755 85.3C60.0772 87.718 57.8775 89.4362 55.4567 89.1383C53.0384 88.8397 51.3202 86.6377 51.6184 84.2194L53.7602 66.8589C51.0361 66.5603 48.3722 66.2083 45.7764 65.8059L42.9702 82.3424C40.8225 94.9991 48.9172 106.699 60.724 109.714C64.0152 110.555 66.2572 113.598 66.069 116.989L64.1678 146.223C64.0558 148.243 64.9672 149.992 66.1322 149.992H85.8611C87.0261 149.992 87.9378 148.243 87.8255 146.223L85.9243 116.99C85.7361 113.598 87.9781 110.555 91.2693 109.715C103.077 106.699 111.172 94.9994 109.024 82.3427Z" fill="url(#paint0_linear_343_7899)"/>
<path d="M109.024 82.3434L106.218 65.8069C103.622 66.2092 100.958 66.561 98.2342 66.8598L100.376 84.2204C100.674 86.6386 98.956 88.8407 96.5377 89.1392C96.3545 89.1619 96.1721 89.1728 95.9921 89.1728C93.7963 89.1728 91.8948 87.5357 91.6192 85.3007L89.438 67.6219C86.4801 67.8119 83.4683 67.9419 80.4092 68.0051V87.5734C80.4092 89.9489 78.5836 91.9931 76.2107 92.1048C73.6772 92.2242 71.5857 90.2054 71.5857 87.6981V68.0051C68.5266 67.9419 65.5148 67.8119 62.5569 67.6219L60.3757 85.3007C60.3063 85.8645 60.1298 86.3881 59.8745 86.8592L86.5939 113.579C87.4754 111.71 89.1533 110.256 91.2698 109.715C103.077 106.7 111.172 94.9998 109.024 82.3434Z" fill="url(#paint1_linear_343_7899)"/>
<path d="M44.7686 71.7521L52.2362 79.2197L53.7612 66.8589C51.0371 66.5603 48.3733 66.2083 45.7774 65.8059L44.7686 71.7521Z" fill="url(#paint2_linear_343_7899)"/>
<path d="M3.17609 56.6291C1.29491 56.1491 0.475205 52.9967 1.34491 49.5885C2.21462 46.1802 4.44491 43.8064 6.32579 44.2864C8.20668 44.7664 9.02668 47.9188 8.15697 51.327C7.28726 54.7355 5.05726 57.1094 3.17609 56.6291Z" fill="url(#paint3_linear_343_7899)"/>
<path d="M3.1762 56.629C5.97178 54.0373 6.65355 49.8796 4.83208 46.5311C2.6809 42.5758 2.81649 39.1914 3.37443 37.0052C5.10531 30.2229 14.9612 38.9773 12.9406 46.8961C10.92 54.8149 6.9512 57.5926 3.1762 56.629Z" fill="url(#paint4_linear_343_7899)"/>
<path d="M141.962 32.1747C143.852 31.7306 146.037 34.1467 146.841 37.5712C147.646 40.9956 146.766 44.1315 144.876 44.5753C142.986 45.0191 140.802 42.6032 139.997 39.1788C139.192 35.7544 140.072 32.6185 141.962 32.1747Z" fill="url(#paint5_linear_343_7899)"/>
<path d="M141.962 32.1747C140.682 35.7653 141.999 39.767 145.162 41.8944C148.898 44.407 150.343 47.4706 150.859 49.667C152.459 56.4814 139.673 53.2753 137.804 45.3194C135.934 37.3635 138.169 33.0656 141.962 32.1747Z" fill="url(#paint6_linear_343_7899)"/>
<path d="M128.529 34.1885C114.487 38.8382 96.1109 41.6553 75.997 41.6553C55.8832 41.6553 37.507 38.8379 23.4647 34.1885C15.9215 31.6909 8.60352 39.1782 8.60352 49.3579C8.60352 56.1559 11.9547 62.1897 16.9062 64.2515C31.5156 70.335 52.5788 74.1541 75.997 74.1541C99.4153 74.1541 120.478 70.3353 135.088 64.2515C140.039 62.1897 143.391 56.1559 143.391 49.3579C143.39 39.1782 136.072 31.6909 128.529 34.1885Z" fill="url(#paint7_radial_343_7899)"/>
<path d="M59.5417 41.0118C55.8093 45.1794 51.9976 48.5118 48.9211 50.4647C48.427 50.7765 47.8828 50.9323 47.3564 50.9323C46.7505 50.9323 46.1681 50.7265 45.7152 50.3235C44.4446 49.1912 44.6946 47.0265 46.2299 45.9294C48.2181 44.5088 50.4358 42.6059 52.6975 40.347C54.9387 40.6059 57.2211 40.8294 59.5417 41.0118Z" fill="url(#paint8_linear_343_7899)"/>
<path d="M72.1001 41.6205C68.4766 45.6058 64.8001 48.7941 61.8237 50.6882C61.3296 50.9999 60.7854 51.1558 60.259 51.1558C59.6531 51.1558 59.0707 50.9499 58.6178 50.547C57.3443 49.4147 57.5972 47.2499 59.1325 46.1529C60.8854 44.8999 62.8149 43.2764 64.7943 41.3588C67.1972 41.4882 69.6325 41.5764 72.1001 41.6205Z" fill="url(#paint9_linear_343_7899)"/>
<path d="M85.3564 41.45C81.6211 45.6205 77.8035 48.9558 74.727 50.9117C74.2329 51.2235 73.6888 51.3794 73.1623 51.3794C72.5564 51.3794 71.9741 51.1735 71.5211 50.7705C70.2476 49.6382 70.5005 47.4735 72.0358 46.3764C73.7682 45.1382 75.6741 43.5352 77.6299 41.647C80.2388 41.6294 82.8152 41.5617 85.3564 41.45Z" fill="url(#paint10_linear_343_7899)"/>
<path d="M99.4358 40.3323C99.1122 40.7087 98.7828 41.0882 98.4475 41.4646C94.6505 45.7323 90.7564 49.147 87.6269 51.1352C87.1358 51.447 86.5916 51.6029 86.0652 51.6029C85.4593 51.6029 84.8769 51.397 84.4211 50.994C83.1505 49.8646 83.4034 47.697 84.9387 46.5999C86.9034 45.197 89.0916 43.3235 91.3269 41.097C94.0828 40.897 96.7887 40.6382 99.4358 40.3323Z" fill="url(#paint11_linear_343_7899)"/>
<path d="M16.901 49.7026C18.2702 49.7026 19.3801 48.5927 19.3801 47.2235C19.3801 45.8543 18.2702 44.7444 16.901 44.7444C15.5318 44.7444 14.4219 45.8543 14.4219 47.2235C14.4219 48.5927 15.5318 49.7026 16.901 49.7026Z" fill="url(#paint12_linear_343_7899)"/>
<path d="M17.8392 57.0176C18.9202 57.0176 19.7965 56.1413 19.7965 55.0603C19.7965 53.9792 18.9202 53.1029 17.8392 53.1029C16.7582 53.1029 15.8818 53.9792 15.8818 55.0603C15.8818 56.1413 16.7582 57.0176 17.8392 57.0176Z" fill="url(#paint13_linear_343_7899)"/>
<path d="M25.2381 51.687C25.8898 51.687 26.4181 51.1587 26.4181 50.507C26.4181 49.8553 25.8898 49.327 25.2381 49.327C24.5864 49.327 24.0581 49.8553 24.0581 50.507C24.0581 51.1587 24.5864 51.687 25.2381 51.687Z" fill="url(#paint14_linear_343_7899)"/>
<path d="M27.8286 41.5765C28.8405 41.5765 29.6607 40.7562 29.6607 39.7444C29.6607 38.7326 28.8405 37.9124 27.8286 37.9124C26.8168 37.9124 25.9966 38.7326 25.9966 39.7444C25.9966 40.7562 26.8168 41.5765 27.8286 41.5765Z" fill="url(#paint15_linear_343_7899)"/>
<path d="M23.9745 45.5679C24.7732 45.5679 25.4207 44.9204 25.4207 44.1217C25.4207 43.323 24.7732 42.6755 23.9745 42.6755C23.1758 42.6755 22.5283 43.323 22.5283 44.1217C22.5283 44.9204 23.1758 45.5679 23.9745 45.5679Z" fill="url(#paint16_linear_343_7899)"/>
<path d="M30.1274 46.8255C30.6091 46.8255 30.9995 46.4351 30.9995 45.9535C30.9995 45.4719 30.6091 45.0814 30.1274 45.0814C29.6458 45.0814 29.2554 45.4719 29.2554 45.9535C29.2554 46.4351 29.6458 46.8255 30.1274 46.8255Z" fill="url(#paint17_linear_343_7899)"/>
<path d="M120.115 46.0453C121.485 46.0453 122.594 44.9353 122.594 43.5662C122.594 42.197 121.485 41.087 120.115 41.087C118.746 41.087 117.636 42.197 117.636 43.5662C117.636 44.9353 118.746 46.0453 120.115 46.0453Z" fill="url(#paint18_linear_343_7899)"/>
<path d="M121.053 53.3603C122.134 53.3603 123.01 52.4839 123.01 51.4029C123.01 50.3219 122.134 49.4456 121.053 49.4456C119.972 49.4456 119.096 50.3219 119.096 51.4029C119.096 52.4839 119.972 53.3603 121.053 53.3603Z" fill="url(#paint19_linear_343_7899)"/>
<path d="M128.452 48.0297C129.104 48.0297 129.632 47.5014 129.632 46.8497C129.632 46.198 129.104 45.6697 128.452 45.6697C127.801 45.6697 127.272 46.198 127.272 46.8497C127.272 47.5014 127.801 48.0297 128.452 48.0297Z" fill="url(#paint20_linear_343_7899)"/>
<path d="M97.0195 21.9202C96.6659 21.0264 97.6374 20.1902 98.473 20.6655C101.425 22.3441 105.758 25.7982 105.758 31.6111C105.758 40.4261 95.1397 41.2573 95.1397 47.7867C95.1397 51.1376 95.5836 53.4517 96.0156 54.9105C96.2656 55.7544 95.4021 56.4979 94.6068 56.1217C91.9612 54.8703 87.8921 51.8164 87.8921 44.8708C87.8921 34.58 98.4221 34.7329 98.4221 29.1064C98.4221 26.1679 97.7047 23.6529 97.0195 21.9202Z" fill="url(#paint21_linear_343_7899)"/>
<path d="M79.1099 1.00789C78.8793 0.61436 79.4964 0.255537 79.9099 0.541419C82.7146 2.48083 87.4578 6.58142 87.4578 12.1288C87.4578 20.0047 78.4808 22.2344 77.2846 28.3761C76.3169 33.3441 78.5346 38.1802 79.5514 40.0588C79.7278 40.3847 79.3217 40.7152 78.9011 40.5894C75.8078 39.6629 67.4864 36.2302 68.729 26.3402C69.9328 16.7594 78.9378 17.197 80.5358 10.9982C81.6837 6.5476 80.2693 2.98642 79.1099 1.00789Z" fill="url(#paint22_linear_343_7899)"/>
<path d="M54.5668 27.9988C54.2515 27.2615 54.9121 26.5715 55.555 26.9635C57.8262 28.3485 61.2221 31.1988 61.5853 35.9953C62.1362 43.2691 54.3956 43.955 54.8038 49.3429C55.0133 52.1079 55.4836 54.0173 55.8918 55.2215C56.128 55.9176 55.5409 56.5315 54.9336 56.2209C52.9138 55.1882 49.7368 52.6682 49.3027 46.9371C48.6594 38.4453 56.3968 38.5715 56.045 33.9285C55.8615 31.5038 55.178 29.4285 54.5668 27.9988Z" fill="url(#paint23_linear_343_7899)"/>
<defs>
<linearGradient id="paint0_linear_343_7899" x1="54.7505" y1="99.9971" x2="90.927" y2="109.115" gradientUnits="userSpaceOnUse">
<stop stop-color="#F8F6FB"/>
<stop offset="1" stop-color="#EFDCFB"/>
</linearGradient>
<linearGradient id="paint1_linear_343_7899" x1="85.2504" y1="91.6975" x2="81.1327" y2="54.1975" gradientUnits="userSpaceOnUse">
<stop stop-color="#EFDCFB" stop-opacity="0"/>
<stop offset="0.0287" stop-color="#E9D6F7" stop-opacity="0.029"/>
<stop offset="0.2203" stop-color="#C5B5DE" stop-opacity="0.22"/>
<stop offset="0.4138" stop-color="#AA9BCB" stop-opacity="0.414"/>
<stop offset="0.6078" stop-color="#9688BD" stop-opacity="0.608"/>
<stop offset="0.8028" stop-color="#8A7DB5" stop-opacity="0.803"/>
<stop offset="1" stop-color="#8679B2"/>
</linearGradient>
<linearGradient id="paint2_linear_343_7899" x1="52.123" y1="95.3344" x2="48.0053" y2="57.8344" gradientUnits="userSpaceOnUse">
<stop stop-color="#EFDCFB" stop-opacity="0"/>
<stop offset="0.0287" stop-color="#E9D6F7" stop-opacity="0.029"/>
<stop offset="0.2203" stop-color="#C5B5DE" stop-opacity="0.22"/>
<stop offset="0.4138" stop-color="#AA9BCB" stop-opacity="0.414"/>
<stop offset="0.6078" stop-color="#9688BD" stop-opacity="0.608"/>
<stop offset="0.8028" stop-color="#8A7DB5" stop-opacity="0.803"/>
<stop offset="1" stop-color="#8679B2"/>
</linearGradient>
<linearGradient id="paint3_linear_343_7899" x1="0.101965" y1="51.6571" x2="4.13895" y2="50.6204" gradientUnits="userSpaceOnUse">
<stop stop-color="#FF6359"/>
<stop offset="0.2243" stop-color="#FE5B50"/>
<stop offset="0.5952" stop-color="#FC4637"/>
<stop offset="1" stop-color="#F82814"/>
</linearGradient>
<linearGradient id="paint4_linear_343_7899" x1="3.3866" y1="45.2253" x2="12.6427" y2="47.6746" gradientUnits="userSpaceOnUse">
<stop stop-color="#FF6359"/>
<stop offset="0.2243" stop-color="#FE5B50"/>
<stop offset="0.5952" stop-color="#FC4637"/>
<stop offset="1" stop-color="#F82814"/>
</linearGradient>
<linearGradient id="paint5_linear_343_7899" x1="146.533" y1="35.5576" x2="143.43" y2="38.3448" gradientUnits="userSpaceOnUse">
<stop stop-color="#FF6359"/>
<stop offset="0.2243" stop-color="#FE5B50"/>
<stop offset="0.5952" stop-color="#FC4637"/>
<stop offset="1" stop-color="#F82814"/>
</linearGradient>
<linearGradient id="paint6_linear_343_7899" x1="146.593" y1="42.7834" x2="137.247" y2="44.8911" gradientUnits="userSpaceOnUse">
<stop stop-color="#FF6359"/>
<stop offset="0.2243" stop-color="#FE5B50"/>
<stop offset="0.5952" stop-color="#FC4637"/>
<stop offset="1" stop-color="#F82814"/>
</linearGradient>
<radialGradient id="paint7_radial_343_7899" cx="0" cy="0" r="1" gradientUnits="userSpaceOnUse" gradientTransform="translate(74.6244 28.8442) scale(80.8829 38.5003)">
<stop stop-color="#FF6359"/>
<stop offset="0.4845" stop-color="#FF6157"/>
<stop offset="0.6591" stop-color="#FE5C50"/>
<stop offset="0.7835" stop-color="#FD5145"/>
<stop offset="0.884" stop-color="#FB4334"/>
<stop offset="0.9692" stop-color="#F9311E"/>
<stop offset="1" stop-color="#F82814"/>
</radialGradient>
<linearGradient id="paint8_linear_343_7899" x1="53.8867" y1="47.6738" x2="49.7164" y2="41.2794" gradientUnits="userSpaceOnUse">
<stop stop-color="#FF6359"/>
<stop offset="0.2617" stop-color="#FE584C"/>
<stop offset="0.7476" stop-color="#FA3A29"/>
<stop offset="1" stop-color="#F82814"/>
</linearGradient>
<linearGradient id="paint9_linear_343_7899" x1="66.5731" y1="48.0226" x2="62.546" y2="41.8479" gradientUnits="userSpaceOnUse">
<stop stop-color="#FF6359"/>
<stop offset="0.2617" stop-color="#FE584C"/>
<stop offset="0.7476" stop-color="#FA3A29"/>
<stop offset="1" stop-color="#F82814"/>
</linearGradient>
<linearGradient id="paint10_linear_343_7899" x1="79.6899" y1="48.1058" x2="75.6741" y2="41.9482" gradientUnits="userSpaceOnUse">
<stop stop-color="#FF6359"/>
<stop offset="0.2617" stop-color="#FE584C"/>
<stop offset="0.7476" stop-color="#FA3A29"/>
<stop offset="1" stop-color="#F82814"/>
</linearGradient>
<linearGradient id="paint11_linear_343_7899" x1="93.6164" y1="47.0782" x2="88.1752" y2="42.5193" gradientUnits="userSpaceOnUse">
<stop stop-color="#FF6359"/>
<stop offset="0.2617" stop-color="#FE584C"/>
<stop offset="0.7476" stop-color="#FA3A29"/>
<stop offset="1" stop-color="#F82814"/>
</linearGradient>
<linearGradient id="paint12_linear_343_7899" x1="20.7062" y1="48.2308" x2="9.36556" y2="45.2263" gradientUnits="userSpaceOnUse">
<stop stop-color="#F82814" stop-opacity="0"/>
<stop offset="0.2454" stop-color="#F12817" stop-opacity="0.245"/>
<stop offset="0.6052" stop-color="#DD2820" stop-opacity="0.605"/>
<stop offset="1" stop-color="#C0272D"/>
</linearGradient>
<linearGradient id="paint13_linear_343_7899" x1="20.8777" y1="55.8615" x2="11.9249" y2="53.4899" gradientUnits="userSpaceOnUse">
<stop stop-color="#F82814" stop-opacity="0"/>
<stop offset="0.2454" stop-color="#F12817" stop-opacity="0.245"/>
<stop offset="0.6052" stop-color="#DD2820" stop-opacity="0.605"/>
<stop offset="1" stop-color="#C0272D"/>
</linearGradient>
<linearGradient id="paint14_linear_343_7899" x1="27.13" y1="51.0051" x2="21.7327" y2="49.5749" gradientUnits="userSpaceOnUse">
<stop stop-color="#F82814" stop-opacity="0"/>
<stop offset="0.2454" stop-color="#F12817" stop-opacity="0.245"/>
<stop offset="0.6052" stop-color="#DD2820" stop-opacity="0.605"/>
<stop offset="1" stop-color="#C0272D"/>
</linearGradient>
<linearGradient id="paint15_linear_343_7899" x1="29.1041" y1="42.0682" x2="25.1753" y2="34.3388" gradientUnits="userSpaceOnUse">
<stop stop-color="#F82814" stop-opacity="0"/>
<stop offset="0.2454" stop-color="#F12817" stop-opacity="0.245"/>
<stop offset="0.6052" stop-color="#DD2820" stop-opacity="0.605"/>
<stop offset="1" stop-color="#C0272D"/>
</linearGradient>
<linearGradient id="paint16_linear_343_7899" x1="24.9827" y1="45.9206" x2="21.881" y2="39.8185" gradientUnits="userSpaceOnUse">
<stop stop-color="#F82814" stop-opacity="0"/>
<stop offset="0.2454" stop-color="#F12817" stop-opacity="0.245"/>
<stop offset="0.6052" stop-color="#DD2820" stop-opacity="0.605"/>
<stop offset="1" stop-color="#C0272D"/>
</linearGradient>
<linearGradient id="paint17_linear_343_7899" x1="30.7386" y1="46.975" x2="28.8686" y2="43.2962" gradientUnits="userSpaceOnUse">
<stop stop-color="#F82814" stop-opacity="0"/>
<stop offset="0.2454" stop-color="#F12817" stop-opacity="0.245"/>
<stop offset="0.6052" stop-color="#DD2820" stop-opacity="0.605"/>
<stop offset="1" stop-color="#C0272D"/>
</linearGradient>
<linearGradient id="paint18_linear_343_7899" x1="123.893" y1="44.5504" x2="112.553" y2="41.546" gradientUnits="userSpaceOnUse">
<stop stop-color="#F82814" stop-opacity="0"/>
<stop offset="0.2454" stop-color="#F12817" stop-opacity="0.245"/>
<stop offset="0.6052" stop-color="#DD2820" stop-opacity="0.605"/>
<stop offset="1" stop-color="#C0272D"/>
</linearGradient>
<linearGradient id="paint19_linear_343_7899" x1="124.064" y1="52.1814" x2="115.112" y2="49.8094" gradientUnits="userSpaceOnUse">
<stop stop-color="#F82814" stop-opacity="0"/>
<stop offset="0.2454" stop-color="#F12817" stop-opacity="0.245"/>
<stop offset="0.6052" stop-color="#DD2820" stop-opacity="0.605"/>
<stop offset="1" stop-color="#C0272D"/>
</linearGradient>
<linearGradient id="paint20_linear_343_7899" x1="130.317" y1="47.3248" x2="124.92" y2="45.8948" gradientUnits="userSpaceOnUse">
<stop stop-color="#F82814" stop-opacity="0"/>
<stop offset="0.2454" stop-color="#F12817" stop-opacity="0.245"/>
<stop offset="0.6052" stop-color="#DD2820" stop-opacity="0.605"/>
<stop offset="1" stop-color="#C0272D"/>
</linearGradient>
<linearGradient id="paint21_linear_343_7899" x1="91.4206" y1="35.9558" x2="115.832" y2="47.5735" gradientUnits="userSpaceOnUse">
<stop stop-color="#E87264" stop-opacity="0"/>
<stop offset="1" stop-color="#F8DFBE"/>
</linearGradient>
<linearGradient id="paint22_linear_343_7899" x1="70.9219" y1="18.5494" x2="89.2725" y2="22.8673" gradientUnits="userSpaceOnUse">
<stop stop-color="#E87264" stop-opacity="0"/>
<stop offset="0.1575" stop-color="#E97869" stop-opacity="0.158"/>
<stop offset="0.3778" stop-color="#EC8B78" stop-opacity="0.378"/>
<stop offset="0.6353" stop-color="#F0A991" stop-opacity="0.635"/>
<stop offset="0.9188" stop-color="#F6D2B3" stop-opacity="0.919"/>
<stop offset="1" stop-color="#F8DFBE"/>
</linearGradient>
<linearGradient id="paint23_linear_343_7899" x1="49.2647" y1="41.5768" x2="61.6136" y2="41.5768" gradientUnits="userSpaceOnUse">
<stop stop-color="#E87264" stop-opacity="0"/>
<stop offset="1" stop-color="#F8DFBE"/>
</linearGradient>
</defs>
</svg>
