<svg width="138" height="151" viewBox="0 0 138 151" fill="none" xmlns="http://www.w3.org/2000/svg">
<path d="M120.005 62.5281C118.735 62.5281 117.705 61.4987 117.705 60.2284C117.705 58.9581 118.735 57.9287 120.005 57.9287C126.943 57.9287 132.587 52.2846 132.587 45.3469C132.587 38.4093 126.943 32.7651 120.005 32.7651H114.895C107.957 32.7651 102.313 38.4093 102.313 45.3469C102.313 46.6172 101.284 47.6466 100.014 47.6466C98.7436 47.6466 97.7139 46.6172 97.7139 45.3469C97.7139 35.8734 105.421 28.166 114.895 28.166H120.005C129.479 28.166 137.186 35.8734 137.186 45.3469C137.186 54.8204 129.479 62.5281 120.005 62.5281Z" fill="url(#paint0_linear_343_7647)"/>
<path d="M107.805 62.5281C106.535 62.5281 105.505 61.4987 105.505 60.2284C105.505 58.9581 106.535 57.9287 107.805 57.9287C116.605 57.9287 123.765 50.7687 123.765 41.9678C123.765 33.167 116.605 26.007 107.805 26.007H101.534C92.733 26.007 85.573 33.167 85.573 41.9678C85.573 43.2381 84.5433 44.2675 83.2733 44.2675C82.0033 44.2675 80.9736 43.2381 80.9736 41.9678C80.9736 30.6311 90.1969 21.4078 101.534 21.4078H107.804C119.141 21.4078 128.364 30.6311 128.364 41.9678C128.364 53.3046 119.142 62.5281 107.805 62.5281Z" fill="url(#paint1_linear_343_7647)"/>
<path d="M59.2693 122.615C63.7176 122.615 67.3237 119.009 67.3237 114.56C67.3237 110.112 63.7176 106.506 59.2693 106.506C54.8209 106.506 51.2148 110.112 51.2148 114.56C51.2148 119.009 54.8209 122.615 59.2693 122.615Z" fill="url(#paint2_linear_343_7647)"/>
<path d="M63.1305 121.628C62.5725 121.935 61.9928 122.168 61.4043 122.328L51.5034 112.427C52.0614 110.394 53.4105 108.582 55.4099 107.49C59.3131 105.359 64.207 106.797 66.3378 110.701C68.4687 114.604 67.0337 119.498 63.1305 121.628Z" fill="url(#paint3_linear_343_7647)"/>
<path d="M83.9165 125.166C87.1089 129.156 86.8809 134.644 83.4068 137.424C79.933 140.203 74.5286 139.222 71.3362 135.232C68.1439 131.242 68.3718 125.754 71.8459 122.974C75.32 120.195 80.7239 121.176 83.9165 125.166Z" fill="url(#paint4_linear_343_7647)"/>
<path d="M83.9163 125.166C77.353 123.447 73.8121 127.519 75.3163 135.056C77.0927 143.958 74.9813 148.026 72.7527 149.808C65.8398 155.339 52.5463 126.485 60.6174 120.027C68.6886 113.569 77.5095 117.159 83.9163 125.166Z" fill="url(#paint5_linear_343_7647)"/>
<path d="M54.6907 76.9556C48.7675 85.0973 45.9525 95.4153 47.4225 105.913C47.4283 105.955 47.4351 106 47.4431 106.049C48.2819 111.186 53.0813 114.712 58.2483 114.08L60.9813 113.745C65.3772 113.207 68.9145 109.784 69.4645 105.389C70.0925 100.371 71.9916 95.6303 74.9083 91.5982L54.6907 76.9556Z" fill="url(#paint6_linear_343_7647)"/>
<path d="M69.0783 87.3757C66.223 91.3749 64.3612 96.0584 63.7412 101.014C63.1912 105.409 59.6541 108.832 55.258 109.37L52.525 109.705C51.1947 109.868 49.8897 109.753 48.6694 109.408C50.5903 112.628 54.3115 114.562 58.2486 114.08L60.9815 113.745C65.3774 113.207 68.9147 109.784 69.4647 105.389C70.0927 100.371 71.9918 95.6304 74.9086 91.5984L69.0783 87.3757Z" fill="url(#paint7_linear_343_7647)"/>
<path d="M54.6905 76.9556C52.3141 80.222 50.4394 83.8394 49.1396 87.6773C49.7188 89.0223 50.5679 90.2567 51.6632 91.285L68.6305 108.252C69.0496 107.365 69.3373 106.403 69.4643 105.389C70.0923 100.371 71.9914 95.6303 74.9082 91.5982L54.6905 76.9556Z" fill="url(#paint8_linear_343_7647)"/>
<path d="M77.3506 57.9161C65.6929 60.9314 56.2047 68.0855 50.05 77.3973C46.2815 83.0987 48.6506 90.8214 54.975 93.4114L64.8465 97.4537C69.3712 99.3067 74.6135 97.9273 77.5494 94.0179C81.6932 88.5002 87.667 84.2973 94.867 82.4349L88.1397 56.4264C84.5714 56.4999 80.9559 56.9835 77.3506 57.9161Z" fill="url(#paint9_linear_343_7647)"/>
<path d="M88.1394 56.4264C86.3885 56.4626 84.6259 56.5987 82.8588 56.837L88.1091 77.1346C83.1029 78.4296 78.6894 80.8561 75.0718 84.0693C68.1277 90.2373 58.2927 91.8955 49.6235 88.6714C50.7665 90.7258 52.5885 92.4343 54.975 93.4117L64.8465 97.4541C69.3712 99.307 74.6135 97.9276 77.5494 94.0182C81.6932 88.5005 87.6671 84.2976 94.8671 82.4352L88.1394 56.4264Z" fill="url(#paint10_linear_343_7647)"/>
<path d="M95.7754 92.8932H87.369C76.3922 92.8932 67.4937 83.9946 67.4937 73.0179C67.4937 62.0411 76.3922 53.1426 87.369 53.1426H114.744C120.483 53.1426 125.135 57.7946 125.135 63.5335C125.135 79.7482 111.99 92.8932 95.7754 92.8932Z" fill="url(#paint11_linear_343_7647)"/>
<path d="M102.371 63.9569C104.845 63.9569 106.851 61.9509 106.851 59.4763C106.851 57.0018 104.845 54.9957 102.371 54.9957C99.8962 54.9957 97.8901 57.0018 97.8901 59.4763C97.8901 61.9509 99.8962 63.9569 102.371 63.9569Z" fill="url(#paint12_radial_343_7647)"/>
<path d="M81.6468 76.4011C82.6882 76.4011 83.5324 75.5569 83.5324 74.5155C83.5324 73.4741 82.6882 72.6299 81.6468 72.6299C80.6054 72.6299 79.7612 73.4741 79.7612 74.5155C79.7612 75.5569 80.6054 76.4011 81.6468 76.4011Z" fill="url(#paint13_linear_343_7647)"/>
<path d="M75.9275 77.8269C76.7496 77.8269 77.416 77.1605 77.416 76.3384C77.416 75.5163 76.7496 74.8499 75.9275 74.8499C75.1054 74.8499 74.439 75.5163 74.439 76.3384C74.439 77.1605 75.1054 77.8269 75.9275 77.8269Z" fill="url(#paint14_linear_343_7647)"/>
<path d="M80.3886 82.1104C80.8842 82.1104 81.2859 81.7086 81.2859 81.213C81.2859 80.7174 80.8842 80.3157 80.3886 80.3157C79.893 80.3157 79.4912 80.7174 79.4912 81.213C79.4912 81.7086 79.893 82.1104 80.3886 82.1104Z" fill="url(#paint15_linear_343_7647)"/>
<path d="M66.1298 135.218C66.962 135.218 67.6366 134.544 67.6366 133.711C67.6366 132.879 66.962 132.205 66.1298 132.205C65.2976 132.205 64.623 132.879 64.623 133.711C64.623 134.544 65.2976 135.218 66.1298 135.218Z" fill="url(#paint16_linear_343_7647)"/>
<path d="M66.4013 139.69C67.0582 139.69 67.5907 139.157 67.5907 138.5C67.5907 137.844 67.0582 137.311 66.4013 137.311C65.7444 137.311 65.2119 137.844 65.2119 138.5C65.2119 139.157 65.7444 139.69 66.4013 139.69Z" fill="url(#paint17_linear_343_7647)"/>
<path d="M71.0623 136.737C71.4583 136.737 71.7793 136.416 71.7793 136.02C71.7793 135.624 71.4583 135.302 71.0623 135.302C70.6662 135.302 70.3452 135.624 70.3452 136.02C70.3452 136.416 70.6662 136.737 71.0623 136.737Z" fill="url(#paint18_linear_343_7647)"/>
<path d="M88.7985 82.9992C89.568 82.9992 90.1918 82.3755 90.1918 81.606C90.1918 80.8365 89.568 80.2128 88.7985 80.2128C88.029 80.2128 87.4053 80.8365 87.4053 81.606C87.4053 82.3755 88.029 82.9992 88.7985 82.9992Z" fill="url(#paint19_linear_343_7647)"/>
<path d="M84.977 80.4543C85.5845 80.4543 86.077 79.9618 86.077 79.3543C86.077 78.7468 85.5845 78.2543 84.977 78.2543C84.3694 78.2543 83.877 78.7468 83.877 79.3543C83.877 79.9618 84.3694 80.4543 84.977 80.4543Z" fill="url(#paint20_linear_343_7647)"/>
<path d="M84.4899 84.876C84.8562 84.876 85.1531 84.5791 85.1531 84.2128C85.1531 83.8465 84.8562 83.5496 84.4899 83.5496C84.1236 83.5496 83.8267 83.8465 83.8267 84.2128C83.8267 84.5791 84.1236 84.876 84.4899 84.876Z" fill="url(#paint21_linear_343_7647)"/>
<path d="M59.0583 103.013C59.8277 103.013 60.4515 102.389 60.4515 101.619C60.4515 100.85 59.8277 100.226 59.0583 100.226C58.2888 100.226 57.665 100.85 57.665 101.619C57.665 102.389 58.2888 103.013 59.0583 103.013Z" fill="url(#paint22_linear_343_7647)"/>
<path d="M55.2367 100.468C55.8442 100.468 56.3367 99.9753 56.3367 99.3678C56.3367 98.7603 55.8442 98.2678 55.2367 98.2678C54.6292 98.2678 54.1367 98.7603 54.1367 99.3678C54.1367 99.9753 54.6292 100.468 55.2367 100.468Z" fill="url(#paint23_linear_343_7647)"/>
<path d="M54.7497 104.89C55.116 104.89 55.4129 104.593 55.4129 104.226C55.4129 103.86 55.116 103.563 54.7497 103.563C54.3834 103.563 54.0864 103.86 54.0864 104.226C54.0864 104.593 54.3834 104.89 54.7497 104.89Z" fill="url(#paint24_linear_343_7647)"/>
<path d="M73.1476 41.6288C71.8776 41.6288 70.8479 40.5994 70.8479 39.3291C70.8479 38.0588 71.8776 37.0294 73.1476 37.0294C80.0853 37.0294 85.7294 31.3853 85.7294 24.4476C85.7294 17.51 80.0853 11.8658 73.1476 11.8658H68.0373C61.1 11.8658 55.4559 17.51 55.4559 24.4476C55.4559 25.7179 54.4261 26.7473 53.1561 26.7473C51.8861 26.7473 50.8564 25.7179 50.8564 24.4476C50.8564 14.9741 58.5638 7.26672 68.0373 7.26672H73.1476C82.6211 7.26672 90.3285 14.9741 90.3285 24.4476C90.3285 33.9211 82.6211 41.6288 73.1476 41.6288Z" fill="url(#paint25_linear_343_7647)"/>
<path d="M60.9471 41.6288C59.6771 41.6288 58.6474 40.5994 58.6474 39.3291C58.6474 38.0588 59.6771 37.0294 60.9471 37.0294C69.748 37.0294 76.908 29.8694 76.908 21.0685C76.908 12.2676 69.748 5.10761 60.9471 5.10761H54.6765C45.8756 5.10761 38.7156 12.2676 38.7156 21.0685C38.7156 22.3388 37.6859 23.3682 36.4159 23.3682C35.1459 23.3682 34.1162 22.3388 34.1162 21.0685C34.1165 9.73203 43.3397 0.508789 54.6765 0.508789H60.9471C72.2842 0.508789 81.5071 9.73203 81.5071 21.0688C81.5071 32.4056 72.2842 41.6288 60.9471 41.6288Z" fill="url(#paint26_linear_343_7647)"/>
<path d="M12.4118 101.715C16.8602 101.715 20.4662 98.1091 20.4662 93.6607C20.4662 89.2124 16.8602 85.6063 12.4118 85.6063C7.9635 85.6063 4.35742 89.2124 4.35742 93.6607C4.35742 98.1091 7.9635 101.715 12.4118 101.715Z" fill="url(#paint27_linear_343_7647)"/>
<path d="M16.2731 100.729C15.7151 101.036 15.1354 101.269 14.5469 101.428L4.646 91.5275C5.20394 89.4946 6.55306 87.6825 8.55247 86.5911C12.4557 84.4602 17.3495 85.8981 19.4804 89.8014C21.6113 93.7046 20.1763 98.5981 16.2731 100.729Z" fill="url(#paint28_linear_343_7647)"/>
<path d="M37.0586 104.267C40.251 108.257 40.023 113.745 36.5489 116.525C33.0751 119.304 27.6707 118.323 24.4783 114.333C21.286 110.343 21.5139 104.855 24.988 102.075C28.4621 99.2956 33.8662 100.277 37.0586 104.267Z" fill="url(#paint29_linear_343_7647)"/>
<path d="M37.0585 104.267C30.4953 102.548 26.9544 106.619 28.4585 114.156C30.235 123.059 28.1235 127.126 25.8953 128.909C18.9824 134.44 5.68883 105.586 13.76 99.1282C21.8312 92.6702 30.6521 96.2599 37.0585 104.267Z" fill="url(#paint30_linear_343_7647)"/>
<path d="M7.83328 56.0562C1.91004 64.1979 -0.904956 74.5159 0.565044 85.0135C0.570926 85.0553 0.577691 85.1006 0.585632 85.1491C1.42446 90.2868 6.22387 93.8129 11.3909 93.1803L14.1239 92.8456C18.5197 92.3073 22.0571 88.8841 22.6071 84.4897C23.235 79.4715 25.1342 74.7309 28.0509 70.6988L7.83328 56.0562Z" fill="url(#paint31_linear_343_7647)"/>
<path d="M22.2208 66.4763C19.3655 70.4754 17.5038 75.159 16.8838 80.1149C16.3338 84.5093 12.7967 87.9328 8.40054 88.4707L5.6676 88.8054C4.33731 88.9684 3.03231 88.8537 1.81201 88.5087C3.73289 91.7287 7.45407 93.6625 11.3911 93.1804L14.1241 92.8457C18.52 92.3075 22.0573 88.8843 22.6073 84.4899C23.2353 79.4716 25.1344 74.731 28.0511 70.699L22.2208 66.4763Z" fill="url(#paint32_linear_343_7647)"/>
<path d="M7.83311 56.0562C5.45664 59.3226 3.58193 62.94 2.28223 66.7779C2.86134 68.1229 3.71046 69.3573 4.80576 70.3856L21.7731 87.3529C22.1922 86.4656 22.4799 85.5041 22.6069 84.4897C23.2349 79.4715 25.134 74.7309 28.0508 70.6988L7.83311 56.0562Z" fill="url(#paint33_linear_343_7647)"/>
<path d="M30.4932 37.0167C18.8355 40.032 9.34727 47.1861 3.19256 56.4979C-0.575968 62.1993 1.79315 69.922 8.11756 72.512L17.989 76.5543C22.5137 78.4073 27.7561 77.0279 30.692 73.1185C34.8358 67.6008 40.8096 63.3979 48.0096 61.5355L41.2823 35.527C37.7143 35.6008 34.0987 36.0843 30.4932 37.0167Z" fill="url(#paint34_linear_343_7647)"/>
<path d="M41.282 35.5272C39.5311 35.5634 37.7685 35.6996 36.0014 35.9378L41.2517 56.2355C36.2455 57.5305 31.832 59.9569 28.2143 63.1702C21.2702 69.3381 11.4352 70.9963 2.76611 67.7722C3.90905 69.8266 5.73111 71.5352 8.11758 72.5125L17.9891 76.5549C22.5138 78.4078 27.7561 77.0284 30.692 73.119C34.8358 67.6013 40.8096 63.3984 48.0096 61.536L41.282 35.5272Z" fill="url(#paint35_linear_343_7647)"/>
<path d="M48.9175 71.9938H40.511C29.5343 71.9938 20.6357 63.0952 20.6357 52.1185C20.6357 41.1417 29.5343 32.2432 40.511 32.2432H67.8863C73.6251 32.2432 78.2772 36.8955 78.2772 42.634C78.2775 58.849 65.1328 71.9938 48.9175 71.9938Z" fill="url(#paint36_linear_343_7647)"/>
<path d="M55.5133 43.0576C57.9879 43.0576 59.9939 41.0516 59.9939 38.577C59.9939 36.1025 57.9879 34.0964 55.5133 34.0964C53.0387 34.0964 51.0327 36.1025 51.0327 38.577C51.0327 41.0516 53.0387 43.0576 55.5133 43.0576Z" fill="url(#paint37_radial_343_7647)"/>
<path d="M34.7889 55.5018C35.8303 55.5018 36.6745 54.6576 36.6745 53.6162C36.6745 52.5748 35.8303 51.7306 34.7889 51.7306C33.7475 51.7306 32.9033 52.5748 32.9033 53.6162C32.9033 54.6576 33.7475 55.5018 34.7889 55.5018Z" fill="url(#paint38_linear_343_7647)"/>
<path d="M29.0696 56.9276C29.8917 56.9276 30.5581 56.2612 30.5581 55.4391C30.5581 54.617 29.8917 53.9506 29.0696 53.9506C28.2475 53.9506 27.5811 54.617 27.5811 55.4391C27.5811 56.2612 28.2475 56.9276 29.0696 56.9276Z" fill="url(#paint39_linear_343_7647)"/>
<path d="M33.5311 61.2115C34.0267 61.2115 34.4285 60.8097 34.4285 60.3141C34.4285 59.8185 34.0267 59.4167 33.5311 59.4167C33.0355 59.4167 32.6338 59.8185 32.6338 60.3141C32.6338 60.8097 33.0355 61.2115 33.5311 61.2115Z" fill="url(#paint40_linear_343_7647)"/>
<path d="M19.2724 114.319C20.1046 114.319 20.7792 113.644 20.7792 112.812C20.7792 111.98 20.1046 111.306 19.2724 111.306C18.4402 111.306 17.7656 111.98 17.7656 112.812C17.7656 113.644 18.4402 114.319 19.2724 114.319Z" fill="url(#paint41_linear_343_7647)"/>
<path d="M19.5439 118.791C20.2008 118.791 20.7333 118.258 20.7333 117.601C20.7333 116.944 20.2008 116.412 19.5439 116.412C18.887 116.412 18.3545 116.944 18.3545 117.601C18.3545 118.258 18.887 118.791 19.5439 118.791Z" fill="url(#paint42_linear_343_7647)"/>
<path d="M24.2049 115.837C24.6009 115.837 24.9219 115.516 24.9219 115.12C24.9219 114.724 24.6009 114.403 24.2049 114.403C23.8088 114.403 23.4878 114.724 23.4878 115.12C23.4878 115.516 23.8088 115.837 24.2049 115.837Z" fill="url(#paint43_linear_343_7647)"/>
<path d="M41.9411 62.1004C42.7105 62.1004 43.3343 61.4767 43.3343 60.7072C43.3343 59.9377 42.7105 59.314 41.9411 59.314C41.1716 59.314 40.5479 59.9377 40.5479 60.7072C40.5479 61.4767 41.1716 62.1004 41.9411 62.1004Z" fill="url(#paint44_linear_343_7647)"/>
<path d="M38.1195 59.5553C38.727 59.5553 39.2195 59.0629 39.2195 58.4553C39.2195 57.8478 38.727 57.3553 38.1195 57.3553C37.512 57.3553 37.0195 57.8478 37.0195 58.4553C37.0195 59.0629 37.512 59.5553 38.1195 59.5553Z" fill="url(#paint45_linear_343_7647)"/>
<path d="M37.6325 63.9771C37.9988 63.9771 38.2957 63.6802 38.2957 63.3139C38.2957 62.9476 37.9988 62.6506 37.6325 62.6506C37.2662 62.6506 36.9692 62.9476 36.9692 63.3139C36.9692 63.6802 37.2662 63.9771 37.6325 63.9771Z" fill="url(#paint46_linear_343_7647)"/>
<path d="M12.2009 82.1135C12.9703 82.1135 13.5941 81.4897 13.5941 80.7203C13.5941 79.9508 12.9703 79.327 12.2009 79.327C11.4314 79.327 10.8076 79.9508 10.8076 80.7203C10.8076 81.4897 11.4314 82.1135 12.2009 82.1135Z" fill="url(#paint47_linear_343_7647)"/>
<path d="M8.3793 79.5685C8.98681 79.5685 9.4793 79.076 9.4793 78.4685C9.4793 77.861 8.98681 77.3685 8.3793 77.3685C7.77178 77.3685 7.2793 77.861 7.2793 78.4685C7.2793 79.076 7.77178 79.5685 8.3793 79.5685Z" fill="url(#paint48_linear_343_7647)"/>
<path d="M7.89224 83.9903C8.25854 83.9903 8.55548 83.6934 8.55548 83.3271C8.55548 82.9608 8.25854 82.6638 7.89224 82.6638C7.52595 82.6638 7.229 82.9608 7.229 83.3271C7.229 83.6934 7.52595 83.9903 7.89224 83.9903Z" fill="url(#paint49_linear_343_7647)"/>
<defs>
<linearGradient id="paint0_linear_343_7647" x1="110.703" y1="28.4237" x2="125.346" y2="61.7657" gradientUnits="userSpaceOnUse">
<stop stop-color="#FF6359"/>
<stop offset="0.2243" stop-color="#FE5B50"/>
<stop offset="0.5952" stop-color="#FC4637"/>
<stop offset="1" stop-color="#F82814"/>
</linearGradient>
<linearGradient id="paint1_linear_343_7647" x1="96.6001" y1="21.6799" x2="114.149" y2="61.637" gradientUnits="userSpaceOnUse">
<stop stop-color="#FF6359"/>
<stop offset="0.2243" stop-color="#FE5B50"/>
<stop offset="0.5952" stop-color="#FC4637"/>
<stop offset="1" stop-color="#F82814"/>
</linearGradient>
<linearGradient id="paint2_linear_343_7647" x1="53.1416" y1="113.028" x2="64.589" y2="115.89" gradientUnits="userSpaceOnUse">
<stop stop-color="#FF6359"/>
<stop offset="0.2243" stop-color="#FE5B50"/>
<stop offset="0.5952" stop-color="#FC4637"/>
<stop offset="1" stop-color="#F82814"/>
</linearGradient>
<linearGradient id="paint3_linear_343_7647" x1="60.3422" y1="122.731" x2="59.1155" y2="110.262" gradientUnits="userSpaceOnUse">
<stop stop-color="#F82814" stop-opacity="0"/>
<stop offset="0.2454" stop-color="#F12817" stop-opacity="0.245"/>
<stop offset="0.6052" stop-color="#DD2820" stop-opacity="0.605"/>
<stop offset="1" stop-color="#C0272D"/>
</linearGradient>
<linearGradient id="paint4_linear_343_7647" x1="86.9089" y1="137.068" x2="78.6669" y2="136.692" gradientUnits="userSpaceOnUse">
<stop stop-color="#FF6359"/>
<stop offset="0.2243" stop-color="#FE5B50"/>
<stop offset="0.5952" stop-color="#FC4637"/>
<stop offset="1" stop-color="#F82814"/>
</linearGradient>
<linearGradient id="paint5_linear_343_7647" x1="74.2251" y1="130.349" x2="56.0324" y2="141.183" gradientUnits="userSpaceOnUse">
<stop stop-color="#FF6359"/>
<stop offset="0.2243" stop-color="#FE5B50"/>
<stop offset="0.5952" stop-color="#FC4637"/>
<stop offset="1" stop-color="#F82814"/>
</linearGradient>
<linearGradient id="paint6_linear_343_7647" x1="57.7747" y1="95.9247" x2="67.2306" y2="107.202" gradientUnits="userSpaceOnUse">
<stop stop-color="#FF6359"/>
<stop offset="0.2243" stop-color="#FE5B50"/>
<stop offset="0.5952" stop-color="#FC4637"/>
<stop offset="1" stop-color="#F82814"/>
</linearGradient>
<linearGradient id="paint7_linear_343_7647" x1="45.9553" y1="96.751" x2="74.5733" y2="103.701" gradientUnits="userSpaceOnUse">
<stop stop-color="#F82814" stop-opacity="0"/>
<stop offset="0.2454" stop-color="#F12817" stop-opacity="0.245"/>
<stop offset="0.6052" stop-color="#DD2820" stop-opacity="0.605"/>
<stop offset="1" stop-color="#C0272D"/>
</linearGradient>
<linearGradient id="paint8_linear_343_7647" x1="57.5935" y1="107.486" x2="61.1708" y2="93.0753" gradientUnits="userSpaceOnUse">
<stop stop-color="#F82814" stop-opacity="0"/>
<stop offset="0.2454" stop-color="#F12817" stop-opacity="0.245"/>
<stop offset="0.6052" stop-color="#DD2820" stop-opacity="0.605"/>
<stop offset="1" stop-color="#C0272D"/>
</linearGradient>
<linearGradient id="paint9_linear_343_7647" x1="69.5394" y1="75.7096" x2="74.4453" y2="94.3114" gradientUnits="userSpaceOnUse">
<stop stop-color="#FF6359"/>
<stop offset="0.2243" stop-color="#FE5B50"/>
<stop offset="0.5952" stop-color="#FC4637"/>
<stop offset="1" stop-color="#F82814"/>
</linearGradient>
<linearGradient id="paint10_linear_343_7647" x1="55.9532" y1="71.9852" x2="82.7312" y2="78.5264" gradientUnits="userSpaceOnUse">
<stop stop-color="#F82814" stop-opacity="0"/>
<stop offset="0.2454" stop-color="#F12817" stop-opacity="0.245"/>
<stop offset="0.6052" stop-color="#DD2820" stop-opacity="0.605"/>
<stop offset="1" stop-color="#C0272D"/>
</linearGradient>
<linearGradient id="paint11_linear_343_7647" x1="94.6184" y1="65.4123" x2="107.905" y2="95.6655" gradientUnits="userSpaceOnUse">
<stop stop-color="#FF6359"/>
<stop offset="0.2243" stop-color="#FE5B50"/>
<stop offset="0.5952" stop-color="#FC4637"/>
<stop offset="1" stop-color="#F82814"/>
</linearGradient>
<radialGradient id="paint12_radial_343_7647" cx="0" cy="0" r="1" gradientUnits="userSpaceOnUse" gradientTransform="translate(100.872 54.6378) scale(8.18884)">
<stop stop-color="#A57C52"/>
<stop offset="0.2601" stop-color="#A47950"/>
<stop offset="0.4581" stop-color="#A26F4C"/>
<stop offset="0.6356" stop-color="#9F5F44"/>
<stop offset="0.8011" stop-color="#9A4838"/>
<stop offset="0.9568" stop-color="#942B2A"/>
<stop offset="1" stop-color="#922125"/>
</radialGradient>
<linearGradient id="paint13_linear_343_7647" x1="81.4012" y1="76.9914" x2="82.0238" y2="68.0904" gradientUnits="userSpaceOnUse">
<stop stop-color="#F82814" stop-opacity="0"/>
<stop offset="0.2454" stop-color="#F12817" stop-opacity="0.245"/>
<stop offset="0.6052" stop-color="#DD2820" stop-opacity="0.605"/>
<stop offset="1" stop-color="#C0272D"/>
</linearGradient>
<linearGradient id="paint14_linear_343_7647" x1="75.7254" y1="78.2105" x2="76.2171" y2="71.1835" gradientUnits="userSpaceOnUse">
<stop stop-color="#F82814" stop-opacity="0"/>
<stop offset="0.2454" stop-color="#F12817" stop-opacity="0.245"/>
<stop offset="0.6052" stop-color="#DD2820" stop-opacity="0.605"/>
<stop offset="1" stop-color="#C0272D"/>
</linearGradient>
<linearGradient id="paint15_linear_343_7647" x1="80.2475" y1="82.1869" x2="80.544" y2="77.9505" gradientUnits="userSpaceOnUse">
<stop stop-color="#F82814" stop-opacity="0"/>
<stop offset="0.2454" stop-color="#F12817" stop-opacity="0.245"/>
<stop offset="0.6052" stop-color="#DD2820" stop-opacity="0.605"/>
<stop offset="1" stop-color="#C0272D"/>
</linearGradient>
<linearGradient id="paint16_linear_343_7647" x1="68.9144" y1="133.434" x2="62.1471" y2="131.184" gradientUnits="userSpaceOnUse">
<stop stop-color="#F82814" stop-opacity="0"/>
<stop offset="0.2454" stop-color="#F12817" stop-opacity="0.245"/>
<stop offset="0.6052" stop-color="#DD2820" stop-opacity="0.605"/>
<stop offset="1" stop-color="#C0272D"/>
</linearGradient>
<linearGradient id="paint17_linear_343_7647" x1="68.7312" y1="138.071" x2="63.3885" y2="136.294" gradientUnits="userSpaceOnUse">
<stop stop-color="#F82814" stop-opacity="0"/>
<stop offset="0.2454" stop-color="#F12817" stop-opacity="0.245"/>
<stop offset="0.6052" stop-color="#DD2820" stop-opacity="0.605"/>
<stop offset="1" stop-color="#C0272D"/>
</linearGradient>
<linearGradient id="paint18_linear_343_7647" x1="72.7077" y1="135.36" x2="69.4867" y2="134.289" gradientUnits="userSpaceOnUse">
<stop stop-color="#F82814" stop-opacity="0"/>
<stop offset="0.2454" stop-color="#F12817" stop-opacity="0.245"/>
<stop offset="0.6052" stop-color="#DD2820" stop-opacity="0.605"/>
<stop offset="1" stop-color="#C0272D"/>
</linearGradient>
<linearGradient id="paint19_linear_343_7647" x1="87.2527" y1="82.4556" x2="92.4612" y2="78.414" gradientUnits="userSpaceOnUse">
<stop stop-color="#F82814" stop-opacity="0"/>
<stop offset="0.2454" stop-color="#F12817" stop-opacity="0.245"/>
<stop offset="0.6052" stop-color="#DD2820" stop-opacity="0.605"/>
<stop offset="1" stop-color="#C0272D"/>
</linearGradient>
<linearGradient id="paint20_linear_343_7647" x1="83.7858" y1="79.9306" x2="87.8976" y2="76.74" gradientUnits="userSpaceOnUse">
<stop stop-color="#F82814" stop-opacity="0"/>
<stop offset="0.2454" stop-color="#F12817" stop-opacity="0.245"/>
<stop offset="0.6052" stop-color="#DD2820" stop-opacity="0.605"/>
<stop offset="1" stop-color="#C0272D"/>
</linearGradient>
<linearGradient id="paint21_linear_343_7647" x1="83.8234" y1="84.3794" x2="86.3025" y2="82.456" gradientUnits="userSpaceOnUse">
<stop stop-color="#F82814" stop-opacity="0"/>
<stop offset="0.2454" stop-color="#F12817" stop-opacity="0.245"/>
<stop offset="0.6052" stop-color="#DD2820" stop-opacity="0.605"/>
<stop offset="1" stop-color="#C0272D"/>
</linearGradient>
<linearGradient id="paint22_linear_343_7647" x1="57.5208" y1="102.457" x2="62.7292" y2="98.415" gradientUnits="userSpaceOnUse">
<stop stop-color="#F82814" stop-opacity="0"/>
<stop offset="0.2454" stop-color="#F12817" stop-opacity="0.245"/>
<stop offset="0.6052" stop-color="#DD2820" stop-opacity="0.605"/>
<stop offset="1" stop-color="#C0272D"/>
</linearGradient>
<linearGradient id="paint23_linear_343_7647" x1="54.0538" y1="99.9316" x2="58.1656" y2="96.741" gradientUnits="userSpaceOnUse">
<stop stop-color="#F82814" stop-opacity="0"/>
<stop offset="0.2454" stop-color="#F12817" stop-opacity="0.245"/>
<stop offset="0.6052" stop-color="#DD2820" stop-opacity="0.605"/>
<stop offset="1" stop-color="#C0272D"/>
</linearGradient>
<linearGradient id="paint24_linear_343_7647" x1="54.0914" y1="104.381" x2="56.5705" y2="102.457" gradientUnits="userSpaceOnUse">
<stop stop-color="#F82814" stop-opacity="0"/>
<stop offset="0.2454" stop-color="#F12817" stop-opacity="0.245"/>
<stop offset="0.6052" stop-color="#DD2820" stop-opacity="0.605"/>
<stop offset="1" stop-color="#C0272D"/>
</linearGradient>
<linearGradient id="paint25_linear_343_7647" x1="63.8453" y1="7.52437" x2="78.4888" y2="40.8667" gradientUnits="userSpaceOnUse">
<stop stop-color="#FF6359"/>
<stop offset="0.2243" stop-color="#FE5B50"/>
<stop offset="0.5952" stop-color="#FC4637"/>
<stop offset="1" stop-color="#F82814"/>
</linearGradient>
<linearGradient id="paint26_linear_343_7647" x1="49.7427" y1="0.780554" x2="67.2915" y2="40.7376" gradientUnits="userSpaceOnUse">
<stop stop-color="#FF6359"/>
<stop offset="0.2243" stop-color="#FE5B50"/>
<stop offset="0.5952" stop-color="#FC4637"/>
<stop offset="1" stop-color="#F82814"/>
</linearGradient>
<linearGradient id="paint27_linear_343_7647" x1="6.28419" y1="92.129" x2="17.7312" y2="94.9907" gradientUnits="userSpaceOnUse">
<stop stop-color="#FF6359"/>
<stop offset="0.2243" stop-color="#FE5B50"/>
<stop offset="0.5952" stop-color="#FC4637"/>
<stop offset="1" stop-color="#F82814"/>
</linearGradient>
<linearGradient id="paint28_linear_343_7647" x1="13.4845" y1="101.832" x2="12.2581" y2="89.3622" gradientUnits="userSpaceOnUse">
<stop stop-color="#F82814" stop-opacity="0"/>
<stop offset="0.2454" stop-color="#F12817" stop-opacity="0.245"/>
<stop offset="0.6052" stop-color="#DD2820" stop-opacity="0.605"/>
<stop offset="1" stop-color="#C0272D"/>
</linearGradient>
<linearGradient id="paint29_linear_343_7647" x1="40.0505" y1="116.175" x2="31.8086" y2="115.799" gradientUnits="userSpaceOnUse">
<stop stop-color="#FF6359"/>
<stop offset="0.2243" stop-color="#FE5B50"/>
<stop offset="0.5952" stop-color="#FC4637"/>
<stop offset="1" stop-color="#F82814"/>
</linearGradient>
<linearGradient id="paint30_linear_343_7647" x1="27.3677" y1="109.449" x2="9.17471" y2="120.283" gradientUnits="userSpaceOnUse">
<stop stop-color="#FF6359"/>
<stop offset="0.2243" stop-color="#FE5B50"/>
<stop offset="0.5952" stop-color="#FC4637"/>
<stop offset="1" stop-color="#F82814"/>
</linearGradient>
<linearGradient id="paint31_linear_343_7647" x1="10.9363" y1="75.0126" x2="20.392" y2="86.2903" gradientUnits="userSpaceOnUse">
<stop stop-color="#FF6359"/>
<stop offset="0.2243" stop-color="#FE5B50"/>
<stop offset="0.5952" stop-color="#FC4637"/>
<stop offset="1" stop-color="#F82814"/>
</linearGradient>
<linearGradient id="paint32_linear_343_7647" x1="-0.902106" y1="75.8519" x2="27.7158" y2="82.8019" gradientUnits="userSpaceOnUse">
<stop stop-color="#F82814" stop-opacity="0"/>
<stop offset="0.2454" stop-color="#F12817" stop-opacity="0.245"/>
<stop offset="0.6052" stop-color="#DD2820" stop-opacity="0.605"/>
<stop offset="1" stop-color="#C0272D"/>
</linearGradient>
<linearGradient id="paint33_linear_343_7647" x1="10.736" y1="86.5873" x2="14.3131" y2="72.1762" gradientUnits="userSpaceOnUse">
<stop stop-color="#F82814" stop-opacity="0"/>
<stop offset="0.2454" stop-color="#F12817" stop-opacity="0.245"/>
<stop offset="0.6052" stop-color="#DD2820" stop-opacity="0.605"/>
<stop offset="1" stop-color="#C0272D"/>
</linearGradient>
<linearGradient id="paint34_linear_343_7647" x1="22.6823" y1="54.8105" x2="27.5882" y2="73.4123" gradientUnits="userSpaceOnUse">
<stop stop-color="#FF6359"/>
<stop offset="0.2243" stop-color="#FE5B50"/>
<stop offset="0.5952" stop-color="#FC4637"/>
<stop offset="1" stop-color="#F82814"/>
</linearGradient>
<linearGradient id="paint35_linear_343_7647" x1="9.09553" y1="51.086" x2="35.8738" y2="57.6272" gradientUnits="userSpaceOnUse">
<stop stop-color="#F82814" stop-opacity="0"/>
<stop offset="0.2454" stop-color="#F12817" stop-opacity="0.245"/>
<stop offset="0.6052" stop-color="#DD2820" stop-opacity="0.605"/>
<stop offset="1" stop-color="#C0272D"/>
</linearGradient>
<linearGradient id="paint36_linear_343_7647" x1="47.7607" y1="44.5132" x2="61.0478" y2="74.7664" gradientUnits="userSpaceOnUse">
<stop stop-color="#FF6359"/>
<stop offset="0.2243" stop-color="#FE5B50"/>
<stop offset="0.5952" stop-color="#FC4637"/>
<stop offset="1" stop-color="#F82814"/>
</linearGradient>
<radialGradient id="paint37_radial_343_7647" cx="0" cy="0" r="1" gradientUnits="userSpaceOnUse" gradientTransform="translate(54.0148 33.7388) scale(8.18882)">
<stop stop-color="#A57C52"/>
<stop offset="0.2601" stop-color="#A47950"/>
<stop offset="0.4581" stop-color="#A26F4C"/>
<stop offset="0.6356" stop-color="#9F5F44"/>
<stop offset="0.8011" stop-color="#9A4838"/>
<stop offset="0.9568" stop-color="#942B2A"/>
<stop offset="1" stop-color="#922125"/>
</radialGradient>
<linearGradient id="paint38_linear_343_7647" x1="34.559" y1="56.0937" x2="35.1816" y2="47.1928" gradientUnits="userSpaceOnUse">
<stop stop-color="#F82814" stop-opacity="0"/>
<stop offset="0.2454" stop-color="#F12817" stop-opacity="0.245"/>
<stop offset="0.6052" stop-color="#DD2820" stop-opacity="0.605"/>
<stop offset="1" stop-color="#C0272D"/>
</linearGradient>
<linearGradient id="paint39_linear_343_7647" x1="28.8832" y1="57.3128" x2="29.3747" y2="50.286" gradientUnits="userSpaceOnUse">
<stop stop-color="#F82814" stop-opacity="0"/>
<stop offset="0.2454" stop-color="#F12817" stop-opacity="0.245"/>
<stop offset="0.6052" stop-color="#DD2820" stop-opacity="0.605"/>
<stop offset="1" stop-color="#C0272D"/>
</linearGradient>
<linearGradient id="paint40_linear_343_7647" x1="33.4055" y1="61.2892" x2="33.702" y2="57.0529" gradientUnits="userSpaceOnUse">
<stop stop-color="#F82814" stop-opacity="0"/>
<stop offset="0.2454" stop-color="#F12817" stop-opacity="0.245"/>
<stop offset="0.6052" stop-color="#DD2820" stop-opacity="0.605"/>
<stop offset="1" stop-color="#C0272D"/>
</linearGradient>
<linearGradient id="paint41_linear_343_7647" x1="22.0443" y1="112.567" x2="15.2766" y2="110.317" gradientUnits="userSpaceOnUse">
<stop stop-color="#F82814" stop-opacity="0"/>
<stop offset="0.2454" stop-color="#F12817" stop-opacity="0.245"/>
<stop offset="0.6052" stop-color="#DD2820" stop-opacity="0.605"/>
<stop offset="1" stop-color="#C0272D"/>
</linearGradient>
<linearGradient id="paint42_linear_343_7647" x1="21.8606" y1="117.204" x2="16.5182" y2="115.427" gradientUnits="userSpaceOnUse">
<stop stop-color="#F82814" stop-opacity="0"/>
<stop offset="0.2454" stop-color="#F12817" stop-opacity="0.245"/>
<stop offset="0.6052" stop-color="#DD2820" stop-opacity="0.605"/>
<stop offset="1" stop-color="#C0272D"/>
</linearGradient>
<linearGradient id="paint43_linear_343_7647" x1="25.8374" y1="114.493" x2="22.6164" y2="113.422" gradientUnits="userSpaceOnUse">
<stop stop-color="#F82814" stop-opacity="0"/>
<stop offset="0.2454" stop-color="#F12817" stop-opacity="0.245"/>
<stop offset="0.6052" stop-color="#DD2820" stop-opacity="0.605"/>
<stop offset="1" stop-color="#C0272D"/>
</linearGradient>
<linearGradient id="paint44_linear_343_7647" x1="40.4165" y1="61.5576" x2="45.625" y2="57.516" gradientUnits="userSpaceOnUse">
<stop stop-color="#F82814" stop-opacity="0"/>
<stop offset="0.2454" stop-color="#F12817" stop-opacity="0.245"/>
<stop offset="0.6052" stop-color="#DD2820" stop-opacity="0.605"/>
<stop offset="1" stop-color="#C0272D"/>
</linearGradient>
<linearGradient id="paint45_linear_343_7647" x1="36.9496" y1="59.0325" x2="41.0614" y2="55.8419" gradientUnits="userSpaceOnUse">
<stop stop-color="#F82814" stop-opacity="0"/>
<stop offset="0.2454" stop-color="#F12817" stop-opacity="0.245"/>
<stop offset="0.6052" stop-color="#DD2820" stop-opacity="0.605"/>
<stop offset="1" stop-color="#C0272D"/>
</linearGradient>
<linearGradient id="paint46_linear_343_7647" x1="36.9872" y1="63.4813" x2="39.4663" y2="61.5579" gradientUnits="userSpaceOnUse">
<stop stop-color="#F82814" stop-opacity="0"/>
<stop offset="0.2454" stop-color="#F12817" stop-opacity="0.245"/>
<stop offset="0.6052" stop-color="#DD2820" stop-opacity="0.605"/>
<stop offset="1" stop-color="#C0272D"/>
</linearGradient>
<linearGradient id="paint47_linear_343_7647" x1="10.6849" y1="81.5584" x2="15.8933" y2="77.5168" gradientUnits="userSpaceOnUse">
<stop stop-color="#F82814" stop-opacity="0"/>
<stop offset="0.2454" stop-color="#F12817" stop-opacity="0.245"/>
<stop offset="0.6052" stop-color="#DD2820" stop-opacity="0.605"/>
<stop offset="1" stop-color="#C0272D"/>
</linearGradient>
<linearGradient id="paint48_linear_343_7647" x1="7.21791" y1="79.0334" x2="11.3297" y2="75.8428" gradientUnits="userSpaceOnUse">
<stop stop-color="#F82814" stop-opacity="0"/>
<stop offset="0.2454" stop-color="#F12817" stop-opacity="0.245"/>
<stop offset="0.6052" stop-color="#DD2820" stop-opacity="0.605"/>
<stop offset="1" stop-color="#C0272D"/>
</linearGradient>
<linearGradient id="paint49_linear_343_7647" x1="7.25551" y1="83.4822" x2="9.7343" y2="81.5588" gradientUnits="userSpaceOnUse">
<stop stop-color="#F82814" stop-opacity="0"/>
<stop offset="0.2454" stop-color="#F12817" stop-opacity="0.245"/>
<stop offset="0.6052" stop-color="#DD2820" stop-opacity="0.605"/>
<stop offset="1" stop-color="#C0272D"/>
</linearGradient>
</defs>
</svg>
