<svg width="151" height="143" viewBox="0 0 151 143" fill="none" xmlns="http://www.w3.org/2000/svg">
<path d="M75.4073 133.131C56.8109 133.131 39.7444 131.298 26.3765 128.241C28.2997 133.306 31.9129 137.137 36.3682 138.363C46.4235 141.13 60.2038 142.836 75.4073 142.836C90.6109 142.836 104.391 141.13 114.446 138.363C118.902 137.137 122.515 133.306 124.438 128.241C111.07 131.298 94.0038 133.131 75.4073 133.131Z" fill="url(#paint0_linear_343_7717)"/>
<path d="M150.408 118.768C150.408 144.48 0.407715 144.48 0.407715 118.768C0.407715 93.0555 150.408 93.0552 150.408 118.768Z" fill="url(#paint1_linear_343_7717)"/>
<path d="M140.113 116.882C140.113 135.214 10.7017 135.214 10.7017 116.882C10.7017 98.5503 140.113 98.5505 140.113 116.882Z" fill="url(#paint2_linear_343_7717)"/>
<path d="M150.408 118.768C150.408 99.8311 69.0515 94.8417 26.1709 103.798C28.6188 107.624 31.4468 111.224 34.633 114.533L62.5324 142.416C66.6656 142.69 70.9753 142.836 75.4077 142.836C90.6112 142.836 104.392 141.13 114.447 138.363C116.765 137.725 118.852 136.377 120.594 134.522C138.126 131.375 150.408 126.124 150.408 118.768Z" fill="url(#paint3_linear_343_7717)"/>
<path d="M75.4079 119.638C62.4459 119.638 50.5506 117.812 41.2329 114.767C42.5735 119.812 45.092 123.628 48.1973 124.848C55.2059 127.605 64.8109 129.304 75.4079 129.304C86.005 129.304 95.61 127.605 102.618 124.848C105.724 123.627 108.242 119.812 109.583 114.767C100.265 117.812 88.37 119.638 75.4079 119.638Z" fill="url(#paint4_linear_343_7717)"/>
<path d="M125.202 84.6249C125.202 86.821 126.982 88.6013 129.179 88.6013H140.936C145.651 88.6013 149.474 84.781 149.474 80.0634C149.474 77.7072 148.517 75.5722 146.972 74.0275C145.427 72.4802 143.295 71.5258 140.936 71.5258H135.397C135.334 72.3943 135.254 73.2605 135.157 74.1211C134.91 76.3187 134.559 78.4978 134.107 80.6487H129.179C126.982 80.6487 125.202 82.4287 125.202 84.6249Z" fill="url(#paint5_linear_343_7717)"/>
<path d="M125.202 84.6249C125.202 86.821 126.982 88.6013 129.179 88.6013H140.936C145.651 88.6013 149.474 84.781 149.474 80.0634C149.474 77.7072 148.517 75.5722 146.972 74.0275C145.427 72.4802 143.295 71.5258 140.936 71.5258H135.397C135.334 72.3943 135.254 73.2605 135.157 74.1211C134.91 76.3187 134.559 78.4978 134.107 80.6487H129.179C126.982 80.6487 125.202 82.4287 125.202 84.6249Z" fill="url(#paint6_linear_343_7717)"/>
<path d="M134.107 80.6487H138.206C140.18 80.6487 141.779 79.0493 141.779 77.0755C141.779 76.2613 141.449 75.5228 140.916 74.9872C140.38 74.4516 139.644 74.1213 138.827 74.1213H135.158C134.911 76.3184 134.56 78.4978 134.107 80.6487Z" fill="url(#paint7_linear_343_7717)"/>
<path d="M45.7867 120.783C65.2941 125.14 85.522 125.14 105.029 120.783C109.278 119.835 113.163 117.669 116.183 114.533C128.567 101.672 135.586 84.444 135.586 66.4049V64.7214C135.586 38.0287 15.23 38.0287 15.23 64.7214V66.4049C15.23 84.444 22.2491 101.672 34.6332 114.533C37.6526 117.669 41.5379 119.835 45.7867 120.783Z" fill="url(#paint8_linear_343_7717)"/>
<path d="M135.586 64.7214C135.586 91.414 15.2295 91.414 15.2295 64.7214C15.2295 38.0287 135.586 38.0287 135.586 64.7214Z" fill="url(#paint9_linear_343_7717)"/>
<path d="M129.451 63.2787C129.451 84.4234 21.3662 84.4234 21.3662 63.2787C21.3662 42.134 129.451 42.134 129.451 63.2787Z" fill="url(#paint10_linear_343_7717)"/>
<path d="M24.3911 68.9846C39.9499 82.5208 110.865 82.5208 126.424 68.9846C110.865 55.4485 39.9502 55.4485 24.3911 68.9846Z" fill="url(#paint11_linear_343_7717)"/>
<path d="M111.221 75.5082C111.441 74.99 111.556 74.4497 111.556 73.8865C111.556 59.7429 39.2593 59.7429 39.2593 73.8865C39.2593 74.4494 39.3749 74.99 39.5949 75.5082C59.529 80.3456 91.2866 80.3456 111.221 75.5082Z" fill="url(#paint12_linear_343_7717)"/>
<path d="M45.2632 76.6988C48.0229 63.4888 102.793 63.4888 105.552 76.6988C87.6244 79.9479 63.1908 79.9479 45.2632 76.6988Z" fill="url(#paint13_linear_343_7717)"/>
<path d="M54.5762 72.1746C54.5762 73.8338 46.3315 73.8338 46.3315 72.1746C46.3315 70.5155 48.1771 69.1705 50.4539 69.1705C52.7307 69.1705 54.5762 70.5155 54.5762 72.1746Z" fill="url(#paint14_linear_343_7717)"/>
<path d="M114.807 67.5543C114.807 69.2134 106.562 69.2134 106.562 67.5543C106.562 65.8952 108.408 64.5502 110.685 64.5502C112.962 64.5502 114.807 65.8952 114.807 67.5543Z" fill="url(#paint15_linear_343_7717)"/>
<path d="M66.6992 78.9487C69.2772 79.0587 71.8813 79.1196 74.4895 79.1311C73.9713 77.9037 72.4036 77.0114 70.5492 77.0114C68.7886 77.0114 67.2901 77.8169 66.6992 78.9487Z" fill="url(#paint16_linear_343_7717)"/>
<path d="M106.003 72.8699C105.524 72.6364 104.947 72.8349 104.714 73.3131C104.481 73.7914 104.679 74.3684 105.157 74.6017C105.636 74.8352 106.213 74.6366 106.446 74.1584C106.679 73.6805 106.481 73.1034 106.003 72.8699Z" fill="#FFEAA2"/>
<path d="M112.58 71.2875C112.202 71.1031 111.747 71.2599 111.563 71.6375C111.378 72.0152 111.535 72.4705 111.913 72.6549C112.29 72.839 112.746 72.6825 112.93 72.3049C113.114 71.9272 112.957 71.4716 112.58 71.2875Z" fill="#FFEAA2"/>
<path d="M111.345 67.8945C111.118 67.7834 110.843 67.8778 110.732 68.1054C110.621 68.3331 110.715 68.6078 110.943 68.7187C111.171 68.8298 111.445 68.7351 111.556 68.5078C111.667 68.2801 111.573 68.0054 111.345 67.8945Z" fill="#FFEAA2"/>
<path d="M61.135 63.1414C60.6029 63.1443 60.1738 63.5781 60.1768 64.1105C60.1797 64.6425 60.6135 65.0717 61.1456 65.0687C61.6776 65.0658 62.1068 64.632 62.1038 64.0999C62.1012 63.5675 61.6674 63.1384 61.135 63.1414Z" fill="#FFEAA2"/>
<path d="M52.5997 66.8134C52.1797 66.8157 51.8409 67.1581 51.8433 67.5784C51.8456 67.9984 52.188 68.3372 52.6083 68.3348C53.0286 68.3325 53.3671 67.9901 53.3647 67.5698C53.3624 67.1498 53.02 66.811 52.5997 66.8134Z" fill="#FFEAA2"/>
<path d="M65.6725 72.8187C65.4193 72.8202 65.2151 73.0267 65.2163 73.2799C65.2175 73.5331 65.4243 73.7376 65.6775 73.7361C65.9307 73.7346 66.1348 73.5281 66.1337 73.2749C66.1322 73.0214 65.9257 72.8173 65.6725 72.8187Z" fill="#FFEAA2"/>
<path d="M101.665 66.0331C101.284 66.1334 101.057 66.5228 101.158 66.9031C101.258 67.2834 101.647 67.5105 102.028 67.4102C102.408 67.3099 102.635 66.9205 102.535 66.5402C102.434 66.1599 102.045 65.9328 101.665 66.0331Z" fill="#FFEAA2"/>
<path d="M100.429 71.6184C100.128 71.6975 99.9494 72.0049 100.028 72.3052C100.108 72.6055 100.415 72.7846 100.715 72.7055C101.016 72.6263 101.195 72.3187 101.116 72.0187C101.036 71.7187 100.729 71.5393 100.429 71.6184Z" fill="#FFEAA2"/>
<path d="M109.497 70.9669C109.316 71.0146 109.208 71.2002 109.255 71.3811C109.303 71.5619 109.488 71.6702 109.669 71.6225C109.85 71.5749 109.959 71.3893 109.911 71.2084C109.863 71.0272 109.678 70.9193 109.497 70.9669Z" fill="#FFEAA2"/>
<path d="M48.9943 72.4114C48.5161 72.1779 47.9391 72.3764 47.7058 72.8546C47.4723 73.3329 47.6708 73.9099 48.1491 74.1432C48.6273 74.3767 49.2043 74.1782 49.4376 73.6999C49.6711 73.2217 49.4726 72.6449 48.9943 72.4114Z" fill="#FFEAA2"/>
<path d="M56.9721 68.3234C56.5945 68.139 56.1392 68.2958 55.9548 68.6734C55.7703 69.0511 55.9271 69.5063 56.3048 69.6908C56.6824 69.8752 57.1377 69.7184 57.3221 69.3408C57.5065 68.9631 57.3498 68.5078 56.9721 68.3234Z" fill="#FFEAA2"/>
<path d="M50.1955 65.1537C49.9679 65.0425 49.6932 65.1369 49.5823 65.3646C49.4711 65.5922 49.5655 65.8669 49.7932 65.9778C50.0208 66.089 50.2955 65.9946 50.4064 65.7669C50.5176 65.5393 50.4232 65.2649 50.1955 65.1537Z" fill="#FFEAA2"/>
<path d="M39.736 68.1846C39.733 67.6525 39.2992 67.2234 38.7668 67.2263C38.2348 67.2293 37.8057 67.6631 37.8086 68.1952C37.8115 68.7272 38.2454 69.1563 38.7777 69.1534C39.3101 69.1507 39.7389 68.7169 39.736 68.1846Z" fill="#FFEAA2"/>
<path d="M39.6837 69.6704C39.2637 69.6728 38.9249 70.0151 38.9273 70.4354C38.9296 70.8554 39.272 71.1943 39.6923 71.1919C40.1123 71.1895 40.4511 70.8472 40.4487 70.4269C40.4464 70.0069 40.104 69.6681 39.6837 69.6704Z" fill="#FFEAA2"/>
<path d="M41.8986 70.3381C41.6453 70.3396 41.4412 70.5461 41.4424 70.7993C41.4439 71.0526 41.6503 71.2567 41.9036 71.2555C42.1568 71.2543 42.3609 71.0476 42.3597 70.7943C42.3583 70.5411 42.1518 70.3367 41.8986 70.3381Z" fill="#FFEAA2"/>
<path d="M45.4688 63.0855C45.0885 63.1858 44.8614 63.5752 44.9617 63.9555C45.062 64.3358 45.4514 64.5628 45.8317 64.4625C46.212 64.3622 46.439 63.9728 46.3388 63.5925C46.2385 63.2122 45.849 62.9852 45.4688 63.0855Z" fill="#FFEAA2"/>
<path d="M42.2667 68.1823C41.9664 68.2614 41.7872 68.5687 41.8664 68.869C41.9455 69.1693 42.2528 69.3484 42.5531 69.2693C42.8534 69.1902 43.0325 68.8829 42.9534 68.5826C42.8746 68.2826 42.5669 68.1031 42.2667 68.1823Z" fill="#FFEAA2"/>
<path d="M44.8001 68.0931C44.6192 68.1408 44.511 68.3261 44.5586 68.5073C44.6063 68.6881 44.7918 68.7964 44.9727 68.7487C45.1536 68.7011 45.2618 68.5155 45.2142 68.3346C45.1665 68.1534 44.981 68.0452 44.8001 68.0931Z" fill="#FFEAA2"/>
<path d="M69.7979 67.5543C69.7979 69.2134 61.5532 69.2134 61.5532 67.5543C61.5532 65.8952 63.3988 64.5502 65.6756 64.5502C67.9523 64.5502 69.7979 65.8952 69.7979 67.5543Z" fill="url(#paint17_linear_343_7717)"/>
<path d="M69.6846 64.0357C71.101 65.3389 71.8455 67.1907 71.3472 68.1715C70.849 69.1524 69.2966 68.8907 67.8802 67.5874C66.4637 66.2842 63.6331 62.513 64.1313 61.5321C64.6299 60.5513 68.2681 62.7321 69.6846 64.0357Z" fill="url(#paint18_linear_343_7717)"/>
<path d="M71.8513 63.8125C72.1642 66.206 71.5054 68.2784 70.3795 68.441C69.2536 68.604 68.0872 66.7954 67.7742 64.4019C67.4613 62.0084 67.6592 56.4113 68.7848 56.2484C69.9107 56.086 71.5381 61.419 71.8513 63.8125Z" fill="url(#paint19_linear_343_7717)"/>
<path d="M79.0143 60.9994C78.6863 60.9832 78.3584 61.0197 78.0405 61.1017C76.0343 61.6197 68.2602 63.9117 68.006 68.3835C67.8434 71.2447 72.5702 72.1294 76.7893 72.3517C80.6419 72.5549 83.9663 70.5011 84.1922 67.7849C84.4452 64.7411 83.7008 61.2326 79.0143 60.9994Z" fill="url(#paint20_linear_343_7717)"/>
<path d="M79.0527 61.0058C78.713 60.9717 78.3715 61.0161 78.0409 61.1014C76.0371 61.6184 68.2592 63.9105 68.0051 68.3834C67.8424 71.2446 72.5692 72.1293 76.7883 72.3517C80.5898 72.5523 83.6027 61.4611 79.0527 61.0058Z" fill="url(#paint21_linear_343_7717)"/>
<path d="M99.2945 73.6988C99.2945 75.3579 91.0498 75.3579 91.0498 73.6988C91.0498 72.0397 92.8954 70.6947 95.1722 70.6947C97.4489 70.6947 99.2945 72.0397 99.2945 73.6988Z" fill="url(#paint22_linear_343_7717)"/>
<path d="M24.3237 100.737C27.1576 105.715 30.6102 110.355 34.6331 114.533C37.6528 117.669 41.5378 119.835 45.7867 120.783C65.294 125.14 85.522 125.14 105.029 120.783C109.278 119.835 113.163 117.669 116.183 114.533C120.205 110.355 123.658 105.714 126.492 100.737H24.3237Z" fill="url(#paint23_linear_343_7717)"/>
<path d="M66.308 123.746C61.8345 123.446 57.3698 122.922 52.9345 122.181C50.5433 121.778 48.1609 121.313 45.7874 120.784C41.5374 119.834 37.6521 117.669 34.6345 114.534C27.5639 107.193 22.2433 98.4281 18.9786 88.9016C18.0668 86.2457 17.3168 83.5281 16.7315 80.7663C16.7315 80.7575 16.7286 80.7457 16.7256 80.734C16.7227 80.7046 16.7168 80.6781 16.7109 80.6487H21.6374C22.9609 80.6487 24.1286 81.2957 24.8521 82.2899L66.308 123.746Z" fill="url(#paint24_linear_343_7717)"/>
<path d="M25.614 84.6249C25.614 86.821 23.8338 88.6013 21.6376 88.6013H9.88023C5.16523 88.6013 1.34229 84.781 1.34229 80.0634C1.34229 77.7072 2.29934 75.5722 3.84405 74.0275C5.38876 72.4802 7.5214 71.5258 9.88023 71.5258H15.4196C15.482 72.3943 15.5626 73.2605 15.6588 74.1211C15.9058 76.3187 16.257 78.4978 16.7093 80.6487H21.6376C23.8338 80.6487 25.614 82.4287 25.614 84.6249Z" fill="url(#paint25_linear_343_7717)"/>
<path d="M16.7094 80.6487H12.6108C10.637 80.6487 9.0376 79.0493 9.0376 77.0755C9.0376 76.2613 9.36789 75.5228 9.90113 74.9872C10.4367 74.4516 11.1729 74.1213 11.9894 74.1213H15.6588C15.9058 76.3184 16.257 78.4978 16.7094 80.6487Z" fill="url(#paint26_linear_343_7717)"/>
<path d="M96.4584 26.6011C96.1049 25.6631 97.0763 24.7858 97.9119 25.2843C100.864 27.0458 105.197 30.6705 105.197 36.7702C105.197 46.0205 94.5787 46.8925 94.5787 53.7446C94.5787 57.2611 95.0225 59.6893 95.4546 61.2205C95.7046 62.1061 94.8411 62.8864 94.0458 62.4914C91.4002 61.1781 87.3311 57.9734 87.3311 50.6849C87.3311 39.8858 97.8611 40.0464 97.8611 34.142C97.8611 31.0584 97.1437 28.4193 96.4584 26.6011Z" fill="url(#paint27_linear_343_7717)"/>
<path d="M79.8267 1.48161C79.5961 1.06867 80.2131 0.692199 80.6267 0.992199C83.4314 3.02749 88.1746 7.33043 88.1746 13.1519C88.1746 21.4169 79.1976 23.7566 78.0014 30.2016C77.0337 35.4151 79.2514 40.4898 80.2681 42.461C80.4446 42.8031 80.0384 43.1499 79.6178 43.0178C76.5246 42.0457 68.2032 38.4434 69.4458 28.0651C70.6496 18.0113 79.6546 18.4704 81.2526 11.9654C82.4005 7.29485 80.9861 3.55779 79.8267 1.48161Z" fill="url(#paint28_linear_343_7717)"/>
<path d="M50.9203 28.7984C50.605 28.0246 51.2656 27.3005 51.9085 27.712C54.1797 29.1655 57.5756 32.1564 57.9388 37.1899C58.4897 44.8228 50.7491 45.5425 51.1574 51.1967C51.3668 54.0981 51.8371 56.102 52.2453 57.3655C52.4815 58.0961 51.8944 58.7402 51.2871 58.4143C49.2674 57.3308 46.0903 54.6864 45.6562 48.672C45.0129 39.7608 52.7503 39.8934 52.3985 35.0211C52.215 32.4767 51.5315 30.2987 50.9203 28.7984Z" fill="url(#paint29_linear_343_7717)"/>
<defs>
<linearGradient id="paint0_linear_343_7717" x1="75.6868" y1="132.851" x2="76.275" y2="142.557" gradientUnits="userSpaceOnUse">
<stop stop-color="#F8F6FB"/>
<stop offset="1" stop-color="#EFDCFB"/>
</linearGradient>
<linearGradient id="paint1_linear_343_7717" x1="70.4804" y1="100.171" x2="82.0354" y2="143.781" gradientUnits="userSpaceOnUse">
<stop stop-color="#F8F6FB"/>
<stop offset="1" stop-color="#EFDCFB"/>
</linearGradient>
<linearGradient id="paint2_linear_343_7717" x1="78.6337" y1="142.691" x2="73.0455" y2="97.985" gradientUnits="userSpaceOnUse">
<stop stop-color="#F8F6FB"/>
<stop offset="1" stop-color="#EFDCFB"/>
</linearGradient>
<linearGradient id="paint3_linear_343_7717" x1="102.079" y1="144.129" x2="37.1777" y2="-13.5178" gradientUnits="userSpaceOnUse">
<stop stop-color="#EFDCFB" stop-opacity="0"/>
<stop offset="0.0287" stop-color="#E9D6F7" stop-opacity="0.029"/>
<stop offset="0.2203" stop-color="#C5B5DE" stop-opacity="0.22"/>
<stop offset="0.4138" stop-color="#AA9BCB" stop-opacity="0.414"/>
<stop offset="0.6078" stop-color="#9688BD" stop-opacity="0.608"/>
<stop offset="0.8028" stop-color="#8A7DB5" stop-opacity="0.803"/>
<stop offset="1" stop-color="#8679B2"/>
</linearGradient>
<linearGradient id="paint4_linear_343_7717" x1="75.7123" y1="119.791" x2="76.2632" y2="128.878" gradientUnits="userSpaceOnUse">
<stop stop-color="#F8F6FB"/>
<stop offset="1" stop-color="#EFDCFB"/>
</linearGradient>
<linearGradient id="paint5_linear_343_7717" x1="137.554" y1="78.8522" x2="136.969" y2="88.4934" gradientUnits="userSpaceOnUse">
<stop stop-color="#F8F6FB"/>
<stop offset="1" stop-color="#EFDCFB"/>
</linearGradient>
<linearGradient id="paint6_linear_343_7717" x1="139.922" y1="80.4155" x2="123.451" y2="79.2019" gradientUnits="userSpaceOnUse">
<stop stop-color="#EFDCFB" stop-opacity="0"/>
<stop offset="0.0287" stop-color="#E9D6F7" stop-opacity="0.029"/>
<stop offset="0.2203" stop-color="#C5B5DE" stop-opacity="0.22"/>
<stop offset="0.4138" stop-color="#AA9BCB" stop-opacity="0.414"/>
<stop offset="0.6078" stop-color="#9688BD" stop-opacity="0.608"/>
<stop offset="0.8028" stop-color="#8A7DB5" stop-opacity="0.803"/>
<stop offset="1" stop-color="#8679B2"/>
</linearGradient>
<linearGradient id="paint7_linear_343_7717" x1="138.562" y1="75.3363" x2="136.222" y2="86.519" gradientUnits="userSpaceOnUse">
<stop stop-color="#EFDCFB" stop-opacity="0"/>
<stop offset="0.0287" stop-color="#E9D6F7" stop-opacity="0.029"/>
<stop offset="0.2203" stop-color="#C5B5DE" stop-opacity="0.22"/>
<stop offset="0.4138" stop-color="#AA9BCB" stop-opacity="0.414"/>
<stop offset="0.6078" stop-color="#9688BD" stop-opacity="0.608"/>
<stop offset="0.8028" stop-color="#8A7DB5" stop-opacity="0.803"/>
<stop offset="1" stop-color="#8679B2"/>
</linearGradient>
<linearGradient id="paint8_linear_343_7717" x1="66.2059" y1="50.3193" x2="98.6897" y2="126.115" gradientUnits="userSpaceOnUse">
<stop stop-color="#F8F6FB"/>
<stop offset="1" stop-color="#EFDCFB"/>
</linearGradient>
<linearGradient id="paint9_linear_343_7717" x1="86.6351" y1="106.569" x2="76.2513" y2="67.8661" gradientUnits="userSpaceOnUse">
<stop stop-color="#F8F6FB"/>
<stop offset="1" stop-color="#EFDCFB"/>
</linearGradient>
<linearGradient id="paint10_linear_343_7717" x1="75.4083" y1="74.831" x2="75.4083" y2="-3.57189" gradientUnits="userSpaceOnUse">
<stop stop-color="#EFDCFB" stop-opacity="0"/>
<stop offset="0.0287" stop-color="#E9D6F7" stop-opacity="0.029"/>
<stop offset="0.2203" stop-color="#C5B5DE" stop-opacity="0.22"/>
<stop offset="0.4138" stop-color="#AA9BCB" stop-opacity="0.414"/>
<stop offset="0.6078" stop-color="#9688BD" stop-opacity="0.608"/>
<stop offset="0.8028" stop-color="#8A7DB5" stop-opacity="0.803"/>
<stop offset="1" stop-color="#8679B2"/>
</linearGradient>
<linearGradient id="paint11_linear_343_7717" x1="75.4076" y1="59.1185" x2="75.4076" y2="84.8661" gradientUnits="userSpaceOnUse">
<stop stop-color="#FFD945"/>
<stop offset="0.3043" stop-color="#FFCD3E"/>
<stop offset="0.8558" stop-color="#FFAD2B"/>
<stop offset="1" stop-color="#FFA325"/>
</linearGradient>
<linearGradient id="paint12_linear_343_7717" x1="76.3596" y1="71.3609" x2="111.26" y2="-21.1836" gradientUnits="userSpaceOnUse">
<stop stop-color="#F82814" stop-opacity="0"/>
<stop offset="1" stop-color="#C0272D"/>
</linearGradient>
<linearGradient id="paint13_linear_343_7717" x1="75.1438" y1="73.3246" x2="70.1161" y2="9.00284" gradientUnits="userSpaceOnUse">
<stop stop-color="#F82814" stop-opacity="0"/>
<stop offset="1" stop-color="#C0272D"/>
</linearGradient>
<linearGradient id="paint14_linear_343_7717" x1="50.1021" y1="70.9785" x2="51.7924" y2="76.0496" gradientUnits="userSpaceOnUse">
<stop stop-color="#FFDECF"/>
<stop offset="0.3791" stop-color="#FDC4B0"/>
<stop offset="0.7655" stop-color="#FBAE97"/>
<stop offset="1" stop-color="#FAA68E"/>
</linearGradient>
<linearGradient id="paint15_linear_343_7717" x1="110.333" y1="66.3581" x2="112.024" y2="71.4293" gradientUnits="userSpaceOnUse">
<stop stop-color="#FFDECF"/>
<stop offset="0.3791" stop-color="#FDC4B0"/>
<stop offset="0.7655" stop-color="#FBAE97"/>
<stop offset="1" stop-color="#FAA68E"/>
</linearGradient>
<linearGradient id="paint16_linear_343_7717" x1="70.321" y1="78.2193" x2="71.536" y2="81.8652" gradientUnits="userSpaceOnUse">
<stop stop-color="#FFDECF"/>
<stop offset="0.3791" stop-color="#FDC4B0"/>
<stop offset="0.7655" stop-color="#FBAE97"/>
<stop offset="1" stop-color="#FAA68E"/>
</linearGradient>
<linearGradient id="paint17_linear_343_7717" x1="64.1456" y1="64.4011" x2="67.0667" y2="70.0096" gradientUnits="userSpaceOnUse">
<stop stop-color="#FF6359"/>
<stop offset="0.2243" stop-color="#FE5B50"/>
<stop offset="0.5952" stop-color="#FC4637"/>
<stop offset="1" stop-color="#F82814"/>
</linearGradient>
<linearGradient id="paint18_linear_343_7717" x1="67.9497" y1="64.1712" x2="66.7622" y2="66.5718" gradientUnits="userSpaceOnUse">
<stop stop-color="#BADA00"/>
<stop offset="0.2269" stop-color="#B0CE00"/>
<stop offset="0.6378" stop-color="#95AE00"/>
<stop offset="1" stop-color="#798C00"/>
</linearGradient>
<linearGradient id="paint19_linear_343_7717" x1="70.4114" y1="62.2135" x2="67.2088" y2="64.7404" gradientUnits="userSpaceOnUse">
<stop stop-color="#BADA00"/>
<stop offset="0.2269" stop-color="#B0CE00"/>
<stop offset="0.6378" stop-color="#95AE00"/>
<stop offset="1" stop-color="#798C00"/>
</linearGradient>
<linearGradient id="paint20_linear_343_7717" x1="75.441" y1="65.047" x2="77.701" y2="72.0323" gradientUnits="userSpaceOnUse">
<stop stop-color="#A57C52"/>
<stop offset="0.1339" stop-color="#A26C4A"/>
<stop offset="0.5155" stop-color="#994336"/>
<stop offset="0.8174" stop-color="#942A2A"/>
<stop offset="1" stop-color="#922125"/>
</linearGradient>
<linearGradient id="paint21_linear_343_7717" x1="73.5715" y1="62.809" x2="77.2124" y2="74.1217" gradientUnits="userSpaceOnUse">
<stop stop-color="#A57C52"/>
<stop offset="0.1339" stop-color="#A26C4A"/>
<stop offset="0.5155" stop-color="#994336"/>
<stop offset="0.8174" stop-color="#942A2A"/>
<stop offset="1" stop-color="#922125"/>
</linearGradient>
<linearGradient id="paint22_linear_343_7717" x1="93.6422" y1="70.5453" x2="96.5633" y2="76.1541" gradientUnits="userSpaceOnUse">
<stop stop-color="#FF6359"/>
<stop offset="0.2243" stop-color="#FE5B50"/>
<stop offset="0.5952" stop-color="#FC4637"/>
<stop offset="1" stop-color="#F82814"/>
</linearGradient>
<linearGradient id="paint23_linear_343_7717" x1="75.4079" y1="109.828" x2="75.4079" y2="144.234" gradientUnits="userSpaceOnUse">
<stop stop-color="#EFDCFB" stop-opacity="0"/>
<stop offset="0.0287" stop-color="#E9D6F7" stop-opacity="0.029"/>
<stop offset="0.2203" stop-color="#C5B5DE" stop-opacity="0.22"/>
<stop offset="0.4138" stop-color="#AA9BCB" stop-opacity="0.414"/>
<stop offset="0.6078" stop-color="#9688BD" stop-opacity="0.608"/>
<stop offset="0.8028" stop-color="#8A7DB5" stop-opacity="0.803"/>
<stop offset="1" stop-color="#8679B2"/>
</linearGradient>
<linearGradient id="paint24_linear_343_7717" x1="37.1251" y1="102.31" x2="-28.3161" y2="72.8981" gradientUnits="userSpaceOnUse">
<stop stop-color="#EFDCFB" stop-opacity="0"/>
<stop offset="0.0287" stop-color="#E9D6F7" stop-opacity="0.029"/>
<stop offset="0.2203" stop-color="#C5B5DE" stop-opacity="0.22"/>
<stop offset="0.4138" stop-color="#AA9BCB" stop-opacity="0.414"/>
<stop offset="0.6078" stop-color="#9688BD" stop-opacity="0.608"/>
<stop offset="0.8028" stop-color="#8A7DB5" stop-opacity="0.803"/>
<stop offset="1" stop-color="#8679B2"/>
</linearGradient>
<linearGradient id="paint25_linear_343_7717" x1="13.2623" y1="78.8522" x2="13.8467" y2="88.4934" gradientUnits="userSpaceOnUse">
<stop stop-color="#F8F6FB"/>
<stop offset="1" stop-color="#EFDCFB"/>
</linearGradient>
<linearGradient id="paint26_linear_343_7717" x1="12.2544" y1="75.3363" x2="14.595" y2="86.519" gradientUnits="userSpaceOnUse">
<stop stop-color="#EFDCFB" stop-opacity="0"/>
<stop offset="0.0287" stop-color="#E9D6F7" stop-opacity="0.029"/>
<stop offset="0.2203" stop-color="#C5B5DE" stop-opacity="0.22"/>
<stop offset="0.4138" stop-color="#AA9BCB" stop-opacity="0.414"/>
<stop offset="0.6078" stop-color="#9688BD" stop-opacity="0.608"/>
<stop offset="0.8028" stop-color="#8A7DB5" stop-opacity="0.803"/>
<stop offset="1" stop-color="#8679B2"/>
</linearGradient>
<linearGradient id="paint27_linear_343_7717" x1="90.5911" y1="41.3211" x2="116.293" y2="53.5531" gradientUnits="userSpaceOnUse">
<stop stop-color="#E87264" stop-opacity="0"/>
<stop offset="1" stop-color="#F8DFBE"/>
</linearGradient>
<linearGradient id="paint28_linear_343_7717" x1="71.6823" y1="19.9975" x2="89.8914" y2="24.2819" gradientUnits="userSpaceOnUse">
<stop stop-color="#E87264" stop-opacity="0"/>
<stop offset="0.1575" stop-color="#E97869" stop-opacity="0.158"/>
<stop offset="0.3778" stop-color="#EC8B78" stop-opacity="0.378"/>
<stop offset="0.6353" stop-color="#F0A991" stop-opacity="0.635"/>
<stop offset="0.9188" stop-color="#F6D2B3" stop-opacity="0.919"/>
<stop offset="1" stop-color="#F8DFBE"/>
</linearGradient>
<linearGradient id="paint29_linear_343_7717" x1="45.8676" y1="40.8243" x2="59.7885" y2="46.2493" gradientUnits="userSpaceOnUse">
<stop stop-color="#E87264" stop-opacity="0"/>
<stop offset="1" stop-color="#F8DFBE"/>
</linearGradient>
</defs>
</svg>
