<svg width="151" height="110" viewBox="0 0 151 110" fill="none" xmlns="http://www.w3.org/2000/svg">
<path d="M75.4996 96.2284C56.9032 96.2284 39.8367 93.7452 26.4688 89.6055C28.392 96.4655 32.0052 101.653 36.4605 103.313C46.5158 107.061 60.2961 109.372 75.4996 109.372C90.7032 109.372 104.483 107.061 114.539 103.313C118.994 101.653 122.607 96.4655 124.531 89.6055C111.163 93.7452 94.0961 96.2284 75.4996 96.2284Z" fill="url(#paint0_linear_343_6912)"/>
<path d="M150.5 76.7749C150.5 111.598 0.5 111.598 0.5 76.7749C0.5 41.9513 150.5 41.9513 150.5 76.7749Z" fill="url(#paint1_linear_343_6912)"/>
<path d="M140.206 74.2211C140.206 99.0485 10.7939 99.0485 10.7939 74.2211C10.7939 49.3937 140.206 49.3937 140.206 74.2211Z" fill="url(#paint2_linear_343_6912)"/>
<path d="M150.5 76.774C150.5 80.5949 148.694 83.9993 145.477 86.9808C129.865 101.459 81.0383 106.055 44.3295 100.774L22.8883 78.274C20.3912 75.8481 18.9824 73.1011 18.9824 70.1908V58.8852C42.0795 50.0952 82.206 48.3481 112.077 53.6414C134.068 57.5364 150.5 65.2464 150.5 76.774Z" fill="url(#paint3_linear_343_6912)"/>
<path d="M148.115 83.9931C147.391 85.0301 146.506 86.0269 145.477 86.9807C140.321 91.7646 131.541 95.4654 120.774 98.0919L113 89.9313C112.638 89.706 112.421 89.419 112.433 89.0734C112.441 88.7216 112.506 88.3852 112.612 88.0704L111.309 86.6352C110.971 86.4375 110.759 86.1813 110.768 85.8666C110.809 84.3913 111.924 83.2154 113.306 83.1319C113.3 83.0981 113.297 83.0672 113.297 83.0331C113.347 81.1999 114.806 79.7584 116.553 79.8107C117.521 79.8416 118.371 80.3263 118.93 81.0637C119.015 81.1346 119.094 81.2087 119.171 81.286C119.468 81.1534 119.794 81.0793 120.138 81.0916C120.338 81.0978 120.527 81.1316 120.709 81.1872C120.65 80.8507 120.615 80.5051 120.615 80.1501C120.615 79.076 120.9 78.076 121.385 77.2119C121.347 77.1563 120.859 76.7181 120.794 76.5081C120.465 76.326 120.259 76.0851 120.268 75.7919C120.283 75.221 120.477 74.6993 120.785 74.2796C120.735 74.1684 120.712 74.051 120.715 73.9278C120.727 73.539 120.797 73.1687 120.918 72.8228L119.48 71.289C119.135 71.079 118.921 70.8137 118.93 70.4866C118.977 68.9001 120.171 67.6378 121.653 67.5484C121.65 67.5145 121.644 67.4804 121.644 67.4434C121.7 65.4743 123.265 63.9281 125.141 63.9834C126.174 64.0172 127.08 64.5328 127.683 65.3137C127.777 65.394 127.865 65.4804 127.95 65.5698C128.271 65.4278 128.621 65.3475 128.991 65.3569C129.777 65.3816 130.462 65.789 130.897 66.4001L132.365 67.931C132.959 68.1501 133.474 68.539 133.865 69.039L148.115 83.9931Z" fill="url(#paint4_linear_343_6912)"/>
<path d="M19.3497 71.8587C20.6226 71.4269 21.7664 70.4375 22.6588 69.0078C25.1538 65.0101 34.9073 61.546 46.7247 60.7975C48.5391 60.6825 52.0144 60.4625 52.015 60.4625C64.5571 59.6681 75.0723 65.0687 75.4874 72.2851C75.9023 79.5016 66.0715 85.9954 53.5291 86.7898C51.2059 86.9369 48.9526 86.8781 46.8206 86.6384C43.5723 86.2734 40.3273 86.5028 37.145 87.2795C35.1856 87.7578 33.055 88.0863 30.8194 88.2281C20.7259 88.8672 12.3176 85.4563 12.0388 80.6095C11.7359 75.3372 16.2841 72.8987 19.3497 71.8587Z" fill="url(#paint5_linear_343_6912)"/>
<path d="M56.0528 91.381C57.4804 91.4104 58.9219 92.0148 60.2204 93.1184C63.8516 96.2045 74.8301 96.5798 87.2201 93.7201C89.1225 93.281 92.7663 92.4401 92.7666 92.4398C105.916 89.4048 115.337 81.0304 113.857 73.9695C112.377 66.9087 100.517 63.6451 87.3675 66.6801C84.9316 67.2422 82.6228 67.9813 80.4863 68.8572C77.2316 70.1916 73.8231 70.954 70.3345 71.1713C68.1866 71.3051 65.9016 71.6345 63.5575 72.1754C52.9751 74.6178 45.2019 80.4422 46.196 85.1842C47.2778 90.3439 52.6148 91.3101 56.0528 91.381Z" fill="url(#paint6_linear_343_6912)"/>
<path d="M75.4869 72.2855C75.0718 65.069 64.5569 59.6684 52.0145 60.4629C52.0139 60.4629 48.5386 60.6829 46.7242 60.7979C34.9066 61.5464 25.1533 65.0105 22.6583 69.0082C21.766 70.4379 20.6221 71.427 19.3492 71.859C19.2848 71.8808 19.2189 71.9043 19.1533 71.9273C19.596 74.194 20.8936 76.3367 22.8877 78.2743L32.2592 88.1087C33.971 87.9358 35.611 87.6546 37.1448 87.2802C40.3271 86.5034 43.5721 86.274 46.8204 86.639C48.9524 86.8784 51.2054 86.9376 53.5289 86.7905C66.071 85.9958 75.9019 79.502 75.4869 72.2855Z" fill="url(#paint7_linear_343_6912)"/>
<path d="M131.389 68.0279C131.349 69.4599 126.408 69.3079 126.448 67.8758C126.488 66.4438 127.626 65.317 128.991 65.3591C130.355 65.4011 131.429 66.5958 131.389 68.0279Z" fill="url(#paint8_linear_343_6912)"/>
<path d="M134.631 71.3944C134.576 73.3623 127.784 73.1535 127.839 71.1853C127.894 69.2173 129.459 67.6685 131.334 67.7264C133.21 67.7841 134.686 69.4264 134.631 71.3944Z" fill="url(#paint9_linear_343_6912)"/>
<path d="M128.436 67.6532C128.381 69.6211 121.59 69.4123 121.645 67.4441C121.7 65.4761 123.265 63.9273 125.14 63.9852C127.016 64.0429 128.492 65.6849 128.436 67.6532Z" fill="url(#paint10_linear_343_6912)"/>
<path d="M129.151 70.6838C129.106 72.3185 123.464 72.1449 123.51 70.5102C123.556 68.8755 124.856 67.5891 126.413 67.6373C127.971 67.6852 129.197 69.0491 129.151 70.6838Z" fill="url(#paint11_linear_343_6912)"/>
<path d="M131.509 73.0479C131.467 74.5499 126.283 74.3902 126.325 72.8885C126.368 71.3864 127.562 70.2046 128.993 70.2488C130.425 70.2926 131.551 71.5461 131.509 73.0479Z" fill="url(#paint12_linear_343_6912)"/>
<path d="M124.709 70.6654C124.663 72.3398 118.884 72.1622 118.931 70.4875C118.978 68.8128 120.309 67.4954 121.905 67.5445C123.501 67.5937 124.756 68.991 124.709 70.6654Z" fill="url(#paint13_linear_343_6912)"/>
<path d="M127.507 74.1368C127.452 76.1047 120.66 75.8959 120.715 73.9277C120.77 71.9597 122.335 70.4109 124.21 70.4689C126.086 70.5265 127.562 72.1689 127.507 74.1368Z" fill="url(#paint14_linear_343_6912)"/>
<path d="M125.209 75.9438C125.169 77.3758 120.227 77.2238 120.267 75.7917C120.307 74.3597 121.446 73.2329 122.81 73.2749C124.175 73.317 125.249 74.512 125.209 75.9438Z" fill="url(#paint15_linear_343_6912)"/>
<path d="M18.9817 70.1894C18.9817 80.005 34.9953 87.9618 54.7488 87.9618C58.4079 87.9618 61.9382 87.6885 65.2623 87.1809C70.3267 86.4077 75.4397 86.44 80.5038 87.2194C83.6217 87.6994 86.995 87.9618 90.5159 87.9618C106.413 87.9618 119.3 82.6177 119.3 76.0253C119.3 75.9838 119.3 63.238 119.3 63.1947C119.3 56.023 111.942 53.1085 107.038 51.9624C105.001 51.4865 103.117 50.2438 101.587 48.383C97.3112 43.1794 81.6929 39.3218 63.0806 39.3218C60.2229 39.3218 54.7494 39.3218 54.7485 39.3218C34.995 39.3218 18.9814 47.5433 18.9814 57.3588C18.9817 57.4009 18.9817 70.1474 18.9817 70.1894Z" fill="url(#paint16_linear_343_6912)"/>
<path d="M107.038 51.9624C105.002 51.4865 103.117 50.2438 101.588 48.383C97.3121 43.1794 81.6939 39.3218 63.0815 39.3218C60.2239 39.3218 54.7504 39.3218 54.7495 39.3218C34.996 39.3218 18.9824 47.5432 18.9824 57.3588C18.9824 67.1744 34.996 75.1315 54.7495 75.1315C58.4086 75.1315 61.9389 74.8582 65.263 74.3506C70.3274 73.5774 75.4404 73.6097 80.5045 74.3891C83.6224 74.8691 86.9957 75.1315 90.5165 75.1315C106.413 75.1315 119.3 69.7874 119.3 63.195C119.3 56.0229 111.943 53.1085 107.038 51.9624Z" fill="url(#paint17_linear_343_6912)"/>
<path d="M119.3 63.1952C119.3 69.7879 106.411 75.1305 90.5143 75.1305C86.9937 75.1305 83.6201 74.8682 80.5025 74.3897C75.4407 73.6088 70.326 73.5779 65.2613 74.3497C61.9378 74.8591 58.4084 75.1305 54.7495 75.1305C49.829 75.1305 45.1378 74.6367 40.8701 73.7447C32.1495 71.9176 25.1907 68.4238 21.6172 64.0655C33.4084 57.2261 48.5495 49.4329 65.3172 41.7508C66.9731 40.9914 68.6172 40.2479 70.2495 39.5161C83.9084 40.2661 95.1231 43.1211 100.05 46.9235C100.661 47.3958 101.176 47.8835 101.588 48.3835C103.117 50.2446 105 51.4852 107.038 51.9638C111.944 53.1088 119.3 56.0223 119.3 63.1952Z" fill="url(#paint18_linear_343_6912)"/>
<path d="M119.299 63.1953C119.299 69.788 106.411 75.1306 90.5141 75.1306C86.9935 75.1306 83.62 74.8683 80.5024 74.3897C76.1759 73.723 71.8082 73.6027 67.47 74.0656C66.7318 74.1427 65.9965 74.2386 65.2612 74.3494C61.9377 74.8589 58.4082 75.1303 54.7494 75.1303C49.8288 75.1303 45.1377 74.6365 40.87 73.7444C37.7024 73.0809 34.77 72.1983 32.1494 71.1333C44.1229 64.1056 59.7818 56.0097 77.1906 48.0344C81.4641 46.0777 85.673 44.2041 89.7818 42.4294C94.2641 43.6609 97.8083 45.1947 100.049 46.9233C100.661 47.3956 101.176 47.8833 101.588 48.3833C103.117 50.2444 104.999 51.485 107.038 51.9636C108.417 52.2877 109.991 52.7474 111.541 53.405H111.544C115.502 55.0871 119.299 58.0409 119.299 63.1953Z" fill="url(#paint19_linear_343_6912)"/>
<path d="M119.299 63.1952C119.299 69.6705 106.867 74.939 91.3609 75.1243C91.0786 75.1272 90.7962 75.1305 90.5139 75.1305C86.9933 75.1305 83.6198 74.8681 80.5021 74.3896C76.1756 73.7228 71.808 73.6025 67.4698 74.0655C66.7315 74.1425 65.9962 74.2384 65.2609 74.3493C61.9374 74.8587 58.408 75.1302 54.7492 75.1302C52.6051 75.1302 50.5021 75.0375 48.458 74.8587C59.7551 68.4575 73.7286 61.3402 89.0639 54.3155C93.3904 52.334 97.6521 50.439 101.808 48.6458C103.296 50.3619 105.096 51.5069 107.037 51.9637C108.417 52.2878 109.99 52.7475 111.54 53.4052H111.543C115.143 54.936 118.611 57.5163 119.208 61.8528C119.267 62.2816 119.299 62.729 119.299 63.1952Z" fill="url(#paint20_linear_343_6912)"/>
<path d="M119.3 63.1952C119.3 69.6705 106.867 74.9391 91.3613 75.1243C91.0789 75.1273 90.7966 75.1305 90.5142 75.1305C86.9936 75.1305 83.6201 74.8682 80.5025 74.3896C78.2995 74.0502 76.0848 73.8526 73.8701 73.8032C82.1319 69.5008 91.2642 65.0317 100.938 60.5993C105.423 58.5438 109.835 56.5841 114.135 54.7352C116.676 56.3123 118.758 58.5841 119.208 61.8526C119.267 62.2817 119.3 62.7291 119.3 63.1952Z" fill="url(#paint21_linear_343_6912)"/>
<path d="M117.944 66.8225C114.877 70.8195 106.862 73.9028 96.8854 74.8381C94.8354 75.0295 92.703 75.1313 90.5148 75.1313C86.9942 75.1313 83.6207 74.8689 80.503 74.3904C75.4412 73.6095 70.3265 73.5786 65.2618 74.3504C61.9383 74.8598 58.4089 75.1313 54.7501 75.1313C34.9942 75.1313 18.9824 67.1745 18.9824 57.3598C18.9824 52.3104 23.2207 47.6807 30.0295 44.3783C36.4501 41.261 45.1589 39.3228 54.7501 39.3228H63.0824C63.4648 39.3228 63.8501 39.3257 64.2295 39.3289C66.0001 40.1189 67.7883 40.9278 69.5854 41.7519C88.653 50.486 105.618 59.3657 117.944 66.8225Z" fill="url(#paint22_linear_343_6912)"/>
<path d="M106.218 73.1982C103.409 73.9605 100.259 74.5223 96.8854 74.837C94.8354 75.0285 92.703 75.1302 90.5148 75.1302C86.9942 75.1302 83.6207 74.8679 80.503 74.3893C76.1648 73.7196 71.7913 73.6023 67.4412 74.0685C66.7118 74.1455 65.9883 74.2382 65.2618 74.3493C61.9383 74.8588 58.4089 75.1302 54.7501 75.1302C34.9942 75.1302 18.9824 67.1735 18.9824 57.3588C18.9824 55.4946 19.5618 53.6858 20.6354 51.9791C22.4648 49.0685 25.7354 46.4605 30.0295 44.3773C33.2089 42.8311 36.956 41.5779 41.0912 40.7043C46.4618 42.9791 52.0295 45.4296 57.7118 48.0346C76.856 56.8064 93.8765 65.7199 106.218 73.1982Z" fill="url(#paint23_linear_343_6912)"/>
<path d="M86.7442 75.0286C84.5765 74.9112 82.4883 74.6954 80.503 74.3898C76.1648 73.7201 71.7912 73.6027 67.4412 74.0689C66.7118 74.146 65.9883 74.2386 65.2618 74.3498C61.9383 74.8592 58.4089 75.1307 54.7501 75.1307C49.5354 75.1307 44.5795 74.5751 40.1118 73.5812C32.6795 71.9207 26.5942 69.038 22.8942 65.4515C20.3942 63.0224 18.9824 60.2724 18.9824 57.3589C18.9824 55.4948 19.5618 53.6859 20.6354 51.9792C22.003 49.8001 24.1795 47.7939 26.9883 46.0471C33.0442 48.5809 39.3648 51.3495 45.8383 54.3157C61.3089 61.4021 75.3971 68.5842 86.7442 75.0286Z" fill="url(#paint24_linear_343_6912)"/>
<path d="M62.7236 74.6858C60.1589 74.979 57.4912 75.1302 54.7501 75.1302C49.5354 75.1302 44.5795 74.5746 40.1118 73.5808C32.6795 71.9202 26.5942 69.0376 22.8942 65.4511C20.3942 63.022 18.9824 60.272 18.9824 57.3584C18.9824 56.2876 19.1736 55.2349 19.5412 54.2073C24.2295 56.2135 29.053 58.3493 33.9648 60.5993C44.303 65.337 54.0236 70.1149 62.7236 74.6858Z" fill="url(#paint25_linear_343_6912)"/>
<path d="M96.8846 74.8371C98.7575 74.6615 100.561 74.4101 102.276 74.0912L75.114 45.5877C74.2778 44.4912 72.9202 43.7383 70.7896 43.6615C70.5566 43.653 70.324 43.678 70.0981 43.7374C68.3234 44.2042 59.901 46.6768 59.6331 51.6301C59.5816 52.5789 60.0069 53.3254 60.7446 53.9121L80.2193 74.3486C80.3137 74.3627 80.4081 74.3751 80.5022 74.3895C83.6199 74.868 86.9934 75.1304 90.514 75.1304C92.7022 75.1304 94.8346 75.0286 96.8846 74.8371Z" fill="url(#paint26_linear_343_6912)"/>
<path d="M63.7762 47.0974C65.1033 48.4898 65.1033 50.7474 63.7762 52.1401C62.4491 53.5327 60.298 53.5324 58.9709 52.1401C57.6438 50.7477 55.69 46.4395 57.0168 45.0468C58.3436 43.6542 62.4491 45.7051 63.7762 47.0974Z" fill="url(#paint27_linear_343_6912)"/>
<path d="M66.1819 47.0891C66.2416 49.2964 65.2716 51.1162 64.0154 51.1538C62.7592 51.1912 61.6924 49.432 61.6327 47.2247C61.573 45.0173 62.4551 39.9467 63.7113 39.9094C64.9674 39.872 66.1222 44.8817 66.1819 47.0891Z" fill="url(#paint28_linear_343_6912)"/>
<path d="M70.7906 43.6617C70.5576 43.6535 70.325 43.6782 70.0991 43.7376C68.3244 44.2043 59.902 46.677 59.6341 51.6302C59.467 54.7152 64.3235 55.6691 68.6585 55.9088C72.617 56.1279 76.0326 53.9135 76.2647 50.9849C76.5273 47.6682 75.7435 43.8399 70.7906 43.6617Z" fill="url(#paint29_linear_343_6912)"/>
<path d="M70.7906 43.6617C70.5576 43.6535 70.325 43.6782 70.0991 43.7376C68.3244 44.2043 59.902 46.677 59.6341 51.6302C59.467 54.7152 64.3235 55.6691 68.6585 55.9088C72.617 56.1276 75.7435 43.8399 70.7906 43.6617Z" fill="url(#paint30_linear_343_6912)"/>
<path d="M133.112 66.2117C131.785 67.894 131.785 70.6217 133.112 72.304C134.44 73.9864 136.591 73.9864 137.918 72.304C139.245 70.6217 141.199 65.4167 139.872 63.7343C138.545 62.0519 134.439 64.5293 133.112 66.2117Z" fill="url(#paint31_linear_343_6912)"/>
<path d="M130.707 66.2016C130.647 68.8684 131.617 71.0672 132.873 71.1122C134.129 71.1575 135.196 69.0322 135.256 66.3652C135.316 63.6984 134.433 57.5725 133.177 57.5272C131.921 57.4819 130.766 63.5346 130.707 66.2016Z" fill="url(#paint32_linear_343_6912)"/>
<path d="M132.296 81.4726C135.342 81.4726 137.811 78.8816 137.811 75.6855C137.811 72.4894 135.342 69.8984 132.296 69.8984C129.25 69.8984 126.781 72.4894 126.781 75.6855C126.781 78.8816 129.25 81.4726 132.296 81.4726Z" fill="url(#paint33_linear_343_6912)"/>
<path d="M132.947 72.6761C133.705 72.6761 134.32 72.181 134.32 71.5702C134.32 70.9595 133.705 70.4644 132.947 70.4644C132.189 70.4644 131.574 70.9595 131.574 71.5702C131.574 72.181 132.189 72.6761 132.947 72.6761Z" fill="url(#paint34_linear_343_6912)"/>
<path d="M130.704 73.4219C130.981 73.4219 131.206 73.1858 131.206 72.8945C131.206 72.6033 130.981 72.3672 130.704 72.3672C130.426 72.3672 130.201 72.6033 130.201 72.8945C130.201 73.1858 130.426 73.4219 130.704 73.4219Z" fill="url(#paint35_linear_343_6912)"/>
<path d="M132.947 75.0618C133.224 75.0618 133.449 74.8257 133.449 74.5344C133.449 74.2432 133.224 74.0071 132.947 74.0071C132.669 74.0071 132.444 74.2432 132.444 74.5344C132.444 74.8257 132.669 75.0618 132.947 75.0618Z" fill="url(#paint36_linear_343_6912)"/>
<path d="M126.131 85.9394C129.177 85.9394 131.646 83.3484 131.646 80.1523C131.646 76.9562 129.177 74.3652 126.131 74.3652C123.085 74.3652 120.616 76.9562 120.616 80.1523C120.616 83.3484 123.085 85.9394 126.131 85.9394Z" fill="url(#paint37_linear_343_6912)"/>
<path d="M126.782 77.1428C127.54 77.1428 128.154 76.6477 128.154 76.0369C128.154 75.4262 127.54 74.931 126.782 74.931C126.024 74.931 125.409 75.4262 125.409 76.0369C125.409 76.6477 126.024 77.1428 126.782 77.1428Z" fill="url(#paint38_linear_343_6912)"/>
<path d="M124.538 77.8891C124.816 77.8891 125.041 77.653 125.041 77.3617C125.041 77.0705 124.816 76.8344 124.538 76.8344C124.261 76.8344 124.036 77.0705 124.036 77.3617C124.036 77.653 124.261 77.8891 124.538 77.8891Z" fill="url(#paint39_linear_343_6912)"/>
<path d="M126.782 79.5285C127.059 79.5285 127.284 79.2924 127.284 79.0011C127.284 78.7099 127.059 78.4738 126.782 78.4738C126.504 78.4738 126.279 78.7099 126.279 79.0011C126.279 79.2924 126.504 79.5285 126.782 79.5285Z" fill="url(#paint40_linear_343_6912)"/>
<path d="M120.43 98.1756C118.927 98.5367 117.386 98.8794 115.815 99.1941L107.2 90.1541C106.874 89.9782 106.671 89.7497 106.677 89.4659C106.715 88.1294 107.777 87.08 109.047 87.1203C109.783 87.1417 110.427 87.5276 110.833 88.105L120.43 98.1756Z" fill="url(#paint41_linear_343_6912)"/>
<path d="M122.373 83.5767C122.336 84.9105 117.732 84.7691 117.77 83.435C117.807 82.1008 118.868 81.0514 120.139 81.0905C121.41 81.1297 122.41 82.2429 122.373 83.5767Z" fill="url(#paint42_linear_343_6912)"/>
<path d="M125.392 86.7129C125.341 88.5461 119.015 88.3514 119.066 86.5182C119.117 84.685 120.575 83.2423 122.322 83.2961C124.069 83.3497 125.444 84.8797 125.392 86.7129Z" fill="url(#paint43_linear_343_6912)"/>
<path d="M119.623 83.2279C119.572 85.0611 113.245 84.8664 113.296 83.0332C113.347 81.2 114.805 79.7573 116.552 79.8112C118.299 79.8647 119.674 81.3947 119.623 83.2279Z" fill="url(#paint44_linear_343_6912)"/>
<path d="M120.288 86.0508C120.246 87.5735 114.991 87.4117 115.033 85.8891C115.076 84.3664 116.287 83.1682 117.738 83.2129C119.189 83.2576 120.331 84.5282 120.288 86.0508Z" fill="url(#paint45_linear_343_6912)"/>
<path d="M111.28 89.6059C111.243 90.9397 106.64 90.7982 106.677 89.4641C106.714 88.1303 107.775 87.0806 109.046 87.1197C110.317 87.1588 111.318 88.2721 111.28 89.6059Z" fill="url(#paint46_linear_343_6912)"/>
<path d="M122.486 88.2533C122.447 89.6524 117.618 89.5039 117.657 88.1048C117.697 86.7056 118.809 85.6048 120.142 85.6456C121.476 85.6865 122.525 86.8542 122.486 88.2533Z" fill="url(#paint47_linear_343_6912)"/>
<path d="M116.15 86.034C116.107 87.5937 110.724 87.4281 110.768 85.8684C110.811 84.3087 112.052 83.0814 113.538 83.127C115.025 83.1726 116.194 84.474 116.15 86.034Z" fill="url(#paint48_linear_343_6912)"/>
<path d="M118.756 89.2673C118.705 91.1006 112.379 90.9059 112.43 89.0726C112.481 87.2394 113.939 85.7968 115.686 85.8506C117.433 85.9044 118.808 87.4341 118.756 89.2673Z" fill="url(#paint49_linear_343_6912)"/>
<path d="M93.6108 25.8922C93.2572 24.9543 94.2287 24.0769 95.0643 24.5754C98.016 26.3369 102.349 29.9616 102.349 36.0613C102.349 45.3116 91.731 46.1837 91.731 53.0357C91.731 56.5522 92.1749 58.9805 92.6069 60.5116C92.8569 61.3972 91.9934 62.1775 91.1981 61.7825C88.5525 60.4693 84.4834 57.2646 84.4834 49.976C84.4834 39.1769 95.0134 39.3375 95.0134 33.4331C95.0134 30.3496 94.2961 27.7104 93.6108 25.8922Z" fill="url(#paint50_linear_343_6912)"/>
<path d="M67.3638 0.772871C67.1332 0.35993 67.7503 -0.0165408 68.1638 0.283459C70.9685 2.31875 75.7117 6.62169 75.7117 12.4432C75.7117 20.7082 66.7347 23.0479 65.5385 29.4929C64.5708 34.7064 66.7885 39.7811 67.8053 41.7523C67.9817 42.0943 67.5756 42.4411 67.155 42.3091C64.0617 41.337 55.7403 37.7346 56.9829 27.3564C58.1867 17.3026 67.1917 17.7617 68.7897 11.2567C69.9379 6.58611 68.5232 2.84905 67.3638 0.772871Z" fill="url(#paint51_linear_343_6912)"/>
<path d="M43.8676 28.0896C43.5523 27.3157 44.2129 26.5916 44.8558 27.0031C47.127 28.4566 50.5229 31.4475 50.8861 36.481C51.437 44.114 43.6964 44.8337 44.1046 50.4878C44.314 53.3893 44.7843 55.3931 45.1926 56.6566C45.4287 57.3872 44.8417 58.0313 44.2343 57.7054C42.2146 56.6219 39.0376 53.9775 38.6034 47.9631C37.9602 39.0519 45.6976 39.1846 45.3458 34.3122C45.1623 31.7678 44.4787 29.5899 43.8676 28.0896Z" fill="url(#paint52_linear_343_6912)"/>
<defs>
<linearGradient id="paint0_linear_343_6912" x1="75.909" y1="96.359" x2="76.6637" y2="108.814" gradientUnits="userSpaceOnUse">
<stop stop-color="#F8F6FB"/>
<stop offset="1" stop-color="#EFDCFB"/>
</linearGradient>
<linearGradient id="paint1_linear_343_6912" x1="69.6735" y1="54.7849" x2="83.3368" y2="106.353" gradientUnits="userSpaceOnUse">
<stop stop-color="#F8F6FB"/>
<stop offset="1" stop-color="#EFDCFB"/>
</linearGradient>
<linearGradient id="paint2_linear_343_6912" x1="79.5895" y1="106.938" x2="72.5054" y2="50.2655" gradientUnits="userSpaceOnUse">
<stop stop-color="#F8F6FB"/>
<stop offset="1" stop-color="#EFDCFB"/>
</linearGradient>
<linearGradient id="paint3_linear_343_6912" x1="91.1427" y1="93.572" x2="68.8139" y2="22.7628" gradientUnits="userSpaceOnUse">
<stop stop-color="#EFDCFB" stop-opacity="0"/>
<stop offset="0.0287" stop-color="#E9D6F7" stop-opacity="0.029"/>
<stop offset="0.2203" stop-color="#C5B5DE" stop-opacity="0.22"/>
<stop offset="0.4138" stop-color="#AA9BCB" stop-opacity="0.414"/>
<stop offset="0.6078" stop-color="#9688BD" stop-opacity="0.608"/>
<stop offset="0.8028" stop-color="#8A7DB5" stop-opacity="0.803"/>
<stop offset="1" stop-color="#8679B2"/>
</linearGradient>
<linearGradient id="paint4_linear_343_6912" x1="132.517" y1="91.8625" x2="115.982" y2="55.016" gradientUnits="userSpaceOnUse">
<stop stop-color="#EFDCFB" stop-opacity="0"/>
<stop offset="0.0287" stop-color="#E9D6F7" stop-opacity="0.029"/>
<stop offset="0.2203" stop-color="#C5B5DE" stop-opacity="0.22"/>
<stop offset="0.4138" stop-color="#AA9BCB" stop-opacity="0.414"/>
<stop offset="0.6078" stop-color="#9688BD" stop-opacity="0.608"/>
<stop offset="0.8028" stop-color="#8A7DB5" stop-opacity="0.803"/>
<stop offset="1" stop-color="#8679B2"/>
</linearGradient>
<linearGradient id="paint5_linear_343_6912" x1="36.8663" y1="64.1776" x2="51.5591" y2="89.6206" gradientUnits="userSpaceOnUse">
<stop stop-color="#FFD945"/>
<stop offset="0.3043" stop-color="#FFCD3E"/>
<stop offset="0.8558" stop-color="#FFAD2B"/>
<stop offset="1" stop-color="#FFA325"/>
</linearGradient>
<linearGradient id="paint6_linear_343_6912" x1="80.5042" y1="85.8542" x2="81.6396" y2="97.82" gradientUnits="userSpaceOnUse">
<stop stop-color="#FFD945"/>
<stop offset="0.3043" stop-color="#FFCD3E"/>
<stop offset="0.8558" stop-color="#FFAD2B"/>
<stop offset="1" stop-color="#FFA325"/>
</linearGradient>
<linearGradient id="paint7_linear_343_6912" x1="58.6604" y1="83.4826" x2="30.9477" y2="55.7696" gradientUnits="userSpaceOnUse">
<stop stop-color="#F82814" stop-opacity="0"/>
<stop offset="1" stop-color="#C0272D"/>
</linearGradient>
<linearGradient id="paint8_linear_343_6912" x1="128.309" y1="66.3358" x2="129.737" y2="69.5199" gradientUnits="userSpaceOnUse">
<stop stop-color="#FFD945"/>
<stop offset="0.3043" stop-color="#FFCD3E"/>
<stop offset="0.8558" stop-color="#FFAD2B"/>
<stop offset="1" stop-color="#FFA325"/>
</linearGradient>
<linearGradient id="paint9_linear_343_6912" x1="130.397" y1="69.0691" x2="132.359" y2="73.445" gradientUnits="userSpaceOnUse">
<stop stop-color="#BADA00"/>
<stop offset="0.2269" stop-color="#B0CE00"/>
<stop offset="0.6378" stop-color="#95AE00"/>
<stop offset="1" stop-color="#798C00"/>
</linearGradient>
<linearGradient id="paint10_linear_343_6912" x1="124.203" y1="65.3279" x2="126.165" y2="69.7035" gradientUnits="userSpaceOnUse">
<stop stop-color="#BADA00"/>
<stop offset="0.2269" stop-color="#B0CE00"/>
<stop offset="0.6378" stop-color="#95AE00"/>
<stop offset="1" stop-color="#798C00"/>
</linearGradient>
<linearGradient id="paint11_linear_343_6912" x1="125.635" y1="68.7523" x2="127.265" y2="72.387" gradientUnits="userSpaceOnUse">
<stop stop-color="#FFA936"/>
<stop offset="0.4112" stop-color="#FF8548"/>
<stop offset="0.7781" stop-color="#FF6C54"/>
<stop offset="1" stop-color="#FF6359"/>
</linearGradient>
<linearGradient id="paint12_linear_343_6912" x1="128.278" y1="71.2735" x2="129.775" y2="74.6129" gradientUnits="userSpaceOnUse">
<stop stop-color="#FFD945"/>
<stop offset="0.3043" stop-color="#FFCD3E"/>
<stop offset="0.8558" stop-color="#FFAD2B"/>
<stop offset="1" stop-color="#FFA325"/>
</linearGradient>
<linearGradient id="paint13_linear_343_6912" x1="121.108" y1="68.6869" x2="122.777" y2="72.4101" gradientUnits="userSpaceOnUse">
<stop stop-color="#FFD945"/>
<stop offset="0.3043" stop-color="#FFCD3E"/>
<stop offset="0.8558" stop-color="#FFAD2B"/>
<stop offset="1" stop-color="#FFA325"/>
</linearGradient>
<linearGradient id="paint14_linear_343_6912" x1="123.274" y1="71.8115" x2="125.235" y2="76.1874" gradientUnits="userSpaceOnUse">
<stop stop-color="#BADA00"/>
<stop offset="0.2269" stop-color="#B0CE00"/>
<stop offset="0.6378" stop-color="#95AE00"/>
<stop offset="1" stop-color="#798C00"/>
</linearGradient>
<linearGradient id="paint15_linear_343_6912" x1="122.129" y1="74.252" x2="123.556" y2="77.4358" gradientUnits="userSpaceOnUse">
<stop stop-color="#FFD945"/>
<stop offset="0.3043" stop-color="#FFCD3E"/>
<stop offset="0.8558" stop-color="#FFAD2B"/>
<stop offset="1" stop-color="#FFA325"/>
</linearGradient>
<linearGradient id="paint16_linear_343_6912" x1="61.4223" y1="46.8121" x2="88.2303" y2="115.746" gradientUnits="userSpaceOnUse">
<stop stop-color="#A57C52"/>
<stop offset="0.1339" stop-color="#A26C4A"/>
<stop offset="0.5155" stop-color="#994336"/>
<stop offset="0.8174" stop-color="#942A2A"/>
<stop offset="1" stop-color="#922125"/>
</linearGradient>
<linearGradient id="paint17_linear_343_6912" x1="63.6062" y1="33.2618" x2="80.5107" y2="115.637" gradientUnits="userSpaceOnUse">
<stop stop-color="#A57C52"/>
<stop offset="0.1339" stop-color="#A26C4A"/>
<stop offset="0.5155" stop-color="#994336"/>
<stop offset="0.8174" stop-color="#942A2A"/>
<stop offset="1" stop-color="#922125"/>
</linearGradient>
<linearGradient id="paint18_linear_343_6912" x1="69.5392" y1="56.307" x2="46.3495" y2="-120.148" gradientUnits="userSpaceOnUse">
<stop stop-color="#42210B" stop-opacity="0"/>
<stop offset="1" stop-color="#42210B"/>
</linearGradient>
<linearGradient id="paint19_linear_343_6912" x1="74.5729" y1="61.5965" x2="34.0327" y2="-114.845" gradientUnits="userSpaceOnUse">
<stop stop-color="#42210B" stop-opacity="0"/>
<stop offset="1" stop-color="#42210B"/>
</linearGradient>
<linearGradient id="paint20_linear_343_6912" x1="83.4318" y1="65.8681" x2="57.5021" y2="-94.3396" gradientUnits="userSpaceOnUse">
<stop stop-color="#42210B" stop-opacity="0"/>
<stop offset="1" stop-color="#42210B"/>
</linearGradient>
<linearGradient id="paint21_linear_343_6912" x1="97.3263" y1="72.7585" x2="81.9589" y2="-23.6374" gradientUnits="userSpaceOnUse">
<stop stop-color="#42210B" stop-opacity="0"/>
<stop offset="1" stop-color="#42210B"/>
</linearGradient>
<linearGradient id="paint22_linear_343_6912" x1="75.1857" y1="50.8813" x2="119.915" y2="-13.662" gradientUnits="userSpaceOnUse">
<stop stop-color="#42210B" stop-opacity="0"/>
<stop offset="1" stop-color="#42210B"/>
</linearGradient>
<linearGradient id="paint23_linear_343_6912" x1="65.7348" y1="60.1138" x2="138.712" y2="-7.0092" gradientUnits="userSpaceOnUse">
<stop stop-color="#42210B" stop-opacity="0"/>
<stop offset="1" stop-color="#42210B"/>
</linearGradient>
<linearGradient id="paint24_linear_343_6912" x1="52.9451" y1="64.6165" x2="95.6474" y2="0.562704" gradientUnits="userSpaceOnUse">
<stop stop-color="#42210B" stop-opacity="0"/>
<stop offset="1" stop-color="#42210B"/>
</linearGradient>
<linearGradient id="paint25_linear_343_6912" x1="39.7154" y1="66.3793" x2="79.9886" y2="11.4608" gradientUnits="userSpaceOnUse">
<stop stop-color="#42210B" stop-opacity="0"/>
<stop offset="1" stop-color="#42210B"/>
</linearGradient>
<linearGradient id="paint26_linear_343_6912" x1="81.6652" y1="64.243" x2="47.7305" y2="23.9018" gradientUnits="userSpaceOnUse">
<stop stop-color="#42210B" stop-opacity="0"/>
<stop offset="1" stop-color="#42210B"/>
</linearGradient>
<linearGradient id="paint27_linear_343_6912" x1="57.6614" y1="49.4934" x2="63.84" y2="47.8675" gradientUnits="userSpaceOnUse">
<stop stop-color="#BADA00"/>
<stop offset="0.2269" stop-color="#B0CE00"/>
<stop offset="0.6378" stop-color="#95AE00"/>
<stop offset="1" stop-color="#798C00"/>
</linearGradient>
<linearGradient id="paint28_linear_343_6912" x1="62.1079" y1="44.022" x2="66.6572" y2="45.4617" gradientUnits="userSpaceOnUse">
<stop stop-color="#BADA00"/>
<stop offset="0.2269" stop-color="#B0CE00"/>
<stop offset="0.6378" stop-color="#95AE00"/>
<stop offset="1" stop-color="#798C00"/>
</linearGradient>
<linearGradient id="paint29_linear_343_6912" x1="67.2376" y1="48.0093" x2="69.6629" y2="55.5058" gradientUnits="userSpaceOnUse">
<stop stop-color="#FFD945"/>
<stop offset="0.3043" stop-color="#FFCD3E"/>
<stop offset="0.8558" stop-color="#FFAD2B"/>
<stop offset="1" stop-color="#FFA325"/>
</linearGradient>
<linearGradient id="paint30_linear_343_6912" x1="66.8973" y1="49.6429" x2="75.8626" y2="61.3555" gradientUnits="userSpaceOnUse">
<stop stop-color="#FFD945"/>
<stop offset="0.3043" stop-color="#FFCD3E"/>
<stop offset="0.8558" stop-color="#FFAD2B"/>
<stop offset="1" stop-color="#FFA325"/>
</linearGradient>
<linearGradient id="paint31_linear_343_6912" x1="135.835" y1="66.6149" x2="137.841" y2="71.244" gradientUnits="userSpaceOnUse">
<stop stop-color="#BADA00"/>
<stop offset="0.2269" stop-color="#B0CE00"/>
<stop offset="0.6378" stop-color="#95AE00"/>
<stop offset="1" stop-color="#798C00"/>
</linearGradient>
<linearGradient id="paint32_linear_343_6912" x1="132.228" y1="63.8778" x2="136.049" y2="66.2719" gradientUnits="userSpaceOnUse">
<stop stop-color="#BADA00"/>
<stop offset="0.2269" stop-color="#B0CE00"/>
<stop offset="0.6378" stop-color="#95AE00"/>
<stop offset="1" stop-color="#798C00"/>
</linearGradient>
<linearGradient id="paint33_linear_343_6912" x1="130.858" y1="74.2476" x2="135.889" y2="79.2787" gradientUnits="userSpaceOnUse">
<stop stop-color="#FF6359"/>
<stop offset="0.2243" stop-color="#FE5B50"/>
<stop offset="0.5952" stop-color="#FC4637"/>
<stop offset="1" stop-color="#F82814"/>
</linearGradient>
<linearGradient id="paint34_linear_343_6912" x1="134.137" y1="74.1876" x2="131.595" y2="68.5967" gradientUnits="userSpaceOnUse">
<stop stop-color="#FF6359"/>
<stop offset="0.2243" stop-color="#FE5B50"/>
<stop offset="0.5952" stop-color="#FC4637"/>
<stop offset="1" stop-color="#F82814"/>
</linearGradient>
<linearGradient id="paint35_linear_343_6912" x1="131.242" y1="74.0793" x2="130.092" y2="71.549" gradientUnits="userSpaceOnUse">
<stop stop-color="#FF6359"/>
<stop offset="0.2243" stop-color="#FE5B50"/>
<stop offset="0.5952" stop-color="#FC4637"/>
<stop offset="1" stop-color="#F82814"/>
</linearGradient>
<linearGradient id="paint36_linear_343_6912" x1="133.485" y1="75.7188" x2="132.335" y2="73.1888" gradientUnits="userSpaceOnUse">
<stop stop-color="#FF6359"/>
<stop offset="0.2243" stop-color="#FE5B50"/>
<stop offset="0.5952" stop-color="#FC4637"/>
<stop offset="1" stop-color="#F82814"/>
</linearGradient>
<linearGradient id="paint37_linear_343_6912" x1="124.693" y1="78.7144" x2="129.724" y2="83.7455" gradientUnits="userSpaceOnUse">
<stop stop-color="#FF6359"/>
<stop offset="0.2243" stop-color="#FE5B50"/>
<stop offset="0.5952" stop-color="#FC4637"/>
<stop offset="1" stop-color="#F82814"/>
</linearGradient>
<linearGradient id="paint38_linear_343_6912" x1="127.972" y1="78.6543" x2="125.43" y2="73.0637" gradientUnits="userSpaceOnUse">
<stop stop-color="#FF6359"/>
<stop offset="0.2243" stop-color="#FE5B50"/>
<stop offset="0.5952" stop-color="#FC4637"/>
<stop offset="1" stop-color="#F82814"/>
</linearGradient>
<linearGradient id="paint39_linear_343_6912" x1="125.077" y1="78.5461" x2="123.927" y2="76.0161" gradientUnits="userSpaceOnUse">
<stop stop-color="#FF6359"/>
<stop offset="0.2243" stop-color="#FE5B50"/>
<stop offset="0.5952" stop-color="#FC4637"/>
<stop offset="1" stop-color="#F82814"/>
</linearGradient>
<linearGradient id="paint40_linear_343_6912" x1="127.32" y1="80.1855" x2="126.17" y2="77.6555" gradientUnits="userSpaceOnUse">
<stop stop-color="#FF6359"/>
<stop offset="0.2243" stop-color="#FE5B50"/>
<stop offset="0.5952" stop-color="#FC4637"/>
<stop offset="1" stop-color="#F82814"/>
</linearGradient>
<linearGradient id="paint41_linear_343_6912" x1="115.857" y1="97.1797" x2="102.075" y2="77.6629" gradientUnits="userSpaceOnUse">
<stop stop-color="#EFDCFB" stop-opacity="0"/>
<stop offset="0.0287" stop-color="#E9D6F7" stop-opacity="0.029"/>
<stop offset="0.2203" stop-color="#C5B5DE" stop-opacity="0.22"/>
<stop offset="0.4138" stop-color="#AA9BCB" stop-opacity="0.414"/>
<stop offset="0.6078" stop-color="#9688BD" stop-opacity="0.608"/>
<stop offset="0.8028" stop-color="#8A7DB5" stop-opacity="0.803"/>
<stop offset="1" stop-color="#8679B2"/>
</linearGradient>
<linearGradient id="paint42_linear_343_6912" x1="119.504" y1="82.0008" x2="120.833" y2="84.9667" gradientUnits="userSpaceOnUse">
<stop stop-color="#FFA936"/>
<stop offset="0.4112" stop-color="#FF8548"/>
<stop offset="0.7781" stop-color="#FF6C54"/>
<stop offset="1" stop-color="#FF6359"/>
</linearGradient>
<linearGradient id="paint43_linear_343_6912" x1="121.449" y1="84.5467" x2="123.277" y2="88.6229" gradientUnits="userSpaceOnUse">
<stop stop-color="#BADA00"/>
<stop offset="0.2269" stop-color="#B0CE00"/>
<stop offset="0.6378" stop-color="#95AE00"/>
<stop offset="1" stop-color="#798C00"/>
</linearGradient>
<linearGradient id="paint44_linear_343_6912" x1="115.679" y1="81.0617" x2="117.507" y2="85.1379" gradientUnits="userSpaceOnUse">
<stop stop-color="#BADA00"/>
<stop offset="0.2269" stop-color="#B0CE00"/>
<stop offset="0.6378" stop-color="#95AE00"/>
<stop offset="1" stop-color="#798C00"/>
</linearGradient>
<linearGradient id="paint45_linear_343_6912" x1="117.013" y1="84.2517" x2="118.531" y2="87.6376" gradientUnits="userSpaceOnUse">
<stop stop-color="#FFA936"/>
<stop offset="0.4112" stop-color="#FF8548"/>
<stop offset="0.7781" stop-color="#FF6C54"/>
<stop offset="1" stop-color="#FF6359"/>
</linearGradient>
<linearGradient id="paint46_linear_343_6912" x1="108.411" y1="88.0297" x2="109.741" y2="90.9956" gradientUnits="userSpaceOnUse">
<stop stop-color="#FFA936"/>
<stop offset="0.4112" stop-color="#FF8548"/>
<stop offset="0.7781" stop-color="#FF6C54"/>
<stop offset="1" stop-color="#FF6359"/>
</linearGradient>
<linearGradient id="paint47_linear_343_6912" x1="119.476" y1="86.6" x2="120.871" y2="89.7109" gradientUnits="userSpaceOnUse">
<stop stop-color="#FFD945"/>
<stop offset="0.3043" stop-color="#FFCD3E"/>
<stop offset="0.8558" stop-color="#FFAD2B"/>
<stop offset="1" stop-color="#FFA325"/>
</linearGradient>
<linearGradient id="paint48_linear_343_6912" x1="112.795" y1="84.1908" x2="114.35" y2="87.659" gradientUnits="userSpaceOnUse">
<stop stop-color="#FFD945"/>
<stop offset="0.3043" stop-color="#FFCD3E"/>
<stop offset="0.8558" stop-color="#FFAD2B"/>
<stop offset="1" stop-color="#FFA325"/>
</linearGradient>
<linearGradient id="paint49_linear_343_6912" x1="114.813" y1="87.1012" x2="116.641" y2="91.1773" gradientUnits="userSpaceOnUse">
<stop stop-color="#BADA00"/>
<stop offset="0.2269" stop-color="#B0CE00"/>
<stop offset="0.6378" stop-color="#95AE00"/>
<stop offset="1" stop-color="#798C00"/>
</linearGradient>
<linearGradient id="paint50_linear_343_6912" x1="87.7434" y1="40.6122" x2="113.446" y2="52.8443" gradientUnits="userSpaceOnUse">
<stop stop-color="#E87264" stop-opacity="0"/>
<stop offset="1" stop-color="#F8DFBE"/>
</linearGradient>
<linearGradient id="paint51_linear_343_6912" x1="59.2197" y1="19.2888" x2="77.4288" y2="23.5732" gradientUnits="userSpaceOnUse">
<stop stop-color="#E87264" stop-opacity="0"/>
<stop offset="0.1575" stop-color="#E97869" stop-opacity="0.158"/>
<stop offset="0.3778" stop-color="#EC8B78" stop-opacity="0.378"/>
<stop offset="0.6353" stop-color="#F0A991" stop-opacity="0.635"/>
<stop offset="0.9188" stop-color="#F6D2B3" stop-opacity="0.919"/>
<stop offset="1" stop-color="#F8DFBE"/>
</linearGradient>
<linearGradient id="paint52_linear_343_6912" x1="38.8149" y1="40.1154" x2="52.7358" y2="45.5404" gradientUnits="userSpaceOnUse">
<stop stop-color="#E87264" stop-opacity="0"/>
<stop offset="1" stop-color="#F8DFBE"/>
</linearGradient>
</defs>
</svg>
