<svg width="151" height="142" viewBox="0 0 151 142" fill="none" xmlns="http://www.w3.org/2000/svg">
<path d="M104.637 55.9871C112.234 55.5695 118.254 49.4124 118.475 41.8074C118.582 38.1327 118.637 34.3821 118.637 30.5715C118.637 29.0536 118.628 27.5454 118.611 26.0477C118.479 14.6251 109.407 5.32448 97.9948 4.83066C88.6983 4.4283 78.6013 4.20801 68.046 4.20801C57.4907 4.20801 47.3936 4.4286 38.0971 4.83066C26.6845 5.32448 17.613 14.6254 17.4813 26.0477C17.4639 27.5457 17.4551 29.0539 17.4551 30.5715C17.4551 34.3821 17.5104 38.1324 17.6171 41.8074C17.8383 49.4124 23.8577 55.5698 31.4545 55.9871C42.5042 56.5945 54.9207 56.9354 68.046 56.9354C81.1713 56.9354 93.5877 56.5945 104.637 55.9871V55.9871Z" fill="url(#paint0_linear_343_6700)"/>
<path d="M118.637 30.5718C118.637 34.3815 118.582 38.133 118.475 41.8086C118.255 49.411 112.236 55.568 104.637 55.9877C93.5892 56.5933 81.1721 56.9342 68.046 56.9342C57.6868 56.9342 47.7718 56.721 38.6207 56.3354L17.4827 35.1974C17.4654 33.666 17.4551 32.1242 17.4551 30.5721C17.4551 29.0545 17.4654 27.5471 17.4827 26.0465C17.6136 14.6242 26.6854 5.32507 38.0974 4.82948C47.393 4.42684 57.4907 4.20654 68.0457 4.20654C78.6007 4.20654 88.6983 4.42684 97.9939 4.82948C109.406 5.32507 118.478 14.6242 118.609 26.0465C118.627 27.5468 118.637 29.0542 118.637 30.5718V30.5718Z" fill="url(#paint1_linear_343_6700)"/>
<path d="M17.6504 42.4236C18.1692 49.7421 24.0648 55.5809 31.4548 55.9871C42.5045 56.5945 54.921 56.9353 68.0463 56.9353C81.1716 56.9353 93.588 56.5945 104.638 55.9871C112.028 55.5809 117.924 49.7421 118.442 42.4236H17.6504Z" fill="url(#paint2_linear_343_6700)"/>
<path d="M110.521 37.5795C99.1673 33.2995 84.3091 30.7063 68.0459 30.7063C51.7826 30.7063 36.9247 33.2995 25.5706 37.5795C19.4715 39.8786 13.5547 32.9863 13.5547 23.616C13.5547 17.3586 16.2644 11.8042 20.2679 9.90656C32.0806 4.30655 49.1112 0.79126 68.0459 0.79126C86.9809 0.79126 104.011 4.30655 115.824 9.90656C119.827 11.8045 122.537 17.3586 122.537 23.616C122.537 32.9863 116.62 39.8786 110.521 37.5795Z" fill="url(#paint3_radial_343_6700)"/>
<path d="M122.536 23.6167C122.536 31.7558 118.072 38.0228 112.903 38.0228C112.122 38.0228 111.323 37.8817 110.521 37.579C106.106 35.9167 101.157 34.5058 95.8052 33.4078C87.3976 31.6767 77.9814 30.7064 68.0458 30.7064C51.7846 30.7064 36.924 33.3014 25.5702 37.579C24.6411 37.9299 23.7152 38.0678 22.817 38.0125C22.2287 28.5802 25.9002 18.2058 33.2282 9.48665C36.3238 5.80341 40.6264 3.32312 45.3764 2.55547C52.4285 1.41547 60.069 0.792236 68.0458 0.792236C77.2208 0.792236 85.9488 1.61488 93.8505 3.10841C102.258 4.68812 109.733 7.01812 115.825 9.90547C119.827 11.8055 122.536 17.3599 122.536 23.6167V23.6167Z" fill="url(#paint4_linear_343_6700)"/>
<path d="M115.823 9.90655C104.011 4.30655 86.9801 0.79126 68.0451 0.79126C66.7048 0.79126 65.3742 0.808907 64.0545 0.843907C59.876 0.954201 55.8992 2.79391 53.1971 5.98273C53.1795 6.00361 53.1618 6.0242 53.1445 6.04508C46.2366 14.2645 42.5798 23.9542 42.6757 32.9395C50.4639 31.5027 59.0383 30.706 68.0451 30.706C84.308 30.706 99.1663 33.2992 110.52 37.5792C116.619 39.8783 122.536 32.986 122.536 23.6157C122.536 17.3586 119.827 11.8045 115.823 9.90655V9.90655Z" fill="url(#paint5_linear_343_6700)"/>
<path d="M115.824 9.90665C106.387 5.43282 93.618 2.29106 79.2091 1.20811C77.9282 1.11194 76.6571 1.60517 75.8294 2.58782C75.825 2.59311 75.8203 2.59841 75.8159 2.604C68.5909 11.2008 64.9232 21.4058 65.3856 30.7311C66.2682 30.7158 67.1547 30.7064 68.0462 30.7064C84.3091 30.7064 99.1674 33.2996 110.521 37.5796C116.621 39.8787 122.537 32.9864 122.537 23.6161C122.537 17.3587 119.828 11.8046 115.824 9.90665V9.90665Z" fill="url(#paint6_linear_343_6700)"/>
<path d="M115.824 9.90646C110.98 7.60999 105.257 5.66528 98.8863 4.16881C97.8583 3.92734 96.768 4.26293 96.088 5.07058C96.0842 5.07499 96.0804 5.0794 96.0768 5.08411C89.228 13.2332 85.5742 22.8279 85.6057 31.7485C94.9401 32.8838 103.417 34.9012 110.521 37.5794C116.62 39.8785 122.537 32.9862 122.537 23.6159C122.537 17.3585 119.827 11.8044 115.824 9.90646V9.90646Z" fill="url(#paint7_linear_343_6700)"/>
<g opacity="0.6">
<g opacity="0.6">
<path opacity="0.6" d="M64.1216 47.4775C65.1698 47.4775 66.0195 46.6278 66.0195 45.5796C66.0195 44.5314 65.1698 43.6816 64.1216 43.6816C63.0734 43.6816 62.2236 44.5314 62.2236 45.5796C62.2236 46.6278 63.0734 47.4775 64.1216 47.4775Z" fill="url(#paint8_linear_343_6700)"/>
<path opacity="0.6" d="M58.6486 44.5192C59.4761 44.5192 60.1469 43.8484 60.1469 43.0209C60.1469 42.1935 59.4761 41.5227 58.6486 41.5227C57.8212 41.5227 57.1504 42.1935 57.1504 43.0209C57.1504 43.8484 57.8212 44.5192 58.6486 44.5192Z" fill="url(#paint9_linear_343_6700)"/>
<path opacity="0.6" d="M63.7314 39.6348C64.2302 39.6348 64.6346 39.2304 64.6346 38.7316C64.6346 38.2328 64.2302 37.8284 63.7314 37.8284C63.2325 37.8284 62.8281 38.2328 62.8281 38.7316C62.8281 39.2304 63.2325 39.6348 63.7314 39.6348Z" fill="url(#paint10_linear_343_6700)"/>
</g>
<g opacity="0.6">
<path opacity="0.6" d="M72.1768 40.8284C72.9513 40.8284 73.5791 40.2005 73.5791 39.426C73.5791 38.6515 72.9513 38.0237 72.1768 38.0237C71.4023 38.0237 70.7744 38.6515 70.7744 39.426C70.7744 40.2005 71.4023 40.8284 72.1768 40.8284Z" fill="url(#paint11_linear_343_6700)"/>
<path opacity="0.6" d="M68.0709 42.2869C68.6823 42.2869 69.178 41.7912 69.178 41.1798C69.178 40.5684 68.6823 40.0728 68.0709 40.0728C67.4595 40.0728 66.9639 40.5684 66.9639 41.1798C66.9639 41.7912 67.4595 42.2869 68.0709 42.2869Z" fill="url(#paint12_linear_343_6700)"/>
<path opacity="0.6" d="M68.2133 36.9348C68.5818 36.9348 68.8806 36.636 68.8806 36.2674C68.8806 35.8989 68.5818 35.6001 68.2133 35.6001C67.8447 35.6001 67.5459 35.8989 67.5459 36.2674C67.5459 36.636 67.8447 36.9348 68.2133 36.9348Z" fill="url(#paint13_linear_343_6700)"/>
</g>
</g>
<path d="M132.307 99.5562C139.904 99.1386 145.924 92.9812 146.145 85.3765C146.251 81.7018 146.307 77.9512 146.307 74.1406C146.307 72.6227 146.298 71.1145 146.281 69.6168C146.149 58.1942 137.077 48.8933 125.665 48.3997C116.368 47.9974 106.271 47.7771 95.7159 47.7771C85.1606 47.7771 75.0635 47.9977 65.7671 48.3997C54.3544 48.8936 45.2829 58.1945 45.1512 69.6168C45.1338 71.1147 45.125 72.623 45.125 74.1406C45.125 77.9512 45.1803 81.7015 45.2871 85.3765C45.5082 92.9815 51.5276 99.1389 59.1244 99.5562C70.1741 100.164 82.5906 100.504 95.7159 100.504C108.841 100.504 121.258 100.164 132.307 99.5562Z" fill="url(#paint14_linear_343_6700)"/>
<path d="M146.307 74.1412C146.307 77.9509 146.252 81.7024 146.145 85.378C145.925 92.9803 139.906 99.1374 132.306 99.5571C121.259 100.163 108.842 100.504 95.7159 100.504C85.3568 100.504 75.4418 100.29 66.2906 99.9048L45.1526 78.7668C45.1353 77.2353 45.125 75.6936 45.125 74.1412C45.125 72.6236 45.1353 71.1162 45.1526 69.6156C45.2835 58.1933 54.3553 48.8942 65.7674 48.3986C75.0629 47.9959 85.1606 47.7756 95.7156 47.7756C106.271 47.7756 116.368 47.9959 125.664 48.3986C137.076 48.8942 146.148 58.1933 146.279 69.6156C146.296 71.1159 146.307 72.6233 146.307 74.1412V74.1412Z" fill="url(#paint15_linear_343_6700)"/>
<path d="M125.664 48.3982C117.428 48.0414 108.559 47.8288 99.3027 47.7847V100.494C111.103 100.438 122.271 100.107 132.307 99.5567C139.906 99.1367 145.925 92.98 146.145 85.3776C146.252 81.702 146.307 77.9508 146.307 74.1408C146.307 72.6232 146.297 71.1158 146.28 69.6153C146.149 58.1929 137.077 48.8938 125.664 48.3982V48.3982Z" fill="url(#paint16_linear_343_6700)"/>
<path d="M45.3203 85.9927C45.8391 93.3112 51.7347 99.15 59.1247 99.5562C70.1744 100.164 82.5909 100.504 95.7162 100.504C108.841 100.504 121.258 100.164 132.308 99.5562C139.698 99.15 145.594 93.3112 146.112 85.9927H45.3203Z" fill="url(#paint17_linear_343_6700)"/>
<path d="M138.191 81.1486C126.837 76.8686 111.979 74.2753 95.7158 74.2753C79.4526 74.2753 64.5946 76.8686 53.2405 81.1486C47.1414 83.4477 41.2246 76.5554 41.2246 67.1851C41.2246 60.9277 43.9343 55.3733 47.9378 53.4756C59.7505 47.8756 76.7811 44.3604 95.7158 44.3604C114.651 44.3604 131.681 47.8756 143.494 53.4756C147.497 55.3736 150.207 60.9277 150.207 67.1851C150.207 76.5554 144.29 83.4477 138.191 81.1486Z" fill="url(#paint18_radial_343_6700)"/>
<g opacity="0.6">
<g opacity="0.6">
<path opacity="0.6" d="M127.167 85.6914C128.216 85.6914 129.065 84.8417 129.065 83.7935C129.065 82.7452 128.216 81.8955 127.167 81.8955C126.119 81.8955 125.27 82.7452 125.27 83.7935C125.27 84.8417 126.119 85.6914 127.167 85.6914Z" fill="url(#paint19_linear_343_6700)"/>
<path opacity="0.6" d="M121.194 84.3895C122.021 84.3895 122.692 83.7187 122.692 82.8913C122.692 82.0638 122.021 81.3931 121.194 81.3931C120.366 81.3931 119.695 82.0638 119.695 82.8913C119.695 83.7187 120.366 84.3895 121.194 84.3895Z" fill="url(#paint20_linear_343_6700)"/>
<path opacity="0.6" d="M123.049 90.1812C123.548 90.1812 123.952 89.7768 123.952 89.278C123.952 88.7791 123.548 88.3748 123.049 88.3748C122.55 88.3748 122.146 88.7791 122.146 89.278C122.146 89.7768 122.55 90.1812 123.049 90.1812Z" fill="url(#paint21_linear_343_6700)"/>
</g>
<g opacity="0.6">
<path opacity="0.6" d="M130.464 94.7808C131.238 94.7808 131.866 94.1529 131.866 93.3784C131.866 92.6039 131.238 91.9761 130.464 91.9761C129.689 91.9761 129.062 92.6039 129.062 93.3784C129.062 94.1529 129.689 94.7808 130.464 94.7808Z" fill="url(#paint22_linear_343_6700)"/>
<path opacity="0.6" d="M128.018 90.751C128.63 90.751 129.125 90.2553 129.125 89.6439C129.125 89.0325 128.63 88.5369 128.018 88.5369C127.407 88.5369 126.911 89.0325 126.911 89.6439C126.911 90.2553 127.407 90.751 128.018 90.751Z" fill="url(#paint23_linear_343_6700)"/>
<path opacity="0.6" d="M125.414 94.4795C125.783 94.4795 126.082 94.1807 126.082 93.8121C126.082 93.4436 125.783 93.1448 125.414 93.1448C125.046 93.1448 124.747 93.4436 124.747 93.8121C124.747 94.1807 125.046 94.4795 125.414 94.4795Z" fill="url(#paint24_linear_343_6700)"/>
</g>
</g>
<path d="M143.494 53.4755C132.432 48.2314 116.794 44.8158 99.3018 44.4028V74.3193C114.158 74.6702 127.677 77.1855 138.191 81.1487C144.29 83.4476 150.207 76.5552 150.207 67.1849C150.207 60.9275 147.497 55.3734 143.494 53.4755V53.4755Z" fill="url(#paint25_linear_343_6700)"/>
<path d="M90.0289 100.179C90.0289 100.883 90.596 101.456 91.3001 101.46C92.7621 101.469 94.2336 101.474 95.7154 101.474C97.1971 101.474 98.6686 101.469 100.131 101.46C100.835 101.456 101.402 100.883 101.402 100.179V44.9868C101.402 44.1539 100.738 43.4759 99.9051 43.4518C98.5198 43.4118 97.123 43.3906 95.7151 43.3906C94.3071 43.3906 92.9104 43.4118 91.5251 43.4518C90.6924 43.4759 90.0283 44.1539 90.0283 44.9868V100.179H90.0289Z" fill="url(#paint26_linear_343_6700)"/>
<path d="M91.2898 140.261C98.8865 139.843 104.906 133.686 105.127 126.081C105.234 122.406 105.289 118.656 105.289 114.845C105.289 113.327 105.28 111.819 105.263 110.321C105.131 98.8987 96.0598 89.5979 84.6471 89.1043C75.3507 88.702 65.2536 88.4817 54.6983 88.4817C44.143 88.4817 34.046 88.7023 24.7495 89.1043C13.3368 89.5982 4.26536 98.899 4.1336 110.321C4.11625 111.819 4.10742 113.328 4.10742 114.845C4.10742 118.656 4.16272 122.406 4.26948 126.081C4.49066 133.686 10.5101 139.843 18.1068 140.261C29.1565 140.868 41.573 141.209 54.6983 141.209C67.8236 141.209 80.2401 140.868 91.2898 140.261Z" fill="url(#paint27_linear_343_6700)"/>
<path d="M105.289 114.846C105.289 118.656 105.234 122.407 105.127 126.083C104.907 133.685 98.888 139.842 91.2889 140.262C80.2415 140.867 67.8245 141.208 54.6983 141.208C44.3392 141.208 34.4242 140.995 25.273 140.61L4.13507 119.472C4.11772 117.94 4.10742 116.398 4.10742 114.846C4.10742 113.329 4.11772 111.821 4.13507 110.321C4.26595 98.8984 13.3377 89.5992 24.7498 89.1036C34.0454 88.701 44.143 88.4807 54.698 88.4807C65.253 88.4807 75.3507 88.701 84.6463 89.1036C96.0583 89.5992 105.13 98.8984 105.261 110.321C105.279 111.821 105.289 113.328 105.289 114.846V114.846Z" fill="url(#paint28_linear_343_6700)"/>
<path d="M4.30273 126.697C4.82156 134.016 10.7171 139.855 18.1071 140.261C29.1569 140.868 41.5733 141.209 54.6986 141.209C67.8239 141.209 80.2404 140.868 91.2901 140.261C98.6804 139.855 104.576 134.016 105.094 126.697H4.30273Z" fill="url(#paint29_linear_343_6700)"/>
<path d="M97.1732 121.854C85.8194 117.574 70.9612 114.981 54.6979 114.981C38.4347 114.981 23.5767 117.574 12.2229 121.854C6.12409 124.153 0.207031 117.261 0.207031 107.891C0.207031 101.633 2.91674 96.0788 6.92027 94.1812C18.7329 88.5812 35.7635 85.0659 54.6982 85.0659C73.6332 85.0659 90.6638 88.5812 102.476 94.1812C106.48 96.0791 109.189 101.633 109.189 107.891C109.189 117.261 103.272 124.153 97.1732 121.854V121.854Z" fill="url(#paint30_radial_343_6700)"/>
<path d="M109.188 107.891C109.188 116.03 104.724 122.297 99.5552 122.297C98.774 122.297 97.9755 122.156 97.1738 121.853C92.7582 120.191 87.8093 118.78 82.4576 117.682C74.0499 115.951 64.6337 114.98 54.6982 114.98C38.437 114.98 23.5764 117.575 12.2226 121.853C11.2934 122.204 10.3676 122.342 9.46933 122.286C8.88109 112.854 12.5526 102.48 19.8805 93.7606C22.9761 90.0773 27.2787 87.597 32.0287 86.8294C39.0808 85.6894 46.7214 85.0662 54.6982 85.0662C63.8732 85.0662 72.6011 85.8888 80.5029 87.3823C88.9105 88.962 96.3855 91.292 102.477 94.1794C106.48 96.0791 109.188 101.634 109.188 107.891V107.891Z" fill="url(#paint31_linear_343_6700)"/>
<path d="M102.475 94.1802C90.6627 88.5802 73.6321 85.0649 54.6974 85.0649C53.3571 85.0649 52.0265 85.0826 50.7068 85.1176C46.5283 85.2279 42.5515 87.0676 39.8495 90.2564C39.8318 90.2773 39.8142 90.2979 39.7968 90.3188C32.8889 98.5382 29.2321 108.228 29.328 117.213C37.1162 115.776 45.6907 114.98 54.6974 114.98C70.9604 114.98 85.8186 117.573 97.1727 121.853C103.272 124.152 109.189 117.26 109.189 107.889C109.189 101.632 106.479 96.0782 102.475 94.1802V94.1802Z" fill="url(#paint32_linear_343_6700)"/>
<path d="M102.476 94.1801C93.0385 89.7063 80.2693 86.5645 65.8605 85.4816C64.5796 85.3854 63.3084 85.8786 62.4808 86.8613C62.4764 86.8666 62.4717 86.8718 62.4673 86.8774C55.2423 95.4742 51.5746 105.679 52.037 115.004C52.9196 114.989 53.8061 114.98 54.6976 114.98C70.9605 114.98 85.8187 117.573 97.1729 121.853C103.272 124.152 109.189 117.26 109.189 107.889C109.189 101.632 106.479 96.078 102.476 94.1801V94.1801Z" fill="url(#paint33_linear_343_6700)"/>
<path d="M102.477 94.1801C97.6324 91.8837 91.9095 89.939 85.5386 88.4425C84.5107 88.201 83.4204 88.5366 82.7404 89.3443C82.7365 89.3487 82.7327 89.3531 82.7292 89.3578C75.8804 97.5069 72.2265 107.102 72.258 116.022C81.5924 117.157 90.0689 119.175 97.1736 121.853C103.273 124.152 109.189 117.26 109.189 107.89C109.19 101.632 106.48 96.0781 102.477 94.1801V94.1801Z" fill="url(#paint34_linear_343_6700)"/>
<g opacity="0.6">
<g opacity="0.6">
<path opacity="0.6" d="M18.6392 128.791C19.6874 128.791 20.5371 127.942 20.5371 126.893C20.5371 125.845 19.6874 124.995 18.6392 124.995C17.5909 124.995 16.7412 125.845 16.7412 126.893C16.7412 127.942 17.5909 128.791 18.6392 128.791Z" fill="url(#paint35_linear_343_6700)"/>
<path opacity="0.6" d="M17.7375 134.366C18.5649 134.366 19.2357 133.695 19.2357 132.867C19.2357 132.04 18.5649 131.369 17.7375 131.369C16.91 131.369 16.2393 132.04 16.2393 132.867C16.2393 133.695 16.91 134.366 17.7375 134.366Z" fill="url(#paint36_linear_343_6700)"/>
<path opacity="0.6" d="M24.1239 131.915C24.6228 131.915 25.0272 131.511 25.0272 131.012C25.0272 130.513 24.6228 130.109 24.1239 130.109C23.6251 130.109 23.2207 130.513 23.2207 131.012C23.2207 131.511 23.6251 131.915 24.1239 131.915Z" fill="url(#paint37_linear_343_6700)"/>
</g>
<g opacity="0.6">
<path opacity="0.6" d="M28.2236 124.999C28.9981 124.999 29.626 124.371 29.626 123.596C29.626 122.822 28.9981 122.194 28.2236 122.194C27.4491 122.194 26.8213 122.822 26.8213 123.596C26.8213 124.371 27.4491 124.999 28.2236 124.999Z" fill="url(#paint38_linear_343_6700)"/>
<path opacity="0.6" d="M24.4899 127.15C25.1013 127.15 25.5969 126.654 25.5969 126.043C25.5969 125.431 25.1013 124.936 24.4899 124.936C23.8785 124.936 23.3828 125.431 23.3828 126.043C23.3828 126.654 23.8785 127.15 24.4899 127.15Z" fill="url(#paint39_linear_343_6700)"/>
<path opacity="0.6" d="M28.6576 129.313C29.0262 129.313 29.3249 129.015 29.3249 128.646C29.3249 128.278 29.0262 127.979 28.6576 127.979C28.289 127.979 27.9902 128.278 27.9902 128.646C27.9902 129.015 28.289 129.313 28.6576 129.313Z" fill="url(#paint40_linear_343_6700)"/>
</g>
</g>
<defs>
<linearGradient id="paint0_linear_343_6700" x1="68.1042" y1="33.4568" x2="72.693" y2="56.171" gradientUnits="userSpaceOnUse">
<stop stop-color="#F8F6FB"/>
<stop offset="1" stop-color="#EFDCFB"/>
</linearGradient>
<linearGradient id="paint1_linear_343_6700" x1="69.3545" y1="47.7421" x2="66.3719" y2="8.04978" gradientUnits="userSpaceOnUse">
<stop stop-color="#EFDCFB" stop-opacity="0"/>
<stop offset="0.0287" stop-color="#E9D6F7" stop-opacity="0.029"/>
<stop offset="0.2203" stop-color="#C5B5DE" stop-opacity="0.22"/>
<stop offset="0.4138" stop-color="#AA9BCB" stop-opacity="0.414"/>
<stop offset="0.6078" stop-color="#9688BD" stop-opacity="0.608"/>
<stop offset="0.8028" stop-color="#8A7DB5" stop-opacity="0.803"/>
<stop offset="1" stop-color="#8679B2"/>
</linearGradient>
<linearGradient id="paint2_linear_343_6700" x1="68.0463" y1="47.9301" x2="68.0463" y2="68.5998" gradientUnits="userSpaceOnUse">
<stop stop-color="#EFDCFB" stop-opacity="0"/>
<stop offset="0.0287" stop-color="#E9D6F7" stop-opacity="0.029"/>
<stop offset="0.2203" stop-color="#C5B5DE" stop-opacity="0.22"/>
<stop offset="0.4138" stop-color="#AA9BCB" stop-opacity="0.414"/>
<stop offset="0.6078" stop-color="#9688BD" stop-opacity="0.608"/>
<stop offset="0.8028" stop-color="#8A7DB5" stop-opacity="0.803"/>
<stop offset="1" stop-color="#8679B2"/>
</linearGradient>
<radialGradient id="paint3_radial_343_6700" cx="0" cy="0" r="1" gradientUnits="userSpaceOnUse" gradientTransform="translate(68.241 45.4942) scale(65.3591 35.4339)">
<stop stop-color="#FF6359"/>
<stop offset="0.2327" stop-color="#FF6855"/>
<stop offset="0.5016" stop-color="#FF764A"/>
<stop offset="0.7872" stop-color="#FF8D37"/>
<stop offset="1" stop-color="#FFA325"/>
</radialGradient>
<linearGradient id="paint4_linear_343_6700" x1="65.5535" y1="16.5919" x2="48.0014" y2="-11.4566" gradientUnits="userSpaceOnUse">
<stop stop-color="#FFA325" stop-opacity="0"/>
<stop offset="0.196" stop-color="#FFAE38" stop-opacity="0.196"/>
<stop offset="0.5939" stop-color="#FFCA6A" stop-opacity="0.594"/>
<stop offset="1" stop-color="#FFEAA2"/>
</linearGradient>
<linearGradient id="paint5_linear_343_6700" x1="74.023" y1="11.8901" x2="62.0166" y2="-7.02021" gradientUnits="userSpaceOnUse">
<stop stop-color="#FFA325" stop-opacity="0"/>
<stop offset="0.196" stop-color="#FFAE38" stop-opacity="0.196"/>
<stop offset="0.5939" stop-color="#FFCA6A" stop-opacity="0.594"/>
<stop offset="1" stop-color="#FFEAA2"/>
</linearGradient>
<linearGradient id="paint6_linear_343_6700" x1="87.1621" y1="13.5952" x2="74.2559" y2="-6.73247" gradientUnits="userSpaceOnUse">
<stop stop-color="#FFA325" stop-opacity="0"/>
<stop offset="0.196" stop-color="#FFAE38" stop-opacity="0.196"/>
<stop offset="0.5939" stop-color="#FFCA6A" stop-opacity="0.594"/>
<stop offset="1" stop-color="#FFEAA2"/>
</linearGradient>
<linearGradient id="paint7_linear_343_6700" x1="99.406" y1="17.4644" x2="88.4751" y2="0.248221" gradientUnits="userSpaceOnUse">
<stop stop-color="#FFA325" stop-opacity="0"/>
<stop offset="0.196" stop-color="#FFAE38" stop-opacity="0.196"/>
<stop offset="0.5939" stop-color="#FFCA6A" stop-opacity="0.594"/>
<stop offset="1" stop-color="#FFEAA2"/>
</linearGradient>
<linearGradient id="paint8_linear_343_6700" x1="64.3536" y1="42.8596" x2="63.8231" y2="51.8252" gradientUnits="userSpaceOnUse">
<stop stop-color="#EFDCFB" stop-opacity="0"/>
<stop offset="0.0287" stop-color="#E9D6F7" stop-opacity="0.029"/>
<stop offset="0.2203" stop-color="#C5B5DE" stop-opacity="0.22"/>
<stop offset="0.4138" stop-color="#AA9BCB" stop-opacity="0.414"/>
<stop offset="0.6078" stop-color="#9688BD" stop-opacity="0.608"/>
<stop offset="0.8028" stop-color="#8A7DB5" stop-opacity="0.803"/>
<stop offset="1" stop-color="#8679B2"/>
</linearGradient>
<linearGradient id="paint9_linear_343_6700" x1="58.8458" y1="40.9079" x2="58.4273" y2="47.9857" gradientUnits="userSpaceOnUse">
<stop stop-color="#EFDCFB" stop-opacity="0"/>
<stop offset="0.0287" stop-color="#E9D6F7" stop-opacity="0.029"/>
<stop offset="0.2203" stop-color="#C5B5DE" stop-opacity="0.22"/>
<stop offset="0.4138" stop-color="#AA9BCB" stop-opacity="0.414"/>
<stop offset="0.6078" stop-color="#9688BD" stop-opacity="0.608"/>
<stop offset="0.8028" stop-color="#8A7DB5" stop-opacity="0.803"/>
<stop offset="1" stop-color="#8679B2"/>
</linearGradient>
<linearGradient id="paint10_linear_343_6700" x1="63.8746" y1="37.5238" x2="63.6221" y2="41.7909" gradientUnits="userSpaceOnUse">
<stop stop-color="#EFDCFB" stop-opacity="0"/>
<stop offset="0.0287" stop-color="#E9D6F7" stop-opacity="0.029"/>
<stop offset="0.2203" stop-color="#C5B5DE" stop-opacity="0.22"/>
<stop offset="0.4138" stop-color="#AA9BCB" stop-opacity="0.414"/>
<stop offset="0.6078" stop-color="#9688BD" stop-opacity="0.608"/>
<stop offset="0.8028" stop-color="#8A7DB5" stop-opacity="0.803"/>
<stop offset="1" stop-color="#8679B2"/>
</linearGradient>
<linearGradient id="paint11_linear_343_6700" x1="70.4484" y1="37.6383" x2="75.129" y2="42.3486" gradientUnits="userSpaceOnUse">
<stop stop-color="#EFDCFB" stop-opacity="0"/>
<stop offset="0.0287" stop-color="#E9D6F7" stop-opacity="0.029"/>
<stop offset="0.2203" stop-color="#C5B5DE" stop-opacity="0.22"/>
<stop offset="0.4138" stop-color="#AA9BCB" stop-opacity="0.414"/>
<stop offset="0.6078" stop-color="#9688BD" stop-opacity="0.608"/>
<stop offset="0.8028" stop-color="#8A7DB5" stop-opacity="0.803"/>
<stop offset="1" stop-color="#8679B2"/>
</linearGradient>
<linearGradient id="paint12_linear_343_6700" x1="66.6585" y1="39.7127" x2="70.3536" y2="43.4312" gradientUnits="userSpaceOnUse">
<stop stop-color="#EFDCFB" stop-opacity="0"/>
<stop offset="0.0287" stop-color="#E9D6F7" stop-opacity="0.029"/>
<stop offset="0.2203" stop-color="#C5B5DE" stop-opacity="0.22"/>
<stop offset="0.4138" stop-color="#AA9BCB" stop-opacity="0.414"/>
<stop offset="0.6078" stop-color="#9688BD" stop-opacity="0.608"/>
<stop offset="0.8028" stop-color="#8A7DB5" stop-opacity="0.803"/>
<stop offset="1" stop-color="#8679B2"/>
</linearGradient>
<linearGradient id="paint13_linear_343_6700" x1="67.2718" y1="35.2733" x2="69.4993" y2="37.5152" gradientUnits="userSpaceOnUse">
<stop stop-color="#EFDCFB" stop-opacity="0"/>
<stop offset="0.0287" stop-color="#E9D6F7" stop-opacity="0.029"/>
<stop offset="0.2203" stop-color="#C5B5DE" stop-opacity="0.22"/>
<stop offset="0.4138" stop-color="#AA9BCB" stop-opacity="0.414"/>
<stop offset="0.6078" stop-color="#9688BD" stop-opacity="0.608"/>
<stop offset="0.8028" stop-color="#8A7DB5" stop-opacity="0.803"/>
<stop offset="1" stop-color="#8679B2"/>
</linearGradient>
<linearGradient id="paint14_linear_343_6700" x1="95.7738" y1="77.0259" x2="100.363" y2="99.74" gradientUnits="userSpaceOnUse">
<stop stop-color="#F8F6FB"/>
<stop offset="1" stop-color="#EFDCFB"/>
</linearGradient>
<linearGradient id="paint15_linear_343_6700" x1="97.0247" y1="91.3112" x2="94.0421" y2="51.6189" gradientUnits="userSpaceOnUse">
<stop stop-color="#EFDCFB" stop-opacity="0"/>
<stop offset="0.0287" stop-color="#E9D6F7" stop-opacity="0.029"/>
<stop offset="0.2203" stop-color="#C5B5DE" stop-opacity="0.22"/>
<stop offset="0.4138" stop-color="#AA9BCB" stop-opacity="0.414"/>
<stop offset="0.6078" stop-color="#9688BD" stop-opacity="0.608"/>
<stop offset="0.8028" stop-color="#8A7DB5" stop-opacity="0.803"/>
<stop offset="1" stop-color="#8679B2"/>
</linearGradient>
<linearGradient id="paint16_linear_343_6700" x1="106.614" y1="74.1394" x2="98.571" y2="74.1394" gradientUnits="userSpaceOnUse">
<stop stop-color="#EFDCFB" stop-opacity="0"/>
<stop offset="0.0287" stop-color="#E9D6F7" stop-opacity="0.029"/>
<stop offset="0.2203" stop-color="#C5B5DE" stop-opacity="0.22"/>
<stop offset="0.4138" stop-color="#AA9BCB" stop-opacity="0.414"/>
<stop offset="0.6078" stop-color="#9688BD" stop-opacity="0.608"/>
<stop offset="0.8028" stop-color="#8A7DB5" stop-opacity="0.803"/>
<stop offset="1" stop-color="#8679B2"/>
</linearGradient>
<linearGradient id="paint17_linear_343_6700" x1="95.7162" y1="91.4991" x2="95.7162" y2="112.169" gradientUnits="userSpaceOnUse">
<stop stop-color="#EFDCFB" stop-opacity="0"/>
<stop offset="0.0287" stop-color="#E9D6F7" stop-opacity="0.029"/>
<stop offset="0.2203" stop-color="#C5B5DE" stop-opacity="0.22"/>
<stop offset="0.4138" stop-color="#AA9BCB" stop-opacity="0.414"/>
<stop offset="0.6078" stop-color="#9688BD" stop-opacity="0.608"/>
<stop offset="0.8028" stop-color="#8A7DB5" stop-opacity="0.803"/>
<stop offset="1" stop-color="#8679B2"/>
</linearGradient>
<radialGradient id="paint18_radial_343_6700" cx="0" cy="0" r="1" gradientUnits="userSpaceOnUse" gradientTransform="translate(95.8987 88.5662) scale(65.3591 35.4339)">
<stop stop-color="#FFB800"/>
<stop offset="0.2231" stop-color="#FFBA05"/>
<stop offset="0.4808" stop-color="#FFC113"/>
<stop offset="0.7546" stop-color="#FFCC2A"/>
<stop offset="1" stop-color="#FFD945"/>
</radialGradient>
<linearGradient id="paint19_linear_343_6700" x1="125.883" y1="86.4788" x2="130.409" y2="78.7178" gradientUnits="userSpaceOnUse">
<stop stop-color="#EFDCFB" stop-opacity="0"/>
<stop offset="0.0287" stop-color="#E9D6F7" stop-opacity="0.029"/>
<stop offset="0.2203" stop-color="#C5B5DE" stop-opacity="0.22"/>
<stop offset="0.4138" stop-color="#AA9BCB" stop-opacity="0.414"/>
<stop offset="0.6078" stop-color="#9688BD" stop-opacity="0.608"/>
<stop offset="0.8028" stop-color="#8A7DB5" stop-opacity="0.803"/>
<stop offset="1" stop-color="#8679B2"/>
</linearGradient>
<linearGradient id="paint20_linear_343_6700" x1="120.215" y1="85.0528" x2="123.787" y2="78.9259" gradientUnits="userSpaceOnUse">
<stop stop-color="#EFDCFB" stop-opacity="0"/>
<stop offset="0.0287" stop-color="#E9D6F7" stop-opacity="0.029"/>
<stop offset="0.2203" stop-color="#C5B5DE" stop-opacity="0.22"/>
<stop offset="0.4138" stop-color="#AA9BCB" stop-opacity="0.414"/>
<stop offset="0.6078" stop-color="#9688BD" stop-opacity="0.608"/>
<stop offset="0.8028" stop-color="#8A7DB5" stop-opacity="0.803"/>
<stop offset="1" stop-color="#8679B2"/>
</linearGradient>
<linearGradient id="paint21_linear_343_6700" x1="122.528" y1="90.6571" x2="124.682" y2="86.9633" gradientUnits="userSpaceOnUse">
<stop stop-color="#EFDCFB" stop-opacity="0"/>
<stop offset="0.0287" stop-color="#E9D6F7" stop-opacity="0.029"/>
<stop offset="0.2203" stop-color="#C5B5DE" stop-opacity="0.22"/>
<stop offset="0.4138" stop-color="#AA9BCB" stop-opacity="0.414"/>
<stop offset="0.6078" stop-color="#9688BD" stop-opacity="0.608"/>
<stop offset="0.8028" stop-color="#8A7DB5" stop-opacity="0.803"/>
<stop offset="1" stop-color="#8679B2"/>
</linearGradient>
<linearGradient id="paint22_linear_343_6700" x1="128.057" y1="93.9244" x2="134.563" y2="92.5955" gradientUnits="userSpaceOnUse">
<stop stop-color="#EFDCFB" stop-opacity="0"/>
<stop offset="0.0287" stop-color="#E9D6F7" stop-opacity="0.029"/>
<stop offset="0.2203" stop-color="#C5B5DE" stop-opacity="0.22"/>
<stop offset="0.4138" stop-color="#AA9BCB" stop-opacity="0.414"/>
<stop offset="0.6078" stop-color="#9688BD" stop-opacity="0.608"/>
<stop offset="0.8028" stop-color="#8A7DB5" stop-opacity="0.803"/>
<stop offset="1" stop-color="#8679B2"/>
</linearGradient>
<linearGradient id="paint23_linear_343_6700" x1="126.052" y1="90.0984" x2="131.188" y2="89.0493" gradientUnits="userSpaceOnUse">
<stop stop-color="#EFDCFB" stop-opacity="0"/>
<stop offset="0.0287" stop-color="#E9D6F7" stop-opacity="0.029"/>
<stop offset="0.2203" stop-color="#C5B5DE" stop-opacity="0.22"/>
<stop offset="0.4138" stop-color="#AA9BCB" stop-opacity="0.414"/>
<stop offset="0.6078" stop-color="#9688BD" stop-opacity="0.608"/>
<stop offset="0.8028" stop-color="#8A7DB5" stop-opacity="0.803"/>
<stop offset="1" stop-color="#8679B2"/>
</linearGradient>
<linearGradient id="paint24_linear_343_6700" x1="124.103" y1="94.1333" x2="127.199" y2="93.5008" gradientUnits="userSpaceOnUse">
<stop stop-color="#EFDCFB" stop-opacity="0"/>
<stop offset="0.0287" stop-color="#E9D6F7" stop-opacity="0.029"/>
<stop offset="0.2203" stop-color="#C5B5DE" stop-opacity="0.22"/>
<stop offset="0.4138" stop-color="#AA9BCB" stop-opacity="0.414"/>
<stop offset="0.6078" stop-color="#9688BD" stop-opacity="0.608"/>
<stop offset="0.8028" stop-color="#8A7DB5" stop-opacity="0.803"/>
<stop offset="1" stop-color="#8679B2"/>
</linearGradient>
<linearGradient id="paint25_linear_343_6700" x1="106.04" y1="62.9984" x2="93.8794" y2="62.9984" gradientUnits="userSpaceOnUse">
<stop stop-color="#F82814" stop-opacity="0"/>
<stop offset="1" stop-color="#C0272D"/>
</linearGradient>
<linearGradient id="paint26_linear_343_6700" x1="88.9807" y1="65.8933" x2="104.812" y2="81.495" gradientUnits="userSpaceOnUse">
<stop stop-color="#464F00"/>
<stop offset="0.2883" stop-color="#454518"/>
<stop offset="0.7468" stop-color="#443738"/>
<stop offset="1" stop-color="#433244"/>
</linearGradient>
<linearGradient id="paint27_linear_343_6700" x1="54.7562" y1="117.731" x2="59.3451" y2="140.445" gradientUnits="userSpaceOnUse">
<stop stop-color="#F8F6FB"/>
<stop offset="1" stop-color="#EFDCFB"/>
</linearGradient>
<linearGradient id="paint28_linear_343_6700" x1="56.0071" y1="132.016" x2="53.0245" y2="92.3237" gradientUnits="userSpaceOnUse">
<stop stop-color="#EFDCFB" stop-opacity="0"/>
<stop offset="0.0287" stop-color="#E9D6F7" stop-opacity="0.029"/>
<stop offset="0.2203" stop-color="#C5B5DE" stop-opacity="0.22"/>
<stop offset="0.4138" stop-color="#AA9BCB" stop-opacity="0.414"/>
<stop offset="0.6078" stop-color="#9688BD" stop-opacity="0.608"/>
<stop offset="0.8028" stop-color="#8A7DB5" stop-opacity="0.803"/>
<stop offset="1" stop-color="#8679B2"/>
</linearGradient>
<linearGradient id="paint29_linear_343_6700" x1="54.6986" y1="132.204" x2="54.6986" y2="152.873" gradientUnits="userSpaceOnUse">
<stop stop-color="#EFDCFB" stop-opacity="0"/>
<stop offset="0.0287" stop-color="#E9D6F7" stop-opacity="0.029"/>
<stop offset="0.2203" stop-color="#C5B5DE" stop-opacity="0.22"/>
<stop offset="0.4138" stop-color="#AA9BCB" stop-opacity="0.414"/>
<stop offset="0.6078" stop-color="#9688BD" stop-opacity="0.608"/>
<stop offset="0.8028" stop-color="#8A7DB5" stop-opacity="0.803"/>
<stop offset="1" stop-color="#8679B2"/>
</linearGradient>
<radialGradient id="paint30_radial_343_6700" cx="0" cy="0" r="1" gradientUnits="userSpaceOnUse" gradientTransform="translate(54.8992 138.069) scale(65.3591 35.4338)">
<stop stop-color="#F82814"/>
<stop offset="0.4249" stop-color="#F82A16"/>
<stop offset="0.614" stop-color="#F9301D"/>
<stop offset="0.7563" stop-color="#FA3B2A"/>
<stop offset="0.8752" stop-color="#FC4A3C"/>
<stop offset="0.9784" stop-color="#FE5E53"/>
<stop offset="1" stop-color="#FF6359"/>
</radialGradient>
<linearGradient id="paint31_linear_343_6700" x1="51.134" y1="99.3115" x2="37.5373" y2="77.897" gradientUnits="userSpaceOnUse">
<stop stop-color="#F82814" stop-opacity="0"/>
<stop offset="0.1947" stop-color="#F83B26" stop-opacity="0.195"/>
<stop offset="0.5899" stop-color="#F96D56" stop-opacity="0.59"/>
<stop offset="1" stop-color="#FAA68E"/>
</linearGradient>
<linearGradient id="paint32_linear_343_6700" x1="62.2671" y1="98.6714" x2="50.2607" y2="79.7611" gradientUnits="userSpaceOnUse">
<stop stop-color="#F82814" stop-opacity="0"/>
<stop offset="0.1947" stop-color="#F83B26" stop-opacity="0.195"/>
<stop offset="0.5899" stop-color="#F96D56" stop-opacity="0.59"/>
<stop offset="1" stop-color="#FAA68E"/>
</linearGradient>
<linearGradient id="paint33_linear_343_6700" x1="74.3799" y1="98.7604" x2="64.2976" y2="82.881" gradientUnits="userSpaceOnUse">
<stop stop-color="#F82814" stop-opacity="0"/>
<stop offset="0.1947" stop-color="#F83B26" stop-opacity="0.195"/>
<stop offset="0.5899" stop-color="#F96D56" stop-opacity="0.59"/>
<stop offset="1" stop-color="#FAA68E"/>
</linearGradient>
<linearGradient id="paint34_linear_343_6700" x1="86.0583" y1="101.738" x2="78.5471" y2="89.9081" gradientUnits="userSpaceOnUse">
<stop stop-color="#F82814" stop-opacity="0"/>
<stop offset="0.1947" stop-color="#F83B26" stop-opacity="0.195"/>
<stop offset="0.5899" stop-color="#F96D56" stop-opacity="0.59"/>
<stop offset="1" stop-color="#FAA68E"/>
</linearGradient>
<linearGradient id="paint35_linear_343_6700" x1="21.3235" y1="128.21" x2="13.5622" y2="123.684" gradientUnits="userSpaceOnUse">
<stop stop-color="#EFDCFB" stop-opacity="0"/>
<stop offset="0.0287" stop-color="#E9D6F7" stop-opacity="0.029"/>
<stop offset="0.2203" stop-color="#C5B5DE" stop-opacity="0.22"/>
<stop offset="0.4138" stop-color="#AA9BCB" stop-opacity="0.414"/>
<stop offset="0.6078" stop-color="#9688BD" stop-opacity="0.608"/>
<stop offset="0.8028" stop-color="#8A7DB5" stop-opacity="0.803"/>
<stop offset="1" stop-color="#8679B2"/>
</linearGradient>
<linearGradient id="paint36_linear_343_6700" x1="19.8974" y1="133.878" x2="13.7705" y2="130.306" gradientUnits="userSpaceOnUse">
<stop stop-color="#EFDCFB" stop-opacity="0"/>
<stop offset="0.0287" stop-color="#E9D6F7" stop-opacity="0.029"/>
<stop offset="0.2203" stop-color="#C5B5DE" stop-opacity="0.22"/>
<stop offset="0.4138" stop-color="#AA9BCB" stop-opacity="0.414"/>
<stop offset="0.6078" stop-color="#9688BD" stop-opacity="0.608"/>
<stop offset="0.8028" stop-color="#8A7DB5" stop-opacity="0.803"/>
<stop offset="1" stop-color="#8679B2"/>
</linearGradient>
<linearGradient id="paint37_linear_343_6700" x1="25.5018" y1="131.565" x2="21.8079" y2="129.411" gradientUnits="userSpaceOnUse">
<stop stop-color="#EFDCFB" stop-opacity="0"/>
<stop offset="0.0287" stop-color="#E9D6F7" stop-opacity="0.029"/>
<stop offset="0.2203" stop-color="#C5B5DE" stop-opacity="0.22"/>
<stop offset="0.4138" stop-color="#AA9BCB" stop-opacity="0.414"/>
<stop offset="0.6078" stop-color="#9688BD" stop-opacity="0.608"/>
<stop offset="0.8028" stop-color="#8A7DB5" stop-opacity="0.803"/>
<stop offset="1" stop-color="#8679B2"/>
</linearGradient>
<linearGradient id="paint38_linear_343_6700" x1="28.7286" y1="125.998" x2="27.3996" y2="119.492" gradientUnits="userSpaceOnUse">
<stop stop-color="#EFDCFB" stop-opacity="0"/>
<stop offset="0.0287" stop-color="#E9D6F7" stop-opacity="0.029"/>
<stop offset="0.2203" stop-color="#C5B5DE" stop-opacity="0.22"/>
<stop offset="0.4138" stop-color="#AA9BCB" stop-opacity="0.414"/>
<stop offset="0.6078" stop-color="#9688BD" stop-opacity="0.608"/>
<stop offset="0.8028" stop-color="#8A7DB5" stop-opacity="0.803"/>
<stop offset="1" stop-color="#8679B2"/>
</linearGradient>
<linearGradient id="paint39_linear_343_6700" x1="24.9029" y1="128.004" x2="23.8542" y2="122.868" gradientUnits="userSpaceOnUse">
<stop stop-color="#EFDCFB" stop-opacity="0"/>
<stop offset="0.0287" stop-color="#E9D6F7" stop-opacity="0.029"/>
<stop offset="0.2203" stop-color="#C5B5DE" stop-opacity="0.22"/>
<stop offset="0.4138" stop-color="#AA9BCB" stop-opacity="0.414"/>
<stop offset="0.6078" stop-color="#9688BD" stop-opacity="0.608"/>
<stop offset="0.8028" stop-color="#8A7DB5" stop-opacity="0.803"/>
<stop offset="1" stop-color="#8679B2"/>
</linearGradient>
<linearGradient id="paint40_linear_343_6700" x1="28.9377" y1="129.953" x2="28.3053" y2="126.856" gradientUnits="userSpaceOnUse">
<stop stop-color="#EFDCFB" stop-opacity="0"/>
<stop offset="0.0287" stop-color="#E9D6F7" stop-opacity="0.029"/>
<stop offset="0.2203" stop-color="#C5B5DE" stop-opacity="0.22"/>
<stop offset="0.4138" stop-color="#AA9BCB" stop-opacity="0.414"/>
<stop offset="0.6078" stop-color="#9688BD" stop-opacity="0.608"/>
<stop offset="0.8028" stop-color="#8A7DB5" stop-opacity="0.803"/>
<stop offset="1" stop-color="#8679B2"/>
</linearGradient>
</defs>
</svg>
