<svg width="141" height="150" viewBox="0 0 141 150" fill="none" xmlns="http://www.w3.org/2000/svg">
<path d="M91.6578 39.6838C95.9249 39.6838 99.384 36.2247 99.384 31.9576C99.384 27.6906 95.9249 24.2314 91.6578 24.2314C87.3908 24.2314 83.9316 27.6906 83.9316 31.9576C83.9316 36.2247 87.3908 39.6838 91.6578 39.6838Z" fill="url(#paint0_linear_343_6494)"/>
<path d="M33.978 100.087L35.6618 100.915C37.853 101.992 40.4162 102.009 42.6215 100.96C43.8141 100.393 45.19 100.353 46.4135 100.85L47.9253 101.463C49.845 102.242 52.0485 101.675 53.3535 100.065C53.9594 99.3181 54.9138 98.9448 55.8659 99.0828L59.7271 99.6422C61.4918 99.8978 63.2444 99.1075 64.2212 97.6157C65.213 96.1007 67.0035 95.3113 68.7909 95.6007C71.3744 96.0189 73.9041 94.596 74.888 92.1707L75.5174 90.6192C75.8518 89.7945 76.5674 89.1848 77.4344 88.9851L78.8068 88.6689C81.8777 87.9613 84.2715 85.5566 84.9656 82.4825C85.1697 81.5784 85.8186 80.8395 86.6886 80.5204C89.4436 79.5098 91.3338 76.9578 91.498 74.0281L91.5183 73.6648C91.5568 72.9775 91.8535 72.3298 92.3491 71.8519L93.3706 70.8669C95.7306 68.591 97.0577 65.4495 97.0436 62.171C97.04 61.3287 97.4253 60.5319 98.0877 60.0116C99.7953 58.6707 100.487 56.4084 99.8215 54.3416L99.5833 53.6019C99.3256 52.8019 99.4506 51.9278 99.9224 51.2322C101.679 48.6413 101.966 45.3245 100.679 42.4707L100.335 41.7066C100.031 41.0325 100.013 40.2637 100.286 39.5766C101.086 37.5622 100.232 35.2692 98.3088 34.2692L96.4409 33.2978C95.7756 32.9519 95.2818 32.3475 95.0756 31.6263C94.4538 29.4531 92.0794 28.3048 89.99 29.1666L89.5012 29.3684C88.7724 29.669 87.9491 29.6398 87.2433 29.2884L85.203 28.2728C83.4797 27.4151 81.3994 28.3157 80.8456 30.159C80.5471 31.1528 79.7109 31.8913 78.688 32.0651L78.3659 32.1198C76.1215 32.5013 74.5659 34.5695 74.8218 36.8316C74.9471 37.9392 74.3865 39.0119 73.4056 39.5416C71.8727 40.3689 71.353 42.316 72.2694 43.7975L72.5644 44.2745C73.2927 45.4516 73.0253 46.9872 71.9418 47.8487C70.1403 49.281 69.1797 51.5228 69.385 53.8151L69.3853 53.8169C69.5059 55.1628 68.6241 56.3942 67.3112 56.7137C64.8974 57.301 62.975 59.1216 62.2574 61.4998L62.1785 61.761C61.8253 62.9319 60.7365 63.7251 59.5138 63.7025L58.1724 63.6775C56.225 63.6413 54.3635 64.4772 53.0965 65.9563C52.3327 66.8481 51.0841 67.1516 49.9962 66.7101L49.2706 66.4157C46.6747 65.3625 43.8038 65.196 41.1035 65.9422C39.9235 66.2684 38.6709 65.7692 38.0385 64.721L37.5683 63.9416C36.4859 62.1481 34.3697 61.2575 32.3306 61.7378C31.2641 61.9889 30.1506 61.5781 29.5027 60.6945L28.4138 59.2095C27.1888 57.5389 24.9106 57.0437 23.1027 58.0554C22.3791 58.4601 21.5109 58.5145 20.7427 58.2028L17.3756 56.8366C15.9641 56.2639 14.3571 56.9569 13.8044 58.376C13.4197 59.3642 12.4971 60.0404 11.4388 60.1098L9.61148 60.2298C7.11737 60.3937 5.21472 62.5254 5.33413 65.0219C5.37766 65.9295 4.96678 66.7992 4.23825 67.3419L1.94972 69.0475C0.488837 70.1363 0.233543 72.2248 1.38943 73.6334C2.13295 74.5392 2.2156 75.8186 1.59443 76.8125C0.44472 78.6525 0.923837 81.0695 2.68854 82.3319L3.02707 82.5739C3.8409 83.1563 4.27119 84.1372 4.14825 85.1301C3.88648 87.2436 5.32119 89.1937 7.41678 89.5731L8.84178 89.831C9.60207 89.9686 10.2682 90.4216 10.6756 91.0781L11.7762 92.8516C12.9315 94.7134 15.0277 95.7766 17.2121 95.6089C18.8291 95.4848 20.4253 96.0354 21.6221 97.1301L22.0827 97.5513C24.2338 99.5187 27.2165 100.299 30.0556 99.6372C31.3756 99.3301 32.7615 99.4886 33.978 100.087V100.087Z" fill="url(#paint1_linear_343_6494)"/>
<path d="M93.3711 70.8664C95.7311 68.5905 97.0582 65.449 97.0441 62.1705C97.0405 61.3282 97.4258 60.5314 98.0882 60.0111C99.7958 58.6702 100.488 56.4079 99.822 54.3411L99.5838 53.6014C99.3261 52.8014 99.4511 51.9273 99.9229 51.2317C101.68 48.6408 101.966 45.324 100.68 42.4702L100.335 41.7061C100.031 41.032 100.014 40.2632 100.287 39.5761C101.086 37.5617 100.232 35.2687 98.3093 34.2687L96.4414 33.2973C96.2661 33.2061 96.1038 33.0961 95.9543 32.9717C96.0664 34.9196 95.5482 36.8832 94.4196 38.5473C93.9479 39.2429 93.8229 40.117 94.0805 40.917L94.3188 41.6567C94.9843 43.7232 94.2926 45.9858 92.5849 47.3267C91.9226 47.847 91.537 48.6437 91.5408 49.4861C91.5549 52.7646 90.2279 55.9061 87.8679 58.182L86.8464 59.167C86.3508 59.6449 86.0541 60.2923 86.0155 60.9799L85.9952 61.3432C85.8311 64.2732 83.9408 66.8249 81.1858 67.8355C80.3158 68.1546 79.667 68.8935 79.4629 69.7976C78.7688 72.8717 76.3749 75.2761 73.3041 75.984L71.9317 76.3002C71.0646 76.4999 70.3493 77.1099 70.0146 77.9343L69.3852 79.4858C68.4014 81.9111 65.8717 83.334 63.2882 82.9158C61.5008 82.6264 59.7105 83.4158 58.7185 84.9305C57.7417 86.4223 55.9891 87.2126 54.2243 86.957L50.3632 86.3976C49.4111 86.2596 48.4567 86.6329 47.8508 87.3802C46.5461 88.9896 44.3426 89.557 42.4226 88.7779L40.9108 88.1646C39.6873 87.6682 38.3114 87.7085 37.1188 88.2752C34.9138 89.3235 32.3502 89.3067 30.159 88.2293L28.4752 87.4014C27.2588 86.8035 25.8732 86.6449 24.5532 86.9526C21.714 87.6146 18.7314 86.834 16.5802 84.8667L16.1196 84.4455C14.9229 83.3511 13.3267 82.8005 11.7096 82.9243C9.52493 83.092 7.42904 82.0284 6.27375 80.167L5.17316 78.3934C4.76581 77.737 4.09963 77.2837 3.33934 77.1464L1.91434 76.8885C1.80551 76.8687 1.69963 76.8423 1.59434 76.8143C0.44669 78.654 0.925808 81.0693 2.68963 82.3314L3.02787 82.5735C3.84169 83.1558 4.27198 84.1367 4.14904 85.1296C3.88728 87.2432 5.32198 89.1932 7.41757 89.5726L8.84257 89.8305C9.60287 89.9682 10.269 90.4214 10.6764 91.0776L11.777 92.8511C12.9323 94.7129 15.0285 95.7761 17.2129 95.6085C18.8299 95.4843 20.4261 96.0349 21.6229 97.1296L22.0835 97.5508C24.2346 99.5182 27.2173 100.298 30.0564 99.6367C31.3764 99.329 32.7623 99.4876 33.9785 100.086L35.6623 100.913C37.8535 101.991 40.4167 102.008 42.622 100.959C43.8146 100.392 45.1905 100.352 46.414 100.849L47.9258 101.462C49.8455 102.241 52.0491 101.673 53.3541 100.064C53.9599 99.317 54.9143 98.9438 55.8664 99.0817L59.7276 99.6411C61.4923 99.8967 63.2449 99.1064 64.2217 97.6146C65.2135 96.0996 67.0041 95.3102 68.7914 95.5999C71.3749 96.0182 73.9046 94.5952 74.8885 92.1699L75.5179 90.6185C75.8523 89.7937 76.5679 89.184 77.4349 88.9843L78.8076 88.6679C81.8785 87.9602 84.2723 85.5555 84.9664 82.4814C85.1705 81.5773 85.8193 80.8385 86.6893 80.5193C89.4443 79.5088 91.3346 76.9567 91.4988 74.027L91.519 73.6637C91.5576 72.9764 91.8543 72.3287 92.3499 71.8508L93.3711 70.8664Z" fill="url(#paint2_linear_343_6494)"/>
<g opacity="0.6">
<g opacity="0.6">
<path opacity="0.6" d="M22.0671 68.234C23.3088 68.234 24.3153 67.2275 24.3153 65.9858C24.3153 64.7441 23.3088 63.7375 22.0671 63.7375C20.8254 63.7375 19.8188 64.7441 19.8188 65.9858C19.8188 67.2275 20.8254 68.234 22.0671 68.234Z" fill="url(#paint3_linear_343_6494)"/>
<path opacity="0.6" d="M16.0138 71.5788C16.9941 71.5788 17.7888 70.7841 17.7888 69.8038C17.7888 68.8235 16.9941 68.0288 16.0138 68.0288C15.0335 68.0288 14.2388 68.8235 14.2388 69.8038C14.2388 70.7841 15.0335 71.5788 16.0138 71.5788Z" fill="url(#paint4_linear_343_6494)"/>
<path opacity="0.6" d="M22.6227 75.1622C23.2137 75.1622 23.6927 74.6832 23.6927 74.0922C23.6927 73.5013 23.2137 73.0222 22.6227 73.0222C22.0318 73.0222 21.5527 73.5013 21.5527 74.0922C21.5527 74.6832 22.0318 75.1622 22.6227 75.1622Z" fill="url(#paint5_linear_343_6494)"/>
</g>
<g opacity="0.6">
<path opacity="0.6" d="M32.4463 73.6861C33.3638 73.6861 34.1075 72.9424 34.1075 72.025C34.1075 71.1075 33.3638 70.3638 32.4463 70.3638C31.5289 70.3638 30.7852 71.1075 30.7852 72.025C30.7852 72.9424 31.5289 73.6861 32.4463 73.6861Z" fill="url(#paint6_linear_343_6494)"/>
<path opacity="0.6" d="M27.3613 71.8834C28.0856 71.8834 28.6727 71.2963 28.6727 70.572C28.6727 69.8477 28.0856 69.2605 27.3613 69.2605C26.637 69.2605 26.0498 69.8477 26.0498 70.572C26.0498 71.2963 26.637 71.8834 27.3613 71.8834Z" fill="url(#paint7_linear_343_6494)"/>
<path opacity="0.6" d="M28.2554 77.1154C28.6921 77.1154 29.046 76.7614 29.046 76.3248C29.046 75.8881 28.6921 75.5342 28.2554 75.5342C27.8188 75.5342 27.4648 75.8881 27.4648 76.3248C27.4648 76.7614 27.8188 77.1154 28.2554 77.1154Z" fill="url(#paint8_linear_343_6494)"/>
</g>
<g opacity="0.6">
<path opacity="0.6" d="M93.3985 52.145C94.5185 52.145 95.4265 51.2371 95.4265 50.1171C95.4265 48.9971 94.5185 48.0891 93.3985 48.0891C92.2785 48.0891 91.3706 48.9971 91.3706 50.1171C91.3706 51.2371 92.2785 52.145 93.3985 52.145Z" fill="url(#paint9_linear_343_6494)"/>
<path opacity="0.6" d="M87.191 49.9443C88.0753 49.9443 88.7922 49.2274 88.7922 48.3431C88.7922 47.4588 88.0753 46.7419 87.191 46.7419C86.3067 46.7419 85.5898 47.4588 85.5898 48.3431C85.5898 49.2274 86.3067 49.9443 87.191 49.9443Z" fill="url(#paint10_linear_343_6494)"/>
<path opacity="0.6" d="M88.2822 56.331C88.8153 56.331 89.2475 55.8988 89.2475 55.3657C89.2475 54.8326 88.8153 54.4004 88.2822 54.4004C87.7491 54.4004 87.3169 54.8326 87.3169 55.3657C87.3169 55.8988 87.7491 56.331 88.2822 56.331Z" fill="url(#paint11_linear_343_6494)"/>
</g>
</g>
<path d="M84.5646 7.21617C85.5885 2.42264 89.8014 -0.740886 93.9749 0.15029C98.1485 1.04147 100.702 5.65 99.6782 10.4438C98.6543 15.2373 94.4414 18.4009 90.2679 17.5097C86.0943 16.6185 83.5411 12.0097 84.5646 7.21617V7.21617Z" fill="url(#paint12_linear_343_6494)"/>
<path d="M84.5644 7.21626C87.2735 13.1336 92.4471 13.2898 97.13 7.59567C102.661 0.87008 106.963 -0.0325674 109.64 0.539197C117.946 2.31273 104.595 29.7066 94.8988 27.636C85.2024 25.5654 82.5103 16.836 84.5644 7.21626V7.21626Z" fill="url(#paint13_linear_343_6494)"/>
<path d="M99.4894 64.9094C103.756 64.9094 107.216 61.4503 107.216 57.1832C107.216 52.9162 103.756 49.457 99.4894 49.457C95.2223 49.457 91.7632 52.9162 91.7632 57.1832C91.7632 61.4503 95.2223 64.9094 99.4894 64.9094Z" fill="url(#paint14_linear_343_6494)"/>
<path d="M48.8836 130.72L50.6415 131.376C52.9292 132.229 55.4812 131.991 57.571 130.728C58.7012 130.045 60.0662 129.868 61.3333 130.24L62.8986 130.7C64.8865 131.284 67.0224 130.499 68.1604 128.768C68.6889 127.964 69.6012 127.498 70.5624 127.54L74.4601 127.712C76.2412 127.79 77.9065 126.829 78.7298 125.248C79.5657 123.642 81.2686 122.678 83.0759 122.788C85.6883 122.947 88.0636 121.279 88.8009 118.767L89.2727 117.161C89.5233 116.307 90.1745 115.629 91.0174 115.344L92.3515 114.892C95.3365 113.882 97.4792 111.251 97.8636 108.123C97.9765 107.203 98.5486 106.404 99.3827 105.999C102.023 104.719 103.65 101.992 103.522 99.0598L103.506 98.6962C103.475 98.0083 103.706 97.3345 104.152 96.8098L105.07 95.7277C107.192 93.2283 108.199 89.9701 107.858 86.7092C107.771 85.8715 108.075 85.0401 108.682 84.4565C110.248 82.9521 110.711 80.6321 109.842 78.6421L109.532 77.9298C109.196 77.1595 109.233 76.2771 109.633 75.538C111.123 72.7851 111.078 69.4559 109.513 66.7448L109.094 66.0189C108.725 65.3783 108.631 64.6154 108.834 63.9042C109.429 61.8201 108.351 59.6239 106.338 58.8204L104.382 58.0398C103.686 57.7618 103.134 57.2095 102.857 56.5127C102.022 54.4124 99.5451 53.5062 97.5515 54.5718L97.0851 54.8212C96.3898 55.193 95.5677 55.2459 94.8307 54.9665L92.6995 54.1592C90.8995 53.4774 88.9192 54.5806 88.5515 56.4701C88.3536 57.4886 87.5951 58.3068 86.5948 58.5818L86.2798 58.6683C84.0845 59.2715 82.7427 61.4845 83.2227 63.7098C83.4577 64.7995 83.0068 65.9227 82.0833 66.5471C80.6407 67.523 80.3174 69.5124 81.3768 70.8948L81.718 71.3401C82.5601 72.4386 82.4468 73.9933 81.4545 74.9583C79.8048 76.563 79.0721 78.8895 79.5048 81.1498L79.5051 81.1515C79.7592 82.4786 79.0042 83.7918 77.7298 84.2404C75.3865 85.0651 73.6551 87.0686 73.178 89.5062L73.1257 89.7739C72.891 90.9742 71.8865 91.8718 70.6674 91.9709L69.3301 92.0798C67.3889 92.2377 65.6198 93.2548 64.5065 94.853C63.8354 95.8165 62.6233 96.243 61.4965 95.9121L60.7451 95.6915C58.0571 94.9021 55.1839 95.0227 52.5715 96.0342C51.4301 96.4762 50.1339 96.1045 49.4001 95.1245L48.8542 94.3957C47.5983 92.7189 45.4042 92.0436 43.423 92.7248C42.3868 93.0809 41.238 92.7833 40.5054 91.9686L39.2739 90.5995C37.8886 89.0592 35.5721 88.7936 33.8742 89.9801C33.1948 90.4551 32.3362 90.5954 31.5407 90.3618L28.0542 89.338C26.5927 88.9089 25.0627 89.7583 24.6542 91.2256C24.3698 92.2474 23.5192 93.0121 22.473 93.1865L20.6668 93.488C18.2015 93.8995 16.5207 96.2104 16.8883 98.6824C17.0218 99.5812 16.6998 100.487 16.0292 101.1L13.9218 103.025C12.5765 104.254 12.5307 106.358 13.8212 107.644C14.6512 108.471 14.861 109.736 14.3421 110.787C13.3815 112.732 14.0989 115.089 15.9807 116.17L16.3415 116.377C17.2095 116.875 17.7351 117.808 17.7118 118.809C17.6621 120.938 19.2839 122.735 21.4068 122.904L22.8504 123.019C23.6204 123.08 24.3286 123.464 24.7995 124.077L26.0712 125.732C27.4062 127.469 29.5977 128.319 31.7548 127.934C33.3512 127.65 34.9945 128.039 36.2945 129.008L36.7948 129.382C39.1312 131.125 42.1768 131.604 44.936 130.663C46.2192 130.227 47.6139 130.246 48.8836 130.72V130.72Z" fill="url(#paint15_linear_343_6494)"/>
<path d="M105.07 95.7276C107.191 93.2282 108.199 89.97 107.858 86.7091C107.771 85.8715 108.075 85.04 108.682 84.4565C110.248 82.9521 110.71 80.6321 109.842 78.6421L109.532 77.93C109.195 77.1597 109.233 76.2773 109.633 75.5382C111.123 72.7853 111.078 69.4562 109.513 66.745L109.094 66.0191C108.725 65.3785 108.63 64.6156 108.834 63.9044C109.429 61.8203 108.35 59.6241 106.338 58.8206L104.382 58.04C104.198 57.9668 104.026 57.8735 103.865 57.7644C104.17 59.6915 103.85 61.6971 102.893 63.4653C102.493 64.2044 102.456 65.0868 102.792 65.8571L103.103 66.5694C103.971 68.5594 103.508 70.8797 101.942 72.3838C101.335 72.9673 101.031 73.7985 101.118 74.6365C101.459 77.8973 100.452 81.1553 98.3302 83.655L97.4119 84.737C96.9663 85.262 96.7358 85.9359 96.7658 86.6235L96.7816 86.9871C96.9102 89.9188 95.2834 92.6462 92.6428 93.9265C91.8087 94.3309 91.2369 95.1306 91.1237 96.0506C90.7393 99.1785 88.5969 101.81 85.6116 102.82L84.2775 103.271C83.4346 103.556 82.7837 104.234 82.5328 105.088L82.061 106.695C81.3237 109.206 78.9484 110.874 76.336 110.715C74.5287 110.605 72.8258 111.569 71.9899 113.175C71.1666 114.756 69.5013 115.718 67.7202 115.639L63.8225 115.467C62.8613 115.425 61.949 115.891 61.4205 116.695C60.2825 118.426 58.1466 119.211 56.1587 118.627L54.5934 118.167C53.3263 117.795 51.9613 117.972 50.831 118.655C48.7413 119.918 46.189 120.156 43.9016 119.303L42.1437 118.647C40.8737 118.173 39.479 118.154 38.1963 118.591C35.4375 119.533 32.3916 119.053 30.0552 117.31L29.5549 116.937C28.2552 115.967 26.6119 115.578 25.0152 115.863C22.8581 116.247 20.6666 115.398 19.3316 113.661L18.0599 112.005C17.5893 111.393 16.881 111.008 16.1108 110.947L14.6672 110.832C14.5569 110.824 14.449 110.808 14.3416 110.791C13.3828 112.736 14.1005 115.091 15.9813 116.171L16.3422 116.378C17.2102 116.876 17.7357 117.81 17.7125 118.81C17.6628 120.939 19.2846 122.736 21.4075 122.905L22.851 123.02C23.621 123.081 24.3293 123.466 24.7999 124.078L26.0716 125.734C27.4066 127.471 29.5981 128.32 31.7552 127.936C33.3516 127.651 34.9949 128.04 36.2949 129.01L36.7952 129.383C39.1316 131.126 42.1772 131.606 44.9363 130.664C46.219 130.226 47.614 130.246 48.8837 130.72L50.6416 131.376C52.9293 132.229 55.4813 131.991 57.571 130.728C58.7013 130.045 60.0663 129.868 61.3334 130.24L62.8987 130.7C64.8866 131.284 67.0225 130.499 68.1605 128.768C68.689 127.964 69.6013 127.498 70.5625 127.54L74.4602 127.712C76.2413 127.79 77.9066 126.829 78.7299 125.248C79.5657 123.641 81.2687 122.678 83.076 122.788C85.6884 122.946 88.0637 121.279 88.801 118.767L89.2728 117.161C89.5234 116.307 90.1746 115.629 91.0175 115.344L92.3516 114.892C95.3366 113.882 97.4793 111.251 97.8637 108.123C97.9766 107.203 98.5487 106.404 99.3828 105.999C102.023 104.719 103.65 101.991 103.522 99.0597L103.506 98.6962C103.475 98.0082 103.706 97.3344 104.152 96.8097L105.07 95.7276Z" fill="url(#paint16_linear_343_6494)"/>
<g opacity="0.6">
<g opacity="0.6">
<path opacity="0.6" d="M33.6359 100.224C34.8776 100.224 35.8842 99.2169 35.8842 97.9753C35.8842 96.7336 34.8776 95.7271 33.6359 95.7271C32.3943 95.7271 31.3877 96.7336 31.3877 97.9753C31.3877 99.2169 32.3943 100.224 33.6359 100.224Z" fill="url(#paint17_linear_343_6494)"/>
<path opacity="0.6" d="M27.9923 104.152C28.9726 104.152 29.7673 103.358 29.7673 102.377C29.7673 101.397 28.9726 100.602 27.9923 100.602C27.012 100.602 26.2173 101.397 26.2173 102.377C26.2173 103.358 27.012 104.152 27.9923 104.152Z" fill="url(#paint18_linear_343_6494)"/>
<path opacity="0.6" d="M34.9958 107.057C35.5867 107.057 36.0658 106.577 36.0658 105.987C36.0658 105.396 35.5867 104.917 34.9958 104.917C34.4048 104.917 33.9258 105.396 33.9258 105.987C33.9258 106.577 34.4048 107.057 34.9958 107.057Z" fill="url(#paint19_linear_343_6494)"/>
</g>
<g opacity="0.6">
<path opacity="0.6" d="M44.5645 104.612C45.4819 104.612 46.2257 103.868 46.2257 102.95C46.2257 102.033 45.4819 101.289 44.5645 101.289C43.6471 101.289 42.9033 102.033 42.9033 102.95C42.9033 103.868 43.6471 104.612 44.5645 104.612Z" fill="url(#paint20_linear_343_6494)"/>
<path opacity="0.6" d="M39.3598 103.323C40.0841 103.323 40.6713 102.736 40.6713 102.011C40.6713 101.287 40.0841 100.7 39.3598 100.7C38.6355 100.7 38.0483 101.287 38.0483 102.011C38.0483 102.736 38.6355 103.323 39.3598 103.323Z" fill="url(#paint21_linear_343_6494)"/>
<path opacity="0.6" d="M40.8223 108.437C41.259 108.437 41.6129 108.083 41.6129 107.646C41.6129 107.21 41.259 106.856 40.8223 106.856C40.3857 106.856 40.0317 107.21 40.0317 107.646C40.0317 108.083 40.3857 108.437 40.8223 108.437Z" fill="url(#paint22_linear_343_6494)"/>
</g>
<g opacity="0.6">
<path opacity="0.6" d="M103.03 77.1067C104.15 77.1067 105.058 76.1987 105.058 75.0787C105.058 73.9587 104.15 73.0508 103.03 73.0508C101.91 73.0508 101.002 73.9587 101.002 75.0787C101.002 76.1987 101.91 77.1067 103.03 77.1067Z" fill="url(#paint23_linear_343_6494)"/>
<path opacity="0.6" d="M96.6769 75.5334C97.5612 75.5334 98.278 74.8165 98.278 73.9322C98.278 73.0479 97.5612 72.3311 96.6769 72.3311C95.7926 72.3311 95.0757 73.0479 95.0757 73.9322C95.0757 74.8165 95.7926 75.5334 96.6769 75.5334Z" fill="url(#paint24_linear_343_6494)"/>
<path opacity="0.6" d="M98.4624 81.7763C98.9955 81.7763 99.4277 81.3441 99.4277 80.811C99.4277 80.2779 98.9955 79.8457 98.4624 79.8457C97.9293 79.8457 97.4971 80.2779 97.4971 80.811C97.4971 81.3441 97.9293 81.7763 98.4624 81.7763Z" fill="url(#paint25_linear_343_6494)"/>
</g>
</g>
<path d="M89.9664 33.2717C90.5073 28.4 94.3844 24.8323 98.6261 25.3035C102.868 25.7747 105.868 30.1059 105.326 34.9776C104.785 39.8494 100.908 43.417 96.6667 42.9459C92.4252 42.4747 89.4252 38.1435 89.9664 33.2717V33.2717Z" fill="url(#paint26_linear_343_6494)"/>
<path d="M89.966 33.2717C93.2513 38.89 98.4146 38.5297 102.507 32.3973C107.34 25.1541 111.531 23.8276 114.252 24.1297C122.693 25.067 112.138 53.6547 102.283 52.5603C92.4287 51.4659 88.8802 43.0482 89.966 33.2717V33.2717Z" fill="url(#paint27_linear_343_6494)"/>
<path d="M122.86 83.029C127.127 83.029 130.586 79.5699 130.586 75.3028C130.586 71.0358 127.127 67.5767 122.86 67.5767C118.593 67.5767 115.134 71.0358 115.134 75.3028C115.134 79.5699 118.593 83.029 122.86 83.029Z" fill="url(#paint28_linear_343_6494)"/>
<path d="M72.2546 148.84L74.0125 149.495C76.3002 150.349 78.8523 150.11 80.942 148.848C82.0723 148.165 83.4373 147.988 84.7043 148.36L86.2696 148.819C88.2575 149.403 90.3934 148.619 91.5314 146.888C92.0599 146.084 92.9723 145.617 93.9334 145.66L97.8311 145.831C99.6122 145.91 101.278 144.949 102.101 143.367C102.937 141.761 104.64 140.797 106.447 140.907C109.059 141.066 111.435 139.398 112.172 136.887L112.644 135.28C112.894 134.427 113.545 133.749 114.388 133.463L115.723 133.012C118.708 132.002 120.85 129.371 121.235 126.243C121.348 125.323 121.92 124.523 122.754 124.119C125.394 122.839 127.021 120.111 126.893 117.179L126.877 116.816C126.846 116.128 127.077 115.454 127.523 114.929L128.441 113.847C130.563 111.348 131.57 108.09 131.229 104.829C131.142 103.991 131.446 103.16 132.053 102.576C133.619 101.072 134.082 98.7516 133.213 96.7616L132.903 96.0493C132.567 95.279 132.604 94.3966 133.004 93.6575C134.494 90.9046 134.449 87.5755 132.884 84.8643L132.465 84.1384C132.096 83.4978 132.002 82.7349 132.205 82.0237C132.8 79.9396 131.722 77.7434 129.709 76.9399L127.753 76.1593C127.057 75.8813 126.505 75.329 126.228 74.6322C125.393 72.5319 122.916 71.6258 120.923 72.6914L120.456 72.9411C119.761 73.3128 118.939 73.3658 118.202 73.0866L116.071 72.2793C114.271 71.5975 112.29 72.7008 111.923 74.5902C111.725 75.6087 110.966 76.4269 109.966 76.7019L109.651 76.7884C107.456 77.3916 106.114 79.6046 106.594 81.8299C106.829 82.9196 106.378 84.0428 105.455 84.6672C104.012 85.6431 103.689 87.6325 104.748 89.0149L105.089 89.4602C105.931 90.5587 105.818 92.1134 104.826 93.0784C103.176 94.6831 102.443 97.0096 102.876 99.2699L102.876 99.2716C103.13 100.599 102.375 101.912 101.101 102.36C98.7578 103.185 97.0264 105.189 96.5493 107.626L96.497 107.894C96.2623 109.094 95.2578 109.992 94.0387 110.091L92.7014 110.2C90.7602 110.358 88.9911 111.375 87.8778 112.973C87.2067 113.937 85.9946 114.363 84.8681 114.032L84.1167 113.812C81.4287 113.022 78.5555 113.143 75.9431 114.154C74.8017 114.596 73.5055 114.225 72.7717 113.245L72.2258 112.516C70.9699 110.839 68.7758 110.164 66.7946 110.845C65.7584 111.201 64.6096 110.903 63.877 110.089L62.6455 108.72C61.2602 107.179 58.9437 106.914 57.2458 108.1C56.5664 108.575 55.7078 108.715 54.9122 108.482L51.4258 107.458C49.9643 107.029 48.4343 107.878 48.0258 109.346C47.7414 110.368 46.8908 111.132 45.8446 111.307L44.0384 111.608C41.5731 112.02 39.8922 114.33 40.2599 116.803C40.3934 117.701 40.0714 118.608 39.4008 119.22L37.2934 121.145C35.9481 122.374 35.9022 124.478 37.1928 125.764C38.0228 126.591 38.2325 127.856 37.7137 128.907C36.7531 130.853 37.4705 133.21 39.3522 134.29L39.7131 134.497C40.5811 134.995 41.1067 135.928 41.0834 136.929C41.0337 139.058 42.6555 140.855 44.7784 141.024L46.2219 141.139C46.9919 141.2 47.7002 141.584 48.1711 142.197L49.4428 143.852C50.7778 145.59 52.9693 146.439 55.1264 146.054C56.7228 145.77 58.3661 146.159 59.6661 147.128L60.1664 147.502C62.5028 149.245 65.5484 149.724 68.3075 148.783C69.5902 148.346 70.9849 148.366 72.2546 148.84V148.84Z" fill="url(#paint29_linear_343_6494)"/>
<path d="M128.441 113.847C130.563 111.348 131.57 108.09 131.229 104.829C131.142 103.991 131.446 103.16 132.053 102.576C133.619 101.072 134.082 98.7517 133.214 96.7617L132.903 96.0494C132.567 95.2791 132.604 94.3967 133.004 93.6576C134.494 90.9047 134.449 87.5756 132.884 84.8644L132.466 84.1385C132.096 83.4979 132.002 82.735 132.205 82.0238C132.8 79.9397 131.722 77.7435 129.709 76.94L127.753 76.1594C127.57 76.0861 127.397 75.9929 127.236 75.8838C127.542 77.8108 127.222 79.8164 126.265 81.5847C125.865 82.3238 125.827 83.2061 126.163 83.9764L126.474 84.6888C127.342 86.6788 126.879 88.9991 125.314 90.5032C124.706 91.0867 124.402 91.9179 124.49 92.7558C124.83 96.0167 123.823 99.2747 121.701 101.774L120.783 102.856C120.338 103.381 120.107 104.055 120.137 104.743L120.153 105.106C120.281 108.038 118.655 110.766 116.014 112.046C115.18 112.45 114.608 113.25 114.495 114.17C114.111 117.298 111.968 119.929 108.983 120.939L107.649 121.391C106.806 121.676 106.155 122.354 105.904 123.208L105.432 124.814C104.695 127.325 102.32 128.993 99.7073 128.834C97.9 128.724 96.197 129.688 95.3612 131.294C94.5379 132.876 92.8726 133.837 91.0915 133.758L87.1938 133.587C86.2326 133.544 85.3203 134.011 84.7917 134.815C83.6538 136.546 81.5179 137.33 79.53 136.746L77.9647 136.286C76.6976 135.914 75.3326 136.091 74.2023 136.774C72.1126 138.037 69.5603 138.276 67.2729 137.422L65.515 136.766C64.245 136.293 62.8503 136.273 61.5676 136.711C58.8088 137.652 55.7629 137.173 53.4265 135.429L52.9262 135.056C51.6264 134.086 49.9832 133.698 48.3865 133.982C46.2294 134.366 44.0379 133.517 42.7029 131.78L41.4312 130.125C40.9606 129.512 40.2523 129.128 39.4823 129.066L38.0388 128.952C37.9285 128.943 37.8206 128.927 37.7132 128.91C36.7544 130.855 37.472 133.211 39.3529 134.291L39.7138 134.498C40.5817 134.996 41.1073 135.929 41.0841 136.929C41.0344 139.059 42.6562 140.856 44.7791 141.025L46.2226 141.139C46.9926 141.201 47.7009 141.585 48.1714 142.198L49.4432 143.853C50.7782 145.59 52.9697 146.439 55.1267 146.055C56.7232 145.771 58.3665 146.159 59.6665 147.129L60.1667 147.502C62.5032 149.246 65.5488 149.725 68.3079 148.784C69.5906 148.346 70.9856 148.366 72.2553 148.839L74.0132 149.495C76.3009 150.349 78.8529 150.11 80.9426 148.847C82.0729 148.164 83.4379 147.987 84.705 148.359L86.2703 148.819C88.2582 149.403 90.3941 148.619 91.532 146.887C92.0606 146.084 92.9729 145.617 93.9341 145.659L97.8317 145.831C99.6129 145.91 101.278 144.949 102.101 143.367C102.937 141.761 104.64 140.797 106.448 140.907C109.06 141.066 111.435 139.398 112.173 136.887L112.644 135.28C112.895 134.426 113.546 133.748 114.389 133.463L115.723 133.012C118.708 132.001 120.851 129.371 121.235 126.243C121.348 125.323 121.92 124.523 122.754 124.118C125.395 122.838 127.022 120.111 126.893 117.179L126.877 116.816C126.847 116.128 127.078 115.454 127.524 114.929L128.441 113.847Z" fill="url(#paint30_linear_343_6494)"/>
<g opacity="0.6">
<g opacity="0.6">
<path opacity="0.6" d="M57.0065 118.343C58.2482 118.343 59.2548 117.337 59.2548 116.095C59.2548 114.853 58.2482 113.847 57.0065 113.847C55.7649 113.847 54.7583 114.853 54.7583 116.095C54.7583 117.337 55.7649 118.343 57.0065 118.343Z" fill="url(#paint31_linear_343_6494)"/>
<path opacity="0.6" d="M51.3629 122.272C52.3432 122.272 53.1379 121.477 53.1379 120.497C53.1379 119.517 52.3432 118.722 51.3629 118.722C50.3826 118.722 49.5879 119.517 49.5879 120.497C49.5879 121.477 50.3826 122.272 51.3629 122.272Z" fill="url(#paint32_linear_343_6494)"/>
<path opacity="0.6" d="M58.3664 125.176C58.9573 125.176 59.4364 124.697 59.4364 124.106C59.4364 123.515 58.9573 123.036 58.3664 123.036C57.7754 123.036 57.2964 123.515 57.2964 124.106C57.2964 124.697 57.7754 125.176 58.3664 125.176Z" fill="url(#paint33_linear_343_6494)"/>
</g>
<g opacity="0.6">
<path opacity="0.6" d="M67.9351 122.731C68.8526 122.731 69.5963 121.987 69.5963 121.07C69.5963 120.152 68.8526 119.408 67.9351 119.408C67.0177 119.408 66.2739 120.152 66.2739 121.07C66.2739 121.987 67.0177 122.731 67.9351 122.731Z" fill="url(#paint34_linear_343_6494)"/>
<path opacity="0.6" d="M62.7304 121.442C63.4547 121.442 64.0419 120.855 64.0419 120.131C64.0419 119.406 63.4547 118.819 62.7304 118.819C62.0061 118.819 61.4189 119.406 61.4189 120.131C61.4189 120.855 62.0061 121.442 62.7304 121.442Z" fill="url(#paint35_linear_343_6494)"/>
<path opacity="0.6" d="M64.1929 126.556C64.6296 126.556 64.9835 126.202 64.9835 125.766C64.9835 125.329 64.6296 124.975 64.1929 124.975C63.7563 124.975 63.4023 125.329 63.4023 125.766C63.4023 126.202 63.7563 126.556 64.1929 126.556Z" fill="url(#paint36_linear_343_6494)"/>
</g>
<g opacity="0.6">
<path opacity="0.6" d="M126.4 95.2261C127.52 95.2261 128.428 94.3181 128.428 93.1981C128.428 92.0781 127.52 91.1702 126.4 91.1702C125.28 91.1702 124.373 92.0781 124.373 93.1981C124.373 94.3181 125.28 95.2261 126.4 95.2261Z" fill="url(#paint37_linear_343_6494)"/>
<path opacity="0.6" d="M120.047 93.6528C120.932 93.6528 121.649 92.9359 121.649 92.0516C121.649 91.1673 120.932 90.4504 120.047 90.4504C119.163 90.4504 118.446 91.1673 118.446 92.0516C118.446 92.9359 119.163 93.6528 120.047 93.6528Z" fill="url(#paint38_linear_343_6494)"/>
<path opacity="0.6" d="M121.833 99.8957C122.366 99.8957 122.798 99.4635 122.798 98.9304C122.798 98.3973 122.366 97.9651 121.833 97.9651C121.3 97.9651 120.868 98.3973 120.868 98.9304C120.868 99.4635 121.3 99.8957 121.833 99.8957Z" fill="url(#paint39_linear_343_6494)"/>
</g>
</g>
<path d="M113.338 51.3914C113.879 46.5196 117.755 42.952 121.997 43.4231C126.239 43.8943 129.239 48.2255 128.698 53.0972C128.156 57.969 124.28 61.5367 120.038 61.0655C115.796 60.5943 112.796 56.2631 113.338 51.3914Z" fill="url(#paint40_linear_343_6494)"/>
<path d="M113.337 51.3914C116.622 57.0096 121.786 56.6493 125.878 50.517C130.711 43.2737 134.902 41.9473 137.623 42.2493C146.064 43.1867 135.509 71.7743 125.655 70.6799C115.8 69.5855 112.251 61.1681 113.337 51.3914V51.3914Z" fill="url(#paint41_linear_343_6494)"/>
<defs>
<linearGradient id="paint0_linear_343_6494" x1="90.2259" y1="24.116" x2="92.4834" y2="36.249" gradientUnits="userSpaceOnUse">
<stop stop-color="#FF6359"/>
<stop offset="0.2243" stop-color="#FE5B50"/>
<stop offset="0.5952" stop-color="#FC4637"/>
<stop offset="1" stop-color="#F82814"/>
</linearGradient>
<linearGradient id="paint1_linear_343_6494" x1="50.9588" y1="59.5263" x2="55.3706" y2="108.644" gradientUnits="userSpaceOnUse">
<stop stop-color="#FFD945"/>
<stop offset="0.3043" stop-color="#FFCD3E"/>
<stop offset="0.8558" stop-color="#FFAD2B"/>
<stop offset="1" stop-color="#FFA325"/>
</linearGradient>
<linearGradient id="paint2_linear_343_6494" x1="56.8559" y1="65.7482" x2="133.87" y2="133.552" gradientUnits="userSpaceOnUse">
<stop stop-color="#F82814" stop-opacity="0"/>
<stop offset="0.2454" stop-color="#F12817" stop-opacity="0.245"/>
<stop offset="0.6052" stop-color="#DD2820" stop-opacity="0.605"/>
<stop offset="1" stop-color="#C0272D"/>
</linearGradient>
<linearGradient id="paint3_linear_343_6494" x1="22.715" y1="69.7157" x2="20.7578" y2="59.253" gradientUnits="userSpaceOnUse">
<stop stop-color="#F82814" stop-opacity="0"/>
<stop offset="0.2454" stop-color="#F12817" stop-opacity="0.245"/>
<stop offset="0.6052" stop-color="#DD2820" stop-opacity="0.605"/>
<stop offset="1" stop-color="#C0272D"/>
</linearGradient>
<linearGradient id="paint4_linear_343_6494" x1="16.5298" y1="72.8298" x2="14.9845" y2="64.5699" gradientUnits="userSpaceOnUse">
<stop stop-color="#F82814" stop-opacity="0"/>
<stop offset="0.2454" stop-color="#F12817" stop-opacity="0.245"/>
<stop offset="0.6052" stop-color="#DD2820" stop-opacity="0.605"/>
<stop offset="1" stop-color="#C0272D"/>
</linearGradient>
<linearGradient id="paint5_linear_343_6494" x1="22.9455" y1="76.0605" x2="22.0139" y2="71.0808" gradientUnits="userSpaceOnUse">
<stop stop-color="#F82814" stop-opacity="0"/>
<stop offset="0.2454" stop-color="#F12817" stop-opacity="0.245"/>
<stop offset="0.6052" stop-color="#DD2820" stop-opacity="0.605"/>
<stop offset="1" stop-color="#C0272D"/>
</linearGradient>
<linearGradient id="paint6_linear_343_6494" x1="30.6692" y1="73.8537" x2="35.4741" y2="67.6247" gradientUnits="userSpaceOnUse">
<stop stop-color="#F82814" stop-opacity="0"/>
<stop offset="0.2454" stop-color="#F12817" stop-opacity="0.245"/>
<stop offset="0.6052" stop-color="#DD2820" stop-opacity="0.605"/>
<stop offset="1" stop-color="#C0272D"/>
</linearGradient>
<linearGradient id="paint7_linear_343_6494" x1="25.9075" y1="71.9762" x2="29.7009" y2="67.0587" gradientUnits="userSpaceOnUse">
<stop stop-color="#F82814" stop-opacity="0"/>
<stop offset="0.2454" stop-color="#F12817" stop-opacity="0.245"/>
<stop offset="0.6052" stop-color="#DD2820" stop-opacity="0.605"/>
<stop offset="1" stop-color="#C0272D"/>
</linearGradient>
<linearGradient id="paint8_linear_343_6494" x1="27.2844" y1="77.104" x2="29.5713" y2="74.1393" gradientUnits="userSpaceOnUse">
<stop stop-color="#F82814" stop-opacity="0"/>
<stop offset="0.2454" stop-color="#F12817" stop-opacity="0.245"/>
<stop offset="0.6052" stop-color="#DD2820" stop-opacity="0.605"/>
<stop offset="1" stop-color="#C0272D"/>
</linearGradient>
<linearGradient id="paint9_linear_343_6494" x1="91.3168" y1="52.4029" x2="97.1824" y2="44.7987" gradientUnits="userSpaceOnUse">
<stop stop-color="#F82814" stop-opacity="0"/>
<stop offset="0.2454" stop-color="#F12817" stop-opacity="0.245"/>
<stop offset="0.6052" stop-color="#DD2820" stop-opacity="0.605"/>
<stop offset="1" stop-color="#C0272D"/>
</linearGradient>
<linearGradient id="paint10_linear_343_6494" x1="85.5041" y1="50.1107" x2="90.1348" y2="44.1076" gradientUnits="userSpaceOnUse">
<stop stop-color="#F82814" stop-opacity="0"/>
<stop offset="0.2454" stop-color="#F12817" stop-opacity="0.245"/>
<stop offset="0.6052" stop-color="#DD2820" stop-opacity="0.605"/>
<stop offset="1" stop-color="#C0272D"/>
</linearGradient>
<linearGradient id="paint11_linear_343_6494" x1="87.1847" y1="56.37" x2="89.9764" y2="52.7509" gradientUnits="userSpaceOnUse">
<stop stop-color="#F82814" stop-opacity="0"/>
<stop offset="0.2454" stop-color="#F12817" stop-opacity="0.245"/>
<stop offset="0.6052" stop-color="#DD2820" stop-opacity="0.605"/>
<stop offset="1" stop-color="#C0272D"/>
</linearGradient>
<linearGradient id="paint12_linear_343_6494" x1="91.5333" y1="-2.31531" x2="96.2588" y2="4.03238" gradientUnits="userSpaceOnUse">
<stop stop-color="#FF6359"/>
<stop offset="0.2243" stop-color="#FE5B50"/>
<stop offset="0.5952" stop-color="#FC4637"/>
<stop offset="1" stop-color="#F82814"/>
</linearGradient>
<linearGradient id="paint13_linear_343_6494" x1="99.0498" y1="3.40619" x2="93.5526" y2="26.9428" gradientUnits="userSpaceOnUse">
<stop stop-color="#FF6359"/>
<stop offset="0.2243" stop-color="#FE5B50"/>
<stop offset="0.5952" stop-color="#FC4637"/>
<stop offset="1" stop-color="#F82814"/>
</linearGradient>
<linearGradient id="paint14_linear_343_6494" x1="97.2943" y1="49.5606" x2="100.748" y2="61.4115" gradientUnits="userSpaceOnUse">
<stop stop-color="#FF6359"/>
<stop offset="0.2243" stop-color="#FE5B50"/>
<stop offset="0.5952" stop-color="#FC4637"/>
<stop offset="1" stop-color="#F82814"/>
</linearGradient>
<linearGradient id="paint15_linear_343_6494" x1="60.7495" y1="80.4524" x2="66.926" y2="125.452" gradientUnits="userSpaceOnUse">
<stop stop-color="#FFD945"/>
<stop offset="0.3043" stop-color="#FFCD3E"/>
<stop offset="0.8558" stop-color="#FFAD2B"/>
<stop offset="1" stop-color="#FFA325"/>
</linearGradient>
<linearGradient id="paint16_linear_343_6494" x1="73.8131" y1="95.3226" x2="165.573" y2="127.086" gradientUnits="userSpaceOnUse">
<stop stop-color="#F82814" stop-opacity="0"/>
<stop offset="0.2454" stop-color="#F12817" stop-opacity="0.245"/>
<stop offset="0.6052" stop-color="#DD2820" stop-opacity="0.605"/>
<stop offset="1" stop-color="#C0272D"/>
</linearGradient>
<linearGradient id="paint17_linear_343_6494" x1="34.5175" y1="101.557" x2="31.5296" y2="91.3391" gradientUnits="userSpaceOnUse">
<stop stop-color="#F82814" stop-opacity="0"/>
<stop offset="0.2454" stop-color="#F12817" stop-opacity="0.245"/>
<stop offset="0.6052" stop-color="#DD2820" stop-opacity="0.605"/>
<stop offset="1" stop-color="#C0272D"/>
</linearGradient>
<linearGradient id="paint18_linear_343_6494" x1="28.6706" y1="105.271" x2="26.3116" y2="97.2042" gradientUnits="userSpaceOnUse">
<stop stop-color="#F82814" stop-opacity="0"/>
<stop offset="0.2454" stop-color="#F12817" stop-opacity="0.245"/>
<stop offset="0.6052" stop-color="#DD2820" stop-opacity="0.605"/>
<stop offset="1" stop-color="#C0272D"/>
</linearGradient>
<linearGradient id="paint19_linear_343_6494" x1="35.3767" y1="107.849" x2="33.9547" y2="102.985" gradientUnits="userSpaceOnUse">
<stop stop-color="#F82814" stop-opacity="0"/>
<stop offset="0.2454" stop-color="#F12817" stop-opacity="0.245"/>
<stop offset="0.6052" stop-color="#DD2820" stop-opacity="0.605"/>
<stop offset="1" stop-color="#C0272D"/>
</linearGradient>
<linearGradient id="paint20_linear_343_6494" x1="43.3729" y1="104.958" x2="47.5285" y2="98.286" gradientUnits="userSpaceOnUse">
<stop stop-color="#F82814" stop-opacity="0"/>
<stop offset="0.2454" stop-color="#F12817" stop-opacity="0.245"/>
<stop offset="0.6052" stop-color="#DD2820" stop-opacity="0.605"/>
<stop offset="1" stop-color="#C0272D"/>
</linearGradient>
<linearGradient id="paint21_linear_343_6494" x1="38.4513" y1="103.566" x2="41.7321" y2="98.2992" gradientUnits="userSpaceOnUse">
<stop stop-color="#F82814" stop-opacity="0"/>
<stop offset="0.2454" stop-color="#F12817" stop-opacity="0.245"/>
<stop offset="0.6052" stop-color="#DD2820" stop-opacity="0.605"/>
<stop offset="1" stop-color="#C0272D"/>
</linearGradient>
<linearGradient id="paint22_linear_343_6494" x1="40.3315" y1="108.527" x2="42.3093" y2="105.351" gradientUnits="userSpaceOnUse">
<stop stop-color="#F82814" stop-opacity="0"/>
<stop offset="0.2454" stop-color="#F12817" stop-opacity="0.245"/>
<stop offset="0.6052" stop-color="#DD2820" stop-opacity="0.605"/>
<stop offset="1" stop-color="#C0272D"/>
</linearGradient>
<linearGradient id="paint23_linear_343_6494" x1="101.527" y1="77.5824" x2="106.6" y2="69.4375" gradientUnits="userSpaceOnUse">
<stop stop-color="#F82814" stop-opacity="0"/>
<stop offset="0.2454" stop-color="#F12817" stop-opacity="0.245"/>
<stop offset="0.6052" stop-color="#DD2820" stop-opacity="0.605"/>
<stop offset="1" stop-color="#C0272D"/>
</linearGradient>
<linearGradient id="paint24_linear_343_6494" x1="95.5203" y1="75.8835" x2="99.5253" y2="69.4534" gradientUnits="userSpaceOnUse">
<stop stop-color="#F82814" stop-opacity="0"/>
<stop offset="0.2454" stop-color="#F12817" stop-opacity="0.245"/>
<stop offset="0.6052" stop-color="#DD2820" stop-opacity="0.605"/>
<stop offset="1" stop-color="#C0272D"/>
</linearGradient>
<linearGradient id="paint25_linear_343_6494" x1="97.8151" y1="81.9388" x2="100.23" y2="78.0622" gradientUnits="userSpaceOnUse">
<stop stop-color="#F82814" stop-opacity="0"/>
<stop offset="0.2454" stop-color="#F12817" stop-opacity="0.245"/>
<stop offset="0.6052" stop-color="#DD2820" stop-opacity="0.605"/>
<stop offset="1" stop-color="#C0272D"/>
</linearGradient>
<linearGradient id="paint26_linear_343_6494" x1="95.9563" y1="23.1209" x2="101.29" y2="28.9634" gradientUnits="userSpaceOnUse">
<stop stop-color="#FF6359"/>
<stop offset="0.2243" stop-color="#FE5B50"/>
<stop offset="0.5952" stop-color="#FC4637"/>
<stop offset="1" stop-color="#F82814"/>
</linearGradient>
<linearGradient id="paint27_linear_343_6494" x1="104.006" y1="28.0601" x2="100.894" y2="52.0266" gradientUnits="userSpaceOnUse">
<stop stop-color="#FF6359"/>
<stop offset="0.2243" stop-color="#FE5B50"/>
<stop offset="0.5952" stop-color="#FC4637"/>
<stop offset="1" stop-color="#F82814"/>
</linearGradient>
<linearGradient id="paint28_linear_343_6494" x1="120.676" y1="67.6924" x2="124.131" y2="79.543" gradientUnits="userSpaceOnUse">
<stop stop-color="#FF6359"/>
<stop offset="0.2243" stop-color="#FE5B50"/>
<stop offset="0.5952" stop-color="#FC4637"/>
<stop offset="1" stop-color="#F82814"/>
</linearGradient>
<linearGradient id="paint29_linear_343_6494" x1="78.4894" y1="92.8653" x2="106.837" y2="150.702" gradientUnits="userSpaceOnUse">
<stop stop-color="#FFD945"/>
<stop offset="0.3043" stop-color="#FFCD3E"/>
<stop offset="0.8558" stop-color="#FFAD2B"/>
<stop offset="1" stop-color="#FFA325"/>
</linearGradient>
<linearGradient id="paint30_linear_343_6494" x1="91.3707" y1="112.277" x2="174.764" y2="172.098" gradientUnits="userSpaceOnUse">
<stop stop-color="#F82814" stop-opacity="0"/>
<stop offset="0.2454" stop-color="#F12817" stop-opacity="0.245"/>
<stop offset="0.6052" stop-color="#DD2820" stop-opacity="0.605"/>
<stop offset="1" stop-color="#C0272D"/>
</linearGradient>
<linearGradient id="paint31_linear_343_6494" x1="57.9037" y1="119.676" x2="54.9159" y2="109.458" gradientUnits="userSpaceOnUse">
<stop stop-color="#F82814" stop-opacity="0"/>
<stop offset="0.2454" stop-color="#F12817" stop-opacity="0.245"/>
<stop offset="0.6052" stop-color="#DD2820" stop-opacity="0.605"/>
<stop offset="1" stop-color="#C0272D"/>
</linearGradient>
<linearGradient id="paint32_linear_343_6494" x1="52.0569" y1="123.389" x2="49.6979" y2="115.323" gradientUnits="userSpaceOnUse">
<stop stop-color="#F82814" stop-opacity="0"/>
<stop offset="0.2454" stop-color="#F12817" stop-opacity="0.245"/>
<stop offset="0.6052" stop-color="#DD2820" stop-opacity="0.605"/>
<stop offset="1" stop-color="#C0272D"/>
</linearGradient>
<linearGradient id="paint33_linear_343_6494" x1="58.763" y1="125.967" x2="57.341" y2="121.104" gradientUnits="userSpaceOnUse">
<stop stop-color="#F82814" stop-opacity="0"/>
<stop offset="0.2454" stop-color="#F12817" stop-opacity="0.245"/>
<stop offset="0.6052" stop-color="#DD2820" stop-opacity="0.605"/>
<stop offset="1" stop-color="#C0272D"/>
</linearGradient>
<linearGradient id="paint34_linear_343_6494" x1="66.7309" y1="123.076" x2="70.8869" y2="116.403" gradientUnits="userSpaceOnUse">
<stop stop-color="#F82814" stop-opacity="0"/>
<stop offset="0.2454" stop-color="#F12817" stop-opacity="0.245"/>
<stop offset="0.6052" stop-color="#DD2820" stop-opacity="0.605"/>
<stop offset="1" stop-color="#C0272D"/>
</linearGradient>
<linearGradient id="paint35_linear_343_6494" x1="61.8097" y1="121.684" x2="65.0902" y2="116.417" gradientUnits="userSpaceOnUse">
<stop stop-color="#F82814" stop-opacity="0"/>
<stop offset="0.2454" stop-color="#F12817" stop-opacity="0.245"/>
<stop offset="0.6052" stop-color="#DD2820" stop-opacity="0.605"/>
<stop offset="1" stop-color="#C0272D"/>
</linearGradient>
<linearGradient id="paint36_linear_343_6494" x1="63.6896" y1="126.645" x2="65.6677" y2="123.469" gradientUnits="userSpaceOnUse">
<stop stop-color="#F82814" stop-opacity="0"/>
<stop offset="0.2454" stop-color="#F12817" stop-opacity="0.245"/>
<stop offset="0.6052" stop-color="#DD2820" stop-opacity="0.605"/>
<stop offset="1" stop-color="#C0272D"/>
</linearGradient>
<linearGradient id="paint37_linear_343_6494" x1="124.886" y1="95.7002" x2="129.959" y2="87.5551" gradientUnits="userSpaceOnUse">
<stop stop-color="#F82814" stop-opacity="0"/>
<stop offset="0.2454" stop-color="#F12817" stop-opacity="0.245"/>
<stop offset="0.6052" stop-color="#DD2820" stop-opacity="0.605"/>
<stop offset="1" stop-color="#C0272D"/>
</linearGradient>
<linearGradient id="paint38_linear_343_6494" x1="118.879" y1="94.0012" x2="122.883" y2="87.5711" gradientUnits="userSpaceOnUse">
<stop stop-color="#F82814" stop-opacity="0"/>
<stop offset="0.2454" stop-color="#F12817" stop-opacity="0.245"/>
<stop offset="0.6052" stop-color="#DD2820" stop-opacity="0.605"/>
<stop offset="1" stop-color="#C0272D"/>
</linearGradient>
<linearGradient id="paint39_linear_343_6494" x1="121.174" y1="100.057" x2="123.588" y2="96.18" gradientUnits="userSpaceOnUse">
<stop stop-color="#F82814" stop-opacity="0"/>
<stop offset="0.2454" stop-color="#F12817" stop-opacity="0.245"/>
<stop offset="0.6052" stop-color="#DD2820" stop-opacity="0.605"/>
<stop offset="1" stop-color="#C0272D"/>
</linearGradient>
<linearGradient id="paint40_linear_343_6494" x1="119.328" y1="41.2283" x2="124.662" y2="47.0708" gradientUnits="userSpaceOnUse">
<stop stop-color="#FF6359"/>
<stop offset="0.2243" stop-color="#FE5B50"/>
<stop offset="0.5952" stop-color="#FC4637"/>
<stop offset="1" stop-color="#F82814"/>
</linearGradient>
<linearGradient id="paint41_linear_343_6494" x1="127.377" y1="46.1675" x2="124.265" y2="70.1346" gradientUnits="userSpaceOnUse">
<stop stop-color="#FF6359"/>
<stop offset="0.2243" stop-color="#FE5B50"/>
<stop offset="0.5952" stop-color="#FC4637"/>
<stop offset="1" stop-color="#F82814"/>
</linearGradient>
</defs>
</svg>
