<?xml version="1.0" encoding="utf-8"?>
<svg viewBox="-0.2 0 210.6 132.952" width="210.6" height="132.952" xmlns="http://www.w3.org/2000/svg">
  <defs>
    <clipPath id="clip-path" transform="translate(0 -11.67)">
      <rect class="cls-1" x="105.79" width="106" height="140" style="fill: none;"/>
    </clipPath>
    <clipPath id="clip-1" transform="translate(0 -11.67)">
      <rect class="cls-1" x="105.79" width="106" height="140" style="fill: none;"/>
    </clipPath>
  </defs>
  <g transform="matrix(8.255349, 0, 0, 8.255349, -21.792519, -89.92937)" style="">
    <path d="M 3.395 11.744 C 3.395 11.504 3.475 11.294 3.645 11.134 C 3.815 10.974 4.025 10.894 4.275 10.894 L 22.945 10.894 C 23.421 10.877 23.812 11.268 23.795 11.744 C 23.795 11.974 23.715 12.174 23.545 12.324 C 23.375 12.484 23.175 12.554 22.945 12.554 L 4.275 12.554 C 4.025 12.554 3.815 12.474 3.645 12.324 C 3.481 12.176 3.39 11.964 3.395 11.744 Z" style="fill-rule: nonzero; paint-order: fill; fill: rgb(237, 237, 237);"/>
    <path d="M 7.75 14.836 C 7.75 14.596 7.83 14.386 8 14.226 C 8.17 14.066 8.38 13.986 8.63 13.986 L 27.3 13.986 C 27.776 13.969 28.167 14.36 28.15 14.836 C 28.15 15.066 28.07 15.266 27.9 15.416 C 27.73 15.576 27.53 15.646 27.3 15.646 L 8.63 15.646 C 8.38 15.646 8.17 15.566 8 15.416 C 7.836 15.268 7.745 15.056 7.75 14.836 Z" style="fill-rule: nonzero; paint-order: fill; fill: rgb(215, 218, 219);"/>
    <path d="M 5.17 17.939 C 5.17 17.699 5.25 17.489 5.42 17.329 C 5.59 17.169 5.8 17.089 6.05 17.089 L 24.72 17.089 C 25.196 17.072 25.587 17.463 25.57 17.939 C 25.57 18.169 25.49 18.369 25.32 18.519 C 25.15 18.679 24.95 18.749 24.72 18.749 L 6.05 18.749 C 5.8 18.749 5.59 18.669 5.42 18.519 C 5.256 18.371 5.165 18.159 5.17 17.939 Z" style="fill-rule: nonzero; paint-order: fill; fill: rgb(190, 196, 196);"/>
    <path d="M 6.986 24.123 C 6.986 23.883 7.066 23.673 7.236 23.513 C 7.406 23.353 7.616 23.273 7.866 23.273 L 26.536 23.273 C 27.012 23.256 27.403 23.647 27.386 24.123 C 27.386 24.353 27.306 24.553 27.136 24.703 C 26.966 24.863 26.766 24.933 26.536 24.933 L 7.866 24.933 C 7.616 24.933 7.406 24.853 7.236 24.703 C 7.072 24.555 6.981 24.343 6.986 24.123 Z" style="fill-rule: nonzero; paint-order: fill; fill: rgb(155, 157, 158);"/>
    <path d="M 2.64 21.026 C 2.64 20.786 2.72 20.576 2.89 20.416 C 3.06 20.256 3.27 20.176 3.52 20.176 L 22.19 20.176 C 22.666 20.159 23.057 20.55 23.04 21.026 C 23.04 21.256 22.96 21.456 22.79 21.606 C 22.62 21.766 22.42 21.836 22.19 21.836 L 3.52 21.836 C 3.27 21.836 3.06 21.756 2.89 21.606 C 2.726 21.458 2.635 21.246 2.64 21.026 Z" style="fill-rule: nonzero; paint-order: fill; fill: rgb(160, 168, 167);"/>
  </g>
  <g class="cls-2" style="clip-path: url(#clip-path);" transform="matrix(0.993397, 0, 0, 0.963576, 0.163882, 9.296662)">
    <path class="cls-3" d="M 6.079 -2.382 C 6.022 -4.33 6.779 -6.209 8.159 -7.553 C 9.573 -8.916 11.457 -9.651 13.399 -9.597 L 168.549 -9.597 C 172.503 -9.736 175.745 -6.423 175.609 -2.382 C 175.674 -0.504 174.91 1.304 173.529 2.545 C 172.183 3.85 170.385 4.556 168.529 4.507 L 13.399 4.507 C 11.473 4.551 9.602 3.85 8.159 2.545 C 6.8 1.288 6.041 -0.509 6.079 -2.382 Z" style="fill: rgb(203, 203, 203);"/>
    <path class="cls-4" d="M 42.279 24.131 C 42.222 22.178 42.978 20.293 44.359 18.945 C 45.773 17.582 47.657 16.846 49.599 16.899 L 204.749 16.899 C 208.713 16.748 211.967 20.074 211.819 24.131 C 211.879 26.008 211.116 27.817 209.739 29.062 C 208.395 30.37 206.594 31.073 204.739 31.015 L 49.599 31.015 C 47.674 31.059 45.803 30.363 44.359 29.062 C 42.999 27.803 42.241 26.004 42.279 24.131 Z" style="fill: rgb(183, 188, 190);"/>
    <path class="cls-5" d="M 20.879 50.66 C 20.819 48.698 21.576 46.802 22.958 45.45 C 24.372 44.08 26.255 43.341 28.197 43.394 L 183.314 43.394 C 187.27 43.254 190.512 46.592 190.371 50.66 C 190.419 52.532 189.658 54.331 188.292 55.572 C 186.948 56.887 185.148 57.593 183.294 57.535 L 28.216 57.535 C 26.293 57.576 24.424 56.877 22.978 55.572 C 21.624 54.321 20.859 52.531 20.879 50.66 Z" style="fill: rgb(161, 170, 170);"/>
    <path class="cls-6" d="M 35.979 103.721 C 35.917 101.768 36.67 99.881 38.049 98.534 C 39.464 97.171 41.347 96.436 43.289 96.488 L 198.439 96.488 C 202.397 96.349 205.641 99.672 205.499 103.721 C 205.558 105.596 204.8 107.402 203.429 108.652 C 202.081 109.954 200.283 110.657 198.429 110.605 L 43.289 110.605 C 41.365 110.645 39.496 109.948 38.049 108.652 C 36.69 107.393 35.934 105.593 35.979 103.721 Z" style="fill: rgb(132, 135, 136);"/>
    <path class="cls-7" d="M -0.121 77.134 C -0.184 75.18 0.573 73.289 1.959 71.943 C 3.37 70.58 5.25 69.844 7.189 69.897 L 162.339 69.897 C 166.3 69.747 169.552 73.068 169.409 77.124 C 169.465 79.001 168.703 80.811 167.329 82.059 C 165.982 83.362 164.183 84.064 162.329 84.013 L 7.189 84.013 C 5.268 84.057 3.4 83.36 1.959 82.059 C 0.598 80.805 -0.161 79.005 -0.121 77.134 Z" style="fill: rgb(136, 146, 144);"/>
    <g class="cls-2" style="clip-path: url(#clip-1);" transform="matrix(8.565751, 0, 0, 8.565751, -907.153482, 125.474352)">
      <path class="cls-3" d="M 6.27 18.73 C 6.213 16.824 6.969 14.985 8.35 13.67 C 9.764 12.337 175.936 14.776 175.8 18.73 C 175.865 20.567 175.101 22.337 173.72 23.55 C 172.374 24.828 170.575 25.518 168.72 25.47 L 13.59 25.47 C 11.664 25.513 9.793 24.827 8.35 23.55 C 6.991 22.321 6.232 20.562 6.27 18.73 Z" transform="translate(0 -11.67)" style="fill: rgb(237, 237, 237);"/>
      <path class="cls-4" d="M42.46,44.43a6.73,6.73,0,0,1,2.08-5.07,7.36,7.36,0,0,1,5.24-2H204.93A6.82,6.82,0,0,1,212,44.43a6.16,6.16,0,0,1-2.08,4.82,6.94,6.94,0,0,1-5,1.91H49.78a7.66,7.66,0,0,1-5.24-1.91A6.32,6.32,0,0,1,42.46,44.43Z" transform="translate(0 -11.67)" style="fill: rgb(215, 218, 219);"/>
      <path class="cls-5" d="M21,70.22a6.71,6.71,0,0,1,2.08-5.07,7.35,7.35,0,0,1,5.24-2H183.49a6.83,6.83,0,0,1,7.06,7.07A6.16,6.16,0,0,1,188.47,75a6.94,6.94,0,0,1-5,1.91H28.34A7.69,7.69,0,0,1,23.1,75,6.33,6.33,0,0,1,21,70.22Z" transform="translate(0 -11.67)" style="fill: rgb(190, 196, 196);"/>
      <path class="cls-6" d="M36.12,121.61a6.71,6.71,0,0,1,2.07-5.07,7.37,7.37,0,0,1,5.24-2H198.58a6.83,6.83,0,0,1,7.06,7.07,6.19,6.19,0,0,1-2.07,4.82,7,7,0,0,1-5,1.91H43.43a7.71,7.71,0,0,1-5.24-1.91A6.29,6.29,0,0,1,36.12,121.61Z" transform="translate(0 -11.67)" style="fill: rgb(155, 157, 158);"/>
      <path class="cls-7" d="M0,95.87A6.68,6.68,0,0,1,2.08,90.8a7.34,7.34,0,0,1,5.23-2H162.46a6.82,6.82,0,0,1,7.07,7.06,6.19,6.19,0,0,1-2.08,4.82,7,7,0,0,1-5,1.91H7.31a7.64,7.64,0,0,1-5.23-1.91A6.28,6.28,0,0,1,0,95.87Z" transform="translate(0 -11.67)" style="fill: rgb(160, 168, 167);"/>
    </g>
  </g>
</svg>