<?xml version="1.0" encoding="utf-8"?>
<svg viewBox="0 0 210.5 214.622" width="212" height="201" xmlns="http://www.w3.org/2000/svg">
  <mask id="path-1-inside-1_1376_42" fill="white">
    <path fill-rule="evenodd" clip-rule="evenodd" d="M 205.29 102.101 L 194.746 102.101 L 203.194 94.798 C 205.373 92.916 205.611 89.624 203.73 87.448 C 201.845 85.271 198.557 85.033 196.38 86.913 L 178.812 102.101 L 171.041 102.101 L 184.009 90.532 C 186.155 88.616 186.345 85.324 184.427 83.177 C 182.513 81.03 179.22 80.838 177.073 82.758 L 155.387 102.101 L 117.647 102.101 L 144.437 74.761 L 173.159 72.789 C 176.03 72.592 178.197 70.102 177.998 67.234 C 177.803 64.363 175.299 62.197 172.445 62.391 L 155.41 63.56 L 160.999 57.857 L 183.94 55.913 C 186.807 55.671 188.935 53.15 188.695 50.283 C 188.449 47.417 185.972 45.29 183.061 45.529 L 172.172 46.452 L 179.706 38.761 C 181.72 36.707 181.687 33.406 179.632 31.391 C 177.571 29.375 174.28 29.414 172.262 31.465 L 164.997 38.882 L 165.892 27.869 C 166.124 25.002 163.985 22.488 161.119 22.252 C 158.298 22.06 155.737 24.157 155.503 27.028 L 153.598 50.515 L 148.23 55.995 L 149.366 38.707 C 149.556 35.835 147.382 33.355 144.511 33.167 C 141.664 32.967 139.156 35.148 138.97 38.023 L 137.037 67.421 L 110.46 94.544 L 110.46 56.041 L 129.455 33.864 C 131.326 31.678 131.073 28.39 128.887 26.517 C 126.706 24.645 123.412 24.9 121.542 27.086 L 110.46 40.023 L 110.46 32.136 L 125.383 14.152 C 127.222 11.936 126.916 8.651 124.703 6.814 C 122.486 4.972 119.197 5.281 117.363 7.494 L 110.46 15.817 L 110.46 5.21 C 110.46 2.332 108.126 0 105.251 0 C 102.372 0 100.04 2.332 100.04 5.21 L 100.04 15.814 L 93.139 7.496 C 91.301 5.279 88.011 4.972 85.805 6.814 C 83.586 8.649 83.283 11.933 85.119 14.149 L 100.04 32.134 L 100.04 40.023 L 88.956 27.086 C 87.086 24.898 83.796 24.641 81.611 26.517 C 79.425 28.39 79.171 31.678 81.043 33.864 L 100.04 56.041 L 100.04 94.55 L 73.469 67.434 L 71.532 38.023 C 71.344 35.148 68.815 32.967 65.992 33.167 C 63.121 33.355 60.946 35.835 61.137 38.707 L 62.272 56.006 L 56.906 50.528 L 54.996 27.028 C 54.761 24.157 52.208 22.063 49.38 22.252 C 46.511 22.488 44.376 25.002 44.607 27.872 L 45.503 38.891 L 38.23 31.465 C 36.215 29.414 32.92 29.377 30.86 31.391 C 28.806 33.406 28.771 36.707 30.786 38.761 L 38.318 46.45 L 27.439 45.529 C 24.537 45.29 22.049 47.417 21.807 50.283 C 21.563 53.15 23.691 55.671 26.559 55.913 L 49.492 57.854 L 55.084 63.56 L 38.048 62.391 C 35.216 62.191 32.692 64.363 32.495 67.234 C 32.298 70.102 34.465 72.592 37.338 72.789 L 66.052 74.759 L 92.845 102.101 L 55.113 102.101 L 33.432 82.758 C 31.283 80.838 27.989 81.03 26.075 83.177 C 24.16 85.324 24.347 88.616 26.496 90.532 L 39.461 102.101 L 31.689 102.101 L 14.116 86.913 C 11.939 85.033 8.646 85.273 6.768 87.448 C 4.885 89.627 5.125 92.918 7.304 94.798 L 15.754 102.101 L 5.21 102.101 C 2.332 102.101 0 104.433 0 107.311 C 0 110.189 2.332 112.521 5.21 112.521 L 15.754 112.521 L 7.304 119.827 C 5.125 121.708 4.885 124.998 6.768 127.175 C 7.796 128.37 9.249 128.98 10.711 128.98 C 11.917 128.98 13.131 128.561 14.116 127.711 L 31.691 112.521 L 39.461 112.521 L 26.496 124.09 C 24.347 126.006 24.16 129.3 26.075 131.446 C 27.105 132.6 28.532 133.188 29.967 133.188 C 31.197 133.188 32.438 132.753 33.432 131.864 L 55.113 112.521 L 92.845 112.521 L 66.052 139.865 L 37.338 141.833 C 34.465 142.031 32.298 144.519 32.495 147.391 C 32.692 150.259 35.172 152.418 38.048 152.231 L 55.082 151.062 L 49.492 156.768 L 26.559 158.709 C 23.691 158.951 21.563 161.472 21.807 164.339 C 22.049 167.205 24.575 169.336 27.439 169.093 L 38.318 168.172 L 30.786 175.861 C 28.771 177.915 28.806 181.216 30.86 183.231 C 31.877 184.222 33.19 184.718 34.507 184.718 C 35.861 184.718 37.209 184.196 38.23 183.155 L 45.503 175.731 L 44.607 186.75 C 44.376 189.62 46.511 192.134 49.38 192.37 L 49.807 192.384 C 52.494 192.384 54.774 190.321 54.996 187.596 L 56.906 164.094 L 62.272 158.616 L 61.137 175.915 C 60.946 178.787 63.121 181.267 65.992 181.455 L 66.341 181.468 C 69.061 181.468 71.351 179.354 71.532 176.599 L 73.469 147.188 L 100.04 120.072 L 100.04 158.581 L 81.043 180.758 C 79.171 182.942 79.425 186.232 81.611 188.106 C 83.794 189.979 87.084 189.722 88.956 187.536 L 100.04 174.599 L 100.04 182.486 L 85.119 200.464 C 83.283 202.679 83.586 205.965 85.803 207.803 C 86.774 208.612 87.956 209.003 89.127 209.003 C 90.624 209.003 92.109 208.362 93.139 207.121 L 100.04 198.805 L 100.04 209.412 C 100.04 212.29 102.372 214.622 105.251 214.622 C 108.126 214.622 110.46 212.29 110.46 209.412 L 110.46 198.803 L 117.363 207.121 C 119.197 209.333 122.486 209.641 124.703 207.803 C 126.916 205.965 127.222 202.679 125.383 200.464 L 110.46 182.484 L 110.46 174.599 L 121.542 187.536 C 122.572 188.742 124.03 189.357 125.5 189.357 C 126.701 189.357 127.906 188.947 128.887 188.106 C 131.073 186.232 131.326 182.942 129.455 180.758 L 110.46 158.581 L 110.46 120.078 L 137.034 147.2 L 138.97 176.599 C 139.15 179.354 141.442 181.468 144.164 181.468 L 144.511 181.455 C 147.382 181.267 149.556 178.787 149.366 175.915 L 148.23 158.627 L 153.598 164.107 L 155.503 187.596 C 155.724 190.321 158.004 192.384 160.692 192.384 L 161.119 192.37 C 163.985 192.134 166.124 189.62 165.892 186.752 L 164.997 175.74 L 172.262 183.155 C 173.283 184.196 174.633 184.718 175.984 184.718 C 177.302 184.718 178.617 184.222 179.632 183.231 C 181.687 181.216 181.72 177.915 179.706 175.861 L 172.172 168.17 L 183.061 169.093 C 185.937 169.34 188.449 167.208 188.695 164.339 C 188.935 161.472 186.807 158.951 183.94 158.709 L 160.999 156.765 L 155.41 151.062 L 172.445 152.231 C 175.341 152.413 177.803 150.259 177.998 147.391 C 178.197 144.519 176.03 142.031 173.159 141.833 L 144.439 139.865 L 117.647 112.521 L 155.387 112.521 L 177.073 131.864 C 178.064 132.753 179.305 133.188 180.538 133.188 C 181.971 133.188 183.4 132.6 184.427 131.446 C 186.345 129.3 186.155 126.006 184.009 124.09 L 171.041 112.521 L 178.811 112.521 L 196.38 127.711 C 197.365 128.561 198.578 128.98 199.785 128.98 C 201.247 128.98 202.698 128.37 203.73 127.175 C 205.611 125 205.373 121.708 203.194 119.827 L 194.744 112.521 L 205.29 112.521 C 208.166 112.521 210.5 110.189 210.5 107.311 C 210.5 104.433 208.166 102.101 205.29 102.101 Z"/>
  </mask>
  <path fill-rule="evenodd" clip-rule="evenodd" d="M 205.29 102.101 L 194.746 102.101 L 203.194 94.798 C 205.373 92.916 205.611 89.624 203.73 87.449 C 201.845 85.271 198.558 85.033 196.38 86.913 L 178.813 102.101 L 171.041 102.101 L 184.009 90.531 C 186.155 88.616 186.345 85.324 184.427 83.176 C 182.513 81.031 179.22 80.838 177.073 82.758 L 155.387 102.101 L 117.647 102.101 L 144.437 74.761 L 173.159 72.789 C 176.03 72.592 178.197 70.102 177.998 67.235 C 177.803 64.362 175.299 62.197 172.445 62.392 L 155.41 63.56 L 160.999 57.855 L 183.94 55.913 C 186.807 55.672 188.935 53.151 188.695 50.282 C 188.449 47.417 185.972 45.29 183.062 45.529 L 172.172 46.451 L 179.706 38.761 C 181.72 36.706 181.687 33.406 179.632 31.39 C 177.571 29.375 174.28 29.414 172.262 31.466 L 164.997 38.881 L 165.892 27.87 C 166.124 25.001 163.985 22.488 161.119 22.252 C 158.298 22.06 155.737 24.156 155.504 27.028 L 153.598 50.515 L 148.23 55.995 L 149.366 38.707 C 149.556 35.835 147.382 33.355 144.511 33.167 C 141.664 32.966 139.156 35.149 138.97 38.022 L 137.037 67.421 L 110.46 94.543 L 110.46 56.041 L 129.455 33.863 C 131.326 31.679 131.073 28.39 128.887 26.517 C 126.706 24.645 123.412 24.9 121.542 27.085 L 110.46 40.021 L 110.46 32.136 L 125.383 14.151 C 127.222 11.936 126.916 8.651 124.703 6.814 C 122.486 4.971 119.197 5.281 117.363 7.494 L 110.46 15.816 L 110.46 5.21 C 110.46 2.331 108.126 0 105.251 0 C 102.372 0 100.04 2.331 100.04 5.21 L 100.04 15.813 L 93.139 7.496 C 91.301 5.279 88.013 4.971 85.805 6.814 C 83.587 8.649 83.283 11.933 85.12 14.149 L 100.04 32.134 L 100.04 40.021 L 88.956 27.085 C 87.086 24.898 83.796 24.641 81.611 26.517 C 79.425 28.39 79.171 31.679 81.043 33.863 L 100.04 56.041 L 100.04 94.55 L 73.469 67.433 L 71.532 38.022 C 71.344 35.149 68.815 32.966 65.992 33.167 C 63.121 33.355 60.947 35.835 61.137 38.707 L 62.272 56.006 L 56.908 50.528 L 54.996 27.028 C 54.761 24.156 52.208 22.063 49.38 22.252 C 46.511 22.488 44.376 25.001 44.608 27.872 L 45.505 38.891 L 38.23 31.466 C 36.215 29.414 32.92 29.377 30.86 31.39 C 28.806 33.406 28.771 36.706 30.786 38.761 L 38.318 46.449 L 27.439 45.529 C 24.537 45.29 22.049 47.417 21.807 50.282 C 21.563 53.151 23.691 55.672 26.559 55.913 L 49.492 57.853 L 55.084 63.56 L 38.048 62.392 C 35.216 62.191 32.692 64.362 32.495 67.235 C 32.298 70.102 34.465 72.592 37.338 72.789 L 66.053 74.759 L 92.845 102.101 L 55.113 102.101 L 33.432 82.758 C 31.283 80.838 27.989 81.031 26.075 83.176 C 24.16 85.324 24.347 88.616 26.496 90.531 L 39.462 102.101 L 31.689 102.101 L 14.116 86.913 C 11.939 85.033 8.646 85.273 6.768 87.449 C 4.885 89.627 5.126 92.918 7.304 94.798 L 15.754 102.101 L 5.211 102.101 C 2.332 102.101 0 104.433 0 107.311 C 0 110.19 2.332 112.521 5.211 112.521 L 15.754 112.521 L 7.304 119.827 C 5.126 121.708 4.885 124.998 6.768 127.175 C 7.796 128.37 9.249 128.98 10.711 128.98 C 11.917 128.98 13.131 128.561 14.116 127.711 L 31.691 112.521 L 39.462 112.521 L 26.496 124.09 C 24.347 126.006 24.16 129.3 26.075 131.447 C 27.105 132.6 28.532 133.188 29.967 133.188 C 31.197 133.188 32.438 132.753 33.432 131.865 L 55.113 112.521 L 92.845 112.521 L 66.053 139.866 L 37.338 141.833 C 34.465 142.031 32.298 144.519 32.495 147.391 C 32.692 150.259 35.172 152.419 38.048 152.231 L 55.083 151.062 L 49.492 156.769 L 26.559 158.709 C 23.691 158.951 21.563 161.472 21.807 164.34 C 22.049 167.206 24.575 169.337 27.439 169.094 L 38.318 168.173 L 30.786 175.862 C 28.771 177.916 28.806 181.217 30.86 183.232 C 31.877 184.223 33.19 184.718 34.507 184.718 C 35.861 184.718 37.209 184.196 38.23 183.155 L 45.505 175.732 L 44.608 186.751 C 44.376 189.621 46.511 192.135 49.38 192.37 L 49.807 192.384 C 52.494 192.384 54.774 190.321 54.996 187.597 L 56.908 164.094 L 62.272 158.616 L 61.137 175.915 C 60.947 178.788 63.121 181.267 65.992 181.455 L 66.341 181.468 C 69.061 181.468 71.352 179.354 71.532 176.6 L 73.469 147.189 L 100.04 120.073 L 100.04 158.582 L 81.043 180.759 C 79.171 182.942 79.425 186.233 81.611 188.106 C 83.794 189.979 87.084 189.723 88.956 187.537 L 100.04 174.601 L 100.04 182.487 L 85.12 200.466 C 83.283 202.68 83.587 205.966 85.803 207.804 C 86.774 208.612 87.956 209.004 89.127 209.004 C 90.624 209.004 92.109 208.362 93.139 207.121 L 100.04 198.806 L 100.04 209.413 C 100.04 212.29 102.372 214.622 105.251 214.622 C 108.126 214.622 110.46 212.29 110.46 209.413 L 110.46 198.804 L 117.363 207.121 C 119.197 209.334 122.486 209.641 124.703 207.804 C 126.916 205.966 127.222 202.68 125.383 200.466 L 110.46 182.485 L 110.46 174.601 L 121.542 187.537 C 122.572 188.742 124.03 189.357 125.5 189.357 C 126.701 189.357 127.906 188.947 128.887 188.106 C 131.073 186.233 131.326 182.942 129.455 180.759 L 110.46 158.582 L 110.46 120.079 L 137.034 147.201 L 138.97 176.6 C 139.15 179.354 141.442 181.468 144.164 181.468 L 144.511 181.455 C 147.382 181.267 149.556 178.788 149.366 175.915 L 148.23 158.627 L 153.598 164.107 L 155.504 187.597 C 155.724 190.321 158.004 192.384 160.692 192.384 L 161.119 192.37 C 163.985 192.135 166.124 189.621 165.892 186.754 L 164.997 175.741 L 172.262 183.155 C 173.283 184.196 174.633 184.718 175.984 184.718 C 177.302 184.718 178.617 184.223 179.632 183.232 C 181.687 181.217 181.72 177.916 179.706 175.862 L 172.172 168.171 L 183.062 169.094 C 185.937 169.341 188.449 167.209 188.695 164.34 C 188.935 161.472 186.807 158.951 183.94 158.709 L 160.999 156.766 L 155.41 151.062 L 172.445 152.231 C 175.341 152.413 177.803 150.259 177.998 147.391 C 178.197 144.519 176.03 142.031 173.159 141.833 L 144.439 139.866 L 117.647 112.521 L 155.387 112.521 L 177.073 131.865 C 178.064 132.753 179.305 133.188 180.538 133.188 C 181.971 133.188 183.4 132.6 184.427 131.447 C 186.345 129.3 186.155 126.006 184.009 124.09 L 171.041 112.521 L 178.811 112.521 L 196.38 127.711 C 197.365 128.561 198.579 128.98 199.785 128.98 C 201.247 128.98 202.698 128.37 203.73 127.175 C 205.611 125 205.373 121.708 203.194 119.827 L 194.744 112.521 L 205.29 112.521 C 208.166 112.521 210.5 110.19 210.5 107.311 C 210.5 104.433 208.166 102.101 205.29 102.101 Z" fill="#FFFFFE" stroke="#DBDCD6" stroke-width="6" mask="url(#path-1-inside-1_1376_42)"/>
  <path fill-rule="evenodd" clip-rule="evenodd" d="M 205.29 102.101 L 194.746 102.101 L 203.195 94.798 C 205.373 92.916 205.611 89.624 203.73 87.449 C 201.845 85.271 198.558 85.033 196.38 86.913 L 178.813 102.101 L 171.041 102.101 L 184.009 90.531 C 186.155 88.616 186.345 85.324 184.427 83.176 C 182.513 81.031 179.22 80.838 177.073 82.758 L 155.387 102.101 L 117.647 102.101 L 144.437 74.761 L 173.159 72.789 C 176.03 72.592 178.197 70.102 177.998 67.235 C 177.803 64.362 175.299 62.197 172.445 62.392 L 155.41 63.56 L 160.999 57.855 L 183.94 55.913 C 186.807 55.672 188.935 53.151 188.695 50.282 C 188.449 47.417 185.972 45.29 183.062 45.529 L 172.172 46.451 L 179.706 38.761 C 181.72 36.706 181.687 33.406 179.632 31.39 C 177.571 29.375 174.28 29.414 172.264 31.466 L 164.997 38.881 L 165.892 27.87 C 166.124 25.001 163.985 22.488 161.119 22.252 C 158.298 22.06 155.737 24.156 155.504 27.028 L 153.598 50.515 L 148.23 55.995 L 149.366 38.707 C 149.556 35.835 147.382 33.355 144.511 33.167 C 141.664 32.966 139.157 35.149 138.97 38.022 L 137.037 67.421 L 110.46 94.543 L 110.46 56.041 L 129.456 33.863 C 131.326 31.679 131.074 28.39 128.887 26.517 C 126.706 24.645 123.412 24.9 121.543 27.085 L 110.46 40.021 L 110.46 32.136 L 125.383 14.151 C 127.222 11.936 126.916 8.651 124.703 6.814 C 122.486 4.971 119.197 5.281 117.363 7.494 L 110.46 15.816 L 110.46 5.21 C 110.46 2.331 108.126 0 105.251 0 L 105.251 214.622 C 108.126 214.622 110.46 212.29 110.46 209.413 L 110.46 198.804 L 117.363 207.121 C 119.197 209.334 122.486 209.641 124.703 207.804 C 126.916 205.966 127.222 202.68 125.383 200.466 L 110.46 182.485 L 110.46 174.601 L 121.543 187.537 C 122.572 188.742 124.03 189.357 125.501 189.357 C 126.701 189.357 127.906 188.947 128.887 188.106 C 131.074 186.233 131.326 182.942 129.456 180.759 L 110.46 158.582 L 110.46 120.079 L 137.034 147.201 L 138.97 176.6 C 139.15 179.354 141.442 181.468 144.164 181.468 L 144.511 181.455 C 147.382 181.267 149.556 178.788 149.366 175.915 L 148.23 158.627 L 153.598 164.107 L 155.504 187.597 C 155.724 190.321 158.004 192.384 160.692 192.384 L 161.119 192.37 C 163.985 192.135 166.124 189.621 165.892 186.754 L 164.997 175.741 L 172.264 183.155 C 173.284 184.196 174.633 184.718 175.984 184.718 C 177.302 184.718 178.617 184.223 179.632 183.232 C 181.687 181.217 181.72 177.916 179.706 175.862 L 172.172 168.171 L 183.062 169.094 C 185.937 169.341 188.449 167.209 188.695 164.34 C 188.935 161.472 186.807 158.951 183.94 158.709 L 160.999 156.766 L 155.41 151.062 L 172.445 152.231 C 175.341 152.413 177.803 150.259 177.998 147.391 C 178.197 144.519 176.03 142.031 173.159 141.833 L 144.439 139.866 L 117.647 112.521 L 155.387 112.521 L 177.073 131.865 C 178.064 132.753 179.305 133.188 180.538 133.188 C 181.971 133.188 183.4 132.6 184.427 131.447 C 186.345 129.3 186.155 126.006 184.009 124.09 L 171.041 112.521 L 178.811 112.521 L 196.38 127.711 C 197.366 128.561 198.579 128.98 199.785 128.98 C 201.247 128.98 202.698 128.37 203.73 127.175 C 205.611 125 205.373 121.708 203.195 119.827 L 194.744 112.521 L 205.29 112.521 C 208.166 112.521 210.5 110.19 210.5 107.311 C 210.5 104.433 208.166 102.101 205.29 102.101 Z" fill="#DBDCD6"/>
</svg>