<?xml version="1.0" encoding="utf-8"?>
<svg viewBox="2.583 5.898 25.565 14.061" width="212" height="140" fill="currentColor" color="" xmlns="http://www.w3.org/2000/svg">
  <defs>
    <clipPath id="clip-path" transform="translate(0 -11.67)">
      <rect class="cls-1" x="105.79" width="106" height="140" style="fill: none;"/>
    </clipPath>
    <clipPath id="clip-1" transform="translate(0 -11.67)">
      <rect class="cls-1" x="105.79" width="106" height="140" style="fill: none;"/>
    </clipPath>
  </defs>
  <g transform="matrix(1, 0, 0, 1, -0.038771, -5.001503)">
    <path d="M 3.395 11.744 C 3.395 11.504 3.475 11.294 3.645 11.134 C 3.815 10.974 4.025 10.894 4.275 10.894 L 22.945 10.894 C 23.421 10.877 23.812 11.268 23.795 11.744 C 23.795 11.974 23.715 12.174 23.545 12.324 C 23.375 12.484 23.175 12.554 22.945 12.554 L 4.275 12.554 C 4.025 12.554 3.815 12.474 3.645 12.324 C 3.481 12.176 3.39 11.964 3.395 11.744 Z" style="fill-rule: nonzero; paint-order: fill; fill: rgb(237, 237, 237);"/>
    <path d="M 7.75 14.836 C 7.75 14.596 7.83 14.386 8 14.226 C 8.17 14.066 8.38 13.986 8.63 13.986 L 27.3 13.986 C 27.776 13.969 28.167 14.36 28.15 14.836 C 28.15 15.066 28.07 15.266 27.9 15.416 C 27.73 15.576 27.53 15.646 27.3 15.646 L 8.63 15.646 C 8.38 15.646 8.17 15.566 8 15.416 C 7.836 15.268 7.745 15.056 7.75 14.836 Z" style="fill-rule: nonzero; paint-order: fill; fill: rgb(215, 218, 219);"/>
    <path d="M 5.17 17.939 C 5.17 17.699 5.25 17.489 5.42 17.329 C 5.59 17.169 5.8 17.089 6.05 17.089 L 24.72 17.089 C 25.196 17.072 25.587 17.463 25.57 17.939 C 25.57 18.169 25.49 18.369 25.32 18.519 C 25.15 18.679 24.95 18.749 24.72 18.749 L 6.05 18.749 C 5.8 18.749 5.59 18.669 5.42 18.519 C 5.256 18.371 5.165 18.159 5.17 17.939 Z" style="fill-rule: nonzero; paint-order: fill; fill: rgb(190, 196, 196);"/>
    <path d="M 6.986 24.123 C 6.986 23.883 7.066 23.673 7.236 23.513 C 7.406 23.353 7.616 23.273 7.866 23.273 L 26.536 23.273 C 27.012 23.256 27.403 23.647 27.386 24.123 C 27.386 24.353 27.306 24.553 27.136 24.703 C 26.966 24.863 26.766 24.933 26.536 24.933 L 7.866 24.933 C 7.616 24.933 7.406 24.853 7.236 24.703 C 7.072 24.555 6.981 24.343 6.986 24.123 Z" style="fill-rule: nonzero; paint-order: fill; fill: rgb(155, 157, 158);"/>
    <path d="M 2.64 21.026 C 2.64 20.786 2.72 20.576 2.89 20.416 C 3.06 20.256 3.27 20.176 3.52 20.176 L 22.19 20.176 C 22.666 20.159 23.057 20.55 23.04 21.026 C 23.04 21.256 22.96 21.456 22.79 21.606 C 22.62 21.766 22.42 21.836 22.19 21.836 L 3.52 21.836 C 3.27 21.836 3.06 21.756 2.89 21.606 C 2.726 21.458 2.635 21.246 2.64 21.026 Z" style="fill-rule: nonzero; paint-order: fill; fill: rgb(160, 168, 167);"/>
  </g>
  <g class="cls-2" style="clip-path: url(#clip-path);" transform="matrix(0.118086, 0, 0, 0.116744, 3.096015, 7.018323)">
    <path class="cls-3" d="M 5.366 -2.378 C 5.309 -4.326 6.066 -6.205 7.446 -7.549 C 8.86 -8.912 10.744 -9.647 12.686 -9.593 L 167.836 -9.593 C 171.79 -9.732 175.032 -6.419 174.896 -2.378 C 174.961 -0.5 174.197 1.308 172.816 2.549 C 171.47 3.854 169.672 4.56 167.816 4.511 L 12.686 4.511 C 10.76 4.555 8.889 3.854 7.446 2.549 C 6.087 1.292 5.328 -0.505 5.366 -2.378 Z" style="fill: rgb(203, 203, 203);"/>
    <path class="cls-4" d="M 42.383 24.123 C 42.326 22.161 43.082 20.267 44.463 18.913 C 45.877 17.544 47.761 16.805 49.703 16.858 L 204.853 16.858 C 208.817 16.706 212.071 20.048 211.923 24.123 C 211.983 26.009 211.22 27.826 209.843 29.076 C 208.499 30.39 206.698 31.097 204.843 31.038 L 49.703 31.038 C 47.778 31.083 45.907 30.383 44.463 29.076 C 43.103 27.812 42.345 26.005 42.383 24.123 Z" style="fill: rgb(183, 188, 190);"/>
    <path class="cls-5" d="M 20.379 50.716 C 20.319 48.754 21.076 46.858 22.459 45.506 C 23.873 44.136 25.757 43.397 27.699 43.45 L 182.869 43.45 C 186.827 43.31 190.07 46.648 189.929 50.716 C 189.977 52.588 189.215 54.387 187.849 55.628 C 186.505 56.943 184.704 57.649 182.849 57.591 L 27.719 57.591 C 25.795 57.632 23.925 56.933 22.479 55.628 C 21.124 54.377 20.359 52.587 20.379 50.716 Z" style="fill: rgb(161, 170, 170);"/>
    <path class="cls-6" d="M 35.807 103.668 C 35.745 101.707 36.498 99.812 37.877 98.458 C 39.292 97.089 41.175 96.351 43.117 96.403 L 198.267 96.403 C 202.225 96.263 205.469 99.601 205.327 103.668 C 205.386 105.552 204.628 107.366 203.257 108.621 C 201.909 109.929 200.111 110.635 198.257 110.583 L 43.117 110.583 C 41.193 110.623 39.324 109.924 37.877 108.621 C 36.518 107.357 35.762 105.549 35.807 103.668 Z" style="fill: rgb(132, 135, 136);"/>
    <path class="cls-7" d="M -1.02 77.161 C -1.083 75.2 -0.326 73.302 1.06 71.951 C 2.471 70.583 4.351 69.844 6.29 69.897 L 161.44 69.897 C 165.401 69.746 168.653 73.08 168.51 77.151 C 168.566 79.036 167.804 80.852 166.43 82.105 C 165.083 83.413 163.284 84.118 161.43 84.067 L 6.29 84.067 C 4.369 84.111 2.501 83.411 1.06 82.105 C -0.301 80.846 -1.06 79.04 -1.02 77.161 Z" style="fill: rgb(136, 146, 144);"/>
    <g class="cls-2" style="clip-path: url(#clip-1);" transform="matrix(8.565751, 0, 0, 8.565751, -907.153482, 125.474352)">
      <path class="cls-3" d="M 6.27 18.73 C 6.213 16.824 6.969 14.985 8.35 13.67 C 9.764 12.337 175.936 14.776 175.8 18.73 C 175.865 20.567 175.101 22.337 173.72 23.55 C 172.374 24.828 170.575 25.518 168.72 25.47 L 13.59 25.47 C 11.664 25.513 9.793 24.827 8.35 23.55 C 6.991 22.321 6.232 20.562 6.27 18.73 Z" transform="translate(0 -11.67)" style="fill: rgb(237, 237, 237);"/>
      <path class="cls-4" d="M42.46,44.43a6.73,6.73,0,0,1,2.08-5.07,7.36,7.36,0,0,1,5.24-2H204.93A6.82,6.82,0,0,1,212,44.43a6.16,6.16,0,0,1-2.08,4.82,6.94,6.94,0,0,1-5,1.91H49.78a7.66,7.66,0,0,1-5.24-1.91A6.32,6.32,0,0,1,42.46,44.43Z" transform="translate(0 -11.67)" style="fill: rgb(215, 218, 219);"/>
      <path class="cls-5" d="M21,70.22a6.71,6.71,0,0,1,2.08-5.07,7.35,7.35,0,0,1,5.24-2H183.49a6.83,6.83,0,0,1,7.06,7.07A6.16,6.16,0,0,1,188.47,75a6.94,6.94,0,0,1-5,1.91H28.34A7.69,7.69,0,0,1,23.1,75,6.33,6.33,0,0,1,21,70.22Z" transform="translate(0 -11.67)" style="fill: rgb(190, 196, 196);"/>
      <path class="cls-6" d="M36.12,121.61a6.71,6.71,0,0,1,2.07-5.07,7.37,7.37,0,0,1,5.24-2H198.58a6.83,6.83,0,0,1,7.06,7.07,6.19,6.19,0,0,1-2.07,4.82,7,7,0,0,1-5,1.91H43.43a7.71,7.71,0,0,1-5.24-1.91A6.29,6.29,0,0,1,36.12,121.61Z" transform="translate(0 -11.67)" style="fill: rgb(155, 157, 158);"/>
      <path class="cls-7" d="M0,95.87A6.68,6.68,0,0,1,2.08,90.8a7.34,7.34,0,0,1,5.23-2H162.46a6.82,6.82,0,0,1,7.07,7.06,6.19,6.19,0,0,1-2.08,4.82,7,7,0,0,1-5,1.91H7.31a7.64,7.64,0,0,1-5.23-1.91A6.28,6.28,0,0,1,0,95.87Z" transform="translate(0 -11.67)" style="fill: rgb(160, 168, 167);"/>
    </g>
  </g>
</svg>