<?xml version="1.0" encoding="utf-8"?>
<svg viewBox="-2.2 0 214 200.127" width="212" height="200.127" xmlns="http://www.w3.org/2000/svg">
  <path fill-rule="evenodd" clip-rule="evenodd" d="M 44.745 80.162 C 44.745 46.984 71.831 20.091 105.245 20.091 C 138.657 20.091 165.744 46.984 165.744 80.162 C 165.744 113.337 138.657 140.232 105.245 140.232 C 71.831 140.232 44.745 113.337 44.745 80.162 Z M 39.562 89.262 L 28.644 110.187 L 50.79 118.662 L 50.919 142.23 L 74.495 139.515 L 85.639 160.323 L 105.245 147.04 L 124.85 160.323 L 135.992 139.515 L 159.569 142.23 L 159.697 118.662 L 181.844 110.187 L 170.927 89.262 L 186.57 71.537 L 167.11 58.046 L 172.667 35.134 L 149.12 32.168 L 143.316 9.316 L 121.079 17.555 L 105.245 0 L 89.409 17.555 L 67.173 9.316 L 61.369 32.168 L 37.823 35.134 L 43.378 58.046 L 23.917 71.537 L 39.562 89.262 Z" fill="#F0A64D"/>
  <path fill-rule="evenodd" clip-rule="evenodd" d="M 105.245 26.737 C 134.96 26.737 159.049 50.656 159.049 80.161 C 159.049 109.666 134.96 133.585 105.245 133.585 C 75.529 133.585 51.44 109.666 51.44 80.161 C 51.44 50.656 75.529 26.737 105.245 26.737 Z" fill="#F0A64D"/>
  <path fill-rule="evenodd" clip-rule="evenodd" d="M 165.744 80.162 C 165.744 46.984 138.656 20.091 105.245 20.091 L 105.245 0 L 121.079 17.555 L 143.316 9.316 L 149.12 32.168 L 172.667 35.134 L 167.109 58.046 L 186.57 71.537 L 170.927 89.262 L 181.844 110.187 L 159.697 118.662 L 159.569 142.23 L 135.992 139.515 L 124.85 160.323 L 105.245 147.04 L 105.245 140.232 C 138.656 140.232 165.744 113.337 165.744 80.162 Z" fill="#EB8C3C"/>
  <path fill-rule="evenodd" clip-rule="evenodd" d="M 159.049 80.161 C 159.049 109.666 134.96 133.585 105.245 133.585 L 105.245 26.737 C 134.96 26.737 159.049 50.656 159.049 80.161 Z" fill="#EB8C3C"/>
  <path d="M 182.564 117.004 L 182.564 118.504 L 184.074 118.504 L 184.095 118.504 C 198.608 118.504 210.489 130.302 210.489 144.712 C 210.489 159.124 198.608 170.919 184.095 170.919 L 146.936 170.919 L 145.425 170.919 L 145.425 172.419 C 145.425 186.831 133.544 198.627 119.03 198.627 L 54.506 198.627 C 39.993 198.627 28.111 186.831 28.111 172.419 L 28.111 170.919 L 26.6 170.919 L 26.394 170.919 C 11.879 170.919 0 159.124 0 144.712 C 0 130.302 11.879 118.504 26.394 118.504 L 63.741 118.504 L 65.252 118.504 L 65.252 117.004 C 65.252 102.594 77.132 90.797 91.646 90.797 L 156.17 90.797 C 170.683 90.797 182.564 102.594 182.564 117.004 Z" fill="#FFFFFE" stroke="#DBDCD6" stroke-width="3"/>
  <path fill-rule="evenodd" clip-rule="evenodd" d="M 184.095 117.004 L 184.074 117.004 C 184.074 101.766 171.517 89.297 156.17 89.297 L 105.245 89.297 L 105.245 200.127 L 119.03 200.127 C 134.378 200.127 146.936 187.66 146.936 172.419 L 184.095 172.419 C 199.442 172.419 212 159.952 212 144.712 C 212 129.473 199.442 117.004 184.095 117.004 Z" fill="#DBDCD6"/>
</svg>