<?xml version="1.0" encoding="utf-8"?>
<svg viewBox="0 0 210.5 208.966" width="210.5" height="208.966" xmlns="http://www.w3.org/2000/svg">
  <path fill-rule="evenodd" clip-rule="evenodd" d="M 26.955 104.483 C 26.955 61.241 62.009 26.187 105.251 26.187 C 148.492 26.187 183.546 61.241 183.546 104.483 C 183.546 147.725 148.492 182.78 105.251 182.78 C 62.009 182.78 26.955 147.725 26.955 104.483 Z M 20.246 116.346 L 6.117 143.62 L 34.778 154.668 L 34.943 185.384 L 65.455 181.845 L 79.877 208.966 L 105.251 191.652 L 130.623 208.966 L 145.043 181.845 L 175.557 185.384 L 175.722 154.668 L 204.384 143.62 L 190.254 116.346 L 210.5 93.244 L 185.317 75.658 L 192.505 45.794 L 162.032 41.927 L 154.522 12.143 L 125.742 22.881 L 105.251 0 L 84.758 22.881 L 55.978 12.143 L 48.469 41.927 L 17.996 45.794 L 25.183 75.658 L 0 93.244 L 20.246 116.346 Z" fill="#F0A64D"/>
  <path fill-rule="evenodd" clip-rule="evenodd" d="M 105.25 36.069 C 143.032 36.069 173.663 66.699 173.663 104.483 C 173.663 142.266 143.032 172.894 105.25 172.894 C 67.467 172.894 36.838 142.266 36.838 104.483 C 36.838 66.699 67.467 36.069 105.25 36.069 Z" fill="#F0A64D"/>
  <path fill-rule="evenodd" clip-rule="evenodd" d="M 183.545 104.483 C 183.545 61.241 148.491 26.187 105.25 26.187 L 105.25 0 L 125.742 22.881 L 154.522 12.143 L 162.032 41.927 L 192.504 45.794 L 185.317 75.658 L 210.5 93.244 L 190.254 116.346 L 204.383 143.62 L 175.722 154.668 L 175.557 185.384 L 145.043 181.845 L 130.623 208.966 L 105.25 191.652 L 105.25 182.78 C 148.491 182.78 183.545 147.725 183.545 104.483 Z" fill="#EB8C3C"/>
  <path fill-rule="evenodd" clip-rule="evenodd" d="M 173.663 104.483 C 173.663 142.266 143.032 172.894 105.25 172.894 L 105.25 36.069 C 143.032 36.069 173.663 66.699 173.663 104.483 Z" fill="#EB8C3C"/>
</svg>