<?xml version="1.0" encoding="utf-8"?>
<svg viewBox="0.3 0 214 199.534" width="212" height="199.534" xmlns="http://www.w3.org/2000/svg">
  <defs>
    <clipPath id="clip-4">
      <rect x="2773" y="1404" width="583" height="592"/>
    </clipPath>
    <clipPath id="clip-5">
      <rect x="3063" y="1403" width="294" height="593"/>
    </clipPath>
    <clipPath id="clip-6">
      <rect x="3063" y="1403" width="294" height="593"/>
    </clipPath>
  </defs>
  <g clip-path="url(#clip-4)" transform="matrix(0.277873, 0, 0, 0.277873, -743.941917, -390.278729)">
    <path d="M312.505 588.661C143.492 588.661 5.94908 451.118 5.94908 282.046 5.94908 164.968 71.1509 59.7882 176.033 7.55533 180.733 5.23519 186.444 6.12755 190.132 9.81597 193.821 13.5044 194.832 19.2155 192.512 23.9153 173.356 62.8222 163.659 104.644 163.659 148.191 163.659 303.7 290.196 430.237 445.705 430.237 489.728 430.237 531.966 420.302 571.23 400.789 575.93 398.469 581.641 399.361 585.33 403.05 589.077 406.798 590.029 412.449 587.65 417.149 535.714 522.924 430.297 588.661 312.505 588.661Z" fill="#F0A64D" transform="matrix(1 0 0 1.01301 2767.05 1399.16)"/>
    <g clip-path="url(#clip-5)">
      <g clip-path="url(#clip-6)">
        <path d="M264.235 1255.53C94.932 1255.53-42.8466 1117.75-42.8466 948.387-42.8466 831.108 22.4671 725.748 127.529 673.426 132.237 671.102 137.958 671.996 141.653 675.69 145.348 679.385 146.361 685.106 144.036 689.814 124.848 728.788 115.134 770.681 115.134 814.303 115.134 970.079 241.888 1096.83 397.664 1096.83 441.762 1096.83 484.073 1086.88 523.404 1067.33 528.112 1065.01 533.833 1065.9 537.528 1069.6 541.282 1073.35 542.236 1079.01 539.852 1083.72 487.828 1189.68 382.229 1255.53 264.235 1255.53Z" fill="#EB8C3C" transform="matrix(1 0 0 1.01128 2814.84 724.793)"/>
      </g>
    </g>
  </g>
  <path d="M 184.557 116.411 L 184.557 117.911 L 186.067 117.911 L 186.088 117.911 C 200.601 117.911 212.482 129.709 212.482 144.119 C 212.482 158.531 200.601 170.326 186.088 170.326 L 148.929 170.326 L 147.418 170.326 L 147.418 171.826 C 147.418 186.238 135.537 198.034 121.023 198.034 L 56.499 198.034 C 41.986 198.034 30.104 186.238 30.104 171.826 L 30.104 170.326 L 28.593 170.326 L 28.387 170.326 C 13.872 170.326 1.993 158.531 1.993 144.119 C 1.993 129.709 13.872 117.911 28.387 117.911 L 65.734 117.911 L 67.245 117.911 L 67.245 116.411 C 67.245 102.001 79.125 90.204 93.639 90.204 L 158.163 90.204 C 172.676 90.204 184.557 102.001 184.557 116.411 Z" fill="#FFFFFE" stroke="#DBDCD6" stroke-width="3"/>
  <path fill-rule="evenodd" clip-rule="evenodd" d="M 186.088 116.411 L 186.067 116.411 C 186.067 101.173 173.51 88.704 158.163 88.704 L 107.238 88.704 L 107.238 199.534 L 121.023 199.534 C 136.371 199.534 148.929 187.067 148.929 171.826 L 186.088 171.826 C 201.435 171.826 213.993 159.359 213.993 144.119 C 213.993 128.88 201.435 116.411 186.088 116.411 Z" fill="#DBDCD6"/>
</svg>