<?xml version="1.0" encoding="utf-8"?>
<svg viewBox="0 0 210.5 185.327" width="212" height="185.327" xmlns="http://www.w3.org/2000/svg">
  <path d="M 182.565 27.904 L 182.565 29.415 L 184.075 29.415 L 184.096 29.415 C 198.608 29.415 210.489 41.296 210.489 55.812 C 210.489 70.325 198.608 82.206 184.096 82.206 L 146.936 82.206 L 145.425 82.206 L 145.425 83.716 C 145.425 98.229 133.544 110.11 119.03 110.11 L 54.508 110.11 C 39.994 110.11 28.113 98.229 28.113 83.716 L 28.113 82.206 L 26.602 82.206 L 26.395 82.206 C 11.881 82.206 0 70.325 0 55.812 C 0 41.296 11.881 29.415 26.395 29.415 L 63.743 29.415 L 65.254 29.415 L 65.254 27.904 C 65.254 13.392 77.134 1.511 91.647 1.511 L 156.171 1.511 C 170.684 1.511 182.565 13.392 182.565 27.904 Z" fill="#FFFFFE" stroke="#DBDCD6" stroke-width="3"/>
  <path fill-rule="evenodd" clip-rule="evenodd" d="M 184.096 27.904 L 184.075 27.904 C 184.075 12.558 171.518 0 156.171 0 L 105.245 0 L 105.245 111.621 L 119.03 111.621 C 134.378 111.621 146.936 99.064 146.936 83.716 L 184.096 83.716 C 199.443 83.716 212 71.158 212 55.812 C 212 40.462 199.443 27.904 184.096 27.904 Z" fill="#DBDCD6"/>
  <path fill-rule="evenodd" clip-rule="evenodd" d="M 135.403 40.574 L 177.034 40.574 C 179.003 40.574 180.327 42.591 179.541 44.397 L 158.86 92.046 C 158.074 93.852 159.399 95.869 161.368 95.869 L 172.253 95.869 C 174.349 95.869 175.666 98.131 174.631 99.953 L 126.711 184.395 C 125.679 186.216 122.895 185.146 123.345 183.104 L 137.022 121.068 C 137.398 119.362 136.099 117.745 134.352 117.745 L 119.878 117.745 C 118.134 117.745 116.837 116.135 117.205 114.433 L 132.73 42.729 C 133.003 41.471 134.116 40.574 135.403 40.574 Z" fill="#F0A64D"/>
  <path fill-rule="evenodd" clip-rule="evenodd" d="M 179.54 44.397 C 180.326 42.591 179.002 40.574 177.033 40.574 L 148.454 40.574 L 148.454 146.076 L 174.63 99.953 C 175.665 98.131 174.348 95.869 172.252 95.869 L 161.367 95.869 C 159.398 95.869 158.073 93.852 158.859 92.046 L 179.54 44.397 Z" fill="#EB8C3C"/>
</svg>