<?xml version="1.0" encoding="utf-8"?>
<svg viewBox="-1.5 0 212 139.4" width="212" height="139.4" xmlns="http://www.w3.org/2000/svg">
  <path d="M 182.565 27.707 L 182.565 29.207 L 184.075 29.207 L 184.096 29.207 C 198.608 29.207 210.489 41.004 210.489 55.416 C 210.489 69.827 198.608 81.624 184.096 81.624 L 146.937 81.624 L 145.426 81.624 L 145.426 83.124 C 145.426 97.534 133.546 109.331 119.03 109.331 L 54.509 109.331 C 39.994 109.331 28.113 97.534 28.113 83.124 L 28.113 81.624 L 26.602 81.624 L 26.393 81.624 C 11.881 81.624 0 69.827 0 55.416 C 0 41.004 11.881 29.207 26.393 29.207 L 63.742 29.207 L 65.253 29.207 L 65.253 27.707 C 65.253 13.297 77.134 1.5 91.646 1.5 L 156.171 1.5 C 170.684 1.5 182.565 13.297 182.565 27.707 Z" fill="#FFFFFE" stroke="#DBDCD6" stroke-width="3"/>
  <path fill-rule="evenodd" clip-rule="evenodd" d="M 184.096 27.707 L 184.075 27.707 C 184.075 12.469 171.518 0 156.171 0 L 105.245 0 L 105.245 110.831 L 119.03 110.831 C 134.38 110.831 146.937 98.363 146.937 83.124 L 184.096 83.124 C 199.443 83.124 212 70.655 212 55.416 C 212 40.176 199.443 27.707 184.096 27.707 Z" fill="#DBDCD6"/>
  <path fill-rule="evenodd" clip-rule="evenodd" d="M 148.456 40.287 L 122.897 100.434 C 115.317 118.274 127.75 138.59 147.235 139.375 C 147.641 139.391 148.048 139.4 148.456 139.4 C 148.865 139.4 149.273 139.391 149.676 139.375 C 169.162 138.59 181.596 118.274 174.014 100.434 L 148.456 40.287 Z" fill="#98D1D8"/>
  <path fill-rule="evenodd" clip-rule="evenodd" d="M 174.014 100.434 L 148.456 40.287 L 148.456 139.4 C 148.865 139.4 149.273 139.391 149.676 139.375 C 169.162 138.59 181.596 118.274 174.014 100.434 Z" fill="#87B3BB"/>
</svg>