<svg width="20" height="15.5" viewBox="0 0 25 24" fill="none" opacity="0.3" stroke-width="2" xmlns="http://www.w3.org/2000/svg">
<path d="M10.1808 4.59001C10.4131 4.35633 10.6996 4.18366 11.0147 4.08735C11.3298 3.99105 11.6638 3.9741 11.9871 4.038C12.3104 4.10191 12.6128 4.24469 12.8676 4.45366C13.1223 4.66263 13.3215 4.9313 13.4474 5.23581C13.5734 5.54031 13.6221 5.8712 13.5893 6.19908C13.5565 6.52695 13.4432 6.84164 13.2595 7.11517C13.0758 7.38871 12.8273 7.61261 12.5362 7.76698C12.2451 7.92135 11.9203 8.0014 11.5908 8.00001H2.59082M13.1808 19.41C13.4131 19.6437 13.6996 19.8164 14.0147 19.9127C14.3298 20.009 14.6638 20.0259 14.9871 19.962C15.3104 19.8981 15.6128 19.7553 15.8676 19.5464C16.1223 19.3374 16.3215 19.0687 16.4474 18.7642C16.5734 18.4597 16.6221 18.1288 16.5893 17.8009C16.5565 17.4731 16.4432 17.1584 16.2595 16.8849C16.0758 16.6113 15.8273 16.3874 15.5362 16.233C15.2451 16.0787 14.9203 15.9986 14.5908 16H2.59082M18.3208 7.73001C18.6117 7.4399 18.9695 7.22593 19.3628 7.10703C19.756 6.98812 20.1724 6.96795 20.5753 7.0483C20.9782 7.12865 21.355 7.30703 21.6726 7.56768C21.9901 7.82833 22.2385 8.16321 22.3958 8.5427C22.5531 8.9222 22.6145 9.33461 22.5745 9.74346C22.5345 10.1523 22.3943 10.545 22.1664 10.8868C21.9386 11.2286 21.63 11.509 21.2679 11.7032C20.9059 11.8973 20.5016 11.9993 20.0908 12H2.59082" stroke="#25282B" stroke-width="2" stroke-linecap="round" stroke-linejoin="round"/>
</svg>
