<svg width="111" height="134" viewBox="0 0 111 134" fill="none" xmlns="http://www.w3.org/2000/svg">
<path fill-rule="evenodd" clip-rule="evenodd" d="M1.44466 123.691L88.9354 132.586L108.996 10.7942L21.5049 1.89899L1.44466 123.691Z" fill="#A05C2E"/>
<path fill-rule="evenodd" clip-rule="evenodd" d="M8.18292 118.256L84.1765 125.97L102.255 16.2297L26.2612 8.51556L8.18292 118.256Z" fill="#632A1E"/>
<path fill-rule="evenodd" clip-rule="evenodd" d="M9.53321 116.79L83.3454 124.283L100.904 17.6943L27.0923 10.2016L9.53321 116.79Z" fill="#7D3723"/>
<path fill-rule="evenodd" clip-rule="evenodd" d="M17.77 112.389L44.7904 115.113L52.179 70.2793L25.1587 67.5555L17.77 112.389Z" fill="#A96B50"/>
<path fill-rule="evenodd" clip-rule="evenodd" d="M44.5108 115.113L17.7701 112.422L20.3729 109.538L42.7813 111.793L44.5108 115.113Z" fill="#8B4427"/>
<path fill-rule="evenodd" clip-rule="evenodd" d="M52.1792 70.2461L25.4385 67.5555L27.1855 70.876L49.556 73.1269L52.1792 70.2461Z" fill="#B7896B"/>
<path fill-rule="evenodd" clip-rule="evenodd" d="M20.4081 109.842L43.0624 112.12L49.5386 72.8252L26.8843 70.5474L20.4081 109.842Z" fill="#A46437"/>
<path fill-rule="evenodd" clip-rule="evenodd" d="M47.625 115.795L74.6437 118.518L82.0324 73.6851L55.0137 70.9615L47.625 115.795Z" fill="#A96B50"/>
<path fill-rule="evenodd" clip-rule="evenodd" d="M74.3642 118.519L47.625 115.828L50.2279 112.944L72.6362 115.199L74.3642 118.519Z" fill="#8B4427"/>
<path fill-rule="evenodd" clip-rule="evenodd" d="M82.0326 73.652L55.2935 70.9615L57.0405 74.2819L79.411 76.5329L82.0326 73.652Z" fill="#B7896B"/>
<path fill-rule="evenodd" clip-rule="evenodd" d="M50.2645 113.248L72.9189 115.526L79.395 76.2314L56.7407 73.9536L50.2645 113.248Z" fill="#A46437"/>
<path fill-rule="evenodd" clip-rule="evenodd" d="M43.0624 112.12L26.8843 70.5474L49.5386 72.8252L43.0624 112.12Z" fill="#AF754C"/>
<path fill-rule="evenodd" clip-rule="evenodd" d="M72.9189 115.526L56.7407 73.9536L79.395 76.2314L72.9189 115.526Z" fill="#AF754C"/>
<path fill-rule="evenodd" clip-rule="evenodd" d="M26.6646 61.0147L53.6849 63.7385L61.0735 18.9051L34.0532 16.1813L26.6646 61.0147Z" fill="#A96B50"/>
<path fill-rule="evenodd" clip-rule="evenodd" d="M53.4053 63.7395L26.6646 61.0489L29.2674 58.1648L51.6758 60.4195L53.4053 63.7395Z" fill="#8B4427"/>
<path fill-rule="evenodd" clip-rule="evenodd" d="M61.0737 18.872L34.333 16.1813L36.0799 19.5031L58.4503 21.754L61.0737 18.872Z" fill="#B7896B"/>
<path fill-rule="evenodd" clip-rule="evenodd" d="M29.3026 58.4683L51.957 60.7461L58.4331 21.4517L35.7788 19.1739L29.3026 58.4683Z" fill="#A46437"/>
<path fill-rule="evenodd" clip-rule="evenodd" d="M56.5195 64.4206L83.5383 67.1443L90.927 22.3109L63.9082 19.5873L56.5195 64.4206Z" fill="#A96B50"/>
<path fill-rule="evenodd" clip-rule="evenodd" d="M83.2587 67.1453L56.5196 64.4548L59.1224 61.5707L81.5308 63.8254L83.2587 67.1453Z" fill="#8B4427"/>
<path fill-rule="evenodd" clip-rule="evenodd" d="M90.9271 22.2777L64.188 19.5873L65.9349 22.909L88.3053 25.1599L90.9271 22.2777Z" fill="#B7896B"/>
<path fill-rule="evenodd" clip-rule="evenodd" d="M59.1591 61.8745L81.8134 64.1523L88.2896 24.8579L65.6353 22.5801L59.1591 61.8745Z" fill="#924B2A"/>
<path fill-rule="evenodd" clip-rule="evenodd" d="M51.957 60.7461L35.7788 19.1739L58.4331 21.4517L51.957 60.7461Z" fill="#AF754C"/>
<path fill-rule="evenodd" clip-rule="evenodd" d="M59.1591 61.8745L81.8134 64.1523L88.2896 24.8579L65.6353 22.5801L59.1591 61.8745Z" fill="#A46437"/>
<path fill-rule="evenodd" clip-rule="evenodd" d="M81.8134 64.1523L65.6353 22.5801L88.2896 24.8579L81.8134 64.1523Z" fill="#AF754C"/>
<path fill-rule="evenodd" clip-rule="evenodd" d="M89.0363 78.5534L84.0728 78.0519C83.6695 78.0111 83.3854 77.7195 83.438 77.4003L84.9297 68.3482C84.9823 68.029 85.3517 67.8034 85.7549 67.8441L90.7184 68.3457C91.1217 68.3864 91.4058 68.6781 91.3532 68.9972L89.8615 78.0493C89.8089 78.3685 89.4395 78.5941 89.0363 78.5534Z" fill="#9B6E2F"/>
<path fill-rule="evenodd" clip-rule="evenodd" d="M89.237 77.7168L84.6863 77.257C84.3165 77.2196 84.056 76.9521 84.1042 76.6594L85.4718 68.3606C85.52 68.0679 85.8587 67.861 86.2285 67.8983L90.7792 68.3581C91.149 68.3955 91.4095 68.663 91.3613 68.9557L89.9937 77.2545C89.9455 77.5472 89.6068 77.7541 89.237 77.7168Z" fill="#BB933F"/>
<path fill-rule="evenodd" clip-rule="evenodd" d="M90.4418 71.5711C90.2644 72.656 89.0238 73.4212 87.6699 73.2819C86.3145 73.1424 85.3611 72.1514 85.5385 71.0665C85.7158 69.9828 86.9564 69.2176 88.3118 69.3571C89.6657 69.4965 90.6191 70.4874 90.4418 71.5711Z" fill="#A77E35"/>
<path fill-rule="evenodd" clip-rule="evenodd" d="M89.8873 71.5139C89.7501 72.3527 88.7893 72.9441 87.743 72.8364C86.6952 72.7286 85.9581 71.9624 86.0953 71.1237C86.2322 70.2862 87.1914 69.6946 88.2393 69.8024C89.2856 69.9101 90.0242 70.6764 89.8873 71.5139Z" fill="#BB933F"/>
<path fill-rule="evenodd" clip-rule="evenodd" d="M89.1605 72.533C89.993 72.0161 90.1497 71.0581 89.5076 70.3907C88.8642 69.7219 87.6673 69.5987 86.8307 70.1113L89.1605 72.533Z" fill="#C9AB64"/>
<path fill-rule="evenodd" clip-rule="evenodd" d="M88.1865 74.519C88.2398 74.196 87.9517 73.8988 87.5421 73.8574C87.1324 73.816 86.7559 74.046 86.7026 74.369C86.6606 74.6239 86.8277 74.8588 87.0995 74.9696L86.425 76.1328L87.8833 76.2802L87.6096 75.0212C87.9068 74.9678 88.1445 74.7738 88.1865 74.519Z" fill="#1E2721"/>
</svg>
