<svg width="132" height="142" viewBox="0 0 132 142" fill="none" xmlns="http://www.w3.org/2000/svg">
<path fill-rule="evenodd" clip-rule="evenodd" d="M111.734 136.05L3.65551 123.011C2.34459 121.015 1.76409 118.722 2.14672 116.385L20.6719 3.22677C20.9634 1.44661 22.7821 0.190863 24.7303 0.42591L128.299 12.9215C130.247 13.1565 131.586 14.7932 131.294 16.5734L111.734 136.05Z" fill="#E15C42"/>
<path fill-rule="evenodd" clip-rule="evenodd" d="M3.66848 123.012L3.65551 123.011C2.34459 121.015 1.76409 118.722 2.14672 116.385L20.6719 3.22677C20.9634 1.44661 22.7821 0.190863 24.7303 0.42591L28.1421 0.837541C26.4116 10.8805 24.5583 20.9056 22.689 30.9287C20.2749 43.8916 17.9982 56.8726 15.6317 69.8428C13.469 81.6979 10.9081 93.4948 8.72652 105.346C8.70354 105.468 8.8022 105.554 8.913 105.567C8.98361 105.575 9.05915 105.555 9.11153 105.496C11.5487 102.774 15.3976 101.921 19.0503 101.717C21.4986 101.581 23.9577 101.727 26.3945 102.021C28.2898 102.25 30.1719 102.568 32.0246 102.911C35.9553 103.641 39.8201 104.602 43.7105 105.479C47.4336 106.32 51.2193 106.906 55.0268 107.365C56.7818 107.577 58.542 107.762 60.3019 107.932C67.2566 108.603 74.2432 109.007 81.1888 109.744C82.5653 109.89 83.9392 110.047 85.3128 110.213C90.8622 110.882 96.3925 111.691 101.923 112.459C106.376 113.075 110.836 113.688 115.305 114.239L114.625 118.393L17.8246 106.714L17.8188 106.749C10.0211 106.247 3.12636 110.401 2.14937 116.369C1.76648 118.708 2.347 121 3.65789 122.996C3.66151 123.002 3.66486 123.007 3.66848 123.012Z" fill="#E0553D"/>
<path fill-rule="evenodd" clip-rule="evenodd" d="M114.625 118.393L110.918 141.036L14.1176 129.357L14.1228 129.325C9.47121 128.494 5.68751 126.091 3.65781 122.996C2.34691 121 1.76639 118.708 2.14929 116.369C3.12628 110.401 10.021 106.246 17.8187 106.749L17.8245 106.714L114.625 118.393Z" fill="#BF503B"/>
<path fill-rule="evenodd" clip-rule="evenodd" d="M88.5915 12.9145C88.5915 12.9145 89.4715 12.9543 91.005 13.058C92.5369 13.1764 94.7327 13.3034 97.3541 13.5316C99.9774 13.7482 103.033 14.0319 106.302 14.3689C107.936 14.5444 109.627 14.7029 111.338 14.9048C113.051 15.1004 114.792 15.2984 116.532 15.4973C117.4 15.605 118.269 15.7127 119.135 15.8203C120.092 15.9215 121.049 16.2025 121.905 16.6086C122.769 17.015 123.547 17.5929 124.145 18.2965C124.764 18.9963 125.105 19.8346 125.35 20.6473C125.765 22.2917 125.433 23.9426 125.165 25.2445C124.895 26.6051 124.64 27.8913 124.404 29.0784C123.929 31.4524 123.463 33.4224 123.17 34.8056C122.859 36.1867 122.661 36.9734 122.661 36.9734C122.636 37.0674 122.533 37.1274 122.432 37.1069C122.339 37.0889 122.278 37.0122 122.285 36.928C122.285 36.928 122.346 36.1248 122.492 34.7238C122.654 33.3248 122.838 31.3208 123.144 28.9264C123.298 27.7294 123.466 26.4326 123.643 25.0608C123.689 24.718 123.736 24.371 123.784 24.0187C123.822 23.6758 123.834 23.355 123.862 23.017C123.902 22.6808 123.833 22.3571 123.833 22.023C123.821 21.689 123.711 21.378 123.66 21.0505C123.442 20.4366 123.183 19.8249 122.715 19.3367C122.262 18.8442 121.689 18.4321 121.028 18.1196C120.357 17.8106 119.636 17.5967 118.857 17.5213C117.989 17.4197 117.12 17.3178 116.251 17.216C114.514 16.9951 112.777 16.7736 111.068 16.5563C109.358 16.3455 107.681 16.0978 106.055 15.8799C102.804 15.4302 99.7758 14.9798 97.1846 14.5672C94.5914 14.1664 92.4399 13.7689 90.9293 13.5202C89.422 13.257 88.5633 13.087 88.5633 13.087C88.5121 13.0764 88.4797 13.0301 88.4923 12.9831C88.5033 12.9411 88.5463 12.9127 88.5915 12.9145Z" fill="#FFFFFE"/>
<path fill-rule="evenodd" clip-rule="evenodd" d="M114.302 120.368L111.155 139.59L16.8111 128.208L16.8165 128.175C12.5799 127.451 9.05052 125.575 6.94397 123.158C6.87596 123.086 6.81327 123.01 6.75074 122.934C6.003 122.022 5.45082 121.041 5.13667 120.02C5.11233 119.95 5.09248 119.882 5.07463 119.811C4.82924 118.919 4.75852 117.996 4.89902 117.068L4.93133 116.87C5.09401 115.947 5.45827 115.077 5.98049 114.278C6.02015 114.215 6.06177 114.15 6.10695 114.093C6.73693 113.185 7.58318 112.369 8.59123 111.672C8.67554 111.615 8.76266 111.562 8.84721 111.503C11.6478 109.68 15.6437 108.706 19.9537 109.011L19.9581 108.985L114.302 120.368Z" fill="#DBD5C3"/>
<path fill-rule="evenodd" clip-rule="evenodd" d="M113.682 124.152L113.65 124.347L8.59147 111.672C8.67577 111.615 8.76289 111.562 8.84744 111.503L113.682 124.152Z" fill="#D6BCB4"/>
<path fill-rule="evenodd" clip-rule="evenodd" d="M113.214 127.015L113.181 127.211L5.98062 114.277C6.02028 114.215 6.0619 114.15 6.10708 114.093L113.214 127.015Z" fill="#D6BCB4"/>
<path fill-rule="evenodd" clip-rule="evenodd" d="M4.89883 117.068L112.712 130.075L112.745 129.878L4.93115 116.87L4.89883 117.068Z" fill="#D6BCB4"/>
<path fill-rule="evenodd" clip-rule="evenodd" d="M112.276 132.745L112.243 132.942L5.13676 120.02C5.11242 119.95 5.09256 119.882 5.07471 119.811L112.276 132.745Z" fill="#D6BCB4"/>
<path fill-rule="evenodd" clip-rule="evenodd" d="M111.807 135.609L111.775 135.806L6.9442 123.158C6.8762 123.086 6.81351 123.01 6.75098 122.934L111.807 135.609Z" fill="#D6BCB4"/>
<path fill-rule="evenodd" clip-rule="evenodd" d="M100.773 25.9452L97.7988 44.1131C97.6616 44.9514 96.8083 45.5405 95.8917 45.4299L42.1587 38.947C41.242 38.8364 40.6157 38.0688 40.753 37.2305L43.7273 19.0626C43.8638 18.2289 44.7125 17.6377 45.6291 17.7483L99.3622 24.2312C100.279 24.3418 100.91 25.1114 100.773 25.9452Z" fill="#EB926E"/>
<path fill-rule="evenodd" clip-rule="evenodd" d="M49.7043 34.2822C50.2327 34.7204 50.7931 34.9743 51.3832 35.0455C52.1224 35.1347 52.7782 34.9245 53.3573 34.4156C53.9355 33.9037 54.301 33.1854 54.4523 32.2611C54.5658 31.5679 54.4616 31.0183 54.1407 30.6171C53.82 30.2145 53.4762 29.8836 53.1094 29.6232C52.5901 29.7767 52.0484 29.9067 51.481 30.0158C50.9153 30.1236 50.3906 30.1496 49.906 30.0912C49.8369 30.772 49.7858 31.4534 49.7491 32.1353C49.7121 32.8198 49.6913 33.5049 49.6848 34.1917C49.7038 34.215 49.7106 34.2441 49.7043 34.2822ZM54.2152 25.6293C54.3259 24.9535 54.1733 24.41 53.7569 23.9944C53.3417 23.5818 52.8495 23.3404 52.2801 23.2717C51.7937 23.213 51.4005 23.2939 51.0972 23.5125C50.7906 23.7305 50.5869 24.1578 50.4828 24.7941C50.3628 25.5269 50.2699 26.2242 50.2044 26.8831C50.1401 27.545 50.0778 28.1849 50.0183 28.8071C50.2979 28.6843 50.6358 28.5923 51.0324 28.5312C51.4288 28.4717 51.8338 28.358 52.2477 28.1916C52.6632 28.0255 53.0452 27.7539 53.398 27.3728C53.7506 26.9918 54.0234 26.4116 54.2152 25.6293ZM57.558 31.0144C57.7911 31.5541 57.8597 32.1219 57.762 32.7187C57.6389 33.4705 57.349 34.1246 56.8931 34.6781C56.4368 35.2332 55.9021 35.6803 55.2874 36.0179C54.6724 36.3567 54.0061 36.5911 53.2868 36.7205C52.566 36.8483 51.8911 36.8759 51.2576 36.7994C50.8995 36.7562 50.5404 36.6875 50.1786 36.5961C49.8186 36.5035 49.4931 36.3597 49.2016 36.1679C48.9808 36.201 48.7682 36.2142 48.5651 36.2092C48.3621 36.204 48.1655 36.1893 47.9768 36.1665C47.5129 36.1105 47.1616 36.0248 46.9212 35.9092C46.6844 35.7912 46.5131 35.6512 46.4102 35.4927C46.3077 35.3326 46.2518 35.1454 46.2435 34.9267C46.2368 34.7095 46.2315 34.4821 46.2261 34.2459C46.2366 31.8307 46.4392 29.4075 46.8367 26.9794C47.0072 25.938 47.1774 25.0978 47.347 24.4605C47.5152 23.8216 47.7026 23.334 47.9083 22.995C48.1122 22.6556 48.349 22.4351 48.6144 22.3283C48.8781 22.2214 49.193 22.1714 49.5576 22.1751C50.1471 21.9927 50.7394 21.8822 51.3358 21.8453C51.932 21.8098 52.5262 21.8278 53.1165 21.899C53.5178 21.9474 53.9963 22.044 54.5532 22.1887C55.1097 22.3363 55.6317 22.556 56.1218 22.8507C56.6102 23.1454 57.0041 23.5285 57.3028 23.9956C57.6029 24.4644 57.6966 25.047 57.5831 25.7403C57.4697 26.4335 57.1496 27.0438 56.6215 27.5693C56.0964 28.0966 55.5025 28.5261 54.8475 28.8603C55.3902 29.0823 55.9154 29.362 56.4199 29.6973C56.9227 30.034 57.3026 30.4722 57.558 31.0144Z" fill="#FCF9CE"/>
<path fill-rule="evenodd" clip-rule="evenodd" d="M63.5813 36.3692C64.0225 36.4224 64.4683 36.1915 64.9179 35.6758C65.3678 35.1604 65.7897 34.5266 66.1795 33.7787C66.5713 33.0294 66.907 32.2645 67.1865 31.4837C67.4633 30.6997 67.6448 30.0594 67.7269 29.5577C67.7932 29.1526 67.8115 28.6729 67.7846 28.1194C67.7559 27.567 67.6764 27.0369 67.5443 26.5287C67.4119 26.022 67.2277 25.5822 66.9873 25.207C66.748 24.8365 66.459 24.6287 66.1215 24.5879C66.0368 24.5777 65.8816 24.5993 65.6595 24.6501C65.092 24.8382 64.6211 25.1542 64.2466 25.5998C63.8731 26.0469 63.5594 26.558 63.3016 27.1369C63.0471 27.7148 62.8429 28.3344 62.6907 28.9948C62.5405 29.6539 62.4176 30.2849 62.3201 30.8802C62.2442 31.3439 62.1985 31.8827 62.1822 32.4998C62.1673 33.1186 62.1989 33.7025 62.2819 34.2526C62.3648 34.8025 62.5065 35.282 62.7089 35.6898C62.9095 36.0973 63.2021 36.3234 63.5813 36.3692ZM65.7849 23.4853C66.7237 23.5404 67.5675 23.7362 68.3168 24.0712C69.069 24.4081 69.6883 24.8602 70.1756 25.4305C70.6629 26.001 71.0019 26.6803 71.1954 27.4704C71.389 28.2603 71.404 29.1452 71.2429 30.1295C71.0755 31.152 70.7736 32.1403 70.3373 33.1004C69.9012 34.0607 69.3498 34.8981 68.6845 35.6143C68.0192 36.3305 67.2361 36.8803 66.3367 37.2625C65.4358 37.6446 64.4365 37.7702 63.3408 37.638C62.3714 37.521 61.5603 37.2456 60.9117 36.8139C60.2628 36.3835 59.7549 35.839 59.3889 35.1848C59.0227 34.532 58.7918 33.8106 58.6957 33.0235C58.5997 32.2347 58.6192 31.4181 58.7583 30.5684C58.9003 29.701 59.146 28.8281 59.4942 27.9454C59.8425 27.0642 60.3044 26.2845 60.8774 25.6049C61.4497 24.9282 62.1401 24.388 62.9467 23.9842C63.7549 23.5805 64.7007 23.4127 65.7849 23.4853Z" fill="#FCF9CE"/>
<path fill-rule="evenodd" clip-rule="evenodd" d="M76.5122 37.9293C76.9537 37.9826 77.4009 37.7518 77.8506 37.2361C78.3004 36.7207 78.7223 36.0869 79.1123 35.339C79.5041 34.5897 79.8381 33.8246 80.1174 33.0438C80.3959 32.26 80.5758 31.6195 80.6579 31.1178C80.7242 30.7127 80.7425 30.233 80.7156 29.6795C80.6885 29.1273 80.6074 28.597 80.477 28.089C80.3446 27.5823 80.1589 27.1423 79.9201 26.7674C79.679 26.3966 79.3901 26.1888 79.0543 26.1483C78.9694 26.138 78.8142 26.1596 78.5923 26.2104C78.0232 26.3983 77.5523 26.7144 77.1792 27.1601C76.8042 27.607 76.4905 28.1181 76.2343 28.6972C75.9782 29.2749 75.7756 29.8948 75.6235 30.5551C75.4731 31.2142 75.3471 31.8448 75.2496 32.4402C75.1737 32.9038 75.1295 33.4428 75.1132 34.0599C75.0984 34.6787 75.1333 35.2631 75.2146 35.8129C75.2958 36.3626 75.4374 36.8421 75.6399 37.2499C75.8423 37.6576 76.133 37.8836 76.5122 37.9293ZM78.7177 25.0456C79.6547 25.1005 80.4971 25.2961 81.251 25.6317C82.0001 25.9682 82.6194 26.4203 83.1082 26.9908C83.5939 27.5612 83.9328 28.2404 84.1266 29.0305C84.3201 29.8204 84.3368 30.7055 84.1756 31.6898C84.0082 32.7124 83.7062 33.7006 83.2701 34.6607C82.8338 35.621 82.2825 36.4584 81.6173 37.1746C80.9519 37.8908 80.1687 38.4406 79.2678 38.8226C78.3668 39.2047 77.3676 39.3303 76.2734 39.1983C75.3026 39.0811 74.4929 38.8059 73.8426 38.374C73.1938 37.9436 72.686 37.3991 72.32 36.7449C71.9553 36.0923 71.7229 35.3707 71.6266 34.5836C71.5306 33.7948 71.5518 32.9784 71.6909 32.1287C71.8329 31.2613 72.0769 30.3882 72.427 29.5057C72.7735 28.6243 73.2354 27.8446 73.81 27.1652C74.3808 26.4883 75.0712 25.9481 75.8794 25.5445C76.6877 25.1408 77.635 24.9732 78.7177 25.0456Z" fill="#FCF9CE"/>
<path fill-rule="evenodd" clip-rule="evenodd" d="M93.7332 40.2726C93.7527 40.4123 93.786 40.5579 93.8372 40.7132C93.8874 40.8656 93.8995 41.0206 93.8744 41.1741C93.8272 41.4623 93.6121 41.6198 93.2332 41.6428C92.8546 41.6642 92.4857 41.6555 92.1275 41.6123C91.4317 41.5283 90.9821 41.3756 90.7832 41.1548C90.5829 40.9336 90.4238 40.5908 90.3061 40.1247C90.0866 39.2331 89.7881 38.3662 89.4103 37.5257C89.0311 36.6835 88.5935 35.8893 88.0912 35.1411C87.9653 35.9104 87.8865 36.6914 87.8528 37.4839C87.8207 38.278 87.7916 39.0739 87.7694 39.8767C87.7503 39.9938 87.6714 40.0767 87.5337 40.1302C87.3966 40.1809 87.239 40.217 87.0648 40.2348C86.8888 40.2537 86.6995 40.2549 86.4997 40.2397C86.2965 40.2256 86.1229 40.2091 85.9758 40.1913C85.5536 40.1404 85.2214 40.0675 84.9798 39.9683C84.7366 39.8704 84.5645 39.7556 84.4553 39.6261C84.3477 39.4952 84.2803 39.35 84.2528 39.1885C84.2271 39.0273 84.2168 38.85 84.2277 38.6545C84.2458 37.4977 84.3369 36.314 84.5022 35.1047C84.6672 33.8971 84.8463 32.7136 85.0357 31.5565C85.1588 30.8048 85.2823 30.05 85.4071 29.2879C85.5316 28.5273 85.7053 27.7861 85.9321 27.0677C85.9544 26.9317 86.0252 26.8178 86.1483 26.7238C86.271 26.6313 86.4163 26.5608 86.5872 26.5127C86.7552 26.463 86.9175 26.4288 87.0711 26.4071C87.2246 26.3867 87.3555 26.3833 87.4596 26.3958C87.6067 26.4136 87.7922 26.4359 88.013 26.4626C88.2337 26.4892 88.4474 26.5285 88.6552 26.5848C88.8603 26.6378 89.0314 26.7078 89.1691 26.7929C89.3035 26.8793 89.3621 26.9894 89.3401 27.1239C89.337 27.1428 89.3282 27.1567 89.317 27.1658C89.304 27.1746 89.2955 27.1871 89.2923 27.2061C89.283 27.2632 89.2936 27.3091 89.3187 27.3435C89.3478 27.3754 89.3568 27.4107 89.3505 27.4487C89.2557 28.028 89.1457 28.6097 89.0158 29.1938C88.8893 29.7781 88.7749 30.367 88.6769 30.9652C89.0968 30.6429 89.5063 30.3135 89.9037 29.9781C90.3027 29.6428 90.7025 29.3033 91.1032 28.9579C91.2787 28.8029 91.468 28.6231 91.6736 28.4226C91.8797 28.2207 92.1014 28.0416 92.3427 27.8827C92.5836 27.7269 92.846 27.5975 93.1325 27.4919C93.4185 27.3892 93.7304 27.3581 94.0663 27.3986C94.3827 27.4368 94.6444 27.5431 94.8526 27.7159C95.0611 27.8871 95.1374 28.138 95.0838 28.4656C95.0744 28.5226 95.0585 28.5609 95.0345 28.5775C94.7173 29.0702 94.3371 29.5196 93.895 29.9287C93.4514 30.3374 92.983 30.7374 92.4878 31.1311C91.9931 31.5234 91.4948 31.9153 90.9906 32.3063C90.4845 32.6972 90.0139 33.1207 89.5734 33.5792C90.1036 33.8789 90.58 34.2763 91.0067 34.7693C91.4297 35.2635 91.8126 35.8137 92.1544 36.4263C92.4947 37.0371 92.7921 37.6727 93.0492 38.3332C93.3067 38.9921 93.5351 39.6401 93.7332 40.2726Z" fill="#FCF9CE"/>
<path fill-rule="evenodd" clip-rule="evenodd" d="M111.753 135.935L111.822 135.515C111.83 135.516 111.838 135.517 111.846 135.518C111.813 135.656 111.783 135.795 111.753 135.935Z" fill="#D7D5CB"/>
<path fill-rule="evenodd" clip-rule="evenodd" d="M111.082 140.032C110.163 139.916 109.243 139.802 108.325 139.687C99.3939 138.567 90.4655 137.448 81.5342 136.328C67.121 134.518 52.7057 132.71 38.2923 130.902C31.1335 130.003 23.9718 129.104 16.811 128.208L111.155 139.591C111.131 139.738 111.107 139.885 111.082 140.032Z" fill="#B74E39"/>
<path fill-rule="evenodd" clip-rule="evenodd" d="M111.155 139.59L16.8111 128.208L16.8165 128.175C12.5799 127.451 9.05052 125.575 6.94397 123.158L14.4583 124.065C15.208 124.547 15.9995 124.958 16.8005 125.283C19.5604 126.404 22.5536 126.976 25.58 127.342C27.5344 127.577 29.5028 127.728 31.4304 127.882C32.9218 128.001 34.4067 128.157 35.8885 128.336C38.2993 128.627 40.701 128.978 43.1023 129.329C45.5047 129.68 47.9069 130.031 50.3195 130.322C50.6299 130.359 50.9412 130.395 51.2519 130.431C60.6801 131.503 70.2053 131.823 79.6246 132.959C79.8507 132.986 80.0778 133.015 80.3038 133.042C84.0502 133.511 87.7772 134.111 91.5266 134.563C93.1601 134.76 94.7983 134.929 96.4437 135.046C96.7303 135.069 97.0178 135.087 97.3042 135.1C100.351 135.259 103.425 135.126 106.481 135.168L111.774 135.806L111.753 135.937C111.499 137.137 111.34 138.381 111.153 139.59L111.155 139.59ZM111.807 135.609L108.721 135.237C109.612 135.282 110.5 135.352 111.384 135.459C111.53 135.477 111.676 135.495 111.822 135.515L111.807 135.609ZM14.0881 123.819L6.75074 122.934C6.003 122.022 5.45082 121.041 5.13667 120.02L10.882 120.713C11.7022 121.888 12.8255 122.952 14.0881 123.819ZM10.7332 120.494L5.07463 119.811C4.82924 118.919 4.75852 117.996 4.89902 117.068L9.91735 117.673C9.85986 118.582 10.1035 119.537 10.7312 120.491C10.7318 120.492 10.7327 120.493 10.7332 120.494ZM9.9349 117.474L4.93133 116.87C5.09401 115.947 5.45827 115.077 5.98049 114.278L11.1037 114.896C10.4595 115.665 10.0395 116.543 9.9349 117.474ZM11.261 114.715L6.10695 114.093C6.73693 113.185 7.58318 112.369 8.59123 111.672L14.9105 112.434C14.7979 112.472 14.686 112.511 14.5753 112.552C13.2556 113.038 12.0948 113.792 11.261 114.715ZM15.3717 112.29L8.84721 111.503C11.6478 109.68 15.6437 108.706 19.9537 109.011L19.9581 108.985L114.302 120.368L113.934 122.613C113.493 122.599 113.054 122.571 112.617 122.518C112.508 122.505 112.4 122.491 112.291 122.474C107.615 121.773 102.923 121.162 98.2227 120.595C96.7534 120.418 95.2825 120.245 93.8121 120.075C88.5681 119.467 83.3179 118.886 78.0701 118.311C68.4546 117.255 58.8352 116.223 49.2293 115.097C49.0549 115.077 48.8809 115.056 48.7064 115.035C45.5752 114.657 42.436 114.189 39.292 113.721C36.1482 113.253 32.9994 112.785 29.8478 112.404C27.0698 112.069 24.2897 111.803 21.5092 111.666C19.5215 111.568 17.3207 111.721 15.3717 112.29Z" fill="#D0C9B4"/>
<path fill-rule="evenodd" clip-rule="evenodd" d="M14.9106 112.434L8.59153 111.672C8.67581 111.615 8.76291 111.561 8.84743 111.503L15.3717 112.29C15.2163 112.336 15.0625 112.384 14.9106 112.434Z" fill="#CCB3A8"/>
<path fill-rule="evenodd" clip-rule="evenodd" d="M11.1037 114.895L5.98069 114.277C6.02032 114.215 6.06192 114.15 6.10708 114.093L11.261 114.715C11.2072 114.774 11.1547 114.834 11.1037 114.895Z" fill="#CCB3A8"/>
<path fill-rule="evenodd" clip-rule="evenodd" d="M9.91706 117.673L4.8989 117.067L4.93115 116.87L9.93454 117.474C9.92708 117.54 9.92127 117.606 9.91706 117.673Z" fill="#CCB3A8"/>
<path fill-rule="evenodd" clip-rule="evenodd" d="M10.882 120.713L5.13682 120.019C5.11246 119.949 5.09259 119.882 5.07471 119.811L10.7331 120.494C10.7816 120.567 10.8311 120.64 10.882 120.713Z" fill="#CCB3A8"/>
<path fill-rule="evenodd" clip-rule="evenodd" d="M111.775 135.806L106.481 135.168C107.229 135.178 107.976 135.198 108.721 135.236L111.807 135.609L111.775 135.806ZM14.4585 124.065L6.9442 123.158C6.8762 123.086 6.81351 123.01 6.75098 122.934L14.0883 123.819C14.2105 123.903 14.3339 123.985 14.4585 124.065Z" fill="#CCB3A8"/>
<path fill-rule="evenodd" clip-rule="evenodd" d="M99.781 106.511C96.4584 106.11 93.1348 105.633 89.8505 105.2C77.4126 103.559 65.0255 101.668 52.4963 100.156C46.1733 99.3933 40.0341 98.3856 33.8725 97.3737C31.0105 96.9028 27.9444 96.033 24.9115 95.6671C22.5397 95.381 20.1883 95.403 17.9713 96.1652C18.5003 90.7713 20.0902 85.2742 21.5064 80.0307C23.758 71.6974 25.3782 63.1656 26.7762 54.6264C28.654 43.1559 29.9825 31.3344 32.7164 19.9956C33.5331 16.6112 34.9853 14.0762 39.0447 13.6413C44.2898 13.0778 50.2497 13.3479 55.5653 13.3195C58.7688 13.3013 62.0284 13.5805 65.2926 13.9744C69.5116 14.4834 73.7378 15.1838 77.8563 15.6807C85.9994 16.6632 93.8238 18.1696 101.734 19.6504C106.898 20.6165 115.037 22.1624 117.64 26.9259C119.127 29.6499 117.646 32.1528 117.209 34.9284C116.653 38.4635 116.321 42.1449 115.73 45.7592C114.397 53.9021 112.521 61.7706 111.188 69.9148C110.078 76.6929 108.969 83.4696 107.859 90.2477C107.365 93.2682 106.81 96.2395 106.969 99.2241C107.106 101.83 107.641 104.603 106.806 107.204C104.474 107.039 102.128 106.794 99.781 106.511ZM45.6293 17.7485C44.7127 17.638 43.8639 18.2291 43.7274 19.0629L40.7532 37.2308C40.6159 38.0691 41.2422 38.8367 42.1588 38.9473L95.8919 45.4302C96.8085 45.5408 97.6618 44.9517 97.799 44.1134L100.773 25.9454C100.91 25.1117 100.279 24.342 99.3624 24.2315L45.6293 17.7485Z" fill="#E3674B"/>
<path fill-rule="evenodd" clip-rule="evenodd" d="M95.8917 45.4299L42.1587 38.947C41.242 38.8364 40.6157 38.0688 40.753 37.2305L43.7273 19.0626C43.8638 18.2289 44.7125 17.6377 45.6291 17.7483L99.3622 24.2312C100.279 24.3418 100.91 25.1114 100.773 25.9452L97.7988 44.1131C97.6616 44.9514 96.8083 45.5405 95.8917 45.4299ZM49.2019 36.1676C49.4934 36.3594 49.8189 36.5032 50.1788 36.5958C50.5407 36.6872 50.8997 36.7559 51.2579 36.7991C51.8914 36.8756 52.5663 36.848 53.2871 36.7202C54.0063 36.5908 54.6726 36.3564 55.2877 36.0176C55.9024 35.68 56.4371 35.2329 56.8934 34.6778C57.3492 34.1243 57.6391 33.4701 57.7622 32.7184C57.8599 32.1216 57.7913 31.5538 57.5583 31.0141C57.3029 30.4719 56.923 30.0337 56.4202 29.697C55.9156 29.3617 55.3904 29.082 54.8478 28.86C55.5027 28.5258 56.0967 28.0963 56.6217 27.569C57.1499 27.0435 57.4699 26.4332 57.5834 25.74C57.6969 25.0467 57.6031 24.4641 57.3031 23.9953C57.0044 23.5282 56.6104 23.1451 56.122 22.8504C55.6319 22.5557 55.11 22.336 54.5534 22.1884C53.9966 22.0437 53.5181 21.9471 53.1167 21.8987C52.5264 21.8275 51.9323 21.8095 51.336 21.845C50.7396 21.8819 50.1473 21.9924 49.5579 22.1748C49.1932 22.1711 48.8784 22.2211 48.6146 22.328C48.3492 22.4348 48.1124 22.6553 47.9085 22.9947C47.7029 23.3337 47.5154 23.8213 47.3472 24.4602C47.1776 25.0975 47.0074 25.9377 46.8369 26.9791C46.4394 29.4072 46.2369 31.8304 46.2264 34.2456C46.2317 34.4818 46.237 34.7092 46.2438 34.9264C46.252 35.1451 46.3079 35.3323 46.4104 35.4924C46.5134 35.6508 46.6846 35.7909 46.9214 35.9089C47.1618 36.0245 47.5132 36.1102 47.9771 36.1662C48.1657 36.189 48.3623 36.2036 48.5654 36.2089C48.7684 36.2139 48.981 36.2007 49.2019 36.1676ZM88.0911 35.141C88.5933 35.8893 89.031 36.6834 89.4102 37.5256C89.788 38.3661 90.0865 39.233 90.3059 40.1247C90.4237 40.5907 90.5828 40.9335 90.7831 41.1547C90.982 41.3756 91.4316 41.5282 92.1274 41.6122C92.4856 41.6554 92.8545 41.6641 93.2331 41.6427C93.612 41.6197 93.8271 41.4623 93.8743 41.1741C93.8994 41.0205 93.8873 40.8655 93.8371 40.7131C93.7858 40.5578 93.7526 40.4122 93.7331 40.2726C93.535 39.64 93.3066 38.9921 93.0491 38.3331C92.792 37.6726 92.4946 37.037 92.1543 36.4262C91.8125 35.8137 91.4295 35.2634 91.0066 34.7692C90.5799 34.2763 90.1035 33.8788 89.5733 33.5791C90.0138 33.1207 90.4844 32.6971 90.9905 32.3063C91.4947 31.9152 91.993 31.5233 92.4877 31.131C92.9829 30.7373 93.4513 30.3374 93.8948 29.9286C94.337 29.5195 94.7172 29.0702 95.0344 28.5774C95.0584 28.5609 95.0743 28.5225 95.0837 28.4655C95.1373 28.138 95.061 27.8871 94.8525 27.7159C94.6443 27.543 94.3826 27.4368 94.0661 27.3986C93.7303 27.358 93.4184 27.3891 93.1324 27.4918C92.8459 27.5974 92.5835 27.7268 92.3426 27.8827C92.1013 28.0415 91.8796 28.2207 91.6735 28.4225C91.4679 28.623 91.2786 28.8029 91.1031 28.9579C90.7024 29.3032 90.3026 29.6428 89.9036 29.9781C89.5062 30.3134 89.0967 30.6429 88.6768 30.9651C88.7748 30.3669 88.8892 29.7781 89.0157 29.1937C89.1456 28.6097 89.2556 28.0279 89.3504 27.4487C89.3567 27.4107 89.3477 27.3753 89.3186 27.3435C89.2934 27.3091 89.2829 27.2631 89.2922 27.206C89.2953 27.187 89.3039 27.1745 89.3169 27.1657C89.3281 27.1566 89.3369 27.1427 89.34 27.1238C89.362 26.9893 89.3034 26.8792 89.169 26.7929C89.0313 26.7077 88.8601 26.6377 88.6551 26.5847C88.4473 26.5284 88.2336 26.4891 88.0129 26.4625C87.7921 26.4359 87.6066 26.4135 87.4595 26.3957C87.3554 26.3832 87.2244 26.3867 87.071 26.407C86.9174 26.4288 86.7551 26.4629 86.5871 26.5126C86.4162 26.5607 86.2709 26.6312 86.1482 26.7237C86.0251 26.8177 85.9543 26.9316 85.932 27.0676C85.7052 27.786 85.5315 28.5272 85.407 29.2878C85.2822 30.0499 85.1586 30.8047 85.0356 31.5564C84.8462 32.7135 84.6671 33.8971 84.5021 35.1046C84.3368 36.3139 84.2457 37.4977 84.2276 38.6544C84.2167 38.8499 84.227 39.0272 84.2527 39.1884C84.2801 39.3499 84.3476 39.4952 84.4552 39.626C84.5644 39.7555 84.7365 39.8703 84.9797 39.9682C85.2213 40.0675 85.5535 40.1403 85.9757 40.1913C86.1228 40.209 86.2964 40.2255 86.4996 40.2396C86.6993 40.2548 86.8887 40.2536 87.0647 40.2348C87.2389 40.2169 87.3964 40.1808 87.5336 40.1302C87.6713 40.0767 87.7502 39.9937 87.7693 39.8766C87.7914 39.0738 87.8206 38.278 87.8527 37.4839C87.8864 36.6913 87.9652 35.9104 88.0911 35.141ZM79.245 25.0925C79.0726 25.0717 78.8967 25.056 78.7175 25.0456C77.6347 24.9731 76.6874 25.1408 75.8791 25.5444C75.071 25.9481 74.3806 26.4883 73.8098 27.1652C73.2352 27.8446 72.7733 28.6243 72.4268 29.5057C72.0767 30.3882 71.8327 31.2613 71.6907 32.1286C71.5516 32.9784 71.5304 33.7948 71.6264 34.5835C71.7227 35.3706 71.9551 36.0923 72.3198 36.7449C72.6858 37.399 73.1936 37.9436 73.8424 38.3739C74.4927 38.8058 75.3024 39.0811 76.2732 39.1982C77.3674 39.3302 78.3666 39.2046 79.2676 38.8226C80.1685 38.4405 80.9517 37.8907 81.6171 37.1745C82.2823 36.4583 82.8336 35.621 83.2699 34.6607C83.706 33.7006 84.008 32.7123 84.1754 31.6898C84.3366 30.7055 84.3199 29.8204 84.1263 29.0305C83.9326 28.2403 83.5937 27.5611 83.108 26.9908C82.6192 26.4202 81.9999 25.9682 81.2508 25.6317C80.6411 25.3603 79.9736 25.1805 79.245 25.0925ZM66.3136 23.5324C66.1409 23.5115 65.9647 23.4958 65.7851 23.4853C64.7009 23.4126 63.7551 23.5805 62.9469 23.9842C62.1403 24.388 61.4499 24.9282 60.8776 25.6049C60.3047 26.2845 59.8427 27.0642 59.4944 27.9454C59.1462 28.8281 58.9005 29.701 58.7585 30.5683C58.6194 31.4181 58.5999 32.2347 58.6959 33.0235C58.792 33.8105 59.0229 34.532 59.3891 35.1848C59.7551 35.8389 60.263 36.3835 60.9119 36.8138C61.5605 37.2456 62.3716 37.521 63.341 37.6379C64.4367 37.7701 65.436 37.6446 66.3369 37.2625C67.2363 36.8802 68.0195 36.3304 68.6848 35.6143C69.3501 34.8981 69.9015 34.0607 70.3376 33.1004C70.7738 32.1403 71.0757 31.152 71.2431 30.1295C71.4042 29.1452 71.3892 28.2603 71.1956 27.4704C71.0021 26.6803 70.6632 26.001 70.1759 25.4305C69.6885 24.8601 69.0692 24.4081 68.317 24.0712C67.711 23.8003 67.0434 23.6204 66.3136 23.5324ZM51.3835 35.0452C50.7934 34.974 50.233 34.7201 49.7046 34.2819C49.7108 34.2438 49.704 34.2147 49.6851 34.1914C49.6916 33.5046 49.7123 32.8195 49.7494 32.1349C49.786 31.4531 49.8372 30.7717 49.9063 30.0909C50.3908 30.1493 50.9155 30.1233 51.4812 30.0155C52.0487 29.9064 52.5904 29.7764 53.1097 29.6229C53.4765 29.8833 53.8202 30.2142 54.141 30.6168C54.4618 31.018 54.566 31.5676 54.4525 32.2608C54.3012 33.1851 53.9357 33.9034 53.3576 34.4153C52.7785 34.9242 52.1227 35.1344 51.3835 35.0452ZM76.512 37.9293C76.1328 37.8835 75.8421 37.6575 75.6396 37.2498C75.4372 36.8421 75.2956 36.3626 75.2143 35.8129C75.1331 35.263 75.0982 34.6787 75.113 34.0599C75.1293 33.4428 75.1735 32.9038 75.2494 32.4401C75.3469 31.8448 75.4729 31.2141 75.6233 30.5551C75.7754 29.8947 75.978 29.2749 76.2341 28.6971C76.4903 28.118 76.804 27.607 77.179 27.1601C77.5521 26.7143 78.023 26.3982 78.5921 26.2104C78.814 26.1595 78.9692 26.138 79.0541 26.1482C79.3899 26.1887 79.6788 26.3966 79.9199 26.7673C80.1587 27.1422 80.3444 27.5822 80.4767 28.089C80.6072 28.597 80.6883 29.1272 80.7154 29.6794C80.7423 30.233 80.724 30.7126 80.6577 31.1178C80.5755 31.6195 80.3957 32.26 80.1172 33.0438C79.8379 33.8246 79.5039 34.5896 79.1121 35.339C78.7221 36.0868 78.3002 36.7206 77.8503 37.2361C77.4007 37.7517 76.9534 37.9825 76.512 37.9293ZM63.5815 36.3692C63.2023 36.3234 62.9097 36.0972 62.7091 35.6897C62.5067 35.282 62.3651 34.8025 62.2822 34.2526C62.1991 33.7025 62.1675 33.1186 62.1824 32.4998C62.1987 31.8827 62.2444 31.3439 62.3203 30.8802C62.4178 30.2849 62.5407 29.6539 62.6909 28.9948C62.8431 28.3344 63.0473 27.7148 63.3018 27.1368C63.5596 26.5579 63.8733 26.0469 64.2468 25.5998C64.6214 25.1542 65.0923 24.8382 65.6597 24.6501C65.8818 24.5992 66.037 24.5777 66.1217 24.5879C66.4592 24.6287 66.7482 24.8365 66.9876 25.207C67.228 25.5821 67.4121 26.0219 67.5446 26.5287C67.6766 27.0369 67.7561 27.567 67.7848 28.1193C67.8117 28.6729 67.7935 29.1526 67.7271 29.5577C67.645 30.0594 67.4635 30.6997 67.1867 31.4837C66.9072 32.2645 66.5716 33.0293 66.1797 33.7787C65.7899 34.5266 65.368 35.1604 64.9182 35.6758C64.4685 36.1915 64.0227 36.4224 63.5815 36.3692ZM50.0185 28.8068C50.0781 28.1845 50.1403 27.5447 50.2046 26.8828C50.2702 26.2239 50.363 25.5266 50.483 24.7938C50.5872 24.1575 50.7909 23.7302 51.0974 23.5122C51.4007 23.2936 51.7939 23.2127 52.2803 23.2714C52.8498 23.3401 53.3419 23.5815 53.7571 23.9941C54.1735 24.4097 54.3261 24.9532 54.2155 25.629C54.0236 26.4113 53.7509 26.9915 53.3982 27.3725C53.0454 27.7536 52.6635 28.0252 52.2479 28.1913C51.834 28.3577 51.429 28.4714 51.0326 28.5309C50.6361 28.592 50.2981 28.6839 50.0185 28.8068Z" fill="#ED9A76"/>
<path fill-rule="evenodd" clip-rule="evenodd" d="M51.2576 36.7994C50.8995 36.7562 50.5404 36.6875 50.1786 36.5961C49.8186 36.5035 49.4931 36.3597 49.2016 36.1679C48.9808 36.201 48.7682 36.2142 48.5651 36.2092C48.3621 36.204 48.1655 36.1893 47.9768 36.1665C47.5129 36.1105 47.1616 36.0248 46.9212 35.9092C46.6844 35.7912 46.5131 35.6512 46.4102 35.4927C46.3077 35.3326 46.2518 35.1454 46.2435 34.9267C46.2368 34.7095 46.2315 34.4821 46.2261 34.2459C46.2366 31.8307 46.4392 29.4075 46.8367 26.9794C47.0072 25.938 47.1774 25.0978 47.347 24.4605C47.5152 23.8216 47.7026 23.334 47.9083 22.995C48.1122 22.6556 48.349 22.4351 48.6144 22.3283C48.8781 22.2214 49.193 22.1714 49.5576 22.1751C50.1471 21.9927 50.7394 21.8822 51.3358 21.8453C51.932 21.8098 52.5262 21.8278 53.1165 21.899C53.5178 21.9474 53.9963 22.044 54.5532 22.1887C55.1097 22.3363 55.6317 22.556 56.1218 22.8507C56.6102 23.1454 57.0041 23.5285 57.3028 23.9956C57.6029 24.4644 57.6966 25.047 57.5831 25.7403C57.4697 26.4335 57.1496 27.0438 56.6215 27.5693C56.0964 28.0966 55.5025 28.5261 54.8475 28.8603C55.3902 29.0823 55.9154 29.362 56.4199 29.6973C56.9227 30.034 57.3026 30.4722 57.558 31.0144C57.7911 31.5541 57.8597 32.1219 57.762 32.7187C57.6389 33.4705 57.349 34.1246 56.8931 34.6781C56.4368 35.2332 55.9021 35.6803 55.2874 36.0179C54.6724 36.3567 54.0061 36.5911 53.2868 36.7205C52.566 36.8483 51.8911 36.8759 51.2576 36.7994ZM53.1094 29.6232C52.5901 29.7767 52.0484 29.9067 51.481 30.0158C50.9153 30.1236 50.3906 30.1496 49.906 30.0912C49.8369 30.772 49.7858 31.4534 49.7491 32.1353C49.7121 32.8198 49.6913 33.5049 49.6848 34.1917C49.7038 34.215 49.7106 34.2441 49.7043 34.2822C50.2327 34.7204 50.7931 34.9743 51.3832 35.0455C52.1224 35.1347 52.7782 34.9245 53.3573 34.4156C53.9355 33.9037 54.301 33.1854 54.4523 32.2611C54.5658 31.5679 54.4616 31.0183 54.1407 30.6171C53.82 30.2145 53.4762 29.8836 53.1094 29.6232ZM52.2801 23.2717C51.7937 23.213 51.4005 23.2939 51.0972 23.5125C50.7906 23.7305 50.5869 24.1578 50.4828 24.7941C50.3628 25.5269 50.2699 26.2242 50.2044 26.8831C50.1401 27.545 50.0778 28.1849 50.0183 28.8071C50.2979 28.6843 50.6358 28.5923 51.0324 28.5312C51.4288 28.4717 51.8338 28.358 52.2477 28.1916C52.6632 28.0255 53.0452 27.7539 53.398 27.3728C53.7506 26.9918 54.0234 26.4116 54.2152 25.6293C54.3259 24.9535 54.1733 24.41 53.7569 23.9944C53.3417 23.5818 52.8495 23.3404 52.2801 23.2717Z" fill="#FDF9D1"/>
<path fill-rule="evenodd" clip-rule="evenodd" d="M63.3408 37.6379C62.3714 37.521 61.5603 37.2456 60.9117 36.8139C60.2628 36.3835 59.7549 35.839 59.3889 35.1848C59.0227 34.532 58.7918 33.8105 58.6957 33.0235C58.5997 32.2347 58.6192 31.4181 58.7583 30.5683C58.9003 29.701 59.146 28.8281 59.4942 27.9454C59.8425 27.0642 60.3044 26.2845 60.8774 25.6049C61.4497 24.9282 62.1401 24.388 62.9467 23.9842C63.7549 23.5805 64.7007 23.4126 65.7849 23.4853C65.9645 23.4958 66.1407 23.5115 66.3134 23.5324C67.0432 23.6204 67.7108 23.8003 68.3168 24.0712C69.069 24.4081 69.6883 24.8601 70.1756 25.4305C70.6629 26.001 71.0019 26.6803 71.1954 27.4704C71.389 28.2603 71.404 29.1452 71.2429 30.1295C71.0755 31.152 70.7736 32.1403 70.3373 33.1004C69.9012 34.0607 69.3498 34.8981 68.6845 35.6143C68.0192 36.3304 67.2361 36.8802 66.3367 37.2625C65.4358 37.6446 64.4365 37.7701 63.3408 37.6379ZM66.1215 24.5879C66.0368 24.5777 65.8816 24.5993 65.6595 24.6501C65.092 24.8382 64.6211 25.1542 64.2466 25.5998C63.8731 26.0469 63.5594 26.558 63.3016 27.1368C63.0471 27.7148 62.8429 28.3344 62.6907 28.9948C62.5405 29.6539 62.4176 30.2849 62.3201 30.8802C62.2442 31.3439 62.1985 31.8827 62.1822 32.4998C62.1673 33.1186 62.1989 33.7025 62.2819 34.2526C62.3648 34.8025 62.5065 35.282 62.7089 35.6897C62.9095 36.0973 63.2021 36.3234 63.5813 36.3692C64.0225 36.4224 64.4683 36.1915 64.9179 35.6758C65.3678 35.1604 65.7897 34.5266 66.1795 33.7787C66.5713 33.0293 66.907 32.2645 67.1865 31.4837C67.4633 30.6997 67.6448 30.0594 67.7269 29.5577C67.7932 29.1526 67.8115 28.6729 67.7846 28.1194C67.7559 27.567 67.6764 27.0369 67.5443 26.5287C67.4119 26.022 67.2277 25.5821 66.9873 25.207C66.748 24.8365 66.459 24.6287 66.1215 24.5879Z" fill="#FDF9D1"/>
<path fill-rule="evenodd" clip-rule="evenodd" d="M76.2734 39.1982C75.3026 39.0811 74.4929 38.8059 73.8426 38.374C73.1938 37.9436 72.686 37.3991 72.32 36.7449C71.9553 36.0923 71.7229 35.3707 71.6266 34.5836C71.5306 33.7948 71.5518 32.9784 71.6909 32.1287C71.8329 31.2613 72.0769 30.3882 72.427 29.5057C72.7735 28.6243 73.2354 27.8446 73.81 27.1652C74.3808 26.4883 75.0712 25.9481 75.8794 25.5445C76.6877 25.1408 77.635 24.9732 78.7177 25.0456C78.8969 25.0561 79.0728 25.0718 79.2452 25.0926C79.9739 25.1805 80.6413 25.3604 81.251 25.6317C82.0001 25.9682 82.6195 26.4203 83.1083 26.9908C83.5939 27.5611 83.9328 28.2404 84.1266 29.0305C84.3202 29.8204 84.3368 30.7055 84.1756 31.6898C84.0082 32.7124 83.7062 33.7006 83.2701 34.6607C82.8339 35.621 82.2825 36.4584 81.6173 37.1746C80.9519 37.8908 80.1687 38.4406 79.2678 38.8226C78.3668 39.2047 77.3676 39.3303 76.2734 39.1982ZM79.0543 26.1483C78.9694 26.138 78.8142 26.1596 78.5923 26.2104C78.0232 26.3983 77.5523 26.7144 77.1792 27.1601C76.8042 27.607 76.4905 28.1181 76.2344 28.6972C75.9782 29.2749 75.7757 29.8948 75.6235 30.5551C75.4731 31.2142 75.3471 31.8448 75.2496 32.4401C75.1737 32.9038 75.1295 33.4428 75.1132 34.0599C75.0984 34.6787 75.1333 35.2631 75.2146 35.8129C75.2958 36.3626 75.4374 36.8421 75.6399 37.2499C75.8423 37.6576 76.1331 37.8835 76.5123 37.9293C76.9537 37.9826 77.4009 37.7518 77.8506 37.2361C78.3004 36.7207 78.7224 36.0869 79.1123 35.339C79.5041 34.5897 79.8381 33.8246 80.1174 33.0438C80.3959 32.26 80.5758 31.6195 80.6579 31.1178C80.7242 30.7127 80.7425 30.233 80.7156 29.6795C80.6885 29.1273 80.6074 28.597 80.477 28.089C80.3446 27.5823 80.1589 27.1423 79.9201 26.7674C79.679 26.3966 79.3901 26.1888 79.0543 26.1483Z" fill="#FDF9D1"/>
<path fill-rule="evenodd" clip-rule="evenodd" d="M92.1275 41.6123C91.4317 41.5283 90.9821 41.3756 90.7832 41.1548C90.5829 40.9336 90.4238 40.5908 90.3061 40.1247C90.0866 39.2331 89.7881 38.3662 89.4103 37.5257C89.0311 36.6835 88.5935 35.8893 88.0912 35.1411C87.9653 35.9104 87.8865 36.6914 87.8528 37.4839C87.8207 38.278 87.7916 39.0739 87.7694 39.8767C87.7503 39.9938 87.6714 40.0767 87.5337 40.1302C87.3966 40.1809 87.239 40.217 87.0648 40.2348C86.8888 40.2537 86.6995 40.2549 86.4997 40.2397C86.2965 40.2256 86.1229 40.2091 85.9758 40.1913C85.5536 40.1404 85.2214 40.0675 84.9798 39.9683C84.7366 39.8704 84.5645 39.7556 84.4553 39.6261C84.3477 39.4952 84.2803 39.35 84.2528 39.1885C84.2271 39.0273 84.2168 38.85 84.2277 38.6545C84.2458 37.4977 84.3369 36.314 84.5022 35.1047C84.6672 33.8971 84.8463 32.7136 85.0357 31.5565C85.1588 30.8048 85.2823 30.05 85.4071 29.2879C85.5316 28.5273 85.7053 27.7861 85.9321 27.0677C85.9544 26.9317 86.0252 26.8178 86.1483 26.7238C86.271 26.6313 86.4163 26.5608 86.5872 26.5127C86.7552 26.463 86.9175 26.4288 87.0711 26.4071C87.2246 26.3867 87.3555 26.3833 87.4596 26.3958C87.6067 26.4136 87.7922 26.4359 88.013 26.4626C88.2337 26.4892 88.4474 26.5285 88.6552 26.5848C88.8603 26.6378 89.0314 26.7078 89.1691 26.7929C89.3035 26.8793 89.3621 26.9894 89.3401 27.1239C89.337 27.1428 89.3282 27.1567 89.317 27.1658C89.304 27.1746 89.2955 27.1871 89.2923 27.2061C89.283 27.2632 89.2936 27.3091 89.3187 27.3435C89.3478 27.3754 89.3568 27.4107 89.3505 27.4487C89.2557 28.028 89.1457 28.6097 89.0158 29.1938C88.8893 29.7781 88.7749 30.367 88.6769 30.9652C89.0968 30.6429 89.5063 30.3135 89.9037 29.9781C90.3027 29.6428 90.7025 29.3033 91.1032 28.9579C91.2787 28.8029 91.468 28.6231 91.6736 28.4226C91.8797 28.2207 92.1014 28.0416 92.3427 27.8827C92.5836 27.7269 92.846 27.5975 93.1325 27.4919C93.4185 27.3892 93.7304 27.3581 94.0663 27.3986C94.3827 27.4368 94.6444 27.5431 94.8526 27.7159C95.0611 27.8871 95.1374 28.138 95.0838 28.4656C95.0744 28.5226 95.0585 28.5609 95.0345 28.5775C94.7173 29.0702 94.3371 29.5196 93.895 29.9287C93.4514 30.3374 92.983 30.7374 92.4878 31.1311C91.9931 31.5234 91.4948 31.9153 90.9906 32.3063C90.4845 32.6972 90.0139 33.1207 89.5734 33.5792C90.1036 33.8789 90.58 34.2763 91.0067 34.7693C91.4297 35.2635 91.8126 35.8137 92.1544 36.4263C92.4947 37.0371 92.7921 37.6727 93.0492 38.3332C93.3067 38.9921 93.5351 39.6401 93.7332 40.2726C93.7527 40.4123 93.786 40.5579 93.8372 40.7132C93.8874 40.8656 93.8995 41.0206 93.8744 41.1741C93.8272 41.4623 93.6121 41.6198 93.2332 41.6428C92.8546 41.6642 92.4857 41.6555 92.1275 41.6123Z" fill="#FDF9D1"/>
</svg>
