<svg width="107" height="141" viewBox="0 0 107 141" fill="none" xmlns="http://www.w3.org/2000/svg">
<path fill-rule="evenodd" clip-rule="evenodd" d="M85.3122 133.619C84.8809 136.347 82.3364 138.28 79.6288 137.942L7.83987 128.97C5.1323 128.631 3.28622 126.15 3.71747 123.421L22.124 6.95812C22.5549 4.23163 25.0991 2.29593 27.8066 2.63431L99.5956 11.6061C102.303 11.9445 104.15 14.4289 103.719 17.1554L85.3122 133.619ZM99.8747 9.83984L28.0858 0.868031C24.2553 0.389322 20.6648 3.00742 20.0808 6.70277L1.67429 123.166C1.09015 126.862 3.73016 130.258 7.5606 130.737L79.3495 139.709C83.1825 140.188 86.7712 137.57 87.3554 133.874L105.762 17.4107C106.346 13.7154 103.708 10.3189 99.8747 9.83984Z" fill="#C6C6C3"/>
<path fill-rule="evenodd" clip-rule="evenodd" d="M10.636 114.16L81.5315 123.02L97.0303 24.9543L26.1349 16.0941L10.636 114.16ZM99.3679 13.0467L94.1853 12.399L27.2075 4.03651C24.4999 3.69814 22.0081 5.32378 21.5779 8.04595L3.17091 124.512C2.95642 125.869 3.30439 127.164 4.0398 128.164C3.94694 127.955 3.86866 127.74 3.8038 127.521C4.43993 129.047 5.83979 130.189 7.61205 130.41L79.4011 139.382C82.1087 139.721 84.6533 137.788 85.0845 135.059L103.491 18.596C103.922 15.8695 102.075 13.3851 99.3679 13.0467Z" fill="#FFFFFE"/>
<path fill-rule="evenodd" clip-rule="evenodd" d="M45.3844 123.008C42.4284 122.639 39.7019 124.411 39.2977 126.968L39.2922 127.148C39.7271 124.396 42.4822 122.745 45.3715 123.106C48.2616 123.467 50.4111 125.627 49.9599 128.481L50.0096 128.307C50.4137 125.75 48.3429 123.378 45.3844 123.008Z" fill="#C6C6C3"/>
<path fill-rule="evenodd" clip-rule="evenodd" d="M45.2647 123.767C42.678 123.444 40.2999 124.996 39.9467 127.23C39.9098 127.463 39.9092 127.693 39.9153 127.924C40.8441 128.759 41.5432 129.521 44.3033 129.866C46.4457 130.134 47.8094 129.708 49.1212 129.072C49.2016 128.854 49.2746 128.634 49.3115 128.4C49.6647 126.166 47.8522 124.09 45.2647 123.767Z" fill="#C6C6C3"/>
<path fill-rule="evenodd" clip-rule="evenodd" d="M49.1213 129.072C47.8095 129.708 46.4459 130.134 44.3035 129.866C41.5434 129.521 40.8443 128.759 39.9154 127.924L39.9033 127.909L39.9142 127.986C39.9192 128.088 39.941 128.187 39.9572 128.289C39.9779 128.443 40.0019 128.598 40.0418 128.749C40.0713 128.847 40.1096 128.944 40.1462 129.04C40.2026 129.189 40.2605 129.333 40.334 129.471C40.3795 129.56 40.4318 129.643 40.4845 129.729C40.5726 129.87 40.6725 130.008 40.777 130.137C40.8334 130.211 40.894 130.279 40.9567 130.35C41.0791 130.485 41.2165 130.611 41.3584 130.729L41.5543 130.894C41.7175 131.012 41.8901 131.119 42.0748 131.225L42.2653 131.338C42.4748 131.443 42.6961 131.527 42.9241 131.607L43.0812 131.667C43.3641 131.754 43.6621 131.821 43.973 131.86L43.98 131.859L43.9855 131.862L44.0448 131.863C46.3572 132.125 48.4259 131.095 49.0668 129.234L49.0946 129.171L49.1413 129.064L49.1213 129.072Z" fill="#9B9D9C"/>
<mask id="mask0_12563:8437" style="mask-type:alpha" maskUnits="userSpaceOnUse" x="53" y="13" width="19" height="4">
<path d="M70.7624 16.0549L54.1435 13.9779C53.9325 13.9516 53.7448 13.8591 53.5879 13.7227C53.6578 14.3719 54.0246 14.8754 54.5464 14.9406L70.0775 16.8816C70.5977 16.9466 71.1096 16.553 71.3772 15.9459C71.1841 16.0385 70.9725 16.0811 70.7624 16.0549Z" fill="white"/>
</mask>
<g mask="url(#mask0_12563:8437)">
<path fill-rule="evenodd" clip-rule="evenodd" d="M70.7624 16.0549L54.1435 13.9779C53.9325 13.9516 53.7448 13.8591 53.5879 13.7227C53.6578 14.3719 54.0246 14.8754 54.5464 14.9406L70.0775 16.8816C70.5977 16.9466 71.1096 16.553 71.3772 15.9459C71.1841 16.0385 70.9725 16.0811 70.7624 16.0549Z" fill="url(#paint0_linear_12563:8437)"/>
</g>
<path fill-rule="evenodd" clip-rule="evenodd" d="M8.66821 116.196L82.8004 125.461L99.0067 22.9191L24.8745 13.6544L8.66821 116.196Z" fill="#3E4141"/>
<path fill-rule="evenodd" clip-rule="evenodd" d="M13.3043 85.6241L24.6826 13.6303L24.8743 13.6543L13.5251 85.4643L13.3043 85.6241Z" fill="#FFFFFE"/>
<path fill-rule="evenodd" clip-rule="evenodd" d="M13.5253 85.4645L24.8745 13.6544L98.8151 22.8951L98.6699 23.8143L13.5253 85.4645Z" fill="#515453"/>
<defs>
<linearGradient id="paint0_linear_12563:8437" x1="62.4828" y1="14.8328" x2="62.3467" y2="15.9218" gradientUnits="userSpaceOnUse">
<stop stop-color="#AFB0AC"/>
<stop offset="1" stop-color="#737573"/>
</linearGradient>
</defs>
</svg>
